<?xml version="1.0" encoding="utf-8" standalone="no"?>
<!DOCTYPE svg PUBLIC "-//W3C//DTD SVG 1.1//EN"
  "http://www.w3.org/Graphics/SVG/1.1/DTD/svg11.dtd">
<svg xmlns:xlink="http://www.w3.org/1999/xlink" width="208.818125pt" height="122.445156pt" viewBox="0 0 208.818125 122.445156" xmlns="http://www.w3.org/2000/svg" version="1.1">
 <metadata>
  <rdf:RDF xmlns:dc="http://purl.org/dc/elements/1.1/" xmlns:cc="http://creativecommons.org/ns#" xmlns:rdf="http://www.w3.org/1999/02/22-rdf-syntax-ns#">
   <cc:Work>
    <dc:type rdf:resource="http://purl.org/dc/dcmitype/StillImage"/>
    <dc:date>2026-04-22T21:54:45.292575</dc:date>
    <dc:format>image/svg+xml</dc:format>
    <dc:creator>
     <cc:Agent>
      <dc:title>Matplotlib v3.8.2, https://matplotlib.org/</dc:title>
     </cc:Agent>
    </dc:creator>
   </cc:Work>
  </rdf:RDF>
 </metadata>
 <defs>
  <style type="text/css">*{stroke-linejoin: round; stroke-linecap: butt}</style>
 </defs>
 <g id="figure_1">
  <g id="patch_1">
   <path d="M -0 122.445156 
L 208.818125 122.445156 
L 208.818125 0 
L -0 0 
z
" style="fill: #ffffff"/>
  </g>
  <g id="axes_1">
   <g id="patch_2">
    <path d="M 25.688125 95.099219 
L 201.618125 95.099219 
L 201.618125 13.999219 
L 25.688125 13.999219 
z
" style="fill: #ffffff"/>
   </g>
   <g id="matplotlib.axis_1">
    <g id="xtick_1">
     <g id="line2d_1">
      <defs>
       <path id="mc61fe63212" d="M 0 0 
L 0 2 
" style="stroke: #000000; stroke-width: 0.5"/>
      </defs>
      <g>
       <use xlink:href="#mc61fe63212" x="33.684943" y="95.099219" style="stroke: #000000; stroke-width: 0.5"/>
      </g>
     </g>
     <g id="text_1">
      <!-- 0.0 -->
      <g transform="translate(29.709162 104.398437) scale(0.05 -0.05)">
       <defs>
        <path id="DejaVuSans-30" d="M 2034 4250 
Q 1547 4250 1301 3770 
Q 1056 3291 1056 2328 
Q 1056 1369 1301 889 
Q 1547 409 2034 409 
Q 2525 409 2770 889 
Q 3016 1369 3016 2328 
Q 3016 3291 2770 3770 
Q 2525 4250 2034 4250 
z
M 2034 4750 
Q 2819 4750 3233 4129 
Q 3647 3509 3647 2328 
Q 3647 1150 3233 529 
Q 2819 -91 2034 -91 
Q 1250 -91 836 529 
Q 422 1150 422 2328 
Q 422 3509 836 4129 
Q 1250 4750 2034 4750 
z
" transform="scale(0.015625)"/>
        <path id="DejaVuSans-2e" d="M 684 794 
L 1344 794 
L 1344 0 
L 684 0 
L 684 794 
z
" transform="scale(0.015625)"/>
       </defs>
       <use xlink:href="#DejaVuSans-30"/>
       <use xlink:href="#DejaVuSans-2e" x="63.623047"/>
       <use xlink:href="#DejaVuSans-30" x="95.410156"/>
      </g>
     </g>
    </g>
    <g id="xtick_2">
     <g id="line2d_2">
      <g>
       <use xlink:href="#mc61fe63212" x="65.672216" y="95.099219" style="stroke: #000000; stroke-width: 0.5"/>
      </g>
     </g>
     <g id="text_2">
      <!-- 0.2 -->
      <g transform="translate(61.696435 104.398437) scale(0.05 -0.05)">
       <defs>
        <path id="DejaVuSans-32" d="M 1228 531 
L 3431 531 
L 3431 0 
L 469 0 
L 469 531 
Q 828 903 1448 1529 
Q 2069 2156 2228 2338 
Q 2531 2678 2651 2914 
Q 2772 3150 2772 3378 
Q 2772 3750 2511 3984 
Q 2250 4219 1831 4219 
Q 1534 4219 1204 4116 
Q 875 4013 500 3803 
L 500 4441 
Q 881 4594 1212 4672 
Q 1544 4750 1819 4750 
Q 2544 4750 2975 4387 
Q 3406 4025 3406 3419 
Q 3406 3131 3298 2873 
Q 3191 2616 2906 2266 
Q 2828 2175 2409 1742 
Q 1991 1309 1228 531 
z
" transform="scale(0.015625)"/>
       </defs>
       <use xlink:href="#DejaVuSans-30"/>
       <use xlink:href="#DejaVuSans-2e" x="63.623047"/>
       <use xlink:href="#DejaVuSans-32" x="95.410156"/>
      </g>
     </g>
    </g>
    <g id="xtick_3">
     <g id="line2d_3">
      <g>
       <use xlink:href="#mc61fe63212" x="97.659489" y="95.099219" style="stroke: #000000; stroke-width: 0.5"/>
      </g>
     </g>
     <g id="text_3">
      <!-- 0.4 -->
      <g transform="translate(93.683707 104.398437) scale(0.05 -0.05)">
       <defs>
        <path id="DejaVuSans-34" d="M 2419 4116 
L 825 1625 
L 2419 1625 
L 2419 4116 
z
M 2253 4666 
L 3047 4666 
L 3047 1625 
L 3713 1625 
L 3713 1100 
L 3047 1100 
L 3047 0 
L 2419 0 
L 2419 1100 
L 313 1100 
L 313 1709 
L 2253 4666 
z
" transform="scale(0.015625)"/>
       </defs>
       <use xlink:href="#DejaVuSans-30"/>
       <use xlink:href="#DejaVuSans-2e" x="63.623047"/>
       <use xlink:href="#DejaVuSans-34" x="95.410156"/>
      </g>
     </g>
    </g>
    <g id="xtick_4">
     <g id="line2d_4">
      <g>
       <use xlink:href="#mc61fe63212" x="129.646761" y="95.099219" style="stroke: #000000; stroke-width: 0.5"/>
      </g>
     </g>
     <g id="text_4">
      <!-- 0.6 -->
      <g transform="translate(125.67098 104.398437) scale(0.05 -0.05)">
       <defs>
        <path id="DejaVuSans-36" d="M 2113 2584 
Q 1688 2584 1439 2293 
Q 1191 2003 1191 1497 
Q 1191 994 1439 701 
Q 1688 409 2113 409 
Q 2538 409 2786 701 
Q 3034 994 3034 1497 
Q 3034 2003 2786 2293 
Q 2538 2584 2113 2584 
z
M 3366 4563 
L 3366 3988 
Q 3128 4100 2886 4159 
Q 2644 4219 2406 4219 
Q 1781 4219 1451 3797 
Q 1122 3375 1075 2522 
Q 1259 2794 1537 2939 
Q 1816 3084 2150 3084 
Q 2853 3084 3261 2657 
Q 3669 2231 3669 1497 
Q 3669 778 3244 343 
Q 2819 -91 2113 -91 
Q 1303 -91 875 529 
Q 447 1150 447 2328 
Q 447 3434 972 4092 
Q 1497 4750 2381 4750 
Q 2619 4750 2861 4703 
Q 3103 4656 3366 4563 
z
" transform="scale(0.015625)"/>
       </defs>
       <use xlink:href="#DejaVuSans-30"/>
       <use xlink:href="#DejaVuSans-2e" x="63.623047"/>
       <use xlink:href="#DejaVuSans-36" x="95.410156"/>
      </g>
     </g>
    </g>
    <g id="xtick_5">
     <g id="line2d_5">
      <g>
       <use xlink:href="#mc61fe63212" x="161.634034" y="95.099219" style="stroke: #000000; stroke-width: 0.5"/>
      </g>
     </g>
     <g id="text_5">
      <!-- 0.8 -->
      <g transform="translate(157.658253 104.398437) scale(0.05 -0.05)">
       <defs>
        <path id="DejaVuSans-38" d="M 2034 2216 
Q 1584 2216 1326 1975 
Q 1069 1734 1069 1313 
Q 1069 891 1326 650 
Q 1584 409 2034 409 
Q 2484 409 2743 651 
Q 3003 894 3003 1313 
Q 3003 1734 2745 1975 
Q 2488 2216 2034 2216 
z
M 1403 2484 
Q 997 2584 770 2862 
Q 544 3141 544 3541 
Q 544 4100 942 4425 
Q 1341 4750 2034 4750 
Q 2731 4750 3128 4425 
Q 3525 4100 3525 3541 
Q 3525 3141 3298 2862 
Q 3072 2584 2669 2484 
Q 3125 2378 3379 2068 
Q 3634 1759 3634 1313 
Q 3634 634 3220 271 
Q 2806 -91 2034 -91 
Q 1263 -91 848 271 
Q 434 634 434 1313 
Q 434 1759 690 2068 
Q 947 2378 1403 2484 
z
M 1172 3481 
Q 1172 3119 1398 2916 
Q 1625 2713 2034 2713 
Q 2441 2713 2670 2916 
Q 2900 3119 2900 3481 
Q 2900 3844 2670 4047 
Q 2441 4250 2034 4250 
Q 1625 4250 1398 4047 
Q 1172 3844 1172 3481 
z
" transform="scale(0.015625)"/>
       </defs>
       <use xlink:href="#DejaVuSans-30"/>
       <use xlink:href="#DejaVuSans-2e" x="63.623047"/>
       <use xlink:href="#DejaVuSans-38" x="95.410156"/>
      </g>
     </g>
    </g>
    <g id="xtick_6">
     <g id="line2d_6">
      <g>
       <use xlink:href="#mc61fe63212" x="193.621307" y="95.099219" style="stroke: #000000; stroke-width: 0.5"/>
      </g>
     </g>
     <g id="text_6">
      <!-- 1.0 -->
      <g transform="translate(189.645526 104.398437) scale(0.05 -0.05)">
       <defs>
        <path id="DejaVuSans-31" d="M 794 531 
L 1825 531 
L 1825 4091 
L 703 3866 
L 703 4441 
L 1819 4666 
L 2450 4666 
L 2450 531 
L 3481 531 
L 3481 0 
L 794 0 
L 794 531 
z
" transform="scale(0.015625)"/>
       </defs>
       <use xlink:href="#DejaVuSans-31"/>
       <use xlink:href="#DejaVuSans-2e" x="63.623047"/>
       <use xlink:href="#DejaVuSans-30" x="95.410156"/>
      </g>
     </g>
    </g>
    <g id="text_7">
     <!-- I(X;R) -->
     <g transform="translate(105.277031 113.997344) scale(0.06 -0.06)">
      <defs>
       <path id="DejaVuSans-49" d="M 628 4666 
L 1259 4666 
L 1259 0 
L 628 0 
L 628 4666 
z
" transform="scale(0.015625)"/>
       <path id="DejaVuSans-28" d="M 1984 4856 
Q 1566 4138 1362 3434 
Q 1159 2731 1159 2009 
Q 1159 1288 1364 580 
Q 1569 -128 1984 -844 
L 1484 -844 
Q 1016 -109 783 600 
Q 550 1309 550 2009 
Q 550 2706 781 3412 
Q 1013 4119 1484 4856 
L 1984 4856 
z
" transform="scale(0.015625)"/>
       <path id="DejaVuSans-58" d="M 403 4666 
L 1081 4666 
L 2241 2931 
L 3406 4666 
L 4084 4666 
L 2584 2425 
L 4184 0 
L 3506 0 
L 2194 1984 
L 872 0 
L 191 0 
L 1856 2491 
L 403 4666 
z
" transform="scale(0.015625)"/>
       <path id="DejaVuSans-3b" d="M 750 3309 
L 1409 3309 
L 1409 2516 
L 750 2516 
L 750 3309 
z
M 750 794 
L 1409 794 
L 1409 256 
L 897 -744 
L 494 -744 
L 750 256 
L 750 794 
z
" transform="scale(0.015625)"/>
       <path id="DejaVuSans-52" d="M 2841 2188 
Q 3044 2119 3236 1894 
Q 3428 1669 3622 1275 
L 4263 0 
L 3584 0 
L 2988 1197 
Q 2756 1666 2539 1819 
Q 2322 1972 1947 1972 
L 1259 1972 
L 1259 0 
L 628 0 
L 628 4666 
L 2053 4666 
Q 2853 4666 3247 4331 
Q 3641 3997 3641 3322 
Q 3641 2881 3436 2590 
Q 3231 2300 2841 2188 
z
M 1259 4147 
L 1259 2491 
L 2053 2491 
Q 2509 2491 2742 2702 
Q 2975 2913 2975 3322 
Q 2975 3731 2742 3939 
Q 2509 4147 2053 4147 
L 1259 4147 
z
" transform="scale(0.015625)"/>
       <path id="DejaVuSans-29" d="M 513 4856 
L 1013 4856 
Q 1481 4119 1714 3412 
Q 1947 2706 1947 2009 
Q 1947 1309 1714 600 
Q 1481 -109 1013 -844 
L 513 -844 
Q 928 -128 1133 580 
Q 1338 1288 1338 2009 
Q 1338 2731 1133 3434 
Q 928 4138 513 4856 
z
" transform="scale(0.015625)"/>
      </defs>
      <use xlink:href="#DejaVuSans-49"/>
      <use xlink:href="#DejaVuSans-28" x="29.492188"/>
      <use xlink:href="#DejaVuSans-58" x="68.505859"/>
      <use xlink:href="#DejaVuSans-3b" x="137.011719"/>
      <use xlink:href="#DejaVuSans-52" x="170.703125"/>
      <use xlink:href="#DejaVuSans-29" x="240.185547"/>
     </g>
    </g>
   </g>
   <g id="matplotlib.axis_2">
    <g id="ytick_1">
     <g id="line2d_7">
      <defs>
       <path id="m989d92313d" d="M 0 0 
L -2 0 
" style="stroke: #000000; stroke-width: 0.5"/>
      </defs>
      <g>
       <use xlink:href="#m989d92313d" x="25.688125" y="91.412855" style="stroke: #000000; stroke-width: 0.5"/>
      </g>
     </g>
     <g id="text_8">
      <!-- 0 -->
      <g transform="translate(17.006875 93.312464) scale(0.05 -0.05)">
       <use xlink:href="#DejaVuSans-30"/>
      </g>
     </g>
    </g>
    <g id="ytick_2">
     <g id="line2d_8">
      <g>
       <use xlink:href="#m989d92313d" x="25.688125" y="79.554351" style="stroke: #000000; stroke-width: 0.5"/>
      </g>
     </g>
     <g id="text_9">
      <!-- 1 -->
      <g transform="translate(17.006875 81.45396) scale(0.05 -0.05)">
       <use xlink:href="#DejaVuSans-31"/>
      </g>
     </g>
    </g>
    <g id="ytick_3">
     <g id="line2d_9">
      <g>
       <use xlink:href="#m989d92313d" x="25.688125" y="67.695847" style="stroke: #000000; stroke-width: 0.5"/>
      </g>
     </g>
     <g id="text_10">
      <!-- 2 -->
      <g transform="translate(17.006875 69.595456) scale(0.05 -0.05)">
       <use xlink:href="#DejaVuSans-32"/>
      </g>
     </g>
    </g>
    <g id="ytick_4">
     <g id="line2d_10">
      <g>
       <use xlink:href="#m989d92313d" x="25.688125" y="55.837342" style="stroke: #000000; stroke-width: 0.5"/>
      </g>
     </g>
     <g id="text_11">
      <!-- 3 -->
      <g transform="translate(17.006875 57.736952) scale(0.05 -0.05)">
       <defs>
        <path id="DejaVuSans-33" d="M 2597 2516 
Q 3050 2419 3304 2112 
Q 3559 1806 3559 1356 
Q 3559 666 3084 287 
Q 2609 -91 1734 -91 
Q 1441 -91 1130 -33 
Q 819 25 488 141 
L 488 750 
Q 750 597 1062 519 
Q 1375 441 1716 441 
Q 2309 441 2620 675 
Q 2931 909 2931 1356 
Q 2931 1769 2642 2001 
Q 2353 2234 1838 2234 
L 1294 2234 
L 1294 2753 
L 1863 2753 
Q 2328 2753 2575 2939 
Q 2822 3125 2822 3475 
Q 2822 3834 2567 4026 
Q 2313 4219 1838 4219 
Q 1578 4219 1281 4162 
Q 984 4106 628 3988 
L 628 4550 
Q 988 4650 1302 4700 
Q 1616 4750 1894 4750 
Q 2613 4750 3031 4423 
Q 3450 4097 3450 3541 
Q 3450 3153 3228 2886 
Q 3006 2619 2597 2516 
z
" transform="scale(0.015625)"/>
       </defs>
       <use xlink:href="#DejaVuSans-33"/>
      </g>
     </g>
    </g>
    <g id="ytick_5">
     <g id="line2d_11">
      <g>
       <use xlink:href="#m989d92313d" x="25.688125" y="43.978838" style="stroke: #000000; stroke-width: 0.5"/>
      </g>
     </g>
     <g id="text_12">
      <!-- 4 -->
      <g transform="translate(17.006875 45.878448) scale(0.05 -0.05)">
       <use xlink:href="#DejaVuSans-34"/>
      </g>
     </g>
    </g>
    <g id="ytick_6">
     <g id="line2d_12">
      <g>
       <use xlink:href="#m989d92313d" x="25.688125" y="32.120334" style="stroke: #000000; stroke-width: 0.5"/>
      </g>
     </g>
     <g id="text_13">
      <!-- 5 -->
      <g transform="translate(17.006875 34.019943) scale(0.05 -0.05)">
       <defs>
        <path id="DejaVuSans-35" d="M 691 4666 
L 3169 4666 
L 3169 4134 
L 1269 4134 
L 1269 2991 
Q 1406 3038 1543 3061 
Q 1681 3084 1819 3084 
Q 2600 3084 3056 2656 
Q 3513 2228 3513 1497 
Q 3513 744 3044 326 
Q 2575 -91 1722 -91 
Q 1428 -91 1123 -41 
Q 819 9 494 109 
L 494 744 
Q 775 591 1075 516 
Q 1375 441 1709 441 
Q 2250 441 2565 725 
Q 2881 1009 2881 1497 
Q 2881 1984 2565 2268 
Q 2250 2553 1709 2553 
Q 1456 2553 1204 2497 
Q 953 2441 691 2322 
L 691 4666 
z
" transform="scale(0.015625)"/>
       </defs>
       <use xlink:href="#DejaVuSans-35"/>
      </g>
     </g>
    </g>
    <g id="ytick_7">
     <g id="line2d_13">
      <g>
       <use xlink:href="#m989d92313d" x="25.688125" y="20.26183" style="stroke: #000000; stroke-width: 0.5"/>
      </g>
     </g>
     <g id="text_14">
      <!-- 6 -->
      <g transform="translate(17.006875 22.161439) scale(0.05 -0.05)">
       <use xlink:href="#DejaVuSans-36"/>
      </g>
     </g>
    </g>
    <g id="text_15">
     <!-- Max difference -->
     <g transform="translate(11.759062 76.809687) rotate(-90) scale(0.06 -0.06)">
      <defs>
       <path id="DejaVuSans-4d" d="M 628 4666 
L 1569 4666 
L 2759 1491 
L 3956 4666 
L 4897 4666 
L 4897 0 
L 4281 0 
L 4281 4097 
L 3078 897 
L 2444 897 
L 1241 4097 
L 1241 0 
L 628 0 
L 628 4666 
z
" transform="scale(0.015625)"/>
       <path id="DejaVuSans-61" d="M 2194 1759 
Q 1497 1759 1228 1600 
Q 959 1441 959 1056 
Q 959 750 1161 570 
Q 1363 391 1709 391 
Q 2188 391 2477 730 
Q 2766 1069 2766 1631 
L 2766 1759 
L 2194 1759 
z
M 3341 1997 
L 3341 0 
L 2766 0 
L 2766 531 
Q 2569 213 2275 61 
Q 1981 -91 1556 -91 
Q 1019 -91 701 211 
Q 384 513 384 1019 
Q 384 1609 779 1909 
Q 1175 2209 1959 2209 
L 2766 2209 
L 2766 2266 
Q 2766 2663 2505 2880 
Q 2244 3097 1772 3097 
Q 1472 3097 1187 3025 
Q 903 2953 641 2809 
L 641 3341 
Q 956 3463 1253 3523 
Q 1550 3584 1831 3584 
Q 2591 3584 2966 3190 
Q 3341 2797 3341 1997 
z
" transform="scale(0.015625)"/>
       <path id="DejaVuSans-78" d="M 3513 3500 
L 2247 1797 
L 3578 0 
L 2900 0 
L 1881 1375 
L 863 0 
L 184 0 
L 1544 1831 
L 300 3500 
L 978 3500 
L 1906 2253 
L 2834 3500 
L 3513 3500 
z
" transform="scale(0.015625)"/>
       <path id="DejaVuSans-20" transform="scale(0.015625)"/>
       <path id="DejaVuSans-64" d="M 2906 2969 
L 2906 4863 
L 3481 4863 
L 3481 0 
L 2906 0 
L 2906 525 
Q 2725 213 2448 61 
Q 2172 -91 1784 -91 
Q 1150 -91 751 415 
Q 353 922 353 1747 
Q 353 2572 751 3078 
Q 1150 3584 1784 3584 
Q 2172 3584 2448 3432 
Q 2725 3281 2906 2969 
z
M 947 1747 
Q 947 1113 1208 752 
Q 1469 391 1925 391 
Q 2381 391 2643 752 
Q 2906 1113 2906 1747 
Q 2906 2381 2643 2742 
Q 2381 3103 1925 3103 
Q 1469 3103 1208 2742 
Q 947 2381 947 1747 
z
" transform="scale(0.015625)"/>
       <path id="DejaVuSans-69" d="M 603 3500 
L 1178 3500 
L 1178 0 
L 603 0 
L 603 3500 
z
M 603 4863 
L 1178 4863 
L 1178 4134 
L 603 4134 
L 603 4863 
z
" transform="scale(0.015625)"/>
       <path id="DejaVuSans-66" d="M 2375 4863 
L 2375 4384 
L 1825 4384 
Q 1516 4384 1395 4259 
Q 1275 4134 1275 3809 
L 1275 3500 
L 2222 3500 
L 2222 3053 
L 1275 3053 
L 1275 0 
L 697 0 
L 697 3053 
L 147 3053 
L 147 3500 
L 697 3500 
L 697 3744 
Q 697 4328 969 4595 
Q 1241 4863 1831 4863 
L 2375 4863 
z
" transform="scale(0.015625)"/>
       <path id="DejaVuSans-65" d="M 3597 1894 
L 3597 1613 
L 953 1613 
Q 991 1019 1311 708 
Q 1631 397 2203 397 
Q 2534 397 2845 478 
Q 3156 559 3463 722 
L 3463 178 
Q 3153 47 2828 -22 
Q 2503 -91 2169 -91 
Q 1331 -91 842 396 
Q 353 884 353 1716 
Q 353 2575 817 3079 
Q 1281 3584 2069 3584 
Q 2775 3584 3186 3129 
Q 3597 2675 3597 1894 
z
M 3022 2063 
Q 3016 2534 2758 2815 
Q 2500 3097 2075 3097 
Q 1594 3097 1305 2825 
Q 1016 2553 972 2059 
L 3022 2063 
z
" transform="scale(0.015625)"/>
       <path id="DejaVuSans-72" d="M 2631 2963 
Q 2534 3019 2420 3045 
Q 2306 3072 2169 3072 
Q 1681 3072 1420 2755 
Q 1159 2438 1159 1844 
L 1159 0 
L 581 0 
L 581 3500 
L 1159 3500 
L 1159 2956 
Q 1341 3275 1631 3429 
Q 1922 3584 2338 3584 
Q 2397 3584 2469 3576 
Q 2541 3569 2628 3553 
L 2631 2963 
z
" transform="scale(0.015625)"/>
       <path id="DejaVuSans-6e" d="M 3513 2113 
L 3513 0 
L 2938 0 
L 2938 2094 
Q 2938 2591 2744 2837 
Q 2550 3084 2163 3084 
Q 1697 3084 1428 2787 
Q 1159 2491 1159 1978 
L 1159 0 
L 581 0 
L 581 3500 
L 1159 3500 
L 1159 2956 
Q 1366 3272 1645 3428 
Q 1925 3584 2291 3584 
Q 2894 3584 3203 3211 
Q 3513 2838 3513 2113 
z
" transform="scale(0.015625)"/>
       <path id="DejaVuSans-63" d="M 3122 3366 
L 3122 2828 
Q 2878 2963 2633 3030 
Q 2388 3097 2138 3097 
Q 1578 3097 1268 2742 
Q 959 2388 959 1747 
Q 959 1106 1268 751 
Q 1578 397 2138 397 
Q 2388 397 2633 464 
Q 2878 531 3122 666 
L 3122 134 
Q 2881 22 2623 -34 
Q 2366 -91 2075 -91 
Q 1284 -91 818 406 
Q 353 903 353 1747 
Q 353 2603 823 3093 
Q 1294 3584 2113 3584 
Q 2378 3584 2631 3529 
Q 2884 3475 3122 3366 
z
" transform="scale(0.015625)"/>
      </defs>
      <use xlink:href="#DejaVuSans-4d"/>
      <use xlink:href="#DejaVuSans-61" x="86.279297"/>
      <use xlink:href="#DejaVuSans-78" x="147.558594"/>
      <use xlink:href="#DejaVuSans-20" x="206.738281"/>
      <use xlink:href="#DejaVuSans-64" x="238.525391"/>
      <use xlink:href="#DejaVuSans-69" x="302.001953"/>
      <use xlink:href="#DejaVuSans-66" x="329.785156"/>
      <use xlink:href="#DejaVuSans-66" x="364.990234"/>
      <use xlink:href="#DejaVuSans-65" x="400.195312"/>
      <use xlink:href="#DejaVuSans-72" x="461.71875"/>
      <use xlink:href="#DejaVuSans-65" x="500.582031"/>
      <use xlink:href="#DejaVuSans-6e" x="562.105469"/>
      <use xlink:href="#DejaVuSans-63" x="625.484375"/>
      <use xlink:href="#DejaVuSans-65" x="680.464844"/>
     </g>
    </g>
    <g id="text_16">
     <!-- 1e−15 -->
     <g transform="translate(25.688125 10.999219) scale(0.05 -0.05)">
      <defs>
       <path id="DejaVuSans-2212" d="M 678 2272 
L 4684 2272 
L 4684 1741 
L 678 1741 
L 678 2272 
z
" transform="scale(0.015625)"/>
      </defs>
      <use xlink:href="#DejaVuSans-31"/>
      <use xlink:href="#DejaVuSans-65" x="63.623047"/>
      <use xlink:href="#DejaVuSans-2212" x="125.146484"/>
      <use xlink:href="#DejaVuSans-31" x="208.935547"/>
      <use xlink:href="#DejaVuSans-35" x="272.558594"/>
     </g>
    </g>
   </g>
   <g id="line2d_14">
    <path d="M 33.712495 80.880388 
L 33.795088 36.117401 
L 33.932535 47.966427 
L 34.124527 46.649868 
L 34.370631 86.146621 
L 34.670296 84.830063 
L 35.022856 84.830063 
L 35.42753 57.182336 
L 35.883434 71.664478 
L 36.389576 24.268375 
L 36.944868 87.46318 
L 37.548133 49.282985 
L 38.198105 72.981037 
L 38.893439 87.46318 
L 39.632722 90.096297 
L 40.41447 87.46318 
L 41.237146 83.513504 
L 42.099158 17.685582 
L 42.998874 33.484284 
L 43.934623 78.247271 
L 44.904706 91.412855 
L 45.907401 86.146621 
L 46.940972 70.34792 
L 48.003671 88.779738 
L 49.09375 61.132011 
L 50.209464 87.46318 
L 51.349078 70.34792 
L 52.510868 83.513504 
L 53.693135 86.146621 
L 54.8942 55.865777 
L 56.112414 90.096297 
L 57.346161 88.779738 
L 58.593862 83.513504 
L 59.853975 87.46318 
L 61.125001 75.614154 
L 62.405487 74.297595 
L 63.694026 91.412855 
L 66.289873 88.779738 
L 67.594614 82.196946 
L 71.521791 90.096297 
L 72.831495 91.412855 
L 74.139818 88.779738 
L 75.445816 88.779738 
L 76.748595 91.412855 
L 78.047313 82.196946 
L 80.62945 90.096297 
L 81.911431 86.146621 
L 83.186473 86.146621 
L 84.453972 71.664478 
L 85.713369 88.779738 
L 86.964148 82.196946 
L 88.205832 80.880388 
L 89.437985 90.096297 
L 90.660209 78.247271 
L 91.872141 82.196946 
L 93.073454 90.096297 
L 94.263854 84.830063 
L 95.443078 83.513504 
L 96.610895 87.46318 
L 97.767099 87.46318 
L 98.911515 82.196946 
L 100.043993 80.880388 
L 101.164404 76.930712 
L 102.272645 88.779738 
L 103.368634 90.096297 
L 104.452308 87.46318 
L 105.523624 90.096297 
L 106.582556 90.096297 
L 107.629094 87.46318 
L 108.663244 86.146621 
L 109.685027 88.779738 
L 111.691633 91.412855 
L 112.676558 86.146621 
L 113.649317 90.096297 
L 114.609986 90.096297 
L 115.55865 87.46318 
L 118.333568 91.412855 
L 119.235201 91.412855 
L 120.125356 86.146621 
L 121.004152 91.412855 
L 121.871715 82.196946 
L 122.728174 88.779738 
L 123.573659 80.880388 
L 124.408306 87.46318 
L 125.232249 88.779738 
L 126.045626 84.830063 
L 126.848577 91.412855 
L 127.641241 87.46318 
L 128.423759 91.412855 
L 129.958922 88.779738 
L 130.711849 86.146621 
L 131.455194 91.412855 
L 132.189097 91.412855 
L 132.913697 88.779738 
L 133.629133 91.412855 
L 135.033061 88.779738 
L 135.721824 90.096297 
L 136.401965 86.146621 
L 137.073615 91.412855 
L 137.736904 86.146621 
L 138.391962 91.412855 
L 139.038914 90.096297 
L 139.677886 91.412855 
L 140.309001 91.412855 
L 140.93238 88.779738 
L 141.548142 91.412855 
L 142.757281 88.779738 
L 144.516726 88.779738 
L 145.089176 90.096297 
L 145.654786 87.46318 
L 146.21366 88.779738 
L 146.765899 91.412855 
L 147.311602 90.096297 
L 148.383785 90.096297 
L 148.910454 91.412855 
L 149.430964 87.46318 
L 150.453861 90.096297 
L 151.45317 90.096297 
L 151.944188 91.412855 
L 152.429556 90.096297 
L 152.909354 87.46318 
L 153.383658 91.412855 
L 153.852544 90.096297 
L 154.316086 91.412855 
L 154.774357 91.412855 
L 155.227427 90.096297 
L 155.675366 90.096297 
L 156.118243 88.779738 
L 156.556123 88.779738 
L 157.417154 91.412855 
L 157.840432 90.096297 
L 158.258968 87.46318 
L 158.67282 88.779738 
L 159.082049 91.412855 
L 159.486711 88.779738 
L 159.886865 90.096297 
L 160.282564 88.779738 
L 160.673864 88.779738 
L 161.060819 91.412855 
L 161.443479 90.096297 
L 161.821898 90.096297 
L 162.196125 91.412855 
L 162.56621 90.096297 
L 162.932201 90.096297 
L 163.294146 88.779738 
L 163.652093 90.096297 
L 164.006087 88.779738 
L 164.356173 91.412855 
L 164.702395 91.412855 
L 165.718317 87.46318 
L 166.049517 91.412855 
L 166.701 88.779738 
L 167.021364 91.412855 
L 167.338194 88.779738 
L 167.651529 87.46318 
L 168.267866 90.096297 
L 168.570941 90.096297 
L 168.870669 87.46318 
L 169.167086 90.096297 
L 169.460226 88.779738 
L 169.750124 90.096297 
L 170.036814 88.779738 
L 170.32033 90.096297 
L 170.600705 88.779738 
L 170.877972 90.096297 
L 171.152164 90.096297 
L 171.423311 88.779738 
L 171.691446 90.096297 
L 171.9566 88.779738 
L 172.218803 91.412855 
L 172.478085 90.096297 
L 172.734478 90.096297 
L 172.98801 91.412855 
L 173.238711 90.096297 
L 173.486609 90.096297 
L 173.731734 91.412855 
L 174.213774 88.779738 
L 174.450746 91.412855 
L 174.685055 90.096297 
L 174.916729 91.412855 
L 175.145794 91.412855 
L 175.372277 88.779738 
L 175.596204 91.412855 
L 176.036494 88.779738 
L 176.252908 90.096297 
L 176.466868 90.096297 
L 176.678399 91.412855 
L 176.887526 91.412855 
L 177.094274 88.779738 
L 177.298665 91.412855 
L 177.500725 88.779738 
L 177.700477 90.096297 
L 178.093152 90.096297 
L 178.28612 87.46318 
L 178.476873 91.412855 
L 178.851824 88.779738 
L 179.036066 90.096297 
L 179.218182 88.779738 
L 179.398194 90.096297 
L 179.576123 90.096297 
L 179.751991 91.412855 
L 179.925818 91.412855 
L 180.097627 90.096297 
L 180.267438 91.412855 
L 180.765087 91.412855 
L 180.927109 87.46318 
L 181.245484 91.412855 
L 181.860098 91.412855 
L 182.009252 90.096297 
L 182.156644 91.412855 
L 182.446215 91.412855 
L 182.588431 90.096297 
L 182.728959 91.412855 
L 182.867815 90.096297 
L 183.005018 91.412855 
L 183.140586 91.412855 
L 183.274535 90.096297 
L 183.406883 91.412855 
L 183.537648 88.779738 
L 183.794494 91.412855 
L 183.920609 91.412855 
L 184.045207 90.096297 
L 184.168305 90.096297 
L 184.289919 91.412855 
L 184.410064 90.096297 
L 184.528758 90.096297 
L 184.646015 91.412855 
L 184.761852 91.412855 
L 184.876284 88.779738 
L 184.989326 91.412855 
L 185.211302 91.412855 
L 185.4279 88.779738 
L 185.534219 91.412855 
L 185.639238 90.096297 
L 185.845433 91.412855 
L 185.946637 91.412855 
L 186.046598 90.096297 
L 186.145329 91.412855 
L 186.339158 90.096297 
L 186.528231 90.096297 
L 186.712656 91.412855 
L 187.323029 91.412855 
L 187.405933 90.096297 
L 187.568644 91.412855 
L 187.727304 90.096297 
L 187.805144 90.096297 
L 187.957901 91.412855 
L 188.179898 88.779738 
L 188.252037 91.412855 
L 188.323265 90.096297 
L 188.393592 90.096297 
L 188.463028 91.412855 
L 188.59927 90.096297 
L 188.987689 90.096297 
L 189.110656 91.412855 
L 189.170963 90.096297 
L 189.230498 91.412855 
L 189.28927 90.096297 
L 189.404561 91.412855 
L 189.461099 90.096297 
L 189.572003 91.412855 
L 189.733059 90.096297 
L 189.836995 90.096297 
L 189.987911 91.412855 
L 190.036919 91.412855 
L 190.180159 90.096297 
L 190.22667 90.096297 
L 190.272575 88.779738 
L 190.317883 90.096297 
L 190.450294 91.412855 
L 190.493283 90.096297 
L 190.535711 91.412855 
L 190.577583 91.412855 
L 190.659691 90.096297 
L 190.73966 91.412855 
L 190.817543 90.096297 
L 190.855719 91.412855 
L 190.893392 90.096297 
L 190.93057 90.096297 
L 191.003462 91.412855 
L 191.039189 90.096297 
L 191.109233 90.096297 
L 191.143563 91.412855 
L 191.177439 90.096297 
L 191.243851 91.412855 
L 191.308515 88.779738 
L 191.432771 91.412855 
L 191.521694 90.096297 
L 191.550548 91.412855 
L 191.607108 90.096297 
L 191.634823 90.096297 
L 191.715766 91.412855 
L 191.742029 90.096297 
L 191.843608 90.096297 
L 191.939843 91.412855 
L 192.074765 88.779738 
L 192.218885 91.412855 
L 192.313728 90.096297 
L 192.385073 91.412855 
L 192.419307 90.096297 
L 192.46893 90.096297 
L 192.577067 91.412855 
L 192.591682 88.779738 
L 192.688538 90.096297 
L 192.714535 90.096297 
L 192.80006 88.779738 
L 192.823011 91.412855 
L 192.918748 87.46318 
L 192.938444 88.779738 
L 193.053892 91.412855 
L 193.077682 91.412855 
L 193.150124 88.779738 
L 193.182699 91.412855 
L 193.213059 91.412855 
L 193.328113 90.096297 
L 193.332314 90.096297 
L 193.434135 91.412855 
L 193.385261 88.779738 
L 193.436834 90.096297 
L 193.442117 91.412855 
L 193.546729 88.779738 
L 193.621123 91.412855 
L 193.621123 91.412855 
" clip-path="url(#pae6ccaafca)" style="fill: none; stroke: #1f77b4; stroke-width: 0.7; stroke-linecap: square"/>
   </g>
   <g id="line2d_15">
    <path d="M 33.712495 80.880388 
L 33.795088 36.117401 
L 33.932535 47.308147 
L 34.124527 47.308147 
L 34.370631 85.488342 
L 34.670296 84.830063 
L 35.022856 85.488342 
L 35.42753 55.207498 
L 35.883434 72.322758 
L 36.389576 23.610095 
L 36.944868 86.804901 
L 37.548133 47.966427 
L 38.198105 73.639316 
L 38.893439 89.438017 
L 39.632722 90.754576 
L 40.41447 88.779738 
L 41.237146 84.171784 
L 42.099158 19.002141 
L 42.998874 32.167725 
L 43.934623 78.247271 
L 44.904706 91.412855 
L 45.907401 86.146621 
L 46.940972 71.664478 
L 48.003671 88.121459 
L 49.09375 62.448569 
L 50.209464 86.804901 
L 51.349078 69.689641 
L 52.510868 84.171784 
L 53.693135 86.146621 
L 54.8942 55.865777 
L 56.112414 90.754576 
L 57.346161 90.754576 
L 58.593862 84.171784 
L 59.853975 88.121459 
L 61.125001 76.272433 
L 62.405487 74.297595 
L 63.694026 91.412855 
L 64.989257 90.754576 
L 66.289873 87.46318 
L 67.594614 83.513504 
L 68.902275 84.171784 
L 70.211701 88.121459 
L 71.521791 89.438017 
L 72.831495 90.096297 
L 74.139818 88.121459 
L 75.445816 87.46318 
L 76.748595 91.412855 
L 78.047313 81.538667 
L 79.341179 84.171784 
L 80.62945 91.412855 
L 81.911431 86.146621 
L 83.186473 86.804901 
L 84.453972 71.664478 
L 85.713369 89.438017 
L 86.964148 82.855225 
L 88.205832 80.880388 
L 89.437985 90.096297 
L 90.660209 77.588991 
L 91.872141 80.222108 
L 93.073454 90.754576 
L 94.263854 84.171784 
L 95.443078 83.513504 
L 96.610895 87.46318 
L 97.767099 88.121459 
L 98.911515 83.513504 
L 100.043993 80.880388 
L 101.164404 76.930712 
L 102.272645 88.121459 
L 103.368634 90.096297 
L 104.452308 88.121459 
L 105.523624 88.779738 
L 107.629094 87.46318 
L 108.663244 87.46318 
L 109.685027 89.438017 
L 110.694474 88.779738 
L 111.691633 91.412855 
L 112.676558 86.146621 
L 113.649317 90.096297 
L 114.609986 88.779738 
L 115.55865 85.488342 
L 116.495401 88.779738 
L 117.420338 90.754576 
L 118.333568 90.754576 
L 119.235201 88.779738 
L 120.125356 86.146621 
L 121.004152 90.754576 
L 121.871715 81.538667 
L 122.728174 88.121459 
L 123.573659 80.880388 
L 124.408306 88.121459 
L 125.232249 87.46318 
L 126.045626 85.488342 
L 126.848577 90.096297 
L 127.641241 87.46318 
L 128.423759 91.412855 
L 129.196273 89.438017 
L 129.958922 91.412855 
L 130.711849 85.488342 
L 131.455194 91.412855 
L 132.189097 91.412855 
L 132.913697 87.792319 
L 133.629133 91.412855 
L 134.335543 89.438017 
L 135.033061 89.767157 
L 135.721824 90.425436 
L 136.401965 88.450599 
L 137.073615 91.412855 
L 137.736904 86.804901 
L 138.391962 90.425436 
L 139.038914 89.767157 
L 139.677886 91.412855 
L 140.309001 91.412855 
L 140.93238 90.754576 
L 141.548142 91.412855 
L 142.156404 90.096297 
L 142.757281 89.767157 
L 143.937332 88.450599 
L 144.516726 89.438017 
L 145.654786 88.779738 
L 146.21366 89.438017 
L 146.765899 91.083716 
L 147.311602 91.083716 
L 147.850865 91.412855 
L 148.383785 90.425436 
L 148.910454 91.083716 
L 149.430964 87.13404 
L 149.945404 90.425436 
L 150.453861 89.767157 
L 150.956422 90.754576 
L 151.944188 91.412855 
L 152.429556 90.425436 
L 152.909354 88.779738 
L 153.383658 91.083716 
L 153.852544 91.412855 
L 154.774357 91.412855 
L 155.227427 90.425436 
L 155.675366 91.083716 
L 156.118243 89.108878 
L 156.556123 90.754576 
L 156.989072 91.412855 
L 157.417154 90.754576 
L 157.840432 91.083716 
L 158.258968 89.438017 
L 158.67282 89.767157 
L 159.082049 90.425436 
L 159.886865 91.083716 
L 160.282564 89.767157 
L 160.673864 90.754576 
L 161.060819 90.096297 
L 161.443479 90.096297 
L 161.821898 91.083716 
L 162.196125 90.754576 
L 162.56621 91.083716 
L 162.932201 90.096297 
L 163.294146 89.767157 
L 163.652093 90.754576 
L 164.006087 89.767157 
L 164.356173 91.412855 
L 164.702395 90.754576 
L 165.044798 90.754576 
L 165.383425 89.767157 
L 165.718317 90.096297 
L 166.049517 91.412855 
L 166.377064 90.754576 
L 167.021364 91.412855 
L 167.338194 89.438017 
L 167.961408 89.438017 
L 168.870669 91.412855 
L 169.167086 91.083716 
L 169.460226 90.425436 
L 169.750124 91.412855 
L 170.036814 90.096297 
L 170.32033 91.412855 
L 170.600705 90.425436 
L 170.877972 91.412855 
L 171.152164 91.412855 
L 171.423311 90.096297 
L 171.9566 90.754576 
L 172.218803 90.754576 
L 172.478085 90.096297 
L 172.734478 91.083716 
L 173.486609 91.083716 
L 173.731734 91.412855 
L 174.213774 90.754576 
L 174.450746 91.083716 
L 174.916729 91.083716 
L 175.372277 90.425436 
L 175.596204 91.412855 
L 175.817601 91.083716 
L 176.036494 91.412855 
L 176.252908 90.425436 
L 176.466868 90.754576 
L 176.678399 91.412855 
L 176.887526 90.425436 
L 177.094274 91.412855 
L 177.298665 91.412855 
L 177.500725 90.754576 
L 177.897945 90.754576 
L 178.28612 89.108878 
L 178.476873 91.412855 
L 178.665433 91.412855 
L 178.851824 90.754576 
L 179.036066 91.412855 
L 179.218182 91.083716 
L 179.398194 90.425436 
L 179.576123 91.083716 
L 179.925818 91.083716 
L 180.097627 90.425436 
L 180.267438 91.412855 
L 180.601147 91.412855 
L 180.765087 91.083716 
L 180.927109 90.425436 
L 181.245484 91.412855 
L 181.401875 91.412855 
L 181.556429 91.083716 
L 181.709163 91.412855 
L 181.860098 91.083716 
L 182.009252 91.412855 
L 182.302292 91.412855 
L 182.446215 91.083716 
L 182.728959 91.083716 
L 182.867815 90.754576 
L 183.005018 91.412855 
L 183.140586 91.412855 
L 183.274535 91.083716 
L 183.406883 91.412855 
L 183.537648 91.083716 
L 183.666846 91.083716 
L 183.794494 90.754576 
L 183.920609 90.754576 
L 184.168305 91.412855 
L 184.289919 90.754576 
L 184.410064 91.083716 
L 184.528758 91.083716 
L 184.646015 91.412855 
L 184.761852 90.425436 
L 184.876284 90.425436 
L 185.100994 91.412855 
L 185.320266 91.083716 
L 185.4279 91.412855 
L 185.639238 90.754576 
L 185.742972 91.412855 
L 185.845433 91.083716 
L 185.946637 91.412855 
L 186.145329 90.754576 
L 186.339158 91.412855 
L 186.528231 91.083716 
L 186.621018 91.083716 
L 186.712656 91.412855 
L 186.892538 91.083716 
L 187.067977 91.412855 
L 187.239076 91.412855 
L 187.405933 91.083716 
L 187.487801 91.412855 
L 187.727304 90.754576 
L 187.805144 91.412855 
L 187.957901 90.754576 
L 188.032841 91.412855 
L 188.179898 90.425436 
L 188.323265 91.083716 
L 188.393592 91.083716 
L 188.463028 91.412855 
L 188.531584 91.083716 
L 188.666097 91.412855 
L 188.732074 90.754576 
L 188.797212 91.083716 
L 188.861521 91.083716 
L 188.92501 90.754576 
L 189.049568 91.412855 
L 189.110656 91.083716 
L 189.170963 91.412855 
L 189.230498 90.754576 
L 189.28927 91.412855 
L 189.347288 91.083716 
L 189.404561 91.083716 
L 189.572003 91.412855 
L 189.733059 91.083716 
L 189.836995 91.083716 
L 189.887957 90.754576 
L 189.93826 91.083716 
L 190.085291 91.412855 
L 190.22667 90.754576 
L 190.406735 91.412855 
L 190.535711 91.083716 
L 190.659691 91.412855 
L 190.73966 90.754576 
L 190.778859 91.083716 
L 190.893392 91.412855 
L 191.003462 90.754576 
L 191.109233 91.083716 
L 191.177439 91.412855 
L 191.210866 90.754576 
L 191.340205 91.412855 
L 191.371474 91.412855 
L 191.432771 90.425436 
L 191.492449 90.754576 
L 191.550548 91.412855 
L 191.607108 91.083716 
L 191.662168 91.083716 
L 191.76794 91.412855 
L 191.892376 91.083716 
L 191.91627 91.083716 
L 192.031006 91.412855 
L 192.158797 91.083716 
L 192.199128 91.083716 
L 192.276566 91.412855 
L 192.295274 91.083716 
L 192.331932 91.083716 
L 192.367601 90.754576 
L 192.436075 91.412855 
L 192.562248 91.083716 
L 192.577067 91.083716 
L 192.701626 91.412855 
L 192.714535 91.412855 
L 192.823011 91.083716 
L 192.908693 90.754576 
L 192.928665 91.412855 
L 192.957597 90.754576 
L 193.045737 91.083716 
L 193.061934 91.083716 
L 193.156824 91.412855 
L 193.136438 90.754576 
L 193.169944 91.083716 
L 193.176366 90.754576 
L 193.1951 91.412855 
L 193.277742 91.083716 
L 193.371195 91.412855 
L 193.301614 90.754576 
L 193.388653 91.083716 
L 193.391998 91.083716 
L 193.493119 91.412855 
L 193.434135 90.754576 
L 193.502143 91.083716 
L 193.507253 90.425436 
L 193.505574 91.412855 
L 193.611518 91.083716 
L 193.62112 91.412855 
L 193.615422 90.754576 
L 193.621123 91.083716 
" clip-path="url(#pae6ccaafca)" style="fill: none; stroke: #ff7f0e; stroke-width: 0.7; stroke-linecap: square"/>
   </g>
   <g id="line2d_16">
    <path d="M 33.684943 91.412855 
L 193.621307 91.412855 
" clip-path="url(#pae6ccaafca)" style="fill: none; stroke-dasharray: 2.59,1.12; stroke-dashoffset: 0; stroke: #000000; stroke-width: 0.7"/>
   </g>
   <g id="patch_3">
    <path d="M 25.688125 95.099219 
L 25.688125 13.999219 
" style="fill: none; stroke: #000000; stroke-width: 0.5; stroke-linejoin: miter; stroke-linecap: square"/>
   </g>
   <g id="patch_4">
    <path d="M 25.688125 95.099219 
L 201.618125 95.099219 
" style="fill: none; stroke: #000000; stroke-width: 0.5; stroke-linejoin: miter; stroke-linecap: square"/>
   </g>
   <g id="legend_1">
    <g id="line2d_17">
     <path d="M 120.868125 20.599219 
L 125.868125 20.599219 
L 130.868125 20.599219 
" style="fill: none; stroke: #1f77b4; stroke-width: 0.7; stroke-linecap: square"/>
    </g>
    <g id="text_17">
     <!-- max $p(r=y|y)$ difference -->
     <g transform="translate(134.868125 22.349219) scale(0.05 -0.05)">
      <defs>
       <path id="DejaVuSans-6d" d="M 3328 2828 
Q 3544 3216 3844 3400 
Q 4144 3584 4550 3584 
Q 5097 3584 5394 3201 
Q 5691 2819 5691 2113 
L 5691 0 
L 5113 0 
L 5113 2094 
Q 5113 2597 4934 2840 
Q 4756 3084 4391 3084 
Q 3944 3084 3684 2787 
Q 3425 2491 3425 1978 
L 3425 0 
L 2847 0 
L 2847 2094 
Q 2847 2600 2669 2842 
Q 2491 3084 2119 3084 
Q 1678 3084 1418 2786 
Q 1159 2488 1159 1978 
L 1159 0 
L 581 0 
L 581 3500 
L 1159 3500 
L 1159 2956 
Q 1356 3278 1631 3431 
Q 1906 3584 2284 3584 
Q 2666 3584 2933 3390 
Q 3200 3197 3328 2828 
z
" transform="scale(0.015625)"/>
       <path id="DejaVuSans-Oblique-70" d="M 3175 2156 
Q 3175 2616 2975 2859 
Q 2775 3103 2400 3103 
Q 2144 3103 1911 2972 
Q 1678 2841 1497 2591 
Q 1319 2344 1212 1994 
Q 1106 1644 1106 1300 
Q 1106 863 1306 627 
Q 1506 391 1875 391 
Q 2147 391 2380 519 
Q 2613 647 2778 891 
Q 2956 1147 3065 1494 
Q 3175 1841 3175 2156 
z
M 1394 2969 
Q 1625 3272 1939 3428 
Q 2253 3584 2638 3584 
Q 3175 3584 3472 3232 
Q 3769 2881 3769 2247 
Q 3769 1728 3584 1258 
Q 3400 788 3053 416 
Q 2822 169 2531 39 
Q 2241 -91 1919 -91 
Q 1547 -91 1294 64 
Q 1041 219 916 525 
L 556 -1331 
L -19 -1331 
L 922 3500 
L 1497 3500 
L 1394 2969 
z
" transform="scale(0.015625)"/>
       <path id="DejaVuSans-Oblique-72" d="M 2853 2969 
Q 2766 3016 2653 3041 
Q 2541 3066 2413 3066 
Q 1953 3066 1609 2717 
Q 1266 2369 1153 1784 
L 800 0 
L 225 0 
L 909 3500 
L 1484 3500 
L 1375 2956 
Q 1603 3259 1920 3421 
Q 2238 3584 2597 3584 
Q 2691 3584 2781 3573 
Q 2872 3563 2963 3538 
L 2853 2969 
z
" transform="scale(0.015625)"/>
       <path id="DejaVuSans-3d" d="M 678 2906 
L 4684 2906 
L 4684 2381 
L 678 2381 
L 678 2906 
z
M 678 1631 
L 4684 1631 
L 4684 1100 
L 678 1100 
L 678 1631 
z
" transform="scale(0.015625)"/>
       <path id="DejaVuSans-Oblique-79" d="M 1588 -325 
Q 1188 -997 936 -1164 
Q 684 -1331 294 -1331 
L -159 -1331 
L -63 -850 
L 269 -850 
Q 509 -850 678 -719 
Q 847 -588 1056 -206 
L 1234 128 
L 459 3500 
L 1069 3500 
L 1650 819 
L 3256 3500 
L 3859 3500 
L 1588 -325 
z
" transform="scale(0.015625)"/>
       <path id="DejaVuSans-7c" d="M 1344 4891 
L 1344 -1509 
L 813 -1509 
L 813 4891 
L 1344 4891 
z
" transform="scale(0.015625)"/>
      </defs>
      <use xlink:href="#DejaVuSans-6d" transform="translate(0 0.578125)"/>
      <use xlink:href="#DejaVuSans-61" transform="translate(97.412109 0.578125)"/>
      <use xlink:href="#DejaVuSans-78" transform="translate(158.691406 0.578125)"/>
      <use xlink:href="#DejaVuSans-20" transform="translate(217.871094 0.578125)"/>
      <use xlink:href="#DejaVuSans-Oblique-70" transform="translate(249.658203 0.578125)"/>
      <use xlink:href="#DejaVuSans-28" transform="translate(313.134766 0.578125)"/>
      <use xlink:href="#DejaVuSans-Oblique-72" transform="translate(352.148438 0.578125)"/>
      <use xlink:href="#DejaVuSans-3d" transform="translate(412.744141 0.578125)"/>
      <use xlink:href="#DejaVuSans-Oblique-79" transform="translate(516.015625 0.578125)"/>
      <use xlink:href="#DejaVuSans-7c" transform="translate(575.195312 0.578125)"/>
      <use xlink:href="#DejaVuSans-Oblique-79" transform="translate(608.886719 0.578125)"/>
      <use xlink:href="#DejaVuSans-29" transform="translate(668.066406 0.578125)"/>
      <use xlink:href="#DejaVuSans-20" transform="translate(707.080078 0.578125)"/>
      <use xlink:href="#DejaVuSans-64" transform="translate(738.867188 0.578125)"/>
      <use xlink:href="#DejaVuSans-69" transform="translate(802.34375 0.578125)"/>
      <use xlink:href="#DejaVuSans-66" transform="translate(830.126953 0.578125)"/>
      <use xlink:href="#DejaVuSans-66" transform="translate(865.332031 0.578125)"/>
      <use xlink:href="#DejaVuSans-65" transform="translate(900.537109 0.578125)"/>
      <use xlink:href="#DejaVuSans-72" transform="translate(962.060547 0.578125)"/>
      <use xlink:href="#DejaVuSans-65" transform="translate(1003.173828 0.578125)"/>
      <use xlink:href="#DejaVuSans-6e" transform="translate(1064.697266 0.578125)"/>
      <use xlink:href="#DejaVuSans-63" transform="translate(1128.076172 0.578125)"/>
      <use xlink:href="#DejaVuSans-65" transform="translate(1183.056641 0.578125)"/>
     </g>
    </g>
    <g id="line2d_18">
     <path d="M 120.868125 28.149219 
L 125.868125 28.149219 
L 130.868125 28.149219 
" style="fill: none; stroke: #ff7f0e; stroke-width: 0.7; stroke-linecap: square"/>
    </g>
    <g id="text_18">
     <!-- max $p(r\neq y|y)$ difference -->
     <g transform="translate(134.868125 29.899219) scale(0.05 -0.05)">
      <defs>
       <path id="DejaVuSans-2260" d="M 678 2906 
L 3091 2906 
L 3891 3891 
L 4281 3572 
L 3738 2906 
L 4684 2906 
L 4684 2381 
L 3309 2381 
L 2700 1631 
L 4684 1631 
L 4684 1100 
L 2266 1100 
L 1459 122 
L 1069 441 
L 1613 1100 
L 678 1100 
L 678 1631 
L 2047 1631 
L 2656 2381 
L 678 2381 
L 678 2906 
z
" transform="scale(0.015625)"/>
      </defs>
      <use xlink:href="#DejaVuSans-6d" transform="translate(0 0.578125)"/>
      <use xlink:href="#DejaVuSans-61" transform="translate(97.412109 0.578125)"/>
      <use xlink:href="#DejaVuSans-78" transform="translate(158.691406 0.578125)"/>
      <use xlink:href="#DejaVuSans-20" transform="translate(217.871094 0.578125)"/>
      <use xlink:href="#DejaVuSans-Oblique-70" transform="translate(249.658203 0.578125)"/>
      <use xlink:href="#DejaVuSans-28" transform="translate(313.134766 0.578125)"/>
      <use xlink:href="#DejaVuSans-Oblique-72" transform="translate(352.148438 0.578125)"/>
      <use xlink:href="#DejaVuSans-2260" transform="translate(412.744141 0.578125)"/>
      <use xlink:href="#DejaVuSans-Oblique-79" transform="translate(516.015625 0.578125)"/>
      <use xlink:href="#DejaVuSans-7c" transform="translate(575.195312 0.578125)"/>
      <use xlink:href="#DejaVuSans-Oblique-79" transform="translate(608.886719 0.578125)"/>
      <use xlink:href="#DejaVuSans-29" transform="translate(668.066406 0.578125)"/>
      <use xlink:href="#DejaVuSans-20" transform="translate(707.080078 0.578125)"/>
      <use xlink:href="#DejaVuSans-64" transform="translate(738.867188 0.578125)"/>
      <use xlink:href="#DejaVuSans-69" transform="translate(802.34375 0.578125)"/>
      <use xlink:href="#DejaVuSans-66" transform="translate(830.126953 0.578125)"/>
      <use xlink:href="#DejaVuSans-66" transform="translate(865.332031 0.578125)"/>
      <use xlink:href="#DejaVuSans-65" transform="translate(900.537109 0.578125)"/>
      <use xlink:href="#DejaVuSans-72" transform="translate(962.060547 0.578125)"/>
      <use xlink:href="#DejaVuSans-65" transform="translate(1003.173828 0.578125)"/>
      <use xlink:href="#DejaVuSans-6e" transform="translate(1064.697266 0.578125)"/>
      <use xlink:href="#DejaVuSans-63" transform="translate(1128.076172 0.578125)"/>
      <use xlink:href="#DejaVuSans-65" transform="translate(1183.056641 0.578125)"/>
     </g>
    </g>
   </g>
  </g>
 </g>
 <defs>
  <clipPath id="pae6ccaafca">
   <rect x="25.688125" y="13.999219" width="175.93" height="81.1"/>
  </clipPath>
 </defs>
</svg>
