<?xml version="1.0" encoding="utf-8" standalone="no"?>
<!DOCTYPE svg PUBLIC "-//W3C//DTD SVG 1.1//EN"
  "http://www.w3.org/Graphics/SVG/1.1/DTD/svg11.dtd">
<svg xmlns:xlink="http://www.w3.org/1999/xlink" width="208.298669pt" height="316.478125pt" viewBox="0 0 208.298669 316.478125" xmlns="http://www.w3.org/2000/svg" version="1.1">
 <metadata>
  <rdf:RDF xmlns:dc="http://purl.org/dc/elements/1.1/" xmlns:cc="http://creativecommons.org/ns#" xmlns:rdf="http://www.w3.org/1999/02/22-rdf-syntax-ns#">
   <cc:Work>
    <dc:type rdf:resource="http://purl.org/dc/dcmitype/StillImage"/>
    <dc:date>2026-04-22T11:33:21.525141</dc:date>
    <dc:format>image/svg+xml</dc:format>
    <dc:creator>
     <cc:Agent>
      <dc:title>Matplotlib v3.6.2, https://matplotlib.org/</dc:title>
     </cc:Agent>
    </dc:creator>
   </cc:Work>
  </rdf:RDF>
 </metadata>
 <defs>
  <style type="text/css">*{stroke-linejoin: round; stroke-linecap: butt}</style>
 </defs>
 <g id="figure_1">
  <g id="patch_1">
   <path d="M 0 316.478125 
L 208.298669 316.478125 
L 208.298669 0 
L 0 0 
z
" style="fill: #ffffff"/>
  </g>
  <g id="axes_1">
   <g id="patch_2">
    <path d="M 29.877969 95.592396 
L 200.4022 95.592396 
L 200.4022 17.759062 
L 29.877969 17.759062 
z
" style="fill: #ffffff"/>
   </g>
   <g id="matplotlib.axis_1">
    <g id="xtick_1">
     <g id="line2d_1">
      <defs>
       <path id="m39a5d335f1" d="M 0 0 
L 0 2 
" style="stroke: #000000; stroke-width: 0.5"/>
      </defs>
      <g>
       <use xlink:href="#m39a5d335f1" x="33.157281" y="95.592396" style="stroke: #000000; stroke-width: 0.5"/>
      </g>
     </g>
    </g>
    <g id="xtick_2">
     <g id="line2d_2">
      <g>
       <use xlink:href="#m39a5d335f1" x="65.950402" y="95.592396" style="stroke: #000000; stroke-width: 0.5"/>
      </g>
     </g>
    </g>
    <g id="xtick_3">
     <g id="line2d_3">
      <g>
       <use xlink:href="#m39a5d335f1" x="98.743523" y="95.592396" style="stroke: #000000; stroke-width: 0.5"/>
      </g>
     </g>
    </g>
    <g id="xtick_4">
     <g id="line2d_4">
      <g>
       <use xlink:href="#m39a5d335f1" x="131.536645" y="95.592396" style="stroke: #000000; stroke-width: 0.5"/>
      </g>
     </g>
    </g>
    <g id="xtick_5">
     <g id="line2d_5">
      <g>
       <use xlink:href="#m39a5d335f1" x="164.329766" y="95.592396" style="stroke: #000000; stroke-width: 0.5"/>
      </g>
     </g>
    </g>
    <g id="xtick_6">
     <g id="line2d_6">
      <g>
       <use xlink:href="#m39a5d335f1" x="197.122887" y="95.592396" style="stroke: #000000; stroke-width: 0.5"/>
      </g>
     </g>
    </g>
   </g>
   <g id="matplotlib.axis_2">
    <g id="ytick_1">
     <g id="line2d_7">
      <defs>
       <path id="m1c65d05526" d="M 0 0 
L -2 0 
" style="stroke: #000000; stroke-width: 0.5"/>
      </defs>
      <g>
       <use xlink:href="#m1c65d05526" x="29.877969" y="78.812856" style="stroke: #000000; stroke-width: 0.5"/>
      </g>
     </g>
     <g id="text_1">
      <!-- −6 -->
      <g transform="translate(17.006875 80.712466) scale(0.05 -0.05)">
       <defs>
        <path id="DejaVuSans-2212" d="M 678 2272 
L 4684 2272 
L 4684 1741 
L 678 1741 
L 678 2272 
z
" transform="scale(0.015625)"/>
        <path id="DejaVuSans-36" d="M 2113 2584 
Q 1688 2584 1439 2293 
Q 1191 2003 1191 1497 
Q 1191 994 1439 701 
Q 1688 409 2113 409 
Q 2538 409 2786 701 
Q 3034 994 3034 1497 
Q 3034 2003 2786 2293 
Q 2538 2584 2113 2584 
z
M 3366 4563 
L 3366 3988 
Q 3128 4100 2886 4159 
Q 2644 4219 2406 4219 
Q 1781 4219 1451 3797 
Q 1122 3375 1075 2522 
Q 1259 2794 1537 2939 
Q 1816 3084 2150 3084 
Q 2853 3084 3261 2657 
Q 3669 2231 3669 1497 
Q 3669 778 3244 343 
Q 2819 -91 2113 -91 
Q 1303 -91 875 529 
Q 447 1150 447 2328 
Q 447 3434 972 4092 
Q 1497 4750 2381 4750 
Q 2619 4750 2861 4703 
Q 3103 4656 3366 4563 
z
" transform="scale(0.015625)"/>
       </defs>
       <use xlink:href="#DejaVuSans-2212"/>
       <use xlink:href="#DejaVuSans-36" x="83.789062"/>
      </g>
     </g>
    </g>
    <g id="ytick_2">
     <g id="line2d_8">
      <g>
       <use xlink:href="#m1c65d05526" x="29.877969" y="60.962106" style="stroke: #000000; stroke-width: 0.5"/>
      </g>
     </g>
     <g id="text_2">
      <!-- −4 -->
      <g transform="translate(17.006875 62.861715) scale(0.05 -0.05)">
       <defs>
        <path id="DejaVuSans-34" d="M 2419 4116 
L 825 1625 
L 2419 1625 
L 2419 4116 
z
M 2253 4666 
L 3047 4666 
L 3047 1625 
L 3713 1625 
L 3713 1100 
L 3047 1100 
L 3047 0 
L 2419 0 
L 2419 1100 
L 313 1100 
L 313 1709 
L 2253 4666 
z
" transform="scale(0.015625)"/>
       </defs>
       <use xlink:href="#DejaVuSans-2212"/>
       <use xlink:href="#DejaVuSans-34" x="83.789062"/>
      </g>
     </g>
    </g>
    <g id="ytick_3">
     <g id="line2d_9">
      <g>
       <use xlink:href="#m1c65d05526" x="29.877969" y="43.111355" style="stroke: #000000; stroke-width: 0.5"/>
      </g>
     </g>
     <g id="text_3">
      <!-- −2 -->
      <g transform="translate(17.006875 45.010964) scale(0.05 -0.05)">
       <defs>
        <path id="DejaVuSans-32" d="M 1228 531 
L 3431 531 
L 3431 0 
L 469 0 
L 469 531 
Q 828 903 1448 1529 
Q 2069 2156 2228 2338 
Q 2531 2678 2651 2914 
Q 2772 3150 2772 3378 
Q 2772 3750 2511 3984 
Q 2250 4219 1831 4219 
Q 1534 4219 1204 4116 
Q 875 4013 500 3803 
L 500 4441 
Q 881 4594 1212 4672 
Q 1544 4750 1819 4750 
Q 2544 4750 2975 4387 
Q 3406 4025 3406 3419 
Q 3406 3131 3298 2873 
Q 3191 2616 2906 2266 
Q 2828 2175 2409 1742 
Q 1991 1309 1228 531 
z
" transform="scale(0.015625)"/>
       </defs>
       <use xlink:href="#DejaVuSans-2212"/>
       <use xlink:href="#DejaVuSans-32" x="83.789062"/>
      </g>
     </g>
    </g>
    <g id="ytick_4">
     <g id="line2d_10">
      <g>
       <use xlink:href="#m1c65d05526" x="29.877969" y="25.260604" style="stroke: #000000; stroke-width: 0.5"/>
      </g>
     </g>
     <g id="text_4">
      <!-- 0 -->
      <g transform="translate(21.196719 27.160214) scale(0.05 -0.05)">
       <defs>
        <path id="DejaVuSans-30" d="M 2034 4250 
Q 1547 4250 1301 3770 
Q 1056 3291 1056 2328 
Q 1056 1369 1301 889 
Q 1547 409 2034 409 
Q 2525 409 2770 889 
Q 3016 1369 3016 2328 
Q 3016 3291 2770 3770 
Q 2525 4250 2034 4250 
z
M 2034 4750 
Q 2819 4750 3233 4129 
Q 3647 3509 3647 2328 
Q 3647 1150 3233 529 
Q 2819 -91 2034 -91 
Q 1250 -91 836 529 
Q 422 1150 422 2328 
Q 422 3509 836 4129 
Q 1250 4750 2034 4750 
z
" transform="scale(0.015625)"/>
       </defs>
       <use xlink:href="#DejaVuSans-30"/>
      </g>
     </g>
    </g>
    <g id="text_5">
     <!-- $\Delta I(X;R)$ (softmax-IB bound) -->
     <g transform="translate(11.759062 97.595729) rotate(-90) scale(0.06 -0.06)">
      <defs>
       <path id="DejaVuSans-394" d="M 2188 4044 
L 906 525 
L 3472 525 
L 2188 4044 
z
M 50 0 
L 1831 4666 
L 2547 4666 
L 4325 0 
L 50 0 
z
" transform="scale(0.015625)"/>
       <path id="DejaVuSans-Oblique-49" d="M 1081 4666 
L 1716 4666 
L 806 0 
L 172 0 
L 1081 4666 
z
" transform="scale(0.015625)"/>
       <path id="DejaVuSans-28" d="M 1984 4856 
Q 1566 4138 1362 3434 
Q 1159 2731 1159 2009 
Q 1159 1288 1364 580 
Q 1569 -128 1984 -844 
L 1484 -844 
Q 1016 -109 783 600 
Q 550 1309 550 2009 
Q 550 2706 781 3412 
Q 1013 4119 1484 4856 
L 1984 4856 
z
" transform="scale(0.015625)"/>
       <path id="DejaVuSans-Oblique-58" d="M 878 4666 
L 1516 4666 
L 2316 2981 
L 3763 4666 
L 4500 4666 
L 2578 2438 
L 3738 0 
L 3103 0 
L 2163 1966 
L 459 0 
L -275 0 
L 1906 2509 
L 878 4666 
z
" transform="scale(0.015625)"/>
       <path id="DejaVuSans-3b" d="M 750 3309 
L 1409 3309 
L 1409 2516 
L 750 2516 
L 750 3309 
z
M 750 794 
L 1409 794 
L 1409 256 
L 897 -744 
L 494 -744 
L 750 256 
L 750 794 
z
" transform="scale(0.015625)"/>
       <path id="DejaVuSans-Oblique-52" d="M 1613 4147 
L 1294 2491 
L 2106 2491 
Q 2584 2491 2879 2755 
Q 3175 3019 3175 3444 
Q 3175 3784 2976 3965 
Q 2778 4147 2406 4147 
L 1613 4147 
z
M 2772 2241 
Q 2972 2194 3105 2009 
Q 3238 1825 3413 1275 
L 3809 0 
L 3144 0 
L 2778 1197 
Q 2638 1659 2453 1815 
Q 2269 1972 1888 1972 
L 1191 1972 
L 806 0 
L 172 0 
L 1081 4666 
L 2503 4666 
Q 3150 4666 3495 4373 
Q 3841 4081 3841 3531 
Q 3841 3044 3547 2687 
Q 3253 2331 2772 2241 
z
" transform="scale(0.015625)"/>
       <path id="DejaVuSans-29" d="M 513 4856 
L 1013 4856 
Q 1481 4119 1714 3412 
Q 1947 2706 1947 2009 
Q 1947 1309 1714 600 
Q 1481 -109 1013 -844 
L 513 -844 
Q 928 -128 1133 580 
Q 1338 1288 1338 2009 
Q 1338 2731 1133 3434 
Q 928 4138 513 4856 
z
" transform="scale(0.015625)"/>
       <path id="DejaVuSans-20" transform="scale(0.015625)"/>
       <path id="DejaVuSans-73" d="M 2834 3397 
L 2834 2853 
Q 2591 2978 2328 3040 
Q 2066 3103 1784 3103 
Q 1356 3103 1142 2972 
Q 928 2841 928 2578 
Q 928 2378 1081 2264 
Q 1234 2150 1697 2047 
L 1894 2003 
Q 2506 1872 2764 1633 
Q 3022 1394 3022 966 
Q 3022 478 2636 193 
Q 2250 -91 1575 -91 
Q 1294 -91 989 -36 
Q 684 19 347 128 
L 347 722 
Q 666 556 975 473 
Q 1284 391 1588 391 
Q 1994 391 2212 530 
Q 2431 669 2431 922 
Q 2431 1156 2273 1281 
Q 2116 1406 1581 1522 
L 1381 1569 
Q 847 1681 609 1914 
Q 372 2147 372 2553 
Q 372 3047 722 3315 
Q 1072 3584 1716 3584 
Q 2034 3584 2315 3537 
Q 2597 3491 2834 3397 
z
" transform="scale(0.015625)"/>
       <path id="DejaVuSans-6f" d="M 1959 3097 
Q 1497 3097 1228 2736 
Q 959 2375 959 1747 
Q 959 1119 1226 758 
Q 1494 397 1959 397 
Q 2419 397 2687 759 
Q 2956 1122 2956 1747 
Q 2956 2369 2687 2733 
Q 2419 3097 1959 3097 
z
M 1959 3584 
Q 2709 3584 3137 3096 
Q 3566 2609 3566 1747 
Q 3566 888 3137 398 
Q 2709 -91 1959 -91 
Q 1206 -91 779 398 
Q 353 888 353 1747 
Q 353 2609 779 3096 
Q 1206 3584 1959 3584 
z
" transform="scale(0.015625)"/>
       <path id="DejaVuSans-66" d="M 2375 4863 
L 2375 4384 
L 1825 4384 
Q 1516 4384 1395 4259 
Q 1275 4134 1275 3809 
L 1275 3500 
L 2222 3500 
L 2222 3053 
L 1275 3053 
L 1275 0 
L 697 0 
L 697 3053 
L 147 3053 
L 147 3500 
L 697 3500 
L 697 3744 
Q 697 4328 969 4595 
Q 1241 4863 1831 4863 
L 2375 4863 
z
" transform="scale(0.015625)"/>
       <path id="DejaVuSans-74" d="M 1172 4494 
L 1172 3500 
L 2356 3500 
L 2356 3053 
L 1172 3053 
L 1172 1153 
Q 1172 725 1289 603 
Q 1406 481 1766 481 
L 2356 481 
L 2356 0 
L 1766 0 
Q 1100 0 847 248 
Q 594 497 594 1153 
L 594 3053 
L 172 3053 
L 172 3500 
L 594 3500 
L 594 4494 
L 1172 4494 
z
" transform="scale(0.015625)"/>
       <path id="DejaVuSans-6d" d="M 3328 2828 
Q 3544 3216 3844 3400 
Q 4144 3584 4550 3584 
Q 5097 3584 5394 3201 
Q 5691 2819 5691 2113 
L 5691 0 
L 5113 0 
L 5113 2094 
Q 5113 2597 4934 2840 
Q 4756 3084 4391 3084 
Q 3944 3084 3684 2787 
Q 3425 2491 3425 1978 
L 3425 0 
L 2847 0 
L 2847 2094 
Q 2847 2600 2669 2842 
Q 2491 3084 2119 3084 
Q 1678 3084 1418 2786 
Q 1159 2488 1159 1978 
L 1159 0 
L 581 0 
L 581 3500 
L 1159 3500 
L 1159 2956 
Q 1356 3278 1631 3431 
Q 1906 3584 2284 3584 
Q 2666 3584 2933 3390 
Q 3200 3197 3328 2828 
z
" transform="scale(0.015625)"/>
       <path id="DejaVuSans-61" d="M 2194 1759 
Q 1497 1759 1228 1600 
Q 959 1441 959 1056 
Q 959 750 1161 570 
Q 1363 391 1709 391 
Q 2188 391 2477 730 
Q 2766 1069 2766 1631 
L 2766 1759 
L 2194 1759 
z
M 3341 1997 
L 3341 0 
L 2766 0 
L 2766 531 
Q 2569 213 2275 61 
Q 1981 -91 1556 -91 
Q 1019 -91 701 211 
Q 384 513 384 1019 
Q 384 1609 779 1909 
Q 1175 2209 1959 2209 
L 2766 2209 
L 2766 2266 
Q 2766 2663 2505 2880 
Q 2244 3097 1772 3097 
Q 1472 3097 1187 3025 
Q 903 2953 641 2809 
L 641 3341 
Q 956 3463 1253 3523 
Q 1550 3584 1831 3584 
Q 2591 3584 2966 3190 
Q 3341 2797 3341 1997 
z
" transform="scale(0.015625)"/>
       <path id="DejaVuSans-78" d="M 3513 3500 
L 2247 1797 
L 3578 0 
L 2900 0 
L 1881 1375 
L 863 0 
L 184 0 
L 1544 1831 
L 300 3500 
L 978 3500 
L 1906 2253 
L 2834 3500 
L 3513 3500 
z
" transform="scale(0.015625)"/>
       <path id="DejaVuSans-2d" d="M 313 2009 
L 1997 2009 
L 1997 1497 
L 313 1497 
L 313 2009 
z
" transform="scale(0.015625)"/>
       <path id="DejaVuSans-49" d="M 628 4666 
L 1259 4666 
L 1259 0 
L 628 0 
L 628 4666 
z
" transform="scale(0.015625)"/>
       <path id="DejaVuSans-42" d="M 1259 2228 
L 1259 519 
L 2272 519 
Q 2781 519 3026 730 
Q 3272 941 3272 1375 
Q 3272 1813 3026 2020 
Q 2781 2228 2272 2228 
L 1259 2228 
z
M 1259 4147 
L 1259 2741 
L 2194 2741 
Q 2656 2741 2882 2914 
Q 3109 3088 3109 3444 
Q 3109 3797 2882 3972 
Q 2656 4147 2194 4147 
L 1259 4147 
z
M 628 4666 
L 2241 4666 
Q 2963 4666 3353 4366 
Q 3744 4066 3744 3513 
Q 3744 3084 3544 2831 
Q 3344 2578 2956 2516 
Q 3422 2416 3680 2098 
Q 3938 1781 3938 1306 
Q 3938 681 3513 340 
Q 3088 0 2303 0 
L 628 0 
L 628 4666 
z
" transform="scale(0.015625)"/>
       <path id="DejaVuSans-62" d="M 3116 1747 
Q 3116 2381 2855 2742 
Q 2594 3103 2138 3103 
Q 1681 3103 1420 2742 
Q 1159 2381 1159 1747 
Q 1159 1113 1420 752 
Q 1681 391 2138 391 
Q 2594 391 2855 752 
Q 3116 1113 3116 1747 
z
M 1159 2969 
Q 1341 3281 1617 3432 
Q 1894 3584 2278 3584 
Q 2916 3584 3314 3078 
Q 3713 2572 3713 1747 
Q 3713 922 3314 415 
Q 2916 -91 2278 -91 
Q 1894 -91 1617 61 
Q 1341 213 1159 525 
L 1159 0 
L 581 0 
L 581 4863 
L 1159 4863 
L 1159 2969 
z
" transform="scale(0.015625)"/>
       <path id="DejaVuSans-75" d="M 544 1381 
L 544 3500 
L 1119 3500 
L 1119 1403 
Q 1119 906 1312 657 
Q 1506 409 1894 409 
Q 2359 409 2629 706 
Q 2900 1003 2900 1516 
L 2900 3500 
L 3475 3500 
L 3475 0 
L 2900 0 
L 2900 538 
Q 2691 219 2414 64 
Q 2138 -91 1772 -91 
Q 1169 -91 856 284 
Q 544 659 544 1381 
z
M 1991 3584 
L 1991 3584 
z
" transform="scale(0.015625)"/>
       <path id="DejaVuSans-6e" d="M 3513 2113 
L 3513 0 
L 2938 0 
L 2938 2094 
Q 2938 2591 2744 2837 
Q 2550 3084 2163 3084 
Q 1697 3084 1428 2787 
Q 1159 2491 1159 1978 
L 1159 0 
L 581 0 
L 581 3500 
L 1159 3500 
L 1159 2956 
Q 1366 3272 1645 3428 
Q 1925 3584 2291 3584 
Q 2894 3584 3203 3211 
Q 3513 2838 3513 2113 
z
" transform="scale(0.015625)"/>
       <path id="DejaVuSans-64" d="M 2906 2969 
L 2906 4863 
L 3481 4863 
L 3481 0 
L 2906 0 
L 2906 525 
Q 2725 213 2448 61 
Q 2172 -91 1784 -91 
Q 1150 -91 751 415 
Q 353 922 353 1747 
Q 353 2572 751 3078 
Q 1150 3584 1784 3584 
Q 2172 3584 2448 3432 
Q 2725 3281 2906 2969 
z
M 947 1747 
Q 947 1113 1208 752 
Q 1469 391 1925 391 
Q 2381 391 2643 752 
Q 2906 1113 2906 1747 
Q 2906 2381 2643 2742 
Q 2381 3103 1925 3103 
Q 1469 3103 1208 2742 
Q 947 2381 947 1747 
z
" transform="scale(0.015625)"/>
      </defs>
      <use xlink:href="#DejaVuSans-394" transform="translate(0 0.015625)"/>
      <use xlink:href="#DejaVuSans-Oblique-49" transform="translate(68.408203 0.015625)"/>
      <use xlink:href="#DejaVuSans-28" transform="translate(97.900391 0.015625)"/>
      <use xlink:href="#DejaVuSans-Oblique-58" transform="translate(136.914062 0.015625)"/>
      <use xlink:href="#DejaVuSans-3b" transform="translate(205.419922 0.015625)"/>
      <use xlink:href="#DejaVuSans-Oblique-52" transform="translate(258.59375 0.015625)"/>
      <use xlink:href="#DejaVuSans-29" transform="translate(328.076172 0.015625)"/>
      <use xlink:href="#DejaVuSans-20" transform="translate(367.089844 0.015625)"/>
      <use xlink:href="#DejaVuSans-28" transform="translate(398.876953 0.015625)"/>
      <use xlink:href="#DejaVuSans-73" transform="translate(437.890625 0.015625)"/>
      <use xlink:href="#DejaVuSans-6f" transform="translate(489.990234 0.015625)"/>
      <use xlink:href="#DejaVuSans-66" transform="translate(551.171875 0.015625)"/>
      <use xlink:href="#DejaVuSans-74" transform="translate(586.376953 0.015625)"/>
      <use xlink:href="#DejaVuSans-6d" transform="translate(625.585938 0.015625)"/>
      <use xlink:href="#DejaVuSans-61" transform="translate(722.998047 0.015625)"/>
      <use xlink:href="#DejaVuSans-78" transform="translate(784.277344 0.015625)"/>
      <use xlink:href="#DejaVuSans-2d" transform="translate(843.457031 0.015625)"/>
      <use xlink:href="#DejaVuSans-49" transform="translate(879.541016 0.015625)"/>
      <use xlink:href="#DejaVuSans-42" transform="translate(909.033203 0.015625)"/>
      <use xlink:href="#DejaVuSans-20" transform="translate(977.636719 0.015625)"/>
      <use xlink:href="#DejaVuSans-62" transform="translate(1009.423828 0.015625)"/>
      <use xlink:href="#DejaVuSans-6f" transform="translate(1072.900391 0.015625)"/>
      <use xlink:href="#DejaVuSans-75" transform="translate(1134.082031 0.015625)"/>
      <use xlink:href="#DejaVuSans-6e" transform="translate(1197.460938 0.015625)"/>
      <use xlink:href="#DejaVuSans-64" transform="translate(1260.839844 0.015625)"/>
      <use xlink:href="#DejaVuSans-29" transform="translate(1324.316406 0.015625)"/>
     </g>
    </g>
    <g id="text_6">
     <!-- 1e−15 -->
     <g transform="translate(29.877969 14.759062) scale(0.05 -0.05)">
      <defs>
       <path id="DejaVuSans-31" d="M 794 531 
L 1825 531 
L 1825 4091 
L 703 3866 
L 703 4441 
L 1819 4666 
L 2450 4666 
L 2450 531 
L 3481 531 
L 3481 0 
L 794 0 
L 794 531 
z
" transform="scale(0.015625)"/>
       <path id="DejaVuSans-65" d="M 3597 1894 
L 3597 1613 
L 953 1613 
Q 991 1019 1311 708 
Q 1631 397 2203 397 
Q 2534 397 2845 478 
Q 3156 559 3463 722 
L 3463 178 
Q 3153 47 2828 -22 
Q 2503 -91 2169 -91 
Q 1331 -91 842 396 
Q 353 884 353 1716 
Q 353 2575 817 3079 
Q 1281 3584 2069 3584 
Q 2775 3584 3186 3129 
Q 3597 2675 3597 1894 
z
M 3022 2063 
Q 3016 2534 2758 2815 
Q 2500 3097 2075 3097 
Q 1594 3097 1305 2825 
Q 1016 2553 972 2059 
L 3022 2063 
z
" transform="scale(0.015625)"/>
       <path id="DejaVuSans-35" d="M 691 4666 
L 3169 4666 
L 3169 4134 
L 1269 4134 
L 1269 2991 
Q 1406 3038 1543 3061 
Q 1681 3084 1819 3084 
Q 2600 3084 3056 2656 
Q 3513 2228 3513 1497 
Q 3513 744 3044 326 
Q 2575 -91 1722 -91 
Q 1428 -91 1123 -41 
Q 819 9 494 109 
L 494 744 
Q 775 591 1075 516 
Q 1375 441 1709 441 
Q 2250 441 2565 725 
Q 2881 1009 2881 1497 
Q 2881 1984 2565 2268 
Q 2250 2553 1709 2553 
Q 1456 2553 1204 2497 
Q 953 2441 691 2322 
L 691 4666 
z
" transform="scale(0.015625)"/>
      </defs>
      <use xlink:href="#DejaVuSans-31"/>
      <use xlink:href="#DejaVuSans-65" x="63.623047"/>
      <use xlink:href="#DejaVuSans-2212" x="125.146484"/>
      <use xlink:href="#DejaVuSans-31" x="208.935547"/>
      <use xlink:href="#DejaVuSans-35" x="272.558594"/>
     </g>
    </g>
   </g>
   <g id="line2d_11">
    <path d="M 33.185527 45.361484 
L 33.270201 38.196699 
L 33.411111 36.044554 
L 33.607939 50.885065 
L 33.860243 48.640022 
L 34.167457 60.314248 
L 34.528899 82.284707 
L 34.943769 73.583229 
L 35.411158 92.054517 
L 35.930051 26.127655 
L 36.499333 85.33487 
L 37.117795 74.744458 
L 37.784141 55.173873 
L 38.496994 79.203579 
L 39.2549 62.04835 
L 40.056343 71.771711 
L 40.899744 50.528955 
L 41.783473 65.206894 
L 42.705856 62.667673 
L 43.665179 45.574376 
L 44.659701 57.960823 
L 45.687657 67.374522 
L 46.747266 42.230036 
L 47.836737 46.936886 
L 48.954279 31.825421 
L 50.098101 36.656135 
L 51.266424 55.11194 
L 52.457484 40.12434 
L 53.669535 61.924486 
L 54.900858 47.556208 
L 56.149762 35.169761 
L 57.414591 40.372069 
L 58.693724 58.70401 
L 59.985583 53.501702 
L 61.28863 45.574376 
L 62.601376 44.088003 
L 63.922376 41.115256 
L 65.250238 47.308479 
L 66.58362 39.133424 
L 67.921231 37.151593 
L 69.261836 45.822105 
L 70.60425 28.728809 
L 71.947344 34.922032 
L 73.290044 32.692472 
L 74.631327 35.665219 
L 75.970226 33.18793 
L 77.305826 35.169761 
L 78.637263 39.628882 
L 79.963725 38.637966 
L 81.284451 41.610714 
L 82.598728 32.692472 
L 83.905892 34.674304 
L 85.205323 40.619798 
L 86.496448 41.115256 
L 87.778737 38.142509 
L 89.051703 36.656135 
L 90.314898 39.133424 
L 91.567913 30.710641 
L 92.810377 41.115256 
L 94.041954 35.169761 
L 95.262343 36.656135 
L 96.471276 27.242436 
L 97.668512 34.178846 
L 98.853845 29.719725 
L 100.027092 35.169761 
L 101.1881 32.197014 
L 102.336737 37.151593 
L 103.472898 37.647051 
L 104.596498 34.178846 
L 105.707473 28.233351 
L 106.805778 35.169761 
L 107.891388 33.18793 
L 108.964291 32.197014 
L 110.024494 29.224267 
L 111.072018 34.674304 
L 112.106897 34.674304 
L 113.129176 36.656135 
L 114.138915 31.206099 
L 115.136181 34.178846 
L 116.121051 36.160677 
L 117.093615 33.18793 
L 118.053965 32.197014 
L 119.002204 29.224267 
L 119.93844 39.133424 
L 121.775369 35.169761 
L 122.676304 29.224267 
L 123.565724 28.233351 
L 124.443759 37.151593 
L 125.310544 31.206099 
L 126.166218 30.215183 
L 127.010918 32.197014 
L 127.844787 33.18793 
L 128.667966 28.233351 
L 129.4806 28.233351 
L 131.074807 30.215183 
L 131.85667 36.160677 
L 132.628565 27.242436 
L 133.390637 32.197014 
L 134.143029 31.206099 
L 134.885884 31.206099 
L 135.619344 35.169761 
L 136.34355 35.169761 
L 137.058641 26.25152 
L 137.764755 30.215183 
L 139.150601 32.197014 
L 139.830601 27.242436 
L 140.502161 31.206099 
L 141.165412 29.224267 
L 141.820482 34.178846 
L 142.467496 28.233351 
L 143.10658 27.242436 
L 143.737854 32.197014 
L 144.36144 34.178846 
L 144.977455 33.18793 
L 145.586015 30.215183 
L 146.187235 32.197014 
L 146.781225 28.233351 
L 147.368097 30.215183 
L 147.947956 31.206099 
L 148.52091 28.233351 
L 149.087061 27.242436 
L 149.646512 30.215183 
L 150.199361 32.197014 
L 150.745706 31.206099 
L 151.285644 29.224267 
L 151.819266 30.215183 
L 152.346666 32.197014 
L 152.867933 29.224267 
L 153.383155 31.206099 
L 153.892418 23.278773 
L 154.395806 30.215183 
L 154.893402 23.278773 
L 155.87154 32.197014 
L 156.352239 30.215183 
L 156.827459 30.215183 
L 157.297274 27.242436 
L 157.761759 31.206099 
L 158.220983 32.197014 
L 158.675016 31.206099 
L 159.123928 28.233351 
L 159.567785 34.178846 
L 160.006651 28.233351 
L 160.440593 26.25152 
L 160.869672 29.224267 
L 161.293951 28.233351 
L 161.713489 30.215183 
L 162.128346 28.233351 
L 162.538581 30.215183 
L 162.944249 30.215183 
L 163.345407 29.224267 
L 163.74211 25.260604 
L 164.522363 32.197014 
L 164.906018 29.224267 
L 165.285426 27.242436 
L 165.660637 30.215183 
L 166.031701 27.242436 
L 166.398666 31.206099 
L 166.761577 33.18793 
L 167.120483 26.25152 
L 167.475428 27.242436 
L 167.826457 27.242436 
L 168.516944 29.224267 
L 168.856487 26.25152 
L 169.192286 27.242436 
L 169.524383 30.215183 
L 169.852817 27.242436 
L 170.17763 30.215183 
L 170.498859 29.224267 
L 170.816544 30.215183 
L 171.130723 27.242436 
L 171.748712 29.224267 
L 172.052596 27.242436 
L 172.353121 30.215183 
L 172.650323 27.242436 
L 172.944235 29.224267 
L 173.234894 29.224267 
L 173.522333 25.260604 
L 173.806585 30.215183 
L 174.087684 26.25152 
L 174.365662 28.233351 
L 174.640552 29.224267 
L 174.912386 23.278773 
L 175.181194 29.224267 
L 175.447009 27.242436 
L 175.709861 30.215183 
L 175.96978 30.215183 
L 176.226797 28.233351 
L 176.48094 27.242436 
L 176.73224 31.206099 
L 176.980726 26.25152 
L 177.226425 29.224267 
L 177.469367 28.233351 
L 177.709579 28.233351 
L 177.947089 27.242436 
L 178.181925 30.215183 
L 178.414114 27.242436 
L 178.643682 26.25152 
L 178.870657 27.242436 
L 179.095064 24.269688 
L 179.31693 28.233351 
L 179.53628 28.233351 
L 179.753141 27.242436 
L 179.967536 27.242436 
L 180.179492 26.25152 
L 180.389033 27.242436 
L 180.596183 26.25152 
L 181.203535 29.224267 
L 181.401364 25.260604 
L 181.596923 25.260604 
L 181.790234 29.224267 
L 181.98132 28.233351 
L 182.170203 26.25152 
L 182.356907 29.224267 
L 182.541454 25.260604 
L 182.723866 26.25152 
L 182.904164 26.25152 
L 183.082372 30.215183 
L 183.258509 27.242436 
L 183.432597 26.25152 
L 183.604659 27.242436 
L 183.774714 29.224267 
L 183.942783 26.25152 
L 184.108888 29.224267 
L 184.273047 27.242436 
L 184.435283 27.242436 
L 184.595614 28.233351 
L 184.754061 28.233351 
L 184.910644 27.242436 
L 185.065381 27.242436 
L 185.218293 23.278773 
L 185.369398 27.242436 
L 185.518715 26.25152 
L 185.666264 29.224267 
L 185.812063 27.242436 
L 185.956131 28.233351 
L 186.098485 30.215183 
L 186.378128 25.260604 
L 186.515452 27.242436 
L 186.651134 26.25152 
L 186.785193 27.242436 
L 186.917646 25.260604 
L 187.04851 28.233351 
L 187.177802 27.242436 
L 187.679588 27.242436 
L 187.801272 28.233351 
L 187.921483 27.242436 
L 188.040238 25.260604 
L 188.157553 27.242436 
L 188.387924 27.242436 
L 188.61272 30.215183 
L 188.832064 25.260604 
L 188.939729 26.25152 
L 189.046075 26.25152 
L 189.151118 25.260604 
L 189.357351 29.224267 
L 189.458569 26.25152 
L 189.558541 29.224267 
L 189.754801 27.242436 
L 189.946242 27.242436 
L 190.040189 30.215183 
L 190.132971 25.260604 
L 190.224602 26.25152 
L 190.492716 26.25152 
L 190.579871 25.260604 
L 190.750931 29.224267 
L 190.999582 26.25152 
L 191.080398 29.224267 
L 191.160199 25.260604 
L 191.316804 27.242436 
L 191.393632 27.242436 
L 191.544394 26.25152 
L 191.618351 28.233351 
L 191.763472 25.260604 
L 191.90494 29.224267 
L 191.974332 26.25152 
L 192.042842 27.242436 
L 192.110481 27.242436 
L 192.177261 26.25152 
L 192.243189 27.242436 
L 192.372536 25.260604 
L 192.498601 27.242436 
L 192.560427 26.25152 
L 192.681714 27.242436 
L 192.741194 25.260604 
L 192.79991 28.233351 
L 192.857873 26.25152 
L 192.97157 25.260604 
L 193.190307 27.242436 
L 193.243238 25.260604 
L 193.295484 28.233351 
L 193.347054 24.269688 
L 193.397956 26.25152 
L 193.448199 25.260604 
L 193.497789 26.25152 
L 193.595047 27.242436 
L 193.689792 25.260604 
L 193.736242 26.25152 
L 193.782086 26.25152 
L 193.827332 28.233351 
L 193.871988 26.25152 
L 193.959556 25.260604 
L 194.08666 27.242436 
L 194.248489 25.260604 
L 194.364363 28.233351 
L 194.511862 25.260604 
L 194.651721 25.260604 
L 194.751829 27.242436 
L 194.879217 24.269688 
L 194.940398 23.278773 
L 194.999961 25.260604 
L 195.029148 25.260604 
L 195.086359 26.25152 
L 195.114393 24.269688 
L 195.169341 25.260604 
L 195.300403 29.224267 
L 195.422905 24.269688 
L 195.46963 23.278773 
L 195.537384 27.242436 
L 195.559362 24.269688 
L 195.644347 27.242436 
L 195.782367 24.269688 
L 195.890606 26.25152 
L 195.974249 23.278773 
L 195.941479 27.242436 
L 196.006131 25.260604 
L 196.021746 25.260604 
L 196.082102 26.25152 
L 196.096679 25.260604 
L 196.111056 23.278773 
L 196.139221 27.242436 
L 196.206323 24.269688 
L 196.280952 26.25152 
L 196.292797 25.260604 
L 196.30448 22.287857 
L 196.349621 28.233351 
L 196.392321 25.260604 
L 196.452072 23.278773 
L 196.507023 28.233351 
L 196.549422 24.269688 
L 196.625803 26.25152 
L 196.716202 23.278773 
L 196.704354 27.242436 
L 196.722001 25.260604 
L 196.795141 28.233351 
L 196.733358 23.278773 
L 196.83086 24.269688 
L 196.873787 29.224267 
L 196.884373 23.278773 
L 196.944447 25.260604 
L 196.949561 25.260604 
L 197.038159 28.233351 
L 197.012601 23.278773 
L 197.060651 25.260604 
L 197.120084 21.296941 
L 197.097994 29.224267 
L 197.122699 25.260604 
" clip-path="url(#pe136475dbe)" style="fill: none; stroke: #1f77b4; stroke-width: 0.7; stroke-linecap: square"/>
   </g>
   <g id="line2d_12">
    <path d="M 33.157281 25.260604 
L 197.122887 25.260604 
" clip-path="url(#pe136475dbe)" style="fill: none; stroke-dasharray: 2.59,1.12; stroke-dashoffset: 0; stroke: #000000; stroke-width: 0.7"/>
   </g>
   <g id="patch_3">
    <path d="M 29.877969 95.592396 
L 29.877969 17.759062 
" style="fill: none; stroke: #000000; stroke-width: 0.5; stroke-linejoin: miter; stroke-linecap: square"/>
   </g>
   <g id="patch_4">
    <path d="M 29.877969 95.592396 
L 200.4022 95.592396 
" style="fill: none; stroke: #000000; stroke-width: 0.5; stroke-linejoin: miter; stroke-linecap: square"/>
   </g>
   <g id="text_7">
    <!-- $I(X;R)$ difference -->
    <g transform="translate(90.030084 11.759062) scale(0.06 -0.06)">
     <defs>
      <path id="DejaVuSans-69" d="M 603 3500 
L 1178 3500 
L 1178 0 
L 603 0 
L 603 3500 
z
M 603 4863 
L 1178 4863 
L 1178 4134 
L 603 4134 
L 603 4863 
z
" transform="scale(0.015625)"/>
      <path id="DejaVuSans-72" d="M 2631 2963 
Q 2534 3019 2420 3045 
Q 2306 3072 2169 3072 
Q 1681 3072 1420 2755 
Q 1159 2438 1159 1844 
L 1159 0 
L 581 0 
L 581 3500 
L 1159 3500 
L 1159 2956 
Q 1341 3275 1631 3429 
Q 1922 3584 2338 3584 
Q 2397 3584 2469 3576 
Q 2541 3569 2628 3553 
L 2631 2963 
z
" transform="scale(0.015625)"/>
      <path id="DejaVuSans-63" d="M 3122 3366 
L 3122 2828 
Q 2878 2963 2633 3030 
Q 2388 3097 2138 3097 
Q 1578 3097 1268 2742 
Q 959 2388 959 1747 
Q 959 1106 1268 751 
Q 1578 397 2138 397 
Q 2388 397 2633 464 
Q 2878 531 3122 666 
L 3122 134 
Q 2881 22 2623 -34 
Q 2366 -91 2075 -91 
Q 1284 -91 818 406 
Q 353 903 353 1747 
Q 353 2603 823 3093 
Q 1294 3584 2113 3584 
Q 2378 3584 2631 3529 
Q 2884 3475 3122 3366 
z
" transform="scale(0.015625)"/>
     </defs>
     <use xlink:href="#DejaVuSans-Oblique-49" transform="translate(0 0.015625)"/>
     <use xlink:href="#DejaVuSans-28" transform="translate(29.492188 0.015625)"/>
     <use xlink:href="#DejaVuSans-Oblique-58" transform="translate(68.505859 0.015625)"/>
     <use xlink:href="#DejaVuSans-3b" transform="translate(137.011719 0.015625)"/>
     <use xlink:href="#DejaVuSans-Oblique-52" transform="translate(190.185547 0.015625)"/>
     <use xlink:href="#DejaVuSans-29" transform="translate(259.667969 0.015625)"/>
     <use xlink:href="#DejaVuSans-20" transform="translate(298.681641 0.015625)"/>
     <use xlink:href="#DejaVuSans-64" transform="translate(330.46875 0.015625)"/>
     <use xlink:href="#DejaVuSans-69" transform="translate(393.945312 0.015625)"/>
     <use xlink:href="#DejaVuSans-66" transform="translate(421.728516 0.015625)"/>
     <use xlink:href="#DejaVuSans-66" transform="translate(456.933594 0.015625)"/>
     <use xlink:href="#DejaVuSans-65" transform="translate(492.138672 0.015625)"/>
     <use xlink:href="#DejaVuSans-72" transform="translate(553.662109 0.015625)"/>
     <use xlink:href="#DejaVuSans-65" transform="translate(594.775391 0.015625)"/>
     <use xlink:href="#DejaVuSans-6e" transform="translate(656.298828 0.015625)"/>
     <use xlink:href="#DejaVuSans-63" transform="translate(719.677734 0.015625)"/>
     <use xlink:href="#DejaVuSans-65" transform="translate(774.658203 0.015625)"/>
    </g>
   </g>
  </g>
  <g id="axes_2">
   <g id="patch_5">
    <path d="M 29.877969 197.265729 
L 200.4022 197.265729 
L 200.4022 119.432396 
L 29.877969 119.432396 
z
" style="fill: #ffffff"/>
   </g>
   <g id="matplotlib.axis_3">
    <g id="xtick_7">
     <g id="line2d_13">
      <g>
       <use xlink:href="#m39a5d335f1" x="33.157281" y="197.265729" style="stroke: #000000; stroke-width: 0.5"/>
      </g>
     </g>
    </g>
    <g id="xtick_8">
     <g id="line2d_14">
      <g>
       <use xlink:href="#m39a5d335f1" x="65.950402" y="197.265729" style="stroke: #000000; stroke-width: 0.5"/>
      </g>
     </g>
    </g>
    <g id="xtick_9">
     <g id="line2d_15">
      <g>
       <use xlink:href="#m39a5d335f1" x="98.743523" y="197.265729" style="stroke: #000000; stroke-width: 0.5"/>
      </g>
     </g>
    </g>
    <g id="xtick_10">
     <g id="line2d_16">
      <g>
       <use xlink:href="#m39a5d335f1" x="131.536645" y="197.265729" style="stroke: #000000; stroke-width: 0.5"/>
      </g>
     </g>
    </g>
    <g id="xtick_11">
     <g id="line2d_17">
      <g>
       <use xlink:href="#m39a5d335f1" x="164.329766" y="197.265729" style="stroke: #000000; stroke-width: 0.5"/>
      </g>
     </g>
    </g>
    <g id="xtick_12">
     <g id="line2d_18">
      <g>
       <use xlink:href="#m39a5d335f1" x="197.122887" y="197.265729" style="stroke: #000000; stroke-width: 0.5"/>
      </g>
     </g>
    </g>
   </g>
   <g id="matplotlib.axis_4">
    <g id="ytick_5">
     <g id="line2d_19">
      <g>
       <use xlink:href="#m1c65d05526" x="29.877969" y="196.172879" style="stroke: #000000; stroke-width: 0.5"/>
      </g>
     </g>
     <g id="text_8">
      <!-- −3 -->
      <g transform="translate(17.006875 198.072488) scale(0.05 -0.05)">
       <defs>
        <path id="DejaVuSans-33" d="M 2597 2516 
Q 3050 2419 3304 2112 
Q 3559 1806 3559 1356 
Q 3559 666 3084 287 
Q 2609 -91 1734 -91 
Q 1441 -91 1130 -33 
Q 819 25 488 141 
L 488 750 
Q 750 597 1062 519 
Q 1375 441 1716 441 
Q 2309 441 2620 675 
Q 2931 909 2931 1356 
Q 2931 1769 2642 2001 
Q 2353 2234 1838 2234 
L 1294 2234 
L 1294 2753 
L 1863 2753 
Q 2328 2753 2575 2939 
Q 2822 3125 2822 3475 
Q 2822 3834 2567 4026 
Q 2313 4219 1838 4219 
Q 1578 4219 1281 4162 
Q 984 4106 628 3988 
L 628 4550 
Q 988 4650 1302 4700 
Q 1616 4750 1894 4750 
Q 2613 4750 3031 4423 
Q 3450 4097 3450 3541 
Q 3450 3153 3228 2886 
Q 3006 2619 2597 2516 
z
" transform="scale(0.015625)"/>
       </defs>
       <use xlink:href="#DejaVuSans-2212"/>
       <use xlink:href="#DejaVuSans-33" x="83.789062"/>
      </g>
     </g>
    </g>
    <g id="ytick_6">
     <g id="line2d_20">
      <g>
       <use xlink:href="#m1c65d05526" x="29.877969" y="175.255461" style="stroke: #000000; stroke-width: 0.5"/>
      </g>
     </g>
     <g id="text_9">
      <!-- −2 -->
      <g transform="translate(17.006875 177.15507) scale(0.05 -0.05)">
       <use xlink:href="#DejaVuSans-2212"/>
       <use xlink:href="#DejaVuSans-32" x="83.789062"/>
      </g>
     </g>
    </g>
    <g id="ytick_7">
     <g id="line2d_21">
      <g>
       <use xlink:href="#m1c65d05526" x="29.877969" y="154.338042" style="stroke: #000000; stroke-width: 0.5"/>
      </g>
     </g>
     <g id="text_10">
      <!-- −1 -->
      <g transform="translate(17.006875 156.237652) scale(0.05 -0.05)">
       <use xlink:href="#DejaVuSans-2212"/>
       <use xlink:href="#DejaVuSans-31" x="83.789062"/>
      </g>
     </g>
    </g>
    <g id="ytick_8">
     <g id="line2d_22">
      <g>
       <use xlink:href="#m1c65d05526" x="29.877969" y="133.420624" style="stroke: #000000; stroke-width: 0.5"/>
      </g>
     </g>
     <g id="text_11">
      <!-- 0 -->
      <g transform="translate(21.196719 135.320234) scale(0.05 -0.05)">
       <use xlink:href="#DejaVuSans-30"/>
      </g>
     </g>
    </g>
    <g id="text_12">
     <!-- $\Delta I(R;Y)$ (softmax-IB bound) -->
     <g transform="translate(11.759062 199.029062) rotate(-90) scale(0.06 -0.06)">
      <defs>
       <path id="DejaVuSans-Oblique-59" d="M 403 4666 
L 1081 4666 
L 1953 2747 
L 3616 4666 
L 4325 4666 
L 2209 2222 
L 1778 0 
L 1147 0 
L 1575 2222 
L 403 4666 
z
" transform="scale(0.015625)"/>
      </defs>
      <use xlink:href="#DejaVuSans-394" transform="translate(0 0.015625)"/>
      <use xlink:href="#DejaVuSans-Oblique-49" transform="translate(68.408203 0.015625)"/>
      <use xlink:href="#DejaVuSans-28" transform="translate(97.900391 0.015625)"/>
      <use xlink:href="#DejaVuSans-Oblique-52" transform="translate(136.914062 0.015625)"/>
      <use xlink:href="#DejaVuSans-3b" transform="translate(206.396484 0.015625)"/>
      <use xlink:href="#DejaVuSans-Oblique-59" transform="translate(259.570312 0.015625)"/>
      <use xlink:href="#DejaVuSans-29" transform="translate(320.654297 0.015625)"/>
      <use xlink:href="#DejaVuSans-20" transform="translate(359.667969 0.015625)"/>
      <use xlink:href="#DejaVuSans-28" transform="translate(391.455078 0.015625)"/>
      <use xlink:href="#DejaVuSans-73" transform="translate(430.46875 0.015625)"/>
      <use xlink:href="#DejaVuSans-6f" transform="translate(482.568359 0.015625)"/>
      <use xlink:href="#DejaVuSans-66" transform="translate(543.75 0.015625)"/>
      <use xlink:href="#DejaVuSans-74" transform="translate(578.955078 0.015625)"/>
      <use xlink:href="#DejaVuSans-6d" transform="translate(618.164062 0.015625)"/>
      <use xlink:href="#DejaVuSans-61" transform="translate(715.576172 0.015625)"/>
      <use xlink:href="#DejaVuSans-78" transform="translate(776.855469 0.015625)"/>
      <use xlink:href="#DejaVuSans-2d" transform="translate(836.035156 0.015625)"/>
      <use xlink:href="#DejaVuSans-49" transform="translate(872.119141 0.015625)"/>
      <use xlink:href="#DejaVuSans-42" transform="translate(901.611328 0.015625)"/>
      <use xlink:href="#DejaVuSans-20" transform="translate(970.214844 0.015625)"/>
      <use xlink:href="#DejaVuSans-62" transform="translate(1002.001953 0.015625)"/>
      <use xlink:href="#DejaVuSans-6f" transform="translate(1065.478516 0.015625)"/>
      <use xlink:href="#DejaVuSans-75" transform="translate(1126.660156 0.015625)"/>
      <use xlink:href="#DejaVuSans-6e" transform="translate(1190.039062 0.015625)"/>
      <use xlink:href="#DejaVuSans-64" transform="translate(1253.417969 0.015625)"/>
      <use xlink:href="#DejaVuSans-29" transform="translate(1316.894531 0.015625)"/>
     </g>
    </g>
    <g id="text_13">
     <!-- 1e−15 -->
     <g transform="translate(29.877969 116.432396) scale(0.05 -0.05)">
      <use xlink:href="#DejaVuSans-31"/>
      <use xlink:href="#DejaVuSans-65" x="63.623047"/>
      <use xlink:href="#DejaVuSans-2212" x="125.146484"/>
      <use xlink:href="#DejaVuSans-31" x="208.935547"/>
      <use xlink:href="#DejaVuSans-35" x="272.558594"/>
     </g>
    </g>
   </g>
   <g id="line2d_23">
    <path d="M 33.185527 152.915244 
L 33.411111 138.718371 
L 33.607939 160.199645 
L 33.860243 152.216739 
L 34.528899 182.47921 
L 34.943769 172.174004 
L 35.411158 193.72785 
L 35.930051 132.404618 
L 36.499333 188.865535 
L 37.117795 178.560329 
L 37.784141 159.401355 
L 38.496994 184.366079 
L 39.2549 164.045954 
L 40.056343 174.206017 
L 40.899744 155.192186 
L 41.783473 171.738573 
L 42.705856 167.093973 
L 43.665179 150.257299 
L 44.659701 163.029948 
L 45.687657 166.513398 
L 46.747266 148.515574 
L 47.836737 154.031036 
L 48.954279 142.129249 
L 50.098101 136.613787 
L 51.266424 158.675636 
L 52.457484 143.580686 
L 53.669535 163.610523 
L 54.900858 152.289311 
L 56.149762 141.838961 
L 57.414591 141.838961 
L 58.693724 160.707648 
L 59.985583 157.804773 
L 61.28863 149.676724 
L 62.601376 148.515574 
L 63.922376 146.483561 
L 65.250238 149.386436 
L 66.58362 143.580686 
L 67.921231 148.225286 
L 69.261836 148.805861 
L 70.60425 134.581774 
L 71.947344 138.936087 
L 73.290044 138.065224 
L 74.631327 141.548674 
L 75.970226 137.484649 
L 77.305826 142.709824 
L 78.637263 143.580686 
L 79.963725 146.193274 
L 81.284451 145.612699 
L 82.598728 133.710912 
L 83.905892 139.516662 
L 85.205323 146.193274 
L 86.496448 144.161261 
L 87.778737 146.773849 
L 89.051703 138.065224 
L 90.314898 142.709824 
L 91.567913 139.226374 
L 92.810377 145.612699 
L 94.041954 147.354424 
L 95.262343 143.870974 
L 96.471276 133.420624 
L 97.668512 137.484649 
L 98.853845 136.904074 
L 100.027092 136.904074 
L 101.1881 137.484649 
L 102.336737 138.645799 
L 103.472898 144.451549 
L 104.596498 141.548674 
L 105.707473 135.742924 
L 106.805778 139.226374 
L 107.891388 138.645799 
L 108.964291 140.387524 
L 110.024494 132.840049 
L 111.072018 136.904074 
L 112.106897 139.806949 
L 113.129176 140.387524 
L 114.138915 132.840049 
L 115.136181 136.904074 
L 116.121051 142.709824 
L 117.093615 138.645799 
L 118.053965 136.904074 
L 119.002204 136.904074 
L 119.93844 147.934999 
L 120.862789 145.612699 
L 121.775369 138.065224 
L 122.676304 132.840049 
L 123.565724 132.259474 
L 124.443759 143.870974 
L 125.310544 136.904074 
L 126.166218 134.581774 
L 127.010918 140.968099 
L 127.844787 138.645799 
L 128.667966 134.581774 
L 130.282832 136.904074 
L 131.074807 134.581774 
L 131.85667 139.226374 
L 132.628565 132.259474 
L 133.390637 140.387524 
L 134.885884 135.742924 
L 135.619344 138.065224 
L 136.34355 141.548674 
L 137.058641 134.581774 
L 137.764755 137.484649 
L 138.462031 137.484649 
L 139.150601 142.129249 
L 139.830601 136.904074 
L 140.502161 138.065224 
L 141.165412 134.001199 
L 141.820482 142.129249 
L 142.467496 132.259474 
L 143.10658 130.517749 
L 143.737854 137.484649 
L 144.36144 140.968099 
L 144.977455 138.645799 
L 145.586015 134.581774 
L 146.187235 138.645799 
L 146.781225 140.968099 
L 147.368097 131.678899 
L 147.947956 134.581774 
L 148.52091 133.420624 
L 149.087061 129.937174 
L 150.199361 139.806949 
L 150.745706 134.581774 
L 151.285644 138.065224 
L 151.819266 139.806949 
L 152.346666 137.484649 
L 152.867933 132.259474 
L 153.383155 131.678899 
L 153.892418 131.678899 
L 154.395806 130.517749 
L 154.893402 131.098324 
L 155.385287 129.937174 
L 155.87154 137.484649 
L 156.352239 139.806949 
L 156.827459 129.937174 
L 157.297274 127.614874 
L 157.761759 135.742924 
L 158.220983 139.806949 
L 158.675016 137.484649 
L 159.123928 131.098324 
L 159.567785 136.323499 
L 160.006651 136.323499 
L 160.440593 131.098324 
L 160.869672 134.001199 
L 161.293951 134.001199 
L 161.713489 139.226374 
L 162.128346 132.840049 
L 162.538581 132.259474 
L 162.944249 133.420624 
L 163.345407 136.323499 
L 163.74211 130.517749 
L 164.134411 133.420624 
L 164.522363 132.259474 
L 164.906018 136.904074 
L 165.285426 129.937174 
L 165.660637 136.323499 
L 166.031701 132.840049 
L 166.398666 138.645799 
L 166.761577 138.645799 
L 167.120483 132.840049 
L 167.475428 131.098324 
L 167.826457 129.937174 
L 168.173615 131.098324 
L 168.516944 134.001199 
L 168.856487 132.259474 
L 169.192286 136.904074 
L 169.524383 136.323499 
L 169.852817 131.098324 
L 170.17763 133.420624 
L 170.498859 132.840049 
L 170.816544 135.162349 
L 171.130723 128.195449 
L 171.441433 132.840049 
L 171.748712 132.840049 
L 172.052596 131.098324 
L 172.353121 139.226374 
L 172.650323 132.259474 
L 172.944235 132.840049 
L 173.234894 136.904074 
L 173.522333 133.420624 
L 173.806585 137.484649 
L 174.087684 125.87315 
L 174.365662 127.034299 
L 174.640552 138.065224 
L 174.912386 130.517749 
L 175.181194 135.162349 
L 175.447009 132.840049 
L 175.709861 135.162349 
L 175.96978 131.098324 
L 176.226797 132.259474 
L 176.48094 134.581774 
L 176.73224 135.742924 
L 176.980726 128.195449 
L 177.226425 136.323499 
L 177.469367 138.065224 
L 177.947089 133.420624 
L 178.181925 135.742924 
L 178.643682 131.098324 
L 178.870657 136.904074 
L 179.095064 132.840049 
L 179.31693 135.162349 
L 179.53628 135.162349 
L 179.967536 137.484649 
L 180.179492 131.098324 
L 180.389033 129.937174 
L 180.596183 136.323499 
L 180.800968 132.840049 
L 181.00341 133.420624 
L 181.203535 136.323499 
L 181.401364 122.970275 
L 181.596923 132.840049 
L 181.790234 136.323499 
L 181.98132 130.517749 
L 182.170203 131.098324 
L 182.356907 134.001199 
L 182.541454 129.937174 
L 182.723866 134.581774 
L 182.904164 132.840049 
L 183.082372 134.581774 
L 183.258509 135.162349 
L 183.604659 133.420624 
L 183.774714 136.904074 
L 183.942783 131.098324 
L 184.108888 136.323499 
L 184.273047 134.001199 
L 184.435283 135.742924 
L 184.595614 130.517749 
L 184.754061 129.937174 
L 184.910644 135.162349 
L 185.369398 130.517749 
L 185.666264 141.548674 
L 185.812063 135.162349 
L 185.956131 135.162349 
L 186.378128 132.259474 
L 186.515452 133.420624 
L 186.651134 133.420624 
L 186.785193 132.259474 
L 186.917646 136.904074 
L 187.04851 136.323499 
L 187.305539 132.259474 
L 187.431738 129.937174 
L 187.556415 133.420624 
L 187.679588 140.968099 
L 187.921483 129.937174 
L 188.040238 133.420624 
L 188.273443 129.937174 
L 188.61272 140.968099 
L 188.832064 134.001199 
L 189.151118 129.937174 
L 189.357351 138.065224 
L 189.458569 132.840049 
L 189.558541 136.904074 
L 189.754801 134.001199 
L 189.851117 138.065224 
L 190.315094 133.420624 
L 190.404461 133.420624 
L 190.492716 131.098324 
L 190.750931 135.162349 
L 190.834861 135.742924 
L 190.999582 132.840049 
L 191.080398 137.484649 
L 191.160199 128.776024 
L 191.238997 139.226374 
L 191.316804 131.678899 
L 191.393632 135.742924 
L 191.469492 133.420624 
L 191.544394 126.453725 
L 191.691373 138.065224 
L 191.763472 132.840049 
L 191.834657 134.001199 
L 191.90494 134.001199 
L 191.974332 133.420624 
L 192.042842 136.323499 
L 192.110481 131.098324 
L 192.177261 135.162349 
L 192.243189 133.420624 
L 192.308278 125.292575 
L 192.435974 136.904074 
L 192.498601 135.742924 
L 192.621462 140.387524 
L 192.681714 138.645799 
L 192.79991 133.420624 
L 192.857873 134.001199 
L 193.082359 131.098324 
L 193.295484 139.226374 
L 193.448199 133.420624 
L 193.497789 131.678899 
L 193.64273 138.065224 
L 193.689792 127.614874 
L 193.736242 132.259474 
L 193.827332 136.904074 
L 193.871988 135.742924 
L 194.002484 129.937174 
L 194.08666 133.420624 
L 194.20883 129.937174 
L 194.248489 130.517749 
L 194.364363 140.968099 
L 194.511862 126.453725 
L 194.582722 135.742924 
L 194.651721 133.420624 
L 194.685537 131.098324 
L 194.718904 136.323499 
L 194.751829 139.226374 
L 194.784318 130.517749 
L 194.879217 132.259474 
L 194.940398 131.098324 
L 194.999961 133.420624 
L 195.029148 131.098324 
L 195.057945 134.581774 
L 195.086359 135.742924 
L 195.114393 133.420624 
L 195.142052 134.001199 
L 195.169341 132.259474 
L 195.196265 134.581774 
L 195.222829 133.420624 
L 195.249037 135.162349 
L 195.274893 128.776024 
L 195.3504 135.742924 
L 195.515105 127.614874 
L 195.537384 136.904074 
L 195.623532 135.742924 
L 195.724826 131.098324 
L 195.744269 135.742924 
L 195.837598 133.420624 
L 195.855509 133.420624 
L 195.941479 138.645799 
L 195.957976 131.098324 
L 196.05234 133.420624 
L 196.082102 133.420624 
L 196.096679 132.840049 
L 196.111056 135.162349 
L 196.166619 137.484649 
L 196.153015 133.420624 
L 196.180037 133.420624 
L 196.256761 127.614874 
L 196.231891 134.581774 
L 196.26894 128.776024 
L 196.316002 144.451549 
L 196.381868 132.840049 
L 196.392321 130.517749 
L 196.412796 138.645799 
L 196.489215 133.420624 
L 196.498181 133.420624 
L 196.557551 136.323499 
L 196.611373 129.937174 
L 196.625803 136.904074 
L 196.72772 136.323499 
L 196.83086 128.776024 
L 196.795141 139.806949 
L 196.843242 132.840049 
L 196.870157 138.645799 
L 196.884373 128.776024 
L 196.952063 133.420624 
L 197.058793 126.453725 
L 196.956962 140.968099 
L 197.06334 132.259474 
L 197.121308 141.548674 
L 197.121259 124.131425 
L 197.122699 133.420624 
" clip-path="url(#pceb9cb1e2a)" style="fill: none; stroke: #1f77b4; stroke-width: 0.7; stroke-linecap: square"/>
   </g>
   <g id="line2d_24">
    <path d="M 33.157281 133.420624 
L 197.122887 133.420624 
" clip-path="url(#pceb9cb1e2a)" style="fill: none; stroke-dasharray: 2.59,1.12; stroke-dashoffset: 0; stroke: #000000; stroke-width: 0.7"/>
   </g>
   <g id="patch_6">
    <path d="M 29.877969 197.265729 
L 29.877969 119.432396 
" style="fill: none; stroke: #000000; stroke-width: 0.5; stroke-linejoin: miter; stroke-linecap: square"/>
   </g>
   <g id="patch_7">
    <path d="M 29.877969 197.265729 
L 200.4022 197.265729 
" style="fill: none; stroke: #000000; stroke-width: 0.5; stroke-linejoin: miter; stroke-linecap: square"/>
   </g>
   <g id="text_14">
    <!-- $I(R;Y)$ difference -->
    <g transform="translate(90.270084 113.432396) scale(0.06 -0.06)">
     <use xlink:href="#DejaVuSans-Oblique-49" transform="translate(0 0.015625)"/>
     <use xlink:href="#DejaVuSans-28" transform="translate(29.492188 0.015625)"/>
     <use xlink:href="#DejaVuSans-Oblique-52" transform="translate(68.505859 0.015625)"/>
     <use xlink:href="#DejaVuSans-3b" transform="translate(137.988281 0.015625)"/>
     <use xlink:href="#DejaVuSans-Oblique-59" transform="translate(191.162109 0.015625)"/>
     <use xlink:href="#DejaVuSans-29" transform="translate(252.246094 0.015625)"/>
     <use xlink:href="#DejaVuSans-20" transform="translate(291.259766 0.015625)"/>
     <use xlink:href="#DejaVuSans-64" transform="translate(323.046875 0.015625)"/>
     <use xlink:href="#DejaVuSans-69" transform="translate(386.523438 0.015625)"/>
     <use xlink:href="#DejaVuSans-66" transform="translate(414.306641 0.015625)"/>
     <use xlink:href="#DejaVuSans-66" transform="translate(449.511719 0.015625)"/>
     <use xlink:href="#DejaVuSans-65" transform="translate(484.716797 0.015625)"/>
     <use xlink:href="#DejaVuSans-72" transform="translate(546.240234 0.015625)"/>
     <use xlink:href="#DejaVuSans-65" transform="translate(587.353516 0.015625)"/>
     <use xlink:href="#DejaVuSans-6e" transform="translate(648.876953 0.015625)"/>
     <use xlink:href="#DejaVuSans-63" transform="translate(712.255859 0.015625)"/>
     <use xlink:href="#DejaVuSans-65" transform="translate(767.236328 0.015625)"/>
    </g>
   </g>
  </g>
  <g id="axes_3">
   <g id="patch_8">
    <path d="M 29.877969 298.939062 
L 200.4022 298.939062 
L 200.4022 221.105729 
L 29.877969 221.105729 
z
" style="fill: #ffffff"/>
   </g>
   <g id="matplotlib.axis_5">
    <g id="xtick_13">
     <g id="line2d_25">
      <g>
       <use xlink:href="#m39a5d335f1" x="33.157281" y="298.939062" style="stroke: #000000; stroke-width: 0.5"/>
      </g>
     </g>
     <g id="text_15">
      <!-- 0.0 -->
      <g transform="translate(29.1815 308.238281) scale(0.05 -0.05)">
       <defs>
        <path id="DejaVuSans-2e" d="M 684 794 
L 1344 794 
L 1344 0 
L 684 0 
L 684 794 
z
" transform="scale(0.015625)"/>
       </defs>
       <use xlink:href="#DejaVuSans-30"/>
       <use xlink:href="#DejaVuSans-2e" x="63.623047"/>
       <use xlink:href="#DejaVuSans-30" x="95.410156"/>
      </g>
     </g>
    </g>
    <g id="xtick_14">
     <g id="line2d_26">
      <g>
       <use xlink:href="#m39a5d335f1" x="65.950402" y="298.939062" style="stroke: #000000; stroke-width: 0.5"/>
      </g>
     </g>
     <g id="text_16">
      <!-- 0.2 -->
      <g transform="translate(61.974621 308.238281) scale(0.05 -0.05)">
       <use xlink:href="#DejaVuSans-30"/>
       <use xlink:href="#DejaVuSans-2e" x="63.623047"/>
       <use xlink:href="#DejaVuSans-32" x="95.410156"/>
      </g>
     </g>
    </g>
    <g id="xtick_15">
     <g id="line2d_27">
      <g>
       <use xlink:href="#m39a5d335f1" x="98.743523" y="298.939062" style="stroke: #000000; stroke-width: 0.5"/>
      </g>
     </g>
     <g id="text_17">
      <!-- 0.4 -->
      <g transform="translate(94.767742 308.238281) scale(0.05 -0.05)">
       <use xlink:href="#DejaVuSans-30"/>
       <use xlink:href="#DejaVuSans-2e" x="63.623047"/>
       <use xlink:href="#DejaVuSans-34" x="95.410156"/>
      </g>
     </g>
    </g>
    <g id="xtick_16">
     <g id="line2d_28">
      <g>
       <use xlink:href="#m39a5d335f1" x="131.536645" y="298.939062" style="stroke: #000000; stroke-width: 0.5"/>
      </g>
     </g>
     <g id="text_18">
      <!-- 0.6 -->
      <g transform="translate(127.560864 308.238281) scale(0.05 -0.05)">
       <use xlink:href="#DejaVuSans-30"/>
       <use xlink:href="#DejaVuSans-2e" x="63.623047"/>
       <use xlink:href="#DejaVuSans-36" x="95.410156"/>
      </g>
     </g>
    </g>
    <g id="xtick_17">
     <g id="line2d_29">
      <g>
       <use xlink:href="#m39a5d335f1" x="164.329766" y="298.939062" style="stroke: #000000; stroke-width: 0.5"/>
      </g>
     </g>
     <g id="text_19">
      <!-- 0.8 -->
      <g transform="translate(160.353985 308.238281) scale(0.05 -0.05)">
       <defs>
        <path id="DejaVuSans-38" d="M 2034 2216 
Q 1584 2216 1326 1975 
Q 1069 1734 1069 1313 
Q 1069 891 1326 650 
Q 1584 409 2034 409 
Q 2484 409 2743 651 
Q 3003 894 3003 1313 
Q 3003 1734 2745 1975 
Q 2488 2216 2034 2216 
z
M 1403 2484 
Q 997 2584 770 2862 
Q 544 3141 544 3541 
Q 544 4100 942 4425 
Q 1341 4750 2034 4750 
Q 2731 4750 3128 4425 
Q 3525 4100 3525 3541 
Q 3525 3141 3298 2862 
Q 3072 2584 2669 2484 
Q 3125 2378 3379 2068 
Q 3634 1759 3634 1313 
Q 3634 634 3220 271 
Q 2806 -91 2034 -91 
Q 1263 -91 848 271 
Q 434 634 434 1313 
Q 434 1759 690 2068 
Q 947 2378 1403 2484 
z
M 1172 3481 
Q 1172 3119 1398 2916 
Q 1625 2713 2034 2713 
Q 2441 2713 2670 2916 
Q 2900 3119 2900 3481 
Q 2900 3844 2670 4047 
Q 2441 4250 2034 4250 
Q 1625 4250 1398 4047 
Q 1172 3844 1172 3481 
z
" transform="scale(0.015625)"/>
       </defs>
       <use xlink:href="#DejaVuSans-30"/>
       <use xlink:href="#DejaVuSans-2e" x="63.623047"/>
       <use xlink:href="#DejaVuSans-38" x="95.410156"/>
      </g>
     </g>
    </g>
    <g id="xtick_18">
     <g id="line2d_30">
      <g>
       <use xlink:href="#m39a5d335f1" x="197.122887" y="298.939062" style="stroke: #000000; stroke-width: 0.5"/>
      </g>
     </g>
     <g id="text_20">
      <!-- 1.0 -->
      <g transform="translate(193.147106 308.238281) scale(0.05 -0.05)">
       <use xlink:href="#DejaVuSans-31"/>
       <use xlink:href="#DejaVuSans-2e" x="63.623047"/>
       <use xlink:href="#DejaVuSans-30" x="95.410156"/>
      </g>
     </g>
    </g>
   </g>
   <g id="matplotlib.axis_6">
    <g id="ytick_9">
     <g id="line2d_31">
      <g>
       <use xlink:href="#m1c65d05526" x="29.877969" y="295.401184" style="stroke: #000000; stroke-width: 0.5"/>
      </g>
     </g>
     <g id="text_21">
      <!-- 0 -->
      <g transform="translate(21.196719 297.300793) scale(0.05 -0.05)">
       <use xlink:href="#DejaVuSans-30"/>
      </g>
     </g>
    </g>
    <g id="ytick_10">
     <g id="line2d_32">
      <g>
       <use xlink:href="#m1c65d05526" x="29.877969" y="275.970465" style="stroke: #000000; stroke-width: 0.5"/>
      </g>
     </g>
     <g id="text_22">
      <!-- 2 -->
      <g transform="translate(21.196719 277.870074) scale(0.05 -0.05)">
       <use xlink:href="#DejaVuSans-32"/>
      </g>
     </g>
    </g>
    <g id="ytick_11">
     <g id="line2d_33">
      <g>
       <use xlink:href="#m1c65d05526" x="29.877969" y="256.539746" style="stroke: #000000; stroke-width: 0.5"/>
      </g>
     </g>
     <g id="text_23">
      <!-- 4 -->
      <g transform="translate(21.196719 258.439355) scale(0.05 -0.05)">
       <use xlink:href="#DejaVuSans-34"/>
      </g>
     </g>
    </g>
    <g id="ytick_12">
     <g id="line2d_34">
      <g>
       <use xlink:href="#m1c65d05526" x="29.877969" y="237.109027" style="stroke: #000000; stroke-width: 0.5"/>
      </g>
     </g>
     <g id="text_24">
      <!-- 6 -->
      <g transform="translate(21.196719 239.008636) scale(0.05 -0.05)">
       <use xlink:href="#DejaVuSans-36"/>
      </g>
     </g>
    </g>
    <g id="text_25">
     <!-- max $\Delta p(r|x)$ (softmax-IB bound) -->
     <g transform="translate(15.756719 307.722396) rotate(-90) scale(0.06 -0.06)">
      <defs>
       <path id="DejaVuSans-Oblique-70" d="M 3175 2156 
Q 3175 2616 2975 2859 
Q 2775 3103 2400 3103 
Q 2144 3103 1911 2972 
Q 1678 2841 1497 2591 
Q 1319 2344 1212 1994 
Q 1106 1644 1106 1300 
Q 1106 863 1306 627 
Q 1506 391 1875 391 
Q 2147 391 2380 519 
Q 2613 647 2778 891 
Q 2956 1147 3065 1494 
Q 3175 1841 3175 2156 
z
M 1394 2969 
Q 1625 3272 1939 3428 
Q 2253 3584 2638 3584 
Q 3175 3584 3472 3232 
Q 3769 2881 3769 2247 
Q 3769 1728 3584 1258 
Q 3400 788 3053 416 
Q 2822 169 2531 39 
Q 2241 -91 1919 -91 
Q 1547 -91 1294 64 
Q 1041 219 916 525 
L 556 -1331 
L -19 -1331 
L 922 3500 
L 1497 3500 
L 1394 2969 
z
" transform="scale(0.015625)"/>
       <path id="DejaVuSans-Oblique-72" d="M 2853 2969 
Q 2766 3016 2653 3041 
Q 2541 3066 2413 3066 
Q 1953 3066 1609 2717 
Q 1266 2369 1153 1784 
L 800 0 
L 225 0 
L 909 3500 
L 1484 3500 
L 1375 2956 
Q 1603 3259 1920 3421 
Q 2238 3584 2597 3584 
Q 2691 3584 2781 3573 
Q 2872 3563 2963 3538 
L 2853 2969 
z
" transform="scale(0.015625)"/>
       <path id="DejaVuSans-7c" d="M 1344 4891 
L 1344 -1509 
L 813 -1509 
L 813 4891 
L 1344 4891 
z
" transform="scale(0.015625)"/>
       <path id="DejaVuSans-Oblique-78" d="M 3841 3500 
L 2234 1784 
L 3219 0 
L 2559 0 
L 1819 1388 
L 531 0 
L -166 0 
L 1556 1844 
L 641 3500 
L 1300 3500 
L 1972 2234 
L 3144 3500 
L 3841 3500 
z
" transform="scale(0.015625)"/>
      </defs>
      <use xlink:href="#DejaVuSans-6d" transform="translate(0 0.578125)"/>
      <use xlink:href="#DejaVuSans-61" transform="translate(97.412109 0.578125)"/>
      <use xlink:href="#DejaVuSans-78" transform="translate(158.691406 0.578125)"/>
      <use xlink:href="#DejaVuSans-20" transform="translate(217.871094 0.578125)"/>
      <use xlink:href="#DejaVuSans-394" transform="translate(249.658203 0.578125)"/>
      <use xlink:href="#DejaVuSans-Oblique-70" transform="translate(318.066406 0.578125)"/>
      <use xlink:href="#DejaVuSans-28" transform="translate(381.542969 0.578125)"/>
      <use xlink:href="#DejaVuSans-Oblique-72" transform="translate(420.556641 0.578125)"/>
      <use xlink:href="#DejaVuSans-7c" transform="translate(461.669922 0.578125)"/>
      <use xlink:href="#DejaVuSans-Oblique-78" transform="translate(495.361328 0.578125)"/>
      <use xlink:href="#DejaVuSans-29" transform="translate(554.541016 0.578125)"/>
      <use xlink:href="#DejaVuSans-20" transform="translate(593.554688 0.578125)"/>
      <use xlink:href="#DejaVuSans-28" transform="translate(625.341797 0.578125)"/>
      <use xlink:href="#DejaVuSans-73" transform="translate(664.355469 0.578125)"/>
      <use xlink:href="#DejaVuSans-6f" transform="translate(716.455078 0.578125)"/>
      <use xlink:href="#DejaVuSans-66" transform="translate(777.636719 0.578125)"/>
      <use xlink:href="#DejaVuSans-74" transform="translate(812.841797 0.578125)"/>
      <use xlink:href="#DejaVuSans-6d" transform="translate(852.050781 0.578125)"/>
      <use xlink:href="#DejaVuSans-61" transform="translate(949.462891 0.578125)"/>
      <use xlink:href="#DejaVuSans-78" transform="translate(1010.742188 0.578125)"/>
      <use xlink:href="#DejaVuSans-2d" transform="translate(1069.921875 0.578125)"/>
      <use xlink:href="#DejaVuSans-49" transform="translate(1106.005859 0.578125)"/>
      <use xlink:href="#DejaVuSans-42" transform="translate(1135.498047 0.578125)"/>
      <use xlink:href="#DejaVuSans-20" transform="translate(1204.101562 0.578125)"/>
      <use xlink:href="#DejaVuSans-62" transform="translate(1235.888672 0.578125)"/>
      <use xlink:href="#DejaVuSans-6f" transform="translate(1299.365234 0.578125)"/>
      <use xlink:href="#DejaVuSans-75" transform="translate(1360.546875 0.578125)"/>
      <use xlink:href="#DejaVuSans-6e" transform="translate(1423.925781 0.578125)"/>
      <use xlink:href="#DejaVuSans-64" transform="translate(1487.304688 0.578125)"/>
      <use xlink:href="#DejaVuSans-29" transform="translate(1550.78125 0.578125)"/>
     </g>
    </g>
    <g id="text_26">
     <!-- 1e−14 -->
     <g transform="translate(29.877969 218.105729) scale(0.05 -0.05)">
      <use xlink:href="#DejaVuSans-31"/>
      <use xlink:href="#DejaVuSans-65" x="63.623047"/>
      <use xlink:href="#DejaVuSans-2212" x="125.146484"/>
      <use xlink:href="#DejaVuSans-31" x="208.935547"/>
      <use xlink:href="#DejaVuSans-34" x="272.558594"/>
     </g>
    </g>
   </g>
   <g id="line2d_35">
    <path d="M 33.185527 224.643608 
L 33.270201 270.808612 
L 33.411111 278.682549 
L 33.607939 271.186129 
L 33.860243 277.819652 
L 34.528899 265.091917 
L 34.943769 271.132198 
L 35.411158 268.435644 
L 35.930051 294.70008 
L 36.499333 275.015236 
L 37.117795 278.790411 
L 37.784141 286.934004 
L 38.496994 280.947655 
L 39.2549 284.938554 
L 40.056343 284.291381 
L 40.899744 289.522696 
L 41.783473 286.772211 
L 42.705856 288.120488 
L 43.665179 291.19456 
L 44.659701 289.19911 
L 45.687657 287.635108 
L 46.747266 290.763111 
L 47.836737 291.410284 
L 48.954279 294.430424 
L 50.098101 293.459665 
L 51.266424 291.545112 
L 52.457484 293.243941 
L 53.669535 290.547387 
L 56.149762 294.268631 
L 58.693724 291.73387 
L 59.985583 292.596768 
L 61.28863 293.136078 
L 62.601376 293.891113 
L 63.922376 293.998976 
L 65.250238 293.243941 
L 66.58362 293.998976 
L 67.921231 293.998976 
L 69.261836 293.432699 
L 70.60425 294.322562 
L 71.947344 294.646149 
L 74.631327 294.538286 
L 78.637263 294.538286 
L 79.963725 294.268631 
L 81.284451 294.2147 
L 82.598728 293.351803 
L 83.905892 294.430424 
L 85.205323 293.459665 
L 86.496448 294.430424 
L 87.778737 294.322562 
L 89.051703 293.783251 
L 90.314898 294.430424 
L 91.567913 294.861873 
L 92.810377 294.052907 
L 94.041954 294.592218 
L 95.262343 294.807942 
L 96.471276 295.185459 
L 97.668512 294.861873 
L 98.853845 295.185459 
L 100.027092 294.807942 
L 102.336737 294.592218 
L 103.472898 294.619183 
L 104.596498 294.94277 
L 105.707473 295.077597 
L 106.805778 294.834907 
L 107.891388 294.861873 
L 108.964291 295.077597 
L 110.024494 295.158494 
L 111.072018 294.403459 
L 112.106897 294.727045 
L 113.129176 294.754011 
L 115.136181 294.538286 
L 116.121051 294.646149 
L 117.093615 295.050632 
L 118.053965 294.807942 
L 119.002204 294.969735 
L 119.93844 294.322562 
L 120.862789 294.754011 
L 122.676304 295.23939 
L 123.565724 294.754011 
L 124.443759 294.646149 
L 126.166218 294.996701 
L 127.010918 295.023666 
L 127.844787 294.861873 
L 128.667966 295.158494 
L 129.4806 295.293322 
L 130.282832 294.969735 
L 131.074807 294.969735 
L 131.85667 294.646149 
L 132.628565 295.185459 
L 133.390637 294.754011 
L 134.143029 295.077597 
L 134.885884 295.077597 
L 135.619344 294.646149 
L 136.34355 294.565252 
L 137.058641 295.347253 
L 138.462031 294.915804 
L 139.150601 295.050632 
L 140.502161 294.646149 
L 141.165412 294.969735 
L 141.820482 294.969735 
L 142.467496 295.185459 
L 143.10658 295.266356 
L 144.977455 294.538286 
L 145.586015 295.185459 
L 146.187235 294.834907 
L 147.368097 295.077597 
L 147.947956 295.037149 
L 148.52091 295.185459 
L 149.087061 295.185459 
L 149.646512 294.969735 
L 150.199361 294.902321 
L 150.745706 295.09108 
L 151.285644 295.077597 
L 151.819266 294.94277 
L 153.383155 294.969735 
L 153.892418 295.293322 
L 154.395806 294.969735 
L 154.893402 295.266356 
L 155.385287 295.185459 
L 155.87154 294.861873 
L 156.352239 295.185459 
L 156.827459 295.077597 
L 157.297274 295.158494 
L 158.675016 294.969735 
L 159.123928 295.077597 
L 159.567785 294.754011 
L 160.006651 295.293322 
L 160.440593 295.293322 
L 160.869672 295.077597 
L 161.713489 295.077597 
L 162.128346 295.185459 
L 162.538581 295.077597 
L 163.345407 295.185459 
L 164.134411 295.131528 
L 164.522363 294.969735 
L 164.906018 295.118046 
L 165.285426 295.077597 
L 166.031701 295.252873 
L 166.398666 295.077597 
L 168.516944 295.165235 
L 168.856487 295.340511 
L 169.524383 295.13827 
L 169.852817 295.279839 
L 170.17763 295.077597 
L 170.498859 295.198942 
L 170.816544 295.077597 
L 171.441433 295.185459 
L 171.748712 295.104563 
L 172.353121 295.185459 
L 172.650323 295.225908 
L 172.944235 295.084339 
L 173.522333 295.387701 
L 173.806585 295.185459 
L 174.087684 295.28658 
L 174.365662 295.077597 
L 174.912386 295.266356 
L 175.181194 295.077597 
L 175.447009 295.28658 
L 176.73224 295.077597 
L 176.980726 295.273097 
L 177.226425 295.185459 
L 177.709579 295.293322 
L 178.414114 295.077597 
L 178.643682 295.293322 
L 181.00341 295.212425 
L 181.203535 295.077597 
L 181.596923 295.293322 
L 181.790234 295.185459 
L 182.170203 295.293322 
L 182.356907 295.185459 
L 182.541454 295.293322 
L 182.723866 295.185459 
L 182.904164 295.293322 
L 183.432597 295.185459 
L 183.604659 295.293322 
L 183.774714 295.185459 
L 183.942783 295.293322 
L 184.273047 295.293322 
L 197.122699 295.401181 
L 197.122699 295.401181 
" clip-path="url(#p5f7f77d0da)" style="fill: none; stroke: #1f77b4; stroke-width: 0.7; stroke-linecap: square"/>
   </g>
   <g id="line2d_36">
    <path d="M 33.157281 295.401184 
L 197.122887 295.401184 
" clip-path="url(#p5f7f77d0da)" style="fill: none; stroke-dasharray: 2.59,1.12; stroke-dashoffset: 0; stroke: #000000; stroke-width: 0.7"/>
   </g>
   <g id="patch_9">
    <path d="M 29.877969 298.939062 
L 29.877969 221.105729 
" style="fill: none; stroke: #000000; stroke-width: 0.5; stroke-linejoin: miter; stroke-linecap: square"/>
   </g>
   <g id="patch_10">
    <path d="M 29.877969 298.939062 
L 200.4022 298.939062 
" style="fill: none; stroke: #000000; stroke-width: 0.5; stroke-linejoin: miter; stroke-linecap: square"/>
   </g>
   <g id="text_27">
    <!-- max $p(r|x)$ difference -->
    <g transform="translate(83.250084 215.105729) scale(0.06 -0.06)">
     <use xlink:href="#DejaVuSans-6d" transform="translate(0 0.578125)"/>
     <use xlink:href="#DejaVuSans-61" transform="translate(97.412109 0.578125)"/>
     <use xlink:href="#DejaVuSans-78" transform="translate(158.691406 0.578125)"/>
     <use xlink:href="#DejaVuSans-20" transform="translate(217.871094 0.578125)"/>
     <use xlink:href="#DejaVuSans-Oblique-70" transform="translate(249.658203 0.578125)"/>
     <use xlink:href="#DejaVuSans-28" transform="translate(313.134766 0.578125)"/>
     <use xlink:href="#DejaVuSans-Oblique-72" transform="translate(352.148438 0.578125)"/>
     <use xlink:href="#DejaVuSans-7c" transform="translate(393.261719 0.578125)"/>
     <use xlink:href="#DejaVuSans-Oblique-78" transform="translate(426.953125 0.578125)"/>
     <use xlink:href="#DejaVuSans-29" transform="translate(486.132812 0.578125)"/>
     <use xlink:href="#DejaVuSans-20" transform="translate(525.146484 0.578125)"/>
     <use xlink:href="#DejaVuSans-64" transform="translate(556.933594 0.578125)"/>
     <use xlink:href="#DejaVuSans-69" transform="translate(620.410156 0.578125)"/>
     <use xlink:href="#DejaVuSans-66" transform="translate(648.193359 0.578125)"/>
     <use xlink:href="#DejaVuSans-66" transform="translate(683.398438 0.578125)"/>
     <use xlink:href="#DejaVuSans-65" transform="translate(718.603516 0.578125)"/>
     <use xlink:href="#DejaVuSans-72" transform="translate(780.126953 0.578125)"/>
     <use xlink:href="#DejaVuSans-65" transform="translate(821.240234 0.578125)"/>
     <use xlink:href="#DejaVuSans-6e" transform="translate(882.763672 0.578125)"/>
     <use xlink:href="#DejaVuSans-63" transform="translate(946.142578 0.578125)"/>
     <use xlink:href="#DejaVuSans-65" transform="translate(1001.123047 0.578125)"/>
    </g>
   </g>
  </g>
 </g>
 <defs>
  <clipPath id="pe136475dbe">
   <rect x="29.877969" y="17.759062" width="170.524231" height="77.833333"/>
  </clipPath>
  <clipPath id="pceb9cb1e2a">
   <rect x="29.877969" y="119.432396" width="170.524231" height="77.833333"/>
  </clipPath>
  <clipPath id="p5f7f77d0da">
   <rect x="29.877969" y="221.105729" width="170.524231" height="77.833333"/>
  </clipPath>
 </defs>
</svg>
