<?xml version="1.0" encoding="utf-8" standalone="no"?>
<!DOCTYPE svg PUBLIC "-//W3C//DTD SVG 1.1//EN"
  "http://www.w3.org/Graphics/SVG/1.1/DTD/svg11.dtd">
<svg xmlns:xlink="http://www.w3.org/1999/xlink" width="208.390712pt" height="316.478125pt" viewBox="0 0 208.390712 316.478125" xmlns="http://www.w3.org/2000/svg" version="1.1">
 <metadata>
  <rdf:RDF xmlns:dc="http://purl.org/dc/elements/1.1/" xmlns:cc="http://creativecommons.org/ns#" xmlns:rdf="http://www.w3.org/1999/02/22-rdf-syntax-ns#">
   <cc:Work>
    <dc:type rdf:resource="http://purl.org/dc/dcmitype/StillImage"/>
    <dc:date>2026-04-22T21:54:45.515174</dc:date>
    <dc:format>image/svg+xml</dc:format>
    <dc:creator>
     <cc:Agent>
      <dc:title>Matplotlib v3.8.2, https://matplotlib.org/</dc:title>
     </cc:Agent>
    </dc:creator>
   </cc:Work>
  </rdf:RDF>
 </metadata>
 <defs>
  <style type="text/css">*{stroke-linejoin: round; stroke-linecap: butt}</style>
 </defs>
 <g id="figure_1">
  <g id="patch_1">
   <path d="M 0 316.478125 
L 208.390712 316.478125 
L 208.390712 0 
L 0 0 
z
" style="fill: #ffffff"/>
  </g>
  <g id="axes_1">
   <g id="patch_2">
    <path d="M 34.648281 95.592396 
L 200.402512 95.592396 
L 200.402512 17.759062 
L 34.648281 17.759062 
z
" style="fill: #ffffff"/>
   </g>
   <g id="matplotlib.axis_1">
    <g id="xtick_1">
     <g id="line2d_1">
      <defs>
       <path id="m26f804eec0" d="M 0 0 
L 0 2 
" style="stroke: #000000; stroke-width: 0.5"/>
      </defs>
      <g>
       <use xlink:href="#m26f804eec0" x="37.835863" y="95.592396" style="stroke: #000000; stroke-width: 0.5"/>
      </g>
     </g>
    </g>
    <g id="xtick_2">
     <g id="line2d_2">
      <g>
       <use xlink:href="#m26f804eec0" x="69.711676" y="95.592396" style="stroke: #000000; stroke-width: 0.5"/>
      </g>
     </g>
    </g>
    <g id="xtick_3">
     <g id="line2d_3">
      <g>
       <use xlink:href="#m26f804eec0" x="101.58749" y="95.592396" style="stroke: #000000; stroke-width: 0.5"/>
      </g>
     </g>
    </g>
    <g id="xtick_4">
     <g id="line2d_4">
      <g>
       <use xlink:href="#m26f804eec0" x="133.463303" y="95.592396" style="stroke: #000000; stroke-width: 0.5"/>
      </g>
     </g>
    </g>
    <g id="xtick_5">
     <g id="line2d_5">
      <g>
       <use xlink:href="#m26f804eec0" x="165.339117" y="95.592396" style="stroke: #000000; stroke-width: 0.5"/>
      </g>
     </g>
    </g>
    <g id="xtick_6">
     <g id="line2d_6">
      <g>
       <use xlink:href="#m26f804eec0" x="197.214931" y="95.592396" style="stroke: #000000; stroke-width: 0.5"/>
      </g>
     </g>
    </g>
   </g>
   <g id="matplotlib.axis_2">
    <g id="ytick_1">
     <g id="line2d_7">
      <defs>
       <path id="m7daa04b7c0" d="M 0 0 
L -2 0 
" style="stroke: #000000; stroke-width: 0.5"/>
      </defs>
      <g>
       <use xlink:href="#m7daa04b7c0" x="34.648281" y="88.089119" style="stroke: #000000; stroke-width: 0.5"/>
      </g>
     </g>
     <g id="text_1">
      <!-- 0 -->
      <g transform="translate(25.967031 89.988728) scale(0.05 -0.05)">
       <defs>
        <path id="DejaVuSans-30" d="M 2034 4250 
Q 1547 4250 1301 3770 
Q 1056 3291 1056 2328 
Q 1056 1369 1301 889 
Q 1547 409 2034 409 
Q 2525 409 2770 889 
Q 3016 1369 3016 2328 
Q 3016 3291 2770 3770 
Q 2525 4250 2034 4250 
z
M 2034 4750 
Q 2819 4750 3233 4129 
Q 3647 3509 3647 2328 
Q 3647 1150 3233 529 
Q 2819 -91 2034 -91 
Q 1250 -91 836 529 
Q 422 1150 422 2328 
Q 422 3509 836 4129 
Q 1250 4750 2034 4750 
z
" transform="scale(0.015625)"/>
       </defs>
       <use xlink:href="#DejaVuSans-30"/>
      </g>
     </g>
    </g>
    <g id="ytick_2">
     <g id="line2d_8">
      <g>
       <use xlink:href="#m7daa04b7c0" x="34.648281" y="76.183408" style="stroke: #000000; stroke-width: 0.5"/>
      </g>
     </g>
     <g id="text_2">
      <!-- 1 -->
      <g transform="translate(25.967031 78.083017) scale(0.05 -0.05)">
       <defs>
        <path id="DejaVuSans-31" d="M 794 531 
L 1825 531 
L 1825 4091 
L 703 3866 
L 703 4441 
L 1819 4666 
L 2450 4666 
L 2450 531 
L 3481 531 
L 3481 0 
L 794 0 
L 794 531 
z
" transform="scale(0.015625)"/>
       </defs>
       <use xlink:href="#DejaVuSans-31"/>
      </g>
     </g>
    </g>
    <g id="ytick_3">
     <g id="line2d_9">
      <g>
       <use xlink:href="#m7daa04b7c0" x="34.648281" y="64.277697" style="stroke: #000000; stroke-width: 0.5"/>
      </g>
     </g>
     <g id="text_3">
      <!-- 2 -->
      <g transform="translate(25.967031 66.177306) scale(0.05 -0.05)">
       <defs>
        <path id="DejaVuSans-32" d="M 1228 531 
L 3431 531 
L 3431 0 
L 469 0 
L 469 531 
Q 828 903 1448 1529 
Q 2069 2156 2228 2338 
Q 2531 2678 2651 2914 
Q 2772 3150 2772 3378 
Q 2772 3750 2511 3984 
Q 2250 4219 1831 4219 
Q 1534 4219 1204 4116 
Q 875 4013 500 3803 
L 500 4441 
Q 881 4594 1212 4672 
Q 1544 4750 1819 4750 
Q 2544 4750 2975 4387 
Q 3406 4025 3406 3419 
Q 3406 3131 3298 2873 
Q 3191 2616 2906 2266 
Q 2828 2175 2409 1742 
Q 1991 1309 1228 531 
z
" transform="scale(0.015625)"/>
       </defs>
       <use xlink:href="#DejaVuSans-32"/>
      </g>
     </g>
    </g>
    <g id="ytick_4">
     <g id="line2d_10">
      <g>
       <use xlink:href="#m7daa04b7c0" x="34.648281" y="52.371986" style="stroke: #000000; stroke-width: 0.5"/>
      </g>
     </g>
     <g id="text_4">
      <!-- 3 -->
      <g transform="translate(25.967031 54.271596) scale(0.05 -0.05)">
       <defs>
        <path id="DejaVuSans-33" d="M 2597 2516 
Q 3050 2419 3304 2112 
Q 3559 1806 3559 1356 
Q 3559 666 3084 287 
Q 2609 -91 1734 -91 
Q 1441 -91 1130 -33 
Q 819 25 488 141 
L 488 750 
Q 750 597 1062 519 
Q 1375 441 1716 441 
Q 2309 441 2620 675 
Q 2931 909 2931 1356 
Q 2931 1769 2642 2001 
Q 2353 2234 1838 2234 
L 1294 2234 
L 1294 2753 
L 1863 2753 
Q 2328 2753 2575 2939 
Q 2822 3125 2822 3475 
Q 2822 3834 2567 4026 
Q 2313 4219 1838 4219 
Q 1578 4219 1281 4162 
Q 984 4106 628 3988 
L 628 4550 
Q 988 4650 1302 4700 
Q 1616 4750 1894 4750 
Q 2613 4750 3031 4423 
Q 3450 4097 3450 3541 
Q 3450 3153 3228 2886 
Q 3006 2619 2597 2516 
z
" transform="scale(0.015625)"/>
       </defs>
       <use xlink:href="#DejaVuSans-33"/>
      </g>
     </g>
    </g>
    <g id="ytick_5">
     <g id="line2d_11">
      <g>
       <use xlink:href="#m7daa04b7c0" x="34.648281" y="40.466275" style="stroke: #000000; stroke-width: 0.5"/>
      </g>
     </g>
     <g id="text_5">
      <!-- 4 -->
      <g transform="translate(25.967031 42.365885) scale(0.05 -0.05)">
       <defs>
        <path id="DejaVuSans-34" d="M 2419 4116 
L 825 1625 
L 2419 1625 
L 2419 4116 
z
M 2253 4666 
L 3047 4666 
L 3047 1625 
L 3713 1625 
L 3713 1100 
L 3047 1100 
L 3047 0 
L 2419 0 
L 2419 1100 
L 313 1100 
L 313 1709 
L 2253 4666 
z
" transform="scale(0.015625)"/>
       </defs>
       <use xlink:href="#DejaVuSans-34"/>
      </g>
     </g>
    </g>
    <g id="ytick_6">
     <g id="line2d_12">
      <g>
       <use xlink:href="#m7daa04b7c0" x="34.648281" y="28.560565" style="stroke: #000000; stroke-width: 0.5"/>
      </g>
     </g>
     <g id="text_6">
      <!-- 5 -->
      <g transform="translate(25.967031 30.460174) scale(0.05 -0.05)">
       <defs>
        <path id="DejaVuSans-35" d="M 691 4666 
L 3169 4666 
L 3169 4134 
L 1269 4134 
L 1269 2991 
Q 1406 3038 1543 3061 
Q 1681 3084 1819 3084 
Q 2600 3084 3056 2656 
Q 3513 2228 3513 1497 
Q 3513 744 3044 326 
Q 2575 -91 1722 -91 
Q 1428 -91 1123 -41 
Q 819 9 494 109 
L 494 744 
Q 775 591 1075 516 
Q 1375 441 1709 441 
Q 2250 441 2565 725 
Q 2881 1009 2881 1497 
Q 2881 1984 2565 2268 
Q 2250 2553 1709 2553 
Q 1456 2553 1204 2497 
Q 953 2441 691 2322 
L 691 4666 
z
" transform="scale(0.015625)"/>
       </defs>
       <use xlink:href="#DejaVuSans-35"/>
      </g>
     </g>
    </g>
    <g id="text_7">
     <!-- $\Delta I(X;R)$ (softmax-IB bound) -->
     <g transform="translate(20.719219 97.595729) rotate(-90) scale(0.06 -0.06)">
      <defs>
       <path id="DejaVuSans-394" d="M 2188 4044 
L 906 525 
L 3472 525 
L 2188 4044 
z
M 50 0 
L 1831 4666 
L 2547 4666 
L 4325 0 
L 50 0 
z
" transform="scale(0.015625)"/>
       <path id="DejaVuSans-Oblique-49" d="M 1081 4666 
L 1716 4666 
L 806 0 
L 172 0 
L 1081 4666 
z
" transform="scale(0.015625)"/>
       <path id="DejaVuSans-28" d="M 1984 4856 
Q 1566 4138 1362 3434 
Q 1159 2731 1159 2009 
Q 1159 1288 1364 580 
Q 1569 -128 1984 -844 
L 1484 -844 
Q 1016 -109 783 600 
Q 550 1309 550 2009 
Q 550 2706 781 3412 
Q 1013 4119 1484 4856 
L 1984 4856 
z
" transform="scale(0.015625)"/>
       <path id="DejaVuSans-Oblique-58" d="M 878 4666 
L 1516 4666 
L 2316 2981 
L 3763 4666 
L 4500 4666 
L 2578 2438 
L 3738 0 
L 3103 0 
L 2163 1966 
L 459 0 
L -275 0 
L 1906 2509 
L 878 4666 
z
" transform="scale(0.015625)"/>
       <path id="DejaVuSans-3b" d="M 750 3309 
L 1409 3309 
L 1409 2516 
L 750 2516 
L 750 3309 
z
M 750 794 
L 1409 794 
L 1409 256 
L 897 -744 
L 494 -744 
L 750 256 
L 750 794 
z
" transform="scale(0.015625)"/>
       <path id="DejaVuSans-Oblique-52" d="M 1613 4147 
L 1294 2491 
L 2106 2491 
Q 2584 2491 2879 2755 
Q 3175 3019 3175 3444 
Q 3175 3784 2976 3965 
Q 2778 4147 2406 4147 
L 1613 4147 
z
M 2772 2241 
Q 2972 2194 3105 2009 
Q 3238 1825 3413 1275 
L 3809 0 
L 3144 0 
L 2778 1197 
Q 2638 1659 2453 1815 
Q 2269 1972 1888 1972 
L 1191 1972 
L 806 0 
L 172 0 
L 1081 4666 
L 2503 4666 
Q 3150 4666 3495 4373 
Q 3841 4081 3841 3531 
Q 3841 3044 3547 2687 
Q 3253 2331 2772 2241 
z
" transform="scale(0.015625)"/>
       <path id="DejaVuSans-29" d="M 513 4856 
L 1013 4856 
Q 1481 4119 1714 3412 
Q 1947 2706 1947 2009 
Q 1947 1309 1714 600 
Q 1481 -109 1013 -844 
L 513 -844 
Q 928 -128 1133 580 
Q 1338 1288 1338 2009 
Q 1338 2731 1133 3434 
Q 928 4138 513 4856 
z
" transform="scale(0.015625)"/>
       <path id="DejaVuSans-20" transform="scale(0.015625)"/>
       <path id="DejaVuSans-73" d="M 2834 3397 
L 2834 2853 
Q 2591 2978 2328 3040 
Q 2066 3103 1784 3103 
Q 1356 3103 1142 2972 
Q 928 2841 928 2578 
Q 928 2378 1081 2264 
Q 1234 2150 1697 2047 
L 1894 2003 
Q 2506 1872 2764 1633 
Q 3022 1394 3022 966 
Q 3022 478 2636 193 
Q 2250 -91 1575 -91 
Q 1294 -91 989 -36 
Q 684 19 347 128 
L 347 722 
Q 666 556 975 473 
Q 1284 391 1588 391 
Q 1994 391 2212 530 
Q 2431 669 2431 922 
Q 2431 1156 2273 1281 
Q 2116 1406 1581 1522 
L 1381 1569 
Q 847 1681 609 1914 
Q 372 2147 372 2553 
Q 372 3047 722 3315 
Q 1072 3584 1716 3584 
Q 2034 3584 2315 3537 
Q 2597 3491 2834 3397 
z
" transform="scale(0.015625)"/>
       <path id="DejaVuSans-6f" d="M 1959 3097 
Q 1497 3097 1228 2736 
Q 959 2375 959 1747 
Q 959 1119 1226 758 
Q 1494 397 1959 397 
Q 2419 397 2687 759 
Q 2956 1122 2956 1747 
Q 2956 2369 2687 2733 
Q 2419 3097 1959 3097 
z
M 1959 3584 
Q 2709 3584 3137 3096 
Q 3566 2609 3566 1747 
Q 3566 888 3137 398 
Q 2709 -91 1959 -91 
Q 1206 -91 779 398 
Q 353 888 353 1747 
Q 353 2609 779 3096 
Q 1206 3584 1959 3584 
z
" transform="scale(0.015625)"/>
       <path id="DejaVuSans-66" d="M 2375 4863 
L 2375 4384 
L 1825 4384 
Q 1516 4384 1395 4259 
Q 1275 4134 1275 3809 
L 1275 3500 
L 2222 3500 
L 2222 3053 
L 1275 3053 
L 1275 0 
L 697 0 
L 697 3053 
L 147 3053 
L 147 3500 
L 697 3500 
L 697 3744 
Q 697 4328 969 4595 
Q 1241 4863 1831 4863 
L 2375 4863 
z
" transform="scale(0.015625)"/>
       <path id="DejaVuSans-74" d="M 1172 4494 
L 1172 3500 
L 2356 3500 
L 2356 3053 
L 1172 3053 
L 1172 1153 
Q 1172 725 1289 603 
Q 1406 481 1766 481 
L 2356 481 
L 2356 0 
L 1766 0 
Q 1100 0 847 248 
Q 594 497 594 1153 
L 594 3053 
L 172 3053 
L 172 3500 
L 594 3500 
L 594 4494 
L 1172 4494 
z
" transform="scale(0.015625)"/>
       <path id="DejaVuSans-6d" d="M 3328 2828 
Q 3544 3216 3844 3400 
Q 4144 3584 4550 3584 
Q 5097 3584 5394 3201 
Q 5691 2819 5691 2113 
L 5691 0 
L 5113 0 
L 5113 2094 
Q 5113 2597 4934 2840 
Q 4756 3084 4391 3084 
Q 3944 3084 3684 2787 
Q 3425 2491 3425 1978 
L 3425 0 
L 2847 0 
L 2847 2094 
Q 2847 2600 2669 2842 
Q 2491 3084 2119 3084 
Q 1678 3084 1418 2786 
Q 1159 2488 1159 1978 
L 1159 0 
L 581 0 
L 581 3500 
L 1159 3500 
L 1159 2956 
Q 1356 3278 1631 3431 
Q 1906 3584 2284 3584 
Q 2666 3584 2933 3390 
Q 3200 3197 3328 2828 
z
" transform="scale(0.015625)"/>
       <path id="DejaVuSans-61" d="M 2194 1759 
Q 1497 1759 1228 1600 
Q 959 1441 959 1056 
Q 959 750 1161 570 
Q 1363 391 1709 391 
Q 2188 391 2477 730 
Q 2766 1069 2766 1631 
L 2766 1759 
L 2194 1759 
z
M 3341 1997 
L 3341 0 
L 2766 0 
L 2766 531 
Q 2569 213 2275 61 
Q 1981 -91 1556 -91 
Q 1019 -91 701 211 
Q 384 513 384 1019 
Q 384 1609 779 1909 
Q 1175 2209 1959 2209 
L 2766 2209 
L 2766 2266 
Q 2766 2663 2505 2880 
Q 2244 3097 1772 3097 
Q 1472 3097 1187 3025 
Q 903 2953 641 2809 
L 641 3341 
Q 956 3463 1253 3523 
Q 1550 3584 1831 3584 
Q 2591 3584 2966 3190 
Q 3341 2797 3341 1997 
z
" transform="scale(0.015625)"/>
       <path id="DejaVuSans-78" d="M 3513 3500 
L 2247 1797 
L 3578 0 
L 2900 0 
L 1881 1375 
L 863 0 
L 184 0 
L 1544 1831 
L 300 3500 
L 978 3500 
L 1906 2253 
L 2834 3500 
L 3513 3500 
z
" transform="scale(0.015625)"/>
       <path id="DejaVuSans-2d" d="M 313 2009 
L 1997 2009 
L 1997 1497 
L 313 1497 
L 313 2009 
z
" transform="scale(0.015625)"/>
       <path id="DejaVuSans-49" d="M 628 4666 
L 1259 4666 
L 1259 0 
L 628 0 
L 628 4666 
z
" transform="scale(0.015625)"/>
       <path id="DejaVuSans-42" d="M 1259 2228 
L 1259 519 
L 2272 519 
Q 2781 519 3026 730 
Q 3272 941 3272 1375 
Q 3272 1813 3026 2020 
Q 2781 2228 2272 2228 
L 1259 2228 
z
M 1259 4147 
L 1259 2741 
L 2194 2741 
Q 2656 2741 2882 2914 
Q 3109 3088 3109 3444 
Q 3109 3797 2882 3972 
Q 2656 4147 2194 4147 
L 1259 4147 
z
M 628 4666 
L 2241 4666 
Q 2963 4666 3353 4366 
Q 3744 4066 3744 3513 
Q 3744 3084 3544 2831 
Q 3344 2578 2956 2516 
Q 3422 2416 3680 2098 
Q 3938 1781 3938 1306 
Q 3938 681 3513 340 
Q 3088 0 2303 0 
L 628 0 
L 628 4666 
z
" transform="scale(0.015625)"/>
       <path id="DejaVuSans-62" d="M 3116 1747 
Q 3116 2381 2855 2742 
Q 2594 3103 2138 3103 
Q 1681 3103 1420 2742 
Q 1159 2381 1159 1747 
Q 1159 1113 1420 752 
Q 1681 391 2138 391 
Q 2594 391 2855 752 
Q 3116 1113 3116 1747 
z
M 1159 2969 
Q 1341 3281 1617 3432 
Q 1894 3584 2278 3584 
Q 2916 3584 3314 3078 
Q 3713 2572 3713 1747 
Q 3713 922 3314 415 
Q 2916 -91 2278 -91 
Q 1894 -91 1617 61 
Q 1341 213 1159 525 
L 1159 0 
L 581 0 
L 581 4863 
L 1159 4863 
L 1159 2969 
z
" transform="scale(0.015625)"/>
       <path id="DejaVuSans-75" d="M 544 1381 
L 544 3500 
L 1119 3500 
L 1119 1403 
Q 1119 906 1312 657 
Q 1506 409 1894 409 
Q 2359 409 2629 706 
Q 2900 1003 2900 1516 
L 2900 3500 
L 3475 3500 
L 3475 0 
L 2900 0 
L 2900 538 
Q 2691 219 2414 64 
Q 2138 -91 1772 -91 
Q 1169 -91 856 284 
Q 544 659 544 1381 
z
M 1991 3584 
L 1991 3584 
z
" transform="scale(0.015625)"/>
       <path id="DejaVuSans-6e" d="M 3513 2113 
L 3513 0 
L 2938 0 
L 2938 2094 
Q 2938 2591 2744 2837 
Q 2550 3084 2163 3084 
Q 1697 3084 1428 2787 
Q 1159 2491 1159 1978 
L 1159 0 
L 581 0 
L 581 3500 
L 1159 3500 
L 1159 2956 
Q 1366 3272 1645 3428 
Q 1925 3584 2291 3584 
Q 2894 3584 3203 3211 
Q 3513 2838 3513 2113 
z
" transform="scale(0.015625)"/>
       <path id="DejaVuSans-64" d="M 2906 2969 
L 2906 4863 
L 3481 4863 
L 3481 0 
L 2906 0 
L 2906 525 
Q 2725 213 2448 61 
Q 2172 -91 1784 -91 
Q 1150 -91 751 415 
Q 353 922 353 1747 
Q 353 2572 751 3078 
Q 1150 3584 1784 3584 
Q 2172 3584 2448 3432 
Q 2725 3281 2906 2969 
z
M 947 1747 
Q 947 1113 1208 752 
Q 1469 391 1925 391 
Q 2381 391 2643 752 
Q 2906 1113 2906 1747 
Q 2906 2381 2643 2742 
Q 2381 3103 1925 3103 
Q 1469 3103 1208 2742 
Q 947 2381 947 1747 
z
" transform="scale(0.015625)"/>
      </defs>
      <use xlink:href="#DejaVuSans-394" transform="translate(0 0.015625)"/>
      <use xlink:href="#DejaVuSans-Oblique-49" transform="translate(68.408203 0.015625)"/>
      <use xlink:href="#DejaVuSans-28" transform="translate(97.900391 0.015625)"/>
      <use xlink:href="#DejaVuSans-Oblique-58" transform="translate(136.914062 0.015625)"/>
      <use xlink:href="#DejaVuSans-3b" transform="translate(205.419922 0.015625)"/>
      <use xlink:href="#DejaVuSans-Oblique-52" transform="translate(258.59375 0.015625)"/>
      <use xlink:href="#DejaVuSans-29" transform="translate(328.076172 0.015625)"/>
      <use xlink:href="#DejaVuSans-20" transform="translate(367.089844 0.015625)"/>
      <use xlink:href="#DejaVuSans-28" transform="translate(398.876953 0.015625)"/>
      <use xlink:href="#DejaVuSans-73" transform="translate(437.890625 0.015625)"/>
      <use xlink:href="#DejaVuSans-6f" transform="translate(489.990234 0.015625)"/>
      <use xlink:href="#DejaVuSans-66" transform="translate(551.171875 0.015625)"/>
      <use xlink:href="#DejaVuSans-74" transform="translate(586.376953 0.015625)"/>
      <use xlink:href="#DejaVuSans-6d" transform="translate(625.585938 0.015625)"/>
      <use xlink:href="#DejaVuSans-61" transform="translate(722.998047 0.015625)"/>
      <use xlink:href="#DejaVuSans-78" transform="translate(784.277344 0.015625)"/>
      <use xlink:href="#DejaVuSans-2d" transform="translate(843.457031 0.015625)"/>
      <use xlink:href="#DejaVuSans-49" transform="translate(879.541016 0.015625)"/>
      <use xlink:href="#DejaVuSans-42" transform="translate(909.033203 0.015625)"/>
      <use xlink:href="#DejaVuSans-20" transform="translate(977.636719 0.015625)"/>
      <use xlink:href="#DejaVuSans-62" transform="translate(1009.423828 0.015625)"/>
      <use xlink:href="#DejaVuSans-6f" transform="translate(1072.900391 0.015625)"/>
      <use xlink:href="#DejaVuSans-75" transform="translate(1134.082031 0.015625)"/>
      <use xlink:href="#DejaVuSans-6e" transform="translate(1197.460938 0.015625)"/>
      <use xlink:href="#DejaVuSans-64" transform="translate(1260.839844 0.015625)"/>
      <use xlink:href="#DejaVuSans-29" transform="translate(1324.316406 0.015625)"/>
     </g>
    </g>
    <g id="text_8">
     <!-- 1e−15 -->
     <g transform="translate(34.648281 14.759062) scale(0.05 -0.05)">
      <defs>
       <path id="DejaVuSans-65" d="M 3597 1894 
L 3597 1613 
L 953 1613 
Q 991 1019 1311 708 
Q 1631 397 2203 397 
Q 2534 397 2845 478 
Q 3156 559 3463 722 
L 3463 178 
Q 3153 47 2828 -22 
Q 2503 -91 2169 -91 
Q 1331 -91 842 396 
Q 353 884 353 1716 
Q 353 2575 817 3079 
Q 1281 3584 2069 3584 
Q 2775 3584 3186 3129 
Q 3597 2675 3597 1894 
z
M 3022 2063 
Q 3016 2534 2758 2815 
Q 2500 3097 2075 3097 
Q 1594 3097 1305 2825 
Q 1016 2553 972 2059 
L 3022 2063 
z
" transform="scale(0.015625)"/>
       <path id="DejaVuSans-2212" d="M 678 2272 
L 4684 2272 
L 4684 1741 
L 678 1741 
L 678 2272 
z
" transform="scale(0.015625)"/>
      </defs>
      <use xlink:href="#DejaVuSans-31"/>
      <use xlink:href="#DejaVuSans-65" x="63.623047"/>
      <use xlink:href="#DejaVuSans-2212" x="125.146484"/>
      <use xlink:href="#DejaVuSans-31" x="208.935547"/>
      <use xlink:href="#DejaVuSans-35" x="272.558594"/>
     </g>
    </g>
   </g>
   <g id="line2d_13">
    <path d="M 37.863318 80.274496 
L 38.082592 53.835926 
L 38.273915 62.603173 
L 38.519161 39.089601 
L 38.817782 84.763967 
L 39.169113 38.645559 
L 39.572378 21.296941 
L 40.026693 88.811978 
L 40.531071 53.226659 
L 41.084429 30.838681 
L 42.333298 53.639721 
L 43.02621 85.77597 
L 43.762916 45.378475 
L 44.541941 86.602094 
L 45.36175 49.343873 
L 46.220758 70.575276 
L 47.117339 65.205466 
L 48.049828 79.662647 
L 49.016531 82.967146 
L 50.015732 80.158322 
L 51.045701 81.975796 
L 52.104697 77.019049 
L 53.190978 49.59171 
L 54.302804 66.444653 
L 55.438447 64.792404 
L 56.596189 59.009531 
L 57.774336 65.618528 
L 58.971216 69.914377 
L 60.185185 63.966279 
L 61.414633 70.244826 
L 62.657986 59.670431 
L 63.913708 72.557975 
L 65.180306 81.810571 
L 66.456331 83.132371 
L 67.740379 78.506073 
L 69.031097 67.931677 
L 70.327181 80.158322 
L 71.627376 70.905726 
L 72.93048 70.575276 
L 74.235344 74.540675 
L 75.540868 83.793271 
L 76.846009 69.253477 
L 78.149773 78.175623 
L 80.749459 76.853824 
L 82.043653 68.262127 
L 83.333011 75.532024 
L 84.616793 71.566626 
L 85.894306 78.175623 
L 87.164905 68.923027 
L 88.427987 84.78462 
L 89.682996 83.462821 
L 90.929417 80.158322 
L 92.166775 80.158322 
L 93.394634 76.853824 
L 94.612599 68.923027 
L 95.820308 69.583927 
L 97.017435 77.514723 
L 98.203687 82.141021 
L 99.378803 85.44552 
L 100.54255 84.12372 
L 101.694725 75.532024 
L 102.835154 79.497422 
L 103.963685 78.175623 
L 105.080192 87.428219 
L 106.184572 85.44552 
L 107.276742 85.44552 
L 108.35664 83.462821 
L 109.424223 79.497422 
L 110.479465 80.158322 
L 111.522356 86.767319 
L 112.552903 85.44552 
L 113.571125 86.767319 
L 114.577055 85.44552 
L 115.570739 90.071818 
L 116.552233 82.801921 
L 117.521602 80.819222 
L 118.478924 77.514723 
L 119.424282 89.410918 
L 120.357768 80.158322 
L 121.279483 80.158322 
L 122.18953 86.767319 
L 123.088022 81.480122 
L 123.975075 89.410918 
L 124.850809 80.158322 
L 125.715349 88.089119 
L 126.568824 84.12372 
L 127.411363 77.514723 
L 128.243101 81.480122 
L 129.064173 82.801921 
L 129.874716 85.44552 
L 130.674869 82.801921 
L 131.464771 90.732718 
L 132.244563 82.801921 
L 133.014385 77.514723 
L 133.774377 85.44552 
L 134.52468 84.12372 
L 135.265435 85.44552 
L 135.99678 82.801921 
L 136.718856 78.836523 
L 137.431799 85.44552 
L 138.135747 82.801921 
L 138.830835 86.767319 
L 139.517198 77.514723 
L 140.194968 78.836523 
L 140.864278 78.836523 
L 142.178031 81.480122 
L 142.822729 81.480122 
L 143.459475 82.801921 
L 144.088391 77.514723 
L 144.709598 81.480122 
L 145.323214 81.480122 
L 145.929356 84.12372 
L 146.52814 81.480122 
L 147.119677 81.480122 
L 147.704079 82.801921 
L 148.281454 81.480122 
L 148.851909 81.480122 
L 149.415548 78.836523 
L 149.972475 77.514723 
L 150.52279 82.801921 
L 151.066591 80.158322 
L 151.603976 81.480122 
L 152.135038 88.089119 
L 152.659872 84.12372 
L 153.178568 82.801921 
L 153.691215 82.801921 
L 154.197901 81.480122 
L 154.698711 84.12372 
L 155.193728 77.514723 
L 155.683035 82.801921 
L 156.166712 86.767319 
L 156.644838 84.12372 
L 157.117489 85.44552 
L 157.584741 80.158322 
L 158.046668 82.801921 
L 158.503342 80.158322 
L 158.954834 81.480122 
L 159.401212 84.12372 
L 159.842545 78.836523 
L 160.2789 88.089119 
L 160.71034 86.767319 
L 161.136931 77.514723 
L 161.558734 82.801921 
L 161.975811 80.158322 
L 162.388221 85.44552 
L 162.796024 88.089119 
L 163.199277 81.480122 
L 163.598036 81.480122 
L 163.992356 82.801921 
L 164.382293 82.801921 
L 164.767899 78.836523 
L 165.149226 81.480122 
L 165.526326 86.767319 
L 165.899249 82.801921 
L 166.268045 77.514723 
L 166.632761 85.44552 
L 166.993445 88.089119 
L 167.350144 77.514723 
L 167.702904 82.801921 
L 168.05177 80.158322 
L 168.737997 85.44552 
L 169.075443 81.480122 
L 169.409169 81.480122 
L 169.739214 80.158322 
L 170.06562 84.12372 
L 170.388427 85.44552 
L 170.707674 77.514723 
L 171.023401 84.12372 
L 171.335644 88.089119 
L 171.644443 78.836523 
L 171.949834 84.12372 
L 172.251853 86.767319 
L 172.84592 84.12372 
L 173.138038 85.44552 
L 173.712618 82.801921 
L 173.995146 89.410918 
L 174.274544 84.12372 
L 174.824081 81.480122 
L 175.094283 82.801921 
L 175.361484 86.767319 
L 175.625714 82.801921 
L 175.887003 88.089119 
L 176.145382 84.12372 
L 176.65353 86.767319 
L 176.903357 84.12372 
L 177.150392 80.158322 
L 177.394662 85.44552 
L 177.636197 84.12372 
L 177.875023 85.44552 
L 178.111169 85.44552 
L 178.344662 84.12372 
L 178.575529 76.192924 
L 178.803796 85.44552 
L 179.029489 85.44552 
L 179.252636 88.089119 
L 179.473262 88.089119 
L 179.691392 81.480122 
L 179.907052 85.44552 
L 180.120266 82.801921 
L 180.33106 82.801921 
L 180.745486 88.089119 
L 180.949165 84.12372 
L 181.150521 85.44552 
L 181.349577 85.44552 
L 181.546357 84.12372 
L 181.740883 85.44552 
L 181.933179 84.12372 
L 182.123267 81.480122 
L 182.311171 84.12372 
L 182.496911 84.12372 
L 182.861993 88.089119 
L 183.218687 84.12372 
L 183.393942 82.801921 
L 183.567164 88.089119 
L 183.738374 81.480122 
L 183.907593 89.410918 
L 184.074842 82.801921 
L 184.403508 89.410918 
L 184.564966 82.801921 
L 184.882231 86.767319 
L 185.038078 86.767319 
L 185.192092 85.44552 
L 185.494704 85.44552 
L 185.643338 81.480122 
L 185.935357 88.089119 
L 186.078779 82.801921 
L 186.498909 86.767319 
L 186.635634 84.12372 
L 186.770729 85.44552 
L 186.904212 82.801921 
L 187.036099 88.089119 
L 187.295156 80.158322 
L 187.548035 85.44552 
L 187.672199 88.089119 
L 187.794868 80.158322 
L 187.916057 85.44552 
L 188.035785 85.44552 
L 188.154065 86.767319 
L 188.386347 86.767319 
L 188.50038 89.410918 
L 188.613028 85.44552 
L 188.724306 85.44552 
L 188.83423 89.410918 
L 189.050074 85.44552 
L 189.156023 89.410918 
L 189.260676 85.44552 
L 189.364047 88.089119 
L 189.466152 86.767319 
L 189.567003 88.089119 
L 189.765003 86.767319 
L 189.862178 86.767319 
L 190.146571 84.12372 
L 190.330353 88.089119 
L 190.42054 82.801921 
L 190.597569 88.089119 
L 190.770222 85.44552 
L 190.854939 86.767319 
L 190.938599 81.480122 
L 191.102796 86.767319 
L 191.183358 82.801921 
L 191.341465 89.410918 
L 191.495628 86.767319 
L 191.571259 88.089119 
L 191.645937 85.44552 
L 191.719675 86.767319 
L 191.86437 89.410918 
L 191.93535 82.801921 
L 192.074626 89.410918 
L 192.210393 85.44552 
L 192.342735 88.089119 
L 192.407646 85.44552 
L 192.47173 88.089119 
L 192.597459 85.44552 
L 192.659122 89.410918 
L 192.780094 85.44552 
L 192.897988 85.44552 
L 193.012878 90.732718 
L 193.124836 82.801921 
L 193.179737 88.089119 
L 193.233931 88.089119 
L 193.392355 82.801921 
L 193.443805 89.410918 
L 193.49459 86.767319 
L 193.544717 84.12372 
L 193.594195 85.44552 
L 193.691236 89.410918 
L 193.832122 85.44552 
L 193.96758 88.089119 
L 194.01156 84.12372 
L 194.054967 86.767319 
L 194.181813 88.089119 
L 194.263634 84.12372 
L 194.303742 90.732718 
L 194.382387 85.44552 
L 194.420937 82.801921 
L 194.533569 88.089119 
L 194.570129 88.089119 
L 194.676942 85.44552 
L 194.74582 89.410918 
L 194.779578 88.089119 
L 194.812889 82.801921 
L 194.878193 88.089119 
L 195.003684 85.44552 
L 195.151388 88.089119 
L 195.262619 86.767319 
L 195.31603 89.410918 
L 195.368022 88.089119 
L 195.41863 90.732718 
L 195.492024 86.767319 
L 195.515835 86.767319 
L 195.630171 88.089119 
L 195.757516 85.44552 
L 195.874876 88.089119 
L 195.893519 88.089119 
L 195.911908 89.410918 
L 195.930049 86.767319 
L 196.000179 88.089119 
L 196.050311 90.732718 
L 196.114024 85.44552 
L 196.231402 90.732718 
L 196.245186 86.767319 
L 196.336518 89.410918 
L 196.348858 89.410918 
L 196.419416 90.732718 
L 196.473889 85.44552 
L 196.5048 89.410918 
L 196.562879 88.089119 
L 196.572096 82.801921 
L 196.616294 90.732718 
L 196.6732 88.089119 
L 196.680884 88.089119 
L 196.745389 84.12372 
L 196.710562 90.732718 
L 196.790209 86.767319 
L 196.796259 92.054517 
L 196.85228 84.12372 
L 196.905405 90.732718 
L 196.95464 85.44552 
L 196.922758 92.054517 
L 197.017259 88.089119 
L 197.022915 88.089119 
L 197.120959 84.12372 
L 197.112332 92.054517 
L 197.131355 88.089119 
L 197.213813 92.054517 
L 197.179885 84.12372 
L 197.214747 88.089119 
" clip-path="url(#pc089f2d6b0)" style="fill: none; stroke: #1f77b4; stroke-width: 0.7; stroke-linecap: square"/>
   </g>
   <g id="line2d_14">
    <path d="M 37.835863 88.089119 
L 197.214931 88.089119 
" clip-path="url(#pc089f2d6b0)" style="fill: none; stroke-dasharray: 2.59,1.12; stroke-dashoffset: 0; stroke: #000000; stroke-width: 0.7"/>
   </g>
   <g id="patch_3">
    <path d="M 34.648281 95.592396 
L 34.648281 17.759062 
" style="fill: none; stroke: #000000; stroke-width: 0.5; stroke-linejoin: miter; stroke-linecap: square"/>
   </g>
   <g id="patch_4">
    <path d="M 34.648281 95.592396 
L 200.402512 95.592396 
" style="fill: none; stroke: #000000; stroke-width: 0.5; stroke-linejoin: miter; stroke-linecap: square"/>
   </g>
   <g id="text_9">
    <!-- $I(X;R)$ difference -->
    <g transform="translate(92.415397 11.759062) scale(0.06 -0.06)">
     <defs>
      <path id="DejaVuSans-69" d="M 603 3500 
L 1178 3500 
L 1178 0 
L 603 0 
L 603 3500 
z
M 603 4863 
L 1178 4863 
L 1178 4134 
L 603 4134 
L 603 4863 
z
" transform="scale(0.015625)"/>
      <path id="DejaVuSans-72" d="M 2631 2963 
Q 2534 3019 2420 3045 
Q 2306 3072 2169 3072 
Q 1681 3072 1420 2755 
Q 1159 2438 1159 1844 
L 1159 0 
L 581 0 
L 581 3500 
L 1159 3500 
L 1159 2956 
Q 1341 3275 1631 3429 
Q 1922 3584 2338 3584 
Q 2397 3584 2469 3576 
Q 2541 3569 2628 3553 
L 2631 2963 
z
" transform="scale(0.015625)"/>
      <path id="DejaVuSans-63" d="M 3122 3366 
L 3122 2828 
Q 2878 2963 2633 3030 
Q 2388 3097 2138 3097 
Q 1578 3097 1268 2742 
Q 959 2388 959 1747 
Q 959 1106 1268 751 
Q 1578 397 2138 397 
Q 2388 397 2633 464 
Q 2878 531 3122 666 
L 3122 134 
Q 2881 22 2623 -34 
Q 2366 -91 2075 -91 
Q 1284 -91 818 406 
Q 353 903 353 1747 
Q 353 2603 823 3093 
Q 1294 3584 2113 3584 
Q 2378 3584 2631 3529 
Q 2884 3475 3122 3366 
z
" transform="scale(0.015625)"/>
     </defs>
     <use xlink:href="#DejaVuSans-Oblique-49" transform="translate(0 0.015625)"/>
     <use xlink:href="#DejaVuSans-28" transform="translate(29.492188 0.015625)"/>
     <use xlink:href="#DejaVuSans-Oblique-58" transform="translate(68.505859 0.015625)"/>
     <use xlink:href="#DejaVuSans-3b" transform="translate(137.011719 0.015625)"/>
     <use xlink:href="#DejaVuSans-Oblique-52" transform="translate(190.185547 0.015625)"/>
     <use xlink:href="#DejaVuSans-29" transform="translate(259.667969 0.015625)"/>
     <use xlink:href="#DejaVuSans-20" transform="translate(298.681641 0.015625)"/>
     <use xlink:href="#DejaVuSans-64" transform="translate(330.46875 0.015625)"/>
     <use xlink:href="#DejaVuSans-69" transform="translate(393.945312 0.015625)"/>
     <use xlink:href="#DejaVuSans-66" transform="translate(421.728516 0.015625)"/>
     <use xlink:href="#DejaVuSans-66" transform="translate(456.933594 0.015625)"/>
     <use xlink:href="#DejaVuSans-65" transform="translate(492.138672 0.015625)"/>
     <use xlink:href="#DejaVuSans-72" transform="translate(553.662109 0.015625)"/>
     <use xlink:href="#DejaVuSans-65" transform="translate(594.775391 0.015625)"/>
     <use xlink:href="#DejaVuSans-6e" transform="translate(656.298828 0.015625)"/>
     <use xlink:href="#DejaVuSans-63" transform="translate(719.677734 0.015625)"/>
     <use xlink:href="#DejaVuSans-65" transform="translate(774.658203 0.015625)"/>
    </g>
   </g>
  </g>
  <g id="axes_2">
   <g id="patch_5">
    <path d="M 34.648281 197.265729 
L 200.402512 197.265729 
L 200.402512 119.432396 
L 34.648281 119.432396 
z
" style="fill: #ffffff"/>
   </g>
   <g id="matplotlib.axis_3">
    <g id="xtick_7">
     <g id="line2d_15">
      <g>
       <use xlink:href="#m26f804eec0" x="37.835863" y="197.265729" style="stroke: #000000; stroke-width: 0.5"/>
      </g>
     </g>
    </g>
    <g id="xtick_8">
     <g id="line2d_16">
      <g>
       <use xlink:href="#m26f804eec0" x="69.711676" y="197.265729" style="stroke: #000000; stroke-width: 0.5"/>
      </g>
     </g>
    </g>
    <g id="xtick_9">
     <g id="line2d_17">
      <g>
       <use xlink:href="#m26f804eec0" x="101.58749" y="197.265729" style="stroke: #000000; stroke-width: 0.5"/>
      </g>
     </g>
    </g>
    <g id="xtick_10">
     <g id="line2d_18">
      <g>
       <use xlink:href="#m26f804eec0" x="133.463303" y="197.265729" style="stroke: #000000; stroke-width: 0.5"/>
      </g>
     </g>
    </g>
    <g id="xtick_11">
     <g id="line2d_19">
      <g>
       <use xlink:href="#m26f804eec0" x="165.339117" y="197.265729" style="stroke: #000000; stroke-width: 0.5"/>
      </g>
     </g>
    </g>
    <g id="xtick_12">
     <g id="line2d_20">
      <g>
       <use xlink:href="#m26f804eec0" x="197.214931" y="197.265729" style="stroke: #000000; stroke-width: 0.5"/>
      </g>
     </g>
    </g>
   </g>
   <g id="matplotlib.axis_4">
    <g id="ytick_7">
     <g id="line2d_21">
      <g>
       <use xlink:href="#m7daa04b7c0" x="34.648281" y="195.999931" style="stroke: #000000; stroke-width: 0.5"/>
      </g>
     </g>
     <g id="text_10">
      <!-- −0.5 -->
      <g transform="translate(17.006875 197.89954) scale(0.05 -0.05)">
       <defs>
        <path id="DejaVuSans-2e" d="M 684 794 
L 1344 794 
L 1344 0 
L 684 0 
L 684 794 
z
" transform="scale(0.015625)"/>
       </defs>
       <use xlink:href="#DejaVuSans-2212"/>
       <use xlink:href="#DejaVuSans-30" x="83.789062"/>
       <use xlink:href="#DejaVuSans-2e" x="147.412109"/>
       <use xlink:href="#DejaVuSans-35" x="179.199219"/>
      </g>
     </g>
    </g>
    <g id="ytick_8">
     <g id="line2d_22">
      <g>
       <use xlink:href="#m7daa04b7c0" x="34.648281" y="182.421713" style="stroke: #000000; stroke-width: 0.5"/>
      </g>
     </g>
     <g id="text_11">
      <!-- 0.0 -->
      <g transform="translate(21.196719 184.321322) scale(0.05 -0.05)">
       <use xlink:href="#DejaVuSans-30"/>
       <use xlink:href="#DejaVuSans-2e" x="63.623047"/>
       <use xlink:href="#DejaVuSans-30" x="95.410156"/>
      </g>
     </g>
    </g>
    <g id="ytick_9">
     <g id="line2d_23">
      <g>
       <use xlink:href="#m7daa04b7c0" x="34.648281" y="168.843496" style="stroke: #000000; stroke-width: 0.5"/>
      </g>
     </g>
     <g id="text_12">
      <!-- 0.5 -->
      <g transform="translate(21.196719 170.743105) scale(0.05 -0.05)">
       <use xlink:href="#DejaVuSans-30"/>
       <use xlink:href="#DejaVuSans-2e" x="63.623047"/>
       <use xlink:href="#DejaVuSans-35" x="95.410156"/>
      </g>
     </g>
    </g>
    <g id="ytick_10">
     <g id="line2d_24">
      <g>
       <use xlink:href="#m7daa04b7c0" x="34.648281" y="155.265278" style="stroke: #000000; stroke-width: 0.5"/>
      </g>
     </g>
     <g id="text_13">
      <!-- 1.0 -->
      <g transform="translate(21.196719 157.164887) scale(0.05 -0.05)">
       <use xlink:href="#DejaVuSans-31"/>
       <use xlink:href="#DejaVuSans-2e" x="63.623047"/>
       <use xlink:href="#DejaVuSans-30" x="95.410156"/>
      </g>
     </g>
    </g>
    <g id="ytick_11">
     <g id="line2d_25">
      <g>
       <use xlink:href="#m7daa04b7c0" x="34.648281" y="141.687061" style="stroke: #000000; stroke-width: 0.5"/>
      </g>
     </g>
     <g id="text_14">
      <!-- 1.5 -->
      <g transform="translate(21.196719 143.58667) scale(0.05 -0.05)">
       <use xlink:href="#DejaVuSans-31"/>
       <use xlink:href="#DejaVuSans-2e" x="63.623047"/>
       <use xlink:href="#DejaVuSans-35" x="95.410156"/>
      </g>
     </g>
    </g>
    <g id="ytick_12">
     <g id="line2d_26">
      <g>
       <use xlink:href="#m7daa04b7c0" x="34.648281" y="128.108843" style="stroke: #000000; stroke-width: 0.5"/>
      </g>
     </g>
     <g id="text_15">
      <!-- 2.0 -->
      <g transform="translate(21.196719 130.008453) scale(0.05 -0.05)">
       <use xlink:href="#DejaVuSans-32"/>
       <use xlink:href="#DejaVuSans-2e" x="63.623047"/>
       <use xlink:href="#DejaVuSans-30" x="95.410156"/>
      </g>
     </g>
    </g>
    <g id="text_16">
     <!-- $\Delta I(R;Y)$ (softmax-IB bound) -->
     <g transform="translate(11.759062 199.029062) rotate(-90) scale(0.06 -0.06)">
      <defs>
       <path id="DejaVuSans-Oblique-59" d="M 403 4666 
L 1081 4666 
L 1953 2747 
L 3616 4666 
L 4325 4666 
L 2209 2222 
L 1778 0 
L 1147 0 
L 1575 2222 
L 403 4666 
z
" transform="scale(0.015625)"/>
      </defs>
      <use xlink:href="#DejaVuSans-394" transform="translate(0 0.015625)"/>
      <use xlink:href="#DejaVuSans-Oblique-49" transform="translate(68.408203 0.015625)"/>
      <use xlink:href="#DejaVuSans-28" transform="translate(97.900391 0.015625)"/>
      <use xlink:href="#DejaVuSans-Oblique-52" transform="translate(136.914062 0.015625)"/>
      <use xlink:href="#DejaVuSans-3b" transform="translate(206.396484 0.015625)"/>
      <use xlink:href="#DejaVuSans-Oblique-59" transform="translate(259.570312 0.015625)"/>
      <use xlink:href="#DejaVuSans-29" transform="translate(320.654297 0.015625)"/>
      <use xlink:href="#DejaVuSans-20" transform="translate(359.667969 0.015625)"/>
      <use xlink:href="#DejaVuSans-28" transform="translate(391.455078 0.015625)"/>
      <use xlink:href="#DejaVuSans-73" transform="translate(430.46875 0.015625)"/>
      <use xlink:href="#DejaVuSans-6f" transform="translate(482.568359 0.015625)"/>
      <use xlink:href="#DejaVuSans-66" transform="translate(543.75 0.015625)"/>
      <use xlink:href="#DejaVuSans-74" transform="translate(578.955078 0.015625)"/>
      <use xlink:href="#DejaVuSans-6d" transform="translate(618.164062 0.015625)"/>
      <use xlink:href="#DejaVuSans-61" transform="translate(715.576172 0.015625)"/>
      <use xlink:href="#DejaVuSans-78" transform="translate(776.855469 0.015625)"/>
      <use xlink:href="#DejaVuSans-2d" transform="translate(836.035156 0.015625)"/>
      <use xlink:href="#DejaVuSans-49" transform="translate(872.119141 0.015625)"/>
      <use xlink:href="#DejaVuSans-42" transform="translate(901.611328 0.015625)"/>
      <use xlink:href="#DejaVuSans-20" transform="translate(970.214844 0.015625)"/>
      <use xlink:href="#DejaVuSans-62" transform="translate(1002.001953 0.015625)"/>
      <use xlink:href="#DejaVuSans-6f" transform="translate(1065.478516 0.015625)"/>
      <use xlink:href="#DejaVuSans-75" transform="translate(1126.660156 0.015625)"/>
      <use xlink:href="#DejaVuSans-6e" transform="translate(1190.039062 0.015625)"/>
      <use xlink:href="#DejaVuSans-64" transform="translate(1253.417969 0.015625)"/>
      <use xlink:href="#DejaVuSans-29" transform="translate(1316.894531 0.015625)"/>
     </g>
    </g>
    <g id="text_17">
     <!-- 1e−15 -->
     <g transform="translate(34.648281 116.432396) scale(0.05 -0.05)">
      <use xlink:href="#DejaVuSans-31"/>
      <use xlink:href="#DejaVuSans-65" x="63.623047"/>
      <use xlink:href="#DejaVuSans-2212" x="125.146484"/>
      <use xlink:href="#DejaVuSans-31" x="208.935547"/>
      <use xlink:href="#DejaVuSans-35" x="272.558594"/>
     </g>
    </g>
   </g>
   <g id="line2d_27">
    <path d="M 37.863318 174.601635 
L 37.945624 170.71515 
L 38.082592 149.681024 
L 38.273915 163.342606 
L 38.519161 138.516213 
L 38.817782 181.008446 
L 39.169113 140.494787 
L 39.572378 122.970275 
L 40.026693 185.719336 
L 40.531071 154.344806 
L 41.084429 132.863145 
L 41.685591 146.053638 
L 42.333298 153.591063 
L 43.02621 187.321039 
L 43.762916 149.445479 
L 44.541941 185.813554 
L 45.36175 147.749559 
L 46.220758 170.173398 
L 47.117339 164.520329 
L 48.049828 178.653001 
L 49.016531 180.914228 
L 50.015732 183.552327 
L 51.045701 179.029872 
L 52.104697 178.276129 
L 53.190978 149.633915 
L 54.302804 169.23122 
L 55.438447 161.316924 
L 56.596189 159.432567 
L 57.774336 166.593121 
L 58.971216 169.23122 
L 60.185185 163.578151 
L 61.414633 169.23122 
L 62.657986 157.548211 
L 63.913708 169.608091 
L 65.180306 177.145516 
L 66.456331 175.26116 
L 67.740379 179.406743 
L 69.031097 159.432567 
L 70.327181 178.653001 
L 71.627376 168.477477 
L 72.93048 167.346863 
L 74.235344 170.361833 
L 75.540868 180.914228 
L 76.846009 164.331893 
L 78.149773 174.507417 
L 79.45122 175.638031 
L 80.749459 174.884288 
L 82.043653 167.346863 
L 83.333011 171.115576 
L 84.616793 169.608091 
L 85.894306 177.145516 
L 87.164905 162.070666 
L 88.427987 183.552327 
L 89.682996 183.929198 
L 90.929417 176.014902 
L 92.166775 175.638031 
L 93.394634 177.522387 
L 94.612599 165.462507 
L 95.820308 168.100606 
L 97.017435 178.653001 
L 98.203687 178.653001 
L 99.378803 183.929198 
L 100.54255 183.929198 
L 101.694725 176.391773 
L 102.835154 173.376803 
L 103.963685 174.130546 
L 105.080192 180.914228 
L 106.184572 183.929198 
L 107.276742 191.466623 
L 108.35664 182.421713 
L 109.424223 177.899258 
L 110.479465 175.638031 
L 111.522356 186.190426 
L 112.552903 185.436683 
L 113.571125 180.914228 
L 114.577055 183.929198 
L 115.570739 189.959138 
L 117.521602 174.130546 
L 118.478924 173.376803 
L 119.424282 186.944168 
L 120.357768 178.653001 
L 121.279483 178.653001 
L 122.18953 182.421713 
L 123.088022 171.869318 
L 123.975075 180.914228 
L 124.850809 174.884288 
L 125.715349 181.667971 
L 126.568824 183.175456 
L 127.411363 174.130546 
L 128.243101 175.638031 
L 129.064173 177.899258 
L 129.874716 183.175456 
L 130.674869 179.406743 
L 131.464771 185.436683 
L 132.244563 174.130546 
L 133.014385 171.115576 
L 133.774377 179.406743 
L 134.52468 180.160486 
L 135.265435 183.175456 
L 135.99678 176.391773 
L 136.718856 183.175456 
L 137.431799 181.667971 
L 138.135747 180.914228 
L 138.830835 184.682941 
L 139.517198 177.145516 
L 140.194968 179.406743 
L 140.864278 174.884288 
L 141.525256 174.884288 
L 142.178031 176.391773 
L 142.822729 183.175456 
L 143.459475 180.914228 
L 144.088391 177.899258 
L 144.709598 176.391773 
L 145.323214 180.160486 
L 145.929356 185.436683 
L 146.52814 177.145516 
L 147.119677 180.160486 
L 147.704079 178.653001 
L 148.281454 188.451653 
L 148.851909 180.914228 
L 149.415548 178.653001 
L 149.972475 182.421713 
L 150.52279 181.667971 
L 151.066591 177.145516 
L 151.603976 178.653001 
L 152.135038 185.436683 
L 152.659872 183.175456 
L 153.178568 177.145516 
L 153.691215 180.160486 
L 154.698711 181.667971 
L 155.193728 173.376803 
L 155.683035 183.175456 
L 156.166712 181.667971 
L 156.644838 189.205395 
L 157.117489 182.421713 
L 157.584741 173.376803 
L 158.046668 178.653001 
L 158.503342 182.421713 
L 158.954834 181.667971 
L 159.401212 182.421713 
L 159.842545 181.667971 
L 160.71034 189.959138 
L 161.136931 174.130546 
L 161.558734 185.436683 
L 161.975811 177.145516 
L 162.388221 186.944168 
L 162.796024 191.466623 
L 163.199277 179.406743 
L 163.598036 183.929198 
L 163.992356 180.160486 
L 164.382293 183.175456 
L 164.767899 179.406743 
L 165.149226 177.899258 
L 165.526326 183.175456 
L 165.899249 179.406743 
L 166.268045 174.130546 
L 166.632761 182.421713 
L 166.993445 183.929198 
L 167.350144 176.391773 
L 167.702904 183.175456 
L 168.396787 174.884288 
L 168.737997 183.175456 
L 169.075443 185.436683 
L 169.409169 177.899258 
L 169.739214 180.160486 
L 170.06562 180.160486 
L 170.388427 177.145516 
L 171.023401 181.667971 
L 171.335644 190.71288 
L 171.644443 176.391773 
L 172.251853 181.667971 
L 172.550536 178.653001 
L 172.84592 183.175456 
L 173.138038 181.667971 
L 173.712618 183.175456 
L 173.995146 185.436683 
L 174.274544 186.190426 
L 174.550845 178.653001 
L 174.824081 179.406743 
L 175.094283 179.406743 
L 175.361484 185.436683 
L 175.625714 185.436683 
L 176.145382 180.914228 
L 176.400882 187.697911 
L 176.65353 180.914228 
L 176.903357 182.421713 
L 177.150392 177.145516 
L 177.394662 177.145516 
L 177.636197 180.914228 
L 177.875023 180.160486 
L 178.111169 182.421713 
L 178.344662 183.175456 
L 178.575529 173.376803 
L 179.029489 182.421713 
L 179.252636 187.697911 
L 179.473262 185.436683 
L 179.691392 180.160486 
L 179.907052 183.175456 
L 180.120266 179.406743 
L 180.33106 181.667971 
L 180.539459 185.436683 
L 180.745486 182.421713 
L 180.949165 183.929198 
L 181.150521 181.667971 
L 181.349577 182.421713 
L 181.546357 184.682941 
L 181.740883 180.160486 
L 181.933179 182.421713 
L 182.123267 174.884288 
L 182.311171 186.190426 
L 182.496911 179.406743 
L 182.680512 186.190426 
L 183.041378 184.682941 
L 183.218687 177.899258 
L 183.393942 185.436683 
L 183.567164 186.190426 
L 183.738374 177.145516 
L 183.907593 185.436683 
L 184.074842 179.406743 
L 184.403508 186.190426 
L 184.564966 182.421713 
L 184.724534 183.929198 
L 185.038078 180.914228 
L 185.192092 183.175456 
L 185.344295 178.653001 
L 185.494704 183.175456 
L 185.643338 182.421713 
L 185.790216 182.421713 
L 185.935357 184.682941 
L 186.220499 180.160486 
L 186.360537 181.667971 
L 186.635634 177.899258 
L 186.770729 179.406743 
L 186.904212 177.899258 
L 187.036099 184.682941 
L 187.295156 172.623061 
L 187.422359 174.130546 
L 187.672199 185.436683 
L 187.794868 176.391773 
L 188.035785 181.667971 
L 188.154065 182.421713 
L 188.270913 184.682941 
L 188.386347 181.667971 
L 188.50038 187.697911 
L 188.613028 185.436683 
L 188.724306 177.899258 
L 188.83423 184.682941 
L 189.050074 180.160486 
L 189.156023 189.959138 
L 189.260676 179.406743 
L 189.364047 182.421713 
L 189.466152 192.974108 
L 189.666616 181.667971 
L 189.765003 181.667971 
L 189.862178 182.421713 
L 189.958156 177.899258 
L 190.052949 182.421713 
L 190.146571 181.667971 
L 190.330353 184.682941 
L 190.42054 177.145516 
L 190.509608 177.899258 
L 190.597569 177.899258 
L 190.770222 182.421713 
L 190.854939 182.421713 
L 190.938599 171.869318 
L 191.021214 183.175456 
L 191.102796 180.914228 
L 191.183358 179.406743 
L 191.26291 180.160486 
L 191.341465 188.451653 
L 191.495628 179.406743 
L 191.571259 182.421713 
L 191.645937 180.160486 
L 191.792482 186.190426 
L 191.93535 174.130546 
L 192.074626 190.71288 
L 192.210393 179.406743 
L 192.276987 180.914228 
L 192.342735 186.190426 
L 192.47173 182.421713 
L 192.534998 182.421713 
L 192.597459 176.391773 
L 192.659122 179.406743 
L 192.719997 185.436683 
L 192.780094 177.145516 
L 192.839421 183.175456 
L 192.897988 180.914228 
L 192.955804 188.451653 
L 193.012878 186.944168 
L 193.124836 179.406743 
L 193.179737 181.667971 
L 193.287426 183.929198 
L 193.392355 176.391773 
L 193.443805 187.697911 
L 193.49459 183.175456 
L 193.643032 182.421713 
L 193.691236 185.436683 
L 193.832122 176.391773 
L 193.96758 186.944168 
L 194.054967 181.667971 
L 194.097806 182.421713 
L 194.140086 182.421713 
L 194.181813 183.929198 
L 194.222993 183.175456 
L 194.263634 178.653001 
L 194.303742 188.451653 
L 194.343325 186.190426 
L 194.382387 179.406743 
L 194.420937 182.421713 
L 194.458979 185.436683 
L 194.533569 183.929198 
L 194.71161 179.406743 
L 194.74582 186.190426 
L 194.779578 182.421713 
L 194.812889 171.869318 
L 194.878193 182.421713 
L 194.941777 181.667971 
L 195.003684 185.436683 
L 195.034021 180.160486 
L 195.122633 182.421713 
L 195.179758 182.421713 
L 195.20775 188.451653 
L 195.289504 182.421713 
L 195.41863 185.436683 
L 195.443426 185.436683 
L 195.515835 182.421713 
L 195.539326 189.959138 
L 195.562501 177.899258 
L 195.607919 182.421713 
L 195.652122 182.421713 
L 195.695141 183.175456 
L 195.757516 179.406743 
L 195.836818 185.436683 
L 195.874876 181.667971 
L 195.947943 187.697911 
L 195.983005 182.421713 
L 196.000179 181.667971 
L 196.050311 183.929198 
L 196.066569 183.175456 
L 196.082605 183.929198 
L 196.114024 178.653001 
L 196.159563 186.944168 
L 196.188894 182.421713 
L 196.203259 183.175456 
L 196.217428 190.71288 
L 196.272188 182.421713 
L 196.311318 182.421713 
L 196.324005 177.899258 
L 196.336518 188.451653 
L 196.40806 182.421713 
L 196.419416 193.72785 
L 196.484336 176.391773 
L 196.51482 183.175456 
L 196.572096 176.391773 
L 196.544057 187.697911 
L 196.581184 182.421713 
L 196.590146 189.959138 
L 196.641367 174.130546 
L 196.68846 183.175456 
L 196.717724 175.638031 
L 196.710562 188.451653 
L 196.790209 182.421713 
L 196.802224 188.451653 
L 196.85228 175.638031 
L 196.905405 184.682941 
L 196.914205 177.899258 
L 196.922758 188.451653 
L 197.017259 182.421713 
L 197.025683 182.421713 
L 197.077524 174.884288 
L 197.085311 187.697911 
L 197.134953 182.421713 
L 197.214481 192.974108 
L 197.192128 174.884288 
L 197.214747 182.421713 
" clip-path="url(#pedcb2723c6)" style="fill: none; stroke: #1f77b4; stroke-width: 0.7; stroke-linecap: square"/>
   </g>
   <g id="line2d_28">
    <path d="M 37.835863 182.421713 
L 197.214931 182.421713 
" clip-path="url(#pedcb2723c6)" style="fill: none; stroke-dasharray: 2.59,1.12; stroke-dashoffset: 0; stroke: #000000; stroke-width: 0.7"/>
   </g>
   <g id="patch_6">
    <path d="M 34.648281 197.265729 
L 34.648281 119.432396 
" style="fill: none; stroke: #000000; stroke-width: 0.5; stroke-linejoin: miter; stroke-linecap: square"/>
   </g>
   <g id="patch_7">
    <path d="M 34.648281 197.265729 
L 200.402512 197.265729 
" style="fill: none; stroke: #000000; stroke-width: 0.5; stroke-linejoin: miter; stroke-linecap: square"/>
   </g>
   <g id="text_18">
    <!-- $I(R;Y)$ difference -->
    <g transform="translate(92.655397 113.432396) scale(0.06 -0.06)">
     <use xlink:href="#DejaVuSans-Oblique-49" transform="translate(0 0.015625)"/>
     <use xlink:href="#DejaVuSans-28" transform="translate(29.492188 0.015625)"/>
     <use xlink:href="#DejaVuSans-Oblique-52" transform="translate(68.505859 0.015625)"/>
     <use xlink:href="#DejaVuSans-3b" transform="translate(137.988281 0.015625)"/>
     <use xlink:href="#DejaVuSans-Oblique-59" transform="translate(191.162109 0.015625)"/>
     <use xlink:href="#DejaVuSans-29" transform="translate(252.246094 0.015625)"/>
     <use xlink:href="#DejaVuSans-20" transform="translate(291.259766 0.015625)"/>
     <use xlink:href="#DejaVuSans-64" transform="translate(323.046875 0.015625)"/>
     <use xlink:href="#DejaVuSans-69" transform="translate(386.523438 0.015625)"/>
     <use xlink:href="#DejaVuSans-66" transform="translate(414.306641 0.015625)"/>
     <use xlink:href="#DejaVuSans-66" transform="translate(449.511719 0.015625)"/>
     <use xlink:href="#DejaVuSans-65" transform="translate(484.716797 0.015625)"/>
     <use xlink:href="#DejaVuSans-72" transform="translate(546.240234 0.015625)"/>
     <use xlink:href="#DejaVuSans-65" transform="translate(587.353516 0.015625)"/>
     <use xlink:href="#DejaVuSans-6e" transform="translate(648.876953 0.015625)"/>
     <use xlink:href="#DejaVuSans-63" transform="translate(712.255859 0.015625)"/>
     <use xlink:href="#DejaVuSans-65" transform="translate(767.236328 0.015625)"/>
    </g>
   </g>
  </g>
  <g id="axes_3">
   <g id="patch_8">
    <path d="M 34.648281 298.939062 
L 200.402512 298.939062 
L 200.402512 221.105729 
L 34.648281 221.105729 
z
" style="fill: #ffffff"/>
   </g>
   <g id="matplotlib.axis_5">
    <g id="xtick_13">
     <g id="line2d_29">
      <g>
       <use xlink:href="#m26f804eec0" x="37.835863" y="298.939062" style="stroke: #000000; stroke-width: 0.5"/>
      </g>
     </g>
     <g id="text_19">
      <!-- 0.0 -->
      <g transform="translate(33.860081 308.238281) scale(0.05 -0.05)">
       <use xlink:href="#DejaVuSans-30"/>
       <use xlink:href="#DejaVuSans-2e" x="63.623047"/>
       <use xlink:href="#DejaVuSans-30" x="95.410156"/>
      </g>
     </g>
    </g>
    <g id="xtick_14">
     <g id="line2d_30">
      <g>
       <use xlink:href="#m26f804eec0" x="69.711676" y="298.939062" style="stroke: #000000; stroke-width: 0.5"/>
      </g>
     </g>
     <g id="text_20">
      <!-- 0.2 -->
      <g transform="translate(65.735895 308.238281) scale(0.05 -0.05)">
       <use xlink:href="#DejaVuSans-30"/>
       <use xlink:href="#DejaVuSans-2e" x="63.623047"/>
       <use xlink:href="#DejaVuSans-32" x="95.410156"/>
      </g>
     </g>
    </g>
    <g id="xtick_15">
     <g id="line2d_31">
      <g>
       <use xlink:href="#m26f804eec0" x="101.58749" y="298.939062" style="stroke: #000000; stroke-width: 0.5"/>
      </g>
     </g>
     <g id="text_21">
      <!-- 0.4 -->
      <g transform="translate(97.611709 308.238281) scale(0.05 -0.05)">
       <use xlink:href="#DejaVuSans-30"/>
       <use xlink:href="#DejaVuSans-2e" x="63.623047"/>
       <use xlink:href="#DejaVuSans-34" x="95.410156"/>
      </g>
     </g>
    </g>
    <g id="xtick_16">
     <g id="line2d_32">
      <g>
       <use xlink:href="#m26f804eec0" x="133.463303" y="298.939062" style="stroke: #000000; stroke-width: 0.5"/>
      </g>
     </g>
     <g id="text_22">
      <!-- 0.6 -->
      <g transform="translate(129.487522 308.238281) scale(0.05 -0.05)">
       <defs>
        <path id="DejaVuSans-36" d="M 2113 2584 
Q 1688 2584 1439 2293 
Q 1191 2003 1191 1497 
Q 1191 994 1439 701 
Q 1688 409 2113 409 
Q 2538 409 2786 701 
Q 3034 994 3034 1497 
Q 3034 2003 2786 2293 
Q 2538 2584 2113 2584 
z
M 3366 4563 
L 3366 3988 
Q 3128 4100 2886 4159 
Q 2644 4219 2406 4219 
Q 1781 4219 1451 3797 
Q 1122 3375 1075 2522 
Q 1259 2794 1537 2939 
Q 1816 3084 2150 3084 
Q 2853 3084 3261 2657 
Q 3669 2231 3669 1497 
Q 3669 778 3244 343 
Q 2819 -91 2113 -91 
Q 1303 -91 875 529 
Q 447 1150 447 2328 
Q 447 3434 972 4092 
Q 1497 4750 2381 4750 
Q 2619 4750 2861 4703 
Q 3103 4656 3366 4563 
z
" transform="scale(0.015625)"/>
       </defs>
       <use xlink:href="#DejaVuSans-30"/>
       <use xlink:href="#DejaVuSans-2e" x="63.623047"/>
       <use xlink:href="#DejaVuSans-36" x="95.410156"/>
      </g>
     </g>
    </g>
    <g id="xtick_17">
     <g id="line2d_33">
      <g>
       <use xlink:href="#m26f804eec0" x="165.339117" y="298.939062" style="stroke: #000000; stroke-width: 0.5"/>
      </g>
     </g>
     <g id="text_23">
      <!-- 0.8 -->
      <g transform="translate(161.363336 308.238281) scale(0.05 -0.05)">
       <defs>
        <path id="DejaVuSans-38" d="M 2034 2216 
Q 1584 2216 1326 1975 
Q 1069 1734 1069 1313 
Q 1069 891 1326 650 
Q 1584 409 2034 409 
Q 2484 409 2743 651 
Q 3003 894 3003 1313 
Q 3003 1734 2745 1975 
Q 2488 2216 2034 2216 
z
M 1403 2484 
Q 997 2584 770 2862 
Q 544 3141 544 3541 
Q 544 4100 942 4425 
Q 1341 4750 2034 4750 
Q 2731 4750 3128 4425 
Q 3525 4100 3525 3541 
Q 3525 3141 3298 2862 
Q 3072 2584 2669 2484 
Q 3125 2378 3379 2068 
Q 3634 1759 3634 1313 
Q 3634 634 3220 271 
Q 2806 -91 2034 -91 
Q 1263 -91 848 271 
Q 434 634 434 1313 
Q 434 1759 690 2068 
Q 947 2378 1403 2484 
z
M 1172 3481 
Q 1172 3119 1398 2916 
Q 1625 2713 2034 2713 
Q 2441 2713 2670 2916 
Q 2900 3119 2900 3481 
Q 2900 3844 2670 4047 
Q 2441 4250 2034 4250 
Q 1625 4250 1398 4047 
Q 1172 3844 1172 3481 
z
" transform="scale(0.015625)"/>
       </defs>
       <use xlink:href="#DejaVuSans-30"/>
       <use xlink:href="#DejaVuSans-2e" x="63.623047"/>
       <use xlink:href="#DejaVuSans-38" x="95.410156"/>
      </g>
     </g>
    </g>
    <g id="xtick_18">
     <g id="line2d_34">
      <g>
       <use xlink:href="#m26f804eec0" x="197.214931" y="298.939062" style="stroke: #000000; stroke-width: 0.5"/>
      </g>
     </g>
     <g id="text_24">
      <!-- 1.0 -->
      <g transform="translate(193.239149 308.238281) scale(0.05 -0.05)">
       <use xlink:href="#DejaVuSans-31"/>
       <use xlink:href="#DejaVuSans-2e" x="63.623047"/>
       <use xlink:href="#DejaVuSans-30" x="95.410156"/>
      </g>
     </g>
    </g>
   </g>
   <g id="matplotlib.axis_6">
    <g id="ytick_13">
     <g id="line2d_35">
      <g>
       <use xlink:href="#m7daa04b7c0" x="34.648281" y="295.401184" style="stroke: #000000; stroke-width: 0.5"/>
      </g>
     </g>
     <g id="text_25">
      <!-- 0 -->
      <g transform="translate(25.967031 297.300793) scale(0.05 -0.05)">
       <use xlink:href="#DejaVuSans-30"/>
      </g>
     </g>
    </g>
    <g id="ytick_14">
     <g id="line2d_36">
      <g>
       <use xlink:href="#m7daa04b7c0" x="34.648281" y="273.978408" style="stroke: #000000; stroke-width: 0.5"/>
      </g>
     </g>
     <g id="text_26">
      <!-- 1 -->
      <g transform="translate(25.967031 275.878017) scale(0.05 -0.05)">
       <use xlink:href="#DejaVuSans-31"/>
      </g>
     </g>
    </g>
    <g id="ytick_15">
     <g id="line2d_37">
      <g>
       <use xlink:href="#m7daa04b7c0" x="34.648281" y="252.555632" style="stroke: #000000; stroke-width: 0.5"/>
      </g>
     </g>
     <g id="text_27">
      <!-- 2 -->
      <g transform="translate(25.967031 254.455241) scale(0.05 -0.05)">
       <use xlink:href="#DejaVuSans-32"/>
      </g>
     </g>
    </g>
    <g id="ytick_16">
     <g id="line2d_38">
      <g>
       <use xlink:href="#m7daa04b7c0" x="34.648281" y="231.132856" style="stroke: #000000; stroke-width: 0.5"/>
      </g>
     </g>
     <g id="text_28">
      <!-- 3 -->
      <g transform="translate(25.967031 233.032465) scale(0.05 -0.05)">
       <use xlink:href="#DejaVuSans-33"/>
      </g>
     </g>
    </g>
    <g id="text_29">
     <!-- max $\Delta p(r|x)$ (softmax-IB bound) -->
     <g transform="translate(20.527031 307.722396) rotate(-90) scale(0.06 -0.06)">
      <defs>
       <path id="DejaVuSans-Oblique-70" d="M 3175 2156 
Q 3175 2616 2975 2859 
Q 2775 3103 2400 3103 
Q 2144 3103 1911 2972 
Q 1678 2841 1497 2591 
Q 1319 2344 1212 1994 
Q 1106 1644 1106 1300 
Q 1106 863 1306 627 
Q 1506 391 1875 391 
Q 2147 391 2380 519 
Q 2613 647 2778 891 
Q 2956 1147 3065 1494 
Q 3175 1841 3175 2156 
z
M 1394 2969 
Q 1625 3272 1939 3428 
Q 2253 3584 2638 3584 
Q 3175 3584 3472 3232 
Q 3769 2881 3769 2247 
Q 3769 1728 3584 1258 
Q 3400 788 3053 416 
Q 2822 169 2531 39 
Q 2241 -91 1919 -91 
Q 1547 -91 1294 64 
Q 1041 219 916 525 
L 556 -1331 
L -19 -1331 
L 922 3500 
L 1497 3500 
L 1394 2969 
z
" transform="scale(0.015625)"/>
       <path id="DejaVuSans-Oblique-72" d="M 2853 2969 
Q 2766 3016 2653 3041 
Q 2541 3066 2413 3066 
Q 1953 3066 1609 2717 
Q 1266 2369 1153 1784 
L 800 0 
L 225 0 
L 909 3500 
L 1484 3500 
L 1375 2956 
Q 1603 3259 1920 3421 
Q 2238 3584 2597 3584 
Q 2691 3584 2781 3573 
Q 2872 3563 2963 3538 
L 2853 2969 
z
" transform="scale(0.015625)"/>
       <path id="DejaVuSans-7c" d="M 1344 4891 
L 1344 -1509 
L 813 -1509 
L 813 4891 
L 1344 4891 
z
" transform="scale(0.015625)"/>
       <path id="DejaVuSans-Oblique-78" d="M 3841 3500 
L 2234 1784 
L 3219 0 
L 2559 0 
L 1819 1388 
L 531 0 
L -166 0 
L 1556 1844 
L 641 3500 
L 1300 3500 
L 1972 2234 
L 3144 3500 
L 3841 3500 
z
" transform="scale(0.015625)"/>
      </defs>
      <use xlink:href="#DejaVuSans-6d" transform="translate(0 0.578125)"/>
      <use xlink:href="#DejaVuSans-61" transform="translate(97.412109 0.578125)"/>
      <use xlink:href="#DejaVuSans-78" transform="translate(158.691406 0.578125)"/>
      <use xlink:href="#DejaVuSans-20" transform="translate(217.871094 0.578125)"/>
      <use xlink:href="#DejaVuSans-394" transform="translate(249.658203 0.578125)"/>
      <use xlink:href="#DejaVuSans-Oblique-70" transform="translate(318.066406 0.578125)"/>
      <use xlink:href="#DejaVuSans-28" transform="translate(381.542969 0.578125)"/>
      <use xlink:href="#DejaVuSans-Oblique-72" transform="translate(420.556641 0.578125)"/>
      <use xlink:href="#DejaVuSans-7c" transform="translate(461.669922 0.578125)"/>
      <use xlink:href="#DejaVuSans-Oblique-78" transform="translate(495.361328 0.578125)"/>
      <use xlink:href="#DejaVuSans-29" transform="translate(554.541016 0.578125)"/>
      <use xlink:href="#DejaVuSans-20" transform="translate(593.554688 0.578125)"/>
      <use xlink:href="#DejaVuSans-28" transform="translate(625.341797 0.578125)"/>
      <use xlink:href="#DejaVuSans-73" transform="translate(664.355469 0.578125)"/>
      <use xlink:href="#DejaVuSans-6f" transform="translate(716.455078 0.578125)"/>
      <use xlink:href="#DejaVuSans-66" transform="translate(777.636719 0.578125)"/>
      <use xlink:href="#DejaVuSans-74" transform="translate(812.841797 0.578125)"/>
      <use xlink:href="#DejaVuSans-6d" transform="translate(852.050781 0.578125)"/>
      <use xlink:href="#DejaVuSans-61" transform="translate(949.462891 0.578125)"/>
      <use xlink:href="#DejaVuSans-78" transform="translate(1010.742188 0.578125)"/>
      <use xlink:href="#DejaVuSans-2d" transform="translate(1069.921875 0.578125)"/>
      <use xlink:href="#DejaVuSans-49" transform="translate(1106.005859 0.578125)"/>
      <use xlink:href="#DejaVuSans-42" transform="translate(1135.498047 0.578125)"/>
      <use xlink:href="#DejaVuSans-20" transform="translate(1204.101562 0.578125)"/>
      <use xlink:href="#DejaVuSans-62" transform="translate(1235.888672 0.578125)"/>
      <use xlink:href="#DejaVuSans-6f" transform="translate(1299.365234 0.578125)"/>
      <use xlink:href="#DejaVuSans-75" transform="translate(1360.546875 0.578125)"/>
      <use xlink:href="#DejaVuSans-6e" transform="translate(1423.925781 0.578125)"/>
      <use xlink:href="#DejaVuSans-64" transform="translate(1487.304688 0.578125)"/>
      <use xlink:href="#DejaVuSans-29" transform="translate(1550.78125 0.578125)"/>
     </g>
    </g>
    <g id="text_30">
     <!-- 1e−14 -->
     <g transform="translate(34.648281 218.105729) scale(0.05 -0.05)">
      <use xlink:href="#DejaVuSans-31"/>
      <use xlink:href="#DejaVuSans-65" x="63.623047"/>
      <use xlink:href="#DejaVuSans-2212" x="125.146484"/>
      <use xlink:href="#DejaVuSans-31" x="208.935547"/>
      <use xlink:href="#DejaVuSans-34" x="272.558594"/>
     </g>
    </g>
   </g>
   <g id="line2d_39">
    <path d="M 37.863318 255.206124 
L 38.082592 224.643608 
L 38.273915 250.211471 
L 38.519161 233.919391 
L 38.817782 292.547097 
L 39.169113 250.568232 
L 39.572378 242.362732 
L 40.026693 293.379539 
L 40.531071 268.763038 
L 41.084429 263.530545 
L 41.685591 269.119798 
L 42.333298 278.514502 
L 43.02621 293.97414 
L 43.762916 278.276661 
L 44.541941 294.687662 
L 45.36175 282.082111 
L 46.220758 283.033473 
L 47.117339 283.509154 
L 48.049828 291.714655 
L 49.016531 294.211981 
L 50.015732 292.547097 
L 51.045701 291.952495 
L 52.104697 292.071415 
L 53.190978 284.876738 
L 54.302804 290.406531 
L 55.438447 288.741647 
L 56.596189 288.741647 
L 57.774336 290.882212 
L 58.971216 289.217328 
L 60.185185 291.120053 
L 61.414633 292.784937 
L 62.657986 290.584912 
L 63.913708 292.784937 
L 65.180306 293.498459 
L 66.456331 292.903858 
L 67.740379 293.7363 
L 69.031097 292.725477 
L 70.327181 293.7363 
L 71.627376 292.547097 
L 72.93048 293.022778 
L 74.235344 293.70657 
L 75.540868 294.687662 
L 76.846009 293.201158 
L 78.149773 293.7363 
L 79.45122 293.7363 
L 80.749459 294.152521 
L 82.043653 292.547097 
L 83.333011 293.379539 
L 84.616793 293.676839 
L 85.894306 293.85522 
L 87.164905 293.260618 
L 88.427987 292.309256 
L 89.682996 294.925503 
L 90.929417 293.498459 
L 92.166775 293.260618 
L 93.394634 294.211981 
L 94.612599 292.071415 
L 95.820308 292.547097 
L 97.017435 294.687662 
L 98.203687 293.97414 
L 99.378803 293.7363 
L 100.54255 294.687662 
L 101.694725 293.97414 
L 103.963685 293.141698 
L 105.080192 293.260618 
L 106.184572 294.806582 
L 110.479465 294.09306 
L 111.522356 294.449821 
L 112.552903 294.211981 
L 113.571125 294.687662 
L 114.577055 294.687662 
L 115.570739 295.163343 
L 116.552233 293.97414 
L 117.521602 294.687662 
L 118.478924 294.09306 
L 119.424282 294.449821 
L 120.357768 294.211981 
L 121.279483 294.449821 
L 122.18953 295.163343 
L 123.088022 294.449821 
L 123.975075 294.449821 
L 124.850809 294.687662 
L 125.715349 293.7363 
L 126.568824 294.509281 
L 127.411363 292.784937 
L 128.243101 294.390361 
L 129.064173 294.568742 
L 129.874716 293.91468 
L 130.674869 294.866042 
L 131.464771 294.687662 
L 132.244563 294.925503 
L 133.014385 293.97414 
L 133.774377 295.103883 
L 134.52468 294.271441 
L 135.265435 294.866042 
L 135.99678 294.925503 
L 136.718856 293.97414 
L 137.431799 295.163343 
L 138.135747 294.211981 
L 138.830835 295.044423 
L 139.517198 294.390361 
L 140.194968 293.97414 
L 140.864278 294.747122 
L 141.525256 293.7363 
L 142.178031 294.687662 
L 142.822729 294.449821 
L 144.709598 294.449821 
L 145.323214 294.687662 
L 145.929356 294.568742 
L 146.52814 294.628202 
L 147.119677 294.211981 
L 147.704079 294.152521 
L 148.281454 294.211981 
L 148.851909 294.449821 
L 149.415548 293.97414 
L 149.972475 293.97414 
L 150.52279 294.687662 
L 151.066591 294.687662 
L 151.603976 294.806582 
L 152.135038 295.163343 
L 152.659872 294.925503 
L 153.178568 293.97414 
L 153.691215 294.657932 
L 154.197901 294.211981 
L 154.698711 295.103883 
L 155.193728 294.449821 
L 155.683035 294.806582 
L 156.166712 294.895772 
L 156.644838 294.211981 
L 157.117489 294.925503 
L 157.584741 294.657932 
L 158.046668 294.925503 
L 158.503342 294.657932 
L 158.954834 294.628202 
L 159.401212 294.984963 
L 159.842545 293.97414 
L 160.2789 294.925503 
L 160.71034 294.925503 
L 161.136931 294.360631 
L 161.558734 294.895772 
L 161.975811 294.687662 
L 162.388221 294.925503 
L 162.796024 294.925503 
L 163.199277 294.687662 
L 163.598036 294.925503 
L 163.992356 294.687662 
L 164.382293 294.687662 
L 164.767899 294.211981 
L 165.149226 294.687662 
L 165.526326 294.687662 
L 165.899249 294.895772 
L 166.268045 294.657932 
L 166.993445 294.925503 
L 167.350144 294.687662 
L 167.702904 294.687662 
L 168.05177 294.984963 
L 168.396787 294.925503 
L 168.737997 295.014693 
L 169.075443 294.449821 
L 170.06562 295.118748 
L 170.388427 295.014693 
L 171.023401 294.449821 
L 171.335644 294.910637 
L 171.644443 294.687662 
L 171.949834 294.821447 
L 172.251853 294.806582 
L 172.550536 295.163343 
L 172.84592 295.118748 
L 173.138038 294.687662 
L 173.426926 295.089018 
L 173.712618 294.925503 
L 173.995146 295.148478 
L 174.274544 294.866042 
L 174.550845 294.925503 
L 174.824081 294.687662 
L 175.094283 294.687662 
L 175.361484 294.910637 
L 175.625714 294.687662 
L 175.887003 295.133613 
L 176.145382 294.895772 
L 176.400882 295.163343 
L 176.65353 295.163343 
L 176.903357 294.925503 
L 177.394662 294.925503 
L 177.636197 294.925503 
L 177.875023 295.163343 
L 178.111169 295.103883 
L 178.344662 295.163343 
L 178.575529 294.687662 
L 178.803796 295.163343 
L 179.029489 294.880907 
L 179.252636 295.074153 
L 179.473262 295.014693 
L 179.691392 294.687662 
L 179.907052 295.089018 
L 180.539459 294.925503 
L 180.745486 295.163343 
L 180.949165 294.925503 
L 181.150521 294.925503 
L 181.349577 294.687662 
L 181.546357 294.925503 
L 181.933179 294.895772 
L 182.123267 295.163343 
L 182.311171 295.163343 
L 182.496911 294.687662 
L 182.680512 295.163343 
L 182.861993 295.163343 
L 183.041378 294.687662 
L 183.218687 294.925503 
L 183.393942 294.925503 
L 183.567164 295.163343 
L 183.738374 294.925503 
L 183.907593 295.163343 
L 184.074842 295.163343 
L 184.24014 294.925503 
L 184.403508 295.163343 
L 184.564966 294.925503 
L 184.724534 294.925503 
L 184.882231 295.163343 
L 185.344295 295.163343 
L 185.494704 294.925503 
L 185.935357 295.103883 
L 186.078779 294.925503 
L 186.220499 295.163343 
L 186.498909 295.163343 
L 186.635634 294.925503 
L 186.904212 295.297128 
L 187.295156 294.925503 
L 187.548035 295.163343 
L 187.672199 295.163343 
L 187.794868 294.925503 
L 187.916057 295.163343 
L 188.270913 295.163343 
L 188.386347 295.163343 
L 188.50038 294.925503 
L 188.724306 295.163343 
L 188.942814 295.163343 
L 189.050074 295.278547 
L 189.260676 295.163343 
L 190.770222 295.163343 
L 190.854939 295.326859 
L 191.021214 295.163343 
L 191.645937 295.163343 
L 191.719675 294.925503 
L 191.86437 295.163343 
L 192.074626 295.163343 
L 192.142943 295.293412 
L 192.342735 294.925503 
L 192.47173 295.163343 
L 192.534998 294.925503 
L 192.659122 295.163343 
L 193.012878 295.163343 
L 193.069219 295.323142 
L 193.124836 295.163343 
L 193.340231 295.163343 
L 193.392355 295.364021 
L 193.49459 294.925503 
L 193.643032 295.163343 
L 193.738814 295.163343 
L 193.785773 295.338007 
L 193.832122 295.163343 
L 194.140086 295.163343 
L 194.181813 295.334291 
L 194.222993 295.163343 
L 194.74582 295.163343 
L 194.878193 295.359376 
L 194.910197 295.358447 
L 195.034021 295.163343 
L 195.093491 295.163343 
L 195.122633 294.925503 
L 195.179758 295.163343 
L 195.20775 295.163343 
L 195.289504 295.361234 
L 195.31603 295.163343 
L 195.562501 295.163343 
L 195.585364 295.378886 
L 195.673778 295.163343 
L 195.716217 295.163343 
L 195.737007 295.384925 
L 195.817396 295.163343 
L 195.874876 295.163343 
L 195.893519 295.390035 
L 195.983005 295.367273 
L 196.066569 294.925503 
L 196.098423 295.163343 
L 196.114024 295.163343 
L 196.129413 295.375634 
L 196.217428 295.163343 
L 196.231402 294.925503 
L 196.272188 295.383067 
L 196.324005 295.163343 
L 196.373032 295.163343 
L 196.40806 295.39979 
L 196.463295 295.163343 
L 196.5048 294.925503 
L 196.572096 295.163343 
L 196.598984 295.163343 
L 196.633126 295.393287 
L 196.665408 294.925503 
L 196.703298 295.163343 
L 196.717724 295.163343 
L 196.76514 295.394564 
L 196.825259 295.389687 
L 196.85228 294.925503 
L 196.872563 295.397235 
L 196.939153 295.163343 
L 196.962059 295.163343 
L 197.022915 294.925503 
L 197.071382 295.399268 
L 197.136118 294.925503 
L 197.1804 295.400785 
L 197.184256 295.163343 
L 197.214745 295.401182 
L 197.196133 294.925503 
L 197.214747 295.401179 
" clip-path="url(#p219705c7a6)" style="fill: none; stroke: #1f77b4; stroke-width: 0.7; stroke-linecap: square"/>
   </g>
   <g id="line2d_40">
    <path d="M 37.835863 295.401184 
L 197.214931 295.401184 
" clip-path="url(#p219705c7a6)" style="fill: none; stroke-dasharray: 2.59,1.12; stroke-dashoffset: 0; stroke: #000000; stroke-width: 0.7"/>
   </g>
   <g id="patch_9">
    <path d="M 34.648281 298.939062 
L 34.648281 221.105729 
" style="fill: none; stroke: #000000; stroke-width: 0.5; stroke-linejoin: miter; stroke-linecap: square"/>
   </g>
   <g id="patch_10">
    <path d="M 34.648281 298.939062 
L 200.402512 298.939062 
" style="fill: none; stroke: #000000; stroke-width: 0.5; stroke-linejoin: miter; stroke-linecap: square"/>
   </g>
   <g id="text_31">
    <!-- max $p(r|x)$ difference -->
    <g transform="translate(85.635397 215.105729) scale(0.06 -0.06)">
     <use xlink:href="#DejaVuSans-6d" transform="translate(0 0.578125)"/>
     <use xlink:href="#DejaVuSans-61" transform="translate(97.412109 0.578125)"/>
     <use xlink:href="#DejaVuSans-78" transform="translate(158.691406 0.578125)"/>
     <use xlink:href="#DejaVuSans-20" transform="translate(217.871094 0.578125)"/>
     <use xlink:href="#DejaVuSans-Oblique-70" transform="translate(249.658203 0.578125)"/>
     <use xlink:href="#DejaVuSans-28" transform="translate(313.134766 0.578125)"/>
     <use xlink:href="#DejaVuSans-Oblique-72" transform="translate(352.148438 0.578125)"/>
     <use xlink:href="#DejaVuSans-7c" transform="translate(393.261719 0.578125)"/>
     <use xlink:href="#DejaVuSans-Oblique-78" transform="translate(426.953125 0.578125)"/>
     <use xlink:href="#DejaVuSans-29" transform="translate(486.132812 0.578125)"/>
     <use xlink:href="#DejaVuSans-20" transform="translate(525.146484 0.578125)"/>
     <use xlink:href="#DejaVuSans-64" transform="translate(556.933594 0.578125)"/>
     <use xlink:href="#DejaVuSans-69" transform="translate(620.410156 0.578125)"/>
     <use xlink:href="#DejaVuSans-66" transform="translate(648.193359 0.578125)"/>
     <use xlink:href="#DejaVuSans-66" transform="translate(683.398438 0.578125)"/>
     <use xlink:href="#DejaVuSans-65" transform="translate(718.603516 0.578125)"/>
     <use xlink:href="#DejaVuSans-72" transform="translate(780.126953 0.578125)"/>
     <use xlink:href="#DejaVuSans-65" transform="translate(821.240234 0.578125)"/>
     <use xlink:href="#DejaVuSans-6e" transform="translate(882.763672 0.578125)"/>
     <use xlink:href="#DejaVuSans-63" transform="translate(946.142578 0.578125)"/>
     <use xlink:href="#DejaVuSans-65" transform="translate(1001.123047 0.578125)"/>
    </g>
   </g>
  </g>
 </g>
 <defs>
  <clipPath id="pc089f2d6b0">
   <rect x="34.648281" y="17.759062" width="165.754231" height="77.833333"/>
  </clipPath>
  <clipPath id="pedcb2723c6">
   <rect x="34.648281" y="119.432396" width="165.754231" height="77.833333"/>
  </clipPath>
  <clipPath id="p219705c7a6">
   <rect x="34.648281" y="221.105729" width="165.754231" height="77.833333"/>
  </clipPath>
 </defs>
</svg>
