<?xml version="1.0" encoding="utf-8" standalone="no"?>
<!DOCTYPE svg PUBLIC "-//W3C//DTD SVG 1.1//EN"
  "http://www.w3.org/Graphics/SVG/1.1/DTD/svg11.dtd">
<svg xmlns:xlink="http://www.w3.org/1999/xlink" width="208.848125pt" height="122.445156pt" viewBox="0 0 208.848125 122.445156" xmlns="http://www.w3.org/2000/svg" version="1.1">
 <metadata>
  <rdf:RDF xmlns:dc="http://purl.org/dc/elements/1.1/" xmlns:cc="http://creativecommons.org/ns#" xmlns:rdf="http://www.w3.org/1999/02/22-rdf-syntax-ns#">
   <cc:Work>
    <dc:type rdf:resource="http://purl.org/dc/dcmitype/StillImage"/>
    <dc:date>2026-04-22T11:33:18.469905</dc:date>
    <dc:format>image/svg+xml</dc:format>
    <dc:creator>
     <cc:Agent>
      <dc:title>Matplotlib v3.6.2, https://matplotlib.org/</dc:title>
     </cc:Agent>
    </dc:creator>
   </cc:Work>
  </rdf:RDF>
 </metadata>
 <defs>
  <style type="text/css">*{stroke-linejoin: round; stroke-linecap: butt}</style>
 </defs>
 <g id="figure_1">
  <g id="patch_1">
   <path d="M 0 122.445156 
L 208.848125 122.445156 
L 208.848125 0 
L 0 0 
z
" style="fill: #ffffff"/>
  </g>
  <g id="axes_1">
   <g id="patch_2">
    <path d="M 25.688125 95.099219 
L 201.648125 95.099219 
L 201.648125 13.999219 
L 25.688125 13.999219 
z
" style="fill: #ffffff"/>
   </g>
   <g id="matplotlib.axis_1">
    <g id="xtick_1">
     <g id="line2d_1">
      <defs>
       <path id="mf126a63e00" d="M 0 0 
L 0 2 
" style="stroke: #000000; stroke-width: 0.5"/>
      </defs>
      <g>
       <use xlink:href="#mf126a63e00" x="33.686307" y="95.099219" style="stroke: #000000; stroke-width: 0.5"/>
      </g>
     </g>
     <g id="text_1">
      <!-- 0.0 -->
      <g transform="translate(29.710526 104.398437) scale(0.05 -0.05)">
       <defs>
        <path id="DejaVuSans-30" d="M 2034 4250 
Q 1547 4250 1301 3770 
Q 1056 3291 1056 2328 
Q 1056 1369 1301 889 
Q 1547 409 2034 409 
Q 2525 409 2770 889 
Q 3016 1369 3016 2328 
Q 3016 3291 2770 3770 
Q 2525 4250 2034 4250 
z
M 2034 4750 
Q 2819 4750 3233 4129 
Q 3647 3509 3647 2328 
Q 3647 1150 3233 529 
Q 2819 -91 2034 -91 
Q 1250 -91 836 529 
Q 422 1150 422 2328 
Q 422 3509 836 4129 
Q 1250 4750 2034 4750 
z
" transform="scale(0.015625)"/>
        <path id="DejaVuSans-2e" d="M 684 794 
L 1344 794 
L 1344 0 
L 684 0 
L 684 794 
z
" transform="scale(0.015625)"/>
       </defs>
       <use xlink:href="#DejaVuSans-30"/>
       <use xlink:href="#DejaVuSans-2e" x="63.623047"/>
       <use xlink:href="#DejaVuSans-30" x="95.410156"/>
      </g>
     </g>
    </g>
    <g id="xtick_2">
     <g id="line2d_2">
      <g>
       <use xlink:href="#mf126a63e00" x="65.679034" y="95.099219" style="stroke: #000000; stroke-width: 0.5"/>
      </g>
     </g>
     <g id="text_2">
      <!-- 0.2 -->
      <g transform="translate(61.703253 104.398437) scale(0.05 -0.05)">
       <defs>
        <path id="DejaVuSans-32" d="M 1228 531 
L 3431 531 
L 3431 0 
L 469 0 
L 469 531 
Q 828 903 1448 1529 
Q 2069 2156 2228 2338 
Q 2531 2678 2651 2914 
Q 2772 3150 2772 3378 
Q 2772 3750 2511 3984 
Q 2250 4219 1831 4219 
Q 1534 4219 1204 4116 
Q 875 4013 500 3803 
L 500 4441 
Q 881 4594 1212 4672 
Q 1544 4750 1819 4750 
Q 2544 4750 2975 4387 
Q 3406 4025 3406 3419 
Q 3406 3131 3298 2873 
Q 3191 2616 2906 2266 
Q 2828 2175 2409 1742 
Q 1991 1309 1228 531 
z
" transform="scale(0.015625)"/>
       </defs>
       <use xlink:href="#DejaVuSans-30"/>
       <use xlink:href="#DejaVuSans-2e" x="63.623047"/>
       <use xlink:href="#DejaVuSans-32" x="95.410156"/>
      </g>
     </g>
    </g>
    <g id="xtick_3">
     <g id="line2d_3">
      <g>
       <use xlink:href="#mf126a63e00" x="97.671761" y="95.099219" style="stroke: #000000; stroke-width: 0.5"/>
      </g>
     </g>
     <g id="text_3">
      <!-- 0.4 -->
      <g transform="translate(93.69598 104.398437) scale(0.05 -0.05)">
       <defs>
        <path id="DejaVuSans-34" d="M 2419 4116 
L 825 1625 
L 2419 1625 
L 2419 4116 
z
M 2253 4666 
L 3047 4666 
L 3047 1625 
L 3713 1625 
L 3713 1100 
L 3047 1100 
L 3047 0 
L 2419 0 
L 2419 1100 
L 313 1100 
L 313 1709 
L 2253 4666 
z
" transform="scale(0.015625)"/>
       </defs>
       <use xlink:href="#DejaVuSans-30"/>
       <use xlink:href="#DejaVuSans-2e" x="63.623047"/>
       <use xlink:href="#DejaVuSans-34" x="95.410156"/>
      </g>
     </g>
    </g>
    <g id="xtick_4">
     <g id="line2d_4">
      <g>
       <use xlink:href="#mf126a63e00" x="129.664489" y="95.099219" style="stroke: #000000; stroke-width: 0.5"/>
      </g>
     </g>
     <g id="text_4">
      <!-- 0.6 -->
      <g transform="translate(125.688707 104.398437) scale(0.05 -0.05)">
       <defs>
        <path id="DejaVuSans-36" d="M 2113 2584 
Q 1688 2584 1439 2293 
Q 1191 2003 1191 1497 
Q 1191 994 1439 701 
Q 1688 409 2113 409 
Q 2538 409 2786 701 
Q 3034 994 3034 1497 
Q 3034 2003 2786 2293 
Q 2538 2584 2113 2584 
z
M 3366 4563 
L 3366 3988 
Q 3128 4100 2886 4159 
Q 2644 4219 2406 4219 
Q 1781 4219 1451 3797 
Q 1122 3375 1075 2522 
Q 1259 2794 1537 2939 
Q 1816 3084 2150 3084 
Q 2853 3084 3261 2657 
Q 3669 2231 3669 1497 
Q 3669 778 3244 343 
Q 2819 -91 2113 -91 
Q 1303 -91 875 529 
Q 447 1150 447 2328 
Q 447 3434 972 4092 
Q 1497 4750 2381 4750 
Q 2619 4750 2861 4703 
Q 3103 4656 3366 4563 
z
" transform="scale(0.015625)"/>
       </defs>
       <use xlink:href="#DejaVuSans-30"/>
       <use xlink:href="#DejaVuSans-2e" x="63.623047"/>
       <use xlink:href="#DejaVuSans-36" x="95.410156"/>
      </g>
     </g>
    </g>
    <g id="xtick_5">
     <g id="line2d_5">
      <g>
       <use xlink:href="#mf126a63e00" x="161.657216" y="95.099219" style="stroke: #000000; stroke-width: 0.5"/>
      </g>
     </g>
     <g id="text_5">
      <!-- 0.8 -->
      <g transform="translate(157.681435 104.398437) scale(0.05 -0.05)">
       <defs>
        <path id="DejaVuSans-38" d="M 2034 2216 
Q 1584 2216 1326 1975 
Q 1069 1734 1069 1313 
Q 1069 891 1326 650 
Q 1584 409 2034 409 
Q 2484 409 2743 651 
Q 3003 894 3003 1313 
Q 3003 1734 2745 1975 
Q 2488 2216 2034 2216 
z
M 1403 2484 
Q 997 2584 770 2862 
Q 544 3141 544 3541 
Q 544 4100 942 4425 
Q 1341 4750 2034 4750 
Q 2731 4750 3128 4425 
Q 3525 4100 3525 3541 
Q 3525 3141 3298 2862 
Q 3072 2584 2669 2484 
Q 3125 2378 3379 2068 
Q 3634 1759 3634 1313 
Q 3634 634 3220 271 
Q 2806 -91 2034 -91 
Q 1263 -91 848 271 
Q 434 634 434 1313 
Q 434 1759 690 2068 
Q 947 2378 1403 2484 
z
M 1172 3481 
Q 1172 3119 1398 2916 
Q 1625 2713 2034 2713 
Q 2441 2713 2670 2916 
Q 2900 3119 2900 3481 
Q 2900 3844 2670 4047 
Q 2441 4250 2034 4250 
Q 1625 4250 1398 4047 
Q 1172 3844 1172 3481 
z
" transform="scale(0.015625)"/>
       </defs>
       <use xlink:href="#DejaVuSans-30"/>
       <use xlink:href="#DejaVuSans-2e" x="63.623047"/>
       <use xlink:href="#DejaVuSans-38" x="95.410156"/>
      </g>
     </g>
    </g>
    <g id="xtick_6">
     <g id="line2d_6">
      <g>
       <use xlink:href="#mf126a63e00" x="193.649943" y="95.099219" style="stroke: #000000; stroke-width: 0.5"/>
      </g>
     </g>
     <g id="text_6">
      <!-- 1.0 -->
      <g transform="translate(189.674162 104.398437) scale(0.05 -0.05)">
       <defs>
        <path id="DejaVuSans-31" d="M 794 531 
L 1825 531 
L 1825 4091 
L 703 3866 
L 703 4441 
L 1819 4666 
L 2450 4666 
L 2450 531 
L 3481 531 
L 3481 0 
L 794 0 
L 794 531 
z
" transform="scale(0.015625)"/>
       </defs>
       <use xlink:href="#DejaVuSans-31"/>
       <use xlink:href="#DejaVuSans-2e" x="63.623047"/>
       <use xlink:href="#DejaVuSans-30" x="95.410156"/>
      </g>
     </g>
    </g>
    <g id="text_7">
     <!-- I(X;R) -->
     <g transform="translate(105.292031 113.997344) scale(0.06 -0.06)">
      <defs>
       <path id="DejaVuSans-49" d="M 628 4666 
L 1259 4666 
L 1259 0 
L 628 0 
L 628 4666 
z
" transform="scale(0.015625)"/>
       <path id="DejaVuSans-28" d="M 1984 4856 
Q 1566 4138 1362 3434 
Q 1159 2731 1159 2009 
Q 1159 1288 1364 580 
Q 1569 -128 1984 -844 
L 1484 -844 
Q 1016 -109 783 600 
Q 550 1309 550 2009 
Q 550 2706 781 3412 
Q 1013 4119 1484 4856 
L 1984 4856 
z
" transform="scale(0.015625)"/>
       <path id="DejaVuSans-58" d="M 403 4666 
L 1081 4666 
L 2241 2931 
L 3406 4666 
L 4084 4666 
L 2584 2425 
L 4184 0 
L 3506 0 
L 2194 1984 
L 872 0 
L 191 0 
L 1856 2491 
L 403 4666 
z
" transform="scale(0.015625)"/>
       <path id="DejaVuSans-3b" d="M 750 3309 
L 1409 3309 
L 1409 2516 
L 750 2516 
L 750 3309 
z
M 750 794 
L 1409 794 
L 1409 256 
L 897 -744 
L 494 -744 
L 750 256 
L 750 794 
z
" transform="scale(0.015625)"/>
       <path id="DejaVuSans-52" d="M 2841 2188 
Q 3044 2119 3236 1894 
Q 3428 1669 3622 1275 
L 4263 0 
L 3584 0 
L 2988 1197 
Q 2756 1666 2539 1819 
Q 2322 1972 1947 1972 
L 1259 1972 
L 1259 0 
L 628 0 
L 628 4666 
L 2053 4666 
Q 2853 4666 3247 4331 
Q 3641 3997 3641 3322 
Q 3641 2881 3436 2590 
Q 3231 2300 2841 2188 
z
M 1259 4147 
L 1259 2491 
L 2053 2491 
Q 2509 2491 2742 2702 
Q 2975 2913 2975 3322 
Q 2975 3731 2742 3939 
Q 2509 4147 2053 4147 
L 1259 4147 
z
" transform="scale(0.015625)"/>
       <path id="DejaVuSans-29" d="M 513 4856 
L 1013 4856 
Q 1481 4119 1714 3412 
Q 1947 2706 1947 2009 
Q 1947 1309 1714 600 
Q 1481 -109 1013 -844 
L 513 -844 
Q 928 -128 1133 580 
Q 1338 1288 1338 2009 
Q 1338 2731 1133 3434 
Q 928 4138 513 4856 
z
" transform="scale(0.015625)"/>
      </defs>
      <use xlink:href="#DejaVuSans-49"/>
      <use xlink:href="#DejaVuSans-28" x="29.492188"/>
      <use xlink:href="#DejaVuSans-58" x="68.505859"/>
      <use xlink:href="#DejaVuSans-3b" x="137.011719"/>
      <use xlink:href="#DejaVuSans-52" x="170.703125"/>
      <use xlink:href="#DejaVuSans-29" x="240.185547"/>
     </g>
    </g>
   </g>
   <g id="matplotlib.axis_2">
    <g id="ytick_1">
     <g id="line2d_7">
      <defs>
       <path id="mcefa1c7901" d="M 0 0 
L -2 0 
" style="stroke: #000000; stroke-width: 0.5"/>
      </defs>
      <g>
       <use xlink:href="#mcefa1c7901" x="25.688125" y="91.412855" style="stroke: #000000; stroke-width: 0.5"/>
      </g>
     </g>
     <g id="text_8">
      <!-- 0 -->
      <g transform="translate(17.006875 93.312464) scale(0.05 -0.05)">
       <use xlink:href="#DejaVuSans-30"/>
      </g>
     </g>
    </g>
    <g id="ytick_2">
     <g id="line2d_8">
      <g>
       <use xlink:href="#mcefa1c7901" x="25.688125" y="77.577934" style="stroke: #000000; stroke-width: 0.5"/>
      </g>
     </g>
     <g id="text_9">
      <!-- 1 -->
      <g transform="translate(17.006875 79.477543) scale(0.05 -0.05)">
       <use xlink:href="#DejaVuSans-31"/>
      </g>
     </g>
    </g>
    <g id="ytick_3">
     <g id="line2d_9">
      <g>
       <use xlink:href="#mcefa1c7901" x="25.688125" y="63.743012" style="stroke: #000000; stroke-width: 0.5"/>
      </g>
     </g>
     <g id="text_10">
      <!-- 2 -->
      <g transform="translate(17.006875 65.642621) scale(0.05 -0.05)">
       <use xlink:href="#DejaVuSans-32"/>
      </g>
     </g>
    </g>
    <g id="ytick_4">
     <g id="line2d_10">
      <g>
       <use xlink:href="#mcefa1c7901" x="25.688125" y="49.90809" style="stroke: #000000; stroke-width: 0.5"/>
      </g>
     </g>
     <g id="text_11">
      <!-- 3 -->
      <g transform="translate(17.006875 51.8077) scale(0.05 -0.05)">
       <defs>
        <path id="DejaVuSans-33" d="M 2597 2516 
Q 3050 2419 3304 2112 
Q 3559 1806 3559 1356 
Q 3559 666 3084 287 
Q 2609 -91 1734 -91 
Q 1441 -91 1130 -33 
Q 819 25 488 141 
L 488 750 
Q 750 597 1062 519 
Q 1375 441 1716 441 
Q 2309 441 2620 675 
Q 2931 909 2931 1356 
Q 2931 1769 2642 2001 
Q 2353 2234 1838 2234 
L 1294 2234 
L 1294 2753 
L 1863 2753 
Q 2328 2753 2575 2939 
Q 2822 3125 2822 3475 
Q 2822 3834 2567 4026 
Q 2313 4219 1838 4219 
Q 1578 4219 1281 4162 
Q 984 4106 628 3988 
L 628 4550 
Q 988 4650 1302 4700 
Q 1616 4750 1894 4750 
Q 2613 4750 3031 4423 
Q 3450 4097 3450 3541 
Q 3450 3153 3228 2886 
Q 3006 2619 2597 2516 
z
" transform="scale(0.015625)"/>
       </defs>
       <use xlink:href="#DejaVuSans-33"/>
      </g>
     </g>
    </g>
    <g id="ytick_5">
     <g id="line2d_11">
      <g>
       <use xlink:href="#mcefa1c7901" x="25.688125" y="36.073169" style="stroke: #000000; stroke-width: 0.5"/>
      </g>
     </g>
     <g id="text_12">
      <!-- 4 -->
      <g transform="translate(17.006875 37.972778) scale(0.05 -0.05)">
       <use xlink:href="#DejaVuSans-34"/>
      </g>
     </g>
    </g>
    <g id="ytick_6">
     <g id="line2d_12">
      <g>
       <use xlink:href="#mcefa1c7901" x="25.688125" y="22.238247" style="stroke: #000000; stroke-width: 0.5"/>
      </g>
     </g>
     <g id="text_13">
      <!-- 5 -->
      <g transform="translate(17.006875 24.137857) scale(0.05 -0.05)">
       <defs>
        <path id="DejaVuSans-35" d="M 691 4666 
L 3169 4666 
L 3169 4134 
L 1269 4134 
L 1269 2991 
Q 1406 3038 1543 3061 
Q 1681 3084 1819 3084 
Q 2600 3084 3056 2656 
Q 3513 2228 3513 1497 
Q 3513 744 3044 326 
Q 2575 -91 1722 -91 
Q 1428 -91 1123 -41 
Q 819 9 494 109 
L 494 744 
Q 775 591 1075 516 
Q 1375 441 1709 441 
Q 2250 441 2565 725 
Q 2881 1009 2881 1497 
Q 2881 1984 2565 2268 
Q 2250 2553 1709 2553 
Q 1456 2553 1204 2497 
Q 953 2441 691 2322 
L 691 4666 
z
" transform="scale(0.015625)"/>
       </defs>
       <use xlink:href="#DejaVuSans-35"/>
      </g>
     </g>
    </g>
    <g id="text_14">
     <!-- Max difference -->
     <g transform="translate(11.759062 76.809687) rotate(-90) scale(0.06 -0.06)">
      <defs>
       <path id="DejaVuSans-4d" d="M 628 4666 
L 1569 4666 
L 2759 1491 
L 3956 4666 
L 4897 4666 
L 4897 0 
L 4281 0 
L 4281 4097 
L 3078 897 
L 2444 897 
L 1241 4097 
L 1241 0 
L 628 0 
L 628 4666 
z
" transform="scale(0.015625)"/>
       <path id="DejaVuSans-61" d="M 2194 1759 
Q 1497 1759 1228 1600 
Q 959 1441 959 1056 
Q 959 750 1161 570 
Q 1363 391 1709 391 
Q 2188 391 2477 730 
Q 2766 1069 2766 1631 
L 2766 1759 
L 2194 1759 
z
M 3341 1997 
L 3341 0 
L 2766 0 
L 2766 531 
Q 2569 213 2275 61 
Q 1981 -91 1556 -91 
Q 1019 -91 701 211 
Q 384 513 384 1019 
Q 384 1609 779 1909 
Q 1175 2209 1959 2209 
L 2766 2209 
L 2766 2266 
Q 2766 2663 2505 2880 
Q 2244 3097 1772 3097 
Q 1472 3097 1187 3025 
Q 903 2953 641 2809 
L 641 3341 
Q 956 3463 1253 3523 
Q 1550 3584 1831 3584 
Q 2591 3584 2966 3190 
Q 3341 2797 3341 1997 
z
" transform="scale(0.015625)"/>
       <path id="DejaVuSans-78" d="M 3513 3500 
L 2247 1797 
L 3578 0 
L 2900 0 
L 1881 1375 
L 863 0 
L 184 0 
L 1544 1831 
L 300 3500 
L 978 3500 
L 1906 2253 
L 2834 3500 
L 3513 3500 
z
" transform="scale(0.015625)"/>
       <path id="DejaVuSans-20" transform="scale(0.015625)"/>
       <path id="DejaVuSans-64" d="M 2906 2969 
L 2906 4863 
L 3481 4863 
L 3481 0 
L 2906 0 
L 2906 525 
Q 2725 213 2448 61 
Q 2172 -91 1784 -91 
Q 1150 -91 751 415 
Q 353 922 353 1747 
Q 353 2572 751 3078 
Q 1150 3584 1784 3584 
Q 2172 3584 2448 3432 
Q 2725 3281 2906 2969 
z
M 947 1747 
Q 947 1113 1208 752 
Q 1469 391 1925 391 
Q 2381 391 2643 752 
Q 2906 1113 2906 1747 
Q 2906 2381 2643 2742 
Q 2381 3103 1925 3103 
Q 1469 3103 1208 2742 
Q 947 2381 947 1747 
z
" transform="scale(0.015625)"/>
       <path id="DejaVuSans-69" d="M 603 3500 
L 1178 3500 
L 1178 0 
L 603 0 
L 603 3500 
z
M 603 4863 
L 1178 4863 
L 1178 4134 
L 603 4134 
L 603 4863 
z
" transform="scale(0.015625)"/>
       <path id="DejaVuSans-66" d="M 2375 4863 
L 2375 4384 
L 1825 4384 
Q 1516 4384 1395 4259 
Q 1275 4134 1275 3809 
L 1275 3500 
L 2222 3500 
L 2222 3053 
L 1275 3053 
L 1275 0 
L 697 0 
L 697 3053 
L 147 3053 
L 147 3500 
L 697 3500 
L 697 3744 
Q 697 4328 969 4595 
Q 1241 4863 1831 4863 
L 2375 4863 
z
" transform="scale(0.015625)"/>
       <path id="DejaVuSans-65" d="M 3597 1894 
L 3597 1613 
L 953 1613 
Q 991 1019 1311 708 
Q 1631 397 2203 397 
Q 2534 397 2845 478 
Q 3156 559 3463 722 
L 3463 178 
Q 3153 47 2828 -22 
Q 2503 -91 2169 -91 
Q 1331 -91 842 396 
Q 353 884 353 1716 
Q 353 2575 817 3079 
Q 1281 3584 2069 3584 
Q 2775 3584 3186 3129 
Q 3597 2675 3597 1894 
z
M 3022 2063 
Q 3016 2534 2758 2815 
Q 2500 3097 2075 3097 
Q 1594 3097 1305 2825 
Q 1016 2553 972 2059 
L 3022 2063 
z
" transform="scale(0.015625)"/>
       <path id="DejaVuSans-72" d="M 2631 2963 
Q 2534 3019 2420 3045 
Q 2306 3072 2169 3072 
Q 1681 3072 1420 2755 
Q 1159 2438 1159 1844 
L 1159 0 
L 581 0 
L 581 3500 
L 1159 3500 
L 1159 2956 
Q 1341 3275 1631 3429 
Q 1922 3584 2338 3584 
Q 2397 3584 2469 3576 
Q 2541 3569 2628 3553 
L 2631 2963 
z
" transform="scale(0.015625)"/>
       <path id="DejaVuSans-6e" d="M 3513 2113 
L 3513 0 
L 2938 0 
L 2938 2094 
Q 2938 2591 2744 2837 
Q 2550 3084 2163 3084 
Q 1697 3084 1428 2787 
Q 1159 2491 1159 1978 
L 1159 0 
L 581 0 
L 581 3500 
L 1159 3500 
L 1159 2956 
Q 1366 3272 1645 3428 
Q 1925 3584 2291 3584 
Q 2894 3584 3203 3211 
Q 3513 2838 3513 2113 
z
" transform="scale(0.015625)"/>
       <path id="DejaVuSans-63" d="M 3122 3366 
L 3122 2828 
Q 2878 2963 2633 3030 
Q 2388 3097 2138 3097 
Q 1578 3097 1268 2742 
Q 959 2388 959 1747 
Q 959 1106 1268 751 
Q 1578 397 2138 397 
Q 2388 397 2633 464 
Q 2878 531 3122 666 
L 3122 134 
Q 2881 22 2623 -34 
Q 2366 -91 2075 -91 
Q 1284 -91 818 406 
Q 353 903 353 1747 
Q 353 2603 823 3093 
Q 1294 3584 2113 3584 
Q 2378 3584 2631 3529 
Q 2884 3475 3122 3366 
z
" transform="scale(0.015625)"/>
      </defs>
      <use xlink:href="#DejaVuSans-4d"/>
      <use xlink:href="#DejaVuSans-61" x="86.279297"/>
      <use xlink:href="#DejaVuSans-78" x="147.558594"/>
      <use xlink:href="#DejaVuSans-20" x="206.738281"/>
      <use xlink:href="#DejaVuSans-64" x="238.525391"/>
      <use xlink:href="#DejaVuSans-69" x="302.001953"/>
      <use xlink:href="#DejaVuSans-66" x="329.785156"/>
      <use xlink:href="#DejaVuSans-66" x="364.990234"/>
      <use xlink:href="#DejaVuSans-65" x="400.195312"/>
      <use xlink:href="#DejaVuSans-72" x="461.71875"/>
      <use xlink:href="#DejaVuSans-65" x="500.582031"/>
      <use xlink:href="#DejaVuSans-6e" x="562.105469"/>
      <use xlink:href="#DejaVuSans-63" x="625.484375"/>
      <use xlink:href="#DejaVuSans-65" x="680.464844"/>
     </g>
    </g>
    <g id="text_15">
     <!-- 1e−15 -->
     <g transform="translate(25.688125 10.999219) scale(0.05 -0.05)">
      <defs>
       <path id="DejaVuSans-2212" d="M 678 2272 
L 4684 2272 
L 4684 1741 
L 678 1741 
L 678 2272 
z
" transform="scale(0.015625)"/>
      </defs>
      <use xlink:href="#DejaVuSans-31"/>
      <use xlink:href="#DejaVuSans-65" x="63.623047"/>
      <use xlink:href="#DejaVuSans-2212" x="125.146484"/>
      <use xlink:href="#DejaVuSans-31" x="208.935547"/>
      <use xlink:href="#DejaVuSans-35" x="272.558594"/>
     </g>
    </g>
   </g>
   <g id="line2d_13">
    <path d="M 33.713863 66.837098 
L 33.79647 85.268916 
L 33.933941 26.901491 
L 34.125966 68.373082 
L 34.372111 91.412855 
L 34.671828 63.765128 
L 35.024447 89.87687 
L 35.429191 59.157173 
L 35.885172 85.268916 
L 36.3914 79.124976 
L 36.946788 74.517022 
L 37.550155 45.33331 
L 38.200238 77.588991 
L 38.895691 72.981037 
L 39.6351 40.725355 
L 40.416981 77.588991 
L 41.239797 77.588991 
L 42.101957 63.765128 
L 43.001826 80.660961 
L 43.937735 65.301113 
L 44.907983 59.157173 
L 45.910849 49.941264 
L 46.944596 17.685582 
L 48.007476 57.621188 
L 49.097741 86.804901 
L 50.213646 79.124976 
L 51.353453 86.804901 
L 52.515442 74.517022 
L 53.69791 66.837098 
L 54.89918 71.445052 
L 56.117602 82.196946 
L 57.35156 65.301113 
L 58.599473 72.981037 
L 59.859801 85.268916 
L 61.131044 76.053007 
L 62.411749 89.87687 
L 63.700507 89.87687 
L 64.995959 77.588991 
L 66.296796 80.660961 
L 67.60176 72.981037 
L 68.909644 77.588991 
L 70.219293 72.981037 
L 71.529606 89.87687 
L 72.839534 85.268916 
L 74.14808 88.340885 
L 75.454301 83.732931 
L 76.757302 83.732931 
L 78.056242 91.412855 
L 79.350329 80.660961 
L 80.638819 89.87687 
L 81.921018 56.085204 
L 83.196277 82.196946 
L 84.463993 68.373082 
L 85.723605 89.87687 
L 86.974597 80.660961 
L 88.216493 72.981037 
L 89.448856 85.268916 
L 90.671288 88.340885 
L 91.883427 80.660961 
L 93.084945 82.196946 
L 94.275548 88.340885 
L 95.454973 91.412855 
L 96.622988 89.87687 
L 97.77939 89.87687 
L 98.924002 88.340885 
L 100.056672 82.196946 
L 101.177274 88.340885 
L 103.38188 88.340885 
L 104.465739 86.804901 
L 105.537238 89.87687 
L 106.59635 86.804901 
L 107.643067 91.412855 
L 108.677393 89.87687 
L 109.69935 82.196946 
L 110.70897 86.804901 
L 111.706298 89.87687 
L 112.691392 85.268916 
L 113.664317 83.732931 
L 114.62515 89.87687 
L 115.573975 86.804901 
L 116.510885 89.87687 
L 117.43598 88.340885 
L 119.251153 88.340885 
L 120.14146 91.412855 
L 121.020406 89.87687 
L 121.888117 86.804901 
L 122.744721 88.340885 
L 125.249223 88.340885 
L 126.062739 89.87687 
L 126.865827 89.87687 
L 127.658626 91.412855 
L 128.441278 89.87687 
L 129.213923 91.412855 
L 129.976703 86.804901 
L 130.729758 88.340885 
L 131.47323 85.268916 
L 132.207258 89.87687 
L 132.931982 89.87687 
L 133.64754 85.268916 
L 134.35407 85.268916 
L 135.051707 89.87687 
L 135.740587 91.412855 
L 136.420844 89.87687 
L 137.092608 89.87687 
L 137.756011 82.196946 
L 138.41118 83.732931 
L 139.058243 89.87687 
L 139.697324 91.412855 
L 140.328547 88.340885 
L 140.952032 91.412855 
L 141.567899 89.87687 
L 142.176264 89.87687 
L 142.777244 82.196946 
L 143.370951 89.87687 
L 143.957496 86.804901 
L 144.536989 89.87687 
L 145.109536 91.412855 
L 145.675243 91.412855 
L 146.234212 89.87687 
L 147.332341 89.87687 
L 147.871697 91.412855 
L 148.404708 89.87687 
L 148.931466 89.87687 
L 149.452065 88.340885 
L 149.966592 89.87687 
L 150.475136 89.87687 
L 150.977783 91.412855 
L 151.474616 89.87687 
L 151.965718 89.87687 
L 152.451169 88.340885 
L 153.405433 91.412855 
L 153.874399 89.87687 
L 154.33802 89.87687 
L 154.796369 91.412855 
L 155.697532 88.340885 
L 156.140484 91.412855 
L 157.011462 88.340885 
L 157.439617 91.412855 
L 157.862967 89.87687 
L 159.104795 89.87687 
L 159.509527 91.412855 
L 159.909749 89.87687 
L 160.305516 91.412855 
L 160.696882 91.412855 
L 161.083903 89.87687 
L 161.466629 89.87687 
L 161.845112 88.340885 
L 162.589551 91.412855 
L 162.955604 91.412855 
L 163.317611 89.87687 
L 163.675619 89.87687 
L 164.029673 91.412855 
L 164.379819 89.87687 
L 164.7261 91.412855 
L 165.407246 91.412855 
L 165.742196 88.340885 
L 166.073451 91.412855 
L 166.401055 91.412855 
L 166.725046 89.87687 
L 167.045464 91.412855 
L 167.362348 89.87687 
L 167.675737 89.87687 
L 167.985668 88.340885 
L 168.292179 91.412855 
L 168.595306 91.412855 
L 168.895085 89.87687 
L 169.484742 89.87687 
L 169.774689 91.412855 
L 170.061429 88.340885 
L 170.344993 91.412855 
L 170.625416 89.87687 
L 170.902731 89.87687 
L 171.176969 91.412855 
L 171.716343 91.412855 
L 171.981542 89.87687 
L 172.503116 89.87687 
L 172.759553 91.412855 
L 173.013128 86.804901 
L 173.263871 91.412855 
L 173.511812 88.340885 
L 173.756978 91.412855 
L 173.999399 91.412855 
L 174.476113 88.340885 
L 174.710462 89.87687 
L 174.942176 89.87687 
L 175.17128 88.340885 
L 175.621767 91.412855 
L 175.843202 91.412855 
L 176.062132 89.87687 
L 176.278583 91.412855 
L 176.492579 88.340885 
L 176.704146 91.412855 
L 176.913309 89.87687 
L 178.312141 89.87687 
L 178.502927 91.412855 
L 178.69152 89.87687 
L 179.062215 89.87687 
L 179.244362 91.412855 
L 179.424405 89.87687 
L 179.602364 89.87687 
L 179.778262 91.412855 
L 180.123958 91.412855 
L 180.293797 86.804901 
L 180.461659 89.87687 
L 180.953581 89.87687 
L 181.113734 88.340885 
L 181.428428 91.412855 
L 181.735768 91.412855 
L 181.886729 89.87687 
L 182.035908 91.412855 
L 182.183325 91.412855 
L 182.328998 89.87687 
L 182.472946 91.412855 
L 182.615186 88.340885 
L 182.755738 89.87687 
L 182.894618 89.87687 
L 183.031844 91.412855 
L 183.167435 89.87687 
L 183.301407 91.412855 
L 183.433778 91.412855 
L 183.564565 89.87687 
L 183.693785 91.412855 
L 183.947591 88.340885 
L 184.072211 89.87687 
L 184.195329 88.340885 
L 184.316964 91.412855 
L 184.43713 89.87687 
L 184.673121 89.87687 
L 184.788978 91.412855 
L 184.903429 89.87687 
L 185.01649 91.412855 
L 185.238504 89.87687 
L 185.347486 89.87687 
L 185.561477 91.412855 
L 185.666514 89.87687 
L 185.872744 91.412855 
L 185.973965 91.412855 
L 186.172691 89.87687 
L 186.270223 91.412855 
L 186.461693 89.87687 
L 186.648461 89.87687 
L 186.830632 91.412855 
L 186.920026 88.340885 
L 187.00831 91.412855 
L 187.181597 89.87687 
L 187.266624 91.412855 
L 187.350591 88.340885 
L 187.515391 91.412855 
L 187.676092 89.87687 
L 187.909663 89.87687 
L 188.060524 91.412855 
L 188.350998 91.412855 
L 188.421337 89.87687 
L 188.490785 91.412855 
L 188.559352 89.87687 
L 188.62705 91.412855 
L 188.759877 89.87687 
L 188.825026 91.412855 
L 188.952846 89.87687 
L 189.015535 89.87687 
L 189.077425 91.412855 
L 189.138523 88.340885 
L 189.19884 89.87687 
L 189.258385 89.87687 
L 189.317167 91.412855 
L 189.432479 88.340885 
L 189.489026 91.412855 
L 189.544847 89.87687 
L 189.654342 89.87687 
L 189.813347 91.412855 
L 189.864986 91.412855 
L 189.915957 88.340885 
L 189.966268 89.87687 
L 190.064944 89.87687 
L 190.208208 91.412855 
L 190.345956 88.340885 
L 190.521386 91.412855 
L 190.563821 89.87687 
L 190.6057 91.412855 
L 190.647032 91.412855 
L 190.767805 88.340885 
L 190.883883 91.412855 
L 190.958747 91.412855 
L 191.102646 89.87687 
L 191.137441 89.87687 
L 191.171777 88.340885 
L 191.205658 89.87687 
L 191.304635 91.412855 
L 191.399727 89.87687 
L 191.520723 91.412855 
L 191.663121 91.412855 
L 191.79626 89.87687 
L 191.920718 89.87687 
L 191.968193 91.412855 
L 192.0144 89.87687 
L 192.081403 89.87687 
L 192.20749 91.412855 
L 192.323684 89.87687 
L 192.342142 89.87687 
L 192.46451 91.412855 
L 192.575678 88.340885 
L 192.590704 89.87687 
L 192.703743 91.412855 
L 192.79291 88.340885 
L 192.804957 89.87687 
L 192.895551 88.340885 
L 192.916669 91.412855 
L 192.937208 88.340885 
L 193.022867 91.412855 
L 193.031737 91.412855 
L 193.12904 88.340885 
L 193.143724 89.87687 
L 193.229736 88.340885 
L 193.258842 91.412855 
L 193.373154 86.804901 
L 193.473309 91.412855 
L 193.488068 89.87687 
L 193.492712 89.87687 
L 193.567283 86.804901 
L 193.601977 91.412855 
L 193.642351 86.804901 
L 193.649759 89.87687 
" clip-path="url(#pd57194ef3c)" style="fill: none; stroke: #1f77b4; stroke-width: 0.7; stroke-linecap: square"/>
   </g>
   <g id="line2d_14">
    <path d="M 33.713863 65.301113 
L 33.79647 87.572893 
L 33.933941 26.133499 
L 34.125966 67.60509 
L 34.372111 90.644863 
L 34.671828 62.997135 
L 35.024447 89.87687 
L 35.429191 60.693158 
L 35.885172 86.804901 
L 36.3914 78.356984 
L 36.946788 74.517022 
L 37.550155 44.565317 
L 38.200238 76.820999 
L 38.895691 71.445052 
L 39.6351 42.26134 
L 40.416981 73.749029 
L 41.239797 78.356984 
L 42.101957 65.301113 
L 43.001826 80.660961 
L 43.937735 64.53312 
L 44.907983 59.157173 
L 45.910849 49.173272 
L 46.944596 19.221567 
L 48.007476 56.853196 
L 49.097741 86.036908 
L 50.213646 78.356984 
L 51.353453 87.572893 
L 52.515442 76.053007 
L 53.69791 67.60509 
L 54.89918 72.213045 
L 56.117602 82.196946 
L 57.35156 64.53312 
L 58.599473 73.749029 
L 59.859801 86.036908 
L 61.131044 77.588991 
L 62.411749 89.87687 
L 63.700507 90.644863 
L 64.995959 77.588991 
L 66.296796 81.428954 
L 67.60176 72.213045 
L 68.909644 76.820999 
L 70.219293 72.981037 
L 71.529606 91.412855 
L 72.839534 83.732931 
L 74.14808 89.87687 
L 75.454301 83.732931 
L 76.757302 84.500923 
L 78.056242 91.412855 
L 79.350329 79.892969 
L 80.638819 86.036908 
L 81.921018 59.157173 
L 83.196277 81.428954 
L 84.463993 67.60509 
L 85.723605 90.644863 
L 86.974597 82.964938 
L 88.216493 72.213045 
L 89.448856 84.500923 
L 90.671288 86.036908 
L 91.883427 78.356984 
L 93.084945 83.732931 
L 94.275548 89.87687 
L 95.454973 90.644863 
L 97.77939 90.644863 
L 98.924002 88.340885 
L 100.056672 82.196946 
L 101.177274 88.340885 
L 102.285705 87.572893 
L 103.38188 89.87687 
L 104.465739 89.108878 
L 105.537238 89.87687 
L 106.59635 89.87687 
L 107.643067 91.412855 
L 108.677393 89.87687 
L 109.69935 82.964938 
L 110.70897 87.572893 
L 111.706298 89.87687 
L 112.691392 85.268916 
L 113.664317 82.964938 
L 114.62515 89.87687 
L 115.573975 88.340885 
L 116.510885 88.340885 
L 117.43598 86.804901 
L 118.349366 88.340885 
L 121.020406 90.644863 
L 121.888117 85.268916 
L 122.744721 88.340885 
L 123.590351 86.804901 
L 124.42514 89.108878 
L 125.249223 89.87687 
L 126.062739 89.108878 
L 127.658626 90.644863 
L 128.441278 89.87687 
L 129.213923 91.412855 
L 130.729758 89.87687 
L 131.47323 85.268916 
L 132.207258 91.412855 
L 132.931982 91.412855 
L 133.64754 86.036908 
L 134.35407 87.188897 
L 135.051707 91.028859 
L 135.740587 91.412855 
L 136.420844 89.492874 
L 137.092608 91.028859 
L 137.756011 86.036908 
L 138.41118 85.652912 
L 139.058243 90.260866 
L 139.697324 91.412855 
L 140.328547 90.644863 
L 140.952032 91.028859 
L 142.176264 90.260866 
L 142.777244 84.88492 
L 143.370951 91.028859 
L 143.957496 87.956889 
L 144.536989 89.108878 
L 145.109536 91.412855 
L 145.675243 91.412855 
L 146.234212 90.260866 
L 146.786545 90.644863 
L 147.332341 90.260866 
L 147.871697 89.108878 
L 148.404708 91.412855 
L 148.931466 89.87687 
L 149.452065 88.724882 
L 149.966592 90.644863 
L 150.475136 90.644863 
L 150.977783 90.260866 
L 151.474616 91.028859 
L 151.965718 89.87687 
L 152.451169 89.87687 
L 152.931048 89.492874 
L 153.405433 90.260866 
L 153.874399 91.412855 
L 154.796369 91.412855 
L 155.249516 90.644863 
L 155.697532 88.724882 
L 156.140484 90.260866 
L 156.578439 89.87687 
L 157.011462 89.108878 
L 157.439617 91.028859 
L 157.862967 91.028859 
L 158.281574 91.412855 
L 158.695497 89.87687 
L 159.509527 91.412855 
L 159.909749 90.260866 
L 160.305516 91.412855 
L 160.696882 91.028859 
L 161.083903 89.87687 
L 161.466629 91.028859 
L 161.845112 90.644863 
L 162.219403 90.644863 
L 162.589551 89.87687 
L 162.955604 91.028859 
L 163.317611 91.412855 
L 163.675619 91.028859 
L 164.029673 91.412855 
L 164.379819 89.492874 
L 164.7261 90.260866 
L 165.068562 90.260866 
L 165.407246 90.644863 
L 165.742196 89.87687 
L 166.073451 91.412855 
L 166.401055 91.028859 
L 166.725046 91.028859 
L 167.045464 91.412855 
L 167.362348 90.644863 
L 167.675737 91.412855 
L 167.985668 90.260866 
L 168.292179 91.412855 
L 168.595306 90.260866 
L 168.895085 90.260866 
L 169.191552 89.87687 
L 169.484742 90.260866 
L 169.774689 91.412855 
L 170.061429 90.260866 
L 170.344993 89.87687 
L 170.625416 91.412855 
L 170.902731 90.260866 
L 171.176969 91.028859 
L 171.716343 91.028859 
L 171.981542 89.87687 
L 172.503116 91.412855 
L 172.759553 91.028859 
L 173.013128 91.028859 
L 173.511812 90.260866 
L 173.999399 90.260866 
L 174.239101 91.028859 
L 174.476113 91.412855 
L 174.710462 91.412855 
L 175.17128 90.260866 
L 175.397802 90.260866 
L 175.621767 90.644863 
L 175.843202 91.412855 
L 176.062132 90.644863 
L 176.278583 91.412855 
L 176.492579 90.260866 
L 176.913309 91.412855 
L 177.324518 90.644863 
L 177.526613 89.87687 
L 177.726399 91.028859 
L 177.9239 89.87687 
L 178.11914 90.260866 
L 178.502927 91.412855 
L 178.69152 91.412855 
L 178.877941 90.260866 
L 179.244362 91.412855 
L 179.424405 91.028859 
L 179.602364 90.260866 
L 179.952119 91.412855 
L 180.123958 90.644863 
L 180.293797 89.108878 
L 180.461659 91.028859 
L 180.791531 91.028859 
L 180.953581 90.644863 
L 181.27201 91.412855 
L 181.583008 91.412855 
L 181.735768 91.028859 
L 181.886729 91.028859 
L 182.035908 90.260866 
L 182.183325 91.412855 
L 182.328998 89.87687 
L 182.472946 91.028859 
L 182.615186 90.644863 
L 182.755738 91.412855 
L 183.031844 90.644863 
L 183.167435 90.644863 
L 183.301407 91.412855 
L 183.433778 91.028859 
L 183.564565 91.412855 
L 183.821455 91.412855 
L 183.947591 91.028859 
L 184.072211 91.412855 
L 184.195329 90.644863 
L 184.316964 90.644863 
L 184.555844 91.412855 
L 184.788978 91.028859 
L 184.903429 91.028859 
L 185.238504 90.260866 
L 185.347486 91.412855 
L 185.666514 90.644863 
L 185.770265 91.412855 
L 185.872744 91.028859 
L 186.073943 91.412855 
L 186.172691 90.644863 
L 186.461693 91.412855 
L 186.555658 91.028859 
L 186.648461 91.412855 
L 186.830632 91.028859 
L 186.920026 91.412855 
L 187.095496 90.644863 
L 187.266624 91.028859 
L 187.350591 91.028859 
L 187.433509 91.412855 
L 187.515391 90.644863 
L 187.596248 91.028859 
L 187.676092 90.644863 
L 187.909663 91.412855 
L 188.060524 91.412855 
L 188.134532 90.644863 
L 188.207606 91.028859 
L 188.279758 91.028859 
L 188.350998 91.412855 
L 188.490785 91.028859 
L 188.62705 91.028859 
L 188.693888 91.412855 
L 188.759877 91.028859 
L 188.825026 91.412855 
L 188.952846 91.028859 
L 189.077425 91.412855 
L 189.19884 90.644863 
L 189.317167 91.412855 
L 189.432479 91.028859 
L 189.544847 91.412855 
L 189.708033 91.028859 
L 189.915957 91.028859 
L 190.064944 91.412855 
L 190.113324 91.412855 
L 190.208208 90.644863 
L 190.254727 91.028859 
L 190.345956 91.028859 
L 190.390682 91.412855 
L 190.434824 91.028859 
L 190.478389 91.028859 
L 190.563821 90.644863 
L 190.687822 91.412855 
L 190.845701 90.644863 
L 190.921563 91.412855 
L 190.958747 91.028859 
L 191.102646 91.412855 
L 191.137441 91.412855 
L 191.272082 91.028859 
L 191.304635 91.028859 
L 191.336757 91.412855 
L 191.399727 91.028859 
L 191.430586 91.028859 
L 191.491079 91.412855 
L 191.520723 90.260866 
L 191.607306 91.028859 
L 191.744078 91.412855 
L 191.871941 91.028859 
L 191.968193 91.412855 
L 192.037038 91.028859 
L 192.059371 91.412855 
L 192.081403 91.412855 
L 192.20749 91.028859 
L 192.227522 91.028859 
L 192.323684 91.412855 
L 192.396024 90.644863 
L 192.447738 91.028859 
L 192.46451 91.412855 
L 192.481052 90.644863 
L 192.544999 91.028859 
L 192.560444 91.028859 
L 192.676641 91.412855 
L 192.690285 90.644863 
L 192.79291 91.028859 
L 192.816839 91.028859 
L 192.906183 91.412855 
L 192.873837 90.260866 
L 192.92701 91.028859 
L 192.9955 90.644863 
L 192.947265 91.412855 
L 193.031737 91.028859 
L 193.040485 91.028859 
L 193.150913 91.412855 
L 193.223664 90.644863 
L 193.258842 91.028859 
L 193.275344 90.644863 
L 193.373154 91.412855 
L 193.384894 91.412855 
L 193.465439 90.644863 
L 193.499432 91.028859 
L 193.53587 90.644863 
L 193.610353 91.412855 
L 193.649584 90.644863 
L 193.649759 91.028859 
" clip-path="url(#pd57194ef3c)" style="fill: none; stroke: #ff7f0e; stroke-width: 0.7; stroke-linecap: square"/>
   </g>
   <g id="line2d_15">
    <path d="M 33.686307 91.412855 
L 193.649943 91.412855 
" clip-path="url(#pd57194ef3c)" style="fill: none; stroke-dasharray: 2.59,1.12; stroke-dashoffset: 0; stroke: #000000; stroke-width: 0.7"/>
   </g>
   <g id="patch_3">
    <path d="M 25.688125 95.099219 
L 25.688125 13.999219 
" style="fill: none; stroke: #000000; stroke-width: 0.5; stroke-linejoin: miter; stroke-linecap: square"/>
   </g>
   <g id="patch_4">
    <path d="M 25.688125 95.099219 
L 201.648125 95.099219 
" style="fill: none; stroke: #000000; stroke-width: 0.5; stroke-linejoin: miter; stroke-linecap: square"/>
   </g>
   <g id="legend_1">
    <g id="line2d_16">
     <path d="M 120.898125 20.599219 
L 125.898125 20.599219 
L 130.898125 20.599219 
" style="fill: none; stroke: #1f77b4; stroke-width: 0.7; stroke-linecap: square"/>
    </g>
    <g id="text_16">
     <!-- max $p(r=y|y)$ difference -->
     <g transform="translate(134.898125 22.349219) scale(0.05 -0.05)">
      <defs>
       <path id="DejaVuSans-6d" d="M 3328 2828 
Q 3544 3216 3844 3400 
Q 4144 3584 4550 3584 
Q 5097 3584 5394 3201 
Q 5691 2819 5691 2113 
L 5691 0 
L 5113 0 
L 5113 2094 
Q 5113 2597 4934 2840 
Q 4756 3084 4391 3084 
Q 3944 3084 3684 2787 
Q 3425 2491 3425 1978 
L 3425 0 
L 2847 0 
L 2847 2094 
Q 2847 2600 2669 2842 
Q 2491 3084 2119 3084 
Q 1678 3084 1418 2786 
Q 1159 2488 1159 1978 
L 1159 0 
L 581 0 
L 581 3500 
L 1159 3500 
L 1159 2956 
Q 1356 3278 1631 3431 
Q 1906 3584 2284 3584 
Q 2666 3584 2933 3390 
Q 3200 3197 3328 2828 
z
" transform="scale(0.015625)"/>
       <path id="DejaVuSans-Oblique-70" d="M 3175 2156 
Q 3175 2616 2975 2859 
Q 2775 3103 2400 3103 
Q 2144 3103 1911 2972 
Q 1678 2841 1497 2591 
Q 1319 2344 1212 1994 
Q 1106 1644 1106 1300 
Q 1106 863 1306 627 
Q 1506 391 1875 391 
Q 2147 391 2380 519 
Q 2613 647 2778 891 
Q 2956 1147 3065 1494 
Q 3175 1841 3175 2156 
z
M 1394 2969 
Q 1625 3272 1939 3428 
Q 2253 3584 2638 3584 
Q 3175 3584 3472 3232 
Q 3769 2881 3769 2247 
Q 3769 1728 3584 1258 
Q 3400 788 3053 416 
Q 2822 169 2531 39 
Q 2241 -91 1919 -91 
Q 1547 -91 1294 64 
Q 1041 219 916 525 
L 556 -1331 
L -19 -1331 
L 922 3500 
L 1497 3500 
L 1394 2969 
z
" transform="scale(0.015625)"/>
       <path id="DejaVuSans-Oblique-72" d="M 2853 2969 
Q 2766 3016 2653 3041 
Q 2541 3066 2413 3066 
Q 1953 3066 1609 2717 
Q 1266 2369 1153 1784 
L 800 0 
L 225 0 
L 909 3500 
L 1484 3500 
L 1375 2956 
Q 1603 3259 1920 3421 
Q 2238 3584 2597 3584 
Q 2691 3584 2781 3573 
Q 2872 3563 2963 3538 
L 2853 2969 
z
" transform="scale(0.015625)"/>
       <path id="DejaVuSans-3d" d="M 678 2906 
L 4684 2906 
L 4684 2381 
L 678 2381 
L 678 2906 
z
M 678 1631 
L 4684 1631 
L 4684 1100 
L 678 1100 
L 678 1631 
z
" transform="scale(0.015625)"/>
       <path id="DejaVuSans-Oblique-79" d="M 1588 -325 
Q 1188 -997 936 -1164 
Q 684 -1331 294 -1331 
L -159 -1331 
L -63 -850 
L 269 -850 
Q 509 -850 678 -719 
Q 847 -588 1056 -206 
L 1234 128 
L 459 3500 
L 1069 3500 
L 1650 819 
L 3256 3500 
L 3859 3500 
L 1588 -325 
z
" transform="scale(0.015625)"/>
       <path id="DejaVuSans-7c" d="M 1344 4891 
L 1344 -1509 
L 813 -1509 
L 813 4891 
L 1344 4891 
z
" transform="scale(0.015625)"/>
      </defs>
      <use xlink:href="#DejaVuSans-6d" transform="translate(0 0.578125)"/>
      <use xlink:href="#DejaVuSans-61" transform="translate(97.412109 0.578125)"/>
      <use xlink:href="#DejaVuSans-78" transform="translate(158.691406 0.578125)"/>
      <use xlink:href="#DejaVuSans-20" transform="translate(217.871094 0.578125)"/>
      <use xlink:href="#DejaVuSans-Oblique-70" transform="translate(249.658203 0.578125)"/>
      <use xlink:href="#DejaVuSans-28" transform="translate(313.134766 0.578125)"/>
      <use xlink:href="#DejaVuSans-Oblique-72" transform="translate(352.148438 0.578125)"/>
      <use xlink:href="#DejaVuSans-3d" transform="translate(412.744141 0.578125)"/>
      <use xlink:href="#DejaVuSans-Oblique-79" transform="translate(516.015625 0.578125)"/>
      <use xlink:href="#DejaVuSans-7c" transform="translate(575.195312 0.578125)"/>
      <use xlink:href="#DejaVuSans-Oblique-79" transform="translate(608.886719 0.578125)"/>
      <use xlink:href="#DejaVuSans-29" transform="translate(668.066406 0.578125)"/>
      <use xlink:href="#DejaVuSans-20" transform="translate(707.080078 0.578125)"/>
      <use xlink:href="#DejaVuSans-64" transform="translate(738.867188 0.578125)"/>
      <use xlink:href="#DejaVuSans-69" transform="translate(802.34375 0.578125)"/>
      <use xlink:href="#DejaVuSans-66" transform="translate(830.126953 0.578125)"/>
      <use xlink:href="#DejaVuSans-66" transform="translate(865.332031 0.578125)"/>
      <use xlink:href="#DejaVuSans-65" transform="translate(900.537109 0.578125)"/>
      <use xlink:href="#DejaVuSans-72" transform="translate(962.060547 0.578125)"/>
      <use xlink:href="#DejaVuSans-65" transform="translate(1003.173828 0.578125)"/>
      <use xlink:href="#DejaVuSans-6e" transform="translate(1064.697266 0.578125)"/>
      <use xlink:href="#DejaVuSans-63" transform="translate(1128.076172 0.578125)"/>
      <use xlink:href="#DejaVuSans-65" transform="translate(1183.056641 0.578125)"/>
     </g>
    </g>
    <g id="line2d_17">
     <path d="M 120.898125 28.149219 
L 125.898125 28.149219 
L 130.898125 28.149219 
" style="fill: none; stroke: #ff7f0e; stroke-width: 0.7; stroke-linecap: square"/>
    </g>
    <g id="text_17">
     <!-- max $p(r\neq y|y)$ difference -->
     <g transform="translate(134.898125 29.899219) scale(0.05 -0.05)">
      <defs>
       <path id="DejaVuSans-2260" d="M 678 2906 
L 3091 2906 
L 3891 3891 
L 4281 3572 
L 3738 2906 
L 4684 2906 
L 4684 2381 
L 3309 2381 
L 2700 1631 
L 4684 1631 
L 4684 1100 
L 2266 1100 
L 1459 122 
L 1069 441 
L 1613 1100 
L 678 1100 
L 678 1631 
L 2047 1631 
L 2656 2381 
L 678 2381 
L 678 2906 
z
" transform="scale(0.015625)"/>
      </defs>
      <use xlink:href="#DejaVuSans-6d" transform="translate(0 0.578125)"/>
      <use xlink:href="#DejaVuSans-61" transform="translate(97.412109 0.578125)"/>
      <use xlink:href="#DejaVuSans-78" transform="translate(158.691406 0.578125)"/>
      <use xlink:href="#DejaVuSans-20" transform="translate(217.871094 0.578125)"/>
      <use xlink:href="#DejaVuSans-Oblique-70" transform="translate(249.658203 0.578125)"/>
      <use xlink:href="#DejaVuSans-28" transform="translate(313.134766 0.578125)"/>
      <use xlink:href="#DejaVuSans-Oblique-72" transform="translate(352.148438 0.578125)"/>
      <use xlink:href="#DejaVuSans-2260" transform="translate(412.744141 0.578125)"/>
      <use xlink:href="#DejaVuSans-Oblique-79" transform="translate(516.015625 0.578125)"/>
      <use xlink:href="#DejaVuSans-7c" transform="translate(575.195312 0.578125)"/>
      <use xlink:href="#DejaVuSans-Oblique-79" transform="translate(608.886719 0.578125)"/>
      <use xlink:href="#DejaVuSans-29" transform="translate(668.066406 0.578125)"/>
      <use xlink:href="#DejaVuSans-20" transform="translate(707.080078 0.578125)"/>
      <use xlink:href="#DejaVuSans-64" transform="translate(738.867188 0.578125)"/>
      <use xlink:href="#DejaVuSans-69" transform="translate(802.34375 0.578125)"/>
      <use xlink:href="#DejaVuSans-66" transform="translate(830.126953 0.578125)"/>
      <use xlink:href="#DejaVuSans-66" transform="translate(865.332031 0.578125)"/>
      <use xlink:href="#DejaVuSans-65" transform="translate(900.537109 0.578125)"/>
      <use xlink:href="#DejaVuSans-72" transform="translate(962.060547 0.578125)"/>
      <use xlink:href="#DejaVuSans-65" transform="translate(1003.173828 0.578125)"/>
      <use xlink:href="#DejaVuSans-6e" transform="translate(1064.697266 0.578125)"/>
      <use xlink:href="#DejaVuSans-63" transform="translate(1128.076172 0.578125)"/>
      <use xlink:href="#DejaVuSans-65" transform="translate(1183.056641 0.578125)"/>
     </g>
    </g>
   </g>
  </g>
 </g>
 <defs>
  <clipPath id="pd57194ef3c">
   <rect x="25.688125" y="13.999219" width="175.96" height="81.1"/>
  </clipPath>
 </defs>
</svg>
