<?xml version="1.0" encoding="utf-8" standalone="no"?>
<!DOCTYPE svg PUBLIC "-//W3C//DTD SVG 1.1//EN"
  "http://www.w3.org/Graphics/SVG/1.1/DTD/svg11.dtd">
<svg xmlns:xlink="http://www.w3.org/1999/xlink" width="208.390712pt" height="316.478125pt" viewBox="0 0 208.390712 316.478125" xmlns="http://www.w3.org/2000/svg" version="1.1">
 <metadata>
  <rdf:RDF xmlns:dc="http://purl.org/dc/elements/1.1/" xmlns:cc="http://creativecommons.org/ns#" xmlns:rdf="http://www.w3.org/1999/02/22-rdf-syntax-ns#">
   <cc:Work>
    <dc:type rdf:resource="http://purl.org/dc/dcmitype/StillImage"/>
    <dc:date>2026-04-22T21:52:27.223796</dc:date>
    <dc:format>image/svg+xml</dc:format>
    <dc:creator>
     <cc:Agent>
      <dc:title>Matplotlib v3.8.2, https://matplotlib.org/</dc:title>
     </cc:Agent>
    </dc:creator>
   </cc:Work>
  </rdf:RDF>
 </metadata>
 <defs>
  <style type="text/css">*{stroke-linejoin: round; stroke-linecap: butt}</style>
 </defs>
 <g id="figure_1">
  <g id="patch_1">
   <path d="M 0 316.478125 
L 208.390712 316.478125 
L 208.390712 0 
L 0 0 
z
" style="fill: #ffffff"/>
  </g>
  <g id="axes_1">
   <g id="patch_2">
    <path d="M 34.648281 95.592396 
L 200.402512 95.592396 
L 200.402512 17.759062 
L 34.648281 17.759062 
z
" style="fill: #ffffff"/>
   </g>
   <g id="matplotlib.axis_1">
    <g id="xtick_1">
     <g id="line2d_1">
      <defs>
       <path id="m8a19fa6d03" d="M 0 0 
L 0 2 
" style="stroke: #000000; stroke-width: 0.5"/>
      </defs>
      <g>
       <use xlink:href="#m8a19fa6d03" x="37.835863" y="95.592396" style="stroke: #000000; stroke-width: 0.5"/>
      </g>
     </g>
    </g>
    <g id="xtick_2">
     <g id="line2d_2">
      <g>
       <use xlink:href="#m8a19fa6d03" x="69.711676" y="95.592396" style="stroke: #000000; stroke-width: 0.5"/>
      </g>
     </g>
    </g>
    <g id="xtick_3">
     <g id="line2d_3">
      <g>
       <use xlink:href="#m8a19fa6d03" x="101.58749" y="95.592396" style="stroke: #000000; stroke-width: 0.5"/>
      </g>
     </g>
    </g>
    <g id="xtick_4">
     <g id="line2d_4">
      <g>
       <use xlink:href="#m8a19fa6d03" x="133.463303" y="95.592396" style="stroke: #000000; stroke-width: 0.5"/>
      </g>
     </g>
    </g>
    <g id="xtick_5">
     <g id="line2d_5">
      <g>
       <use xlink:href="#m8a19fa6d03" x="165.339117" y="95.592396" style="stroke: #000000; stroke-width: 0.5"/>
      </g>
     </g>
    </g>
    <g id="xtick_6">
     <g id="line2d_6">
      <g>
       <use xlink:href="#m8a19fa6d03" x="197.214931" y="95.592396" style="stroke: #000000; stroke-width: 0.5"/>
      </g>
     </g>
    </g>
   </g>
   <g id="matplotlib.axis_2">
    <g id="ytick_1">
     <g id="line2d_7">
      <defs>
       <path id="m0bc604aa3c" d="M 0 0 
L -2 0 
" style="stroke: #000000; stroke-width: 0.5"/>
      </defs>
      <g>
       <use xlink:href="#m0bc604aa3c" x="34.648281" y="89.364715" style="stroke: #000000; stroke-width: 0.5"/>
      </g>
     </g>
     <g id="text_1">
      <!-- −0.5 -->
      <g transform="translate(17.006875 91.264324) scale(0.05 -0.05)">
       <defs>
        <path id="DejaVuSans-2212" d="M 678 2272 
L 4684 2272 
L 4684 1741 
L 678 1741 
L 678 2272 
z
" transform="scale(0.015625)"/>
        <path id="DejaVuSans-30" d="M 2034 4250 
Q 1547 4250 1301 3770 
Q 1056 3291 1056 2328 
Q 1056 1369 1301 889 
Q 1547 409 2034 409 
Q 2525 409 2770 889 
Q 3016 1369 3016 2328 
Q 3016 3291 2770 3770 
Q 2525 4250 2034 4250 
z
M 2034 4750 
Q 2819 4750 3233 4129 
Q 3647 3509 3647 2328 
Q 3647 1150 3233 529 
Q 2819 -91 2034 -91 
Q 1250 -91 836 529 
Q 422 1150 422 2328 
Q 422 3509 836 4129 
Q 1250 4750 2034 4750 
z
" transform="scale(0.015625)"/>
        <path id="DejaVuSans-2e" d="M 684 794 
L 1344 794 
L 1344 0 
L 684 0 
L 684 794 
z
" transform="scale(0.015625)"/>
        <path id="DejaVuSans-35" d="M 691 4666 
L 3169 4666 
L 3169 4134 
L 1269 4134 
L 1269 2991 
Q 1406 3038 1543 3061 
Q 1681 3084 1819 3084 
Q 2600 3084 3056 2656 
Q 3513 2228 3513 1497 
Q 3513 744 3044 326 
Q 2575 -91 1722 -91 
Q 1428 -91 1123 -41 
Q 819 9 494 109 
L 494 744 
Q 775 591 1075 516 
Q 1375 441 1709 441 
Q 2250 441 2565 725 
Q 2881 1009 2881 1497 
Q 2881 1984 2565 2268 
Q 2250 2553 1709 2553 
Q 1456 2553 1204 2497 
Q 953 2441 691 2322 
L 691 4666 
z
" transform="scale(0.015625)"/>
       </defs>
       <use xlink:href="#DejaVuSans-2212"/>
       <use xlink:href="#DejaVuSans-30" x="83.789062"/>
       <use xlink:href="#DejaVuSans-2e" x="147.412109"/>
       <use xlink:href="#DejaVuSans-35" x="179.199219"/>
      </g>
     </g>
    </g>
    <g id="ytick_2">
     <g id="line2d_8">
      <g>
       <use xlink:href="#m0bc604aa3c" x="34.648281" y="74.154032" style="stroke: #000000; stroke-width: 0.5"/>
      </g>
     </g>
     <g id="text_2">
      <!-- 0.0 -->
      <g transform="translate(21.196719 76.053642) scale(0.05 -0.05)">
       <use xlink:href="#DejaVuSans-30"/>
       <use xlink:href="#DejaVuSans-2e" x="63.623047"/>
       <use xlink:href="#DejaVuSans-30" x="95.410156"/>
      </g>
     </g>
    </g>
    <g id="ytick_3">
     <g id="line2d_9">
      <g>
       <use xlink:href="#m0bc604aa3c" x="34.648281" y="58.94335" style="stroke: #000000; stroke-width: 0.5"/>
      </g>
     </g>
     <g id="text_3">
      <!-- 0.5 -->
      <g transform="translate(21.196719 60.84296) scale(0.05 -0.05)">
       <use xlink:href="#DejaVuSans-30"/>
       <use xlink:href="#DejaVuSans-2e" x="63.623047"/>
       <use xlink:href="#DejaVuSans-35" x="95.410156"/>
      </g>
     </g>
    </g>
    <g id="ytick_4">
     <g id="line2d_10">
      <g>
       <use xlink:href="#m0bc604aa3c" x="34.648281" y="43.732668" style="stroke: #000000; stroke-width: 0.5"/>
      </g>
     </g>
     <g id="text_4">
      <!-- 1.0 -->
      <g transform="translate(21.196719 45.632277) scale(0.05 -0.05)">
       <defs>
        <path id="DejaVuSans-31" d="M 794 531 
L 1825 531 
L 1825 4091 
L 703 3866 
L 703 4441 
L 1819 4666 
L 2450 4666 
L 2450 531 
L 3481 531 
L 3481 0 
L 794 0 
L 794 531 
z
" transform="scale(0.015625)"/>
       </defs>
       <use xlink:href="#DejaVuSans-31"/>
       <use xlink:href="#DejaVuSans-2e" x="63.623047"/>
       <use xlink:href="#DejaVuSans-30" x="95.410156"/>
      </g>
     </g>
    </g>
    <g id="ytick_5">
     <g id="line2d_11">
      <g>
       <use xlink:href="#m0bc604aa3c" x="34.648281" y="28.521986" style="stroke: #000000; stroke-width: 0.5"/>
      </g>
     </g>
     <g id="text_5">
      <!-- 1.5 -->
      <g transform="translate(21.196719 30.421595) scale(0.05 -0.05)">
       <use xlink:href="#DejaVuSans-31"/>
       <use xlink:href="#DejaVuSans-2e" x="63.623047"/>
       <use xlink:href="#DejaVuSans-35" x="95.410156"/>
      </g>
     </g>
    </g>
    <g id="text_6">
     <!-- $\Delta I(X;R)$ (softmax-IB bound) -->
     <g transform="translate(11.759062 97.595729) rotate(-90) scale(0.06 -0.06)">
      <defs>
       <path id="DejaVuSans-394" d="M 2188 4044 
L 906 525 
L 3472 525 
L 2188 4044 
z
M 50 0 
L 1831 4666 
L 2547 4666 
L 4325 0 
L 50 0 
z
" transform="scale(0.015625)"/>
       <path id="DejaVuSans-Oblique-49" d="M 1081 4666 
L 1716 4666 
L 806 0 
L 172 0 
L 1081 4666 
z
" transform="scale(0.015625)"/>
       <path id="DejaVuSans-28" d="M 1984 4856 
Q 1566 4138 1362 3434 
Q 1159 2731 1159 2009 
Q 1159 1288 1364 580 
Q 1569 -128 1984 -844 
L 1484 -844 
Q 1016 -109 783 600 
Q 550 1309 550 2009 
Q 550 2706 781 3412 
Q 1013 4119 1484 4856 
L 1984 4856 
z
" transform="scale(0.015625)"/>
       <path id="DejaVuSans-Oblique-58" d="M 878 4666 
L 1516 4666 
L 2316 2981 
L 3763 4666 
L 4500 4666 
L 2578 2438 
L 3738 0 
L 3103 0 
L 2163 1966 
L 459 0 
L -275 0 
L 1906 2509 
L 878 4666 
z
" transform="scale(0.015625)"/>
       <path id="DejaVuSans-3b" d="M 750 3309 
L 1409 3309 
L 1409 2516 
L 750 2516 
L 750 3309 
z
M 750 794 
L 1409 794 
L 1409 256 
L 897 -744 
L 494 -744 
L 750 256 
L 750 794 
z
" transform="scale(0.015625)"/>
       <path id="DejaVuSans-Oblique-52" d="M 1613 4147 
L 1294 2491 
L 2106 2491 
Q 2584 2491 2879 2755 
Q 3175 3019 3175 3444 
Q 3175 3784 2976 3965 
Q 2778 4147 2406 4147 
L 1613 4147 
z
M 2772 2241 
Q 2972 2194 3105 2009 
Q 3238 1825 3413 1275 
L 3809 0 
L 3144 0 
L 2778 1197 
Q 2638 1659 2453 1815 
Q 2269 1972 1888 1972 
L 1191 1972 
L 806 0 
L 172 0 
L 1081 4666 
L 2503 4666 
Q 3150 4666 3495 4373 
Q 3841 4081 3841 3531 
Q 3841 3044 3547 2687 
Q 3253 2331 2772 2241 
z
" transform="scale(0.015625)"/>
       <path id="DejaVuSans-29" d="M 513 4856 
L 1013 4856 
Q 1481 4119 1714 3412 
Q 1947 2706 1947 2009 
Q 1947 1309 1714 600 
Q 1481 -109 1013 -844 
L 513 -844 
Q 928 -128 1133 580 
Q 1338 1288 1338 2009 
Q 1338 2731 1133 3434 
Q 928 4138 513 4856 
z
" transform="scale(0.015625)"/>
       <path id="DejaVuSans-20" transform="scale(0.015625)"/>
       <path id="DejaVuSans-73" d="M 2834 3397 
L 2834 2853 
Q 2591 2978 2328 3040 
Q 2066 3103 1784 3103 
Q 1356 3103 1142 2972 
Q 928 2841 928 2578 
Q 928 2378 1081 2264 
Q 1234 2150 1697 2047 
L 1894 2003 
Q 2506 1872 2764 1633 
Q 3022 1394 3022 966 
Q 3022 478 2636 193 
Q 2250 -91 1575 -91 
Q 1294 -91 989 -36 
Q 684 19 347 128 
L 347 722 
Q 666 556 975 473 
Q 1284 391 1588 391 
Q 1994 391 2212 530 
Q 2431 669 2431 922 
Q 2431 1156 2273 1281 
Q 2116 1406 1581 1522 
L 1381 1569 
Q 847 1681 609 1914 
Q 372 2147 372 2553 
Q 372 3047 722 3315 
Q 1072 3584 1716 3584 
Q 2034 3584 2315 3537 
Q 2597 3491 2834 3397 
z
" transform="scale(0.015625)"/>
       <path id="DejaVuSans-6f" d="M 1959 3097 
Q 1497 3097 1228 2736 
Q 959 2375 959 1747 
Q 959 1119 1226 758 
Q 1494 397 1959 397 
Q 2419 397 2687 759 
Q 2956 1122 2956 1747 
Q 2956 2369 2687 2733 
Q 2419 3097 1959 3097 
z
M 1959 3584 
Q 2709 3584 3137 3096 
Q 3566 2609 3566 1747 
Q 3566 888 3137 398 
Q 2709 -91 1959 -91 
Q 1206 -91 779 398 
Q 353 888 353 1747 
Q 353 2609 779 3096 
Q 1206 3584 1959 3584 
z
" transform="scale(0.015625)"/>
       <path id="DejaVuSans-66" d="M 2375 4863 
L 2375 4384 
L 1825 4384 
Q 1516 4384 1395 4259 
Q 1275 4134 1275 3809 
L 1275 3500 
L 2222 3500 
L 2222 3053 
L 1275 3053 
L 1275 0 
L 697 0 
L 697 3053 
L 147 3053 
L 147 3500 
L 697 3500 
L 697 3744 
Q 697 4328 969 4595 
Q 1241 4863 1831 4863 
L 2375 4863 
z
" transform="scale(0.015625)"/>
       <path id="DejaVuSans-74" d="M 1172 4494 
L 1172 3500 
L 2356 3500 
L 2356 3053 
L 1172 3053 
L 1172 1153 
Q 1172 725 1289 603 
Q 1406 481 1766 481 
L 2356 481 
L 2356 0 
L 1766 0 
Q 1100 0 847 248 
Q 594 497 594 1153 
L 594 3053 
L 172 3053 
L 172 3500 
L 594 3500 
L 594 4494 
L 1172 4494 
z
" transform="scale(0.015625)"/>
       <path id="DejaVuSans-6d" d="M 3328 2828 
Q 3544 3216 3844 3400 
Q 4144 3584 4550 3584 
Q 5097 3584 5394 3201 
Q 5691 2819 5691 2113 
L 5691 0 
L 5113 0 
L 5113 2094 
Q 5113 2597 4934 2840 
Q 4756 3084 4391 3084 
Q 3944 3084 3684 2787 
Q 3425 2491 3425 1978 
L 3425 0 
L 2847 0 
L 2847 2094 
Q 2847 2600 2669 2842 
Q 2491 3084 2119 3084 
Q 1678 3084 1418 2786 
Q 1159 2488 1159 1978 
L 1159 0 
L 581 0 
L 581 3500 
L 1159 3500 
L 1159 2956 
Q 1356 3278 1631 3431 
Q 1906 3584 2284 3584 
Q 2666 3584 2933 3390 
Q 3200 3197 3328 2828 
z
" transform="scale(0.015625)"/>
       <path id="DejaVuSans-61" d="M 2194 1759 
Q 1497 1759 1228 1600 
Q 959 1441 959 1056 
Q 959 750 1161 570 
Q 1363 391 1709 391 
Q 2188 391 2477 730 
Q 2766 1069 2766 1631 
L 2766 1759 
L 2194 1759 
z
M 3341 1997 
L 3341 0 
L 2766 0 
L 2766 531 
Q 2569 213 2275 61 
Q 1981 -91 1556 -91 
Q 1019 -91 701 211 
Q 384 513 384 1019 
Q 384 1609 779 1909 
Q 1175 2209 1959 2209 
L 2766 2209 
L 2766 2266 
Q 2766 2663 2505 2880 
Q 2244 3097 1772 3097 
Q 1472 3097 1187 3025 
Q 903 2953 641 2809 
L 641 3341 
Q 956 3463 1253 3523 
Q 1550 3584 1831 3584 
Q 2591 3584 2966 3190 
Q 3341 2797 3341 1997 
z
" transform="scale(0.015625)"/>
       <path id="DejaVuSans-78" d="M 3513 3500 
L 2247 1797 
L 3578 0 
L 2900 0 
L 1881 1375 
L 863 0 
L 184 0 
L 1544 1831 
L 300 3500 
L 978 3500 
L 1906 2253 
L 2834 3500 
L 3513 3500 
z
" transform="scale(0.015625)"/>
       <path id="DejaVuSans-2d" d="M 313 2009 
L 1997 2009 
L 1997 1497 
L 313 1497 
L 313 2009 
z
" transform="scale(0.015625)"/>
       <path id="DejaVuSans-49" d="M 628 4666 
L 1259 4666 
L 1259 0 
L 628 0 
L 628 4666 
z
" transform="scale(0.015625)"/>
       <path id="DejaVuSans-42" d="M 1259 2228 
L 1259 519 
L 2272 519 
Q 2781 519 3026 730 
Q 3272 941 3272 1375 
Q 3272 1813 3026 2020 
Q 2781 2228 2272 2228 
L 1259 2228 
z
M 1259 4147 
L 1259 2741 
L 2194 2741 
Q 2656 2741 2882 2914 
Q 3109 3088 3109 3444 
Q 3109 3797 2882 3972 
Q 2656 4147 2194 4147 
L 1259 4147 
z
M 628 4666 
L 2241 4666 
Q 2963 4666 3353 4366 
Q 3744 4066 3744 3513 
Q 3744 3084 3544 2831 
Q 3344 2578 2956 2516 
Q 3422 2416 3680 2098 
Q 3938 1781 3938 1306 
Q 3938 681 3513 340 
Q 3088 0 2303 0 
L 628 0 
L 628 4666 
z
" transform="scale(0.015625)"/>
       <path id="DejaVuSans-62" d="M 3116 1747 
Q 3116 2381 2855 2742 
Q 2594 3103 2138 3103 
Q 1681 3103 1420 2742 
Q 1159 2381 1159 1747 
Q 1159 1113 1420 752 
Q 1681 391 2138 391 
Q 2594 391 2855 752 
Q 3116 1113 3116 1747 
z
M 1159 2969 
Q 1341 3281 1617 3432 
Q 1894 3584 2278 3584 
Q 2916 3584 3314 3078 
Q 3713 2572 3713 1747 
Q 3713 922 3314 415 
Q 2916 -91 2278 -91 
Q 1894 -91 1617 61 
Q 1341 213 1159 525 
L 1159 0 
L 581 0 
L 581 4863 
L 1159 4863 
L 1159 2969 
z
" transform="scale(0.015625)"/>
       <path id="DejaVuSans-75" d="M 544 1381 
L 544 3500 
L 1119 3500 
L 1119 1403 
Q 1119 906 1312 657 
Q 1506 409 1894 409 
Q 2359 409 2629 706 
Q 2900 1003 2900 1516 
L 2900 3500 
L 3475 3500 
L 3475 0 
L 2900 0 
L 2900 538 
Q 2691 219 2414 64 
Q 2138 -91 1772 -91 
Q 1169 -91 856 284 
Q 544 659 544 1381 
z
M 1991 3584 
L 1991 3584 
z
" transform="scale(0.015625)"/>
       <path id="DejaVuSans-6e" d="M 3513 2113 
L 3513 0 
L 2938 0 
L 2938 2094 
Q 2938 2591 2744 2837 
Q 2550 3084 2163 3084 
Q 1697 3084 1428 2787 
Q 1159 2491 1159 1978 
L 1159 0 
L 581 0 
L 581 3500 
L 1159 3500 
L 1159 2956 
Q 1366 3272 1645 3428 
Q 1925 3584 2291 3584 
Q 2894 3584 3203 3211 
Q 3513 2838 3513 2113 
z
" transform="scale(0.015625)"/>
       <path id="DejaVuSans-64" d="M 2906 2969 
L 2906 4863 
L 3481 4863 
L 3481 0 
L 2906 0 
L 2906 525 
Q 2725 213 2448 61 
Q 2172 -91 1784 -91 
Q 1150 -91 751 415 
Q 353 922 353 1747 
Q 353 2572 751 3078 
Q 1150 3584 1784 3584 
Q 2172 3584 2448 3432 
Q 2725 3281 2906 2969 
z
M 947 1747 
Q 947 1113 1208 752 
Q 1469 391 1925 391 
Q 2381 391 2643 752 
Q 2906 1113 2906 1747 
Q 2906 2381 2643 2742 
Q 2381 3103 1925 3103 
Q 1469 3103 1208 2742 
Q 947 2381 947 1747 
z
" transform="scale(0.015625)"/>
      </defs>
      <use xlink:href="#DejaVuSans-394" transform="translate(0 0.015625)"/>
      <use xlink:href="#DejaVuSans-Oblique-49" transform="translate(68.408203 0.015625)"/>
      <use xlink:href="#DejaVuSans-28" transform="translate(97.900391 0.015625)"/>
      <use xlink:href="#DejaVuSans-Oblique-58" transform="translate(136.914062 0.015625)"/>
      <use xlink:href="#DejaVuSans-3b" transform="translate(205.419922 0.015625)"/>
      <use xlink:href="#DejaVuSans-Oblique-52" transform="translate(258.59375 0.015625)"/>
      <use xlink:href="#DejaVuSans-29" transform="translate(328.076172 0.015625)"/>
      <use xlink:href="#DejaVuSans-20" transform="translate(367.089844 0.015625)"/>
      <use xlink:href="#DejaVuSans-28" transform="translate(398.876953 0.015625)"/>
      <use xlink:href="#DejaVuSans-73" transform="translate(437.890625 0.015625)"/>
      <use xlink:href="#DejaVuSans-6f" transform="translate(489.990234 0.015625)"/>
      <use xlink:href="#DejaVuSans-66" transform="translate(551.171875 0.015625)"/>
      <use xlink:href="#DejaVuSans-74" transform="translate(586.376953 0.015625)"/>
      <use xlink:href="#DejaVuSans-6d" transform="translate(625.585938 0.015625)"/>
      <use xlink:href="#DejaVuSans-61" transform="translate(722.998047 0.015625)"/>
      <use xlink:href="#DejaVuSans-78" transform="translate(784.277344 0.015625)"/>
      <use xlink:href="#DejaVuSans-2d" transform="translate(843.457031 0.015625)"/>
      <use xlink:href="#DejaVuSans-49" transform="translate(879.541016 0.015625)"/>
      <use xlink:href="#DejaVuSans-42" transform="translate(909.033203 0.015625)"/>
      <use xlink:href="#DejaVuSans-20" transform="translate(977.636719 0.015625)"/>
      <use xlink:href="#DejaVuSans-62" transform="translate(1009.423828 0.015625)"/>
      <use xlink:href="#DejaVuSans-6f" transform="translate(1072.900391 0.015625)"/>
      <use xlink:href="#DejaVuSans-75" transform="translate(1134.082031 0.015625)"/>
      <use xlink:href="#DejaVuSans-6e" transform="translate(1197.460938 0.015625)"/>
      <use xlink:href="#DejaVuSans-64" transform="translate(1260.839844 0.015625)"/>
      <use xlink:href="#DejaVuSans-29" transform="translate(1324.316406 0.015625)"/>
     </g>
    </g>
    <g id="text_7">
     <!-- 1e−14 -->
     <g transform="translate(34.648281 14.759062) scale(0.05 -0.05)">
      <defs>
       <path id="DejaVuSans-65" d="M 3597 1894 
L 3597 1613 
L 953 1613 
Q 991 1019 1311 708 
Q 1631 397 2203 397 
Q 2534 397 2845 478 
Q 3156 559 3463 722 
L 3463 178 
Q 3153 47 2828 -22 
Q 2503 -91 2169 -91 
Q 1331 -91 842 396 
Q 353 884 353 1716 
Q 353 2575 817 3079 
Q 1281 3584 2069 3584 
Q 2775 3584 3186 3129 
Q 3597 2675 3597 1894 
z
M 3022 2063 
Q 3016 2534 2758 2815 
Q 2500 3097 2075 3097 
Q 1594 3097 1305 2825 
Q 1016 2553 972 2059 
L 3022 2063 
z
" transform="scale(0.015625)"/>
       <path id="DejaVuSans-34" d="M 2419 4116 
L 825 1625 
L 2419 1625 
L 2419 4116 
z
M 2253 4666 
L 3047 4666 
L 3047 1625 
L 3713 1625 
L 3713 1100 
L 3047 1100 
L 3047 0 
L 2419 0 
L 2419 1100 
L 313 1100 
L 313 1709 
L 2253 4666 
z
" transform="scale(0.015625)"/>
      </defs>
      <use xlink:href="#DejaVuSans-31"/>
      <use xlink:href="#DejaVuSans-65" x="63.623047"/>
      <use xlink:href="#DejaVuSans-2212" x="125.146484"/>
      <use xlink:href="#DejaVuSans-31" x="208.935547"/>
      <use xlink:href="#DejaVuSans-34" x="272.558594"/>
     </g>
    </g>
   </g>
   <g id="line2d_12">
    <path d="M 37.894143 70.519646 
L 38.06879 75.396169 
L 38.359218 72.59592 
L 38.764456 45.382381 
L 39.283155 78.196418 
L 39.913601 91.020173 
L 40.653723 73.795178 
L 41.501111 71.008782 
L 42.453034 48.390422 
L 43.506461 56.992365 
L 44.658077 73.816287 
L 45.904314 31.408182 
L 47.24137 61.15085 
L 48.665237 58.575545 
L 50.171725 41.81495 
L 51.75649 52.622789 
L 53.41506 47.978796 
L 55.142862 61.952995 
L 56.935248 55.915803 
L 58.78752 21.296941 
L 60.694952 86.988342 
L 62.652821 38.268627 
L 64.656421 84.624127 
L 66.701087 59.968743 
L 68.782219 71.789818 
L 70.895292 53.889333 
L 73.035878 92.054517 
L 75.199661 61.741904 
L 77.382447 65.372663 
L 79.580178 59.630998 
L 81.788942 58.280018 
L 84.00498 69.594475 
L 86.224692 65.87928 
L 88.444649 65.034918 
L 90.661587 60.644233 
L 92.872419 71.2832 
L 95.074231 74.829522 
L 97.264284 59.293253 
L 99.440014 79.557952 
L 101.599031 77.700355 
L 103.739114 69.594475 
L 105.858211 63.17732 
L 107.954434 78.375845 
L 110.026055 63.17732 
L 112.071501 63.85281 
L 114.089348 57.942273 
L 116.078318 68.243495 
L 118.03727 69.763348 
L 119.965197 58.617763 
L 121.861218 80.233442 
L 123.724573 63.346193 
L 125.554615 69.425603 
L 127.350807 64.021683 
L 129.112713 71.114328 
L 130.839992 67.399133 
L 132.532394 70.101093 
L 134.189752 65.372663 
L 135.811978 67.061388 
L 137.399056 63.683938 
L 138.951039 66.723643 
L 140.46804 71.114328 
L 141.950231 71.789818 
L 143.397836 68.750113 
L 144.811126 65.372663 
L 146.190417 68.074623 
L 147.536064 73.140798 
L 148.848457 73.816287 
L 150.128019 70.101093 
L 151.375201 66.048153 
L 152.590479 68.074623 
L 153.774351 66.048153 
L 154.927336 73.816287 
L 156.049967 69.763348 
L 157.142793 68.074623 
L 158.206373 72.465308 
L 159.241278 65.372663 
L 160.248083 71.114328 
L 161.227372 73.816287 
L 162.179732 70.101093 
L 163.105751 67.399133 
L 164.006019 71.114328 
L 164.881127 69.763348 
L 165.73166 69.087858 
L 167.361345 75.167267 
L 168.141654 70.776583 
L 168.899704 70.101093 
L 169.63606 70.101093 
L 170.351281 71.452073 
L 171.045918 71.789818 
L 171.720514 73.478543 
L 172.375602 73.478543 
L 173.01171 71.789818 
L 173.629354 70.776583 
L 174.22904 73.816287 
L 174.811268 71.452073 
L 175.376525 70.776583 
L 176.458029 72.803053 
L 176.975202 71.789818 
L 177.477256 72.465308 
L 177.964628 70.438838 
L 178.437745 73.140798 
L 178.897026 74.154032 
L 179.342876 72.803053 
L 179.775693 74.829522 
L 180.999762 69.763348 
L 181.757472 74.154032 
L 182.11987 72.465308 
L 182.471739 73.478543 
L 182.8134 71.452073 
L 183.145162 75.505012 
L 183.46733 71.789818 
L 183.780196 73.140798 
L 184.084046 73.478543 
L 184.379157 72.127563 
L 184.665799 74.154032 
L 184.944233 71.452073 
L 185.214711 74.154032 
L 185.477481 73.816287 
L 185.73278 74.154032 
L 185.98084 74.154032 
L 186.221886 72.803053 
L 186.683797 74.154032 
L 187.120175 73.140798 
L 187.329281 73.140798 
L 187.532582 74.154032 
L 187.730257 73.478543 
L 187.922482 74.154032 
L 188.109425 74.154032 
L 188.291251 74.491777 
L 188.468118 72.127563 
L 188.807584 74.154032 
L 188.970476 72.803053 
L 189.128995 74.154032 
L 189.283276 72.127563 
L 189.579642 73.816287 
L 189.721975 72.803053 
L 189.860569 72.803053 
L 189.995537 73.478543 
L 190.12699 73.478543 
L 190.255036 73.816287 
L 190.379779 73.816287 
L 190.50132 74.491777 
L 190.619755 74.491777 
L 190.735179 73.478543 
L 190.847684 73.816287 
L 190.957356 72.803053 
L 191.168545 73.816287 
L 191.270223 73.816287 
L 191.466136 73.478543 
L 191.560516 73.478543 
L 191.742478 74.154032 
L 191.915814 72.803053 
L 192.081023 74.829522 
L 192.238575 73.140798 
L 192.388908 73.478543 
L 192.461496 73.478543 
L 192.532432 73.816287 
L 192.601762 73.478543 
L 192.669532 74.154032 
L 192.735787 73.816287 
L 192.92588 74.829522 
L 193.045784 73.816287 
L 193.1038 74.491777 
L 193.270534 73.816287 
L 193.375922 74.154032 
L 193.426979 73.816287 
L 193.476984 74.829522 
L 193.525965 73.816287 
L 193.620964 74.154032 
L 193.756445 73.478543 
L 193.842368 74.491777 
L 193.884079 74.154032 
L 193.924985 73.478543 
L 193.965106 73.816287 
L 194.004463 74.154032 
L 194.118141 73.140798 
L 194.190446 72.803053 
L 194.260129 74.491777 
L 194.392129 73.478543 
L 194.485143 74.829522 
L 194.51508 74.491777 
L 194.544504 74.829522 
L 194.573427 74.491777 
L 194.710929 73.478543 
L 194.788124 74.829522 
L 194.813031 74.154032 
L 194.861663 74.491777 
L 194.908775 73.478543 
L 195.041646 74.491777 
L 195.123755 73.478543 
L 195.163029 73.816287 
L 195.219849 74.491777 
L 195.291939 74.154032 
L 195.326504 74.154032 
L 195.343433 74.829522 
L 195.376609 73.478543 
L 195.440349 74.491777 
L 195.455764 74.491777 
L 195.585923 73.478543 
L 195.677535 74.491777 
L 195.702323 74.154032 
L 195.761806 74.829522 
L 195.828831 73.140798 
L 195.950299 74.154032 
L 195.969079 72.803053 
L 196.065781 74.829522 
L 196.106364 73.478543 
L 196.181946 73.816287 
L 196.270389 73.140798 
L 196.224048 74.829522 
L 196.276779 73.816287 
L 196.349334 74.491777 
L 196.289394 73.140798 
L 196.388412 74.154032 
L 196.393814 74.154032 
L 196.399173 74.829522 
L 196.440533 73.140798 
L 196.497915 73.816287 
L 196.590568 73.478543 
L 196.586671 74.829522 
L 196.594437 74.154032 
L 196.698776 75.167267 
L 196.60964 73.478543 
L 196.701899 74.154032 
L 196.754704 75.167267 
L 196.811392 72.803053 
L 196.918044 74.829522 
L 196.923223 73.816287 
L 196.989413 74.829522 
L 197.018878 73.140798 
L 197.034245 74.154032 
L 197.121503 73.140798 
L 197.109296 75.505012 
L 197.145637 73.816287 
L 197.187806 75.167267 
L 197.150729 73.478543 
L 197.196161 74.154032 
" clip-path="url(#p582c8ad0cb)" style="fill: none; stroke: #1f77b4; stroke-width: 0.7; stroke-linecap: square"/>
   </g>
   <g id="line2d_13">
    <path d="M 37.835863 74.154032 
L 197.214931 74.154032 
" clip-path="url(#p582c8ad0cb)" style="fill: none; stroke-dasharray: 2.59,1.12; stroke-dashoffset: 0; stroke: #000000; stroke-width: 0.7"/>
   </g>
   <g id="patch_3">
    <path d="M 34.648281 95.592396 
L 34.648281 17.759062 
" style="fill: none; stroke: #000000; stroke-width: 0.5; stroke-linejoin: miter; stroke-linecap: square"/>
   </g>
   <g id="patch_4">
    <path d="M 34.648281 95.592396 
L 200.402512 95.592396 
" style="fill: none; stroke: #000000; stroke-width: 0.5; stroke-linejoin: miter; stroke-linecap: square"/>
   </g>
   <g id="text_8">
    <!-- $I(X;R)$ difference -->
    <g transform="translate(92.415397 11.759062) scale(0.06 -0.06)">
     <defs>
      <path id="DejaVuSans-69" d="M 603 3500 
L 1178 3500 
L 1178 0 
L 603 0 
L 603 3500 
z
M 603 4863 
L 1178 4863 
L 1178 4134 
L 603 4134 
L 603 4863 
z
" transform="scale(0.015625)"/>
      <path id="DejaVuSans-72" d="M 2631 2963 
Q 2534 3019 2420 3045 
Q 2306 3072 2169 3072 
Q 1681 3072 1420 2755 
Q 1159 2438 1159 1844 
L 1159 0 
L 581 0 
L 581 3500 
L 1159 3500 
L 1159 2956 
Q 1341 3275 1631 3429 
Q 1922 3584 2338 3584 
Q 2397 3584 2469 3576 
Q 2541 3569 2628 3553 
L 2631 2963 
z
" transform="scale(0.015625)"/>
      <path id="DejaVuSans-63" d="M 3122 3366 
L 3122 2828 
Q 2878 2963 2633 3030 
Q 2388 3097 2138 3097 
Q 1578 3097 1268 2742 
Q 959 2388 959 1747 
Q 959 1106 1268 751 
Q 1578 397 2138 397 
Q 2388 397 2633 464 
Q 2878 531 3122 666 
L 3122 134 
Q 2881 22 2623 -34 
Q 2366 -91 2075 -91 
Q 1284 -91 818 406 
Q 353 903 353 1747 
Q 353 2603 823 3093 
Q 1294 3584 2113 3584 
Q 2378 3584 2631 3529 
Q 2884 3475 3122 3366 
z
" transform="scale(0.015625)"/>
     </defs>
     <use xlink:href="#DejaVuSans-Oblique-49" transform="translate(0 0.015625)"/>
     <use xlink:href="#DejaVuSans-28" transform="translate(29.492188 0.015625)"/>
     <use xlink:href="#DejaVuSans-Oblique-58" transform="translate(68.505859 0.015625)"/>
     <use xlink:href="#DejaVuSans-3b" transform="translate(137.011719 0.015625)"/>
     <use xlink:href="#DejaVuSans-Oblique-52" transform="translate(190.185547 0.015625)"/>
     <use xlink:href="#DejaVuSans-29" transform="translate(259.667969 0.015625)"/>
     <use xlink:href="#DejaVuSans-20" transform="translate(298.681641 0.015625)"/>
     <use xlink:href="#DejaVuSans-64" transform="translate(330.46875 0.015625)"/>
     <use xlink:href="#DejaVuSans-69" transform="translate(393.945312 0.015625)"/>
     <use xlink:href="#DejaVuSans-66" transform="translate(421.728516 0.015625)"/>
     <use xlink:href="#DejaVuSans-66" transform="translate(456.933594 0.015625)"/>
     <use xlink:href="#DejaVuSans-65" transform="translate(492.138672 0.015625)"/>
     <use xlink:href="#DejaVuSans-72" transform="translate(553.662109 0.015625)"/>
     <use xlink:href="#DejaVuSans-65" transform="translate(594.775391 0.015625)"/>
     <use xlink:href="#DejaVuSans-6e" transform="translate(656.298828 0.015625)"/>
     <use xlink:href="#DejaVuSans-63" transform="translate(719.677734 0.015625)"/>
     <use xlink:href="#DejaVuSans-65" transform="translate(774.658203 0.015625)"/>
    </g>
   </g>
  </g>
  <g id="axes_2">
   <g id="patch_5">
    <path d="M 34.648281 197.265729 
L 200.402512 197.265729 
L 200.402512 119.432396 
L 34.648281 119.432396 
z
" style="fill: #ffffff"/>
   </g>
   <g id="matplotlib.axis_3">
    <g id="xtick_7">
     <g id="line2d_14">
      <g>
       <use xlink:href="#m8a19fa6d03" x="37.835863" y="197.265729" style="stroke: #000000; stroke-width: 0.5"/>
      </g>
     </g>
    </g>
    <g id="xtick_8">
     <g id="line2d_15">
      <g>
       <use xlink:href="#m8a19fa6d03" x="69.711676" y="197.265729" style="stroke: #000000; stroke-width: 0.5"/>
      </g>
     </g>
    </g>
    <g id="xtick_9">
     <g id="line2d_16">
      <g>
       <use xlink:href="#m8a19fa6d03" x="101.58749" y="197.265729" style="stroke: #000000; stroke-width: 0.5"/>
      </g>
     </g>
    </g>
    <g id="xtick_10">
     <g id="line2d_17">
      <g>
       <use xlink:href="#m8a19fa6d03" x="133.463303" y="197.265729" style="stroke: #000000; stroke-width: 0.5"/>
      </g>
     </g>
    </g>
    <g id="xtick_11">
     <g id="line2d_18">
      <g>
       <use xlink:href="#m8a19fa6d03" x="165.339117" y="197.265729" style="stroke: #000000; stroke-width: 0.5"/>
      </g>
     </g>
    </g>
    <g id="xtick_12">
     <g id="line2d_19">
      <g>
       <use xlink:href="#m8a19fa6d03" x="197.214931" y="197.265729" style="stroke: #000000; stroke-width: 0.5"/>
      </g>
     </g>
    </g>
   </g>
   <g id="matplotlib.axis_4">
    <g id="ytick_6">
     <g id="line2d_20">
      <g>
       <use xlink:href="#m0bc604aa3c" x="34.648281" y="192.953655" style="stroke: #000000; stroke-width: 0.5"/>
      </g>
     </g>
     <g id="text_9">
      <!-- −0.5 -->
      <g transform="translate(17.006875 194.853264) scale(0.05 -0.05)">
       <use xlink:href="#DejaVuSans-2212"/>
       <use xlink:href="#DejaVuSans-30" x="83.789062"/>
       <use xlink:href="#DejaVuSans-2e" x="147.412109"/>
       <use xlink:href="#DejaVuSans-35" x="179.199219"/>
      </g>
     </g>
    </g>
    <g id="ytick_7">
     <g id="line2d_21">
      <g>
       <use xlink:href="#m0bc604aa3c" x="34.648281" y="175.200797" style="stroke: #000000; stroke-width: 0.5"/>
      </g>
     </g>
     <g id="text_10">
      <!-- 0.0 -->
      <g transform="translate(21.196719 177.100406) scale(0.05 -0.05)">
       <use xlink:href="#DejaVuSans-30"/>
       <use xlink:href="#DejaVuSans-2e" x="63.623047"/>
       <use xlink:href="#DejaVuSans-30" x="95.410156"/>
      </g>
     </g>
    </g>
    <g id="ytick_8">
     <g id="line2d_22">
      <g>
       <use xlink:href="#m0bc604aa3c" x="34.648281" y="157.44794" style="stroke: #000000; stroke-width: 0.5"/>
      </g>
     </g>
     <g id="text_11">
      <!-- 0.5 -->
      <g transform="translate(21.196719 159.347549) scale(0.05 -0.05)">
       <use xlink:href="#DejaVuSans-30"/>
       <use xlink:href="#DejaVuSans-2e" x="63.623047"/>
       <use xlink:href="#DejaVuSans-35" x="95.410156"/>
      </g>
     </g>
    </g>
    <g id="ytick_9">
     <g id="line2d_23">
      <g>
       <use xlink:href="#m0bc604aa3c" x="34.648281" y="139.695082" style="stroke: #000000; stroke-width: 0.5"/>
      </g>
     </g>
     <g id="text_12">
      <!-- 1.0 -->
      <g transform="translate(21.196719 141.594692) scale(0.05 -0.05)">
       <use xlink:href="#DejaVuSans-31"/>
       <use xlink:href="#DejaVuSans-2e" x="63.623047"/>
       <use xlink:href="#DejaVuSans-30" x="95.410156"/>
      </g>
     </g>
    </g>
    <g id="ytick_10">
     <g id="line2d_24">
      <g>
       <use xlink:href="#m0bc604aa3c" x="34.648281" y="121.942225" style="stroke: #000000; stroke-width: 0.5"/>
      </g>
     </g>
     <g id="text_13">
      <!-- 1.5 -->
      <g transform="translate(21.196719 123.841834) scale(0.05 -0.05)">
       <use xlink:href="#DejaVuSans-31"/>
       <use xlink:href="#DejaVuSans-2e" x="63.623047"/>
       <use xlink:href="#DejaVuSans-35" x="95.410156"/>
      </g>
     </g>
    </g>
    <g id="text_14">
     <!-- $\Delta I(R;Y)$ (softmax-IB bound) -->
     <g transform="translate(11.759062 199.029062) rotate(-90) scale(0.06 -0.06)">
      <defs>
       <path id="DejaVuSans-Oblique-59" d="M 403 4666 
L 1081 4666 
L 1953 2747 
L 3616 4666 
L 4325 4666 
L 2209 2222 
L 1778 0 
L 1147 0 
L 1575 2222 
L 403 4666 
z
" transform="scale(0.015625)"/>
      </defs>
      <use xlink:href="#DejaVuSans-394" transform="translate(0 0.015625)"/>
      <use xlink:href="#DejaVuSans-Oblique-49" transform="translate(68.408203 0.015625)"/>
      <use xlink:href="#DejaVuSans-28" transform="translate(97.900391 0.015625)"/>
      <use xlink:href="#DejaVuSans-Oblique-52" transform="translate(136.914062 0.015625)"/>
      <use xlink:href="#DejaVuSans-3b" transform="translate(206.396484 0.015625)"/>
      <use xlink:href="#DejaVuSans-Oblique-59" transform="translate(259.570312 0.015625)"/>
      <use xlink:href="#DejaVuSans-29" transform="translate(320.654297 0.015625)"/>
      <use xlink:href="#DejaVuSans-20" transform="translate(359.667969 0.015625)"/>
      <use xlink:href="#DejaVuSans-28" transform="translate(391.455078 0.015625)"/>
      <use xlink:href="#DejaVuSans-73" transform="translate(430.46875 0.015625)"/>
      <use xlink:href="#DejaVuSans-6f" transform="translate(482.568359 0.015625)"/>
      <use xlink:href="#DejaVuSans-66" transform="translate(543.75 0.015625)"/>
      <use xlink:href="#DejaVuSans-74" transform="translate(578.955078 0.015625)"/>
      <use xlink:href="#DejaVuSans-6d" transform="translate(618.164062 0.015625)"/>
      <use xlink:href="#DejaVuSans-61" transform="translate(715.576172 0.015625)"/>
      <use xlink:href="#DejaVuSans-78" transform="translate(776.855469 0.015625)"/>
      <use xlink:href="#DejaVuSans-2d" transform="translate(836.035156 0.015625)"/>
      <use xlink:href="#DejaVuSans-49" transform="translate(872.119141 0.015625)"/>
      <use xlink:href="#DejaVuSans-42" transform="translate(901.611328 0.015625)"/>
      <use xlink:href="#DejaVuSans-20" transform="translate(970.214844 0.015625)"/>
      <use xlink:href="#DejaVuSans-62" transform="translate(1002.001953 0.015625)"/>
      <use xlink:href="#DejaVuSans-6f" transform="translate(1065.478516 0.015625)"/>
      <use xlink:href="#DejaVuSans-75" transform="translate(1126.660156 0.015625)"/>
      <use xlink:href="#DejaVuSans-6e" transform="translate(1190.039062 0.015625)"/>
      <use xlink:href="#DejaVuSans-64" transform="translate(1253.417969 0.015625)"/>
      <use xlink:href="#DejaVuSans-29" transform="translate(1316.894531 0.015625)"/>
     </g>
    </g>
    <g id="text_15">
     <!-- 1e−14 -->
     <g transform="translate(34.648281 116.432396) scale(0.05 -0.05)">
      <use xlink:href="#DejaVuSans-31"/>
      <use xlink:href="#DejaVuSans-65" x="63.623047"/>
      <use xlink:href="#DejaVuSans-2212" x="125.146484"/>
      <use xlink:href="#DejaVuSans-31" x="208.935547"/>
      <use xlink:href="#DejaVuSans-34" x="272.558594"/>
     </g>
    </g>
   </g>
   <g id="line2d_25">
    <path d="M 37.894143 170.978625 
L 38.06879 176.112368 
L 38.359218 173.303745 
L 38.764456 145.38998 
L 39.283155 180.744131 
L 39.913601 192.865554 
L 40.653723 174.831242 
L 41.501111 171.677701 
L 42.453034 151.056499 
L 43.506461 159.383818 
L 44.658077 175.200797 
L 45.904314 132.085979 
L 47.24137 161.847522 
L 48.665237 159.53164 
L 50.171725 144.601595 
L 51.75649 154.012944 
L 53.41506 150.760855 
L 55.142862 162.931552 
L 56.935248 158.299788 
L 58.78752 122.970275 
L 60.694952 188.307702 
L 62.652821 139.378543 
L 64.656421 188.209154 
L 66.701087 162.586633 
L 68.782219 172.638545 
L 70.895292 155.29407 
L 73.035878 193.72785 
L 75.199661 164.163404 
L 77.382447 166.824204 
L 79.580178 162.093892 
L 81.788942 158.546159 
L 84.00498 170.371937 
L 86.224692 167.711137 
L 88.444649 167.711137 
L 90.661587 164.163404 
L 92.872419 171.653064 
L 95.074231 175.989182 
L 97.264284 163.375018 
L 99.440014 180.719494 
L 101.599031 179.734012 
L 103.739114 171.061775 
L 105.858211 165.93727 
L 107.954434 181.507879 
L 110.026055 165.740174 
L 112.071501 167.514041 
L 114.089348 159.433092 
L 116.078318 167.514041 
L 118.03727 172.441449 
L 119.965197 159.630189 
L 121.861218 179.931109 
L 123.724573 164.951789 
L 125.554615 171.85016 
L 127.350807 165.345982 
L 129.112713 170.864678 
L 130.839992 167.908234 
L 132.532394 170.864678 
L 134.189752 168.696619 
L 135.811978 169.879197 
L 137.399056 165.543078 
L 138.951039 169.287908 
L 140.46804 172.441449 
L 141.950231 172.835641 
L 143.397836 169.287908 
L 144.811126 168.499523 
L 146.190417 171.653064 
L 147.536064 174.412412 
L 148.848457 175.989182 
L 150.128019 172.441449 
L 151.375201 168.10533 
L 152.590479 168.893715 
L 153.774351 166.134367 
L 154.927336 174.806604 
L 156.049967 172.047256 
L 157.142793 171.653064 
L 158.206373 173.624027 
L 159.241278 167.711137 
L 160.248083 172.835641 
L 161.227372 174.018219 
L 162.179732 172.047256 
L 163.105751 168.893715 
L 164.006019 172.835641 
L 164.881127 170.864678 
L 165.73166 170.470486 
L 166.558206 175.200797 
L 167.361345 175.989182 
L 168.141654 173.229834 
L 168.899704 172.047256 
L 169.63606 171.258871 
L 170.351281 173.624027 
L 171.045918 174.806604 
L 171.720514 174.412412 
L 173.01171 174.412412 
L 173.629354 172.835641 
L 174.22904 175.200797 
L 174.811268 174.412412 
L 175.376525 174.412412 
L 175.92529 174.018219 
L 176.458029 174.412412 
L 176.975202 175.59499 
L 177.477256 174.806604 
L 177.964628 171.653064 
L 178.437745 175.59499 
L 178.897026 175.59499 
L 179.342876 174.018219 
L 179.775693 175.989182 
L 180.195863 174.806604 
L 180.603764 175.200797 
L 180.999762 172.835641 
L 181.384216 174.018219 
L 181.757472 175.59499 
L 182.11987 173.624027 
L 182.471739 175.59499 
L 182.8134 173.229834 
L 183.145162 175.989182 
L 183.46733 174.018219 
L 183.780196 174.412412 
L 184.084046 174.412412 
L 184.379157 174.018219 
L 184.665799 175.200797 
L 184.944233 172.835641 
L 185.214711 175.989182 
L 185.477481 175.200797 
L 185.73278 175.59499 
L 185.98084 175.59499 
L 186.221886 174.412412 
L 186.456135 174.412412 
L 186.683797 174.806604 
L 187.120175 174.806604 
L 187.329281 175.200797 
L 187.532582 174.412412 
L 187.730257 175.200797 
L 188.109425 175.200797 
L 188.291251 175.989182 
L 188.468118 173.229834 
L 188.640179 173.624027 
L 188.807584 175.200797 
L 189.128995 175.200797 
L 189.283276 173.624027 
L 189.43345 176.383375 
L 189.579642 174.412412 
L 189.860569 173.624027 
L 189.995537 175.989182 
L 190.255036 174.806604 
L 190.379779 174.806604 
L 190.619755 176.383375 
L 190.847684 174.412412 
L 191.064283 174.412412 
L 191.270223 175.989182 
L 191.369395 173.229834 
L 191.466136 175.200797 
L 191.652608 174.412412 
L 191.742478 175.200797 
L 191.915814 174.806604 
L 191.999404 175.200797 
L 192.081023 174.806604 
L 192.160729 175.200797 
L 192.238575 174.412412 
L 192.314618 174.806604 
L 192.388908 174.412412 
L 192.461496 174.806604 
L 192.532432 175.989182 
L 192.601762 173.624027 
L 192.669532 176.383375 
L 192.735787 174.806604 
L 192.92588 176.383375 
L 193.1038 174.412412 
L 193.270534 175.59499 
L 193.375922 174.806604 
L 193.476984 176.383375 
L 193.620964 175.200797 
L 193.756445 174.806604 
L 193.842368 176.383375 
L 193.965106 175.200797 
L 194.004463 175.59499 
L 194.043075 173.624027 
L 194.118141 174.018219 
L 194.15463 175.989182 
L 194.190446 172.835641 
L 194.225607 175.200797 
L 194.360012 175.989182 
L 194.392129 174.412412 
L 194.454681 174.806604 
L 194.485143 176.383375 
L 194.573427 175.200797 
L 194.601861 175.989182 
L 194.657307 174.806604 
L 194.684341 175.200797 
L 194.737083 175.200797 
L 194.762812 174.806604 
L 194.813031 175.200797 
L 194.861663 175.989182 
L 194.885404 174.018219 
L 194.976741 174.806604 
L 194.998706 174.018219 
L 195.041646 175.989182 
L 195.062634 174.412412 
L 195.123755 175.59499 
L 195.163029 175.200797 
L 195.238254 175.989182 
L 195.291939 174.412412 
L 195.343433 176.383375 
L 195.440349 175.989182 
L 195.558268 174.412412 
L 195.612901 175.59499 
L 195.599495 173.624027 
L 195.677535 175.200797 
L 195.702323 174.018219 
L 195.795886 177.17176 
L 195.881362 174.412412 
L 195.911537 175.200797 
L 195.931123 173.624027 
L 195.959738 175.59499 
L 196.014368 175.200797 
L 196.065781 176.777568 
L 196.082251 174.412412 
L 196.122057 175.989182 
L 196.244261 174.412412 
L 196.289394 173.624027 
L 196.36073 175.989182 
L 196.440533 173.624027 
L 196.469888 174.806604 
L 196.479374 176.383375 
L 196.502463 174.018219 
L 196.578793 175.59499 
L 196.62805 174.018219 
L 196.686074 176.383375 
L 196.689281 175.200797 
L 196.786613 177.565953 
L 196.770967 173.624027 
L 196.799199 175.200797 
L 196.801669 175.200797 
L 196.852242 173.624027 
L 196.834653 177.17176 
L 196.909201 174.018219 
L 196.984085 177.17176 
L 196.962942 173.624027 
L 197.020018 175.200797 
L 197.125776 173.624027 
L 197.123664 177.565953 
L 197.130352 175.200797 
L 197.195823 175.989182 
L 197.163887 173.624027 
L 197.196161 175.200797 
" clip-path="url(#p8583001eb1)" style="fill: none; stroke: #1f77b4; stroke-width: 0.7; stroke-linecap: square"/>
   </g>
   <g id="line2d_26">
    <path d="M 37.835863 175.200797 
L 197.214931 175.200797 
" clip-path="url(#p8583001eb1)" style="fill: none; stroke-dasharray: 2.59,1.12; stroke-dashoffset: 0; stroke: #000000; stroke-width: 0.7"/>
   </g>
   <g id="patch_6">
    <path d="M 34.648281 197.265729 
L 34.648281 119.432396 
" style="fill: none; stroke: #000000; stroke-width: 0.5; stroke-linejoin: miter; stroke-linecap: square"/>
   </g>
   <g id="patch_7">
    <path d="M 34.648281 197.265729 
L 200.402512 197.265729 
" style="fill: none; stroke: #000000; stroke-width: 0.5; stroke-linejoin: miter; stroke-linecap: square"/>
   </g>
   <g id="text_16">
    <!-- $I(R;Y)$ difference -->
    <g transform="translate(92.655397 113.432396) scale(0.06 -0.06)">
     <use xlink:href="#DejaVuSans-Oblique-49" transform="translate(0 0.015625)"/>
     <use xlink:href="#DejaVuSans-28" transform="translate(29.492188 0.015625)"/>
     <use xlink:href="#DejaVuSans-Oblique-52" transform="translate(68.505859 0.015625)"/>
     <use xlink:href="#DejaVuSans-3b" transform="translate(137.988281 0.015625)"/>
     <use xlink:href="#DejaVuSans-Oblique-59" transform="translate(191.162109 0.015625)"/>
     <use xlink:href="#DejaVuSans-29" transform="translate(252.246094 0.015625)"/>
     <use xlink:href="#DejaVuSans-20" transform="translate(291.259766 0.015625)"/>
     <use xlink:href="#DejaVuSans-64" transform="translate(323.046875 0.015625)"/>
     <use xlink:href="#DejaVuSans-69" transform="translate(386.523438 0.015625)"/>
     <use xlink:href="#DejaVuSans-66" transform="translate(414.306641 0.015625)"/>
     <use xlink:href="#DejaVuSans-66" transform="translate(449.511719 0.015625)"/>
     <use xlink:href="#DejaVuSans-65" transform="translate(484.716797 0.015625)"/>
     <use xlink:href="#DejaVuSans-72" transform="translate(546.240234 0.015625)"/>
     <use xlink:href="#DejaVuSans-65" transform="translate(587.353516 0.015625)"/>
     <use xlink:href="#DejaVuSans-6e" transform="translate(648.876953 0.015625)"/>
     <use xlink:href="#DejaVuSans-63" transform="translate(712.255859 0.015625)"/>
     <use xlink:href="#DejaVuSans-65" transform="translate(767.236328 0.015625)"/>
    </g>
   </g>
  </g>
  <g id="axes_3">
   <g id="patch_8">
    <path d="M 34.648281 298.939062 
L 200.402512 298.939062 
L 200.402512 221.105729 
L 34.648281 221.105729 
z
" style="fill: #ffffff"/>
   </g>
   <g id="matplotlib.axis_5">
    <g id="xtick_13">
     <g id="line2d_27">
      <g>
       <use xlink:href="#m8a19fa6d03" x="37.835863" y="298.939062" style="stroke: #000000; stroke-width: 0.5"/>
      </g>
     </g>
     <g id="text_17">
      <!-- 0.0 -->
      <g transform="translate(33.860081 308.238281) scale(0.05 -0.05)">
       <use xlink:href="#DejaVuSans-30"/>
       <use xlink:href="#DejaVuSans-2e" x="63.623047"/>
       <use xlink:href="#DejaVuSans-30" x="95.410156"/>
      </g>
     </g>
    </g>
    <g id="xtick_14">
     <g id="line2d_28">
      <g>
       <use xlink:href="#m8a19fa6d03" x="69.711676" y="298.939062" style="stroke: #000000; stroke-width: 0.5"/>
      </g>
     </g>
     <g id="text_18">
      <!-- 0.2 -->
      <g transform="translate(65.735895 308.238281) scale(0.05 -0.05)">
       <defs>
        <path id="DejaVuSans-32" d="M 1228 531 
L 3431 531 
L 3431 0 
L 469 0 
L 469 531 
Q 828 903 1448 1529 
Q 2069 2156 2228 2338 
Q 2531 2678 2651 2914 
Q 2772 3150 2772 3378 
Q 2772 3750 2511 3984 
Q 2250 4219 1831 4219 
Q 1534 4219 1204 4116 
Q 875 4013 500 3803 
L 500 4441 
Q 881 4594 1212 4672 
Q 1544 4750 1819 4750 
Q 2544 4750 2975 4387 
Q 3406 4025 3406 3419 
Q 3406 3131 3298 2873 
Q 3191 2616 2906 2266 
Q 2828 2175 2409 1742 
Q 1991 1309 1228 531 
z
" transform="scale(0.015625)"/>
       </defs>
       <use xlink:href="#DejaVuSans-30"/>
       <use xlink:href="#DejaVuSans-2e" x="63.623047"/>
       <use xlink:href="#DejaVuSans-32" x="95.410156"/>
      </g>
     </g>
    </g>
    <g id="xtick_15">
     <g id="line2d_29">
      <g>
       <use xlink:href="#m8a19fa6d03" x="101.58749" y="298.939062" style="stroke: #000000; stroke-width: 0.5"/>
      </g>
     </g>
     <g id="text_19">
      <!-- 0.4 -->
      <g transform="translate(97.611709 308.238281) scale(0.05 -0.05)">
       <use xlink:href="#DejaVuSans-30"/>
       <use xlink:href="#DejaVuSans-2e" x="63.623047"/>
       <use xlink:href="#DejaVuSans-34" x="95.410156"/>
      </g>
     </g>
    </g>
    <g id="xtick_16">
     <g id="line2d_30">
      <g>
       <use xlink:href="#m8a19fa6d03" x="133.463303" y="298.939062" style="stroke: #000000; stroke-width: 0.5"/>
      </g>
     </g>
     <g id="text_20">
      <!-- 0.6 -->
      <g transform="translate(129.487522 308.238281) scale(0.05 -0.05)">
       <defs>
        <path id="DejaVuSans-36" d="M 2113 2584 
Q 1688 2584 1439 2293 
Q 1191 2003 1191 1497 
Q 1191 994 1439 701 
Q 1688 409 2113 409 
Q 2538 409 2786 701 
Q 3034 994 3034 1497 
Q 3034 2003 2786 2293 
Q 2538 2584 2113 2584 
z
M 3366 4563 
L 3366 3988 
Q 3128 4100 2886 4159 
Q 2644 4219 2406 4219 
Q 1781 4219 1451 3797 
Q 1122 3375 1075 2522 
Q 1259 2794 1537 2939 
Q 1816 3084 2150 3084 
Q 2853 3084 3261 2657 
Q 3669 2231 3669 1497 
Q 3669 778 3244 343 
Q 2819 -91 2113 -91 
Q 1303 -91 875 529 
Q 447 1150 447 2328 
Q 447 3434 972 4092 
Q 1497 4750 2381 4750 
Q 2619 4750 2861 4703 
Q 3103 4656 3366 4563 
z
" transform="scale(0.015625)"/>
       </defs>
       <use xlink:href="#DejaVuSans-30"/>
       <use xlink:href="#DejaVuSans-2e" x="63.623047"/>
       <use xlink:href="#DejaVuSans-36" x="95.410156"/>
      </g>
     </g>
    </g>
    <g id="xtick_17">
     <g id="line2d_31">
      <g>
       <use xlink:href="#m8a19fa6d03" x="165.339117" y="298.939062" style="stroke: #000000; stroke-width: 0.5"/>
      </g>
     </g>
     <g id="text_21">
      <!-- 0.8 -->
      <g transform="translate(161.363336 308.238281) scale(0.05 -0.05)">
       <defs>
        <path id="DejaVuSans-38" d="M 2034 2216 
Q 1584 2216 1326 1975 
Q 1069 1734 1069 1313 
Q 1069 891 1326 650 
Q 1584 409 2034 409 
Q 2484 409 2743 651 
Q 3003 894 3003 1313 
Q 3003 1734 2745 1975 
Q 2488 2216 2034 2216 
z
M 1403 2484 
Q 997 2584 770 2862 
Q 544 3141 544 3541 
Q 544 4100 942 4425 
Q 1341 4750 2034 4750 
Q 2731 4750 3128 4425 
Q 3525 4100 3525 3541 
Q 3525 3141 3298 2862 
Q 3072 2584 2669 2484 
Q 3125 2378 3379 2068 
Q 3634 1759 3634 1313 
Q 3634 634 3220 271 
Q 2806 -91 2034 -91 
Q 1263 -91 848 271 
Q 434 634 434 1313 
Q 434 1759 690 2068 
Q 947 2378 1403 2484 
z
M 1172 3481 
Q 1172 3119 1398 2916 
Q 1625 2713 2034 2713 
Q 2441 2713 2670 2916 
Q 2900 3119 2900 3481 
Q 2900 3844 2670 4047 
Q 2441 4250 2034 4250 
Q 1625 4250 1398 4047 
Q 1172 3844 1172 3481 
z
" transform="scale(0.015625)"/>
       </defs>
       <use xlink:href="#DejaVuSans-30"/>
       <use xlink:href="#DejaVuSans-2e" x="63.623047"/>
       <use xlink:href="#DejaVuSans-38" x="95.410156"/>
      </g>
     </g>
    </g>
    <g id="xtick_18">
     <g id="line2d_32">
      <g>
       <use xlink:href="#m8a19fa6d03" x="197.214931" y="298.939062" style="stroke: #000000; stroke-width: 0.5"/>
      </g>
     </g>
     <g id="text_22">
      <!-- 1.0 -->
      <g transform="translate(193.239149 308.238281) scale(0.05 -0.05)">
       <use xlink:href="#DejaVuSans-31"/>
       <use xlink:href="#DejaVuSans-2e" x="63.623047"/>
       <use xlink:href="#DejaVuSans-30" x="95.410156"/>
      </g>
     </g>
    </g>
   </g>
   <g id="matplotlib.axis_6">
    <g id="ytick_11">
     <g id="line2d_33">
      <g>
       <use xlink:href="#m0bc604aa3c" x="34.648281" y="295.401184" style="stroke: #000000; stroke-width: 0.5"/>
      </g>
     </g>
     <g id="text_23">
      <!-- 0 -->
      <g transform="translate(25.967031 297.300793) scale(0.05 -0.05)">
       <use xlink:href="#DejaVuSans-30"/>
      </g>
     </g>
    </g>
    <g id="ytick_12">
     <g id="line2d_34">
      <g>
       <use xlink:href="#m0bc604aa3c" x="34.648281" y="278.176114" style="stroke: #000000; stroke-width: 0.5"/>
      </g>
     </g>
     <g id="text_24">
      <!-- 1 -->
      <g transform="translate(25.967031 280.075723) scale(0.05 -0.05)">
       <use xlink:href="#DejaVuSans-31"/>
      </g>
     </g>
    </g>
    <g id="ytick_13">
     <g id="line2d_35">
      <g>
       <use xlink:href="#m0bc604aa3c" x="34.648281" y="260.951044" style="stroke: #000000; stroke-width: 0.5"/>
      </g>
     </g>
     <g id="text_25">
      <!-- 2 -->
      <g transform="translate(25.967031 262.850653) scale(0.05 -0.05)">
       <use xlink:href="#DejaVuSans-32"/>
      </g>
     </g>
    </g>
    <g id="ytick_14">
     <g id="line2d_36">
      <g>
       <use xlink:href="#m0bc604aa3c" x="34.648281" y="243.725974" style="stroke: #000000; stroke-width: 0.5"/>
      </g>
     </g>
     <g id="text_26">
      <!-- 3 -->
      <g transform="translate(25.967031 245.625584) scale(0.05 -0.05)">
       <defs>
        <path id="DejaVuSans-33" d="M 2597 2516 
Q 3050 2419 3304 2112 
Q 3559 1806 3559 1356 
Q 3559 666 3084 287 
Q 2609 -91 1734 -91 
Q 1441 -91 1130 -33 
Q 819 25 488 141 
L 488 750 
Q 750 597 1062 519 
Q 1375 441 1716 441 
Q 2309 441 2620 675 
Q 2931 909 2931 1356 
Q 2931 1769 2642 2001 
Q 2353 2234 1838 2234 
L 1294 2234 
L 1294 2753 
L 1863 2753 
Q 2328 2753 2575 2939 
Q 2822 3125 2822 3475 
Q 2822 3834 2567 4026 
Q 2313 4219 1838 4219 
Q 1578 4219 1281 4162 
Q 984 4106 628 3988 
L 628 4550 
Q 988 4650 1302 4700 
Q 1616 4750 1894 4750 
Q 2613 4750 3031 4423 
Q 3450 4097 3450 3541 
Q 3450 3153 3228 2886 
Q 3006 2619 2597 2516 
z
" transform="scale(0.015625)"/>
       </defs>
       <use xlink:href="#DejaVuSans-33"/>
      </g>
     </g>
    </g>
    <g id="ytick_15">
     <g id="line2d_37">
      <g>
       <use xlink:href="#m0bc604aa3c" x="34.648281" y="226.500904" style="stroke: #000000; stroke-width: 0.5"/>
      </g>
     </g>
     <g id="text_27">
      <!-- 4 -->
      <g transform="translate(25.967031 228.400514) scale(0.05 -0.05)">
       <use xlink:href="#DejaVuSans-34"/>
      </g>
     </g>
    </g>
    <g id="text_28">
     <!-- max $\Delta p(r|x)$ (softmax-IB bound) -->
     <g transform="translate(20.527031 307.722396) rotate(-90) scale(0.06 -0.06)">
      <defs>
       <path id="DejaVuSans-Oblique-70" d="M 3175 2156 
Q 3175 2616 2975 2859 
Q 2775 3103 2400 3103 
Q 2144 3103 1911 2972 
Q 1678 2841 1497 2591 
Q 1319 2344 1212 1994 
Q 1106 1644 1106 1300 
Q 1106 863 1306 627 
Q 1506 391 1875 391 
Q 2147 391 2380 519 
Q 2613 647 2778 891 
Q 2956 1147 3065 1494 
Q 3175 1841 3175 2156 
z
M 1394 2969 
Q 1625 3272 1939 3428 
Q 2253 3584 2638 3584 
Q 3175 3584 3472 3232 
Q 3769 2881 3769 2247 
Q 3769 1728 3584 1258 
Q 3400 788 3053 416 
Q 2822 169 2531 39 
Q 2241 -91 1919 -91 
Q 1547 -91 1294 64 
Q 1041 219 916 525 
L 556 -1331 
L -19 -1331 
L 922 3500 
L 1497 3500 
L 1394 2969 
z
" transform="scale(0.015625)"/>
       <path id="DejaVuSans-Oblique-72" d="M 2853 2969 
Q 2766 3016 2653 3041 
Q 2541 3066 2413 3066 
Q 1953 3066 1609 2717 
Q 1266 2369 1153 1784 
L 800 0 
L 225 0 
L 909 3500 
L 1484 3500 
L 1375 2956 
Q 1603 3259 1920 3421 
Q 2238 3584 2597 3584 
Q 2691 3584 2781 3573 
Q 2872 3563 2963 3538 
L 2853 2969 
z
" transform="scale(0.015625)"/>
       <path id="DejaVuSans-7c" d="M 1344 4891 
L 1344 -1509 
L 813 -1509 
L 813 4891 
L 1344 4891 
z
" transform="scale(0.015625)"/>
       <path id="DejaVuSans-Oblique-78" d="M 3841 3500 
L 2234 1784 
L 3219 0 
L 2559 0 
L 1819 1388 
L 531 0 
L -166 0 
L 1556 1844 
L 641 3500 
L 1300 3500 
L 1972 2234 
L 3144 3500 
L 3841 3500 
z
" transform="scale(0.015625)"/>
      </defs>
      <use xlink:href="#DejaVuSans-6d" transform="translate(0 0.578125)"/>
      <use xlink:href="#DejaVuSans-61" transform="translate(97.412109 0.578125)"/>
      <use xlink:href="#DejaVuSans-78" transform="translate(158.691406 0.578125)"/>
      <use xlink:href="#DejaVuSans-20" transform="translate(217.871094 0.578125)"/>
      <use xlink:href="#DejaVuSans-394" transform="translate(249.658203 0.578125)"/>
      <use xlink:href="#DejaVuSans-Oblique-70" transform="translate(318.066406 0.578125)"/>
      <use xlink:href="#DejaVuSans-28" transform="translate(381.542969 0.578125)"/>
      <use xlink:href="#DejaVuSans-Oblique-72" transform="translate(420.556641 0.578125)"/>
      <use xlink:href="#DejaVuSans-7c" transform="translate(461.669922 0.578125)"/>
      <use xlink:href="#DejaVuSans-Oblique-78" transform="translate(495.361328 0.578125)"/>
      <use xlink:href="#DejaVuSans-29" transform="translate(554.541016 0.578125)"/>
      <use xlink:href="#DejaVuSans-20" transform="translate(593.554688 0.578125)"/>
      <use xlink:href="#DejaVuSans-28" transform="translate(625.341797 0.578125)"/>
      <use xlink:href="#DejaVuSans-73" transform="translate(664.355469 0.578125)"/>
      <use xlink:href="#DejaVuSans-6f" transform="translate(716.455078 0.578125)"/>
      <use xlink:href="#DejaVuSans-66" transform="translate(777.636719 0.578125)"/>
      <use xlink:href="#DejaVuSans-74" transform="translate(812.841797 0.578125)"/>
      <use xlink:href="#DejaVuSans-6d" transform="translate(852.050781 0.578125)"/>
      <use xlink:href="#DejaVuSans-61" transform="translate(949.462891 0.578125)"/>
      <use xlink:href="#DejaVuSans-78" transform="translate(1010.742188 0.578125)"/>
      <use xlink:href="#DejaVuSans-2d" transform="translate(1069.921875 0.578125)"/>
      <use xlink:href="#DejaVuSans-49" transform="translate(1106.005859 0.578125)"/>
      <use xlink:href="#DejaVuSans-42" transform="translate(1135.498047 0.578125)"/>
      <use xlink:href="#DejaVuSans-20" transform="translate(1204.101562 0.578125)"/>
      <use xlink:href="#DejaVuSans-62" transform="translate(1235.888672 0.578125)"/>
      <use xlink:href="#DejaVuSans-6f" transform="translate(1299.365234 0.578125)"/>
      <use xlink:href="#DejaVuSans-75" transform="translate(1360.546875 0.578125)"/>
      <use xlink:href="#DejaVuSans-6e" transform="translate(1423.925781 0.578125)"/>
      <use xlink:href="#DejaVuSans-64" transform="translate(1487.304688 0.578125)"/>
      <use xlink:href="#DejaVuSans-29" transform="translate(1550.78125 0.578125)"/>
     </g>
    </g>
    <g id="text_29">
     <!-- 1e−14 -->
     <g transform="translate(34.648281 218.105729) scale(0.05 -0.05)">
      <use xlink:href="#DejaVuSans-31"/>
      <use xlink:href="#DejaVuSans-65" x="63.623047"/>
      <use xlink:href="#DejaVuSans-2212" x="125.146484"/>
      <use xlink:href="#DejaVuSans-31" x="208.935547"/>
      <use xlink:href="#DejaVuSans-34" x="272.558594"/>
     </g>
    </g>
   </g>
   <g id="line2d_38">
    <path d="M 37.894143 258.014411 
L 38.06879 261.934763 
L 38.359218 261.552289 
L 38.764456 224.643608 
L 39.283155 272.835254 
L 39.913601 247.974484 
L 40.653723 293.106343 
L 41.501111 274.556384 
L 42.453034 262.69971 
L 43.506461 270.349177 
L 44.658077 294.062527 
L 45.904314 252.946638 
L 47.24137 279.528538 
L 48.665237 270.731651 
L 50.171725 274.173911 
L 51.75649 277.329316 
L 53.41506 269.58423 
L 55.142862 283.162035 
L 56.935248 283.735746 
L 58.78752 268.054337 
L 60.694952 279.241683 
L 62.652821 276.277515 
L 64.656421 291.00274 
L 66.701087 288.277617 
L 68.782219 294.253764 
L 70.895292 286.604296 
L 75.199661 286.986769 
L 77.382447 291.767687 
L 79.580178 288.134189 
L 81.788942 287.178006 
L 84.00498 291.767687 
L 86.224692 290.237793 
L 88.444649 290.237793 
L 90.661587 290.811503 
L 92.872419 293.29758 
L 95.074231 295.01871 
L 97.264284 290.620266 
L 99.440014 291.00274 
L 101.599031 293.87129 
L 103.739114 292.72387 
L 105.858211 291.958923 
L 107.954434 292.915107 
L 110.026055 291.767687 
L 112.071501 292.15016 
L 114.089348 291.767687 
L 118.03727 293.29758 
L 119.965197 291.57645 
L 121.861218 293.87129 
L 123.724573 292.532633 
L 125.554615 293.680053 
L 127.350807 292.72387 
L 129.112713 293.488817 
L 130.839992 293.680053 
L 132.532394 294.062527 
L 134.189752 293.106343 
L 135.811978 292.915107 
L 137.399056 293.106343 
L 138.951039 293.680053 
L 141.950231 294.253764 
L 144.811126 292.72387 
L 146.190417 293.106343 
L 147.536064 295.01871 
L 148.848457 294.827474 
L 150.128019 293.488817 
L 151.375201 292.915107 
L 152.590479 293.87129 
L 153.774351 292.532633 
L 154.927336 294.253764 
L 157.142793 293.010725 
L 158.206373 293.87129 
L 159.241278 291.958923 
L 160.248083 294.445 
L 161.227372 294.253764 
L 162.179732 293.87129 
L 163.105751 293.010725 
L 164.006019 294.062527 
L 164.881127 294.253764 
L 165.73166 293.87129 
L 166.558206 294.253764 
L 167.361345 294.445 
L 168.141654 293.106343 
L 168.899704 294.062527 
L 169.63606 293.87129 
L 170.351281 294.445 
L 171.045918 294.636237 
L 171.720514 295.01871 
L 172.375602 295.01871 
L 173.629354 294.253764 
L 174.22904 294.827474 
L 174.811268 294.445 
L 175.376525 293.680053 
L 175.92529 294.253764 
L 176.458029 294.636237 
L 176.975202 293.87129 
L 177.477256 294.062527 
L 177.964628 293.87129 
L 178.437745 294.445 
L 178.897026 294.636237 
L 179.342876 294.253764 
L 179.775693 294.253764 
L 180.195863 294.731855 
L 180.603764 293.488817 
L 180.999762 292.915107 
L 181.757472 294.970901 
L 182.11987 294.253764 
L 182.471739 294.445 
L 182.8134 293.680053 
L 183.145162 294.158145 
L 183.780196 293.584435 
L 184.084046 294.253764 
L 184.379157 294.062527 
L 184.665799 295.01871 
L 184.944233 293.488817 
L 185.214711 294.923092 
L 185.477481 294.349382 
L 185.98084 294.445 
L 186.221886 293.966909 
L 186.456135 294.158145 
L 186.683797 294.970901 
L 186.905078 294.062527 
L 187.532582 294.158145 
L 187.730257 294.349382 
L 187.922482 294.062527 
L 188.109425 294.636237 
L 188.291251 294.827474 
L 188.468118 292.72387 
L 188.640179 294.827474 
L 188.970476 293.87129 
L 189.128995 294.731855 
L 189.283276 294.636237 
L 189.43345 293.966909 
L 189.579642 294.253764 
L 189.860569 293.680053 
L 189.995537 294.062527 
L 190.12699 294.779664 
L 190.379779 294.827474 
L 190.50132 294.445 
L 190.619755 294.827474 
L 190.957356 293.87129 
L 191.168545 294.636237 
L 191.270223 294.636237 
L 191.369395 294.397191 
L 191.466136 294.636237 
L 191.560516 292.915107 
L 191.742478 294.253764 
L 191.915814 293.106343 
L 192.081023 294.827474 
L 192.160729 294.588428 
L 192.238575 293.87129 
L 192.314618 294.540619 
L 192.388908 294.397191 
L 192.532432 294.827474 
L 192.601762 293.680053 
L 192.669532 294.779664 
L 192.735787 294.492809 
L 192.800569 294.827474 
L 192.86392 294.062527 
L 192.986489 295.01871 
L 193.045784 294.636237 
L 193.1038 292.532633 
L 193.160575 292.72387 
L 193.323784 294.636237 
L 193.375922 294.827474 
L 193.426979 293.680053 
L 193.476984 294.827474 
L 193.525965 295.01871 
L 193.667035 293.488817 
L 193.712188 294.827474 
L 193.756445 294.540619 
L 193.799831 293.29758 
L 193.842368 295.01871 
L 193.884079 293.345389 
L 194.004463 294.827474 
L 194.043075 294.445 
L 194.118141 293.488817 
L 194.15463 294.636237 
L 194.225607 293.87129 
L 194.260129 293.29758 
L 194.294026 293.488817 
L 194.423681 294.636237 
L 194.454681 293.680053 
L 194.485143 295.01871 
L 194.51508 295.01871 
L 194.601861 293.87129 
L 194.629817 294.301573 
L 194.657307 294.970901 
L 194.684341 294.205954 
L 194.710929 294.445 
L 194.737083 293.393198 
L 194.788124 294.588428 
L 194.813031 295.01871 
L 194.837541 293.87129 
L 194.861663 294.253764 
L 194.885404 294.253764 
L 194.908775 293.87129 
L 194.931783 294.445 
L 194.976741 294.253764 
L 194.998706 294.636237 
L 195.020338 294.588428 
L 195.041646 293.106343 
L 195.083311 294.636237 
L 195.143536 293.680053 
L 195.163029 293.823481 
L 195.182242 295.01871 
L 195.20118 293.154153 
L 195.274294 294.827474 
L 195.291939 293.680053 
L 195.376609 295.01871 
L 195.392864 294.062527 
L 195.440349 293.680053 
L 195.500823 294.827474 
L 195.52991 293.680053 
L 195.585923 294.970901 
L 195.612901 294.253764 
L 195.626143 295.01871 
L 195.664918 294.158145 
L 195.690002 294.588428 
L 195.702323 292.628252 
L 195.761806 294.875283 
L 195.806991 293.488817 
L 195.828831 295.01871 
L 195.931123 294.349382 
L 196.023152 293.60834 
L 195.959738 294.946997 
L 196.031849 294.205954 
L 196.106364 295.01871 
L 196.129792 293.680053 
L 196.145043 294.970901 
L 196.160011 293.632244 
L 196.224048 295.209947 
L 196.25744 293.847386 
L 196.325965 294.970901 
L 196.36073 293.29758 
L 196.377475 294.827474 
L 196.474649 293.680053 
L 196.393814 295.01871 
L 196.493332 294.038622 
L 196.590568 295.01871 
L 196.598278 293.656149 
L 196.60964 294.636237 
L 196.673023 295.01871 
L 196.714183 293.919099 
L 196.786613 295.209947 
L 196.729085 293.87129 
L 196.827828 294.851378 
L 196.929985 295.209947 
L 196.905588 294.062527 
L 196.939827 295.01871 
L 196.970199 294.253764 
L 196.965871 295.209947 
L 197.050337 295.01871 
L 197.072663 294.827474 
L 197.162671 295.209947 
L 197.196161 295.01871 
L 197.196161 295.01871 
" clip-path="url(#pe3b9bf1558)" style="fill: none; stroke: #1f77b4; stroke-width: 0.7; stroke-linecap: square"/>
   </g>
   <g id="line2d_39">
    <path d="M 37.835863 295.401184 
L 197.214931 295.401184 
" clip-path="url(#pe3b9bf1558)" style="fill: none; stroke-dasharray: 2.59,1.12; stroke-dashoffset: 0; stroke: #000000; stroke-width: 0.7"/>
   </g>
   <g id="patch_9">
    <path d="M 34.648281 298.939062 
L 34.648281 221.105729 
" style="fill: none; stroke: #000000; stroke-width: 0.5; stroke-linejoin: miter; stroke-linecap: square"/>
   </g>
   <g id="patch_10">
    <path d="M 34.648281 298.939062 
L 200.402512 298.939062 
" style="fill: none; stroke: #000000; stroke-width: 0.5; stroke-linejoin: miter; stroke-linecap: square"/>
   </g>
   <g id="text_30">
    <!-- max $p(r|x)$ difference -->
    <g transform="translate(85.635397 215.105729) scale(0.06 -0.06)">
     <use xlink:href="#DejaVuSans-6d" transform="translate(0 0.578125)"/>
     <use xlink:href="#DejaVuSans-61" transform="translate(97.412109 0.578125)"/>
     <use xlink:href="#DejaVuSans-78" transform="translate(158.691406 0.578125)"/>
     <use xlink:href="#DejaVuSans-20" transform="translate(217.871094 0.578125)"/>
     <use xlink:href="#DejaVuSans-Oblique-70" transform="translate(249.658203 0.578125)"/>
     <use xlink:href="#DejaVuSans-28" transform="translate(313.134766 0.578125)"/>
     <use xlink:href="#DejaVuSans-Oblique-72" transform="translate(352.148438 0.578125)"/>
     <use xlink:href="#DejaVuSans-7c" transform="translate(393.261719 0.578125)"/>
     <use xlink:href="#DejaVuSans-Oblique-78" transform="translate(426.953125 0.578125)"/>
     <use xlink:href="#DejaVuSans-29" transform="translate(486.132812 0.578125)"/>
     <use xlink:href="#DejaVuSans-20" transform="translate(525.146484 0.578125)"/>
     <use xlink:href="#DejaVuSans-64" transform="translate(556.933594 0.578125)"/>
     <use xlink:href="#DejaVuSans-69" transform="translate(620.410156 0.578125)"/>
     <use xlink:href="#DejaVuSans-66" transform="translate(648.193359 0.578125)"/>
     <use xlink:href="#DejaVuSans-66" transform="translate(683.398438 0.578125)"/>
     <use xlink:href="#DejaVuSans-65" transform="translate(718.603516 0.578125)"/>
     <use xlink:href="#DejaVuSans-72" transform="translate(780.126953 0.578125)"/>
     <use xlink:href="#DejaVuSans-65" transform="translate(821.240234 0.578125)"/>
     <use xlink:href="#DejaVuSans-6e" transform="translate(882.763672 0.578125)"/>
     <use xlink:href="#DejaVuSans-63" transform="translate(946.142578 0.578125)"/>
     <use xlink:href="#DejaVuSans-65" transform="translate(1001.123047 0.578125)"/>
    </g>
   </g>
  </g>
 </g>
 <defs>
  <clipPath id="p582c8ad0cb">
   <rect x="34.648281" y="17.759062" width="165.754231" height="77.833333"/>
  </clipPath>
  <clipPath id="p8583001eb1">
   <rect x="34.648281" y="119.432396" width="165.754231" height="77.833333"/>
  </clipPath>
  <clipPath id="pe3b9bf1558">
   <rect x="34.648281" y="221.105729" width="165.754231" height="77.833333"/>
  </clipPath>
 </defs>
</svg>
