<?xml version="1.0" encoding="utf-8" standalone="no"?>
<!DOCTYPE svg PUBLIC "-//W3C//DTD SVG 1.1//EN"
  "http://www.w3.org/Graphics/SVG/1.1/DTD/svg11.dtd">
<svg xmlns:xlink="http://www.w3.org/1999/xlink" width="208.848437pt" height="122.445156pt" viewBox="0 0 208.848437 122.445156" xmlns="http://www.w3.org/2000/svg" version="1.1">
 <metadata>
  <rdf:RDF xmlns:dc="http://purl.org/dc/elements/1.1/" xmlns:cc="http://creativecommons.org/ns#" xmlns:rdf="http://www.w3.org/1999/02/22-rdf-syntax-ns#">
   <cc:Work>
    <dc:type rdf:resource="http://purl.org/dc/dcmitype/StillImage"/>
    <dc:date>2026-04-22T10:49:31.053202</dc:date>
    <dc:format>image/svg+xml</dc:format>
    <dc:creator>
     <cc:Agent>
      <dc:title>Matplotlib v3.6.2, https://matplotlib.org/</dc:title>
     </cc:Agent>
    </dc:creator>
   </cc:Work>
  </rdf:RDF>
 </metadata>
 <defs>
  <style type="text/css">*{stroke-linejoin: round; stroke-linecap: butt}</style>
 </defs>
 <g id="figure_1">
  <g id="patch_1">
   <path d="M -0 122.445156 
L 208.848437 122.445156 
L 208.848437 0 
L -0 0 
z
" style="fill: #ffffff"/>
  </g>
  <g id="axes_1">
   <g id="patch_2">
    <path d="M 30.458438 95.099219 
L 201.648437 95.099219 
L 201.648437 13.999219 
L 30.458438 13.999219 
z
" style="fill: #ffffff"/>
   </g>
   <g id="matplotlib.axis_1">
    <g id="xtick_1">
     <g id="line2d_1">
      <defs>
       <path id="ma95e86bdac" d="M 0 0 
L 0 2 
" style="stroke: #000000; stroke-width: 0.5"/>
      </defs>
      <g>
       <use xlink:href="#ma95e86bdac" x="38.239801" y="95.099219" style="stroke: #000000; stroke-width: 0.5"/>
      </g>
     </g>
     <g id="text_1">
      <!-- 0.0 -->
      <g transform="translate(34.26402 104.398437) scale(0.05 -0.05)">
       <defs>
        <path id="DejaVuSans-30" d="M 2034 4250 
Q 1547 4250 1301 3770 
Q 1056 3291 1056 2328 
Q 1056 1369 1301 889 
Q 1547 409 2034 409 
Q 2525 409 2770 889 
Q 3016 1369 3016 2328 
Q 3016 3291 2770 3770 
Q 2525 4250 2034 4250 
z
M 2034 4750 
Q 2819 4750 3233 4129 
Q 3647 3509 3647 2328 
Q 3647 1150 3233 529 
Q 2819 -91 2034 -91 
Q 1250 -91 836 529 
Q 422 1150 422 2328 
Q 422 3509 836 4129 
Q 1250 4750 2034 4750 
z
" transform="scale(0.015625)"/>
        <path id="DejaVuSans-2e" d="M 684 794 
L 1344 794 
L 1344 0 
L 684 0 
L 684 794 
z
" transform="scale(0.015625)"/>
       </defs>
       <use xlink:href="#DejaVuSans-30"/>
       <use xlink:href="#DejaVuSans-2e" x="63.623047"/>
       <use xlink:href="#DejaVuSans-30" x="95.410156"/>
      </g>
     </g>
    </g>
    <g id="xtick_2">
     <g id="line2d_2">
      <g>
       <use xlink:href="#ma95e86bdac" x="69.365256" y="95.099219" style="stroke: #000000; stroke-width: 0.5"/>
      </g>
     </g>
     <g id="text_2">
      <!-- 0.2 -->
      <g transform="translate(65.389474 104.398437) scale(0.05 -0.05)">
       <defs>
        <path id="DejaVuSans-32" d="M 1228 531 
L 3431 531 
L 3431 0 
L 469 0 
L 469 531 
Q 828 903 1448 1529 
Q 2069 2156 2228 2338 
Q 2531 2678 2651 2914 
Q 2772 3150 2772 3378 
Q 2772 3750 2511 3984 
Q 2250 4219 1831 4219 
Q 1534 4219 1204 4116 
Q 875 4013 500 3803 
L 500 4441 
Q 881 4594 1212 4672 
Q 1544 4750 1819 4750 
Q 2544 4750 2975 4387 
Q 3406 4025 3406 3419 
Q 3406 3131 3298 2873 
Q 3191 2616 2906 2266 
Q 2828 2175 2409 1742 
Q 1991 1309 1228 531 
z
" transform="scale(0.015625)"/>
       </defs>
       <use xlink:href="#DejaVuSans-30"/>
       <use xlink:href="#DejaVuSans-2e" x="63.623047"/>
       <use xlink:href="#DejaVuSans-32" x="95.410156"/>
      </g>
     </g>
    </g>
    <g id="xtick_3">
     <g id="line2d_3">
      <g>
       <use xlink:href="#ma95e86bdac" x="100.49071" y="95.099219" style="stroke: #000000; stroke-width: 0.5"/>
      </g>
     </g>
     <g id="text_3">
      <!-- 0.4 -->
      <g transform="translate(96.514929 104.398437) scale(0.05 -0.05)">
       <defs>
        <path id="DejaVuSans-34" d="M 2419 4116 
L 825 1625 
L 2419 1625 
L 2419 4116 
z
M 2253 4666 
L 3047 4666 
L 3047 1625 
L 3713 1625 
L 3713 1100 
L 3047 1100 
L 3047 0 
L 2419 0 
L 2419 1100 
L 313 1100 
L 313 1709 
L 2253 4666 
z
" transform="scale(0.015625)"/>
       </defs>
       <use xlink:href="#DejaVuSans-30"/>
       <use xlink:href="#DejaVuSans-2e" x="63.623047"/>
       <use xlink:href="#DejaVuSans-34" x="95.410156"/>
      </g>
     </g>
    </g>
    <g id="xtick_4">
     <g id="line2d_4">
      <g>
       <use xlink:href="#ma95e86bdac" x="131.616165" y="95.099219" style="stroke: #000000; stroke-width: 0.5"/>
      </g>
     </g>
     <g id="text_4">
      <!-- 0.6 -->
      <g transform="translate(127.640384 104.398437) scale(0.05 -0.05)">
       <defs>
        <path id="DejaVuSans-36" d="M 2113 2584 
Q 1688 2584 1439 2293 
Q 1191 2003 1191 1497 
Q 1191 994 1439 701 
Q 1688 409 2113 409 
Q 2538 409 2786 701 
Q 3034 994 3034 1497 
Q 3034 2003 2786 2293 
Q 2538 2584 2113 2584 
z
M 3366 4563 
L 3366 3988 
Q 3128 4100 2886 4159 
Q 2644 4219 2406 4219 
Q 1781 4219 1451 3797 
Q 1122 3375 1075 2522 
Q 1259 2794 1537 2939 
Q 1816 3084 2150 3084 
Q 2853 3084 3261 2657 
Q 3669 2231 3669 1497 
Q 3669 778 3244 343 
Q 2819 -91 2113 -91 
Q 1303 -91 875 529 
Q 447 1150 447 2328 
Q 447 3434 972 4092 
Q 1497 4750 2381 4750 
Q 2619 4750 2861 4703 
Q 3103 4656 3366 4563 
z
" transform="scale(0.015625)"/>
       </defs>
       <use xlink:href="#DejaVuSans-30"/>
       <use xlink:href="#DejaVuSans-2e" x="63.623047"/>
       <use xlink:href="#DejaVuSans-36" x="95.410156"/>
      </g>
     </g>
    </g>
    <g id="xtick_5">
     <g id="line2d_5">
      <g>
       <use xlink:href="#ma95e86bdac" x="162.741619" y="95.099219" style="stroke: #000000; stroke-width: 0.5"/>
      </g>
     </g>
     <g id="text_5">
      <!-- 0.8 -->
      <g transform="translate(158.765838 104.398437) scale(0.05 -0.05)">
       <defs>
        <path id="DejaVuSans-38" d="M 2034 2216 
Q 1584 2216 1326 1975 
Q 1069 1734 1069 1313 
Q 1069 891 1326 650 
Q 1584 409 2034 409 
Q 2484 409 2743 651 
Q 3003 894 3003 1313 
Q 3003 1734 2745 1975 
Q 2488 2216 2034 2216 
z
M 1403 2484 
Q 997 2584 770 2862 
Q 544 3141 544 3541 
Q 544 4100 942 4425 
Q 1341 4750 2034 4750 
Q 2731 4750 3128 4425 
Q 3525 4100 3525 3541 
Q 3525 3141 3298 2862 
Q 3072 2584 2669 2484 
Q 3125 2378 3379 2068 
Q 3634 1759 3634 1313 
Q 3634 634 3220 271 
Q 2806 -91 2034 -91 
Q 1263 -91 848 271 
Q 434 634 434 1313 
Q 434 1759 690 2068 
Q 947 2378 1403 2484 
z
M 1172 3481 
Q 1172 3119 1398 2916 
Q 1625 2713 2034 2713 
Q 2441 2713 2670 2916 
Q 2900 3119 2900 3481 
Q 2900 3844 2670 4047 
Q 2441 4250 2034 4250 
Q 1625 4250 1398 4047 
Q 1172 3844 1172 3481 
z
" transform="scale(0.015625)"/>
       </defs>
       <use xlink:href="#DejaVuSans-30"/>
       <use xlink:href="#DejaVuSans-2e" x="63.623047"/>
       <use xlink:href="#DejaVuSans-38" x="95.410156"/>
      </g>
     </g>
    </g>
    <g id="xtick_6">
     <g id="line2d_6">
      <g>
       <use xlink:href="#ma95e86bdac" x="193.867074" y="95.099219" style="stroke: #000000; stroke-width: 0.5"/>
      </g>
     </g>
     <g id="text_6">
      <!-- 1.0 -->
      <g transform="translate(189.891293 104.398437) scale(0.05 -0.05)">
       <defs>
        <path id="DejaVuSans-31" d="M 794 531 
L 1825 531 
L 1825 4091 
L 703 3866 
L 703 4441 
L 1819 4666 
L 2450 4666 
L 2450 531 
L 3481 531 
L 3481 0 
L 794 0 
L 794 531 
z
" transform="scale(0.015625)"/>
       </defs>
       <use xlink:href="#DejaVuSans-31"/>
       <use xlink:href="#DejaVuSans-2e" x="63.623047"/>
       <use xlink:href="#DejaVuSans-30" x="95.410156"/>
      </g>
     </g>
    </g>
    <g id="text_7">
     <!-- I(X;R) -->
     <g transform="translate(107.677344 113.997344) scale(0.06 -0.06)">
      <defs>
       <path id="DejaVuSans-49" d="M 628 4666 
L 1259 4666 
L 1259 0 
L 628 0 
L 628 4666 
z
" transform="scale(0.015625)"/>
       <path id="DejaVuSans-28" d="M 1984 4856 
Q 1566 4138 1362 3434 
Q 1159 2731 1159 2009 
Q 1159 1288 1364 580 
Q 1569 -128 1984 -844 
L 1484 -844 
Q 1016 -109 783 600 
Q 550 1309 550 2009 
Q 550 2706 781 3412 
Q 1013 4119 1484 4856 
L 1984 4856 
z
" transform="scale(0.015625)"/>
       <path id="DejaVuSans-58" d="M 403 4666 
L 1081 4666 
L 2241 2931 
L 3406 4666 
L 4084 4666 
L 2584 2425 
L 4184 0 
L 3506 0 
L 2194 1984 
L 872 0 
L 191 0 
L 1856 2491 
L 403 4666 
z
" transform="scale(0.015625)"/>
       <path id="DejaVuSans-3b" d="M 750 3309 
L 1409 3309 
L 1409 2516 
L 750 2516 
L 750 3309 
z
M 750 794 
L 1409 794 
L 1409 256 
L 897 -744 
L 494 -744 
L 750 256 
L 750 794 
z
" transform="scale(0.015625)"/>
       <path id="DejaVuSans-52" d="M 2841 2188 
Q 3044 2119 3236 1894 
Q 3428 1669 3622 1275 
L 4263 0 
L 3584 0 
L 2988 1197 
Q 2756 1666 2539 1819 
Q 2322 1972 1947 1972 
L 1259 1972 
L 1259 0 
L 628 0 
L 628 4666 
L 2053 4666 
Q 2853 4666 3247 4331 
Q 3641 3997 3641 3322 
Q 3641 2881 3436 2590 
Q 3231 2300 2841 2188 
z
M 1259 4147 
L 1259 2491 
L 2053 2491 
Q 2509 2491 2742 2702 
Q 2975 2913 2975 3322 
Q 2975 3731 2742 3939 
Q 2509 4147 2053 4147 
L 1259 4147 
z
" transform="scale(0.015625)"/>
       <path id="DejaVuSans-29" d="M 513 4856 
L 1013 4856 
Q 1481 4119 1714 3412 
Q 1947 2706 1947 2009 
Q 1947 1309 1714 600 
Q 1481 -109 1013 -844 
L 513 -844 
Q 928 -128 1133 580 
Q 1338 1288 1338 2009 
Q 1338 2731 1133 3434 
Q 928 4138 513 4856 
z
" transform="scale(0.015625)"/>
      </defs>
      <use xlink:href="#DejaVuSans-49"/>
      <use xlink:href="#DejaVuSans-28" x="29.492188"/>
      <use xlink:href="#DejaVuSans-58" x="68.505859"/>
      <use xlink:href="#DejaVuSans-3b" x="137.011719"/>
      <use xlink:href="#DejaVuSans-52" x="170.703125"/>
      <use xlink:href="#DejaVuSans-29" x="240.185547"/>
     </g>
    </g>
   </g>
   <g id="matplotlib.axis_2">
    <g id="ytick_1">
     <g id="line2d_7">
      <defs>
       <path id="mfbb07b7602" d="M 0 0 
L -2 0 
" style="stroke: #000000; stroke-width: 0.5"/>
      </defs>
      <g>
       <use xlink:href="#mfbb07b7602" x="30.458438" y="91.412855" style="stroke: #000000; stroke-width: 0.5"/>
      </g>
     </g>
     <g id="text_8">
      <!-- 0.0 -->
      <g transform="translate(17.006875 93.312464) scale(0.05 -0.05)">
       <use xlink:href="#DejaVuSans-30"/>
       <use xlink:href="#DejaVuSans-2e" x="63.623047"/>
       <use xlink:href="#DejaVuSans-30" x="95.410156"/>
      </g>
     </g>
    </g>
    <g id="ytick_2">
     <g id="line2d_8">
      <g>
       <use xlink:href="#mfbb07b7602" x="30.458438" y="76.976415" style="stroke: #000000; stroke-width: 0.5"/>
      </g>
     </g>
     <g id="text_9">
      <!-- 0.5 -->
      <g transform="translate(17.006875 78.876025) scale(0.05 -0.05)">
       <defs>
        <path id="DejaVuSans-35" d="M 691 4666 
L 3169 4666 
L 3169 4134 
L 1269 4134 
L 1269 2991 
Q 1406 3038 1543 3061 
Q 1681 3084 1819 3084 
Q 2600 3084 3056 2656 
Q 3513 2228 3513 1497 
Q 3513 744 3044 326 
Q 2575 -91 1722 -91 
Q 1428 -91 1123 -41 
Q 819 9 494 109 
L 494 744 
Q 775 591 1075 516 
Q 1375 441 1709 441 
Q 2250 441 2565 725 
Q 2881 1009 2881 1497 
Q 2881 1984 2565 2268 
Q 2250 2553 1709 2553 
Q 1456 2553 1204 2497 
Q 953 2441 691 2322 
L 691 4666 
z
" transform="scale(0.015625)"/>
       </defs>
       <use xlink:href="#DejaVuSans-30"/>
       <use xlink:href="#DejaVuSans-2e" x="63.623047"/>
       <use xlink:href="#DejaVuSans-35" x="95.410156"/>
      </g>
     </g>
    </g>
    <g id="ytick_3">
     <g id="line2d_9">
      <g>
       <use xlink:href="#mfbb07b7602" x="30.458438" y="62.539975" style="stroke: #000000; stroke-width: 0.5"/>
      </g>
     </g>
     <g id="text_10">
      <!-- 1.0 -->
      <g transform="translate(17.006875 64.439585) scale(0.05 -0.05)">
       <use xlink:href="#DejaVuSans-31"/>
       <use xlink:href="#DejaVuSans-2e" x="63.623047"/>
       <use xlink:href="#DejaVuSans-30" x="95.410156"/>
      </g>
     </g>
    </g>
    <g id="ytick_4">
     <g id="line2d_10">
      <g>
       <use xlink:href="#mfbb07b7602" x="30.458438" y="48.103535" style="stroke: #000000; stroke-width: 0.5"/>
      </g>
     </g>
     <g id="text_11">
      <!-- 1.5 -->
      <g transform="translate(17.006875 50.003145) scale(0.05 -0.05)">
       <use xlink:href="#DejaVuSans-31"/>
       <use xlink:href="#DejaVuSans-2e" x="63.623047"/>
       <use xlink:href="#DejaVuSans-35" x="95.410156"/>
      </g>
     </g>
    </g>
    <g id="ytick_5">
     <g id="line2d_11">
      <g>
       <use xlink:href="#mfbb07b7602" x="30.458438" y="33.667095" style="stroke: #000000; stroke-width: 0.5"/>
      </g>
     </g>
     <g id="text_12">
      <!-- 2.0 -->
      <g transform="translate(17.006875 35.566705) scale(0.05 -0.05)">
       <use xlink:href="#DejaVuSans-32"/>
       <use xlink:href="#DejaVuSans-2e" x="63.623047"/>
       <use xlink:href="#DejaVuSans-30" x="95.410156"/>
      </g>
     </g>
    </g>
    <g id="ytick_6">
     <g id="line2d_12">
      <g>
       <use xlink:href="#mfbb07b7602" x="30.458438" y="19.230656" style="stroke: #000000; stroke-width: 0.5"/>
      </g>
     </g>
     <g id="text_13">
      <!-- 2.5 -->
      <g transform="translate(17.006875 21.130265) scale(0.05 -0.05)">
       <use xlink:href="#DejaVuSans-32"/>
       <use xlink:href="#DejaVuSans-2e" x="63.623047"/>
       <use xlink:href="#DejaVuSans-35" x="95.410156"/>
      </g>
     </g>
    </g>
    <g id="text_14">
     <!-- Max difference -->
     <g transform="translate(11.759063 76.809687) rotate(-90) scale(0.06 -0.06)">
      <defs>
       <path id="DejaVuSans-4d" d="M 628 4666 
L 1569 4666 
L 2759 1491 
L 3956 4666 
L 4897 4666 
L 4897 0 
L 4281 0 
L 4281 4097 
L 3078 897 
L 2444 897 
L 1241 4097 
L 1241 0 
L 628 0 
L 628 4666 
z
" transform="scale(0.015625)"/>
       <path id="DejaVuSans-61" d="M 2194 1759 
Q 1497 1759 1228 1600 
Q 959 1441 959 1056 
Q 959 750 1161 570 
Q 1363 391 1709 391 
Q 2188 391 2477 730 
Q 2766 1069 2766 1631 
L 2766 1759 
L 2194 1759 
z
M 3341 1997 
L 3341 0 
L 2766 0 
L 2766 531 
Q 2569 213 2275 61 
Q 1981 -91 1556 -91 
Q 1019 -91 701 211 
Q 384 513 384 1019 
Q 384 1609 779 1909 
Q 1175 2209 1959 2209 
L 2766 2209 
L 2766 2266 
Q 2766 2663 2505 2880 
Q 2244 3097 1772 3097 
Q 1472 3097 1187 3025 
Q 903 2953 641 2809 
L 641 3341 
Q 956 3463 1253 3523 
Q 1550 3584 1831 3584 
Q 2591 3584 2966 3190 
Q 3341 2797 3341 1997 
z
" transform="scale(0.015625)"/>
       <path id="DejaVuSans-78" d="M 3513 3500 
L 2247 1797 
L 3578 0 
L 2900 0 
L 1881 1375 
L 863 0 
L 184 0 
L 1544 1831 
L 300 3500 
L 978 3500 
L 1906 2253 
L 2834 3500 
L 3513 3500 
z
" transform="scale(0.015625)"/>
       <path id="DejaVuSans-20" transform="scale(0.015625)"/>
       <path id="DejaVuSans-64" d="M 2906 2969 
L 2906 4863 
L 3481 4863 
L 3481 0 
L 2906 0 
L 2906 525 
Q 2725 213 2448 61 
Q 2172 -91 1784 -91 
Q 1150 -91 751 415 
Q 353 922 353 1747 
Q 353 2572 751 3078 
Q 1150 3584 1784 3584 
Q 2172 3584 2448 3432 
Q 2725 3281 2906 2969 
z
M 947 1747 
Q 947 1113 1208 752 
Q 1469 391 1925 391 
Q 2381 391 2643 752 
Q 2906 1113 2906 1747 
Q 2906 2381 2643 2742 
Q 2381 3103 1925 3103 
Q 1469 3103 1208 2742 
Q 947 2381 947 1747 
z
" transform="scale(0.015625)"/>
       <path id="DejaVuSans-69" d="M 603 3500 
L 1178 3500 
L 1178 0 
L 603 0 
L 603 3500 
z
M 603 4863 
L 1178 4863 
L 1178 4134 
L 603 4134 
L 603 4863 
z
" transform="scale(0.015625)"/>
       <path id="DejaVuSans-66" d="M 2375 4863 
L 2375 4384 
L 1825 4384 
Q 1516 4384 1395 4259 
Q 1275 4134 1275 3809 
L 1275 3500 
L 2222 3500 
L 2222 3053 
L 1275 3053 
L 1275 0 
L 697 0 
L 697 3053 
L 147 3053 
L 147 3500 
L 697 3500 
L 697 3744 
Q 697 4328 969 4595 
Q 1241 4863 1831 4863 
L 2375 4863 
z
" transform="scale(0.015625)"/>
       <path id="DejaVuSans-65" d="M 3597 1894 
L 3597 1613 
L 953 1613 
Q 991 1019 1311 708 
Q 1631 397 2203 397 
Q 2534 397 2845 478 
Q 3156 559 3463 722 
L 3463 178 
Q 3153 47 2828 -22 
Q 2503 -91 2169 -91 
Q 1331 -91 842 396 
Q 353 884 353 1716 
Q 353 2575 817 3079 
Q 1281 3584 2069 3584 
Q 2775 3584 3186 3129 
Q 3597 2675 3597 1894 
z
M 3022 2063 
Q 3016 2534 2758 2815 
Q 2500 3097 2075 3097 
Q 1594 3097 1305 2825 
Q 1016 2553 972 2059 
L 3022 2063 
z
" transform="scale(0.015625)"/>
       <path id="DejaVuSans-72" d="M 2631 2963 
Q 2534 3019 2420 3045 
Q 2306 3072 2169 3072 
Q 1681 3072 1420 2755 
Q 1159 2438 1159 1844 
L 1159 0 
L 581 0 
L 581 3500 
L 1159 3500 
L 1159 2956 
Q 1341 3275 1631 3429 
Q 1922 3584 2338 3584 
Q 2397 3584 2469 3576 
Q 2541 3569 2628 3553 
L 2631 2963 
z
" transform="scale(0.015625)"/>
       <path id="DejaVuSans-6e" d="M 3513 2113 
L 3513 0 
L 2938 0 
L 2938 2094 
Q 2938 2591 2744 2837 
Q 2550 3084 2163 3084 
Q 1697 3084 1428 2787 
Q 1159 2491 1159 1978 
L 1159 0 
L 581 0 
L 581 3500 
L 1159 3500 
L 1159 2956 
Q 1366 3272 1645 3428 
Q 1925 3584 2291 3584 
Q 2894 3584 3203 3211 
Q 3513 2838 3513 2113 
z
" transform="scale(0.015625)"/>
       <path id="DejaVuSans-63" d="M 3122 3366 
L 3122 2828 
Q 2878 2963 2633 3030 
Q 2388 3097 2138 3097 
Q 1578 3097 1268 2742 
Q 959 2388 959 1747 
Q 959 1106 1268 751 
Q 1578 397 2138 397 
Q 2388 397 2633 464 
Q 2878 531 3122 666 
L 3122 134 
Q 2881 22 2623 -34 
Q 2366 -91 2075 -91 
Q 1284 -91 818 406 
Q 353 903 353 1747 
Q 353 2603 823 3093 
Q 1294 3584 2113 3584 
Q 2378 3584 2631 3529 
Q 2884 3475 3122 3366 
z
" transform="scale(0.015625)"/>
      </defs>
      <use xlink:href="#DejaVuSans-4d"/>
      <use xlink:href="#DejaVuSans-61" x="86.279297"/>
      <use xlink:href="#DejaVuSans-78" x="147.558594"/>
      <use xlink:href="#DejaVuSans-20" x="206.738281"/>
      <use xlink:href="#DejaVuSans-64" x="238.525391"/>
      <use xlink:href="#DejaVuSans-69" x="302.001953"/>
      <use xlink:href="#DejaVuSans-66" x="329.785156"/>
      <use xlink:href="#DejaVuSans-66" x="364.990234"/>
      <use xlink:href="#DejaVuSans-65" x="400.195312"/>
      <use xlink:href="#DejaVuSans-72" x="461.71875"/>
      <use xlink:href="#DejaVuSans-65" x="500.582031"/>
      <use xlink:href="#DejaVuSans-6e" x="562.105469"/>
      <use xlink:href="#DejaVuSans-63" x="625.484375"/>
      <use xlink:href="#DejaVuSans-65" x="680.464844"/>
     </g>
    </g>
    <g id="text_15">
     <!-- 1e−14 -->
     <g transform="translate(30.458438 10.999219) scale(0.05 -0.05)">
      <defs>
       <path id="DejaVuSans-2212" d="M 678 2272 
L 4684 2272 
L 4684 1741 
L 678 1741 
L 678 2272 
z
" transform="scale(0.015625)"/>
      </defs>
      <use xlink:href="#DejaVuSans-31"/>
      <use xlink:href="#DejaVuSans-65" x="63.623047"/>
      <use xlink:href="#DejaVuSans-2212" x="125.146484"/>
      <use xlink:href="#DejaVuSans-31" x="208.935547"/>
      <use xlink:href="#DejaVuSans-34" x="272.558594"/>
     </g>
    </g>
   </g>
   <g id="line2d_13">
    <path d="M 38.29671 22.493883 
L 38.467246 20.570563 
L 38.750837 24.737756 
L 39.146535 79.231827 
L 39.653025 33.71325 
L 40.26863 17.685582 
L 40.991329 88.527875 
L 41.818769 46.214831 
L 42.748284 87.886768 
L 43.776913 79.872934 
L 44.90142 88.527875 
L 46.11832 64.806926 
L 47.423902 78.590721 
L 48.814251 46.855938 
L 50.285276 54.549219 
L 51.832736 72.82076 
L 53.452263 70.256333 
L 55.139393 86.284001 
L 56.889586 78.590721 
L 58.698254 89.489535 
L 60.560786 59.678073 
L 62.472567 67.0508 
L 64.429001 79.872934 
L 66.425536 87.245661 
L 68.457678 90.130642 
L 70.521009 88.527875 
L 72.611206 68.653567 
L 74.724053 84.040128 
L 76.855456 88.848428 
L 79.001453 84.360681 
L 81.158222 84.040128 
L 83.322094 83.399021 
L 85.489554 80.834594 
L 87.657253 91.412855 
L 89.822004 87.886768 
L 91.980793 85.963448 
L 94.130774 90.451195 
L 96.269273 88.848428 
L 98.393786 87.566215 
L 100.501979 90.771748 
L 102.591685 86.604555 
L 104.660898 90.451195 
L 106.707776 88.848428 
L 108.730631 91.092302 
L 110.727927 88.527875 
L 112.698274 91.412855 
L 114.640423 85.963448 
L 116.553261 89.168982 
L 118.435805 91.092302 
L 120.287193 89.168982 
L 122.106685 91.092302 
L 123.893648 89.810088 
L 125.647557 91.092302 
L 127.367988 89.489535 
L 129.054606 89.168982 
L 130.707169 89.489535 
L 132.325512 90.451195 
L 133.909551 89.810088 
L 135.45927 91.412855 
L 136.974719 90.771748 
L 138.45601 88.848428 
L 139.90331 88.527875 
L 141.316838 88.527875 
L 142.696859 91.092302 
L 144.043681 90.130642 
L 145.357651 90.130642 
L 146.63915 89.810088 
L 147.888591 91.092302 
L 149.106414 90.451195 
L 150.293085 91.092302 
L 151.449089 89.810088 
L 152.574932 88.848428 
L 153.671137 90.771748 
L 154.738237 90.451195 
L 155.776781 89.168982 
L 156.787324 90.130642 
L 157.770429 89.810088 
L 158.726665 89.168982 
L 159.656606 91.092302 
L 160.560827 91.092302 
L 161.439903 90.130642 
L 162.29441 90.771748 
L 163.124922 90.771748 
L 163.932011 91.412855 
L 164.716244 90.451195 
L 165.478184 91.412855 
L 166.218389 89.810088 
L 166.937412 91.412855 
L 167.635797 89.810088 
L 168.314082 90.451195 
L 168.972797 89.489535 
L 169.612465 89.810088 
L 170.233599 91.412855 
L 170.836703 91.092302 
L 171.422273 88.848428 
L 171.990795 90.130642 
L 172.542746 90.451195 
L 173.078593 90.130642 
L 174.10379 90.130642 
L 174.594025 90.451195 
L 175.069924 91.092302 
L 175.980374 88.527875 
L 176.415729 90.771748 
L 176.838357 87.886768 
L 177.248636 90.771748 
L 177.646935 90.771748 
L 178.033612 90.451195 
L 178.409015 90.451195 
L 179.127352 89.810088 
L 179.804556 91.092302 
L 180.128509 87.566215 
L 180.443092 91.092302 
L 180.748593 91.092302 
L 181.045291 89.489535 
L 181.333456 89.489535 
L 181.885229 91.092302 
L 182.405925 88.527875 
L 182.655214 88.527875 
L 182.897435 88.207322 
L 183.132806 89.168982 
L 183.361541 90.771748 
L 183.583844 90.130642 
L 183.799916 90.451195 
L 184.00995 89.489535 
L 184.214134 91.092302 
L 184.60567 90.130642 
L 184.79337 91.412855 
L 184.975913 88.527875 
L 185.326162 89.489535 
L 185.494173 89.168982 
L 185.816695 91.412855 
L 185.971482 89.489535 
L 186.122131 89.810088 
L 186.268769 91.412855 
L 186.41152 89.489535 
L 186.550503 91.412855 
L 186.685834 90.771748 
L 186.817625 88.848428 
L 186.945984 90.130642 
L 187.071016 89.810088 
L 187.311502 87.886768 
L 187.427149 88.848428 
L 187.539856 88.207322 
L 187.756803 91.412855 
L 187.861212 88.848428 
L 187.963021 90.451195 
L 188.159143 90.130642 
L 188.253606 91.092302 
L 188.345765 89.489535 
L 188.435689 90.771748 
L 188.523443 90.451195 
L 188.609092 90.451195 
L 188.692698 90.771748 
L 188.854019 89.168982 
L 189.154656 90.771748 
L 189.294802 91.412855 
L 189.428674 89.168982 
L 189.556626 90.451195 
L 189.618486 88.527875 
L 189.678988 89.489535 
L 189.73817 90.771748 
L 189.796069 88.848428 
L 189.908158 91.092302 
L 190.118436 88.848428 
L 190.168291 90.771748 
L 190.217118 88.527875 
L 190.490001 91.412855 
L 190.573902 88.848428 
L 190.614631 90.771748 
L 190.654574 90.771748 
L 190.769884 89.168982 
L 190.806879 90.451195 
L 190.878813 90.130642 
L 190.913786 89.489535 
L 190.948119 90.451195 
L 190.981828 91.412855 
L 191.047434 91.092302 
L 191.110721 91.412855 
L 191.14153 88.527875 
L 191.171801 91.412855 
L 191.230778 89.168982 
L 191.287751 88.848428 
L 191.315516 90.771748 
L 191.369657 87.886768 
L 191.396054 89.489535 
L 191.497395 90.771748 
L 191.521715 88.527875 
L 191.545648 91.092302 
L 191.592385 90.130642 
L 191.615205 91.412855 
L 191.681571 89.810088 
L 191.744948 90.771748 
L 191.785633 88.848428 
L 191.900727 91.412855 
L 191.918957 88.207322 
L 192.006342 89.810088 
L 192.039632 88.527875 
L 192.103561 91.412855 
L 192.149318 87.566215 
L 192.207608 90.771748 
L 192.221719 90.771748 
L 192.262996 88.207322 
L 192.315686 89.168982 
L 192.365868 87.886768 
L 192.425327 91.092302 
L 192.544717 89.168982 
L 192.622899 90.771748 
L 192.650549 90.451195 
L 192.677354 91.412855 
L 192.761058 88.848428 
L 192.844193 91.092302 
L 192.77683 88.527875 
L 192.865415 89.168982 
L 192.87236 87.245661 
L 192.932122 91.412855 
L 192.963324 90.130642 
L 192.969404 91.412855 
L 193.043926 88.527875 
L 193.07571 90.771748 
L 193.144218 91.412855 
L 193.134884 88.207322 
L 193.171377 89.810088 
L 193.27236 88.527875 
L 193.180159 91.092302 
L 193.276032 90.451195 
L 193.311366 91.412855 
L 193.321496 88.527875 
L 193.383992 89.810088 
L 193.468318 91.412855 
L 193.438719 88.207322 
L 193.48457 91.092302 
L 193.577176 87.566215 
L 193.583899 91.412855 
L 193.595281 90.451195 
L 193.682218 87.566215 
L 193.622451 91.412855 
L 193.70447 90.130642 
L 193.784001 91.412855 
L 193.810344 87.566215 
L 193.814829 90.771748 
L 193.848637 87.245661 
L 193.816045 91.412855 
L 193.848746 90.130642 
" clip-path="url(#p5be78616e0)" style="fill: none; stroke: #1f77b4; stroke-width: 0.7; stroke-linecap: square"/>
   </g>
   <g id="line2d_14">
    <path d="M 38.29671 20.730839 
L 38.750837 26.5008 
L 39.146535 76.827677 
L 39.653025 31.469377 
L 40.26863 18.486966 
L 40.991329 90.451195 
L 41.818769 48.458705 
L 42.748284 87.566215 
L 43.776913 78.109891 
L 44.90142 90.611472 
L 46.11832 68.97412 
L 47.423902 80.674318 
L 48.814251 44.772341 
L 50.285276 53.267005 
L 51.832736 72.179654 
L 53.452263 70.256333 
L 55.139393 85.322341 
L 56.889586 79.712657 
L 58.698254 88.047045 
L 60.560786 63.043883 
L 62.472567 68.49329 
L 64.429001 77.629061 
L 66.425536 88.207322 
L 68.457678 91.092302 
L 70.521009 89.489535 
L 72.611206 72.019377 
L 74.724053 83.078468 
L 76.855456 91.092302 
L 79.001453 85.242203 
L 81.158222 85.723033 
L 83.322094 85.322341 
L 85.489554 83.078468 
L 87.657253 91.092302 
L 89.822004 87.165523 
L 91.980793 87.726491 
L 94.130774 89.168982 
L 96.269273 89.008705 
L 98.393786 90.21078 
L 100.501979 90.21078 
L 102.591685 88.127183 
L 104.660898 90.130642 
L 108.730631 91.17244 
L 110.727927 89.24912 
L 112.698274 91.17244 
L 114.640423 86.925108 
L 116.553261 90.611472 
L 118.435805 91.412855 
L 120.287193 91.252578 
L 122.106685 89.890227 
L 123.893648 91.332717 
L 125.647557 90.371057 
L 127.367988 90.932025 
L 129.054606 91.332717 
L 130.707169 91.092302 
L 133.909551 90.851887 
L 135.45927 91.092302 
L 136.974719 90.651541 
L 138.45601 90.451195 
L 139.90331 90.010434 
L 142.696859 91.132371 
L 144.043681 90.571403 
L 145.357651 91.372786 
L 146.63915 91.252578 
L 147.888591 91.252578 
L 149.106414 90.651541 
L 150.293085 91.212509 
L 151.449089 90.571403 
L 152.574932 91.212509 
L 153.671137 91.332717 
L 154.738237 91.092302 
L 155.776781 91.092302 
L 156.787324 90.69161 
L 157.770429 91.292648 
L 158.726665 91.052233 
L 159.656606 91.212509 
L 160.560827 90.972094 
L 161.439903 90.932025 
L 162.29441 91.292648 
L 163.124922 91.212509 
L 164.716244 91.332717 
L 165.478184 90.972094 
L 166.937412 91.17244 
L 167.635797 91.17244 
L 168.314082 91.372786 
L 168.972797 91.292648 
L 170.233599 91.412855 
L 170.836703 91.292648 
L 171.990795 91.372786 
L 173.078593 91.372786 
L 174.10379 91.372786 
L 174.594025 90.972094 
L 175.069924 91.212509 
L 176.838357 91.292648 
L 178.033612 91.212509 
L 178.409015 91.332717 
L 178.773485 91.292648 
L 179.127352 91.372786 
L 179.470938 91.252578 
L 179.804556 91.372786 
L 180.128509 91.052233 
L 180.443092 91.372786 
L 180.748593 91.132371 
L 181.045291 91.292648 
L 182.149341 91.292648 
L 182.655214 91.412855 
L 183.132806 91.17244 
L 183.583844 91.412855 
L 184.00995 91.17244 
L 184.412648 91.412855 
L 184.60567 91.252578 
L 184.975913 91.412855 
L 185.326162 91.372786 
L 185.816695 91.252578 
L 186.122131 91.372786 
L 186.685834 91.17244 
L 186.817625 91.352751 
L 187.649712 91.212509 
L 187.861212 91.332717 
L 188.159143 91.392821 
L 188.345765 91.332717 
L 188.435689 91.272613 
L 188.609092 91.412855 
L 188.692698 91.212509 
L 188.931848 91.372786 
L 189.082115 91.212509 
L 189.294802 91.392821 
L 189.362499 91.312682 
L 189.428674 91.412855 
L 189.493369 91.332717 
L 189.556626 91.352751 
L 189.618486 91.252578 
L 189.73817 91.392821 
L 189.85272 91.152406 
L 189.908158 91.17244 
L 190.015529 91.392821 
L 190.118436 91.292648 
L 190.311802 91.352751 
L 190.35771 91.412855 
L 190.402696 91.252578 
L 190.490001 91.292648 
L 190.654574 91.312682 
L 190.69375 91.412855 
L 190.732181 91.192475 
L 190.806879 91.232544 
L 190.981828 91.392821 
L 191.014928 91.212509 
L 191.07936 91.372786 
L 191.171801 91.292648 
L 191.259509 91.392821 
L 191.287751 91.312682 
L 191.342814 91.212509 
L 191.369657 91.372786 
L 191.615205 91.252578 
L 191.637672 91.392821 
L 191.659791 91.232544 
L 191.724142 91.232544 
L 191.744948 91.192475 
L 191.765443 91.392821 
L 191.785633 91.352751 
L 191.805525 91.372786 
L 191.825125 91.232544 
L 191.84444 91.392821 
L 191.918957 91.332717 
L 191.989349 91.312682 
L 192.006342 91.192475 
L 192.039632 91.412855 
L 192.087899 91.252578 
L 192.149318 91.392821 
L 192.134266 91.212509 
L 192.193316 91.372786 
L 192.221719 91.17244 
L 192.235651 91.392821 
L 192.302756 91.212509 
L 192.365868 91.412855 
L 192.401962 91.132371 
L 192.584646 91.372786 
L 192.594362 91.152406 
L 192.659576 91.392821 
L 192.694772 91.192475 
L 192.77683 91.052233 
L 192.814961 91.352751 
L 192.912733 91.392821 
L 192.938472 91.232544 
L 193.021854 91.392821 
L 192.957192 91.17244 
L 193.043926 91.352751 
L 193.049332 91.17244 
L 193.054693 91.412855 
L 193.15341 91.352751 
L 193.234162 91.17244 
L 193.205729 91.392821 
L 193.261187 91.292648 
L 193.341141 91.372786 
L 193.350666 91.152406 
L 193.372156 91.352751 
L 193.468318 91.072267 
L 193.446333 91.372786 
L 193.48457 91.212509 
L 193.570289 91.412855 
L 193.556005 91.112336 
L 193.596868 91.392821 
L 193.682218 91.112336 
L 193.607717 91.412855 
L 193.709141 91.252578 
L 193.810676 91.412855 
L 193.731359 91.112336 
L 193.824313 91.352751 
L 193.848305 91.212509 
L 193.826043 91.412855 
L 193.848746 91.292648 
" clip-path="url(#p5be78616e0)" style="fill: none; stroke: #ff7f0e; stroke-width: 0.7; stroke-linecap: square"/>
   </g>
   <g id="line2d_15">
    <path d="M 38.239801 91.412855 
L 193.867074 91.412855 
" clip-path="url(#p5be78616e0)" style="fill: none; stroke-dasharray: 2.59,1.12; stroke-dashoffset: 0; stroke: #000000; stroke-width: 0.7"/>
   </g>
   <g id="patch_3">
    <path d="M 30.458438 95.099219 
L 30.458438 13.999219 
" style="fill: none; stroke: #000000; stroke-width: 0.5; stroke-linejoin: miter; stroke-linecap: square"/>
   </g>
   <g id="patch_4">
    <path d="M 30.458438 95.099219 
L 201.648437 95.099219 
" style="fill: none; stroke: #000000; stroke-width: 0.5; stroke-linejoin: miter; stroke-linecap: square"/>
   </g>
   <g id="legend_1">
    <g id="line2d_16">
     <path d="M 120.898437 20.599219 
L 125.898437 20.599219 
L 130.898437 20.599219 
" style="fill: none; stroke: #1f77b4; stroke-width: 0.7; stroke-linecap: square"/>
    </g>
    <g id="text_16">
     <!-- max $p(r=y|y)$ difference -->
     <g transform="translate(134.898437 22.349219) scale(0.05 -0.05)">
      <defs>
       <path id="DejaVuSans-6d" d="M 3328 2828 
Q 3544 3216 3844 3400 
Q 4144 3584 4550 3584 
Q 5097 3584 5394 3201 
Q 5691 2819 5691 2113 
L 5691 0 
L 5113 0 
L 5113 2094 
Q 5113 2597 4934 2840 
Q 4756 3084 4391 3084 
Q 3944 3084 3684 2787 
Q 3425 2491 3425 1978 
L 3425 0 
L 2847 0 
L 2847 2094 
Q 2847 2600 2669 2842 
Q 2491 3084 2119 3084 
Q 1678 3084 1418 2786 
Q 1159 2488 1159 1978 
L 1159 0 
L 581 0 
L 581 3500 
L 1159 3500 
L 1159 2956 
Q 1356 3278 1631 3431 
Q 1906 3584 2284 3584 
Q 2666 3584 2933 3390 
Q 3200 3197 3328 2828 
z
" transform="scale(0.015625)"/>
       <path id="DejaVuSans-Oblique-70" d="M 3175 2156 
Q 3175 2616 2975 2859 
Q 2775 3103 2400 3103 
Q 2144 3103 1911 2972 
Q 1678 2841 1497 2591 
Q 1319 2344 1212 1994 
Q 1106 1644 1106 1300 
Q 1106 863 1306 627 
Q 1506 391 1875 391 
Q 2147 391 2380 519 
Q 2613 647 2778 891 
Q 2956 1147 3065 1494 
Q 3175 1841 3175 2156 
z
M 1394 2969 
Q 1625 3272 1939 3428 
Q 2253 3584 2638 3584 
Q 3175 3584 3472 3232 
Q 3769 2881 3769 2247 
Q 3769 1728 3584 1258 
Q 3400 788 3053 416 
Q 2822 169 2531 39 
Q 2241 -91 1919 -91 
Q 1547 -91 1294 64 
Q 1041 219 916 525 
L 556 -1331 
L -19 -1331 
L 922 3500 
L 1497 3500 
L 1394 2969 
z
" transform="scale(0.015625)"/>
       <path id="DejaVuSans-Oblique-72" d="M 2853 2969 
Q 2766 3016 2653 3041 
Q 2541 3066 2413 3066 
Q 1953 3066 1609 2717 
Q 1266 2369 1153 1784 
L 800 0 
L 225 0 
L 909 3500 
L 1484 3500 
L 1375 2956 
Q 1603 3259 1920 3421 
Q 2238 3584 2597 3584 
Q 2691 3584 2781 3573 
Q 2872 3563 2963 3538 
L 2853 2969 
z
" transform="scale(0.015625)"/>
       <path id="DejaVuSans-3d" d="M 678 2906 
L 4684 2906 
L 4684 2381 
L 678 2381 
L 678 2906 
z
M 678 1631 
L 4684 1631 
L 4684 1100 
L 678 1100 
L 678 1631 
z
" transform="scale(0.015625)"/>
       <path id="DejaVuSans-Oblique-79" d="M 1588 -325 
Q 1188 -997 936 -1164 
Q 684 -1331 294 -1331 
L -159 -1331 
L -63 -850 
L 269 -850 
Q 509 -850 678 -719 
Q 847 -588 1056 -206 
L 1234 128 
L 459 3500 
L 1069 3500 
L 1650 819 
L 3256 3500 
L 3859 3500 
L 1588 -325 
z
" transform="scale(0.015625)"/>
       <path id="DejaVuSans-7c" d="M 1344 4891 
L 1344 -1509 
L 813 -1509 
L 813 4891 
L 1344 4891 
z
" transform="scale(0.015625)"/>
      </defs>
      <use xlink:href="#DejaVuSans-6d" transform="translate(0 0.578125)"/>
      <use xlink:href="#DejaVuSans-61" transform="translate(97.412109 0.578125)"/>
      <use xlink:href="#DejaVuSans-78" transform="translate(158.691406 0.578125)"/>
      <use xlink:href="#DejaVuSans-20" transform="translate(217.871094 0.578125)"/>
      <use xlink:href="#DejaVuSans-Oblique-70" transform="translate(249.658203 0.578125)"/>
      <use xlink:href="#DejaVuSans-28" transform="translate(313.134766 0.578125)"/>
      <use xlink:href="#DejaVuSans-Oblique-72" transform="translate(352.148438 0.578125)"/>
      <use xlink:href="#DejaVuSans-3d" transform="translate(412.744141 0.578125)"/>
      <use xlink:href="#DejaVuSans-Oblique-79" transform="translate(516.015625 0.578125)"/>
      <use xlink:href="#DejaVuSans-7c" transform="translate(575.195312 0.578125)"/>
      <use xlink:href="#DejaVuSans-Oblique-79" transform="translate(608.886719 0.578125)"/>
      <use xlink:href="#DejaVuSans-29" transform="translate(668.066406 0.578125)"/>
      <use xlink:href="#DejaVuSans-20" transform="translate(707.080078 0.578125)"/>
      <use xlink:href="#DejaVuSans-64" transform="translate(738.867188 0.578125)"/>
      <use xlink:href="#DejaVuSans-69" transform="translate(802.34375 0.578125)"/>
      <use xlink:href="#DejaVuSans-66" transform="translate(830.126953 0.578125)"/>
      <use xlink:href="#DejaVuSans-66" transform="translate(865.332031 0.578125)"/>
      <use xlink:href="#DejaVuSans-65" transform="translate(900.537109 0.578125)"/>
      <use xlink:href="#DejaVuSans-72" transform="translate(962.060547 0.578125)"/>
      <use xlink:href="#DejaVuSans-65" transform="translate(1003.173828 0.578125)"/>
      <use xlink:href="#DejaVuSans-6e" transform="translate(1064.697266 0.578125)"/>
      <use xlink:href="#DejaVuSans-63" transform="translate(1128.076172 0.578125)"/>
      <use xlink:href="#DejaVuSans-65" transform="translate(1183.056641 0.578125)"/>
     </g>
    </g>
    <g id="line2d_17">
     <path d="M 120.898437 28.149219 
L 125.898437 28.149219 
L 130.898437 28.149219 
" style="fill: none; stroke: #ff7f0e; stroke-width: 0.7; stroke-linecap: square"/>
    </g>
    <g id="text_17">
     <!-- max $p(r\neq y|y)$ difference -->
     <g transform="translate(134.898437 29.899219) scale(0.05 -0.05)">
      <defs>
       <path id="DejaVuSans-2260" d="M 678 2906 
L 3091 2906 
L 3891 3891 
L 4281 3572 
L 3738 2906 
L 4684 2906 
L 4684 2381 
L 3309 2381 
L 2700 1631 
L 4684 1631 
L 4684 1100 
L 2266 1100 
L 1459 122 
L 1069 441 
L 1613 1100 
L 678 1100 
L 678 1631 
L 2047 1631 
L 2656 2381 
L 678 2381 
L 678 2906 
z
" transform="scale(0.015625)"/>
      </defs>
      <use xlink:href="#DejaVuSans-6d" transform="translate(0 0.578125)"/>
      <use xlink:href="#DejaVuSans-61" transform="translate(97.412109 0.578125)"/>
      <use xlink:href="#DejaVuSans-78" transform="translate(158.691406 0.578125)"/>
      <use xlink:href="#DejaVuSans-20" transform="translate(217.871094 0.578125)"/>
      <use xlink:href="#DejaVuSans-Oblique-70" transform="translate(249.658203 0.578125)"/>
      <use xlink:href="#DejaVuSans-28" transform="translate(313.134766 0.578125)"/>
      <use xlink:href="#DejaVuSans-Oblique-72" transform="translate(352.148438 0.578125)"/>
      <use xlink:href="#DejaVuSans-2260" transform="translate(412.744141 0.578125)"/>
      <use xlink:href="#DejaVuSans-Oblique-79" transform="translate(516.015625 0.578125)"/>
      <use xlink:href="#DejaVuSans-7c" transform="translate(575.195312 0.578125)"/>
      <use xlink:href="#DejaVuSans-Oblique-79" transform="translate(608.886719 0.578125)"/>
      <use xlink:href="#DejaVuSans-29" transform="translate(668.066406 0.578125)"/>
      <use xlink:href="#DejaVuSans-20" transform="translate(707.080078 0.578125)"/>
      <use xlink:href="#DejaVuSans-64" transform="translate(738.867188 0.578125)"/>
      <use xlink:href="#DejaVuSans-69" transform="translate(802.34375 0.578125)"/>
      <use xlink:href="#DejaVuSans-66" transform="translate(830.126953 0.578125)"/>
      <use xlink:href="#DejaVuSans-66" transform="translate(865.332031 0.578125)"/>
      <use xlink:href="#DejaVuSans-65" transform="translate(900.537109 0.578125)"/>
      <use xlink:href="#DejaVuSans-72" transform="translate(962.060547 0.578125)"/>
      <use xlink:href="#DejaVuSans-65" transform="translate(1003.173828 0.578125)"/>
      <use xlink:href="#DejaVuSans-6e" transform="translate(1064.697266 0.578125)"/>
      <use xlink:href="#DejaVuSans-63" transform="translate(1128.076172 0.578125)"/>
      <use xlink:href="#DejaVuSans-65" transform="translate(1183.056641 0.578125)"/>
     </g>
    </g>
   </g>
  </g>
 </g>
 <defs>
  <clipPath id="p5be78616e0">
   <rect x="30.458438" y="13.999219" width="171.19" height="81.1"/>
  </clipPath>
 </defs>
</svg>
