<?xml version="1.0" encoding="utf-8" standalone="no"?>
<!DOCTYPE svg PUBLIC "-//W3C//DTD SVG 1.1//EN"
  "http://www.w3.org/Graphics/SVG/1.1/DTD/svg11.dtd">
<svg xmlns:xlink="http://www.w3.org/1999/xlink" width="208.848437pt" height="122.445156pt" viewBox="0 0 208.848437 122.445156" xmlns="http://www.w3.org/2000/svg" version="1.1">
 <metadata>
  <rdf:RDF xmlns:dc="http://purl.org/dc/elements/1.1/" xmlns:cc="http://creativecommons.org/ns#" xmlns:rdf="http://www.w3.org/1999/02/22-rdf-syntax-ns#">
   <cc:Work>
    <dc:type rdf:resource="http://purl.org/dc/dcmitype/StillImage"/>
    <dc:date>2026-04-22T13:20:41.323425</dc:date>
    <dc:format>image/svg+xml</dc:format>
    <dc:creator>
     <cc:Agent>
      <dc:title>Matplotlib v3.6.2, https://matplotlib.org/</dc:title>
     </cc:Agent>
    </dc:creator>
   </cc:Work>
  </rdf:RDF>
 </metadata>
 <defs>
  <style type="text/css">*{stroke-linejoin: round; stroke-linecap: butt}</style>
 </defs>
 <g id="figure_1">
  <g id="patch_1">
   <path d="M -0 122.445156 
L 208.848437 122.445156 
L 208.848437 0 
L -0 0 
z
" style="fill: #ffffff"/>
  </g>
  <g id="axes_1">
   <g id="patch_2">
    <path d="M 30.458438 95.099219 
L 201.648438 95.099219 
L 201.648438 13.999219 
L 30.458438 13.999219 
z
" style="fill: #ffffff"/>
   </g>
   <g id="matplotlib.axis_1">
    <g id="xtick_1">
     <g id="line2d_1">
      <defs>
       <path id="mf8a7256214" d="M 0 0 
L 0 2 
" style="stroke: #000000; stroke-width: 0.5"/>
      </defs>
      <g>
       <use xlink:href="#mf8a7256214" x="38.239801" y="95.099219" style="stroke: #000000; stroke-width: 0.5"/>
      </g>
     </g>
     <g id="text_1">
      <!-- 0.0 -->
      <g transform="translate(34.26402 104.398437) scale(0.05 -0.05)">
       <defs>
        <path id="DejaVuSans-30" d="M 2034 4250 
Q 1547 4250 1301 3770 
Q 1056 3291 1056 2328 
Q 1056 1369 1301 889 
Q 1547 409 2034 409 
Q 2525 409 2770 889 
Q 3016 1369 3016 2328 
Q 3016 3291 2770 3770 
Q 2525 4250 2034 4250 
z
M 2034 4750 
Q 2819 4750 3233 4129 
Q 3647 3509 3647 2328 
Q 3647 1150 3233 529 
Q 2819 -91 2034 -91 
Q 1250 -91 836 529 
Q 422 1150 422 2328 
Q 422 3509 836 4129 
Q 1250 4750 2034 4750 
z
" transform="scale(0.015625)"/>
        <path id="DejaVuSans-2e" d="M 684 794 
L 1344 794 
L 1344 0 
L 684 0 
L 684 794 
z
" transform="scale(0.015625)"/>
       </defs>
       <use xlink:href="#DejaVuSans-30"/>
       <use xlink:href="#DejaVuSans-2e" x="63.623047"/>
       <use xlink:href="#DejaVuSans-30" x="95.410156"/>
      </g>
     </g>
    </g>
    <g id="xtick_2">
     <g id="line2d_2">
      <g>
       <use xlink:href="#mf8a7256214" x="57.877777" y="95.099219" style="stroke: #000000; stroke-width: 0.5"/>
      </g>
     </g>
     <g id="text_2">
      <!-- 0.2 -->
      <g transform="translate(53.901995 104.398437) scale(0.05 -0.05)">
       <defs>
        <path id="DejaVuSans-32" d="M 1228 531 
L 3431 531 
L 3431 0 
L 469 0 
L 469 531 
Q 828 903 1448 1529 
Q 2069 2156 2228 2338 
Q 2531 2678 2651 2914 
Q 2772 3150 2772 3378 
Q 2772 3750 2511 3984 
Q 2250 4219 1831 4219 
Q 1534 4219 1204 4116 
Q 875 4013 500 3803 
L 500 4441 
Q 881 4594 1212 4672 
Q 1544 4750 1819 4750 
Q 2544 4750 2975 4387 
Q 3406 4025 3406 3419 
Q 3406 3131 3298 2873 
Q 3191 2616 2906 2266 
Q 2828 2175 2409 1742 
Q 1991 1309 1228 531 
z
" transform="scale(0.015625)"/>
       </defs>
       <use xlink:href="#DejaVuSans-30"/>
       <use xlink:href="#DejaVuSans-2e" x="63.623047"/>
       <use xlink:href="#DejaVuSans-32" x="95.410156"/>
      </g>
     </g>
    </g>
    <g id="xtick_3">
     <g id="line2d_3">
      <g>
       <use xlink:href="#mf8a7256214" x="77.515752" y="95.099219" style="stroke: #000000; stroke-width: 0.5"/>
      </g>
     </g>
     <g id="text_3">
      <!-- 0.4 -->
      <g transform="translate(73.539971 104.398437) scale(0.05 -0.05)">
       <defs>
        <path id="DejaVuSans-34" d="M 2419 4116 
L 825 1625 
L 2419 1625 
L 2419 4116 
z
M 2253 4666 
L 3047 4666 
L 3047 1625 
L 3713 1625 
L 3713 1100 
L 3047 1100 
L 3047 0 
L 2419 0 
L 2419 1100 
L 313 1100 
L 313 1709 
L 2253 4666 
z
" transform="scale(0.015625)"/>
       </defs>
       <use xlink:href="#DejaVuSans-30"/>
       <use xlink:href="#DejaVuSans-2e" x="63.623047"/>
       <use xlink:href="#DejaVuSans-34" x="95.410156"/>
      </g>
     </g>
    </g>
    <g id="xtick_4">
     <g id="line2d_4">
      <g>
       <use xlink:href="#mf8a7256214" x="97.153727" y="95.099219" style="stroke: #000000; stroke-width: 0.5"/>
      </g>
     </g>
     <g id="text_4">
      <!-- 0.6 -->
      <g transform="translate(93.177946 104.398437) scale(0.05 -0.05)">
       <defs>
        <path id="DejaVuSans-36" d="M 2113 2584 
Q 1688 2584 1439 2293 
Q 1191 2003 1191 1497 
Q 1191 994 1439 701 
Q 1688 409 2113 409 
Q 2538 409 2786 701 
Q 3034 994 3034 1497 
Q 3034 2003 2786 2293 
Q 2538 2584 2113 2584 
z
M 3366 4563 
L 3366 3988 
Q 3128 4100 2886 4159 
Q 2644 4219 2406 4219 
Q 1781 4219 1451 3797 
Q 1122 3375 1075 2522 
Q 1259 2794 1537 2939 
Q 1816 3084 2150 3084 
Q 2853 3084 3261 2657 
Q 3669 2231 3669 1497 
Q 3669 778 3244 343 
Q 2819 -91 2113 -91 
Q 1303 -91 875 529 
Q 447 1150 447 2328 
Q 447 3434 972 4092 
Q 1497 4750 2381 4750 
Q 2619 4750 2861 4703 
Q 3103 4656 3366 4563 
z
" transform="scale(0.015625)"/>
       </defs>
       <use xlink:href="#DejaVuSans-30"/>
       <use xlink:href="#DejaVuSans-2e" x="63.623047"/>
       <use xlink:href="#DejaVuSans-36" x="95.410156"/>
      </g>
     </g>
    </g>
    <g id="xtick_5">
     <g id="line2d_5">
      <g>
       <use xlink:href="#mf8a7256214" x="116.791703" y="95.099219" style="stroke: #000000; stroke-width: 0.5"/>
      </g>
     </g>
     <g id="text_5">
      <!-- 0.8 -->
      <g transform="translate(112.815921 104.398437) scale(0.05 -0.05)">
       <defs>
        <path id="DejaVuSans-38" d="M 2034 2216 
Q 1584 2216 1326 1975 
Q 1069 1734 1069 1313 
Q 1069 891 1326 650 
Q 1584 409 2034 409 
Q 2484 409 2743 651 
Q 3003 894 3003 1313 
Q 3003 1734 2745 1975 
Q 2488 2216 2034 2216 
z
M 1403 2484 
Q 997 2584 770 2862 
Q 544 3141 544 3541 
Q 544 4100 942 4425 
Q 1341 4750 2034 4750 
Q 2731 4750 3128 4425 
Q 3525 4100 3525 3541 
Q 3525 3141 3298 2862 
Q 3072 2584 2669 2484 
Q 3125 2378 3379 2068 
Q 3634 1759 3634 1313 
Q 3634 634 3220 271 
Q 2806 -91 2034 -91 
Q 1263 -91 848 271 
Q 434 634 434 1313 
Q 434 1759 690 2068 
Q 947 2378 1403 2484 
z
M 1172 3481 
Q 1172 3119 1398 2916 
Q 1625 2713 2034 2713 
Q 2441 2713 2670 2916 
Q 2900 3119 2900 3481 
Q 2900 3844 2670 4047 
Q 2441 4250 2034 4250 
Q 1625 4250 1398 4047 
Q 1172 3844 1172 3481 
z
" transform="scale(0.015625)"/>
       </defs>
       <use xlink:href="#DejaVuSans-30"/>
       <use xlink:href="#DejaVuSans-2e" x="63.623047"/>
       <use xlink:href="#DejaVuSans-38" x="95.410156"/>
      </g>
     </g>
    </g>
    <g id="xtick_6">
     <g id="line2d_6">
      <g>
       <use xlink:href="#mf8a7256214" x="136.429678" y="95.099219" style="stroke: #000000; stroke-width: 0.5"/>
      </g>
     </g>
     <g id="text_6">
      <!-- 1.0 -->
      <g transform="translate(132.453897 104.398437) scale(0.05 -0.05)">
       <defs>
        <path id="DejaVuSans-31" d="M 794 531 
L 1825 531 
L 1825 4091 
L 703 3866 
L 703 4441 
L 1819 4666 
L 2450 4666 
L 2450 531 
L 3481 531 
L 3481 0 
L 794 0 
L 794 531 
z
" transform="scale(0.015625)"/>
       </defs>
       <use xlink:href="#DejaVuSans-31"/>
       <use xlink:href="#DejaVuSans-2e" x="63.623047"/>
       <use xlink:href="#DejaVuSans-30" x="95.410156"/>
      </g>
     </g>
    </g>
    <g id="xtick_7">
     <g id="line2d_7">
      <g>
       <use xlink:href="#mf8a7256214" x="156.067653" y="95.099219" style="stroke: #000000; stroke-width: 0.5"/>
      </g>
     </g>
     <g id="text_7">
      <!-- 1.2 -->
      <g transform="translate(152.091872 104.398437) scale(0.05 -0.05)">
       <use xlink:href="#DejaVuSans-31"/>
       <use xlink:href="#DejaVuSans-2e" x="63.623047"/>
       <use xlink:href="#DejaVuSans-32" x="95.410156"/>
      </g>
     </g>
    </g>
    <g id="xtick_8">
     <g id="line2d_8">
      <g>
       <use xlink:href="#mf8a7256214" x="175.705629" y="95.099219" style="stroke: #000000; stroke-width: 0.5"/>
      </g>
     </g>
     <g id="text_8">
      <!-- 1.4 -->
      <g transform="translate(171.729847 104.398437) scale(0.05 -0.05)">
       <use xlink:href="#DejaVuSans-31"/>
       <use xlink:href="#DejaVuSans-2e" x="63.623047"/>
       <use xlink:href="#DejaVuSans-34" x="95.410156"/>
      </g>
     </g>
    </g>
    <g id="xtick_9">
     <g id="line2d_9">
      <g>
       <use xlink:href="#mf8a7256214" x="195.343604" y="95.099219" style="stroke: #000000; stroke-width: 0.5"/>
      </g>
     </g>
     <g id="text_9">
      <!-- 1.6 -->
      <g transform="translate(191.367823 104.398437) scale(0.05 -0.05)">
       <use xlink:href="#DejaVuSans-31"/>
       <use xlink:href="#DejaVuSans-2e" x="63.623047"/>
       <use xlink:href="#DejaVuSans-36" x="95.410156"/>
      </g>
     </g>
    </g>
    <g id="text_10">
     <!-- I(X;R) -->
     <g transform="translate(107.677344 113.997344) scale(0.06 -0.06)">
      <defs>
       <path id="DejaVuSans-49" d="M 628 4666 
L 1259 4666 
L 1259 0 
L 628 0 
L 628 4666 
z
" transform="scale(0.015625)"/>
       <path id="DejaVuSans-28" d="M 1984 4856 
Q 1566 4138 1362 3434 
Q 1159 2731 1159 2009 
Q 1159 1288 1364 580 
Q 1569 -128 1984 -844 
L 1484 -844 
Q 1016 -109 783 600 
Q 550 1309 550 2009 
Q 550 2706 781 3412 
Q 1013 4119 1484 4856 
L 1984 4856 
z
" transform="scale(0.015625)"/>
       <path id="DejaVuSans-58" d="M 403 4666 
L 1081 4666 
L 2241 2931 
L 3406 4666 
L 4084 4666 
L 2584 2425 
L 4184 0 
L 3506 0 
L 2194 1984 
L 872 0 
L 191 0 
L 1856 2491 
L 403 4666 
z
" transform="scale(0.015625)"/>
       <path id="DejaVuSans-3b" d="M 750 3309 
L 1409 3309 
L 1409 2516 
L 750 2516 
L 750 3309 
z
M 750 794 
L 1409 794 
L 1409 256 
L 897 -744 
L 494 -744 
L 750 256 
L 750 794 
z
" transform="scale(0.015625)"/>
       <path id="DejaVuSans-52" d="M 2841 2188 
Q 3044 2119 3236 1894 
Q 3428 1669 3622 1275 
L 4263 0 
L 3584 0 
L 2988 1197 
Q 2756 1666 2539 1819 
Q 2322 1972 1947 1972 
L 1259 1972 
L 1259 0 
L 628 0 
L 628 4666 
L 2053 4666 
Q 2853 4666 3247 4331 
Q 3641 3997 3641 3322 
Q 3641 2881 3436 2590 
Q 3231 2300 2841 2188 
z
M 1259 4147 
L 1259 2491 
L 2053 2491 
Q 2509 2491 2742 2702 
Q 2975 2913 2975 3322 
Q 2975 3731 2742 3939 
Q 2509 4147 2053 4147 
L 1259 4147 
z
" transform="scale(0.015625)"/>
       <path id="DejaVuSans-29" d="M 513 4856 
L 1013 4856 
Q 1481 4119 1714 3412 
Q 1947 2706 1947 2009 
Q 1947 1309 1714 600 
Q 1481 -109 1013 -844 
L 513 -844 
Q 928 -128 1133 580 
Q 1338 1288 1338 2009 
Q 1338 2731 1133 3434 
Q 928 4138 513 4856 
z
" transform="scale(0.015625)"/>
      </defs>
      <use xlink:href="#DejaVuSans-49"/>
      <use xlink:href="#DejaVuSans-28" x="29.492188"/>
      <use xlink:href="#DejaVuSans-58" x="68.505859"/>
      <use xlink:href="#DejaVuSans-3b" x="137.011719"/>
      <use xlink:href="#DejaVuSans-52" x="170.703125"/>
      <use xlink:href="#DejaVuSans-29" x="240.185547"/>
     </g>
    </g>
   </g>
   <g id="matplotlib.axis_2">
    <g id="ytick_1">
     <g id="line2d_10">
      <defs>
       <path id="mcfe76b44ff" d="M 0 0 
L -2 0 
" style="stroke: #000000; stroke-width: 0.5"/>
      </defs>
      <g>
       <use xlink:href="#mcfe76b44ff" x="30.458438" y="91.412855" style="stroke: #000000; stroke-width: 0.5"/>
      </g>
     </g>
     <g id="text_11">
      <!-- 0.0 -->
      <g transform="translate(17.006875 93.312464) scale(0.05 -0.05)">
       <use xlink:href="#DejaVuSans-30"/>
       <use xlink:href="#DejaVuSans-2e" x="63.623047"/>
       <use xlink:href="#DejaVuSans-30" x="95.410156"/>
      </g>
     </g>
    </g>
    <g id="ytick_2">
     <g id="line2d_11">
      <g>
       <use xlink:href="#mcfe76b44ff" x="30.458438" y="76.720903" style="stroke: #000000; stroke-width: 0.5"/>
      </g>
     </g>
     <g id="text_12">
      <!-- 0.5 -->
      <g transform="translate(17.006875 78.620512) scale(0.05 -0.05)">
       <defs>
        <path id="DejaVuSans-35" d="M 691 4666 
L 3169 4666 
L 3169 4134 
L 1269 4134 
L 1269 2991 
Q 1406 3038 1543 3061 
Q 1681 3084 1819 3084 
Q 2600 3084 3056 2656 
Q 3513 2228 3513 1497 
Q 3513 744 3044 326 
Q 2575 -91 1722 -91 
Q 1428 -91 1123 -41 
Q 819 9 494 109 
L 494 744 
Q 775 591 1075 516 
Q 1375 441 1709 441 
Q 2250 441 2565 725 
Q 2881 1009 2881 1497 
Q 2881 1984 2565 2268 
Q 2250 2553 1709 2553 
Q 1456 2553 1204 2497 
Q 953 2441 691 2322 
L 691 4666 
z
" transform="scale(0.015625)"/>
       </defs>
       <use xlink:href="#DejaVuSans-30"/>
       <use xlink:href="#DejaVuSans-2e" x="63.623047"/>
       <use xlink:href="#DejaVuSans-35" x="95.410156"/>
      </g>
     </g>
    </g>
    <g id="ytick_3">
     <g id="line2d_12">
      <g>
       <use xlink:href="#mcfe76b44ff" x="30.458438" y="62.028951" style="stroke: #000000; stroke-width: 0.5"/>
      </g>
     </g>
     <g id="text_13">
      <!-- 1.0 -->
      <g transform="translate(17.006875 63.92856) scale(0.05 -0.05)">
       <use xlink:href="#DejaVuSans-31"/>
       <use xlink:href="#DejaVuSans-2e" x="63.623047"/>
       <use xlink:href="#DejaVuSans-30" x="95.410156"/>
      </g>
     </g>
    </g>
    <g id="ytick_4">
     <g id="line2d_13">
      <g>
       <use xlink:href="#mcfe76b44ff" x="30.458438" y="47.336999" style="stroke: #000000; stroke-width: 0.5"/>
      </g>
     </g>
     <g id="text_14">
      <!-- 1.5 -->
      <g transform="translate(17.006875 49.236608) scale(0.05 -0.05)">
       <use xlink:href="#DejaVuSans-31"/>
       <use xlink:href="#DejaVuSans-2e" x="63.623047"/>
       <use xlink:href="#DejaVuSans-35" x="95.410156"/>
      </g>
     </g>
    </g>
    <g id="ytick_5">
     <g id="line2d_14">
      <g>
       <use xlink:href="#mcfe76b44ff" x="30.458438" y="32.645047" style="stroke: #000000; stroke-width: 0.5"/>
      </g>
     </g>
     <g id="text_15">
      <!-- 2.0 -->
      <g transform="translate(17.006875 34.544656) scale(0.05 -0.05)">
       <use xlink:href="#DejaVuSans-32"/>
       <use xlink:href="#DejaVuSans-2e" x="63.623047"/>
       <use xlink:href="#DejaVuSans-30" x="95.410156"/>
      </g>
     </g>
    </g>
    <g id="ytick_6">
     <g id="line2d_15">
      <g>
       <use xlink:href="#mcfe76b44ff" x="30.458438" y="17.953094" style="stroke: #000000; stroke-width: 0.5"/>
      </g>
     </g>
     <g id="text_16">
      <!-- 2.5 -->
      <g transform="translate(17.006875 19.852704) scale(0.05 -0.05)">
       <use xlink:href="#DejaVuSans-32"/>
       <use xlink:href="#DejaVuSans-2e" x="63.623047"/>
       <use xlink:href="#DejaVuSans-35" x="95.410156"/>
      </g>
     </g>
    </g>
    <g id="text_17">
     <!-- Max difference -->
     <g transform="translate(11.759063 76.809687) rotate(-90) scale(0.06 -0.06)">
      <defs>
       <path id="DejaVuSans-4d" d="M 628 4666 
L 1569 4666 
L 2759 1491 
L 3956 4666 
L 4897 4666 
L 4897 0 
L 4281 0 
L 4281 4097 
L 3078 897 
L 2444 897 
L 1241 4097 
L 1241 0 
L 628 0 
L 628 4666 
z
" transform="scale(0.015625)"/>
       <path id="DejaVuSans-61" d="M 2194 1759 
Q 1497 1759 1228 1600 
Q 959 1441 959 1056 
Q 959 750 1161 570 
Q 1363 391 1709 391 
Q 2188 391 2477 730 
Q 2766 1069 2766 1631 
L 2766 1759 
L 2194 1759 
z
M 3341 1997 
L 3341 0 
L 2766 0 
L 2766 531 
Q 2569 213 2275 61 
Q 1981 -91 1556 -91 
Q 1019 -91 701 211 
Q 384 513 384 1019 
Q 384 1609 779 1909 
Q 1175 2209 1959 2209 
L 2766 2209 
L 2766 2266 
Q 2766 2663 2505 2880 
Q 2244 3097 1772 3097 
Q 1472 3097 1187 3025 
Q 903 2953 641 2809 
L 641 3341 
Q 956 3463 1253 3523 
Q 1550 3584 1831 3584 
Q 2591 3584 2966 3190 
Q 3341 2797 3341 1997 
z
" transform="scale(0.015625)"/>
       <path id="DejaVuSans-78" d="M 3513 3500 
L 2247 1797 
L 3578 0 
L 2900 0 
L 1881 1375 
L 863 0 
L 184 0 
L 1544 1831 
L 300 3500 
L 978 3500 
L 1906 2253 
L 2834 3500 
L 3513 3500 
z
" transform="scale(0.015625)"/>
       <path id="DejaVuSans-20" transform="scale(0.015625)"/>
       <path id="DejaVuSans-64" d="M 2906 2969 
L 2906 4863 
L 3481 4863 
L 3481 0 
L 2906 0 
L 2906 525 
Q 2725 213 2448 61 
Q 2172 -91 1784 -91 
Q 1150 -91 751 415 
Q 353 922 353 1747 
Q 353 2572 751 3078 
Q 1150 3584 1784 3584 
Q 2172 3584 2448 3432 
Q 2725 3281 2906 2969 
z
M 947 1747 
Q 947 1113 1208 752 
Q 1469 391 1925 391 
Q 2381 391 2643 752 
Q 2906 1113 2906 1747 
Q 2906 2381 2643 2742 
Q 2381 3103 1925 3103 
Q 1469 3103 1208 2742 
Q 947 2381 947 1747 
z
" transform="scale(0.015625)"/>
       <path id="DejaVuSans-69" d="M 603 3500 
L 1178 3500 
L 1178 0 
L 603 0 
L 603 3500 
z
M 603 4863 
L 1178 4863 
L 1178 4134 
L 603 4134 
L 603 4863 
z
" transform="scale(0.015625)"/>
       <path id="DejaVuSans-66" d="M 2375 4863 
L 2375 4384 
L 1825 4384 
Q 1516 4384 1395 4259 
Q 1275 4134 1275 3809 
L 1275 3500 
L 2222 3500 
L 2222 3053 
L 1275 3053 
L 1275 0 
L 697 0 
L 697 3053 
L 147 3053 
L 147 3500 
L 697 3500 
L 697 3744 
Q 697 4328 969 4595 
Q 1241 4863 1831 4863 
L 2375 4863 
z
" transform="scale(0.015625)"/>
       <path id="DejaVuSans-65" d="M 3597 1894 
L 3597 1613 
L 953 1613 
Q 991 1019 1311 708 
Q 1631 397 2203 397 
Q 2534 397 2845 478 
Q 3156 559 3463 722 
L 3463 178 
Q 3153 47 2828 -22 
Q 2503 -91 2169 -91 
Q 1331 -91 842 396 
Q 353 884 353 1716 
Q 353 2575 817 3079 
Q 1281 3584 2069 3584 
Q 2775 3584 3186 3129 
Q 3597 2675 3597 1894 
z
M 3022 2063 
Q 3016 2534 2758 2815 
Q 2500 3097 2075 3097 
Q 1594 3097 1305 2825 
Q 1016 2553 972 2059 
L 3022 2063 
z
" transform="scale(0.015625)"/>
       <path id="DejaVuSans-72" d="M 2631 2963 
Q 2534 3019 2420 3045 
Q 2306 3072 2169 3072 
Q 1681 3072 1420 2755 
Q 1159 2438 1159 1844 
L 1159 0 
L 581 0 
L 581 3500 
L 1159 3500 
L 1159 2956 
Q 1341 3275 1631 3429 
Q 1922 3584 2338 3584 
Q 2397 3584 2469 3576 
Q 2541 3569 2628 3553 
L 2631 2963 
z
" transform="scale(0.015625)"/>
       <path id="DejaVuSans-6e" d="M 3513 2113 
L 3513 0 
L 2938 0 
L 2938 2094 
Q 2938 2591 2744 2837 
Q 2550 3084 2163 3084 
Q 1697 3084 1428 2787 
Q 1159 2491 1159 1978 
L 1159 0 
L 581 0 
L 581 3500 
L 1159 3500 
L 1159 2956 
Q 1366 3272 1645 3428 
Q 1925 3584 2291 3584 
Q 2894 3584 3203 3211 
Q 3513 2838 3513 2113 
z
" transform="scale(0.015625)"/>
       <path id="DejaVuSans-63" d="M 3122 3366 
L 3122 2828 
Q 2878 2963 2633 3030 
Q 2388 3097 2138 3097 
Q 1578 3097 1268 2742 
Q 959 2388 959 1747 
Q 959 1106 1268 751 
Q 1578 397 2138 397 
Q 2388 397 2633 464 
Q 2878 531 3122 666 
L 3122 134 
Q 2881 22 2623 -34 
Q 2366 -91 2075 -91 
Q 1284 -91 818 406 
Q 353 903 353 1747 
Q 353 2603 823 3093 
Q 1294 3584 2113 3584 
Q 2378 3584 2631 3529 
Q 2884 3475 3122 3366 
z
" transform="scale(0.015625)"/>
      </defs>
      <use xlink:href="#DejaVuSans-4d"/>
      <use xlink:href="#DejaVuSans-61" x="86.279297"/>
      <use xlink:href="#DejaVuSans-78" x="147.558594"/>
      <use xlink:href="#DejaVuSans-20" x="206.738281"/>
      <use xlink:href="#DejaVuSans-64" x="238.525391"/>
      <use xlink:href="#DejaVuSans-69" x="302.001953"/>
      <use xlink:href="#DejaVuSans-66" x="329.785156"/>
      <use xlink:href="#DejaVuSans-66" x="364.990234"/>
      <use xlink:href="#DejaVuSans-65" x="400.195312"/>
      <use xlink:href="#DejaVuSans-72" x="461.71875"/>
      <use xlink:href="#DejaVuSans-65" x="500.582031"/>
      <use xlink:href="#DejaVuSans-6e" x="562.105469"/>
      <use xlink:href="#DejaVuSans-63" x="625.484375"/>
      <use xlink:href="#DejaVuSans-65" x="680.464844"/>
     </g>
    </g>
    <g id="text_18">
     <!-- 1e−14 -->
     <g transform="translate(30.458438 10.999219) scale(0.05 -0.05)">
      <defs>
       <path id="DejaVuSans-2212" d="M 678 2272 
L 4684 2272 
L 4684 1741 
L 678 1741 
L 678 2272 
z
" transform="scale(0.015625)"/>
      </defs>
      <use xlink:href="#DejaVuSans-31"/>
      <use xlink:href="#DejaVuSans-65" x="63.623047"/>
      <use xlink:href="#DejaVuSans-2212" x="125.146484"/>
      <use xlink:href="#DejaVuSans-31" x="208.935547"/>
      <use xlink:href="#DejaVuSans-34" x="272.558594"/>
     </g>
    </g>
   </g>
   <g id="line2d_16">
    <path d="M 38.269576 17.685582 
L 38.512583 55.201672 
L 38.728727 17.685582 
L 39.009647 71.186789 
L 39.356394 87.008792 
L 39.769836 50.79761 
L 40.250654 57.811487 
L 40.799329 68.903201 
L 41.416141 40.195236 
L 42.10116 72.002356 
L 42.854247 23.720779 
L 43.675047 51.450063 
L 44.562993 74.775285 
L 45.517304 74.449058 
L 46.536991 78.200667 
L 47.620859 36.932968 
L 48.767515 39.705896 
L 51.242662 84.562091 
L 52.567442 42.805051 
L 53.947607 47.046001 
L 55.380904 46.06732 
L 56.86494 76.732646 
L 58.397202 83.58341 
L 61.595811 56.180353 
L 63.256643 82.60473 
L 64.9547 76.732646 
L 66.68707 81.626049 
L 68.45081 61.399983 
L 70.242954 87.498133 
L 72.060533 59.768849 
L 73.900583 55.201672 
L 75.760164 89.455494 
L 77.636368 84.562091 
L 79.526331 79.016234 
L 81.427245 90.107948 
L 83.336367 87.82436 
L 85.251027 90.434175 
L 87.168637 79.342461 
L 89.086696 89.129267 
L 91.0028 84.562091 
L 92.914642 87.498133 
L 94.82002 86.845679 
L 96.716837 87.82436 
L 98.603108 83.909637 
L 100.476956 86.193225 
L 102.336618 82.60473 
L 104.180442 86.519452 
L 106.006889 85.214545 
L 109.602042 90.434175 
L 111.368217 90.760401 
L 113.111946 88.476813 
L 114.832225 88.150586 
L 116.528148 89.455494 
L 118.198907 88.476813 
L 119.843784 89.455494 
L 121.462152 89.129267 
L 123.053468 87.171906 
L 124.617273 89.781721 
L 126.153182 89.455494 
L 127.660885 89.781721 
L 129.140141 88.476813 
L 130.590774 90.434175 
L 132.012672 88.476813 
L 133.405777 90.760401 
L 134.770088 89.455494 
L 136.105651 89.781721 
L 137.412562 88.80304 
L 138.690957 90.434175 
L 139.941013 90.760401 
L 142.356998 90.107948 
L 143.52345 91.086628 
L 144.662605 89.455494 
L 145.774794 89.781721 
L 146.860367 89.455494 
L 147.919697 90.107948 
L 148.953173 89.455494 
L 149.961199 89.455494 
L 150.944193 91.412855 
L 152.836814 89.455494 
L 153.747326 90.760401 
L 154.634576 89.455494 
L 156.341128 89.455494 
L 157.161356 89.781721 
L 157.960174 91.086628 
L 158.738049 88.476813 
L 159.495445 89.455494 
L 160.232827 89.129267 
L 160.950658 89.455494 
L 161.649396 90.434175 
L 162.329495 89.455494 
L 162.991408 91.086628 
L 163.63558 91.412855 
L 164.26245 90.107948 
L 164.872455 89.455494 
L 165.466023 89.455494 
L 166.043576 90.107948 
L 166.60553 88.476813 
L 167.152292 89.455494 
L 167.684264 90.760401 
L 168.705407 91.412855 
L 169.195342 89.781721 
L 169.672018 89.455494 
L 170.135796 89.455494 
L 170.587032 90.434175 
L 171.868925 89.455494 
L 172.273389 89.781721 
L 172.666971 90.760401 
L 173.049978 88.150586 
L 173.422712 90.760401 
L 173.785464 91.086628 
L 174.138522 90.434175 
L 174.482164 90.107948 
L 174.81666 90.107948 
L 175.142275 90.434175 
L 175.459266 90.434175 
L 175.767883 89.455494 
L 176.068368 91.086628 
L 176.360959 90.434175 
L 176.645885 90.434175 
L 176.92337 87.82436 
L 177.193632 91.086628 
L 177.45688 91.086628 
L 177.713322 90.434175 
L 178.443765 90.434175 
L 178.674913 91.412855 
L 179.119778 90.434175 
L 179.333835 90.760401 
L 179.542525 90.107948 
L 179.746005 90.434175 
L 179.944429 89.455494 
L 180.137943 90.760401 
L 180.326691 90.107948 
L 180.510813 90.107948 
L 180.690443 91.086628 
L 180.865711 89.129267 
L 181.036745 90.434175 
L 181.203668 90.107948 
L 181.366599 90.434175 
L 181.525654 87.82436 
L 181.680944 88.476813 
L 181.832578 91.086628 
L 181.980662 90.107948 
L 182.125298 90.760401 
L 182.266584 90.107948 
L 182.404617 91.412855 
L 182.539489 90.760401 
L 182.67129 91.086628 
L 182.800109 89.781721 
L 182.926029 90.107948 
L 183.049132 89.455494 
L 183.169499 88.150586 
L 183.287206 91.086628 
L 183.402327 89.455494 
L 183.514936 90.760401 
L 183.625102 88.476813 
L 183.838375 91.412855 
L 184.238465 89.781721 
L 184.333324 90.760401 
L 184.426228 89.781721 
L 184.69374 91.086628 
L 184.863241 90.434175 
L 184.945481 88.476813 
L 185.105156 91.086628 
L 185.258706 89.781721 
L 185.333283 90.434175 
L 185.406446 89.781721 
L 185.548674 90.760401 
L 185.68567 88.80304 
L 185.752289 90.434175 
L 185.817697 89.455494 
L 185.881926 89.455494 
L 185.945004 90.760401 
L 186.006961 88.476813 
L 186.067824 89.129267 
L 186.186377 91.412855 
L 186.244119 89.455494 
L 186.30087 90.434175 
L 186.356656 90.434175 
L 186.411499 90.107948 
L 186.465423 91.412855 
L 186.518448 89.455494 
L 186.570598 91.086628 
L 186.770838 88.80304 
L 186.958616 90.434175 
L 187.003746 90.107948 
L 187.048182 90.760401 
L 187.091941 89.455494 
L 187.135038 89.781721 
L 187.177487 90.434175 
L 187.219304 88.476813 
L 187.260501 89.455494 
L 187.341091 91.412855 
L 187.380511 90.760401 
L 187.457661 89.781721 
L 187.495416 90.434175 
L 187.53264 91.086628 
L 187.569343 88.476813 
L 187.605537 89.781721 
L 187.641233 91.412855 
L 187.71117 91.086628 
L 187.845501 89.455494 
L 187.941687 90.760401 
L 187.910042 89.129267 
L 187.972926 90.107948 
L 188.093978 87.498133 
L 188.23706 91.412855 
L 188.318843 88.150586 
L 188.371775 90.107948 
L 188.4489 89.455494 
L 188.474025 90.107948 
L 188.547719 91.412855 
L 188.595497 90.434175 
L 188.642239 89.781721 
L 188.687978 91.086628 
L 188.819519 88.150586 
L 188.923085 90.760401 
L 188.943181 90.107948 
L 188.98278 90.760401 
L 189.00229 89.455494 
L 189.021611 90.434175 
L 189.133731 87.498133 
L 189.151808 89.455494 
L 189.222475 89.781721 
L 189.239743 89.129267 
L 189.340174 90.434175 
L 189.419943 88.476813 
L 189.450912 89.455494 
L 189.466203 91.086628 
L 189.54079 90.107948 
L 189.569785 91.412855 
L 189.64028 87.498133 
L 189.68127 91.086628 
L 189.760484 89.781721 
L 189.811352 91.086628 
L 189.872886 87.82436 
L 189.978302 91.086628 
L 189.989615 89.781721 
L 190.000852 89.781721 
L 190.012012 88.150586 
L 190.023098 90.760401 
L 190.098673 90.434175 
L 190.109189 90.434175 
L 190.170891 88.476813 
L 190.150585 90.760401 
L 190.210746 88.80304 
L 190.220556 91.412855 
L 190.324626 89.781721 
L 190.351847 91.086628 
L 190.360815 88.80304 
L 190.396177 89.781721 
L 190.447735 87.498133 
L 190.430742 91.412855 
L 190.4976 89.129267 
L 190.592612 91.086628 
L 190.513862 88.80304 
L 190.615442 90.434175 
L 190.645338 88.476813 
L 190.66006 91.412855 
L 190.717492 89.781721 
L 190.77271 91.412855 
L 190.792875 88.476813 
L 190.825854 89.781721 
L 190.914235 88.476813 
L 190.908107 91.412855 
L 190.938476 89.455494 
L 190.979882 91.412855 
L 190.956377 87.498133 
L 191.048013 90.434175 
L 191.059035 90.434175 
L 191.069965 87.82436 
L 191.144009 91.086628 
L 191.174483 88.150586 
L 191.252324 91.412855 
L 191.257032 90.107948 
L 191.338819 87.82436 
L 191.271048 91.086628 
L 191.364898 89.455494 
L 191.423613 91.412855 
L 191.39462 86.519452 
L 191.475615 89.781721 
L 191.479519 87.498133 
L 191.573001 91.086628 
L 191.58371 91.086628 
L 191.590792 91.086628 
L 191.618672 87.498133 
L 191.704595 89.455494 
L 191.789864 87.82436 
L 191.824328 91.412855 
L 191.846659 87.82436 
L 191.933721 90.434175 
L 192.011131 91.412855 
L 191.943756 88.150586 
L 192.04305 90.434175 
L 192.076035 87.498133 
L 192.049745 91.412855 
L 192.152462 90.107948 
L 192.156407 91.412855 
L 192.22803 87.498133 
L 192.263367 90.434175 
L 192.265094 90.434175 
L 192.285533 88.476813 
L 192.27708 91.412855 
L 192.37446 90.107948 
L 192.440465 91.086628 
L 192.383406 87.498133 
L 192.444572 89.455494 
" clip-path="url(#pe5e9a2a8b3)" style="fill: none; stroke: #1f77b4; stroke-width: 0.7; stroke-linecap: square"/>
   </g>
   <g id="line2d_17">
    <path d="M 38.269576 20.621624 
L 38.359993 45.57798 
L 38.512583 52.428744 
L 38.728727 25.351914 
L 39.356394 80.810482 
L 39.769836 23.231439 
L 40.250654 57.648374 
L 40.799329 68.087634 
L 41.416141 37.585421 
L 42.10116 56.669693 
L 42.854247 32.039565 
L 43.675047 57.485261 
L 44.562993 71.186789 
L 45.517304 68.576974 
L 46.536991 79.179347 
L 47.620859 30.897771 
L 48.767515 52.918084 
L 49.975372 69.310985 
L 51.242662 84.725204 
L 52.567442 46.475104 
L 53.947607 43.212835 
L 55.380904 47.046001 
L 56.86494 77.548213 
L 58.397202 86.519452 
L 59.975065 70.860562 
L 61.595811 59.850405 
L 63.256643 84.480534 
L 64.9547 80.892039 
L 66.68707 82.60473 
L 68.45081 61.807767 
L 70.242954 83.82808 
L 72.060533 64.417582 
L 73.900583 58.382384 
L 75.760164 88.639927 
L 77.636368 84.725204 
L 79.526331 82.196946 
L 81.427245 90.026391 
L 83.336367 86.601009 
L 85.251027 88.884597 
L 87.168637 82.033833 
L 89.086696 89.863277 
L 91.0028 86.193225 
L 92.914642 88.966154 
L 94.82002 88.55837 
L 96.716837 90.107948 
L 98.603108 85.866998 
L 100.476956 88.06903 
L 102.336618 85.948555 
L 104.180442 87.090349 
L 106.006889 87.335019 
L 107.814529 90.026391 
L 109.602042 90.107948 
L 111.368217 91.168185 
L 113.111946 89.700164 
L 114.832225 89.781721 
L 116.528148 90.148726 
L 118.198907 90.271061 
L 119.843784 89.863277 
L 121.462152 90.189504 
L 123.053468 90.067169 
L 124.617273 90.311839 
L 126.153182 90.230283 
L 127.660885 90.882736 
L 129.140141 90.678845 
L 132.012672 90.678845 
L 133.405777 90.434175 
L 134.770088 89.659386 
L 136.105651 90.474953 
L 137.412562 90.271061 
L 138.690957 90.964293 
L 139.941013 91.127407 
L 141.162945 90.923515 
L 145.774794 91.086628 
L 146.860367 90.80118 
L 147.919697 91.127407 
L 148.953173 90.964293 
L 149.961199 90.638066 
L 150.944193 91.168185 
L 151.902585 91.208963 
L 152.836814 90.964293 
L 153.747326 91.249742 
L 154.634576 90.923515 
L 157.960174 91.249742 
L 158.738049 91.005072 
L 159.495445 91.168185 
L 160.232827 90.964293 
L 160.950658 90.638066 
L 161.649396 91.168185 
L 162.329495 91.127407 
L 162.991408 91.249742 
L 163.63558 91.086628 
L 164.26245 91.208963 
L 164.872455 90.719623 
L 165.466023 91.086628 
L 166.60553 91.249742 
L 167.152292 90.760401 
L 168.201841 91.127407 
L 168.705407 91.208963 
L 169.195342 90.923515 
L 169.672018 90.964293 
L 170.135796 91.168185 
L 171.026074 90.923515 
L 171.453261 91.127407 
L 171.868925 91.04585 
L 172.273389 91.29052 
L 172.666971 91.29052 
L 173.049978 91.04585 
L 173.422712 91.04585 
L 173.785464 91.208963 
L 174.138522 90.923515 
L 175.142275 91.229352 
L 175.459266 90.984682 
L 175.767883 91.229352 
L 176.068368 91.147796 
L 176.645885 91.331298 
L 176.92337 91.107017 
L 177.193632 91.29052 
L 177.45688 91.208963 
L 177.713322 91.351688 
L 178.206574 91.29052 
L 178.443765 91.127407 
L 178.900193 91.29052 
L 179.119778 91.107017 
L 179.333835 91.188574 
L 179.746005 91.107017 
L 179.944429 91.310909 
L 180.510813 91.04585 
L 180.690443 91.29052 
L 180.865711 91.04585 
L 181.203668 91.29052 
L 181.366599 91.351688 
L 181.525654 91.107017 
L 181.980662 91.229352 
L 182.67129 91.229352 
L 183.049132 91.270131 
L 183.169499 90.964293 
L 183.402327 91.29052 
L 183.941613 91.168185 
L 184.141599 91.29052 
L 184.238465 91.188574 
L 184.333324 91.29052 
L 184.426228 91.188574 
L 184.606386 91.229352 
L 185.105156 91.107017 
L 185.182676 91.29052 
L 185.258706 91.229352 
L 185.333283 91.168185 
L 185.406446 91.270131 
L 185.617809 91.066239 
L 185.945004 91.351688 
L 186.006961 91.04585 
L 186.067824 91.392466 
L 186.127621 91.310909 
L 186.244119 91.147796 
L 186.30087 91.29052 
L 186.356656 91.249742 
L 186.411499 91.168185 
L 186.465423 91.229352 
L 186.518448 91.310909 
L 186.67235 91.107017 
L 186.770838 91.331298 
L 186.818905 91.229352 
L 187.457661 91.229352 
L 187.495416 91.04585 
L 187.53264 91.331298 
L 187.569343 91.127407 
L 187.676441 91.270131 
L 187.71117 91.107017 
L 187.779234 91.270131 
L 187.812588 91.351688 
L 187.845501 90.984682 
L 187.941687 91.066239 
L 188.034217 91.331298 
L 188.180876 91.086628 
L 188.264647 91.351688 
L 188.318843 91.229352 
L 188.345464 91.310909 
L 188.371775 91.107017 
L 188.397781 91.208963 
L 188.498866 91.04585 
L 188.4489 91.310909 
L 188.523429 91.188574 
L 188.57174 91.086628 
L 188.595497 91.29052 
L 188.618995 91.066239 
L 188.687978 91.351688 
L 188.710483 91.147796 
L 188.798164 91.351688 
L 188.754784 91.127407 
L 188.819519 91.29052 
L 188.840656 91.127407 
L 188.923085 91.229352 
L 189.040746 91.168185 
L 189.059698 91.351688 
L 189.133731 91.310909 
L 189.151808 91.107017 
L 189.169719 91.351688 
L 189.239743 91.229352 
L 189.256855 91.229352 
L 189.290625 91.005072 
L 189.307287 91.310909 
L 189.356404 91.188574 
L 189.435493 91.29052 
L 189.419943 91.04585 
L 189.450912 91.188574 
L 189.511322 91.29052 
L 189.555346 90.984682 
L 189.68127 91.310909 
L 189.747529 91.005072 
L 189.811352 91.249742 
L 189.836233 90.984682 
L 189.943894 91.331298 
L 190.055915 91.086628 
L 190.150585 91.310909 
L 190.16077 91.229352 
L 190.249628 91.107017 
L 190.200875 91.331298 
L 190.268716 91.249742 
L 190.30621 91.29052 
L 190.29692 91.107017 
L 190.342826 91.168185 
L 190.369732 91.29052 
L 190.447735 90.923515 
L 190.46454 91.372077 
L 190.561611 91.29052 
L 190.592612 91.249742 
L 190.600261 91.107017 
L 190.607871 91.351688 
L 190.696222 91.168185 
L 190.710437 91.107017 
L 190.812755 91.392466 
L 190.914235 91.066239 
L 190.92641 91.107017 
L 191.008695 91.331298 
L 190.962292 90.984682 
L 191.036898 91.147796 
L 191.059035 91.351688 
L 191.080805 91.04585 
L 191.154248 91.331298 
L 191.174483 91.04585 
L 191.261722 91.29052 
L 191.266394 91.331298 
L 191.338819 91.066239 
L 191.347575 91.229352 
L 191.39462 90.964293 
L 191.407133 91.331298 
L 191.459862 91.005072 
L 191.506484 91.372077 
L 191.487289 90.943904 
L 191.573001 91.310909 
L 191.688602 90.984682 
L 191.632348 91.351688 
L 191.698227 91.229352 
L 191.704595 91.310909 
L 191.732779 91.392466 
L 191.757204 91.066239 
L 191.804368 91.168185 
L 191.849415 91.04585 
L 191.884556 91.351688 
L 191.910747 91.107017 
L 191.951212 91.351688 
L 191.943756 91.04585 
L 192.02266 91.229352 
L 192.10366 91.351688 
L 192.118181 91.066239 
L 192.134484 91.29052 
L 192.136501 91.29052 
L 192.206071 90.964293 
L 192.196746 91.372077 
L 192.247655 91.188574 
L 192.310364 91.025461 
L 192.356246 91.351688 
L 192.428004 91.025461 
L 192.39663 91.372077 
L 192.444572 91.229352 
" clip-path="url(#pe5e9a2a8b3)" style="fill: none; stroke: #ff7f0e; stroke-width: 0.7; stroke-linecap: square"/>
   </g>
   <g id="line2d_18">
    <path d="M 38.239801 91.412855 
L 193.867074 91.412855 
" clip-path="url(#pe5e9a2a8b3)" style="fill: none; stroke-dasharray: 2.59,1.12; stroke-dashoffset: 0; stroke: #000000; stroke-width: 0.7"/>
   </g>
   <g id="patch_3">
    <path d="M 30.458438 95.099219 
L 30.458438 13.999219 
" style="fill: none; stroke: #000000; stroke-width: 0.5; stroke-linejoin: miter; stroke-linecap: square"/>
   </g>
   <g id="patch_4">
    <path d="M 30.458438 95.099219 
L 201.648438 95.099219 
" style="fill: none; stroke: #000000; stroke-width: 0.5; stroke-linejoin: miter; stroke-linecap: square"/>
   </g>
   <g id="legend_1">
    <g id="line2d_19">
     <path d="M 120.898438 20.599219 
L 125.898438 20.599219 
L 130.898438 20.599219 
" style="fill: none; stroke: #1f77b4; stroke-width: 0.7; stroke-linecap: square"/>
    </g>
    <g id="text_19">
     <!-- max $p(r=y|y)$ difference -->
     <g transform="translate(134.898438 22.349219) scale(0.05 -0.05)">
      <defs>
       <path id="DejaVuSans-6d" d="M 3328 2828 
Q 3544 3216 3844 3400 
Q 4144 3584 4550 3584 
Q 5097 3584 5394 3201 
Q 5691 2819 5691 2113 
L 5691 0 
L 5113 0 
L 5113 2094 
Q 5113 2597 4934 2840 
Q 4756 3084 4391 3084 
Q 3944 3084 3684 2787 
Q 3425 2491 3425 1978 
L 3425 0 
L 2847 0 
L 2847 2094 
Q 2847 2600 2669 2842 
Q 2491 3084 2119 3084 
Q 1678 3084 1418 2786 
Q 1159 2488 1159 1978 
L 1159 0 
L 581 0 
L 581 3500 
L 1159 3500 
L 1159 2956 
Q 1356 3278 1631 3431 
Q 1906 3584 2284 3584 
Q 2666 3584 2933 3390 
Q 3200 3197 3328 2828 
z
" transform="scale(0.015625)"/>
       <path id="DejaVuSans-Oblique-70" d="M 3175 2156 
Q 3175 2616 2975 2859 
Q 2775 3103 2400 3103 
Q 2144 3103 1911 2972 
Q 1678 2841 1497 2591 
Q 1319 2344 1212 1994 
Q 1106 1644 1106 1300 
Q 1106 863 1306 627 
Q 1506 391 1875 391 
Q 2147 391 2380 519 
Q 2613 647 2778 891 
Q 2956 1147 3065 1494 
Q 3175 1841 3175 2156 
z
M 1394 2969 
Q 1625 3272 1939 3428 
Q 2253 3584 2638 3584 
Q 3175 3584 3472 3232 
Q 3769 2881 3769 2247 
Q 3769 1728 3584 1258 
Q 3400 788 3053 416 
Q 2822 169 2531 39 
Q 2241 -91 1919 -91 
Q 1547 -91 1294 64 
Q 1041 219 916 525 
L 556 -1331 
L -19 -1331 
L 922 3500 
L 1497 3500 
L 1394 2969 
z
" transform="scale(0.015625)"/>
       <path id="DejaVuSans-Oblique-72" d="M 2853 2969 
Q 2766 3016 2653 3041 
Q 2541 3066 2413 3066 
Q 1953 3066 1609 2717 
Q 1266 2369 1153 1784 
L 800 0 
L 225 0 
L 909 3500 
L 1484 3500 
L 1375 2956 
Q 1603 3259 1920 3421 
Q 2238 3584 2597 3584 
Q 2691 3584 2781 3573 
Q 2872 3563 2963 3538 
L 2853 2969 
z
" transform="scale(0.015625)"/>
       <path id="DejaVuSans-3d" d="M 678 2906 
L 4684 2906 
L 4684 2381 
L 678 2381 
L 678 2906 
z
M 678 1631 
L 4684 1631 
L 4684 1100 
L 678 1100 
L 678 1631 
z
" transform="scale(0.015625)"/>
       <path id="DejaVuSans-Oblique-79" d="M 1588 -325 
Q 1188 -997 936 -1164 
Q 684 -1331 294 -1331 
L -159 -1331 
L -63 -850 
L 269 -850 
Q 509 -850 678 -719 
Q 847 -588 1056 -206 
L 1234 128 
L 459 3500 
L 1069 3500 
L 1650 819 
L 3256 3500 
L 3859 3500 
L 1588 -325 
z
" transform="scale(0.015625)"/>
       <path id="DejaVuSans-7c" d="M 1344 4891 
L 1344 -1509 
L 813 -1509 
L 813 4891 
L 1344 4891 
z
" transform="scale(0.015625)"/>
      </defs>
      <use xlink:href="#DejaVuSans-6d" transform="translate(0 0.578125)"/>
      <use xlink:href="#DejaVuSans-61" transform="translate(97.412109 0.578125)"/>
      <use xlink:href="#DejaVuSans-78" transform="translate(158.691406 0.578125)"/>
      <use xlink:href="#DejaVuSans-20" transform="translate(217.871094 0.578125)"/>
      <use xlink:href="#DejaVuSans-Oblique-70" transform="translate(249.658203 0.578125)"/>
      <use xlink:href="#DejaVuSans-28" transform="translate(313.134766 0.578125)"/>
      <use xlink:href="#DejaVuSans-Oblique-72" transform="translate(352.148438 0.578125)"/>
      <use xlink:href="#DejaVuSans-3d" transform="translate(412.744141 0.578125)"/>
      <use xlink:href="#DejaVuSans-Oblique-79" transform="translate(516.015625 0.578125)"/>
      <use xlink:href="#DejaVuSans-7c" transform="translate(575.195312 0.578125)"/>
      <use xlink:href="#DejaVuSans-Oblique-79" transform="translate(608.886719 0.578125)"/>
      <use xlink:href="#DejaVuSans-29" transform="translate(668.066406 0.578125)"/>
      <use xlink:href="#DejaVuSans-20" transform="translate(707.080078 0.578125)"/>
      <use xlink:href="#DejaVuSans-64" transform="translate(738.867188 0.578125)"/>
      <use xlink:href="#DejaVuSans-69" transform="translate(802.34375 0.578125)"/>
      <use xlink:href="#DejaVuSans-66" transform="translate(830.126953 0.578125)"/>
      <use xlink:href="#DejaVuSans-66" transform="translate(865.332031 0.578125)"/>
      <use xlink:href="#DejaVuSans-65" transform="translate(900.537109 0.578125)"/>
      <use xlink:href="#DejaVuSans-72" transform="translate(962.060547 0.578125)"/>
      <use xlink:href="#DejaVuSans-65" transform="translate(1003.173828 0.578125)"/>
      <use xlink:href="#DejaVuSans-6e" transform="translate(1064.697266 0.578125)"/>
      <use xlink:href="#DejaVuSans-63" transform="translate(1128.076172 0.578125)"/>
      <use xlink:href="#DejaVuSans-65" transform="translate(1183.056641 0.578125)"/>
     </g>
    </g>
    <g id="line2d_20">
     <path d="M 120.898438 28.149219 
L 125.898438 28.149219 
L 130.898438 28.149219 
" style="fill: none; stroke: #ff7f0e; stroke-width: 0.7; stroke-linecap: square"/>
    </g>
    <g id="text_20">
     <!-- max $p(r\neq y|y)$ difference -->
     <g transform="translate(134.898438 29.899219) scale(0.05 -0.05)">
      <defs>
       <path id="DejaVuSans-2260" d="M 678 2906 
L 3091 2906 
L 3891 3891 
L 4281 3572 
L 3738 2906 
L 4684 2906 
L 4684 2381 
L 3309 2381 
L 2700 1631 
L 4684 1631 
L 4684 1100 
L 2266 1100 
L 1459 122 
L 1069 441 
L 1613 1100 
L 678 1100 
L 678 1631 
L 2047 1631 
L 2656 2381 
L 678 2381 
L 678 2906 
z
" transform="scale(0.015625)"/>
      </defs>
      <use xlink:href="#DejaVuSans-6d" transform="translate(0 0.578125)"/>
      <use xlink:href="#DejaVuSans-61" transform="translate(97.412109 0.578125)"/>
      <use xlink:href="#DejaVuSans-78" transform="translate(158.691406 0.578125)"/>
      <use xlink:href="#DejaVuSans-20" transform="translate(217.871094 0.578125)"/>
      <use xlink:href="#DejaVuSans-Oblique-70" transform="translate(249.658203 0.578125)"/>
      <use xlink:href="#DejaVuSans-28" transform="translate(313.134766 0.578125)"/>
      <use xlink:href="#DejaVuSans-Oblique-72" transform="translate(352.148438 0.578125)"/>
      <use xlink:href="#DejaVuSans-2260" transform="translate(412.744141 0.578125)"/>
      <use xlink:href="#DejaVuSans-Oblique-79" transform="translate(516.015625 0.578125)"/>
      <use xlink:href="#DejaVuSans-7c" transform="translate(575.195312 0.578125)"/>
      <use xlink:href="#DejaVuSans-Oblique-79" transform="translate(608.886719 0.578125)"/>
      <use xlink:href="#DejaVuSans-29" transform="translate(668.066406 0.578125)"/>
      <use xlink:href="#DejaVuSans-20" transform="translate(707.080078 0.578125)"/>
      <use xlink:href="#DejaVuSans-64" transform="translate(738.867188 0.578125)"/>
      <use xlink:href="#DejaVuSans-69" transform="translate(802.34375 0.578125)"/>
      <use xlink:href="#DejaVuSans-66" transform="translate(830.126953 0.578125)"/>
      <use xlink:href="#DejaVuSans-66" transform="translate(865.332031 0.578125)"/>
      <use xlink:href="#DejaVuSans-65" transform="translate(900.537109 0.578125)"/>
      <use xlink:href="#DejaVuSans-72" transform="translate(962.060547 0.578125)"/>
      <use xlink:href="#DejaVuSans-65" transform="translate(1003.173828 0.578125)"/>
      <use xlink:href="#DejaVuSans-6e" transform="translate(1064.697266 0.578125)"/>
      <use xlink:href="#DejaVuSans-63" transform="translate(1128.076172 0.578125)"/>
      <use xlink:href="#DejaVuSans-65" transform="translate(1183.056641 0.578125)"/>
     </g>
    </g>
   </g>
  </g>
 </g>
 <defs>
  <clipPath id="pe5e9a2a8b3">
   <rect x="30.458438" y="13.999219" width="171.19" height="81.1"/>
  </clipPath>
 </defs>
</svg>
