<?xml version="1.0" encoding="utf-8" standalone="no"?>
<!DOCTYPE svg PUBLIC "-//W3C//DTD SVG 1.1//EN"
  "http://www.w3.org/Graphics/SVG/1.1/DTD/svg11.dtd">
<svg xmlns:xlink="http://www.w3.org/1999/xlink" width="208.849687pt" height="122.445156pt" viewBox="0 0 208.849687 122.445156" xmlns="http://www.w3.org/2000/svg" version="1.1">
 <metadata>
  <rdf:RDF xmlns:dc="http://purl.org/dc/elements/1.1/" xmlns:cc="http://creativecommons.org/ns#" xmlns:rdf="http://www.w3.org/1999/02/22-rdf-syntax-ns#">
   <cc:Work>
    <dc:type rdf:resource="http://purl.org/dc/dcmitype/StillImage"/>
    <dc:date>2026-04-14T21:17:39.898097</dc:date>
    <dc:format>image/svg+xml</dc:format>
    <dc:creator>
     <cc:Agent>
      <dc:title>Matplotlib v3.8.2, https://matplotlib.org/</dc:title>
     </cc:Agent>
    </dc:creator>
   </cc:Work>
  </rdf:RDF>
 </metadata>
 <defs>
  <style type="text/css">*{stroke-linejoin: round; stroke-linecap: butt}</style>
 </defs>
 <g id="figure_1">
  <g id="patch_1">
   <path d="M -0 122.445156 
L 208.849687 122.445156 
L 208.849687 0 
L -0 0 
z
" style="fill: #ffffff"/>
  </g>
  <g id="axes_1">
   <g id="patch_2">
    <path d="M 33.639688 95.099219 
L 201.649687 95.099219 
L 201.649687 13.999219 
L 33.639688 13.999219 
z
" style="fill: #ffffff"/>
   </g>
   <g id="matplotlib.axis_1">
    <g id="xtick_1">
     <g id="line2d_1">
      <defs>
       <path id="m31efa7fe40" d="M 0 0 
L 0 2 
" style="stroke: #000000; stroke-width: 0.5"/>
      </defs>
      <g>
       <use xlink:href="#m31efa7fe40" x="41.276506" y="95.099219" style="stroke: #000000; stroke-width: 0.5"/>
      </g>
     </g>
     <g id="text_1">
      <!-- 0.0 -->
      <g transform="translate(37.300724 104.398437) scale(0.05 -0.05)">
       <defs>
        <path id="DejaVuSans-30" d="M 2034 4250 
Q 1547 4250 1301 3770 
Q 1056 3291 1056 2328 
Q 1056 1369 1301 889 
Q 1547 409 2034 409 
Q 2525 409 2770 889 
Q 3016 1369 3016 2328 
Q 3016 3291 2770 3770 
Q 2525 4250 2034 4250 
z
M 2034 4750 
Q 2819 4750 3233 4129 
Q 3647 3509 3647 2328 
Q 3647 1150 3233 529 
Q 2819 -91 2034 -91 
Q 1250 -91 836 529 
Q 422 1150 422 2328 
Q 422 3509 836 4129 
Q 1250 4750 2034 4750 
z
" transform="scale(0.015625)"/>
        <path id="DejaVuSans-2e" d="M 684 794 
L 1344 794 
L 1344 0 
L 684 0 
L 684 794 
z
" transform="scale(0.015625)"/>
       </defs>
       <use xlink:href="#DejaVuSans-30"/>
       <use xlink:href="#DejaVuSans-2e" x="63.623047"/>
       <use xlink:href="#DejaVuSans-30" x="95.410156"/>
      </g>
     </g>
    </g>
    <g id="xtick_2">
     <g id="line2d_2">
      <g>
       <use xlink:href="#m31efa7fe40" x="60.549689" y="95.099219" style="stroke: #000000; stroke-width: 0.5"/>
      </g>
     </g>
     <g id="text_2">
      <!-- 0.2 -->
      <g transform="translate(56.573908 104.398437) scale(0.05 -0.05)">
       <defs>
        <path id="DejaVuSans-32" d="M 1228 531 
L 3431 531 
L 3431 0 
L 469 0 
L 469 531 
Q 828 903 1448 1529 
Q 2069 2156 2228 2338 
Q 2531 2678 2651 2914 
Q 2772 3150 2772 3378 
Q 2772 3750 2511 3984 
Q 2250 4219 1831 4219 
Q 1534 4219 1204 4116 
Q 875 4013 500 3803 
L 500 4441 
Q 881 4594 1212 4672 
Q 1544 4750 1819 4750 
Q 2544 4750 2975 4387 
Q 3406 4025 3406 3419 
Q 3406 3131 3298 2873 
Q 3191 2616 2906 2266 
Q 2828 2175 2409 1742 
Q 1991 1309 1228 531 
z
" transform="scale(0.015625)"/>
       </defs>
       <use xlink:href="#DejaVuSans-30"/>
       <use xlink:href="#DejaVuSans-2e" x="63.623047"/>
       <use xlink:href="#DejaVuSans-32" x="95.410156"/>
      </g>
     </g>
    </g>
    <g id="xtick_3">
     <g id="line2d_3">
      <g>
       <use xlink:href="#m31efa7fe40" x="79.822872" y="95.099219" style="stroke: #000000; stroke-width: 0.5"/>
      </g>
     </g>
     <g id="text_3">
      <!-- 0.4 -->
      <g transform="translate(75.847091 104.398437) scale(0.05 -0.05)">
       <defs>
        <path id="DejaVuSans-34" d="M 2419 4116 
L 825 1625 
L 2419 1625 
L 2419 4116 
z
M 2253 4666 
L 3047 4666 
L 3047 1625 
L 3713 1625 
L 3713 1100 
L 3047 1100 
L 3047 0 
L 2419 0 
L 2419 1100 
L 313 1100 
L 313 1709 
L 2253 4666 
z
" transform="scale(0.015625)"/>
       </defs>
       <use xlink:href="#DejaVuSans-30"/>
       <use xlink:href="#DejaVuSans-2e" x="63.623047"/>
       <use xlink:href="#DejaVuSans-34" x="95.410156"/>
      </g>
     </g>
    </g>
    <g id="xtick_4">
     <g id="line2d_4">
      <g>
       <use xlink:href="#m31efa7fe40" x="99.096055" y="95.099219" style="stroke: #000000; stroke-width: 0.5"/>
      </g>
     </g>
     <g id="text_4">
      <!-- 0.6 -->
      <g transform="translate(95.120274 104.398437) scale(0.05 -0.05)">
       <defs>
        <path id="DejaVuSans-36" d="M 2113 2584 
Q 1688 2584 1439 2293 
Q 1191 2003 1191 1497 
Q 1191 994 1439 701 
Q 1688 409 2113 409 
Q 2538 409 2786 701 
Q 3034 994 3034 1497 
Q 3034 2003 2786 2293 
Q 2538 2584 2113 2584 
z
M 3366 4563 
L 3366 3988 
Q 3128 4100 2886 4159 
Q 2644 4219 2406 4219 
Q 1781 4219 1451 3797 
Q 1122 3375 1075 2522 
Q 1259 2794 1537 2939 
Q 1816 3084 2150 3084 
Q 2853 3084 3261 2657 
Q 3669 2231 3669 1497 
Q 3669 778 3244 343 
Q 2819 -91 2113 -91 
Q 1303 -91 875 529 
Q 447 1150 447 2328 
Q 447 3434 972 4092 
Q 1497 4750 2381 4750 
Q 2619 4750 2861 4703 
Q 3103 4656 3366 4563 
z
" transform="scale(0.015625)"/>
       </defs>
       <use xlink:href="#DejaVuSans-30"/>
       <use xlink:href="#DejaVuSans-2e" x="63.623047"/>
       <use xlink:href="#DejaVuSans-36" x="95.410156"/>
      </g>
     </g>
    </g>
    <g id="xtick_5">
     <g id="line2d_5">
      <g>
       <use xlink:href="#m31efa7fe40" x="118.369239" y="95.099219" style="stroke: #000000; stroke-width: 0.5"/>
      </g>
     </g>
     <g id="text_5">
      <!-- 0.8 -->
      <g transform="translate(114.393457 104.398437) scale(0.05 -0.05)">
       <defs>
        <path id="DejaVuSans-38" d="M 2034 2216 
Q 1584 2216 1326 1975 
Q 1069 1734 1069 1313 
Q 1069 891 1326 650 
Q 1584 409 2034 409 
Q 2484 409 2743 651 
Q 3003 894 3003 1313 
Q 3003 1734 2745 1975 
Q 2488 2216 2034 2216 
z
M 1403 2484 
Q 997 2584 770 2862 
Q 544 3141 544 3541 
Q 544 4100 942 4425 
Q 1341 4750 2034 4750 
Q 2731 4750 3128 4425 
Q 3525 4100 3525 3541 
Q 3525 3141 3298 2862 
Q 3072 2584 2669 2484 
Q 3125 2378 3379 2068 
Q 3634 1759 3634 1313 
Q 3634 634 3220 271 
Q 2806 -91 2034 -91 
Q 1263 -91 848 271 
Q 434 634 434 1313 
Q 434 1759 690 2068 
Q 947 2378 1403 2484 
z
M 1172 3481 
Q 1172 3119 1398 2916 
Q 1625 2713 2034 2713 
Q 2441 2713 2670 2916 
Q 2900 3119 2900 3481 
Q 2900 3844 2670 4047 
Q 2441 4250 2034 4250 
Q 1625 4250 1398 4047 
Q 1172 3844 1172 3481 
z
" transform="scale(0.015625)"/>
       </defs>
       <use xlink:href="#DejaVuSans-30"/>
       <use xlink:href="#DejaVuSans-2e" x="63.623047"/>
       <use xlink:href="#DejaVuSans-38" x="95.410156"/>
      </g>
     </g>
    </g>
    <g id="xtick_6">
     <g id="line2d_6">
      <g>
       <use xlink:href="#m31efa7fe40" x="137.642422" y="95.099219" style="stroke: #000000; stroke-width: 0.5"/>
      </g>
     </g>
     <g id="text_6">
      <!-- 1.0 -->
      <g transform="translate(133.666641 104.398437) scale(0.05 -0.05)">
       <defs>
        <path id="DejaVuSans-31" d="M 794 531 
L 1825 531 
L 1825 4091 
L 703 3866 
L 703 4441 
L 1819 4666 
L 2450 4666 
L 2450 531 
L 3481 531 
L 3481 0 
L 794 0 
L 794 531 
z
" transform="scale(0.015625)"/>
       </defs>
       <use xlink:href="#DejaVuSans-31"/>
       <use xlink:href="#DejaVuSans-2e" x="63.623047"/>
       <use xlink:href="#DejaVuSans-30" x="95.410156"/>
      </g>
     </g>
    </g>
    <g id="xtick_7">
     <g id="line2d_7">
      <g>
       <use xlink:href="#m31efa7fe40" x="156.915605" y="95.099219" style="stroke: #000000; stroke-width: 0.5"/>
      </g>
     </g>
     <g id="text_7">
      <!-- 1.2 -->
      <g transform="translate(152.939824 104.398437) scale(0.05 -0.05)">
       <use xlink:href="#DejaVuSans-31"/>
       <use xlink:href="#DejaVuSans-2e" x="63.623047"/>
       <use xlink:href="#DejaVuSans-32" x="95.410156"/>
      </g>
     </g>
    </g>
    <g id="xtick_8">
     <g id="line2d_8">
      <g>
       <use xlink:href="#m31efa7fe40" x="176.188788" y="95.099219" style="stroke: #000000; stroke-width: 0.5"/>
      </g>
     </g>
     <g id="text_8">
      <!-- 1.4 -->
      <g transform="translate(172.213007 104.398437) scale(0.05 -0.05)">
       <use xlink:href="#DejaVuSans-31"/>
       <use xlink:href="#DejaVuSans-2e" x="63.623047"/>
       <use xlink:href="#DejaVuSans-34" x="95.410156"/>
      </g>
     </g>
    </g>
    <g id="xtick_9">
     <g id="line2d_9">
      <g>
       <use xlink:href="#m31efa7fe40" x="195.461972" y="95.099219" style="stroke: #000000; stroke-width: 0.5"/>
      </g>
     </g>
     <g id="text_9">
      <!-- 1.6 -->
      <g transform="translate(191.48619 104.398437) scale(0.05 -0.05)">
       <use xlink:href="#DejaVuSans-31"/>
       <use xlink:href="#DejaVuSans-2e" x="63.623047"/>
       <use xlink:href="#DejaVuSans-36" x="95.410156"/>
      </g>
     </g>
    </g>
    <g id="text_10">
     <!-- I(X;R) -->
     <g transform="translate(109.268594 113.997344) scale(0.06 -0.06)">
      <defs>
       <path id="DejaVuSans-49" d="M 628 4666 
L 1259 4666 
L 1259 0 
L 628 0 
L 628 4666 
z
" transform="scale(0.015625)"/>
       <path id="DejaVuSans-28" d="M 1984 4856 
Q 1566 4138 1362 3434 
Q 1159 2731 1159 2009 
Q 1159 1288 1364 580 
Q 1569 -128 1984 -844 
L 1484 -844 
Q 1016 -109 783 600 
Q 550 1309 550 2009 
Q 550 2706 781 3412 
Q 1013 4119 1484 4856 
L 1984 4856 
z
" transform="scale(0.015625)"/>
       <path id="DejaVuSans-58" d="M 403 4666 
L 1081 4666 
L 2241 2931 
L 3406 4666 
L 4084 4666 
L 2584 2425 
L 4184 0 
L 3506 0 
L 2194 1984 
L 872 0 
L 191 0 
L 1856 2491 
L 403 4666 
z
" transform="scale(0.015625)"/>
       <path id="DejaVuSans-3b" d="M 750 3309 
L 1409 3309 
L 1409 2516 
L 750 2516 
L 750 3309 
z
M 750 794 
L 1409 794 
L 1409 256 
L 897 -744 
L 494 -744 
L 750 256 
L 750 794 
z
" transform="scale(0.015625)"/>
       <path id="DejaVuSans-52" d="M 2841 2188 
Q 3044 2119 3236 1894 
Q 3428 1669 3622 1275 
L 4263 0 
L 3584 0 
L 2988 1197 
Q 2756 1666 2539 1819 
Q 2322 1972 1947 1972 
L 1259 1972 
L 1259 0 
L 628 0 
L 628 4666 
L 2053 4666 
Q 2853 4666 3247 4331 
Q 3641 3997 3641 3322 
Q 3641 2881 3436 2590 
Q 3231 2300 2841 2188 
z
M 1259 4147 
L 1259 2491 
L 2053 2491 
Q 2509 2491 2742 2702 
Q 2975 2913 2975 3322 
Q 2975 3731 2742 3939 
Q 2509 4147 2053 4147 
L 1259 4147 
z
" transform="scale(0.015625)"/>
       <path id="DejaVuSans-29" d="M 513 4856 
L 1013 4856 
Q 1481 4119 1714 3412 
Q 1947 2706 1947 2009 
Q 1947 1309 1714 600 
Q 1481 -109 1013 -844 
L 513 -844 
Q 928 -128 1133 580 
Q 1338 1288 1338 2009 
Q 1338 2731 1133 3434 
Q 928 4138 513 4856 
z
" transform="scale(0.015625)"/>
      </defs>
      <use xlink:href="#DejaVuSans-49"/>
      <use xlink:href="#DejaVuSans-28" x="29.492188"/>
      <use xlink:href="#DejaVuSans-58" x="68.505859"/>
      <use xlink:href="#DejaVuSans-3b" x="137.011719"/>
      <use xlink:href="#DejaVuSans-52" x="170.703125"/>
      <use xlink:href="#DejaVuSans-29" x="240.185547"/>
     </g>
    </g>
   </g>
   <g id="matplotlib.axis_2">
    <g id="ytick_1">
     <g id="line2d_10">
      <defs>
       <path id="me8cbaa7670" d="M 0 0 
L -2 0 
" style="stroke: #000000; stroke-width: 0.5"/>
      </defs>
      <g>
       <use xlink:href="#me8cbaa7670" x="33.639688" y="91.412855" style="stroke: #000000; stroke-width: 0.5"/>
      </g>
     </g>
     <g id="text_11">
      <!-- 0.00 -->
      <g transform="translate(17.006875 93.312464) scale(0.05 -0.05)">
       <use xlink:href="#DejaVuSans-30"/>
       <use xlink:href="#DejaVuSans-2e" x="63.623047"/>
       <use xlink:href="#DejaVuSans-30" x="95.410156"/>
       <use xlink:href="#DejaVuSans-30" x="159.033203"/>
      </g>
     </g>
    </g>
    <g id="ytick_2">
     <g id="line2d_11">
      <g>
       <use xlink:href="#me8cbaa7670" x="33.639688" y="80.429126" style="stroke: #000000; stroke-width: 0.5"/>
      </g>
     </g>
     <g id="text_12">
      <!-- 0.25 -->
      <g transform="translate(17.006875 82.328736) scale(0.05 -0.05)">
       <defs>
        <path id="DejaVuSans-35" d="M 691 4666 
L 3169 4666 
L 3169 4134 
L 1269 4134 
L 1269 2991 
Q 1406 3038 1543 3061 
Q 1681 3084 1819 3084 
Q 2600 3084 3056 2656 
Q 3513 2228 3513 1497 
Q 3513 744 3044 326 
Q 2575 -91 1722 -91 
Q 1428 -91 1123 -41 
Q 819 9 494 109 
L 494 744 
Q 775 591 1075 516 
Q 1375 441 1709 441 
Q 2250 441 2565 725 
Q 2881 1009 2881 1497 
Q 2881 1984 2565 2268 
Q 2250 2553 1709 2553 
Q 1456 2553 1204 2497 
Q 953 2441 691 2322 
L 691 4666 
z
" transform="scale(0.015625)"/>
       </defs>
       <use xlink:href="#DejaVuSans-30"/>
       <use xlink:href="#DejaVuSans-2e" x="63.623047"/>
       <use xlink:href="#DejaVuSans-32" x="95.410156"/>
       <use xlink:href="#DejaVuSans-35" x="159.033203"/>
      </g>
     </g>
    </g>
    <g id="ytick_3">
     <g id="line2d_12">
      <g>
       <use xlink:href="#me8cbaa7670" x="33.639688" y="69.445398" style="stroke: #000000; stroke-width: 0.5"/>
      </g>
     </g>
     <g id="text_13">
      <!-- 0.50 -->
      <g transform="translate(17.006875 71.345007) scale(0.05 -0.05)">
       <use xlink:href="#DejaVuSans-30"/>
       <use xlink:href="#DejaVuSans-2e" x="63.623047"/>
       <use xlink:href="#DejaVuSans-35" x="95.410156"/>
       <use xlink:href="#DejaVuSans-30" x="159.033203"/>
      </g>
     </g>
    </g>
    <g id="ytick_4">
     <g id="line2d_13">
      <g>
       <use xlink:href="#me8cbaa7670" x="33.639688" y="58.461669" style="stroke: #000000; stroke-width: 0.5"/>
      </g>
     </g>
     <g id="text_14">
      <!-- 0.75 -->
      <g transform="translate(17.006875 60.361278) scale(0.05 -0.05)">
       <defs>
        <path id="DejaVuSans-37" d="M 525 4666 
L 3525 4666 
L 3525 4397 
L 1831 0 
L 1172 0 
L 2766 4134 
L 525 4134 
L 525 4666 
z
" transform="scale(0.015625)"/>
       </defs>
       <use xlink:href="#DejaVuSans-30"/>
       <use xlink:href="#DejaVuSans-2e" x="63.623047"/>
       <use xlink:href="#DejaVuSans-37" x="95.410156"/>
       <use xlink:href="#DejaVuSans-35" x="159.033203"/>
      </g>
     </g>
    </g>
    <g id="ytick_5">
     <g id="line2d_14">
      <g>
       <use xlink:href="#me8cbaa7670" x="33.639688" y="47.47794" style="stroke: #000000; stroke-width: 0.5"/>
      </g>
     </g>
     <g id="text_15">
      <!-- 1.00 -->
      <g transform="translate(17.006875 49.37755) scale(0.05 -0.05)">
       <use xlink:href="#DejaVuSans-31"/>
       <use xlink:href="#DejaVuSans-2e" x="63.623047"/>
       <use xlink:href="#DejaVuSans-30" x="95.410156"/>
       <use xlink:href="#DejaVuSans-30" x="159.033203"/>
      </g>
     </g>
    </g>
    <g id="ytick_6">
     <g id="line2d_15">
      <g>
       <use xlink:href="#me8cbaa7670" x="33.639688" y="36.494212" style="stroke: #000000; stroke-width: 0.5"/>
      </g>
     </g>
     <g id="text_16">
      <!-- 1.25 -->
      <g transform="translate(17.006875 38.393821) scale(0.05 -0.05)">
       <use xlink:href="#DejaVuSans-31"/>
       <use xlink:href="#DejaVuSans-2e" x="63.623047"/>
       <use xlink:href="#DejaVuSans-32" x="95.410156"/>
       <use xlink:href="#DejaVuSans-35" x="159.033203"/>
      </g>
     </g>
    </g>
    <g id="ytick_7">
     <g id="line2d_16">
      <g>
       <use xlink:href="#me8cbaa7670" x="33.639688" y="25.510483" style="stroke: #000000; stroke-width: 0.5"/>
      </g>
     </g>
     <g id="text_17">
      <!-- 1.50 -->
      <g transform="translate(17.006875 27.410092) scale(0.05 -0.05)">
       <use xlink:href="#DejaVuSans-31"/>
       <use xlink:href="#DejaVuSans-2e" x="63.623047"/>
       <use xlink:href="#DejaVuSans-35" x="95.410156"/>
       <use xlink:href="#DejaVuSans-30" x="159.033203"/>
      </g>
     </g>
    </g>
    <g id="ytick_8">
     <g id="line2d_17">
      <g>
       <use xlink:href="#me8cbaa7670" x="33.639688" y="14.526754" style="stroke: #000000; stroke-width: 0.5"/>
      </g>
     </g>
     <g id="text_18">
      <!-- 1.75 -->
      <g transform="translate(17.006875 16.426364) scale(0.05 -0.05)">
       <use xlink:href="#DejaVuSans-31"/>
       <use xlink:href="#DejaVuSans-2e" x="63.623047"/>
       <use xlink:href="#DejaVuSans-37" x="95.410156"/>
       <use xlink:href="#DejaVuSans-35" x="159.033203"/>
      </g>
     </g>
    </g>
    <g id="text_19">
     <!-- Max difference -->
     <g transform="translate(11.759062 76.809687) rotate(-90) scale(0.06 -0.06)">
      <defs>
       <path id="DejaVuSans-4d" d="M 628 4666 
L 1569 4666 
L 2759 1491 
L 3956 4666 
L 4897 4666 
L 4897 0 
L 4281 0 
L 4281 4097 
L 3078 897 
L 2444 897 
L 1241 4097 
L 1241 0 
L 628 0 
L 628 4666 
z
" transform="scale(0.015625)"/>
       <path id="DejaVuSans-61" d="M 2194 1759 
Q 1497 1759 1228 1600 
Q 959 1441 959 1056 
Q 959 750 1161 570 
Q 1363 391 1709 391 
Q 2188 391 2477 730 
Q 2766 1069 2766 1631 
L 2766 1759 
L 2194 1759 
z
M 3341 1997 
L 3341 0 
L 2766 0 
L 2766 531 
Q 2569 213 2275 61 
Q 1981 -91 1556 -91 
Q 1019 -91 701 211 
Q 384 513 384 1019 
Q 384 1609 779 1909 
Q 1175 2209 1959 2209 
L 2766 2209 
L 2766 2266 
Q 2766 2663 2505 2880 
Q 2244 3097 1772 3097 
Q 1472 3097 1187 3025 
Q 903 2953 641 2809 
L 641 3341 
Q 956 3463 1253 3523 
Q 1550 3584 1831 3584 
Q 2591 3584 2966 3190 
Q 3341 2797 3341 1997 
z
" transform="scale(0.015625)"/>
       <path id="DejaVuSans-78" d="M 3513 3500 
L 2247 1797 
L 3578 0 
L 2900 0 
L 1881 1375 
L 863 0 
L 184 0 
L 1544 1831 
L 300 3500 
L 978 3500 
L 1906 2253 
L 2834 3500 
L 3513 3500 
z
" transform="scale(0.015625)"/>
       <path id="DejaVuSans-20" transform="scale(0.015625)"/>
       <path id="DejaVuSans-64" d="M 2906 2969 
L 2906 4863 
L 3481 4863 
L 3481 0 
L 2906 0 
L 2906 525 
Q 2725 213 2448 61 
Q 2172 -91 1784 -91 
Q 1150 -91 751 415 
Q 353 922 353 1747 
Q 353 2572 751 3078 
Q 1150 3584 1784 3584 
Q 2172 3584 2448 3432 
Q 2725 3281 2906 2969 
z
M 947 1747 
Q 947 1113 1208 752 
Q 1469 391 1925 391 
Q 2381 391 2643 752 
Q 2906 1113 2906 1747 
Q 2906 2381 2643 2742 
Q 2381 3103 1925 3103 
Q 1469 3103 1208 2742 
Q 947 2381 947 1747 
z
" transform="scale(0.015625)"/>
       <path id="DejaVuSans-69" d="M 603 3500 
L 1178 3500 
L 1178 0 
L 603 0 
L 603 3500 
z
M 603 4863 
L 1178 4863 
L 1178 4134 
L 603 4134 
L 603 4863 
z
" transform="scale(0.015625)"/>
       <path id="DejaVuSans-66" d="M 2375 4863 
L 2375 4384 
L 1825 4384 
Q 1516 4384 1395 4259 
Q 1275 4134 1275 3809 
L 1275 3500 
L 2222 3500 
L 2222 3053 
L 1275 3053 
L 1275 0 
L 697 0 
L 697 3053 
L 147 3053 
L 147 3500 
L 697 3500 
L 697 3744 
Q 697 4328 969 4595 
Q 1241 4863 1831 4863 
L 2375 4863 
z
" transform="scale(0.015625)"/>
       <path id="DejaVuSans-65" d="M 3597 1894 
L 3597 1613 
L 953 1613 
Q 991 1019 1311 708 
Q 1631 397 2203 397 
Q 2534 397 2845 478 
Q 3156 559 3463 722 
L 3463 178 
Q 3153 47 2828 -22 
Q 2503 -91 2169 -91 
Q 1331 -91 842 396 
Q 353 884 353 1716 
Q 353 2575 817 3079 
Q 1281 3584 2069 3584 
Q 2775 3584 3186 3129 
Q 3597 2675 3597 1894 
z
M 3022 2063 
Q 3016 2534 2758 2815 
Q 2500 3097 2075 3097 
Q 1594 3097 1305 2825 
Q 1016 2553 972 2059 
L 3022 2063 
z
" transform="scale(0.015625)"/>
       <path id="DejaVuSans-72" d="M 2631 2963 
Q 2534 3019 2420 3045 
Q 2306 3072 2169 3072 
Q 1681 3072 1420 2755 
Q 1159 2438 1159 1844 
L 1159 0 
L 581 0 
L 581 3500 
L 1159 3500 
L 1159 2956 
Q 1341 3275 1631 3429 
Q 1922 3584 2338 3584 
Q 2397 3584 2469 3576 
Q 2541 3569 2628 3553 
L 2631 2963 
z
" transform="scale(0.015625)"/>
       <path id="DejaVuSans-6e" d="M 3513 2113 
L 3513 0 
L 2938 0 
L 2938 2094 
Q 2938 2591 2744 2837 
Q 2550 3084 2163 3084 
Q 1697 3084 1428 2787 
Q 1159 2491 1159 1978 
L 1159 0 
L 581 0 
L 581 3500 
L 1159 3500 
L 1159 2956 
Q 1366 3272 1645 3428 
Q 1925 3584 2291 3584 
Q 2894 3584 3203 3211 
Q 3513 2838 3513 2113 
z
" transform="scale(0.015625)"/>
       <path id="DejaVuSans-63" d="M 3122 3366 
L 3122 2828 
Q 2878 2963 2633 3030 
Q 2388 3097 2138 3097 
Q 1578 3097 1268 2742 
Q 959 2388 959 1747 
Q 959 1106 1268 751 
Q 1578 397 2138 397 
Q 2388 397 2633 464 
Q 2878 531 3122 666 
L 3122 134 
Q 2881 22 2623 -34 
Q 2366 -91 2075 -91 
Q 1284 -91 818 406 
Q 353 903 353 1747 
Q 353 2603 823 3093 
Q 1294 3584 2113 3584 
Q 2378 3584 2631 3529 
Q 2884 3475 3122 3366 
z
" transform="scale(0.015625)"/>
      </defs>
      <use xlink:href="#DejaVuSans-4d"/>
      <use xlink:href="#DejaVuSans-61" x="86.279297"/>
      <use xlink:href="#DejaVuSans-78" x="147.558594"/>
      <use xlink:href="#DejaVuSans-20" x="206.738281"/>
      <use xlink:href="#DejaVuSans-64" x="238.525391"/>
      <use xlink:href="#DejaVuSans-69" x="302.001953"/>
      <use xlink:href="#DejaVuSans-66" x="329.785156"/>
      <use xlink:href="#DejaVuSans-66" x="364.990234"/>
      <use xlink:href="#DejaVuSans-65" x="400.195312"/>
      <use xlink:href="#DejaVuSans-72" x="461.71875"/>
      <use xlink:href="#DejaVuSans-65" x="500.582031"/>
      <use xlink:href="#DejaVuSans-6e" x="562.105469"/>
      <use xlink:href="#DejaVuSans-63" x="625.484375"/>
      <use xlink:href="#DejaVuSans-65" x="680.464844"/>
     </g>
    </g>
    <g id="text_20">
     <!-- 1e−13 -->
     <g transform="translate(33.639688 10.999219) scale(0.05 -0.05)">
      <defs>
       <path id="DejaVuSans-2212" d="M 678 2272 
L 4684 2272 
L 4684 1741 
L 678 1741 
L 678 2272 
z
" transform="scale(0.015625)"/>
       <path id="DejaVuSans-33" d="M 2597 2516 
Q 3050 2419 3304 2112 
Q 3559 1806 3559 1356 
Q 3559 666 3084 287 
Q 2609 -91 1734 -91 
Q 1441 -91 1130 -33 
Q 819 25 488 141 
L 488 750 
Q 750 597 1062 519 
Q 1375 441 1716 441 
Q 2309 441 2620 675 
Q 2931 909 2931 1356 
Q 2931 1769 2642 2001 
Q 2353 2234 1838 2234 
L 1294 2234 
L 1294 2753 
L 1863 2753 
Q 2328 2753 2575 2939 
Q 2822 3125 2822 3475 
Q 2822 3834 2567 4026 
Q 2313 4219 1838 4219 
Q 1578 4219 1281 4162 
Q 984 4106 628 3988 
L 628 4550 
Q 988 4650 1302 4700 
Q 1616 4750 1894 4750 
Q 2613 4750 3031 4423 
Q 3450 4097 3450 3541 
Q 3450 3153 3228 2886 
Q 3006 2619 2597 2516 
z
" transform="scale(0.015625)"/>
      </defs>
      <use xlink:href="#DejaVuSans-31"/>
      <use xlink:href="#DejaVuSans-65" x="63.623047"/>
      <use xlink:href="#DejaVuSans-2212" x="125.146484"/>
      <use xlink:href="#DejaVuSans-31" x="208.935547"/>
      <use xlink:href="#DejaVuSans-33" x="272.558594"/>
     </g>
    </g>
   </g>
   <g id="line2d_18">
    <path d="M 41.305728 78.194138 
L 41.394465 17.685582 
L 41.54422 53.049309 
L 41.756349 46.366784 
L 42.032051 50.659209 
L 42.372357 27.977646 
L 42.778119 63.829148 
L 43.250005 59.146503 
L 44.393842 82.510952 
L 45.066137 74.072435 
L 45.805234 69.462956 
L 46.610787 76.7552 
L 47.482238 74.316322 
L 48.418822 73.023717 
L 49.419568 81.828066 
L 50.483303 75.828427 
L 51.608658 66.243637 
L 52.794079 78.242916 
L 54.037827 80.974459 
L 55.337998 54.098026 
L 56.692526 84.388887 
L 58.099198 65.511974 
L 59.555667 70.194619 
L 61.059465 80.389128 
L 62.608018 83.315781 
L 64.198658 74.389489 
L 65.828638 85.998547 
L 67.495152 80.876903 
L 69.195343 88.388647 
L 70.92632 73.36516 
L 72.685173 81.315901 
L 74.468988 84.291332 
L 76.274858 67.755741 
L 78.099896 87.852094 
L 79.941248 84.486442 
L 81.796103 76.243036 
L 83.661706 79.267244 
L 85.535365 89.12031 
L 87.414458 85.998547 
L 89.296446 70.97506 
L 91.178876 87.071653 
L 93.059387 83.803557 
L 94.935715 86.778987 
L 96.805698 88.73009 
L 98.667281 85.754659 
L 100.518512 87.998426 
L 102.357552 88.73009 
L 104.18267 90.973857 
L 105.992243 89.510531 
L 107.784762 87.559428 
L 109.558823 88.973977 
L 111.313132 89.949528 
L 113.046499 90.534859 
L 114.757837 90.729969 
L 116.44616 89.949528 
L 118.11058 84.974218 
L 119.750303 90.388526 
L 121.364625 87.022875 
L 122.95293 90.973857 
L 124.514687 89.169088 
L 126.049443 90.632414 
L 127.556821 91.3153 
L 129.036516 89.364198 
L 130.488294 90.681192 
L 131.911981 87.608206 
L 133.307466 91.071412 
L 134.674693 90.534859 
L 136.01366 90.778747 
L 137.324414 90.388526 
L 138.607048 88.973977 
L 139.861695 90.047084 
L 141.088531 90.534859 
L 142.287764 89.803196 
L 143.459637 89.949528 
L 144.604421 91.071412 
L 145.722416 89.169088 
L 146.813944 88.534979 
L 147.879352 89.071533 
L 148.919005 90.973857 
L 149.933282 90.729969 
L 150.922583 89.656863 
L 151.887318 91.12019 
L 153.744781 90.876302 
L 154.63838 91.071412 
L 155.509149 88.973977 
L 156.357537 89.071533 
L 157.184 90.632414 
L 157.988992 91.266522 
L 158.772971 90.827524 
L 159.536396 91.266522 
L 160.279723 91.071412 
L 161.003407 90.144639 
L 161.707904 90.681192 
L 163.061128 90.973857 
L 163.710745 90.486082 
L 164.342951 89.705641 
L 164.958177 90.437304 
L 165.556851 90.242194 
L 166.706217 90.973857 
L 167.257731 90.242194 
L 167.794337 91.12019 
L 168.316428 91.217745 
L 168.82439 89.559308 
L 169.318602 91.168967 
L 169.799436 90.534859 
L 170.267257 88.73009 
L 170.72242 90.486082 
L 171.165274 90.778747 
L 171.59616 89.949528 
L 172.015412 91.12019 
L 172.423355 90.827524 
L 172.820306 90.778747 
L 173.206577 89.656863 
L 173.582469 90.876302 
L 174.304293 90.437304 
L 174.650792 91.071412 
L 174.988051 90.973857 
L 175.316333 89.949528 
L 175.6359 90.486082 
L 175.947002 91.3153 
L 176.249886 89.510531 
L 176.54479 91.266522 
L 177.111579 90.388526 
L 177.383909 89.31542 
L 177.64915 91.12019 
L 177.907509 89.364198 
L 178.159187 90.583637 
L 178.404379 90.534859 
L 178.643276 90.729969 
L 178.876062 90.047084 
L 179.102916 90.534859 
L 179.324011 90.681192 
L 179.539517 90.681192 
L 179.749598 89.412975 
L 179.954411 91.12019 
L 180.154112 91.12019 
L 180.348849 90.534859 
L 180.538769 88.973977 
L 180.724011 89.461753 
L 180.904712 89.071533 
L 181.081005 91.12019 
L 181.253018 90.778747 
L 181.420875 89.803196 
L 181.584697 90.92508 
L 181.744602 90.290971 
L 181.900702 90.681192 
L 182.053107 90.583637 
L 182.201925 90.92508 
L 182.347258 89.705641 
L 182.627868 91.266522 
L 182.763337 89.559308 
L 182.895704 91.12019 
L 183.151482 89.705641 
L 183.275063 91.168967 
L 183.39588 91.071412 
L 183.514011 90.242194 
L 183.629531 90.583637 
L 183.742514 90.388526 
L 183.853031 91.022635 
L 184.066939 88.193537 
L 184.170462 91.022635 
L 184.271782 90.729969 
L 184.370959 91.364078 
L 184.468053 91.168967 
L 184.56312 91.412855 
L 184.656217 89.217865 
L 184.836708 91.168967 
L 184.924206 91.217745 
L 185.009938 90.681192 
L 185.176291 91.266522 
L 185.336129 90.534859 
L 185.413712 90.534859 
L 185.564409 91.217745 
L 185.637601 90.144639 
L 185.709405 90.193416 
L 185.779856 90.729969 
L 185.916842 89.851973 
L 185.983442 90.92508 
L 186.048823 90.047084 
L 186.113017 91.217745 
L 186.176052 90.583637 
L 186.237959 90.876302 
L 186.298765 90.144639 
L 186.358497 90.242194 
L 186.417183 90.827524 
L 186.474848 90.534859 
L 186.641964 89.949528 
L 186.74871 91.12019 
L 186.800751 90.632414 
L 186.902272 90.681192 
L 187.000513 91.266522 
L 187.048452 88.632535 
L 187.142055 89.559308 
L 187.232742 90.876302 
L 187.277033 89.364198 
L 187.320644 90.973857 
L 187.363591 90.827524 
L 187.447548 89.803196 
L 187.568856 90.92508 
L 187.646799 89.022755 
L 187.796103 91.217745 
L 187.902679 89.949528 
L 187.971317 88.973977 
L 188.038117 91.12019 
L 188.07085 90.92508 
L 188.103152 90.973857 
L 188.135031 89.510531 
L 188.166495 91.12019 
L 188.197552 90.388526 
L 188.258478 91.022635 
L 188.288363 89.949528 
L 188.347014 91.071412 
L 188.375794 90.583637 
L 188.432298 90.973857 
L 188.460035 90.388526 
L 188.487438 90.290971 
L 188.514513 91.071412 
L 188.593828 90.193416 
L 188.670402 91.168967 
L 188.695343 89.266643 
L 188.792326 89.803196 
L 188.88509 91.266522 
L 188.907656 91.071412 
L 188.995544 90.437304 
L 189.059077 90.632414 
L 189.079821 91.217745 
L 189.120679 90.193416 
L 189.160719 90.92508 
L 189.180441 88.486202 
L 189.276195 90.095861 
L 189.294795 91.3153 
L 189.367452 90.681192 
L 189.385194 89.656863 
L 189.420189 91.168967 
L 189.471495 90.144639 
L 189.521432 89.705641 
L 189.570061 91.266522 
L 189.585989 89.510531 
L 189.678742 90.729969 
L 189.693749 91.266522 
L 189.738029 89.949528 
L 189.752549 89.217865 
L 189.781235 90.632414 
L 189.823409 90.339749 
L 189.850972 91.266522 
L 189.864592 89.949528 
L 189.918025 90.583637 
L 189.931129 89.364198 
L 189.944133 91.364078 
L 190.020143 91.364078 
L 190.128089 88.9252 
L 190.240299 91.217745 
L 190.355358 89.656863 
L 190.46262 91.364078 
L 190.395216 89.510531 
L 190.472015 90.778747 
L 190.545183 89.022755 
L 190.490636 91.266522 
L 190.580494 90.778747 
L 190.589195 91.168967 
L 190.665317 89.656863 
L 190.673541 89.217865 
L 190.689853 91.217745 
L 190.753354 90.534859 
L 190.814209 91.266522 
L 190.768808 89.217865 
L 190.85098 90.827524 
L 190.949153 89.608086 
L 190.93554 91.266522 
L 190.95591 90.047084 
L 191.053496 91.266522 
L 191.015287 89.510531 
L 191.059761 91.022635 
L 191.065998 88.486202 
L 191.072206 91.168967 
L 191.167825 91.022635 
L 191.218729 89.217865 
L 191.20198 91.266522 
L 191.278357 91.022635 
L 191.283644 91.412855 
L 191.299372 89.364198 
L 191.384984 90.827524 
L 191.469618 89.217865 
L 191.399501 91.266522 
L 191.492117 89.412975 
L 191.552946 91.168967 
L 191.527258 88.632535 
L 191.602689 90.047084 
L 191.692387 87.608206 
L 191.618806 91.364078 
L 191.710975 90.583637 
L 191.771921 91.217745 
L 191.743663 88.778867 
L 191.809605 89.656863 
L 191.829611 88.144759 
L 191.842742 91.12019 
L 191.912139 89.998306 
L 191.942192 91.364078 
L 191.991303 88.681312 
L 192.021824 89.510531 
L 192.029985 91.266522 
L 192.074964 89.217865 
L 192.137443 90.973857 
L 192.224924 88.73009 
L 192.142264 91.266522 
L 192.250853 89.608086 
L 192.292416 89.559308 
L 192.36245 91.3153 
L 192.364314 88.632535 
L 192.380898 91.364078 
L 192.473799 90.583637 
L 192.571168 91.217745 
L 192.481871 89.364198 
L 192.585298 90.973857 
L 192.614107 91.3153 
L 192.600531 88.778867 
L 192.616792 90.778747 
" clip-path="url(#p11654c3d28)" style="fill: none; stroke: #1f77b4; stroke-width: 0.7; stroke-linecap: square"/>
   </g>
   <g id="line2d_19">
    <path d="M 41.305728 63.731593 
L 41.394465 27.270372 
L 41.54422 20.587847 
L 41.756349 62.414599 
L 42.032051 39.342816 
L 42.372357 41.952415 
L 42.778119 66.219249 
L 43.250005 62.390211 
L 43.788488 56.878347 
L 44.393842 78.706302 
L 45.066137 45.976564 
L 45.805234 65.097365 
L 46.610787 63.829148 
L 47.482238 61.243938 
L 49.419568 84.681553 
L 50.483303 70.658006 
L 51.608658 69.462956 
L 52.794079 82.888978 
L 54.037827 83.693807 
L 55.337998 58.512395 
L 56.692526 83.059699 
L 58.099198 69.609289 
L 59.555667 69.206874 
L 61.059465 80.437905 
L 62.608018 83.559669 
L 64.198658 77.608807 
L 65.828638 82.242675 
L 67.495152 81.937815 
L 69.195343 89.291032 
L 70.92632 76.304008 
L 72.685173 84.53522 
L 74.468988 86.376573 
L 76.274858 71.731112 
L 78.099896 86.413156 
L 79.941248 85.03519 
L 81.796103 79.84038 
L 83.661706 81.206152 
L 85.535365 89.083727 
L 87.414458 86.73021 
L 89.296446 75.206513 
L 91.178876 87.974038 
L 93.059387 83.267004 
L 94.935715 88.461813 
L 96.805698 86.608266 
L 98.667281 86.657044 
L 100.518512 87.705761 
L 102.357552 90.083667 
L 104.18267 89.92514 
L 105.992243 89.949528 
L 107.784762 89.376392 
L 109.558823 89.473947 
L 111.313132 90.150736 
L 113.046499 90.979954 
L 114.757837 90.717775 
L 116.44616 89.5776 
L 118.11058 87.955746 
L 119.750303 90.46779 
L 121.364625 88.870325 
L 122.95293 90.547054 
L 124.514687 89.242254 
L 126.049443 90.882399 
L 127.556821 90.845816 
L 129.036516 89.827585 
L 130.488294 90.906788 
L 131.911981 89.333712 
L 133.307466 90.864108 
L 134.674693 91.016537 
L 137.324414 90.595831 
L 138.607048 89.949528 
L 141.088531 91.053121 
L 143.459637 90.668997 
L 144.604421 91.254328 
L 145.722416 90.656803 
L 147.879352 90.742164 
L 148.919005 91.12019 
L 150.922583 90.479984 
L 151.887318 90.986052 
L 152.827907 90.979954 
L 153.744781 91.321397 
L 154.63838 91.236036 
L 155.509149 91.016537 
L 156.357537 91.248231 
L 157.184 91.095801 
L 157.988992 91.27262 
L 160.279723 91.089704 
L 161.707904 91.175065 
L 162.393662 91.059218 
L 163.061128 91.303106 
L 164.342951 91.01044 
L 166.706217 91.321397 
L 167.257731 91.211648 
L 168.316428 91.35798 
L 168.82439 91.047023 
L 169.318602 91.242134 
L 169.799436 91.297008 
L 170.267257 91.028732 
L 170.72242 91.211648 
L 171.59616 91.181162 
L 172.423355 91.205551 
L 172.820306 91.333592 
L 173.206577 91.236036 
L 174.650792 91.321397 
L 174.988051 91.126287 
L 175.316333 91.345786 
L 177.383909 91.239085 
L 177.64915 91.297008 
L 177.907509 91.187259 
L 178.404379 91.321397 
L 179.102916 91.254328 
L 179.324011 91.345786 
L 179.539517 91.223842 
L 179.749598 91.339689 
L 180.724011 91.367126 
L 180.904712 91.101898 
L 181.081005 91.327494 
L 181.253018 91.245182 
L 181.584697 91.339689 
L 182.627868 91.321397 
L 182.763337 91.275668 
L 182.895704 91.35798 
L 183.025057 91.178113 
L 183.275063 91.348835 
L 183.39588 91.211648 
L 183.96115 91.312251 
L 184.066939 91.165919 
L 184.370959 91.29396 
L 184.56312 91.300057 
L 184.656217 91.248231 
L 184.747395 91.373223 
L 184.836708 91.187259 
L 185.009938 91.376272 
L 185.093951 91.263474 
L 185.257002 91.342737 
L 185.489792 91.260425 
L 185.564409 91.351883 
L 185.709405 91.257377 
L 185.848991 91.284814 
L 185.916842 91.211648 
L 185.983442 91.290911 
L 186.176052 91.321397 
L 187.232742 91.29396 
L 187.405887 91.382369 
L 187.529019 91.251279 
L 187.608112 91.367126 
L 187.646799 91.312251 
L 187.832124 91.303106 
L 188.103152 91.342737 
L 188.135031 91.202502 
L 188.197552 91.321397 
L 188.22821 91.394564 
L 188.258478 91.27262 
L 188.288363 91.348835 
L 188.317873 91.211648 
L 188.404219 91.27262 
L 188.460035 91.388466 
L 188.541265 91.324446 
L 188.593828 91.367126 
L 188.670402 91.220793 
L 188.720001 91.339689 
L 188.768487 91.211648 
L 188.792326 91.144579 
L 188.815901 91.351883 
L 188.839217 91.300057 
L 189.038119 91.333592 
L 189.1408 91.312251 
L 189.219305 91.144579 
L 189.238453 91.303106 
L 189.367452 91.33664 
L 189.585989 91.312251 
L 189.60178 91.193356 
L 189.617435 91.367126 
L 189.693749 91.312251 
L 189.752549 91.214696 
L 189.809463 91.303106 
L 189.931129 91.35798 
L 189.944133 91.339689 
L 190.032486 91.226891 
L 190.007709 91.373223 
L 190.056904 91.290911 
L 190.151154 91.376272 
L 190.128089 91.147627 
L 190.1739 91.348835 
L 190.31447 91.211648 
L 190.324791 91.29396 
L 190.335045 91.382369 
L 190.395216 91.245182 
L 190.414773 91.287863 
L 190.424461 91.175065 
L 190.518152 91.370175 
L 190.64037 91.220793 
L 190.753354 91.367126 
L 190.713988 91.18421 
L 190.761102 91.333592 
L 190.829031 91.181162 
L 190.776475 91.348835 
L 190.872598 91.300057 
L 190.95591 91.217745 
L 190.907912 91.379321 
L 190.982614 91.303106 
L 191.040878 91.202502 
L 191.084538 91.364078 
L 191.144555 91.138481 
L 191.20198 91.168967 
L 191.314909 91.35798 
L 191.325162 91.135433 
L 191.360405 91.379321 
L 191.428033 91.257377 
L 191.432724 91.382369 
L 191.437398 91.138481 
L 191.540172 91.348835 
L 191.60674 91.156773 
L 191.684865 91.266522 
L 191.785778 91.367126 
L 191.743663 91.18421 
L 191.79264 91.275668 
L 191.832909 91.156773 
L 191.806233 91.367126 
L 191.90602 91.178113 
L 191.921249 91.385418 
L 191.945149 91.074461 
L 192.024552 91.303106 
L 192.038077 91.348835 
L 192.14706 91.168967 
L 192.100459 91.382369 
L 192.149449 91.266522 
L 192.16365 91.159822 
L 192.265629 91.376272 
L 192.280157 91.153724 
L 192.360583 91.394564 
L 192.379072 91.287863 
L 192.418326 91.193356 
L 192.39177 91.385418 
L 192.485077 91.260425 
L 192.593646 91.388466 
L 192.491448 91.190308 
L 192.595028 91.275668 
L 192.604631 91.211648 
L 192.603267 91.385418 
L 192.616792 91.263474 
" clip-path="url(#p11654c3d28)" style="fill: none; stroke: #ff7f0e; stroke-width: 0.7; stroke-linecap: square"/>
   </g>
   <g id="line2d_20">
    <path d="M 41.276506 91.412855 
L 194.012869 91.412855 
" clip-path="url(#p11654c3d28)" style="fill: none; stroke-dasharray: 2.59,1.12; stroke-dashoffset: 0; stroke: #000000; stroke-width: 0.7"/>
   </g>
   <g id="patch_3">
    <path d="M 33.639688 95.099219 
L 33.639688 13.999219 
" style="fill: none; stroke: #000000; stroke-width: 0.5; stroke-linejoin: miter; stroke-linecap: square"/>
   </g>
   <g id="patch_4">
    <path d="M 33.639688 95.099219 
L 201.649687 95.099219 
" style="fill: none; stroke: #000000; stroke-width: 0.5; stroke-linejoin: miter; stroke-linecap: square"/>
   </g>
   <g id="legend_1">
    <g id="line2d_21">
     <path d="M 120.899687 20.599219 
L 125.899687 20.599219 
L 130.899687 20.599219 
" style="fill: none; stroke: #1f77b4; stroke-width: 0.7; stroke-linecap: square"/>
    </g>
    <g id="text_21">
     <!-- max $p(r=y|y)$ difference -->
     <g transform="translate(134.899687 22.349219) scale(0.05 -0.05)">
      <defs>
       <path id="DejaVuSans-6d" d="M 3328 2828 
Q 3544 3216 3844 3400 
Q 4144 3584 4550 3584 
Q 5097 3584 5394 3201 
Q 5691 2819 5691 2113 
L 5691 0 
L 5113 0 
L 5113 2094 
Q 5113 2597 4934 2840 
Q 4756 3084 4391 3084 
Q 3944 3084 3684 2787 
Q 3425 2491 3425 1978 
L 3425 0 
L 2847 0 
L 2847 2094 
Q 2847 2600 2669 2842 
Q 2491 3084 2119 3084 
Q 1678 3084 1418 2786 
Q 1159 2488 1159 1978 
L 1159 0 
L 581 0 
L 581 3500 
L 1159 3500 
L 1159 2956 
Q 1356 3278 1631 3431 
Q 1906 3584 2284 3584 
Q 2666 3584 2933 3390 
Q 3200 3197 3328 2828 
z
" transform="scale(0.015625)"/>
       <path id="DejaVuSans-Oblique-70" d="M 3175 2156 
Q 3175 2616 2975 2859 
Q 2775 3103 2400 3103 
Q 2144 3103 1911 2972 
Q 1678 2841 1497 2591 
Q 1319 2344 1212 1994 
Q 1106 1644 1106 1300 
Q 1106 863 1306 627 
Q 1506 391 1875 391 
Q 2147 391 2380 519 
Q 2613 647 2778 891 
Q 2956 1147 3065 1494 
Q 3175 1841 3175 2156 
z
M 1394 2969 
Q 1625 3272 1939 3428 
Q 2253 3584 2638 3584 
Q 3175 3584 3472 3232 
Q 3769 2881 3769 2247 
Q 3769 1728 3584 1258 
Q 3400 788 3053 416 
Q 2822 169 2531 39 
Q 2241 -91 1919 -91 
Q 1547 -91 1294 64 
Q 1041 219 916 525 
L 556 -1331 
L -19 -1331 
L 922 3500 
L 1497 3500 
L 1394 2969 
z
" transform="scale(0.015625)"/>
       <path id="DejaVuSans-Oblique-72" d="M 2853 2969 
Q 2766 3016 2653 3041 
Q 2541 3066 2413 3066 
Q 1953 3066 1609 2717 
Q 1266 2369 1153 1784 
L 800 0 
L 225 0 
L 909 3500 
L 1484 3500 
L 1375 2956 
Q 1603 3259 1920 3421 
Q 2238 3584 2597 3584 
Q 2691 3584 2781 3573 
Q 2872 3563 2963 3538 
L 2853 2969 
z
" transform="scale(0.015625)"/>
       <path id="DejaVuSans-3d" d="M 678 2906 
L 4684 2906 
L 4684 2381 
L 678 2381 
L 678 2906 
z
M 678 1631 
L 4684 1631 
L 4684 1100 
L 678 1100 
L 678 1631 
z
" transform="scale(0.015625)"/>
       <path id="DejaVuSans-Oblique-79" d="M 1588 -325 
Q 1188 -997 936 -1164 
Q 684 -1331 294 -1331 
L -159 -1331 
L -63 -850 
L 269 -850 
Q 509 -850 678 -719 
Q 847 -588 1056 -206 
L 1234 128 
L 459 3500 
L 1069 3500 
L 1650 819 
L 3256 3500 
L 3859 3500 
L 1588 -325 
z
" transform="scale(0.015625)"/>
       <path id="DejaVuSans-7c" d="M 1344 4891 
L 1344 -1509 
L 813 -1509 
L 813 4891 
L 1344 4891 
z
" transform="scale(0.015625)"/>
      </defs>
      <use xlink:href="#DejaVuSans-6d" transform="translate(0 0.578125)"/>
      <use xlink:href="#DejaVuSans-61" transform="translate(97.412109 0.578125)"/>
      <use xlink:href="#DejaVuSans-78" transform="translate(158.691406 0.578125)"/>
      <use xlink:href="#DejaVuSans-20" transform="translate(217.871094 0.578125)"/>
      <use xlink:href="#DejaVuSans-Oblique-70" transform="translate(249.658203 0.578125)"/>
      <use xlink:href="#DejaVuSans-28" transform="translate(313.134766 0.578125)"/>
      <use xlink:href="#DejaVuSans-Oblique-72" transform="translate(352.148438 0.578125)"/>
      <use xlink:href="#DejaVuSans-3d" transform="translate(412.744141 0.578125)"/>
      <use xlink:href="#DejaVuSans-Oblique-79" transform="translate(516.015625 0.578125)"/>
      <use xlink:href="#DejaVuSans-7c" transform="translate(575.195312 0.578125)"/>
      <use xlink:href="#DejaVuSans-Oblique-79" transform="translate(608.886719 0.578125)"/>
      <use xlink:href="#DejaVuSans-29" transform="translate(668.066406 0.578125)"/>
      <use xlink:href="#DejaVuSans-20" transform="translate(707.080078 0.578125)"/>
      <use xlink:href="#DejaVuSans-64" transform="translate(738.867188 0.578125)"/>
      <use xlink:href="#DejaVuSans-69" transform="translate(802.34375 0.578125)"/>
      <use xlink:href="#DejaVuSans-66" transform="translate(830.126953 0.578125)"/>
      <use xlink:href="#DejaVuSans-66" transform="translate(865.332031 0.578125)"/>
      <use xlink:href="#DejaVuSans-65" transform="translate(900.537109 0.578125)"/>
      <use xlink:href="#DejaVuSans-72" transform="translate(962.060547 0.578125)"/>
      <use xlink:href="#DejaVuSans-65" transform="translate(1003.173828 0.578125)"/>
      <use xlink:href="#DejaVuSans-6e" transform="translate(1064.697266 0.578125)"/>
      <use xlink:href="#DejaVuSans-63" transform="translate(1128.076172 0.578125)"/>
      <use xlink:href="#DejaVuSans-65" transform="translate(1183.056641 0.578125)"/>
     </g>
    </g>
    <g id="line2d_22">
     <path d="M 120.899687 28.149219 
L 125.899687 28.149219 
L 130.899687 28.149219 
" style="fill: none; stroke: #ff7f0e; stroke-width: 0.7; stroke-linecap: square"/>
    </g>
    <g id="text_22">
     <!-- max $p(r\neq y|y)$ difference -->
     <g transform="translate(134.899687 29.899219) scale(0.05 -0.05)">
      <defs>
       <path id="DejaVuSans-2260" d="M 678 2906 
L 3091 2906 
L 3891 3891 
L 4281 3572 
L 3738 2906 
L 4684 2906 
L 4684 2381 
L 3309 2381 
L 2700 1631 
L 4684 1631 
L 4684 1100 
L 2266 1100 
L 1459 122 
L 1069 441 
L 1613 1100 
L 678 1100 
L 678 1631 
L 2047 1631 
L 2656 2381 
L 678 2381 
L 678 2906 
z
" transform="scale(0.015625)"/>
      </defs>
      <use xlink:href="#DejaVuSans-6d" transform="translate(0 0.578125)"/>
      <use xlink:href="#DejaVuSans-61" transform="translate(97.412109 0.578125)"/>
      <use xlink:href="#DejaVuSans-78" transform="translate(158.691406 0.578125)"/>
      <use xlink:href="#DejaVuSans-20" transform="translate(217.871094 0.578125)"/>
      <use xlink:href="#DejaVuSans-Oblique-70" transform="translate(249.658203 0.578125)"/>
      <use xlink:href="#DejaVuSans-28" transform="translate(313.134766 0.578125)"/>
      <use xlink:href="#DejaVuSans-Oblique-72" transform="translate(352.148438 0.578125)"/>
      <use xlink:href="#DejaVuSans-2260" transform="translate(412.744141 0.578125)"/>
      <use xlink:href="#DejaVuSans-Oblique-79" transform="translate(516.015625 0.578125)"/>
      <use xlink:href="#DejaVuSans-7c" transform="translate(575.195312 0.578125)"/>
      <use xlink:href="#DejaVuSans-Oblique-79" transform="translate(608.886719 0.578125)"/>
      <use xlink:href="#DejaVuSans-29" transform="translate(668.066406 0.578125)"/>
      <use xlink:href="#DejaVuSans-20" transform="translate(707.080078 0.578125)"/>
      <use xlink:href="#DejaVuSans-64" transform="translate(738.867188 0.578125)"/>
      <use xlink:href="#DejaVuSans-69" transform="translate(802.34375 0.578125)"/>
      <use xlink:href="#DejaVuSans-66" transform="translate(830.126953 0.578125)"/>
      <use xlink:href="#DejaVuSans-66" transform="translate(865.332031 0.578125)"/>
      <use xlink:href="#DejaVuSans-65" transform="translate(900.537109 0.578125)"/>
      <use xlink:href="#DejaVuSans-72" transform="translate(962.060547 0.578125)"/>
      <use xlink:href="#DejaVuSans-65" transform="translate(1003.173828 0.578125)"/>
      <use xlink:href="#DejaVuSans-6e" transform="translate(1064.697266 0.578125)"/>
      <use xlink:href="#DejaVuSans-63" transform="translate(1128.076172 0.578125)"/>
      <use xlink:href="#DejaVuSans-65" transform="translate(1183.056641 0.578125)"/>
     </g>
    </g>
   </g>
  </g>
 </g>
 <defs>
  <clipPath id="p11654c3d28">
   <rect x="33.639688" y="13.999219" width="168.01" height="81.1"/>
  </clipPath>
 </defs>
</svg>
