<?xml version="1.0" encoding="utf-8" standalone="no"?>
<!DOCTYPE svg PUBLIC "-//W3C//DTD SVG 1.1//EN"
  "http://www.w3.org/Graphics/SVG/1.1/DTD/svg11.dtd">
<svg xmlns:xlink="http://www.w3.org/1999/xlink" width="208.38332pt" height="316.478125pt" viewBox="0 0 208.38332 316.478125" xmlns="http://www.w3.org/2000/svg" version="1.1">
 <metadata>
  <rdf:RDF xmlns:dc="http://purl.org/dc/elements/1.1/" xmlns:cc="http://creativecommons.org/ns#" xmlns:rdf="http://www.w3.org/1999/02/22-rdf-syntax-ns#">
   <cc:Work>
    <dc:type rdf:resource="http://purl.org/dc/dcmitype/StillImage"/>
    <dc:date>2026-04-22T13:20:46.826916</dc:date>
    <dc:format>image/svg+xml</dc:format>
    <dc:creator>
     <cc:Agent>
      <dc:title>Matplotlib v3.6.2, https://matplotlib.org/</dc:title>
     </cc:Agent>
    </dc:creator>
   </cc:Work>
  </rdf:RDF>
 </metadata>
 <defs>
  <style type="text/css">*{stroke-linejoin: round; stroke-linecap: butt}</style>
 </defs>
 <g id="figure_1">
  <g id="patch_1">
   <path d="M 0 316.478125 
L 208.38332 316.478125 
L 208.38332 0 
L 0 0 
z
" style="fill: #ffffff"/>
  </g>
  <g id="axes_1">
   <g id="patch_2">
    <path d="M 37.829531 95.592396 
L 197.695757 95.592396 
L 197.695757 17.759062 
L 37.829531 17.759062 
z
" style="fill: #ffffff"/>
   </g>
   <g id="matplotlib.axis_1">
    <g id="xtick_1">
     <g id="line2d_1">
      <defs>
       <path id="m50e2dc7461" d="M 0 0 
L 0 2 
" style="stroke: #000000; stroke-width: 0.5"/>
      </defs>
      <g>
       <use xlink:href="#m50e2dc7461" x="39.797161" y="95.592396" style="stroke: #000000; stroke-width: 0.5"/>
      </g>
     </g>
    </g>
    <g id="xtick_2">
     <g id="line2d_2">
      <g>
       <use xlink:href="#m50e2dc7461" x="59.473458" y="95.592396" style="stroke: #000000; stroke-width: 0.5"/>
      </g>
     </g>
    </g>
    <g id="xtick_3">
     <g id="line2d_3">
      <g>
       <use xlink:href="#m50e2dc7461" x="79.149755" y="95.592396" style="stroke: #000000; stroke-width: 0.5"/>
      </g>
     </g>
    </g>
    <g id="xtick_4">
     <g id="line2d_4">
      <g>
       <use xlink:href="#m50e2dc7461" x="98.826053" y="95.592396" style="stroke: #000000; stroke-width: 0.5"/>
      </g>
     </g>
    </g>
    <g id="xtick_5">
     <g id="line2d_5">
      <g>
       <use xlink:href="#m50e2dc7461" x="118.50235" y="95.592396" style="stroke: #000000; stroke-width: 0.5"/>
      </g>
     </g>
    </g>
    <g id="xtick_6">
     <g id="line2d_6">
      <g>
       <use xlink:href="#m50e2dc7461" x="138.178647" y="95.592396" style="stroke: #000000; stroke-width: 0.5"/>
      </g>
     </g>
    </g>
    <g id="xtick_7">
     <g id="line2d_7">
      <g>
       <use xlink:href="#m50e2dc7461" x="157.854944" y="95.592396" style="stroke: #000000; stroke-width: 0.5"/>
      </g>
     </g>
    </g>
    <g id="xtick_8">
     <g id="line2d_8">
      <g>
       <use xlink:href="#m50e2dc7461" x="177.531242" y="95.592396" style="stroke: #000000; stroke-width: 0.5"/>
      </g>
     </g>
    </g>
    <g id="xtick_9">
     <g id="line2d_9">
      <g>
       <use xlink:href="#m50e2dc7461" x="197.207539" y="95.592396" style="stroke: #000000; stroke-width: 0.5"/>
      </g>
     </g>
    </g>
   </g>
   <g id="matplotlib.axis_2">
    <g id="ytick_1">
     <g id="line2d_10">
      <defs>
       <path id="m8e4b1f364b" d="M 0 0 
L -2 0 
" style="stroke: #000000; stroke-width: 0.5"/>
      </defs>
      <g>
       <use xlink:href="#m8e4b1f364b" x="37.829531" y="93.818978" style="stroke: #000000; stroke-width: 0.5"/>
      </g>
     </g>
     <g id="text_1">
      <!-- −0.5 -->
      <g transform="translate(20.188125 95.718587) scale(0.05 -0.05)">
       <defs>
        <path id="DejaVuSans-2212" d="M 678 2272 
L 4684 2272 
L 4684 1741 
L 678 1741 
L 678 2272 
z
" transform="scale(0.015625)"/>
        <path id="DejaVuSans-30" d="M 2034 4250 
Q 1547 4250 1301 3770 
Q 1056 3291 1056 2328 
Q 1056 1369 1301 889 
Q 1547 409 2034 409 
Q 2525 409 2770 889 
Q 3016 1369 3016 2328 
Q 3016 3291 2770 3770 
Q 2525 4250 2034 4250 
z
M 2034 4750 
Q 2819 4750 3233 4129 
Q 3647 3509 3647 2328 
Q 3647 1150 3233 529 
Q 2819 -91 2034 -91 
Q 1250 -91 836 529 
Q 422 1150 422 2328 
Q 422 3509 836 4129 
Q 1250 4750 2034 4750 
z
" transform="scale(0.015625)"/>
        <path id="DejaVuSans-2e" d="M 684 794 
L 1344 794 
L 1344 0 
L 684 0 
L 684 794 
z
" transform="scale(0.015625)"/>
        <path id="DejaVuSans-35" d="M 691 4666 
L 3169 4666 
L 3169 4134 
L 1269 4134 
L 1269 2991 
Q 1406 3038 1543 3061 
Q 1681 3084 1819 3084 
Q 2600 3084 3056 2656 
Q 3513 2228 3513 1497 
Q 3513 744 3044 326 
Q 2575 -91 1722 -91 
Q 1428 -91 1123 -41 
Q 819 9 494 109 
L 494 744 
Q 775 591 1075 516 
Q 1375 441 1709 441 
Q 2250 441 2565 725 
Q 2881 1009 2881 1497 
Q 2881 1984 2565 2268 
Q 2250 2553 1709 2553 
Q 1456 2553 1204 2497 
Q 953 2441 691 2322 
L 691 4666 
z
" transform="scale(0.015625)"/>
       </defs>
       <use xlink:href="#DejaVuSans-2212"/>
       <use xlink:href="#DejaVuSans-30" x="83.789062"/>
       <use xlink:href="#DejaVuSans-2e" x="147.412109"/>
       <use xlink:href="#DejaVuSans-35" x="179.199219"/>
      </g>
     </g>
    </g>
    <g id="ytick_2">
     <g id="line2d_11">
      <g>
       <use xlink:href="#m8e4b1f364b" x="37.829531" y="75.278539" style="stroke: #000000; stroke-width: 0.5"/>
      </g>
     </g>
     <g id="text_2">
      <!-- 0.0 -->
      <g transform="translate(24.377969 77.178148) scale(0.05 -0.05)">
       <use xlink:href="#DejaVuSans-30"/>
       <use xlink:href="#DejaVuSans-2e" x="63.623047"/>
       <use xlink:href="#DejaVuSans-30" x="95.410156"/>
      </g>
     </g>
    </g>
    <g id="ytick_3">
     <g id="line2d_12">
      <g>
       <use xlink:href="#m8e4b1f364b" x="37.829531" y="56.7381" style="stroke: #000000; stroke-width: 0.5"/>
      </g>
     </g>
     <g id="text_3">
      <!-- 0.5 -->
      <g transform="translate(24.377969 58.63771) scale(0.05 -0.05)">
       <use xlink:href="#DejaVuSans-30"/>
       <use xlink:href="#DejaVuSans-2e" x="63.623047"/>
       <use xlink:href="#DejaVuSans-35" x="95.410156"/>
      </g>
     </g>
    </g>
    <g id="ytick_4">
     <g id="line2d_13">
      <g>
       <use xlink:href="#m8e4b1f364b" x="37.829531" y="38.197661" style="stroke: #000000; stroke-width: 0.5"/>
      </g>
     </g>
     <g id="text_4">
      <!-- 1.0 -->
      <g transform="translate(24.377969 40.097271) scale(0.05 -0.05)">
       <defs>
        <path id="DejaVuSans-31" d="M 794 531 
L 1825 531 
L 1825 4091 
L 703 3866 
L 703 4441 
L 1819 4666 
L 2450 4666 
L 2450 531 
L 3481 531 
L 3481 0 
L 794 0 
L 794 531 
z
" transform="scale(0.015625)"/>
       </defs>
       <use xlink:href="#DejaVuSans-31"/>
       <use xlink:href="#DejaVuSans-2e" x="63.623047"/>
       <use xlink:href="#DejaVuSans-30" x="95.410156"/>
      </g>
     </g>
    </g>
    <g id="ytick_5">
     <g id="line2d_14">
      <g>
       <use xlink:href="#m8e4b1f364b" x="37.829531" y="19.657223" style="stroke: #000000; stroke-width: 0.5"/>
      </g>
     </g>
     <g id="text_5">
      <!-- 1.5 -->
      <g transform="translate(24.377969 21.556832) scale(0.05 -0.05)">
       <use xlink:href="#DejaVuSans-31"/>
       <use xlink:href="#DejaVuSans-2e" x="63.623047"/>
       <use xlink:href="#DejaVuSans-35" x="95.410156"/>
      </g>
     </g>
    </g>
    <g id="text_6">
     <!-- $\Delta I(X;R)$ (softmax-IB bound) -->
     <g transform="translate(14.940312 97.595729) rotate(-90) scale(0.06 -0.06)">
      <defs>
       <path id="DejaVuSans-394" d="M 2188 4044 
L 906 525 
L 3472 525 
L 2188 4044 
z
M 50 0 
L 1831 4666 
L 2547 4666 
L 4325 0 
L 50 0 
z
" transform="scale(0.015625)"/>
       <path id="DejaVuSans-Oblique-49" d="M 1081 4666 
L 1716 4666 
L 806 0 
L 172 0 
L 1081 4666 
z
" transform="scale(0.015625)"/>
       <path id="DejaVuSans-28" d="M 1984 4856 
Q 1566 4138 1362 3434 
Q 1159 2731 1159 2009 
Q 1159 1288 1364 580 
Q 1569 -128 1984 -844 
L 1484 -844 
Q 1016 -109 783 600 
Q 550 1309 550 2009 
Q 550 2706 781 3412 
Q 1013 4119 1484 4856 
L 1984 4856 
z
" transform="scale(0.015625)"/>
       <path id="DejaVuSans-Oblique-58" d="M 878 4666 
L 1516 4666 
L 2316 2981 
L 3763 4666 
L 4500 4666 
L 2578 2438 
L 3738 0 
L 3103 0 
L 2163 1966 
L 459 0 
L -275 0 
L 1906 2509 
L 878 4666 
z
" transform="scale(0.015625)"/>
       <path id="DejaVuSans-3b" d="M 750 3309 
L 1409 3309 
L 1409 2516 
L 750 2516 
L 750 3309 
z
M 750 794 
L 1409 794 
L 1409 256 
L 897 -744 
L 494 -744 
L 750 256 
L 750 794 
z
" transform="scale(0.015625)"/>
       <path id="DejaVuSans-Oblique-52" d="M 1613 4147 
L 1294 2491 
L 2106 2491 
Q 2584 2491 2879 2755 
Q 3175 3019 3175 3444 
Q 3175 3784 2976 3965 
Q 2778 4147 2406 4147 
L 1613 4147 
z
M 2772 2241 
Q 2972 2194 3105 2009 
Q 3238 1825 3413 1275 
L 3809 0 
L 3144 0 
L 2778 1197 
Q 2638 1659 2453 1815 
Q 2269 1972 1888 1972 
L 1191 1972 
L 806 0 
L 172 0 
L 1081 4666 
L 2503 4666 
Q 3150 4666 3495 4373 
Q 3841 4081 3841 3531 
Q 3841 3044 3547 2687 
Q 3253 2331 2772 2241 
z
" transform="scale(0.015625)"/>
       <path id="DejaVuSans-29" d="M 513 4856 
L 1013 4856 
Q 1481 4119 1714 3412 
Q 1947 2706 1947 2009 
Q 1947 1309 1714 600 
Q 1481 -109 1013 -844 
L 513 -844 
Q 928 -128 1133 580 
Q 1338 1288 1338 2009 
Q 1338 2731 1133 3434 
Q 928 4138 513 4856 
z
" transform="scale(0.015625)"/>
       <path id="DejaVuSans-20" transform="scale(0.015625)"/>
       <path id="DejaVuSans-73" d="M 2834 3397 
L 2834 2853 
Q 2591 2978 2328 3040 
Q 2066 3103 1784 3103 
Q 1356 3103 1142 2972 
Q 928 2841 928 2578 
Q 928 2378 1081 2264 
Q 1234 2150 1697 2047 
L 1894 2003 
Q 2506 1872 2764 1633 
Q 3022 1394 3022 966 
Q 3022 478 2636 193 
Q 2250 -91 1575 -91 
Q 1294 -91 989 -36 
Q 684 19 347 128 
L 347 722 
Q 666 556 975 473 
Q 1284 391 1588 391 
Q 1994 391 2212 530 
Q 2431 669 2431 922 
Q 2431 1156 2273 1281 
Q 2116 1406 1581 1522 
L 1381 1569 
Q 847 1681 609 1914 
Q 372 2147 372 2553 
Q 372 3047 722 3315 
Q 1072 3584 1716 3584 
Q 2034 3584 2315 3537 
Q 2597 3491 2834 3397 
z
" transform="scale(0.015625)"/>
       <path id="DejaVuSans-6f" d="M 1959 3097 
Q 1497 3097 1228 2736 
Q 959 2375 959 1747 
Q 959 1119 1226 758 
Q 1494 397 1959 397 
Q 2419 397 2687 759 
Q 2956 1122 2956 1747 
Q 2956 2369 2687 2733 
Q 2419 3097 1959 3097 
z
M 1959 3584 
Q 2709 3584 3137 3096 
Q 3566 2609 3566 1747 
Q 3566 888 3137 398 
Q 2709 -91 1959 -91 
Q 1206 -91 779 398 
Q 353 888 353 1747 
Q 353 2609 779 3096 
Q 1206 3584 1959 3584 
z
" transform="scale(0.015625)"/>
       <path id="DejaVuSans-66" d="M 2375 4863 
L 2375 4384 
L 1825 4384 
Q 1516 4384 1395 4259 
Q 1275 4134 1275 3809 
L 1275 3500 
L 2222 3500 
L 2222 3053 
L 1275 3053 
L 1275 0 
L 697 0 
L 697 3053 
L 147 3053 
L 147 3500 
L 697 3500 
L 697 3744 
Q 697 4328 969 4595 
Q 1241 4863 1831 4863 
L 2375 4863 
z
" transform="scale(0.015625)"/>
       <path id="DejaVuSans-74" d="M 1172 4494 
L 1172 3500 
L 2356 3500 
L 2356 3053 
L 1172 3053 
L 1172 1153 
Q 1172 725 1289 603 
Q 1406 481 1766 481 
L 2356 481 
L 2356 0 
L 1766 0 
Q 1100 0 847 248 
Q 594 497 594 1153 
L 594 3053 
L 172 3053 
L 172 3500 
L 594 3500 
L 594 4494 
L 1172 4494 
z
" transform="scale(0.015625)"/>
       <path id="DejaVuSans-6d" d="M 3328 2828 
Q 3544 3216 3844 3400 
Q 4144 3584 4550 3584 
Q 5097 3584 5394 3201 
Q 5691 2819 5691 2113 
L 5691 0 
L 5113 0 
L 5113 2094 
Q 5113 2597 4934 2840 
Q 4756 3084 4391 3084 
Q 3944 3084 3684 2787 
Q 3425 2491 3425 1978 
L 3425 0 
L 2847 0 
L 2847 2094 
Q 2847 2600 2669 2842 
Q 2491 3084 2119 3084 
Q 1678 3084 1418 2786 
Q 1159 2488 1159 1978 
L 1159 0 
L 581 0 
L 581 3500 
L 1159 3500 
L 1159 2956 
Q 1356 3278 1631 3431 
Q 1906 3584 2284 3584 
Q 2666 3584 2933 3390 
Q 3200 3197 3328 2828 
z
" transform="scale(0.015625)"/>
       <path id="DejaVuSans-61" d="M 2194 1759 
Q 1497 1759 1228 1600 
Q 959 1441 959 1056 
Q 959 750 1161 570 
Q 1363 391 1709 391 
Q 2188 391 2477 730 
Q 2766 1069 2766 1631 
L 2766 1759 
L 2194 1759 
z
M 3341 1997 
L 3341 0 
L 2766 0 
L 2766 531 
Q 2569 213 2275 61 
Q 1981 -91 1556 -91 
Q 1019 -91 701 211 
Q 384 513 384 1019 
Q 384 1609 779 1909 
Q 1175 2209 1959 2209 
L 2766 2209 
L 2766 2266 
Q 2766 2663 2505 2880 
Q 2244 3097 1772 3097 
Q 1472 3097 1187 3025 
Q 903 2953 641 2809 
L 641 3341 
Q 956 3463 1253 3523 
Q 1550 3584 1831 3584 
Q 2591 3584 2966 3190 
Q 3341 2797 3341 1997 
z
" transform="scale(0.015625)"/>
       <path id="DejaVuSans-78" d="M 3513 3500 
L 2247 1797 
L 3578 0 
L 2900 0 
L 1881 1375 
L 863 0 
L 184 0 
L 1544 1831 
L 300 3500 
L 978 3500 
L 1906 2253 
L 2834 3500 
L 3513 3500 
z
" transform="scale(0.015625)"/>
       <path id="DejaVuSans-2d" d="M 313 2009 
L 1997 2009 
L 1997 1497 
L 313 1497 
L 313 2009 
z
" transform="scale(0.015625)"/>
       <path id="DejaVuSans-49" d="M 628 4666 
L 1259 4666 
L 1259 0 
L 628 0 
L 628 4666 
z
" transform="scale(0.015625)"/>
       <path id="DejaVuSans-42" d="M 1259 2228 
L 1259 519 
L 2272 519 
Q 2781 519 3026 730 
Q 3272 941 3272 1375 
Q 3272 1813 3026 2020 
Q 2781 2228 2272 2228 
L 1259 2228 
z
M 1259 4147 
L 1259 2741 
L 2194 2741 
Q 2656 2741 2882 2914 
Q 3109 3088 3109 3444 
Q 3109 3797 2882 3972 
Q 2656 4147 2194 4147 
L 1259 4147 
z
M 628 4666 
L 2241 4666 
Q 2963 4666 3353 4366 
Q 3744 4066 3744 3513 
Q 3744 3084 3544 2831 
Q 3344 2578 2956 2516 
Q 3422 2416 3680 2098 
Q 3938 1781 3938 1306 
Q 3938 681 3513 340 
Q 3088 0 2303 0 
L 628 0 
L 628 4666 
z
" transform="scale(0.015625)"/>
       <path id="DejaVuSans-62" d="M 3116 1747 
Q 3116 2381 2855 2742 
Q 2594 3103 2138 3103 
Q 1681 3103 1420 2742 
Q 1159 2381 1159 1747 
Q 1159 1113 1420 752 
Q 1681 391 2138 391 
Q 2594 391 2855 752 
Q 3116 1113 3116 1747 
z
M 1159 2969 
Q 1341 3281 1617 3432 
Q 1894 3584 2278 3584 
Q 2916 3584 3314 3078 
Q 3713 2572 3713 1747 
Q 3713 922 3314 415 
Q 2916 -91 2278 -91 
Q 1894 -91 1617 61 
Q 1341 213 1159 525 
L 1159 0 
L 581 0 
L 581 4863 
L 1159 4863 
L 1159 2969 
z
" transform="scale(0.015625)"/>
       <path id="DejaVuSans-75" d="M 544 1381 
L 544 3500 
L 1119 3500 
L 1119 1403 
Q 1119 906 1312 657 
Q 1506 409 1894 409 
Q 2359 409 2629 706 
Q 2900 1003 2900 1516 
L 2900 3500 
L 3475 3500 
L 3475 0 
L 2900 0 
L 2900 538 
Q 2691 219 2414 64 
Q 2138 -91 1772 -91 
Q 1169 -91 856 284 
Q 544 659 544 1381 
z
M 1991 3584 
L 1991 3584 
z
" transform="scale(0.015625)"/>
       <path id="DejaVuSans-6e" d="M 3513 2113 
L 3513 0 
L 2938 0 
L 2938 2094 
Q 2938 2591 2744 2837 
Q 2550 3084 2163 3084 
Q 1697 3084 1428 2787 
Q 1159 2491 1159 1978 
L 1159 0 
L 581 0 
L 581 3500 
L 1159 3500 
L 1159 2956 
Q 1366 3272 1645 3428 
Q 1925 3584 2291 3584 
Q 2894 3584 3203 3211 
Q 3513 2838 3513 2113 
z
" transform="scale(0.015625)"/>
       <path id="DejaVuSans-64" d="M 2906 2969 
L 2906 4863 
L 3481 4863 
L 3481 0 
L 2906 0 
L 2906 525 
Q 2725 213 2448 61 
Q 2172 -91 1784 -91 
Q 1150 -91 751 415 
Q 353 922 353 1747 
Q 353 2572 751 3078 
Q 1150 3584 1784 3584 
Q 2172 3584 2448 3432 
Q 2725 3281 2906 2969 
z
M 947 1747 
Q 947 1113 1208 752 
Q 1469 391 1925 391 
Q 2381 391 2643 752 
Q 2906 1113 2906 1747 
Q 2906 2381 2643 2742 
Q 2381 3103 1925 3103 
Q 1469 3103 1208 2742 
Q 947 2381 947 1747 
z
" transform="scale(0.015625)"/>
      </defs>
      <use xlink:href="#DejaVuSans-394" transform="translate(0 0.015625)"/>
      <use xlink:href="#DejaVuSans-Oblique-49" transform="translate(68.408203 0.015625)"/>
      <use xlink:href="#DejaVuSans-28" transform="translate(97.900391 0.015625)"/>
      <use xlink:href="#DejaVuSans-Oblique-58" transform="translate(136.914062 0.015625)"/>
      <use xlink:href="#DejaVuSans-3b" transform="translate(205.419922 0.015625)"/>
      <use xlink:href="#DejaVuSans-Oblique-52" transform="translate(258.59375 0.015625)"/>
      <use xlink:href="#DejaVuSans-29" transform="translate(328.076172 0.015625)"/>
      <use xlink:href="#DejaVuSans-20" transform="translate(367.089844 0.015625)"/>
      <use xlink:href="#DejaVuSans-28" transform="translate(398.876953 0.015625)"/>
      <use xlink:href="#DejaVuSans-73" transform="translate(437.890625 0.015625)"/>
      <use xlink:href="#DejaVuSans-6f" transform="translate(489.990234 0.015625)"/>
      <use xlink:href="#DejaVuSans-66" transform="translate(551.171875 0.015625)"/>
      <use xlink:href="#DejaVuSans-74" transform="translate(586.376953 0.015625)"/>
      <use xlink:href="#DejaVuSans-6d" transform="translate(625.585938 0.015625)"/>
      <use xlink:href="#DejaVuSans-61" transform="translate(722.998047 0.015625)"/>
      <use xlink:href="#DejaVuSans-78" transform="translate(784.277344 0.015625)"/>
      <use xlink:href="#DejaVuSans-2d" transform="translate(843.457031 0.015625)"/>
      <use xlink:href="#DejaVuSans-49" transform="translate(879.541016 0.015625)"/>
      <use xlink:href="#DejaVuSans-42" transform="translate(909.033203 0.015625)"/>
      <use xlink:href="#DejaVuSans-20" transform="translate(977.636719 0.015625)"/>
      <use xlink:href="#DejaVuSans-62" transform="translate(1009.423828 0.015625)"/>
      <use xlink:href="#DejaVuSans-6f" transform="translate(1072.900391 0.015625)"/>
      <use xlink:href="#DejaVuSans-75" transform="translate(1134.082031 0.015625)"/>
      <use xlink:href="#DejaVuSans-6e" transform="translate(1197.460938 0.015625)"/>
      <use xlink:href="#DejaVuSans-64" transform="translate(1260.839844 0.015625)"/>
      <use xlink:href="#DejaVuSans-29" transform="translate(1324.316406 0.015625)"/>
     </g>
    </g>
    <g id="text_7">
     <!-- 1e−14 -->
     <g transform="translate(37.829531 14.759062) scale(0.05 -0.05)">
      <defs>
       <path id="DejaVuSans-65" d="M 3597 1894 
L 3597 1613 
L 953 1613 
Q 991 1019 1311 708 
Q 1631 397 2203 397 
Q 2534 397 2845 478 
Q 3156 559 3463 722 
L 3463 178 
Q 3153 47 2828 -22 
Q 2503 -91 2169 -91 
Q 1331 -91 842 396 
Q 353 884 353 1716 
Q 353 2575 817 3079 
Q 1281 3584 2069 3584 
Q 2775 3584 3186 3129 
Q 3597 2675 3597 1894 
z
M 3022 2063 
Q 3016 2534 2758 2815 
Q 2500 3097 2075 3097 
Q 1594 3097 1305 2825 
Q 1016 2553 972 2059 
L 3022 2063 
z
" transform="scale(0.015625)"/>
       <path id="DejaVuSans-34" d="M 2419 4116 
L 825 1625 
L 2419 1625 
L 2419 4116 
z
M 2253 4666 
L 3047 4666 
L 3047 1625 
L 3713 1625 
L 3713 1100 
L 3047 1100 
L 3047 0 
L 2419 0 
L 2419 1100 
L 313 1100 
L 313 1709 
L 2253 4666 
z
" transform="scale(0.015625)"/>
      </defs>
      <use xlink:href="#DejaVuSans-31"/>
      <use xlink:href="#DejaVuSans-65" x="63.623047"/>
      <use xlink:href="#DejaVuSans-2212" x="125.146484"/>
      <use xlink:href="#DejaVuSans-31" x="208.935547"/>
      <use xlink:href="#DejaVuSans-34" x="272.558594"/>
     </g>
    </g>
   </g>
   <g id="line2d_15">
    <path d="M 39.826994 69.898752 
L 39.917588 76.503128 
L 40.070475 63.780433 
L 40.287041 61.696301 
L 40.568509 63.519916 
L 40.915932 76.031142 
L 41.330182 50.153167 
L 41.811937 92.054517 
L 42.361683 77.053911 
L 42.979699 74.017768 
L 43.666055 42.498484 
L 44.420612 46.435178 
L 45.243013 60.072093 
L 46.132692 80.527465 
L 47.088865 73.631817 
L 48.110542 21.296941 
L 49.196525 58.245261 
L 50.345419 34.059035 
L 51.555633 33.595894 
L 52.825396 66.015729 
L 54.152761 55.312038 
L 55.535619 82.997547 
L 56.971713 45.225867 
L 58.458645 39.565261 
L 59.993897 66.83909 
L 61.574839 49.239751 
L 63.198748 33.081294 
L 64.862821 76.925261 
L 68.299943 59.840523 
L 70.067124 57.78212 
L 71.862766 76.1019 
L 73.683891 66.015729 
L 75.527532 61.693085 
L 77.390742 64.163167 
L 79.270607 84.747189 
L 81.164258 70.544214 
L 83.068882 72.396776 
L 84.981729 71.985096 
L 86.900125 70.750054 
L 88.821477 66.015729 
L 90.743279 73.631817 
L 92.663122 68.691652 
L 94.578695 74.455178 
L 96.487791 67.868291 
L 98.38831 78.571983 
L 100.278261 74.455178 
L 102.155766 67.04493 
L 104.019057 63.751487 
L 105.86648 61.281404 
L 107.69649 74.866859 
L 109.507658 74.866859 
L 111.298659 76.51358 
L 113.068281 76.1019 
L 114.815413 81.865426 
L 116.539049 73.631817 
L 118.238281 70.750054 
L 121.560387 80.218704 
L 123.181913 66.221569 
L 124.776335 71.161735 
L 126.343191 74.866859 
L 127.882097 84.335509 
L 129.392742 75.278539 
L 130.874885 71.985096 
L 132.328349 75.69022 
L 133.753022 72.396776 
L 135.148845 71.985096 
L 136.515818 71.161735 
L 137.853988 72.396776 
L 139.163449 78.571983 
L 140.444338 80.218704 
L 141.696834 74.455178 
L 142.92115 75.278539 
L 144.117534 73.631817 
L 145.286262 78.571983 
L 146.42764 74.455178 
L 147.541999 74.455178 
L 148.629691 69.515013 
L 149.691088 78.571983 
L 150.726581 71.161735 
L 151.736574 72.808456 
L 152.721486 84.335509 
L 153.681748 71.985096 
L 154.6178 76.1019 
L 155.530089 70.338374 
L 156.419071 76.1019 
L 157.285204 80.218704 
L 158.128952 74.455178 
L 158.950781 75.278539 
L 159.751158 74.455178 
L 160.530551 71.161735 
L 161.289425 68.691652 
L 162.028246 71.985096 
L 162.747478 74.455178 
L 163.447579 76.1019 
L 164.129006 73.631817 
L 165.437639 76.925261 
L 166.065733 75.278539 
L 166.676928 76.925261 
L 167.271654 75.278539 
L 167.850334 76.1019 
L 168.413384 73.631817 
L 170.01281 73.631817 
L 170.51736 76.1019 
L 171.008251 76.1019 
L 171.485856 75.278539 
L 171.950539 73.631817 
L 172.402656 72.808456 
L 172.842555 74.455178 
L 173.687051 74.455178 
L 174.092305 76.925261 
L 174.486654 75.278539 
L 174.870409 72.808456 
L 175.243869 74.455178 
L 175.60733 73.631817 
L 175.961077 73.631817 
L 176.305389 75.278539 
L 176.640538 75.278539 
L 176.966789 76.925261 
L 177.284398 75.278539 
L 177.593617 76.925261 
L 177.894689 73.631817 
L 178.18785 75.278539 
L 178.473333 76.1019 
L 178.751359 73.631817 
L 179.022148 74.455178 
L 179.285911 76.925261 
L 179.542853 72.808456 
L 179.793173 73.631817 
L 180.037067 73.631817 
L 180.274722 75.278539 
L 180.50632 74.455178 
L 181.166528 76.925261 
L 181.375625 73.631817 
L 181.579503 76.1019 
L 181.778313 75.278539 
L 181.972205 76.1019 
L 182.161322 74.455178 
L 182.345803 76.1019 
L 182.525783 74.455178 
L 182.701393 74.455178 
L 182.872762 76.1019 
L 183.04001 73.631817 
L 183.203259 75.278539 
L 183.362624 74.455178 
L 183.518217 74.455178 
L 183.670147 76.1019 
L 183.81852 73.631817 
L 183.963438 75.278539 
L 184.105 73.631817 
L 184.378437 75.278539 
L 184.510496 74.455178 
L 184.639566 76.925261 
L 184.889075 75.278539 
L 185.009677 73.631817 
L 185.127613 73.631817 
L 185.242959 76.1019 
L 185.355788 73.631817 
L 185.57417 76.1019 
L 185.679858 76.1019 
L 185.783297 73.631817 
L 185.983674 76.1019 
L 186.080729 75.278539 
L 186.175773 75.278539 
L 186.268858 76.1019 
L 186.449367 75.278539 
L 186.622662 75.278539 
L 186.706724 74.455178 
L 186.789124 76.925261 
L 186.869906 73.631817 
L 186.949111 74.455178 
L 187.102961 75.278539 
L 187.177683 74.455178 
L 187.322914 75.278539 
L 187.393495 73.631817 
L 187.462765 74.455178 
L 187.597507 74.455178 
L 187.663043 76.1019 
L 187.727397 75.278539 
L 187.852676 75.278539 
L 187.913658 73.631817 
L 188.032442 76.1019 
L 188.203053 74.455178 
L 188.312032 76.1019 
L 188.365162 74.455178 
L 188.417413 75.278539 
L 188.569102 75.278539 
L 188.618043 74.455178 
L 188.666205 75.278539 
L 188.713604 75.278539 
L 188.76026 74.455178 
L 188.806188 75.278539 
L 188.851406 75.278539 
L 188.939774 76.1019 
L 189.067384 74.455178 
L 189.149332 75.278539 
L 189.189409 74.455178 
L 189.228906 75.278539 
L 189.344036 75.278539 
L 189.381332 74.455178 
L 189.418107 75.278539 
L 189.454372 76.1019 
L 189.490137 75.278539 
L 189.525414 74.455178 
L 189.594539 75.278539 
L 189.628408 75.278539 
L 189.661826 76.1019 
L 189.694804 75.278539 
L 189.822477 74.455178 
L 189.883888 76.1019 
L 189.943766 75.278539 
L 190.002168 76.1019 
L 190.030834 74.455178 
L 190.087127 76.1019 
L 190.16907 75.278539 
L 190.273918 75.278539 
L 190.299381 73.631817 
L 190.374055 74.455178 
L 190.42246 76.1019 
L 190.493096 75.278539 
L 190.605861 75.278539 
L 190.627707 74.455178 
L 190.6919 76.1019 
L 190.712862 75.278539 
L 190.733613 75.278539 
L 190.754154 74.455178 
L 190.774491 76.925261 
L 190.834302 75.278539 
L 190.85385 75.278539 
L 190.930179 74.455178 
L 191.021606 76.1019 
L 191.039387 75.278539 
L 191.057006 75.278539 
L 191.108912 76.925261 
L 191.142748 74.455178 
L 191.17599 76.1019 
L 191.224776 74.455178 
L 191.287899 75.278539 
L 191.303348 76.1019 
L 191.333862 74.455178 
L 191.393401 75.278539 
L 191.47918 75.278539 
L 191.587466 76.1019 
L 191.713991 71.985096 
L 191.808863 75.278539 
L 191.831767 74.455178 
L 191.887684 76.925261 
L 191.962909 76.1019 
L 192.084262 73.631817 
L 192.187911 76.1019 
L 192.197002 74.455178 
L 192.206041 73.631817 
L 192.241676 76.925261 
L 192.302116 74.455178 
L 192.352078 76.925261 
L 192.335607 73.631817 
L 192.416214 75.278539 
L 192.424041 75.278539 
L 192.507498 76.925261 
L 192.529457 75.278539 
L 192.551088 75.278539 
L 192.586433 76.1019 
L 192.66124 74.455178 
L 192.725958 76.925261 
L 192.769526 75.278539 
L 192.775639 75.278539 
L 192.852697 74.455178 
L 192.81175 76.1019 
L 192.875545 75.278539 
L 192.957875 76.925261 
L 192.914608 73.631817 
L 192.978982 74.455178 
L 193.045278 73.631817 
L 193.015106 76.1019 
L 193.084419 74.455178 
L 193.194938 76.925261 
L 193.199333 75.278539 
L 193.212422 75.278539 
L 193.229654 73.631817 
L 193.263387 76.925261 
L 193.320184 75.278539 
L 193.362931 76.925261 
L 193.328076 74.455178 
L 193.429577 75.278539 
L 193.51261 74.455178 
L 193.499205 76.925261 
L 193.538926 75.278539 
L 193.54217 75.278539 
L 193.611113 76.925261 
L 193.558243 74.455178 
L 193.652702 75.278539 
L 193.670016 75.278539 
L 193.773146 73.631817 
L 193.678562 76.1019 
L 193.775718 74.455178 
L 193.868563 76.925261 
L 193.859215 73.631817 
L 193.886976 75.278539 
L 193.891521 75.278539 
L 193.996192 73.631817 
L 193.977881 76.925261 
L 194.002211 75.278539 
L 194.0062 75.278539 
L 194.069438 73.631817 
L 194.050773 76.925261 
L 194.116077 75.278539 
L 194.119557 75.278539 
L 194.203501 73.631817 
L 194.156866 76.1019 
L 194.229589 75.278539 
L 194.25189 76.925261 
L 194.253353 73.631817 
L 194.302849 75.278539 
" clip-path="url(#pd90cc56a69)" style="fill: none; stroke: #1f77b4; stroke-width: 0.7; stroke-linecap: square"/>
   </g>
   <g id="line2d_16">
    <path d="M 39.797161 75.278539 
L 195.728127 75.278539 
" clip-path="url(#pd90cc56a69)" style="fill: none; stroke-dasharray: 2.59,1.12; stroke-dashoffset: 0; stroke: #000000; stroke-width: 0.7"/>
   </g>
   <g id="patch_3">
    <path d="M 37.829531 95.592396 
L 37.829531 17.759062 
" style="fill: none; stroke: #000000; stroke-width: 0.5; stroke-linejoin: miter; stroke-linecap: square"/>
   </g>
   <g id="patch_4">
    <path d="M 37.829531 95.592396 
L 197.695757 95.592396 
" style="fill: none; stroke: #000000; stroke-width: 0.5; stroke-linejoin: miter; stroke-linecap: square"/>
   </g>
   <g id="text_8">
    <!-- $I(X;R)$ difference -->
    <g transform="translate(92.652644 11.759062) scale(0.06 -0.06)">
     <defs>
      <path id="DejaVuSans-69" d="M 603 3500 
L 1178 3500 
L 1178 0 
L 603 0 
L 603 3500 
z
M 603 4863 
L 1178 4863 
L 1178 4134 
L 603 4134 
L 603 4863 
z
" transform="scale(0.015625)"/>
      <path id="DejaVuSans-72" d="M 2631 2963 
Q 2534 3019 2420 3045 
Q 2306 3072 2169 3072 
Q 1681 3072 1420 2755 
Q 1159 2438 1159 1844 
L 1159 0 
L 581 0 
L 581 3500 
L 1159 3500 
L 1159 2956 
Q 1341 3275 1631 3429 
Q 1922 3584 2338 3584 
Q 2397 3584 2469 3576 
Q 2541 3569 2628 3553 
L 2631 2963 
z
" transform="scale(0.015625)"/>
      <path id="DejaVuSans-63" d="M 3122 3366 
L 3122 2828 
Q 2878 2963 2633 3030 
Q 2388 3097 2138 3097 
Q 1578 3097 1268 2742 
Q 959 2388 959 1747 
Q 959 1106 1268 751 
Q 1578 397 2138 397 
Q 2388 397 2633 464 
Q 2878 531 3122 666 
L 3122 134 
Q 2881 22 2623 -34 
Q 2366 -91 2075 -91 
Q 1284 -91 818 406 
Q 353 903 353 1747 
Q 353 2603 823 3093 
Q 1294 3584 2113 3584 
Q 2378 3584 2631 3529 
Q 2884 3475 3122 3366 
z
" transform="scale(0.015625)"/>
     </defs>
     <use xlink:href="#DejaVuSans-Oblique-49" transform="translate(0 0.015625)"/>
     <use xlink:href="#DejaVuSans-28" transform="translate(29.492188 0.015625)"/>
     <use xlink:href="#DejaVuSans-Oblique-58" transform="translate(68.505859 0.015625)"/>
     <use xlink:href="#DejaVuSans-3b" transform="translate(137.011719 0.015625)"/>
     <use xlink:href="#DejaVuSans-Oblique-52" transform="translate(190.185547 0.015625)"/>
     <use xlink:href="#DejaVuSans-29" transform="translate(259.667969 0.015625)"/>
     <use xlink:href="#DejaVuSans-20" transform="translate(298.681641 0.015625)"/>
     <use xlink:href="#DejaVuSans-64" transform="translate(330.46875 0.015625)"/>
     <use xlink:href="#DejaVuSans-69" transform="translate(393.945312 0.015625)"/>
     <use xlink:href="#DejaVuSans-66" transform="translate(421.728516 0.015625)"/>
     <use xlink:href="#DejaVuSans-66" transform="translate(456.933594 0.015625)"/>
     <use xlink:href="#DejaVuSans-65" transform="translate(492.138672 0.015625)"/>
     <use xlink:href="#DejaVuSans-72" transform="translate(553.662109 0.015625)"/>
     <use xlink:href="#DejaVuSans-65" transform="translate(594.775391 0.015625)"/>
     <use xlink:href="#DejaVuSans-6e" transform="translate(656.298828 0.015625)"/>
     <use xlink:href="#DejaVuSans-63" transform="translate(719.677734 0.015625)"/>
     <use xlink:href="#DejaVuSans-65" transform="translate(774.658203 0.015625)"/>
    </g>
   </g>
  </g>
  <g id="axes_2">
   <g id="patch_5">
    <path d="M 37.829531 197.265729 
L 197.695757 197.265729 
L 197.695757 119.432396 
L 37.829531 119.432396 
z
" style="fill: #ffffff"/>
   </g>
   <g id="matplotlib.axis_3">
    <g id="xtick_10">
     <g id="line2d_17">
      <g>
       <use xlink:href="#m50e2dc7461" x="39.797161" y="197.265729" style="stroke: #000000; stroke-width: 0.5"/>
      </g>
     </g>
    </g>
    <g id="xtick_11">
     <g id="line2d_18">
      <g>
       <use xlink:href="#m50e2dc7461" x="59.473458" y="197.265729" style="stroke: #000000; stroke-width: 0.5"/>
      </g>
     </g>
    </g>
    <g id="xtick_12">
     <g id="line2d_19">
      <g>
       <use xlink:href="#m50e2dc7461" x="79.149755" y="197.265729" style="stroke: #000000; stroke-width: 0.5"/>
      </g>
     </g>
    </g>
    <g id="xtick_13">
     <g id="line2d_20">
      <g>
       <use xlink:href="#m50e2dc7461" x="98.826053" y="197.265729" style="stroke: #000000; stroke-width: 0.5"/>
      </g>
     </g>
    </g>
    <g id="xtick_14">
     <g id="line2d_21">
      <g>
       <use xlink:href="#m50e2dc7461" x="118.50235" y="197.265729" style="stroke: #000000; stroke-width: 0.5"/>
      </g>
     </g>
    </g>
    <g id="xtick_15">
     <g id="line2d_22">
      <g>
       <use xlink:href="#m50e2dc7461" x="138.178647" y="197.265729" style="stroke: #000000; stroke-width: 0.5"/>
      </g>
     </g>
    </g>
    <g id="xtick_16">
     <g id="line2d_23">
      <g>
       <use xlink:href="#m50e2dc7461" x="157.854944" y="197.265729" style="stroke: #000000; stroke-width: 0.5"/>
      </g>
     </g>
    </g>
    <g id="xtick_17">
     <g id="line2d_24">
      <g>
       <use xlink:href="#m50e2dc7461" x="177.531242" y="197.265729" style="stroke: #000000; stroke-width: 0.5"/>
      </g>
     </g>
    </g>
    <g id="xtick_18">
     <g id="line2d_25">
      <g>
       <use xlink:href="#m50e2dc7461" x="197.207539" y="197.265729" style="stroke: #000000; stroke-width: 0.5"/>
      </g>
     </g>
    </g>
   </g>
   <g id="matplotlib.axis_4">
    <g id="ytick_6">
     <g id="line2d_26">
      <g>
       <use xlink:href="#m8e4b1f364b" x="37.829531" y="188.730159" style="stroke: #000000; stroke-width: 0.5"/>
      </g>
     </g>
     <g id="text_9">
      <!-- −0.25 -->
      <g transform="translate(17.006875 190.629768) scale(0.05 -0.05)">
       <defs>
        <path id="DejaVuSans-32" d="M 1228 531 
L 3431 531 
L 3431 0 
L 469 0 
L 469 531 
Q 828 903 1448 1529 
Q 2069 2156 2228 2338 
Q 2531 2678 2651 2914 
Q 2772 3150 2772 3378 
Q 2772 3750 2511 3984 
Q 2250 4219 1831 4219 
Q 1534 4219 1204 4116 
Q 875 4013 500 3803 
L 500 4441 
Q 881 4594 1212 4672 
Q 1544 4750 1819 4750 
Q 2544 4750 2975 4387 
Q 3406 4025 3406 3419 
Q 3406 3131 3298 2873 
Q 3191 2616 2906 2266 
Q 2828 2175 2409 1742 
Q 1991 1309 1228 531 
z
" transform="scale(0.015625)"/>
       </defs>
       <use xlink:href="#DejaVuSans-2212"/>
       <use xlink:href="#DejaVuSans-30" x="83.789062"/>
       <use xlink:href="#DejaVuSans-2e" x="147.412109"/>
       <use xlink:href="#DejaVuSans-32" x="179.199219"/>
       <use xlink:href="#DejaVuSans-35" x="242.822266"/>
      </g>
     </g>
    </g>
    <g id="ytick_7">
     <g id="line2d_27">
      <g>
       <use xlink:href="#m8e4b1f364b" x="37.829531" y="177.129202" style="stroke: #000000; stroke-width: 0.5"/>
      </g>
     </g>
     <g id="text_10">
      <!-- 0.00 -->
      <g transform="translate(21.196719 179.028811) scale(0.05 -0.05)">
       <use xlink:href="#DejaVuSans-30"/>
       <use xlink:href="#DejaVuSans-2e" x="63.623047"/>
       <use xlink:href="#DejaVuSans-30" x="95.410156"/>
       <use xlink:href="#DejaVuSans-30" x="159.033203"/>
      </g>
     </g>
    </g>
    <g id="ytick_8">
     <g id="line2d_28">
      <g>
       <use xlink:href="#m8e4b1f364b" x="37.829531" y="165.528245" style="stroke: #000000; stroke-width: 0.5"/>
      </g>
     </g>
     <g id="text_11">
      <!-- 0.25 -->
      <g transform="translate(21.196719 167.427854) scale(0.05 -0.05)">
       <use xlink:href="#DejaVuSans-30"/>
       <use xlink:href="#DejaVuSans-2e" x="63.623047"/>
       <use xlink:href="#DejaVuSans-32" x="95.410156"/>
       <use xlink:href="#DejaVuSans-35" x="159.033203"/>
      </g>
     </g>
    </g>
    <g id="ytick_9">
     <g id="line2d_29">
      <g>
       <use xlink:href="#m8e4b1f364b" x="37.829531" y="153.927287" style="stroke: #000000; stroke-width: 0.5"/>
      </g>
     </g>
     <g id="text_12">
      <!-- 0.50 -->
      <g transform="translate(21.196719 155.826897) scale(0.05 -0.05)">
       <use xlink:href="#DejaVuSans-30"/>
       <use xlink:href="#DejaVuSans-2e" x="63.623047"/>
       <use xlink:href="#DejaVuSans-35" x="95.410156"/>
       <use xlink:href="#DejaVuSans-30" x="159.033203"/>
      </g>
     </g>
    </g>
    <g id="ytick_10">
     <g id="line2d_30">
      <g>
       <use xlink:href="#m8e4b1f364b" x="37.829531" y="142.32633" style="stroke: #000000; stroke-width: 0.5"/>
      </g>
     </g>
     <g id="text_13">
      <!-- 0.75 -->
      <g transform="translate(21.196719 144.22594) scale(0.05 -0.05)">
       <defs>
        <path id="DejaVuSans-37" d="M 525 4666 
L 3525 4666 
L 3525 4397 
L 1831 0 
L 1172 0 
L 2766 4134 
L 525 4134 
L 525 4666 
z
" transform="scale(0.015625)"/>
       </defs>
       <use xlink:href="#DejaVuSans-30"/>
       <use xlink:href="#DejaVuSans-2e" x="63.623047"/>
       <use xlink:href="#DejaVuSans-37" x="95.410156"/>
       <use xlink:href="#DejaVuSans-35" x="159.033203"/>
      </g>
     </g>
    </g>
    <g id="ytick_11">
     <g id="line2d_31">
      <g>
       <use xlink:href="#m8e4b1f364b" x="37.829531" y="130.725373" style="stroke: #000000; stroke-width: 0.5"/>
      </g>
     </g>
     <g id="text_14">
      <!-- 1.00 -->
      <g transform="translate(21.196719 132.624983) scale(0.05 -0.05)">
       <use xlink:href="#DejaVuSans-31"/>
       <use xlink:href="#DejaVuSans-2e" x="63.623047"/>
       <use xlink:href="#DejaVuSans-30" x="95.410156"/>
       <use xlink:href="#DejaVuSans-30" x="159.033203"/>
      </g>
     </g>
    </g>
    <g id="text_15">
     <!-- $\Delta I(R;Y)$ (softmax-IB bound) -->
     <g transform="translate(11.759062 199.029062) rotate(-90) scale(0.06 -0.06)">
      <defs>
       <path id="DejaVuSans-Oblique-59" d="M 403 4666 
L 1081 4666 
L 1953 2747 
L 3616 4666 
L 4325 4666 
L 2209 2222 
L 1778 0 
L 1147 0 
L 1575 2222 
L 403 4666 
z
" transform="scale(0.015625)"/>
      </defs>
      <use xlink:href="#DejaVuSans-394" transform="translate(0 0.015625)"/>
      <use xlink:href="#DejaVuSans-Oblique-49" transform="translate(68.408203 0.015625)"/>
      <use xlink:href="#DejaVuSans-28" transform="translate(97.900391 0.015625)"/>
      <use xlink:href="#DejaVuSans-Oblique-52" transform="translate(136.914062 0.015625)"/>
      <use xlink:href="#DejaVuSans-3b" transform="translate(206.396484 0.015625)"/>
      <use xlink:href="#DejaVuSans-Oblique-59" transform="translate(259.570312 0.015625)"/>
      <use xlink:href="#DejaVuSans-29" transform="translate(320.654297 0.015625)"/>
      <use xlink:href="#DejaVuSans-20" transform="translate(359.667969 0.015625)"/>
      <use xlink:href="#DejaVuSans-28" transform="translate(391.455078 0.015625)"/>
      <use xlink:href="#DejaVuSans-73" transform="translate(430.46875 0.015625)"/>
      <use xlink:href="#DejaVuSans-6f" transform="translate(482.568359 0.015625)"/>
      <use xlink:href="#DejaVuSans-66" transform="translate(543.75 0.015625)"/>
      <use xlink:href="#DejaVuSans-74" transform="translate(578.955078 0.015625)"/>
      <use xlink:href="#DejaVuSans-6d" transform="translate(618.164062 0.015625)"/>
      <use xlink:href="#DejaVuSans-61" transform="translate(715.576172 0.015625)"/>
      <use xlink:href="#DejaVuSans-78" transform="translate(776.855469 0.015625)"/>
      <use xlink:href="#DejaVuSans-2d" transform="translate(836.035156 0.015625)"/>
      <use xlink:href="#DejaVuSans-49" transform="translate(872.119141 0.015625)"/>
      <use xlink:href="#DejaVuSans-42" transform="translate(901.611328 0.015625)"/>
      <use xlink:href="#DejaVuSans-20" transform="translate(970.214844 0.015625)"/>
      <use xlink:href="#DejaVuSans-62" transform="translate(1002.001953 0.015625)"/>
      <use xlink:href="#DejaVuSans-6f" transform="translate(1065.478516 0.015625)"/>
      <use xlink:href="#DejaVuSans-75" transform="translate(1126.660156 0.015625)"/>
      <use xlink:href="#DejaVuSans-6e" transform="translate(1190.039062 0.015625)"/>
      <use xlink:href="#DejaVuSans-64" transform="translate(1253.417969 0.015625)"/>
      <use xlink:href="#DejaVuSans-29" transform="translate(1316.894531 0.015625)"/>
     </g>
    </g>
    <g id="text_16">
     <!-- 1e−14 -->
     <g transform="translate(37.829531 116.432396) scale(0.05 -0.05)">
      <use xlink:href="#DejaVuSans-31"/>
      <use xlink:href="#DejaVuSans-65" x="63.623047"/>
      <use xlink:href="#DejaVuSans-2212" x="125.146484"/>
      <use xlink:href="#DejaVuSans-31" x="208.935547"/>
      <use xlink:href="#DejaVuSans-34" x="272.558594"/>
     </g>
    </g>
   </g>
   <g id="line2d_32">
    <path d="M 39.826994 169.777739 
L 39.917588 179.254344 
L 40.070475 166.89793 
L 40.287041 162.784492 
L 40.568509 164.346149 
L 40.915932 178.433266 
L 41.330182 154.01023 
L 41.811937 193.72785 
L 42.361683 180.091521 
L 42.979699 175.197254 
L 43.666055 145.606259 
L 44.420612 148.50418 
L 45.243013 161.899016 
L 46.132692 184.438403 
L 47.088865 175.293852 
L 48.110542 122.970275 
L 49.196525 161.351631 
L 50.345419 137.717474 
L 51.555633 138.168261 
L 52.825396 168.564235 
L 54.152761 156.779355 
L 55.535619 184.856992 
L 56.971713 148.793972 
L 58.458645 142.225351 
L 59.993897 171.204563 
L 61.574839 151.627495 
L 63.198748 136.171916 
L 64.862821 179.318742 
L 66.564191 170.56058 
L 68.299943 163.476773 
L 70.067124 159.741675 
L 71.862766 177.644388 
L 73.683891 169.143819 
L 75.527532 163.734366 
L 77.390742 164.249552 
L 79.270607 186.917736 
L 81.164258 172.750121 
L 83.068882 175.068458 
L 84.981729 176.09883 
L 86.900125 174.553272 
L 88.821477 168.886226 
L 90.743279 175.583644 
L 92.663122 170.174191 
L 94.578695 177.129202 
L 96.487791 170.174191 
L 98.38831 180.993097 
L 100.278261 177.129202 
L 102.155766 169.143819 
L 104.019057 166.310296 
L 105.86648 165.279924 
L 107.69649 179.705132 
L 109.507658 179.189946 
L 111.298659 177.129202 
L 113.068281 177.644388 
L 114.815413 184.341806 
L 116.539049 176.09883 
L 118.238281 173.007714 
L 121.560387 182.281062 
L 123.181913 167.855854 
L 124.776335 172.492528 
L 126.343191 177.644388 
L 127.882097 184.341806 
L 129.392742 179.189946 
L 130.874885 174.553272 
L 132.328349 177.129202 
L 133.753022 175.068458 
L 135.148845 174.038086 
L 136.515818 174.038086 
L 137.853988 175.583644 
L 139.163449 180.220318 
L 140.444338 181.765876 
L 141.696834 177.129202 
L 142.92115 177.644388 
L 144.117534 176.09883 
L 145.286262 179.705132 
L 146.42764 176.09883 
L 147.541999 177.129202 
L 148.629691 173.007714 
L 149.691088 179.705132 
L 150.726581 175.068458 
L 151.736574 176.09883 
L 152.721486 188.463294 
L 153.681748 175.068458 
L 154.6178 177.644388 
L 155.530089 173.007714 
L 156.419071 176.614016 
L 157.285204 183.82662 
L 158.128952 176.614016 
L 158.950781 177.129202 
L 159.751158 176.614016 
L 160.530551 172.492528 
L 161.289425 171.977342 
L 162.028246 175.068458 
L 162.747478 175.068458 
L 163.447579 178.159574 
L 164.129006 175.583644 
L 164.79221 178.159574 
L 165.437639 178.159574 
L 166.065733 176.614016 
L 166.676928 179.705132 
L 167.271654 176.09883 
L 167.850334 177.129202 
L 168.413384 177.129202 
L 169.494224 175.068458 
L 170.01281 176.09883 
L 170.51736 178.159574 
L 171.008251 177.129202 
L 171.485856 177.129202 
L 171.950539 176.09883 
L 172.402656 176.09883 
L 172.842555 176.614016 
L 173.270575 176.09883 
L 173.687051 177.129202 
L 174.092305 179.705132 
L 174.486654 177.129202 
L 174.870409 175.583644 
L 175.243869 177.129202 
L 175.60733 176.09883 
L 175.961077 177.129202 
L 176.640538 176.09883 
L 176.966789 178.159574 
L 177.284398 177.644388 
L 177.593617 178.159574 
L 177.894689 177.129202 
L 178.18785 179.189946 
L 178.473333 177.129202 
L 178.751359 176.614016 
L 179.022148 177.129202 
L 179.285911 179.189946 
L 179.542853 176.09883 
L 179.793173 177.129202 
L 180.037067 176.09883 
L 180.274722 176.09883 
L 180.50632 178.159574 
L 180.952054 178.159574 
L 181.166528 176.09883 
L 181.375625 176.09883 
L 181.579503 177.644388 
L 181.778313 178.159574 
L 182.161322 176.614016 
L 182.345803 178.159574 
L 182.525783 177.129202 
L 182.701393 175.068458 
L 182.872762 177.644388 
L 183.04001 176.09883 
L 183.203259 178.67476 
L 183.362624 177.129202 
L 183.518217 178.159574 
L 183.670147 176.614016 
L 183.81852 177.644388 
L 183.963438 177.129202 
L 184.105 175.068458 
L 184.378437 177.129202 
L 184.510496 176.09883 
L 184.765732 178.67476 
L 185.009677 175.583644 
L 185.466169 180.220318 
L 185.679858 177.129202 
L 185.783297 175.583644 
L 185.983674 178.159574 
L 186.080729 178.159574 
L 186.175773 177.644388 
L 186.268858 178.159574 
L 186.360039 177.129202 
L 186.449367 178.67476 
L 186.706724 175.068458 
L 186.789124 178.67476 
L 186.869906 175.068458 
L 186.949111 175.583644 
L 187.026783 175.068458 
L 187.102961 177.129202 
L 187.177683 176.09883 
L 187.250989 177.644388 
L 187.462765 176.09883 
L 187.663043 177.644388 
L 187.727397 178.159574 
L 187.790598 176.614016 
L 187.852676 177.644388 
L 187.973571 176.09883 
L 188.147159 177.644388 
L 188.258004 176.09883 
L 188.312032 179.189946 
L 188.365162 178.159574 
L 188.417413 178.159574 
L 188.468806 176.09883 
L 188.519363 177.129202 
L 188.569102 178.159574 
L 188.618043 177.644388 
L 188.666205 176.614016 
L 188.713604 177.644388 
L 188.851406 177.129202 
L 188.895929 178.67476 
L 188.939774 177.644388 
L 189.067384 176.09883 
L 189.149332 178.67476 
L 189.306207 175.583644 
L 189.344036 179.189946 
L 189.418107 176.614016 
L 189.454372 178.67476 
L 189.525414 176.614016 
L 189.560211 176.614016 
L 189.661826 179.189946 
L 189.694804 177.644388 
L 189.727349 176.09883 
L 189.791178 178.159574 
L 189.853378 177.129202 
L 189.914015 177.644388 
L 189.943766 178.159574 
L 190.002168 179.189946 
L 190.030834 174.038086 
L 190.059151 180.220318 
L 190.14208 177.129202 
L 190.195743 176.09883 
L 190.248161 177.129202 
L 190.273918 177.129202 
L 190.349444 175.583644 
L 190.324554 178.159574 
L 190.374055 177.129202 
L 190.398392 177.129202 
L 190.493096 179.189946 
L 190.516134 177.644388 
L 190.605861 176.614016 
L 190.670723 178.67476 
L 190.712862 176.614016 
L 190.774491 178.159574 
L 190.834302 177.129202 
L 190.85385 176.09883 
L 190.930179 176.614016 
L 191.021606 178.67476 
L 191.039387 176.614016 
L 191.057006 175.583644 
L 191.074465 178.159574 
L 191.125906 176.09883 
L 191.142748 178.159574 
L 191.192394 175.068458 
L 191.240759 177.129202 
L 191.333862 176.09883 
L 191.348931 177.129202 
L 191.363876 177.129202 
L 191.378699 175.583644 
L 191.407985 178.67476 
L 191.47918 176.09883 
L 191.561014 179.189946 
L 191.587466 177.644388 
L 191.713991 170.94697 
L 191.785641 178.67476 
L 191.831767 178.159574 
L 191.920347 175.583644 
L 191.85436 179.189946 
L 191.952373 176.614016 
L 192.004386 179.189946 
L 191.994116 175.068458 
L 192.044822 176.614016 
L 192.084262 174.038086 
L 192.093972 178.159574 
L 192.132224 177.644388 
L 192.141643 179.189946 
L 192.151007 175.583644 
L 192.232844 178.159574 
L 192.250457 179.189946 
L 192.343865 174.038086 
L 192.447275 179.705132 
L 192.462564 178.159574 
L 192.558227 174.038086 
L 192.572399 176.09883 
L 192.667848 178.67476 
L 192.647929 175.583644 
L 192.693974 178.159574 
L 192.713253 178.159574 
L 192.732267 173.5229 
L 192.725958 179.189946 
L 192.829452 177.129202 
L 192.920095 179.189946 
L 192.852697 176.09883 
L 192.936421 177.644388 
L 193.015106 176.09883 
L 192.999749 179.189946 
L 193.0353 177.129202 
L 193.127036 180.220318 
L 193.055178 175.068458 
L 193.145515 177.129202 
L 193.150092 177.129202 
L 193.229654 174.553272 
L 193.208075 180.220318 
L 193.255043 177.129202 
L 193.271671 180.220318 
L 193.328076 175.068458 
L 193.366739 178.159574 
L 193.440308 175.583644 
L 193.396749 179.189946 
L 193.47878 177.129202 
L 193.548628 179.189946 
L 193.561428 175.583644 
L 193.586568 177.129202 
L 193.681395 174.553272 
L 193.664278 180.220318 
L 193.695438 176.09883 
L 193.765391 179.189946 
L 193.798552 175.068458 
L 193.808527 178.159574 
L 193.84023 173.007714 
L 193.868563 180.735504 
L 193.92052 177.129202 
L 193.929257 178.67476 
L 194.029748 175.068458 
L 194.107313 179.705132 
L 194.141813 176.09883 
L 194.232601 180.220318 
L 194.247482 175.068458 
L 194.253353 177.129202 
L 194.254814 177.129202 
L 194.30148 178.159574 
L 194.260629 176.09883 
L 194.302849 177.129202 
" clip-path="url(#pdd8d4a1b46)" style="fill: none; stroke: #1f77b4; stroke-width: 0.7; stroke-linecap: square"/>
   </g>
   <g id="line2d_33">
    <path d="M 39.797161 177.129202 
L 195.728127 177.129202 
" clip-path="url(#pdd8d4a1b46)" style="fill: none; stroke-dasharray: 2.59,1.12; stroke-dashoffset: 0; stroke: #000000; stroke-width: 0.7"/>
   </g>
   <g id="patch_6">
    <path d="M 37.829531 197.265729 
L 37.829531 119.432396 
" style="fill: none; stroke: #000000; stroke-width: 0.5; stroke-linejoin: miter; stroke-linecap: square"/>
   </g>
   <g id="patch_7">
    <path d="M 37.829531 197.265729 
L 197.695757 197.265729 
" style="fill: none; stroke: #000000; stroke-width: 0.5; stroke-linejoin: miter; stroke-linecap: square"/>
   </g>
   <g id="text_17">
    <!-- $I(R;Y)$ difference -->
    <g transform="translate(92.892644 113.432396) scale(0.06 -0.06)">
     <use xlink:href="#DejaVuSans-Oblique-49" transform="translate(0 0.015625)"/>
     <use xlink:href="#DejaVuSans-28" transform="translate(29.492188 0.015625)"/>
     <use xlink:href="#DejaVuSans-Oblique-52" transform="translate(68.505859 0.015625)"/>
     <use xlink:href="#DejaVuSans-3b" transform="translate(137.988281 0.015625)"/>
     <use xlink:href="#DejaVuSans-Oblique-59" transform="translate(191.162109 0.015625)"/>
     <use xlink:href="#DejaVuSans-29" transform="translate(252.246094 0.015625)"/>
     <use xlink:href="#DejaVuSans-20" transform="translate(291.259766 0.015625)"/>
     <use xlink:href="#DejaVuSans-64" transform="translate(323.046875 0.015625)"/>
     <use xlink:href="#DejaVuSans-69" transform="translate(386.523438 0.015625)"/>
     <use xlink:href="#DejaVuSans-66" transform="translate(414.306641 0.015625)"/>
     <use xlink:href="#DejaVuSans-66" transform="translate(449.511719 0.015625)"/>
     <use xlink:href="#DejaVuSans-65" transform="translate(484.716797 0.015625)"/>
     <use xlink:href="#DejaVuSans-72" transform="translate(546.240234 0.015625)"/>
     <use xlink:href="#DejaVuSans-65" transform="translate(587.353516 0.015625)"/>
     <use xlink:href="#DejaVuSans-6e" transform="translate(648.876953 0.015625)"/>
     <use xlink:href="#DejaVuSans-63" transform="translate(712.255859 0.015625)"/>
     <use xlink:href="#DejaVuSans-65" transform="translate(767.236328 0.015625)"/>
    </g>
   </g>
  </g>
  <g id="axes_3">
   <g id="patch_8">
    <path d="M 37.829531 298.939062 
L 197.695757 298.939062 
L 197.695757 221.105729 
L 37.829531 221.105729 
z
" style="fill: #ffffff"/>
   </g>
   <g id="matplotlib.axis_5">
    <g id="xtick_19">
     <g id="line2d_34">
      <g>
       <use xlink:href="#m50e2dc7461" x="39.797161" y="298.939062" style="stroke: #000000; stroke-width: 0.5"/>
      </g>
     </g>
     <g id="text_18">
      <!-- 0.0 -->
      <g transform="translate(35.82138 308.238281) scale(0.05 -0.05)">
       <use xlink:href="#DejaVuSans-30"/>
       <use xlink:href="#DejaVuSans-2e" x="63.623047"/>
       <use xlink:href="#DejaVuSans-30" x="95.410156"/>
      </g>
     </g>
    </g>
    <g id="xtick_20">
     <g id="line2d_35">
      <g>
       <use xlink:href="#m50e2dc7461" x="59.473458" y="298.939062" style="stroke: #000000; stroke-width: 0.5"/>
      </g>
     </g>
     <g id="text_19">
      <!-- 0.2 -->
      <g transform="translate(55.497677 308.238281) scale(0.05 -0.05)">
       <use xlink:href="#DejaVuSans-30"/>
       <use xlink:href="#DejaVuSans-2e" x="63.623047"/>
       <use xlink:href="#DejaVuSans-32" x="95.410156"/>
      </g>
     </g>
    </g>
    <g id="xtick_21">
     <g id="line2d_36">
      <g>
       <use xlink:href="#m50e2dc7461" x="79.149755" y="298.939062" style="stroke: #000000; stroke-width: 0.5"/>
      </g>
     </g>
     <g id="text_20">
      <!-- 0.4 -->
      <g transform="translate(75.173974 308.238281) scale(0.05 -0.05)">
       <use xlink:href="#DejaVuSans-30"/>
       <use xlink:href="#DejaVuSans-2e" x="63.623047"/>
       <use xlink:href="#DejaVuSans-34" x="95.410156"/>
      </g>
     </g>
    </g>
    <g id="xtick_22">
     <g id="line2d_37">
      <g>
       <use xlink:href="#m50e2dc7461" x="98.826053" y="298.939062" style="stroke: #000000; stroke-width: 0.5"/>
      </g>
     </g>
     <g id="text_21">
      <!-- 0.6 -->
      <g transform="translate(94.850271 308.238281) scale(0.05 -0.05)">
       <defs>
        <path id="DejaVuSans-36" d="M 2113 2584 
Q 1688 2584 1439 2293 
Q 1191 2003 1191 1497 
Q 1191 994 1439 701 
Q 1688 409 2113 409 
Q 2538 409 2786 701 
Q 3034 994 3034 1497 
Q 3034 2003 2786 2293 
Q 2538 2584 2113 2584 
z
M 3366 4563 
L 3366 3988 
Q 3128 4100 2886 4159 
Q 2644 4219 2406 4219 
Q 1781 4219 1451 3797 
Q 1122 3375 1075 2522 
Q 1259 2794 1537 2939 
Q 1816 3084 2150 3084 
Q 2853 3084 3261 2657 
Q 3669 2231 3669 1497 
Q 3669 778 3244 343 
Q 2819 -91 2113 -91 
Q 1303 -91 875 529 
Q 447 1150 447 2328 
Q 447 3434 972 4092 
Q 1497 4750 2381 4750 
Q 2619 4750 2861 4703 
Q 3103 4656 3366 4563 
z
" transform="scale(0.015625)"/>
       </defs>
       <use xlink:href="#DejaVuSans-30"/>
       <use xlink:href="#DejaVuSans-2e" x="63.623047"/>
       <use xlink:href="#DejaVuSans-36" x="95.410156"/>
      </g>
     </g>
    </g>
    <g id="xtick_23">
     <g id="line2d_38">
      <g>
       <use xlink:href="#m50e2dc7461" x="118.50235" y="298.939062" style="stroke: #000000; stroke-width: 0.5"/>
      </g>
     </g>
     <g id="text_22">
      <!-- 0.8 -->
      <g transform="translate(114.526569 308.238281) scale(0.05 -0.05)">
       <defs>
        <path id="DejaVuSans-38" d="M 2034 2216 
Q 1584 2216 1326 1975 
Q 1069 1734 1069 1313 
Q 1069 891 1326 650 
Q 1584 409 2034 409 
Q 2484 409 2743 651 
Q 3003 894 3003 1313 
Q 3003 1734 2745 1975 
Q 2488 2216 2034 2216 
z
M 1403 2484 
Q 997 2584 770 2862 
Q 544 3141 544 3541 
Q 544 4100 942 4425 
Q 1341 4750 2034 4750 
Q 2731 4750 3128 4425 
Q 3525 4100 3525 3541 
Q 3525 3141 3298 2862 
Q 3072 2584 2669 2484 
Q 3125 2378 3379 2068 
Q 3634 1759 3634 1313 
Q 3634 634 3220 271 
Q 2806 -91 2034 -91 
Q 1263 -91 848 271 
Q 434 634 434 1313 
Q 434 1759 690 2068 
Q 947 2378 1403 2484 
z
M 1172 3481 
Q 1172 3119 1398 2916 
Q 1625 2713 2034 2713 
Q 2441 2713 2670 2916 
Q 2900 3119 2900 3481 
Q 2900 3844 2670 4047 
Q 2441 4250 2034 4250 
Q 1625 4250 1398 4047 
Q 1172 3844 1172 3481 
z
" transform="scale(0.015625)"/>
       </defs>
       <use xlink:href="#DejaVuSans-30"/>
       <use xlink:href="#DejaVuSans-2e" x="63.623047"/>
       <use xlink:href="#DejaVuSans-38" x="95.410156"/>
      </g>
     </g>
    </g>
    <g id="xtick_24">
     <g id="line2d_39">
      <g>
       <use xlink:href="#m50e2dc7461" x="138.178647" y="298.939062" style="stroke: #000000; stroke-width: 0.5"/>
      </g>
     </g>
     <g id="text_23">
      <!-- 1.0 -->
      <g transform="translate(134.202866 308.238281) scale(0.05 -0.05)">
       <use xlink:href="#DejaVuSans-31"/>
       <use xlink:href="#DejaVuSans-2e" x="63.623047"/>
       <use xlink:href="#DejaVuSans-30" x="95.410156"/>
      </g>
     </g>
    </g>
    <g id="xtick_25">
     <g id="line2d_40">
      <g>
       <use xlink:href="#m50e2dc7461" x="157.854944" y="298.939062" style="stroke: #000000; stroke-width: 0.5"/>
      </g>
     </g>
     <g id="text_24">
      <!-- 1.2 -->
      <g transform="translate(153.879163 308.238281) scale(0.05 -0.05)">
       <use xlink:href="#DejaVuSans-31"/>
       <use xlink:href="#DejaVuSans-2e" x="63.623047"/>
       <use xlink:href="#DejaVuSans-32" x="95.410156"/>
      </g>
     </g>
    </g>
    <g id="xtick_26">
     <g id="line2d_41">
      <g>
       <use xlink:href="#m50e2dc7461" x="177.531242" y="298.939062" style="stroke: #000000; stroke-width: 0.5"/>
      </g>
     </g>
     <g id="text_25">
      <!-- 1.4 -->
      <g transform="translate(173.55546 308.238281) scale(0.05 -0.05)">
       <use xlink:href="#DejaVuSans-31"/>
       <use xlink:href="#DejaVuSans-2e" x="63.623047"/>
       <use xlink:href="#DejaVuSans-34" x="95.410156"/>
      </g>
     </g>
    </g>
    <g id="xtick_27">
     <g id="line2d_42">
      <g>
       <use xlink:href="#m50e2dc7461" x="197.207539" y="298.939062" style="stroke: #000000; stroke-width: 0.5"/>
      </g>
     </g>
     <g id="text_26">
      <!-- 1.6 -->
      <g transform="translate(193.231758 308.238281) scale(0.05 -0.05)">
       <use xlink:href="#DejaVuSans-31"/>
       <use xlink:href="#DejaVuSans-2e" x="63.623047"/>
       <use xlink:href="#DejaVuSans-36" x="95.410156"/>
      </g>
     </g>
    </g>
   </g>
   <g id="matplotlib.axis_6">
    <g id="ytick_12">
     <g id="line2d_43">
      <g>
       <use xlink:href="#m8e4b1f364b" x="37.829531" y="295.401184" style="stroke: #000000; stroke-width: 0.5"/>
      </g>
     </g>
     <g id="text_27">
      <!-- 0.0 -->
      <g transform="translate(24.377969 297.300793) scale(0.05 -0.05)">
       <use xlink:href="#DejaVuSans-30"/>
       <use xlink:href="#DejaVuSans-2e" x="63.623047"/>
       <use xlink:href="#DejaVuSans-30" x="95.410156"/>
      </g>
     </g>
    </g>
    <g id="ytick_13">
     <g id="line2d_44">
      <g>
       <use xlink:href="#m8e4b1f364b" x="37.829531" y="283.001814" style="stroke: #000000; stroke-width: 0.5"/>
      </g>
     </g>
     <g id="text_28">
      <!-- 0.5 -->
      <g transform="translate(24.377969 284.901424) scale(0.05 -0.05)">
       <use xlink:href="#DejaVuSans-30"/>
       <use xlink:href="#DejaVuSans-2e" x="63.623047"/>
       <use xlink:href="#DejaVuSans-35" x="95.410156"/>
      </g>
     </g>
    </g>
    <g id="ytick_14">
     <g id="line2d_45">
      <g>
       <use xlink:href="#m8e4b1f364b" x="37.829531" y="270.602445" style="stroke: #000000; stroke-width: 0.5"/>
      </g>
     </g>
     <g id="text_29">
      <!-- 1.0 -->
      <g transform="translate(24.377969 272.502054) scale(0.05 -0.05)">
       <use xlink:href="#DejaVuSans-31"/>
       <use xlink:href="#DejaVuSans-2e" x="63.623047"/>
       <use xlink:href="#DejaVuSans-30" x="95.410156"/>
      </g>
     </g>
    </g>
    <g id="ytick_15">
     <g id="line2d_46">
      <g>
       <use xlink:href="#m8e4b1f364b" x="37.829531" y="258.203076" style="stroke: #000000; stroke-width: 0.5"/>
      </g>
     </g>
     <g id="text_30">
      <!-- 1.5 -->
      <g transform="translate(24.377969 260.102685) scale(0.05 -0.05)">
       <use xlink:href="#DejaVuSans-31"/>
       <use xlink:href="#DejaVuSans-2e" x="63.623047"/>
       <use xlink:href="#DejaVuSans-35" x="95.410156"/>
      </g>
     </g>
    </g>
    <g id="ytick_16">
     <g id="line2d_47">
      <g>
       <use xlink:href="#m8e4b1f364b" x="37.829531" y="245.803706" style="stroke: #000000; stroke-width: 0.5"/>
      </g>
     </g>
     <g id="text_31">
      <!-- 2.0 -->
      <g transform="translate(24.377969 247.703316) scale(0.05 -0.05)">
       <use xlink:href="#DejaVuSans-32"/>
       <use xlink:href="#DejaVuSans-2e" x="63.623047"/>
       <use xlink:href="#DejaVuSans-30" x="95.410156"/>
      </g>
     </g>
    </g>
    <g id="ytick_17">
     <g id="line2d_48">
      <g>
       <use xlink:href="#m8e4b1f364b" x="37.829531" y="233.404337" style="stroke: #000000; stroke-width: 0.5"/>
      </g>
     </g>
     <g id="text_32">
      <!-- 2.5 -->
      <g transform="translate(24.377969 235.303946) scale(0.05 -0.05)">
       <use xlink:href="#DejaVuSans-32"/>
       <use xlink:href="#DejaVuSans-2e" x="63.623047"/>
       <use xlink:href="#DejaVuSans-35" x="95.410156"/>
      </g>
     </g>
    </g>
    <g id="text_33">
     <!-- max $\Delta p(r|x)$ (softmax-IB bound) -->
     <g transform="translate(18.937969 307.722396) rotate(-90) scale(0.06 -0.06)">
      <defs>
       <path id="DejaVuSans-Oblique-70" d="M 3175 2156 
Q 3175 2616 2975 2859 
Q 2775 3103 2400 3103 
Q 2144 3103 1911 2972 
Q 1678 2841 1497 2591 
Q 1319 2344 1212 1994 
Q 1106 1644 1106 1300 
Q 1106 863 1306 627 
Q 1506 391 1875 391 
Q 2147 391 2380 519 
Q 2613 647 2778 891 
Q 2956 1147 3065 1494 
Q 3175 1841 3175 2156 
z
M 1394 2969 
Q 1625 3272 1939 3428 
Q 2253 3584 2638 3584 
Q 3175 3584 3472 3232 
Q 3769 2881 3769 2247 
Q 3769 1728 3584 1258 
Q 3400 788 3053 416 
Q 2822 169 2531 39 
Q 2241 -91 1919 -91 
Q 1547 -91 1294 64 
Q 1041 219 916 525 
L 556 -1331 
L -19 -1331 
L 922 3500 
L 1497 3500 
L 1394 2969 
z
" transform="scale(0.015625)"/>
       <path id="DejaVuSans-Oblique-72" d="M 2853 2969 
Q 2766 3016 2653 3041 
Q 2541 3066 2413 3066 
Q 1953 3066 1609 2717 
Q 1266 2369 1153 1784 
L 800 0 
L 225 0 
L 909 3500 
L 1484 3500 
L 1375 2956 
Q 1603 3259 1920 3421 
Q 2238 3584 2597 3584 
Q 2691 3584 2781 3573 
Q 2872 3563 2963 3538 
L 2853 2969 
z
" transform="scale(0.015625)"/>
       <path id="DejaVuSans-7c" d="M 1344 4891 
L 1344 -1509 
L 813 -1509 
L 813 4891 
L 1344 4891 
z
" transform="scale(0.015625)"/>
       <path id="DejaVuSans-Oblique-78" d="M 3841 3500 
L 2234 1784 
L 3219 0 
L 2559 0 
L 1819 1388 
L 531 0 
L -166 0 
L 1556 1844 
L 641 3500 
L 1300 3500 
L 1972 2234 
L 3144 3500 
L 3841 3500 
z
" transform="scale(0.015625)"/>
      </defs>
      <use xlink:href="#DejaVuSans-6d" transform="translate(0 0.578125)"/>
      <use xlink:href="#DejaVuSans-61" transform="translate(97.412109 0.578125)"/>
      <use xlink:href="#DejaVuSans-78" transform="translate(158.691406 0.578125)"/>
      <use xlink:href="#DejaVuSans-20" transform="translate(217.871094 0.578125)"/>
      <use xlink:href="#DejaVuSans-394" transform="translate(249.658203 0.578125)"/>
      <use xlink:href="#DejaVuSans-Oblique-70" transform="translate(318.066406 0.578125)"/>
      <use xlink:href="#DejaVuSans-28" transform="translate(381.542969 0.578125)"/>
      <use xlink:href="#DejaVuSans-Oblique-72" transform="translate(420.556641 0.578125)"/>
      <use xlink:href="#DejaVuSans-7c" transform="translate(461.669922 0.578125)"/>
      <use xlink:href="#DejaVuSans-Oblique-78" transform="translate(495.361328 0.578125)"/>
      <use xlink:href="#DejaVuSans-29" transform="translate(554.541016 0.578125)"/>
      <use xlink:href="#DejaVuSans-20" transform="translate(593.554688 0.578125)"/>
      <use xlink:href="#DejaVuSans-28" transform="translate(625.341797 0.578125)"/>
      <use xlink:href="#DejaVuSans-73" transform="translate(664.355469 0.578125)"/>
      <use xlink:href="#DejaVuSans-6f" transform="translate(716.455078 0.578125)"/>
      <use xlink:href="#DejaVuSans-66" transform="translate(777.636719 0.578125)"/>
      <use xlink:href="#DejaVuSans-74" transform="translate(812.841797 0.578125)"/>
      <use xlink:href="#DejaVuSans-6d" transform="translate(852.050781 0.578125)"/>
      <use xlink:href="#DejaVuSans-61" transform="translate(949.462891 0.578125)"/>
      <use xlink:href="#DejaVuSans-78" transform="translate(1010.742188 0.578125)"/>
      <use xlink:href="#DejaVuSans-2d" transform="translate(1069.921875 0.578125)"/>
      <use xlink:href="#DejaVuSans-49" transform="translate(1106.005859 0.578125)"/>
      <use xlink:href="#DejaVuSans-42" transform="translate(1135.498047 0.578125)"/>
      <use xlink:href="#DejaVuSans-20" transform="translate(1204.101562 0.578125)"/>
      <use xlink:href="#DejaVuSans-62" transform="translate(1235.888672 0.578125)"/>
      <use xlink:href="#DejaVuSans-6f" transform="translate(1299.365234 0.578125)"/>
      <use xlink:href="#DejaVuSans-75" transform="translate(1360.546875 0.578125)"/>
      <use xlink:href="#DejaVuSans-6e" transform="translate(1423.925781 0.578125)"/>
      <use xlink:href="#DejaVuSans-64" transform="translate(1487.304688 0.578125)"/>
      <use xlink:href="#DejaVuSans-29" transform="translate(1550.78125 0.578125)"/>
     </g>
    </g>
    <g id="text_34">
     <!-- 1e−14 -->
     <g transform="translate(37.829531 218.105729) scale(0.05 -0.05)">
      <use xlink:href="#DejaVuSans-31"/>
      <use xlink:href="#DejaVuSans-65" x="63.623047"/>
      <use xlink:href="#DejaVuSans-2212" x="125.146484"/>
      <use xlink:href="#DejaVuSans-31" x="208.935547"/>
      <use xlink:href="#DejaVuSans-34" x="272.558594"/>
     </g>
    </g>
   </g>
   <g id="line2d_49">
    <path d="M 39.826994 258.232807 
L 39.917588 266.079465 
L 40.070475 236.069442 
L 40.287041 230.150034 
L 40.915932 288.38049 
L 41.330182 224.643608 
L 41.811937 255.892576 
L 42.361683 283.287046 
L 42.979699 267.043089 
L 43.666055 252.864042 
L 44.420612 243.640778 
L 46.132692 283.424707 
L 47.088865 283.837689 
L 48.110542 249.147204 
L 49.196525 258.78345 
L 50.345419 250.799132 
L 51.555633 252.175739 
L 52.825396 284.388331 
L 54.152761 268.970338 
L 55.535619 266.630107 
L 56.971713 262.91327 
L 58.458645 273.100158 
L 59.993897 286.040259 
L 61.574839 275.302728 
L 63.198748 259.058771 
L 64.862821 290.4454 
L 66.564191 286.866223 
L 68.299943 283.837689 
L 70.067124 271.723551 
L 71.862766 290.996043 
L 73.683891 276.679335 
L 75.527532 271.723551 
L 77.390742 290.996043 
L 79.270607 289.068794 
L 81.164258 287.967508 
L 83.068882 293.473935 
L 84.981729 291.546685 
L 86.900125 292.923292 
L 88.821477 285.489617 
L 90.743279 293.473935 
L 92.663122 289.068794 
L 94.578695 292.372649 
L 96.487791 290.996043 
L 98.38831 293.198613 
L 100.278261 289.619436 
L 102.155766 290.720722 
L 104.019057 286.866223 
L 105.86648 287.967508 
L 107.69649 290.032418 
L 109.507658 293.198613 
L 111.298659 293.473935 
L 113.068281 294.299898 
L 114.815413 292.372649 
L 116.539049 292.647971 
L 118.238281 292.372649 
L 119.9123 293.473935 
L 121.560387 292.372649 
L 123.181913 292.097328 
L 124.776335 292.923292 
L 126.343191 293.336274 
L 127.882097 292.097328 
L 129.392742 294.024577 
L 130.874885 293.473935 
L 132.328349 293.611595 
L 133.753022 292.923292 
L 135.148845 293.336274 
L 136.515818 291.546685 
L 137.853988 293.198613 
L 139.163449 292.647971 
L 140.444338 293.749256 
L 141.696834 294.57522 
L 142.92115 293.886917 
L 144.117534 293.473935 
L 145.286262 293.473935 
L 146.42764 294.299898 
L 147.541999 294.024577 
L 148.629691 292.647971 
L 149.691088 294.024577 
L 151.736574 292.372649 
L 153.681748 294.024577 
L 154.6178 293.886917 
L 155.530089 292.923292 
L 159.751158 294.299898 
L 160.530551 292.923292 
L 161.289425 292.923292 
L 162.028246 292.647971 
L 162.747478 292.923292 
L 163.447579 293.749256 
L 164.129006 293.749256 
L 164.79221 294.437559 
L 165.437639 293.473935 
L 166.065733 294.024577 
L 166.676928 291.822007 
L 167.271654 293.198613 
L 167.850334 293.749256 
L 168.413384 294.024577 
L 168.961214 292.372649 
L 169.494224 293.060953 
L 170.01281 293.198613 
L 170.51736 294.437559 
L 171.008251 293.198613 
L 171.485856 292.785631 
L 171.950539 292.647971 
L 172.402656 292.372649 
L 173.270575 293.749256 
L 173.687051 294.024577 
L 174.092305 293.198613 
L 174.486654 294.299898 
L 174.870409 292.923292 
L 175.243869 293.198613 
L 175.60733 293.198613 
L 175.961077 293.060953 
L 176.305389 292.372649 
L 176.966789 293.749256 
L 177.284398 292.923292 
L 177.593617 294.024577 
L 177.894689 292.923292 
L 178.473333 293.749256 
L 178.751359 292.923292 
L 179.022148 294.299898 
L 179.285911 293.198613 
L 179.793173 294.024577 
L 180.037067 294.024577 
L 180.274722 293.198613 
L 180.50632 293.473935 
L 180.73204 294.299898 
L 181.375625 292.372649 
L 181.579503 292.372649 
L 181.778313 293.473935 
L 181.972205 293.749256 
L 182.161322 292.647971 
L 182.525783 294.024577 
L 182.701393 292.647971 
L 183.203259 294.024577 
L 183.362624 292.372649 
L 183.518217 293.060953 
L 183.670147 292.923292 
L 183.81852 293.198613 
L 184.105 292.234989 
L 184.243302 294.024577 
L 184.378437 292.647971 
L 184.510496 293.749256 
L 184.639566 292.372649 
L 184.765732 292.647971 
L 184.889075 292.647971 
L 185.009677 291.684346 
L 185.242959 293.749256 
L 185.355788 294.024577 
L 185.679858 291.822007 
L 185.884549 293.473935 
L 185.983674 292.647971 
L 186.175773 293.749256 
L 186.360039 292.234989 
L 186.536892 293.473935 
L 186.622662 293.749256 
L 186.789124 291.271364 
L 186.869906 293.198613 
L 186.949111 292.097328 
L 187.102961 293.336274 
L 187.177683 292.097328 
L 187.250989 292.647971 
L 187.462765 291.271364 
L 187.530758 292.647971 
L 187.597507 292.097328 
L 187.663043 292.234989 
L 187.790598 293.198613 
L 187.852676 291.684346 
L 187.973571 293.749256 
L 188.090296 290.4454 
L 188.147159 293.198613 
L 188.203053 292.372649 
L 188.258004 290.720722 
L 188.312032 291.822007 
L 188.365162 293.198613 
L 188.417413 292.647971 
L 188.519363 289.757097 
L 188.569102 293.473935 
L 188.666205 292.647971 
L 188.713604 291.271364 
L 188.76026 292.923292 
L 188.806188 293.473935 
L 188.895929 291.133703 
L 188.939774 291.959667 
L 189.025487 292.785631 
L 189.067384 291.822007 
L 189.108662 292.372649 
L 189.189409 294.024577 
L 189.228906 293.198613 
L 189.344036 289.344115 
L 189.381332 293.473935 
L 189.454372 292.647971 
L 189.490137 293.198613 
L 189.525414 292.647971 
L 189.560211 290.720722 
L 189.594539 292.923292 
L 189.628408 291.684346 
L 189.661826 292.372649 
L 189.759471 292.923292 
L 189.791178 289.894758 
L 189.853378 293.198613 
L 189.914015 291.271364 
L 189.943766 290.170079 
L 189.973148 291.959667 
L 190.002168 292.923292 
L 190.030834 290.996043 
L 190.059151 291.546685 
L 190.087127 291.546685 
L 190.114768 293.473935 
L 190.195743 293.198613 
L 190.324554 290.720722 
L 190.349444 289.344115 
L 190.374055 292.51031 
L 190.42246 289.619436 
L 190.538925 293.198613 
L 190.605861 290.4454 
L 190.627707 293.473935 
L 190.649326 293.473935 
L 190.794625 290.4454 
L 190.814561 292.647971 
L 190.873209 289.068794 
L 190.892381 288.931133 
L 190.91137 293.473935 
L 191.00366 290.996043 
L 191.074465 292.923292 
L 191.039387 290.720722 
L 191.108912 290.996043 
L 191.125906 288.793472 
L 191.159442 292.372649 
L 191.224776 290.170079 
L 191.272319 286.866223 
L 191.287899 292.647971 
L 191.333862 287.692187 
L 191.378699 293.060953 
L 191.407985 284.938974 
L 191.436804 292.097328 
L 191.451041 288.793472 
L 191.506881 292.647971 
L 191.547636 292.097328 
L 191.600544 287.003884 
L 191.664491 290.170079 
L 191.68942 286.040259 
L 191.797292 292.923292 
L 191.920347 288.931133 
L 192.004386 292.097328 
L 191.962909 287.554526 
L 192.014591 290.170079 
L 192.024731 288.518151 
L 192.084262 292.372649 
L 192.113213 290.170079 
L 192.122747 292.234989 
L 192.206041 287.141545 
L 192.223961 290.996043 
L 192.302116 284.250671 
L 192.310558 292.647971 
L 192.335607 286.866223 
L 192.38449 292.923292 
L 192.368372 283.562368 
L 192.447275 291.822007 
L 192.45494 285.076635 
L 192.462564 292.647971 
L 192.551088 289.344115 
L 192.6546 292.785631 
L 192.614094 286.040259 
L 192.667848 291.822007 
L 192.713253 285.214295 
L 192.725958 292.097328 
L 192.781725 288.655812 
L 192.875545 292.372649 
L 192.817677 283.149386 
L 192.886824 286.866223 
L 192.914608 292.372649 
L 192.994588 285.214295 
L 193.015106 292.647971 
L 193.030282 283.011725 
L 193.117691 292.372649 
L 193.208075 282.0481 
L 193.154652 292.923292 
L 193.238177 285.764938 
L 193.250849 275.165068 
L 193.339812 291.822007 
L 193.343698 277.229977 
L 193.362931 292.234989 
L 193.450935 291.546685 
L 193.545404 278.055941 
L 193.583458 287.416866 
L 193.61414 278.606584 
L 193.675722 291.271364 
L 193.775718 275.853371 
L 193.788471 282.185761 
L 193.889251 291.133703 
L 193.815939 278.055941 
L 193.898297 287.141545 
L 193.940058 279.983191 
L 194.004207 290.858382 
L 194.008187 282.185761 
L 194.058289 291.133703 
L 194.063883 271.310569 
L 194.121291 289.068794 
L 194.220483 275.440389 
L 194.214351 292.923292 
L 194.231096 282.185761 
L 194.274971 290.996043 
L 194.286249 269.24566 
L 194.302849 288.793472 
" clip-path="url(#p5deab2405f)" style="fill: none; stroke: #1f77b4; stroke-width: 0.7; stroke-linecap: square"/>
   </g>
   <g id="line2d_50">
    <path d="M 39.797161 295.401184 
L 195.728127 295.401184 
" clip-path="url(#p5deab2405f)" style="fill: none; stroke-dasharray: 2.59,1.12; stroke-dashoffset: 0; stroke: #000000; stroke-width: 0.7"/>
   </g>
   <g id="patch_9">
    <path d="M 37.829531 298.939062 
L 37.829531 221.105729 
" style="fill: none; stroke: #000000; stroke-width: 0.5; stroke-linejoin: miter; stroke-linecap: square"/>
   </g>
   <g id="patch_10">
    <path d="M 37.829531 298.939062 
L 197.695757 298.939062 
" style="fill: none; stroke: #000000; stroke-width: 0.5; stroke-linejoin: miter; stroke-linecap: square"/>
   </g>
   <g id="text_35">
    <!-- max $p(r|x)$ difference -->
    <g transform="translate(85.872644 215.105729) scale(0.06 -0.06)">
     <use xlink:href="#DejaVuSans-6d" transform="translate(0 0.578125)"/>
     <use xlink:href="#DejaVuSans-61" transform="translate(97.412109 0.578125)"/>
     <use xlink:href="#DejaVuSans-78" transform="translate(158.691406 0.578125)"/>
     <use xlink:href="#DejaVuSans-20" transform="translate(217.871094 0.578125)"/>
     <use xlink:href="#DejaVuSans-Oblique-70" transform="translate(249.658203 0.578125)"/>
     <use xlink:href="#DejaVuSans-28" transform="translate(313.134766 0.578125)"/>
     <use xlink:href="#DejaVuSans-Oblique-72" transform="translate(352.148438 0.578125)"/>
     <use xlink:href="#DejaVuSans-7c" transform="translate(393.261719 0.578125)"/>
     <use xlink:href="#DejaVuSans-Oblique-78" transform="translate(426.953125 0.578125)"/>
     <use xlink:href="#DejaVuSans-29" transform="translate(486.132812 0.578125)"/>
     <use xlink:href="#DejaVuSans-20" transform="translate(525.146484 0.578125)"/>
     <use xlink:href="#DejaVuSans-64" transform="translate(556.933594 0.578125)"/>
     <use xlink:href="#DejaVuSans-69" transform="translate(620.410156 0.578125)"/>
     <use xlink:href="#DejaVuSans-66" transform="translate(648.193359 0.578125)"/>
     <use xlink:href="#DejaVuSans-66" transform="translate(683.398438 0.578125)"/>
     <use xlink:href="#DejaVuSans-65" transform="translate(718.603516 0.578125)"/>
     <use xlink:href="#DejaVuSans-72" transform="translate(780.126953 0.578125)"/>
     <use xlink:href="#DejaVuSans-65" transform="translate(821.240234 0.578125)"/>
     <use xlink:href="#DejaVuSans-6e" transform="translate(882.763672 0.578125)"/>
     <use xlink:href="#DejaVuSans-63" transform="translate(946.142578 0.578125)"/>
     <use xlink:href="#DejaVuSans-65" transform="translate(1001.123047 0.578125)"/>
    </g>
   </g>
  </g>
 </g>
 <defs>
  <clipPath id="pd90cc56a69">
   <rect x="37.829531" y="17.759062" width="159.866226" height="77.833333"/>
  </clipPath>
  <clipPath id="pdd8d4a1b46">
   <rect x="37.829531" y="119.432396" width="159.866226" height="77.833333"/>
  </clipPath>
  <clipPath id="p5deab2405f">
   <rect x="37.829531" y="221.105729" width="159.866226" height="77.833333"/>
  </clipPath>
 </defs>
</svg>
