<?xml version="1.0" encoding="utf-8" standalone="no"?>
<!DOCTYPE svg PUBLIC "-//W3C//DTD SVG 1.1//EN"
  "http://www.w3.org/Graphics/SVG/1.1/DTD/svg11.dtd">
<svg xmlns:xlink="http://www.w3.org/1999/xlink" width="207.86015pt" height="316.478125pt" viewBox="0 0 207.86015 316.478125" xmlns="http://www.w3.org/2000/svg" version="1.1">
 <metadata>
  <rdf:RDF xmlns:dc="http://purl.org/dc/elements/1.1/" xmlns:cc="http://creativecommons.org/ns#" xmlns:rdf="http://www.w3.org/1999/02/22-rdf-syntax-ns#">
   <cc:Work>
    <dc:type rdf:resource="http://purl.org/dc/dcmitype/StillImage"/>
    <dc:date>2026-04-14T21:17:40.267738</dc:date>
    <dc:format>image/svg+xml</dc:format>
    <dc:creator>
     <cc:Agent>
      <dc:title>Matplotlib v3.8.2, https://matplotlib.org/</dc:title>
     </cc:Agent>
    </dc:creator>
   </cc:Work>
  </rdf:RDF>
 </metadata>
 <defs>
  <style type="text/css">*{stroke-linejoin: round; stroke-linecap: butt}</style>
 </defs>
 <g id="figure_1">
  <g id="patch_1">
   <path d="M 0 316.478125 
L 207.86015 316.478125 
L 207.86015 0 
L 0 0 
z
" style="fill: #ffffff"/>
  </g>
  <g id="axes_1">
   <g id="patch_2">
    <path d="M 30.711563 95.592396 
L 197.192788 95.592396 
L 197.192788 17.759062 
L 30.711563 17.759062 
z
" style="fill: #ffffff"/>
   </g>
   <g id="matplotlib.axis_1">
    <g id="xtick_1">
     <g id="line2d_1">
      <defs>
       <path id="m6aef68c51d" d="M 0 0 
L 0 2 
" style="stroke: #000000; stroke-width: 0.5"/>
      </defs>
      <g>
       <use xlink:href="#m6aef68c51d" x="32.760609" y="95.592396" style="stroke: #000000; stroke-width: 0.5"/>
      </g>
     </g>
    </g>
    <g id="xtick_2">
     <g id="line2d_2">
      <g>
       <use xlink:href="#m6aef68c51d" x="53.251079" y="95.592396" style="stroke: #000000; stroke-width: 0.5"/>
      </g>
     </g>
    </g>
    <g id="xtick_3">
     <g id="line2d_3">
      <g>
       <use xlink:href="#m6aef68c51d" x="73.741549" y="95.592396" style="stroke: #000000; stroke-width: 0.5"/>
      </g>
     </g>
    </g>
    <g id="xtick_4">
     <g id="line2d_4">
      <g>
       <use xlink:href="#m6aef68c51d" x="94.232019" y="95.592396" style="stroke: #000000; stroke-width: 0.5"/>
      </g>
     </g>
    </g>
    <g id="xtick_5">
     <g id="line2d_5">
      <g>
       <use xlink:href="#m6aef68c51d" x="114.722489" y="95.592396" style="stroke: #000000; stroke-width: 0.5"/>
      </g>
     </g>
    </g>
    <g id="xtick_6">
     <g id="line2d_6">
      <g>
       <use xlink:href="#m6aef68c51d" x="135.212959" y="95.592396" style="stroke: #000000; stroke-width: 0.5"/>
      </g>
     </g>
    </g>
    <g id="xtick_7">
     <g id="line2d_7">
      <g>
       <use xlink:href="#m6aef68c51d" x="155.703429" y="95.592396" style="stroke: #000000; stroke-width: 0.5"/>
      </g>
     </g>
    </g>
    <g id="xtick_8">
     <g id="line2d_8">
      <g>
       <use xlink:href="#m6aef68c51d" x="176.193899" y="95.592396" style="stroke: #000000; stroke-width: 0.5"/>
      </g>
     </g>
    </g>
    <g id="xtick_9">
     <g id="line2d_9">
      <g>
       <use xlink:href="#m6aef68c51d" x="196.684368" y="95.592396" style="stroke: #000000; stroke-width: 0.5"/>
      </g>
     </g>
    </g>
   </g>
   <g id="matplotlib.axis_2">
    <g id="ytick_1">
     <g id="line2d_10">
      <defs>
       <path id="mcff14e4b62" d="M 0 0 
L -2 0 
" style="stroke: #000000; stroke-width: 0.5"/>
      </defs>
      <g>
       <use xlink:href="#mcff14e4b62" x="30.711563" y="92.039054" style="stroke: #000000; stroke-width: 0.5"/>
      </g>
     </g>
     <g id="text_1">
      <!-- −6 -->
      <g transform="translate(17.840469 93.938664) scale(0.05 -0.05)">
       <defs>
        <path id="DejaVuSans-2212" d="M 678 2272 
L 4684 2272 
L 4684 1741 
L 678 1741 
L 678 2272 
z
" transform="scale(0.015625)"/>
        <path id="DejaVuSans-36" d="M 2113 2584 
Q 1688 2584 1439 2293 
Q 1191 2003 1191 1497 
Q 1191 994 1439 701 
Q 1688 409 2113 409 
Q 2538 409 2786 701 
Q 3034 994 3034 1497 
Q 3034 2003 2786 2293 
Q 2538 2584 2113 2584 
z
M 3366 4563 
L 3366 3988 
Q 3128 4100 2886 4159 
Q 2644 4219 2406 4219 
Q 1781 4219 1451 3797 
Q 1122 3375 1075 2522 
Q 1259 2794 1537 2939 
Q 1816 3084 2150 3084 
Q 2853 3084 3261 2657 
Q 3669 2231 3669 1497 
Q 3669 778 3244 343 
Q 2819 -91 2113 -91 
Q 1303 -91 875 529 
Q 447 1150 447 2328 
Q 447 3434 972 4092 
Q 1497 4750 2381 4750 
Q 2619 4750 2861 4703 
Q 3103 4656 3366 4563 
z
" transform="scale(0.015625)"/>
       </defs>
       <use xlink:href="#DejaVuSans-2212"/>
       <use xlink:href="#DejaVuSans-36" x="83.789062"/>
      </g>
     </g>
    </g>
    <g id="ytick_2">
     <g id="line2d_11">
      <g>
       <use xlink:href="#mcff14e4b62" x="30.711563" y="77.609676" style="stroke: #000000; stroke-width: 0.5"/>
      </g>
     </g>
     <g id="text_2">
      <!-- −4 -->
      <g transform="translate(17.840469 79.509286) scale(0.05 -0.05)">
       <defs>
        <path id="DejaVuSans-34" d="M 2419 4116 
L 825 1625 
L 2419 1625 
L 2419 4116 
z
M 2253 4666 
L 3047 4666 
L 3047 1625 
L 3713 1625 
L 3713 1100 
L 3047 1100 
L 3047 0 
L 2419 0 
L 2419 1100 
L 313 1100 
L 313 1709 
L 2253 4666 
z
" transform="scale(0.015625)"/>
       </defs>
       <use xlink:href="#DejaVuSans-2212"/>
       <use xlink:href="#DejaVuSans-34" x="83.789062"/>
      </g>
     </g>
    </g>
    <g id="ytick_3">
     <g id="line2d_12">
      <g>
       <use xlink:href="#mcff14e4b62" x="30.711563" y="63.180299" style="stroke: #000000; stroke-width: 0.5"/>
      </g>
     </g>
     <g id="text_3">
      <!-- −2 -->
      <g transform="translate(17.840469 65.079908) scale(0.05 -0.05)">
       <defs>
        <path id="DejaVuSans-32" d="M 1228 531 
L 3431 531 
L 3431 0 
L 469 0 
L 469 531 
Q 828 903 1448 1529 
Q 2069 2156 2228 2338 
Q 2531 2678 2651 2914 
Q 2772 3150 2772 3378 
Q 2772 3750 2511 3984 
Q 2250 4219 1831 4219 
Q 1534 4219 1204 4116 
Q 875 4013 500 3803 
L 500 4441 
Q 881 4594 1212 4672 
Q 1544 4750 1819 4750 
Q 2544 4750 2975 4387 
Q 3406 4025 3406 3419 
Q 3406 3131 3298 2873 
Q 3191 2616 2906 2266 
Q 2828 2175 2409 1742 
Q 1991 1309 1228 531 
z
" transform="scale(0.015625)"/>
       </defs>
       <use xlink:href="#DejaVuSans-2212"/>
       <use xlink:href="#DejaVuSans-32" x="83.789062"/>
      </g>
     </g>
    </g>
    <g id="ytick_4">
     <g id="line2d_13">
      <g>
       <use xlink:href="#mcff14e4b62" x="30.711563" y="48.750921" style="stroke: #000000; stroke-width: 0.5"/>
      </g>
     </g>
     <g id="text_4">
      <!-- 0 -->
      <g transform="translate(22.030313 50.65053) scale(0.05 -0.05)">
       <defs>
        <path id="DejaVuSans-30" d="M 2034 4250 
Q 1547 4250 1301 3770 
Q 1056 3291 1056 2328 
Q 1056 1369 1301 889 
Q 1547 409 2034 409 
Q 2525 409 2770 889 
Q 3016 1369 3016 2328 
Q 3016 3291 2770 3770 
Q 2525 4250 2034 4250 
z
M 2034 4750 
Q 2819 4750 3233 4129 
Q 3647 3509 3647 2328 
Q 3647 1150 3233 529 
Q 2819 -91 2034 -91 
Q 1250 -91 836 529 
Q 422 1150 422 2328 
Q 422 3509 836 4129 
Q 1250 4750 2034 4750 
z
" transform="scale(0.015625)"/>
       </defs>
       <use xlink:href="#DejaVuSans-30"/>
      </g>
     </g>
    </g>
    <g id="ytick_5">
     <g id="line2d_14">
      <g>
       <use xlink:href="#mcff14e4b62" x="30.711563" y="34.321543" style="stroke: #000000; stroke-width: 0.5"/>
      </g>
     </g>
     <g id="text_5">
      <!-- 2 -->
      <g transform="translate(22.030313 36.221152) scale(0.05 -0.05)">
       <use xlink:href="#DejaVuSans-32"/>
      </g>
     </g>
    </g>
    <g id="ytick_6">
     <g id="line2d_15">
      <g>
       <use xlink:href="#mcff14e4b62" x="30.711563" y="19.892165" style="stroke: #000000; stroke-width: 0.5"/>
      </g>
     </g>
     <g id="text_6">
      <!-- 4 -->
      <g transform="translate(22.030313 21.791774) scale(0.05 -0.05)">
       <use xlink:href="#DejaVuSans-34"/>
      </g>
     </g>
    </g>
    <g id="text_7">
     <!-- $\Delta I(X;R)$ (softmax-IB bound) -->
     <g transform="translate(12.592656 97.595729) rotate(-90) scale(0.06 -0.06)">
      <defs>
       <path id="DejaVuSans-394" d="M 2188 4044 
L 906 525 
L 3472 525 
L 2188 4044 
z
M 50 0 
L 1831 4666 
L 2547 4666 
L 4325 0 
L 50 0 
z
" transform="scale(0.015625)"/>
       <path id="DejaVuSans-Oblique-49" d="M 1081 4666 
L 1716 4666 
L 806 0 
L 172 0 
L 1081 4666 
z
" transform="scale(0.015625)"/>
       <path id="DejaVuSans-28" d="M 1984 4856 
Q 1566 4138 1362 3434 
Q 1159 2731 1159 2009 
Q 1159 1288 1364 580 
Q 1569 -128 1984 -844 
L 1484 -844 
Q 1016 -109 783 600 
Q 550 1309 550 2009 
Q 550 2706 781 3412 
Q 1013 4119 1484 4856 
L 1984 4856 
z
" transform="scale(0.015625)"/>
       <path id="DejaVuSans-Oblique-58" d="M 878 4666 
L 1516 4666 
L 2316 2981 
L 3763 4666 
L 4500 4666 
L 2578 2438 
L 3738 0 
L 3103 0 
L 2163 1966 
L 459 0 
L -275 0 
L 1906 2509 
L 878 4666 
z
" transform="scale(0.015625)"/>
       <path id="DejaVuSans-3b" d="M 750 3309 
L 1409 3309 
L 1409 2516 
L 750 2516 
L 750 3309 
z
M 750 794 
L 1409 794 
L 1409 256 
L 897 -744 
L 494 -744 
L 750 256 
L 750 794 
z
" transform="scale(0.015625)"/>
       <path id="DejaVuSans-Oblique-52" d="M 1613 4147 
L 1294 2491 
L 2106 2491 
Q 2584 2491 2879 2755 
Q 3175 3019 3175 3444 
Q 3175 3784 2976 3965 
Q 2778 4147 2406 4147 
L 1613 4147 
z
M 2772 2241 
Q 2972 2194 3105 2009 
Q 3238 1825 3413 1275 
L 3809 0 
L 3144 0 
L 2778 1197 
Q 2638 1659 2453 1815 
Q 2269 1972 1888 1972 
L 1191 1972 
L 806 0 
L 172 0 
L 1081 4666 
L 2503 4666 
Q 3150 4666 3495 4373 
Q 3841 4081 3841 3531 
Q 3841 3044 3547 2687 
Q 3253 2331 2772 2241 
z
" transform="scale(0.015625)"/>
       <path id="DejaVuSans-29" d="M 513 4856 
L 1013 4856 
Q 1481 4119 1714 3412 
Q 1947 2706 1947 2009 
Q 1947 1309 1714 600 
Q 1481 -109 1013 -844 
L 513 -844 
Q 928 -128 1133 580 
Q 1338 1288 1338 2009 
Q 1338 2731 1133 3434 
Q 928 4138 513 4856 
z
" transform="scale(0.015625)"/>
       <path id="DejaVuSans-20" transform="scale(0.015625)"/>
       <path id="DejaVuSans-73" d="M 2834 3397 
L 2834 2853 
Q 2591 2978 2328 3040 
Q 2066 3103 1784 3103 
Q 1356 3103 1142 2972 
Q 928 2841 928 2578 
Q 928 2378 1081 2264 
Q 1234 2150 1697 2047 
L 1894 2003 
Q 2506 1872 2764 1633 
Q 3022 1394 3022 966 
Q 3022 478 2636 193 
Q 2250 -91 1575 -91 
Q 1294 -91 989 -36 
Q 684 19 347 128 
L 347 722 
Q 666 556 975 473 
Q 1284 391 1588 391 
Q 1994 391 2212 530 
Q 2431 669 2431 922 
Q 2431 1156 2273 1281 
Q 2116 1406 1581 1522 
L 1381 1569 
Q 847 1681 609 1914 
Q 372 2147 372 2553 
Q 372 3047 722 3315 
Q 1072 3584 1716 3584 
Q 2034 3584 2315 3537 
Q 2597 3491 2834 3397 
z
" transform="scale(0.015625)"/>
       <path id="DejaVuSans-6f" d="M 1959 3097 
Q 1497 3097 1228 2736 
Q 959 2375 959 1747 
Q 959 1119 1226 758 
Q 1494 397 1959 397 
Q 2419 397 2687 759 
Q 2956 1122 2956 1747 
Q 2956 2369 2687 2733 
Q 2419 3097 1959 3097 
z
M 1959 3584 
Q 2709 3584 3137 3096 
Q 3566 2609 3566 1747 
Q 3566 888 3137 398 
Q 2709 -91 1959 -91 
Q 1206 -91 779 398 
Q 353 888 353 1747 
Q 353 2609 779 3096 
Q 1206 3584 1959 3584 
z
" transform="scale(0.015625)"/>
       <path id="DejaVuSans-66" d="M 2375 4863 
L 2375 4384 
L 1825 4384 
Q 1516 4384 1395 4259 
Q 1275 4134 1275 3809 
L 1275 3500 
L 2222 3500 
L 2222 3053 
L 1275 3053 
L 1275 0 
L 697 0 
L 697 3053 
L 147 3053 
L 147 3500 
L 697 3500 
L 697 3744 
Q 697 4328 969 4595 
Q 1241 4863 1831 4863 
L 2375 4863 
z
" transform="scale(0.015625)"/>
       <path id="DejaVuSans-74" d="M 1172 4494 
L 1172 3500 
L 2356 3500 
L 2356 3053 
L 1172 3053 
L 1172 1153 
Q 1172 725 1289 603 
Q 1406 481 1766 481 
L 2356 481 
L 2356 0 
L 1766 0 
Q 1100 0 847 248 
Q 594 497 594 1153 
L 594 3053 
L 172 3053 
L 172 3500 
L 594 3500 
L 594 4494 
L 1172 4494 
z
" transform="scale(0.015625)"/>
       <path id="DejaVuSans-6d" d="M 3328 2828 
Q 3544 3216 3844 3400 
Q 4144 3584 4550 3584 
Q 5097 3584 5394 3201 
Q 5691 2819 5691 2113 
L 5691 0 
L 5113 0 
L 5113 2094 
Q 5113 2597 4934 2840 
Q 4756 3084 4391 3084 
Q 3944 3084 3684 2787 
Q 3425 2491 3425 1978 
L 3425 0 
L 2847 0 
L 2847 2094 
Q 2847 2600 2669 2842 
Q 2491 3084 2119 3084 
Q 1678 3084 1418 2786 
Q 1159 2488 1159 1978 
L 1159 0 
L 581 0 
L 581 3500 
L 1159 3500 
L 1159 2956 
Q 1356 3278 1631 3431 
Q 1906 3584 2284 3584 
Q 2666 3584 2933 3390 
Q 3200 3197 3328 2828 
z
" transform="scale(0.015625)"/>
       <path id="DejaVuSans-61" d="M 2194 1759 
Q 1497 1759 1228 1600 
Q 959 1441 959 1056 
Q 959 750 1161 570 
Q 1363 391 1709 391 
Q 2188 391 2477 730 
Q 2766 1069 2766 1631 
L 2766 1759 
L 2194 1759 
z
M 3341 1997 
L 3341 0 
L 2766 0 
L 2766 531 
Q 2569 213 2275 61 
Q 1981 -91 1556 -91 
Q 1019 -91 701 211 
Q 384 513 384 1019 
Q 384 1609 779 1909 
Q 1175 2209 1959 2209 
L 2766 2209 
L 2766 2266 
Q 2766 2663 2505 2880 
Q 2244 3097 1772 3097 
Q 1472 3097 1187 3025 
Q 903 2953 641 2809 
L 641 3341 
Q 956 3463 1253 3523 
Q 1550 3584 1831 3584 
Q 2591 3584 2966 3190 
Q 3341 2797 3341 1997 
z
" transform="scale(0.015625)"/>
       <path id="DejaVuSans-78" d="M 3513 3500 
L 2247 1797 
L 3578 0 
L 2900 0 
L 1881 1375 
L 863 0 
L 184 0 
L 1544 1831 
L 300 3500 
L 978 3500 
L 1906 2253 
L 2834 3500 
L 3513 3500 
z
" transform="scale(0.015625)"/>
       <path id="DejaVuSans-2d" d="M 313 2009 
L 1997 2009 
L 1997 1497 
L 313 1497 
L 313 2009 
z
" transform="scale(0.015625)"/>
       <path id="DejaVuSans-49" d="M 628 4666 
L 1259 4666 
L 1259 0 
L 628 0 
L 628 4666 
z
" transform="scale(0.015625)"/>
       <path id="DejaVuSans-42" d="M 1259 2228 
L 1259 519 
L 2272 519 
Q 2781 519 3026 730 
Q 3272 941 3272 1375 
Q 3272 1813 3026 2020 
Q 2781 2228 2272 2228 
L 1259 2228 
z
M 1259 4147 
L 1259 2741 
L 2194 2741 
Q 2656 2741 2882 2914 
Q 3109 3088 3109 3444 
Q 3109 3797 2882 3972 
Q 2656 4147 2194 4147 
L 1259 4147 
z
M 628 4666 
L 2241 4666 
Q 2963 4666 3353 4366 
Q 3744 4066 3744 3513 
Q 3744 3084 3544 2831 
Q 3344 2578 2956 2516 
Q 3422 2416 3680 2098 
Q 3938 1781 3938 1306 
Q 3938 681 3513 340 
Q 3088 0 2303 0 
L 628 0 
L 628 4666 
z
" transform="scale(0.015625)"/>
       <path id="DejaVuSans-62" d="M 3116 1747 
Q 3116 2381 2855 2742 
Q 2594 3103 2138 3103 
Q 1681 3103 1420 2742 
Q 1159 2381 1159 1747 
Q 1159 1113 1420 752 
Q 1681 391 2138 391 
Q 2594 391 2855 752 
Q 3116 1113 3116 1747 
z
M 1159 2969 
Q 1341 3281 1617 3432 
Q 1894 3584 2278 3584 
Q 2916 3584 3314 3078 
Q 3713 2572 3713 1747 
Q 3713 922 3314 415 
Q 2916 -91 2278 -91 
Q 1894 -91 1617 61 
Q 1341 213 1159 525 
L 1159 0 
L 581 0 
L 581 4863 
L 1159 4863 
L 1159 2969 
z
" transform="scale(0.015625)"/>
       <path id="DejaVuSans-75" d="M 544 1381 
L 544 3500 
L 1119 3500 
L 1119 1403 
Q 1119 906 1312 657 
Q 1506 409 1894 409 
Q 2359 409 2629 706 
Q 2900 1003 2900 1516 
L 2900 3500 
L 3475 3500 
L 3475 0 
L 2900 0 
L 2900 538 
Q 2691 219 2414 64 
Q 2138 -91 1772 -91 
Q 1169 -91 856 284 
Q 544 659 544 1381 
z
M 1991 3584 
L 1991 3584 
z
" transform="scale(0.015625)"/>
       <path id="DejaVuSans-6e" d="M 3513 2113 
L 3513 0 
L 2938 0 
L 2938 2094 
Q 2938 2591 2744 2837 
Q 2550 3084 2163 3084 
Q 1697 3084 1428 2787 
Q 1159 2491 1159 1978 
L 1159 0 
L 581 0 
L 581 3500 
L 1159 3500 
L 1159 2956 
Q 1366 3272 1645 3428 
Q 1925 3584 2291 3584 
Q 2894 3584 3203 3211 
Q 3513 2838 3513 2113 
z
" transform="scale(0.015625)"/>
       <path id="DejaVuSans-64" d="M 2906 2969 
L 2906 4863 
L 3481 4863 
L 3481 0 
L 2906 0 
L 2906 525 
Q 2725 213 2448 61 
Q 2172 -91 1784 -91 
Q 1150 -91 751 415 
Q 353 922 353 1747 
Q 353 2572 751 3078 
Q 1150 3584 1784 3584 
Q 2172 3584 2448 3432 
Q 2725 3281 2906 2969 
z
M 947 1747 
Q 947 1113 1208 752 
Q 1469 391 1925 391 
Q 2381 391 2643 752 
Q 2906 1113 2906 1747 
Q 2906 2381 2643 2742 
Q 2381 3103 1925 3103 
Q 1469 3103 1208 2742 
Q 947 2381 947 1747 
z
" transform="scale(0.015625)"/>
      </defs>
      <use xlink:href="#DejaVuSans-394" transform="translate(0 0.015625)"/>
      <use xlink:href="#DejaVuSans-Oblique-49" transform="translate(68.408203 0.015625)"/>
      <use xlink:href="#DejaVuSans-28" transform="translate(97.900391 0.015625)"/>
      <use xlink:href="#DejaVuSans-Oblique-58" transform="translate(136.914062 0.015625)"/>
      <use xlink:href="#DejaVuSans-3b" transform="translate(205.419922 0.015625)"/>
      <use xlink:href="#DejaVuSans-Oblique-52" transform="translate(258.59375 0.015625)"/>
      <use xlink:href="#DejaVuSans-29" transform="translate(328.076172 0.015625)"/>
      <use xlink:href="#DejaVuSans-20" transform="translate(367.089844 0.015625)"/>
      <use xlink:href="#DejaVuSans-28" transform="translate(398.876953 0.015625)"/>
      <use xlink:href="#DejaVuSans-73" transform="translate(437.890625 0.015625)"/>
      <use xlink:href="#DejaVuSans-6f" transform="translate(489.990234 0.015625)"/>
      <use xlink:href="#DejaVuSans-66" transform="translate(551.171875 0.015625)"/>
      <use xlink:href="#DejaVuSans-74" transform="translate(586.376953 0.015625)"/>
      <use xlink:href="#DejaVuSans-6d" transform="translate(625.585938 0.015625)"/>
      <use xlink:href="#DejaVuSans-61" transform="translate(722.998047 0.015625)"/>
      <use xlink:href="#DejaVuSans-78" transform="translate(784.277344 0.015625)"/>
      <use xlink:href="#DejaVuSans-2d" transform="translate(843.457031 0.015625)"/>
      <use xlink:href="#DejaVuSans-49" transform="translate(879.541016 0.015625)"/>
      <use xlink:href="#DejaVuSans-42" transform="translate(909.033203 0.015625)"/>
      <use xlink:href="#DejaVuSans-20" transform="translate(977.636719 0.015625)"/>
      <use xlink:href="#DejaVuSans-62" transform="translate(1009.423828 0.015625)"/>
      <use xlink:href="#DejaVuSans-6f" transform="translate(1072.900391 0.015625)"/>
      <use xlink:href="#DejaVuSans-75" transform="translate(1134.082031 0.015625)"/>
      <use xlink:href="#DejaVuSans-6e" transform="translate(1197.460938 0.015625)"/>
      <use xlink:href="#DejaVuSans-64" transform="translate(1260.839844 0.015625)"/>
      <use xlink:href="#DejaVuSans-29" transform="translate(1324.316406 0.015625)"/>
     </g>
    </g>
    <g id="text_8">
     <!-- 1e−14 -->
     <g transform="translate(30.711563 14.759062) scale(0.05 -0.05)">
      <defs>
       <path id="DejaVuSans-31" d="M 794 531 
L 1825 531 
L 1825 4091 
L 703 3866 
L 703 4441 
L 1819 4666 
L 2450 4666 
L 2450 531 
L 3481 531 
L 3481 0 
L 794 0 
L 794 531 
z
" transform="scale(0.015625)"/>
       <path id="DejaVuSans-65" d="M 3597 1894 
L 3597 1613 
L 953 1613 
Q 991 1019 1311 708 
Q 1631 397 2203 397 
Q 2534 397 2845 478 
Q 3156 559 3463 722 
L 3463 178 
Q 3153 47 2828 -22 
Q 2503 -91 2169 -91 
Q 1331 -91 842 396 
Q 353 884 353 1716 
Q 353 2575 817 3079 
Q 1281 3584 2069 3584 
Q 2775 3584 3186 3129 
Q 3597 2675 3597 1894 
z
M 3022 2063 
Q 3016 2534 2758 2815 
Q 2500 3097 2075 3097 
Q 1594 3097 1305 2825 
Q 1016 2553 972 2059 
L 3022 2063 
z
" transform="scale(0.015625)"/>
      </defs>
      <use xlink:href="#DejaVuSans-31"/>
      <use xlink:href="#DejaVuSans-65" x="63.623047"/>
      <use xlink:href="#DejaVuSans-2212" x="125.146484"/>
      <use xlink:href="#DejaVuSans-31" x="208.935547"/>
      <use xlink:href="#DejaVuSans-34" x="272.558594"/>
     </g>
    </g>
   </g>
   <g id="line2d_16">
    <path d="M 32.791677 47.682098 
L 33.045232 49.740896 
L 33.563875 53.257749 
L 33.925674 58.530525 
L 34.357064 55.833437 
L 34.858754 51.807203 
L 35.431247 67.994739 
L 36.074836 47.874836 
L 36.789592 54.197662 
L 37.575371 21.552257 
L 38.431802 21.296941 
L 39.358294 92.054517 
L 40.354032 60.405345 
L 41.417984 52.014961 
L 42.548904 38.217884 
L 43.745337 54.167625 
L 45.005628 30.097834 
L 46.327931 44.14522 
L 47.71022 68.134912 
L 49.150299 53.276522 
L 50.645816 32.871267 
L 52.194275 33.251738 
L 53.793053 31.429482 
L 55.439412 61.206337 
L 57.130515 43.884898 
L 58.863445 24.200535 
L 60.635215 55.559347 
L 62.442789 48.670822 
L 64.283094 49.151416 
L 66.153036 37.857438 
L 68.049516 38.338033 
L 69.969444 49.351664 
L 71.909751 45.10641 
L 73.867401 54.277761 
L 75.839409 50.6733 
L 77.822843 54.918554 
L 79.814841 57.20138 
L 83.813471 33.572134 
L 85.814794 47.629533 
L 87.814077 46.02755 
L 89.808913 38.177835 
L 91.797004 59.804602 
L 93.776163 41.862395 
L 95.744318 41.782296 
L 97.699511 48.190227 
L 99.639902 48.670822 
L 101.563767 42.983783 
L 103.469501 39.139024 
L 105.355611 52.355382 
L 109.063567 49.79221 
L 110.882993 53.636968 
L 112.67795 56.200141 
L 114.447494 34.733572 
L 116.190781 49.071317 
L 117.907062 41.461899 
L 119.595685 50.433003 
L 121.256081 46.828541 
L 122.887771 50.433003 
L 124.490355 54.838455 
L 126.063508 50.833498 
L 127.606979 52.755878 
L 129.120585 52.435481 
L 130.604208 51.63449 
L 132.057789 49.071317 
L 133.481325 44.025072 
L 134.874866 48.750921 
L 136.23851 52.595679 
L 137.572401 47.148938 
L 138.876723 50.032507 
L 140.151699 47.469335 
L 141.397586 46.668343 
L 142.614675 52.275283 
L 143.803282 40.42061 
L 144.963751 40.100214 
L 146.09645 45.226559 
L 147.201766 47.148938 
L 148.280105 45.06636 
L 150.357556 49.872309 
L 151.357553 47.148938 
L 152.332337 48.270326 
L 153.282375 48.430524 
L 154.208141 53.396671 
L 155.110113 45.226559 
L 155.988775 51.153895 
L 156.84461 50.352903 
L 157.678105 46.828541 
L 158.489747 46.187748 
L 159.280022 46.668343 
L 160.049415 45.867352 
L 160.798407 45.867352 
L 161.527477 49.391714 
L 162.2371 48.750921 
L 162.927747 47.789731 
L 163.599882 51.153895 
L 164.253966 49.071317 
L 164.890452 47.789731 
L 165.509787 46.02755 
L 166.112411 47.949929 
L 166.69876 48.750921 
L 167.269257 47.949929 
L 167.824323 49.391714 
L 168.364367 44.745964 
L 169.400997 50.993697 
L 169.898365 46.668343 
L 170.382276 47.629533 
L 170.853101 50.032507 
L 171.311202 47.949929 
L 171.756933 46.508145 
L 172.190641 49.071317 
L 172.612664 49.551912 
L 173.023331 49.391714 
L 173.422965 47.789731 
L 173.811879 47.309136 
L 174.190379 48.270326 
L 174.558763 47.629533 
L 174.917322 48.590722 
L 175.266339 46.187748 
L 175.60609 49.391714 
L 175.936841 48.911119 
L 176.258855 48.110128 
L 176.877677 49.391714 
L 177.174972 47.949929 
L 177.464503 50.6733 
L 177.746496 49.391714 
L 178.021173 50.513102 
L 178.288747 48.590722 
L 178.549425 49.391714 
L 178.803411 49.391714 
L 179.050899 49.872309 
L 179.292081 49.231516 
L 179.527141 47.789731 
L 179.756258 48.590722 
L 179.979607 47.148938 
L 180.197356 48.430524 
L 180.40967 47.629533 
L 180.616707 48.430524 
L 180.818622 47.309136 
L 181.015564 49.71211 
L 181.207678 47.309136 
L 181.395106 48.590722 
L 181.577983 48.750921 
L 181.756442 50.032507 
L 181.930611 48.911119 
L 182.100615 49.391714 
L 182.428605 48.911119 
L 182.586822 49.071317 
L 182.741334 47.949929 
L 182.892249 48.911119 
L 183.039668 48.750921 
L 183.183693 47.629533 
L 183.32442 49.391714 
L 183.461943 48.590722 
L 183.596353 50.192705 
L 183.981779 47.789731 
L 184.104595 47.949929 
L 184.224714 49.391714 
L 184.45716 47.949929 
L 184.56963 47.629533 
L 184.679692 49.71211 
L 184.892852 48.590722 
L 184.996078 48.590722 
L 185.09715 48.750921 
L 185.196126 49.231516 
L 185.388017 48.911119 
L 185.481042 48.110128 
L 185.572188 48.270326 
L 185.661507 49.071317 
L 185.749048 48.911119 
L 185.834857 48.750921 
L 186.001464 49.071317 
L 186.161679 48.911119 
L 186.239494 49.391714 
L 186.315833 48.430524 
L 186.390734 49.391714 
L 186.464235 49.071317 
L 186.676689 48.270326 
L 186.744937 48.430524 
L 186.811954 48.911119 
L 186.877771 48.430524 
L 186.942417 49.071317 
L 187.005922 48.110128 
L 187.068314 48.590722 
L 187.18987 48.750921 
L 187.307292 48.270326 
L 187.420781 48.750921 
L 187.476108 48.270326 
L 187.530521 48.750921 
L 187.584042 48.590722 
L 187.688488 49.231516 
L 187.739454 48.270326 
L 187.789608 48.750921 
L 187.838969 49.231516 
L 187.887555 48.270326 
L 187.935384 49.071317 
L 187.982472 49.071317 
L 188.028838 49.391714 
L 188.163756 48.590722 
L 188.250373 48.911119 
L 188.292727 48.750921 
L 188.375593 48.270326 
L 188.416132 49.071317 
L 188.495487 48.911119 
L 188.572623 48.430524 
L 188.647634 49.071317 
L 188.68437 48.750921 
L 188.720607 48.110128 
L 188.791626 48.750921 
L 188.826427 49.071317 
L 188.860769 48.750921 
L 188.928112 48.270326 
L 188.96113 48.590722 
L 188.993725 48.750921 
L 189.025905 48.270326 
L 189.057678 48.590722 
L 189.089051 49.071317 
L 189.15063 48.590722 
L 189.269326 49.071317 
L 189.409888 48.430524 
L 189.463846 49.071317 
L 189.490362 48.110128 
L 189.568126 49.071317 
L 189.716084 48.430524 
L 189.809524 49.071317 
L 189.832274 48.110128 
L 189.920953 48.750921 
L 189.963953 48.750921 
L 190.02686 48.590722 
L 190.067775 49.071317 
L 190.166663 48.750921 
L 190.185882 48.911119 
L 190.279337 48.430524 
L 190.242472 49.071317 
L 190.315535 48.750921 
L 190.403244 49.071317 
L 190.503559 48.590722 
L 190.519783 48.750921 
L 190.551827 49.071317 
L 190.644839 48.430524 
L 190.73346 48.911119 
L 190.762083 48.750921 
L 190.77623 48.750921 
L 190.804199 48.911119 
L 190.845365 48.430524 
L 190.885616 48.750921 
L 190.898836 48.750921 
L 190.988731 48.911119 
L 190.963507 48.270326 
L 191.001209 48.750921 
L 191.013599 48.270326 
L 191.109684 48.750921 
L 191.178402 48.430524 
L 191.211752 48.750921 
L 191.222725 48.750921 
L 191.244459 48.430524 
L 191.297599 49.071317 
L 191.318391 48.750921 
L 191.408855 49.071317 
L 191.349099 48.270326 
L 191.428299 48.750921 
L 191.437935 48.750921 
L 191.513026 49.071317 
L 191.494578 48.430524 
L 191.540306 48.750921 
L 191.549296 48.750921 
L 191.619444 48.430524 
L 191.65338 48.911119 
L 191.694787 48.430524 
L 191.678356 49.071317 
L 191.766631 48.590722 
L 191.774409 48.590722 
L 191.842676 48.270326 
L 191.893705 49.071317 
L 192.010747 48.590722 
L 192.10669 49.071317 
L 192.075421 48.430524 
L 192.125123 48.911119 
L 192.161278 48.270326 
L 192.137279 49.071317 
L 192.230875 48.590722 
L 192.242139 49.071317 
L 192.25331 48.430524 
L 192.344695 48.750921 
L 192.370419 49.071317 
L 192.449481 48.430524 
L 192.546331 49.071317 
L 192.559574 48.590722 
L 192.668701 49.231516 
L 192.680677 49.071317 
L 192.786913 48.430524 
L 192.790532 49.071317 
L 192.900556 48.590722 
L 192.907081 48.750921 
L 193.009369 49.071317 
L 192.935966 48.430524 
L 193.018193 48.750921 
L 193.113215 49.071317 
L 193.055582 48.110128 
L 193.129089 48.750921 
L 193.13171 48.750921 
L 193.231139 49.231516 
L 193.197497 48.270326 
L 193.245199 48.911119 
L 193.297205 48.430524 
L 193.321072 49.391714 
L 193.354698 48.911119 
L 193.358813 48.911119 
L 193.470417 48.430524 
L 193.377099 49.071317 
L 193.472219 48.590722 
L 193.526227 48.430524 
L 193.586332 49.071317 
L 193.621529 48.430524 
L 193.659488 48.911119 
" clip-path="url(#pd5195155c5)" style="fill: none; stroke: #1f77b4; stroke-width: 0.7; stroke-linecap: square"/>
   </g>
   <g id="line2d_17">
    <path d="M 32.760609 48.750921 
L 195.143741 48.750921 
" clip-path="url(#pd5195155c5)" style="fill: none; stroke-dasharray: 2.59,1.12; stroke-dashoffset: 0; stroke: #000000; stroke-width: 0.7"/>
   </g>
   <g id="patch_3">
    <path d="M 30.711563 95.592396 
L 30.711563 17.759062 
" style="fill: none; stroke: #000000; stroke-width: 0.5; stroke-linejoin: miter; stroke-linecap: square"/>
   </g>
   <g id="patch_4">
    <path d="M 30.711563 95.592396 
L 197.192788 95.592396 
" style="fill: none; stroke: #000000; stroke-width: 0.5; stroke-linejoin: miter; stroke-linecap: square"/>
   </g>
   <g id="text_9">
    <!-- $I(X;R)$ difference -->
    <g transform="translate(88.842175 11.759062) scale(0.06 -0.06)">
     <defs>
      <path id="DejaVuSans-69" d="M 603 3500 
L 1178 3500 
L 1178 0 
L 603 0 
L 603 3500 
z
M 603 4863 
L 1178 4863 
L 1178 4134 
L 603 4134 
L 603 4863 
z
" transform="scale(0.015625)"/>
      <path id="DejaVuSans-72" d="M 2631 2963 
Q 2534 3019 2420 3045 
Q 2306 3072 2169 3072 
Q 1681 3072 1420 2755 
Q 1159 2438 1159 1844 
L 1159 0 
L 581 0 
L 581 3500 
L 1159 3500 
L 1159 2956 
Q 1341 3275 1631 3429 
Q 1922 3584 2338 3584 
Q 2397 3584 2469 3576 
Q 2541 3569 2628 3553 
L 2631 2963 
z
" transform="scale(0.015625)"/>
      <path id="DejaVuSans-63" d="M 3122 3366 
L 3122 2828 
Q 2878 2963 2633 3030 
Q 2388 3097 2138 3097 
Q 1578 3097 1268 2742 
Q 959 2388 959 1747 
Q 959 1106 1268 751 
Q 1578 397 2138 397 
Q 2388 397 2633 464 
Q 2878 531 3122 666 
L 3122 134 
Q 2881 22 2623 -34 
Q 2366 -91 2075 -91 
Q 1284 -91 818 406 
Q 353 903 353 1747 
Q 353 2603 823 3093 
Q 1294 3584 2113 3584 
Q 2378 3584 2631 3529 
Q 2884 3475 3122 3366 
z
" transform="scale(0.015625)"/>
     </defs>
     <use xlink:href="#DejaVuSans-Oblique-49" transform="translate(0 0.015625)"/>
     <use xlink:href="#DejaVuSans-28" transform="translate(29.492188 0.015625)"/>
     <use xlink:href="#DejaVuSans-Oblique-58" transform="translate(68.505859 0.015625)"/>
     <use xlink:href="#DejaVuSans-3b" transform="translate(137.011719 0.015625)"/>
     <use xlink:href="#DejaVuSans-Oblique-52" transform="translate(190.185547 0.015625)"/>
     <use xlink:href="#DejaVuSans-29" transform="translate(259.667969 0.015625)"/>
     <use xlink:href="#DejaVuSans-20" transform="translate(298.681641 0.015625)"/>
     <use xlink:href="#DejaVuSans-64" transform="translate(330.46875 0.015625)"/>
     <use xlink:href="#DejaVuSans-69" transform="translate(393.945312 0.015625)"/>
     <use xlink:href="#DejaVuSans-66" transform="translate(421.728516 0.015625)"/>
     <use xlink:href="#DejaVuSans-66" transform="translate(456.933594 0.015625)"/>
     <use xlink:href="#DejaVuSans-65" transform="translate(492.138672 0.015625)"/>
     <use xlink:href="#DejaVuSans-72" transform="translate(553.662109 0.015625)"/>
     <use xlink:href="#DejaVuSans-65" transform="translate(594.775391 0.015625)"/>
     <use xlink:href="#DejaVuSans-6e" transform="translate(656.298828 0.015625)"/>
     <use xlink:href="#DejaVuSans-63" transform="translate(719.677734 0.015625)"/>
     <use xlink:href="#DejaVuSans-65" transform="translate(774.658203 0.015625)"/>
    </g>
   </g>
  </g>
  <g id="axes_2">
   <g id="patch_5">
    <path d="M 30.711563 197.265729 
L 197.192788 197.265729 
L 197.192788 119.432396 
L 30.711563 119.432396 
z
" style="fill: #ffffff"/>
   </g>
   <g id="matplotlib.axis_3">
    <g id="xtick_10">
     <g id="line2d_18">
      <g>
       <use xlink:href="#m6aef68c51d" x="32.760609" y="197.265729" style="stroke: #000000; stroke-width: 0.5"/>
      </g>
     </g>
    </g>
    <g id="xtick_11">
     <g id="line2d_19">
      <g>
       <use xlink:href="#m6aef68c51d" x="53.251079" y="197.265729" style="stroke: #000000; stroke-width: 0.5"/>
      </g>
     </g>
    </g>
    <g id="xtick_12">
     <g id="line2d_20">
      <g>
       <use xlink:href="#m6aef68c51d" x="73.741549" y="197.265729" style="stroke: #000000; stroke-width: 0.5"/>
      </g>
     </g>
    </g>
    <g id="xtick_13">
     <g id="line2d_21">
      <g>
       <use xlink:href="#m6aef68c51d" x="94.232019" y="197.265729" style="stroke: #000000; stroke-width: 0.5"/>
      </g>
     </g>
    </g>
    <g id="xtick_14">
     <g id="line2d_22">
      <g>
       <use xlink:href="#m6aef68c51d" x="114.722489" y="197.265729" style="stroke: #000000; stroke-width: 0.5"/>
      </g>
     </g>
    </g>
    <g id="xtick_15">
     <g id="line2d_23">
      <g>
       <use xlink:href="#m6aef68c51d" x="135.212959" y="197.265729" style="stroke: #000000; stroke-width: 0.5"/>
      </g>
     </g>
    </g>
    <g id="xtick_16">
     <g id="line2d_24">
      <g>
       <use xlink:href="#m6aef68c51d" x="155.703429" y="197.265729" style="stroke: #000000; stroke-width: 0.5"/>
      </g>
     </g>
    </g>
    <g id="xtick_17">
     <g id="line2d_25">
      <g>
       <use xlink:href="#m6aef68c51d" x="176.193899" y="197.265729" style="stroke: #000000; stroke-width: 0.5"/>
      </g>
     </g>
    </g>
    <g id="xtick_18">
     <g id="line2d_26">
      <g>
       <use xlink:href="#m6aef68c51d" x="196.684368" y="197.265729" style="stroke: #000000; stroke-width: 0.5"/>
      </g>
     </g>
    </g>
   </g>
   <g id="matplotlib.axis_4">
    <g id="ytick_7">
     <g id="line2d_27">
      <g>
       <use xlink:href="#mcff14e4b62" x="30.711563" y="188.135789" style="stroke: #000000; stroke-width: 0.5"/>
      </g>
     </g>
     <g id="text_10">
      <!-- −4 -->
      <g transform="translate(17.840469 190.035398) scale(0.05 -0.05)">
       <use xlink:href="#DejaVuSans-2212"/>
       <use xlink:href="#DejaVuSans-34" x="83.789062"/>
      </g>
     </g>
    </g>
    <g id="ytick_8">
     <g id="line2d_28">
      <g>
       <use xlink:href="#mcff14e4b62" x="30.711563" y="169.510691" style="stroke: #000000; stroke-width: 0.5"/>
      </g>
     </g>
     <g id="text_11">
      <!-- −2 -->
      <g transform="translate(17.840469 171.4103) scale(0.05 -0.05)">
       <use xlink:href="#DejaVuSans-2212"/>
       <use xlink:href="#DejaVuSans-32" x="83.789062"/>
      </g>
     </g>
    </g>
    <g id="ytick_9">
     <g id="line2d_29">
      <g>
       <use xlink:href="#mcff14e4b62" x="30.711563" y="150.885592" style="stroke: #000000; stroke-width: 0.5"/>
      </g>
     </g>
     <g id="text_12">
      <!-- 0 -->
      <g transform="translate(22.030313 152.785202) scale(0.05 -0.05)">
       <use xlink:href="#DejaVuSans-30"/>
      </g>
     </g>
    </g>
    <g id="ytick_10">
     <g id="line2d_30">
      <g>
       <use xlink:href="#mcff14e4b62" x="30.711563" y="132.260494" style="stroke: #000000; stroke-width: 0.5"/>
      </g>
     </g>
     <g id="text_13">
      <!-- 2 -->
      <g transform="translate(22.030313 134.160103) scale(0.05 -0.05)">
       <use xlink:href="#DejaVuSans-32"/>
      </g>
     </g>
    </g>
    <g id="text_14">
     <!-- $\Delta I(R;Y)$ (softmax-IB bound) -->
     <g transform="translate(12.592656 199.029062) rotate(-90) scale(0.06 -0.06)">
      <defs>
       <path id="DejaVuSans-Oblique-59" d="M 403 4666 
L 1081 4666 
L 1953 2747 
L 3616 4666 
L 4325 4666 
L 2209 2222 
L 1778 0 
L 1147 0 
L 1575 2222 
L 403 4666 
z
" transform="scale(0.015625)"/>
      </defs>
      <use xlink:href="#DejaVuSans-394" transform="translate(0 0.015625)"/>
      <use xlink:href="#DejaVuSans-Oblique-49" transform="translate(68.408203 0.015625)"/>
      <use xlink:href="#DejaVuSans-28" transform="translate(97.900391 0.015625)"/>
      <use xlink:href="#DejaVuSans-Oblique-52" transform="translate(136.914062 0.015625)"/>
      <use xlink:href="#DejaVuSans-3b" transform="translate(206.396484 0.015625)"/>
      <use xlink:href="#DejaVuSans-Oblique-59" transform="translate(259.570312 0.015625)"/>
      <use xlink:href="#DejaVuSans-29" transform="translate(320.654297 0.015625)"/>
      <use xlink:href="#DejaVuSans-20" transform="translate(359.667969 0.015625)"/>
      <use xlink:href="#DejaVuSans-28" transform="translate(391.455078 0.015625)"/>
      <use xlink:href="#DejaVuSans-73" transform="translate(430.46875 0.015625)"/>
      <use xlink:href="#DejaVuSans-6f" transform="translate(482.568359 0.015625)"/>
      <use xlink:href="#DejaVuSans-66" transform="translate(543.75 0.015625)"/>
      <use xlink:href="#DejaVuSans-74" transform="translate(578.955078 0.015625)"/>
      <use xlink:href="#DejaVuSans-6d" transform="translate(618.164062 0.015625)"/>
      <use xlink:href="#DejaVuSans-61" transform="translate(715.576172 0.015625)"/>
      <use xlink:href="#DejaVuSans-78" transform="translate(776.855469 0.015625)"/>
      <use xlink:href="#DejaVuSans-2d" transform="translate(836.035156 0.015625)"/>
      <use xlink:href="#DejaVuSans-49" transform="translate(872.119141 0.015625)"/>
      <use xlink:href="#DejaVuSans-42" transform="translate(901.611328 0.015625)"/>
      <use xlink:href="#DejaVuSans-20" transform="translate(970.214844 0.015625)"/>
      <use xlink:href="#DejaVuSans-62" transform="translate(1002.001953 0.015625)"/>
      <use xlink:href="#DejaVuSans-6f" transform="translate(1065.478516 0.015625)"/>
      <use xlink:href="#DejaVuSans-75" transform="translate(1126.660156 0.015625)"/>
      <use xlink:href="#DejaVuSans-6e" transform="translate(1190.039062 0.015625)"/>
      <use xlink:href="#DejaVuSans-64" transform="translate(1253.417969 0.015625)"/>
      <use xlink:href="#DejaVuSans-29" transform="translate(1316.894531 0.015625)"/>
     </g>
    </g>
    <g id="text_15">
     <!-- 1e−14 -->
     <g transform="translate(30.711563 116.432396) scale(0.05 -0.05)">
      <use xlink:href="#DejaVuSans-31"/>
      <use xlink:href="#DejaVuSans-65" x="63.623047"/>
      <use xlink:href="#DejaVuSans-2212" x="125.146484"/>
      <use xlink:href="#DejaVuSans-31" x="208.935547"/>
      <use xlink:href="#DejaVuSans-34" x="272.558594"/>
     </g>
    </g>
   </g>
   <g id="line2d_31">
    <path d="M 32.791677 149.831902 
L 32.886019 150.243443 
L 33.045232 152.331438 
L 33.270759 153.570503 
L 33.563875 155.806313 
L 33.925674 161.040435 
L 34.357064 158.145513 
L 34.858754 153.922675 
L 35.431247 171.075733 
L 36.074836 149.628757 
L 36.789592 155.751387 
L 37.575371 124.275574 
L 38.431802 122.970275 
L 39.358294 193.72785 
L 40.354032 161.935405 
L 41.417984 153.987294 
L 42.548904 141.17985 
L 43.745337 156.391113 
L 45.005628 131.939363 
L 46.327931 146.271811 
L 47.71022 169.599194 
L 49.150299 155.434755 
L 50.645816 135.351235 
L 52.194275 136.643611 
L 53.793053 133.826231 
L 55.439412 163.49918 
L 57.130515 145.897022 
L 58.863445 125.916891 
L 60.635215 158.975865 
L 62.442789 151.273305 
L 64.283094 152.539833 
L 66.153036 140.391501 
L 68.049516 140.701671 
L 69.969444 151.402543 
L 71.909751 147.008465 
L 73.867401 156.10679 
L 75.839409 151.454238 
L 77.822843 156.882216 
L 79.814841 158.536457 
L 81.812617 147.16355 
L 83.813471 137.599969 
L 85.814794 150.988982 
L 87.814077 147.06016 
L 89.808913 141.063536 
L 91.797004 163.447485 
L 93.776163 144.733883 
L 95.744318 144.785578 
L 97.699511 150.110167 
L 99.639902 149.903387 
L 101.563767 144.888968 
L 103.469501 141.063536 
L 105.355611 154.400854 
L 107.220722 152.850003 
L 109.063567 151.609323 
L 110.882993 155.848315 
L 112.67795 158.639847 
L 114.447494 137.341494 
L 116.190781 151.299152 
L 117.907062 145.716089 
L 119.595685 151.712713 
L 121.256081 148.09406 
L 122.887771 151.919493 
L 124.490355 156.882216 
L 126.063508 152.022883 
L 127.606979 155.227975 
L 129.120585 154.194074 
L 130.604208 152.953393 
L 132.057789 151.092372 
L 133.481325 147.78389 
L 134.874866 150.472032 
L 136.23851 154.917805 
L 137.572401 149.024571 
L 138.876723 151.919493 
L 140.151699 150.058472 
L 141.397586 149.541521 
L 142.614675 154.400854 
L 143.803282 145.199139 
L 144.963751 145.716089 
L 146.09645 147.99067 
L 147.201766 149.024571 
L 148.280105 148.404231 
L 149.33189 150.885592 
L 150.357556 151.919493 
L 151.357553 149.748301 
L 152.332337 150.265252 
L 153.282375 150.265252 
L 154.208141 154.297464 
L 155.110113 148.714401 
L 155.988775 152.229663 
L 156.84461 151.609323 
L 157.678105 149.438131 
L 158.489747 148.09406 
L 159.280022 149.231351 
L 160.049415 149.024571 
L 160.798407 149.644911 
L 161.527477 152.333053 
L 162.2371 150.988982 
L 162.927747 150.161862 
L 163.599882 152.746613 
L 164.253966 150.885592 
L 164.890452 150.368642 
L 165.509787 149.644911 
L 166.112411 150.368642 
L 166.69876 150.885592 
L 167.269257 150.472032 
L 167.824323 151.195762 
L 168.364367 149.024571 
L 168.889794 150.161862 
L 169.400997 152.333053 
L 169.898365 149.955082 
L 170.853101 151.712713 
L 171.756933 149.127961 
L 172.190641 150.885592 
L 172.612664 151.299152 
L 173.023331 150.782202 
L 173.422965 150.058472 
L 173.811879 149.851692 
L 174.190379 150.575422 
L 174.558763 150.058472 
L 174.917322 150.575422 
L 175.266339 149.231351 
L 175.60609 151.402543 
L 175.936841 151.092372 
L 176.258855 150.368642 
L 176.572385 150.575422 
L 176.877677 150.988982 
L 177.174972 150.678812 
L 177.464503 151.299152 
L 178.288747 151.402543 
L 178.549425 152.126273 
L 178.803411 151.402543 
L 179.050899 151.816103 
L 179.292081 151.299152 
L 179.527141 149.851692 
L 179.979607 150.782202 
L 180.197356 150.678812 
L 180.40967 150.368642 
L 180.616707 150.472032 
L 180.818622 150.058472 
L 181.015564 151.092372 
L 181.207678 149.748301 
L 181.395106 150.472032 
L 181.577983 150.058472 
L 181.756442 151.712713 
L 181.930611 150.885592 
L 182.100615 151.195762 
L 182.586822 150.885592 
L 182.741334 150.472032 
L 182.892249 151.092372 
L 183.183693 150.265252 
L 183.32442 150.885592 
L 183.461943 150.472032 
L 183.596353 151.712713 
L 183.72774 151.299152 
L 183.981779 149.748301 
L 184.224714 151.092372 
L 184.45716 150.575422 
L 184.56963 150.885592 
L 184.679692 151.712713 
L 184.892852 150.265252 
L 184.996078 150.988982 
L 185.09715 150.368642 
L 185.196126 150.885592 
L 185.388017 150.575422 
L 185.661507 151.299152 
L 185.749048 150.782202 
L 185.834857 151.299152 
L 186.001464 150.678812 
L 186.08235 150.782202 
L 186.239494 151.299152 
L 186.315833 150.885592 
L 186.464235 151.195762 
L 186.536372 150.161862 
L 186.607178 150.265252 
L 186.676689 150.988982 
L 186.744937 150.575422 
L 186.811954 150.988982 
L 186.877771 150.368642 
L 187.005922 150.988982 
L 187.129621 150.678812 
L 187.18987 150.885592 
L 187.307292 150.058472 
L 187.364516 150.265252 
L 187.476108 151.092372 
L 187.584042 150.885592 
L 187.63669 151.092372 
L 187.688488 150.885592 
L 187.739454 150.988982 
L 187.789608 150.885592 
L 187.887555 150.265252 
L 188.074497 151.816103 
L 188.163756 150.265252 
L 188.207388 150.885592 
L 188.250373 150.782202 
L 188.292727 150.885592 
L 188.375593 151.195762 
L 188.416132 150.988982 
L 188.495487 151.402543 
L 188.534326 150.472032 
L 188.610388 151.299152 
L 188.68437 151.092372 
L 188.720607 150.472032 
L 188.791626 150.575422 
L 188.894661 151.299152 
L 188.928112 150.575422 
L 188.993725 150.885592 
L 189.057678 150.678812 
L 189.089051 151.609323 
L 189.240192 150.472032 
L 189.382436 151.092372 
L 189.409888 150.678812 
L 189.463846 151.299152 
L 189.490362 150.885592 
L 189.516577 151.092372 
L 189.568126 150.265252 
L 189.59347 151.299152 
L 189.618534 150.988982 
L 189.643323 151.402543 
L 189.692093 150.472032 
L 189.716084 150.885592 
L 189.739819 150.988982 
L 189.7633 150.885592 
L 189.832274 150.472032 
L 189.809524 151.092372 
L 189.87707 150.678812 
L 189.899124 151.195762 
L 189.942562 150.472032 
L 189.985131 151.092372 
L 190.047417 150.885592 
L 190.067775 151.402543 
L 190.1079 150.678812 
L 190.147261 150.885592 
L 190.166663 150.678812 
L 190.204921 151.299152 
L 190.223784 151.092372 
L 190.242472 151.299152 
L 190.260989 150.678812 
L 190.297518 150.885592 
L 190.351087 150.575422 
L 190.368627 150.988982 
L 190.386012 150.678812 
L 190.403244 151.299152 
L 190.420326 150.472032 
L 190.487196 151.092372 
L 190.61434 150.161862 
L 190.535872 151.195762 
L 190.629651 150.368642 
L 190.659905 151.195762 
L 190.73346 150.782202 
L 190.747827 150.265252 
L 190.762083 151.092372 
L 190.845365 150.472032 
L 190.858882 150.472032 
L 190.885616 151.195762 
L 190.950759 150.575422 
L 190.963507 150.265252 
L 191.001209 151.505933 
L 191.038121 150.575422 
L 191.12133 151.299152 
L 191.144387 150.885592 
L 191.1558 150.885592 
L 191.178402 149.541521 
L 191.211752 151.195762 
L 191.222725 151.816103 
L 191.255223 150.782202 
L 191.308027 150.988982 
L 191.349099 150.265252 
L 191.35921 151.195762 
L 191.408855 151.195762 
L 191.494578 150.265252 
L 191.437935 151.299152 
L 191.567127 150.678812 
L 191.575967 151.919493 
L 191.619444 149.955082 
L 191.678356 151.609323 
L 191.758813 150.265252 
L 191.789848 151.092372 
L 191.886521 151.505933 
L 191.842676 150.472032 
L 191.893705 151.092372 
L 191.98404 150.472032 
L 191.963682 151.712713 
L 191.997455 150.575422 
L 192.004116 151.402543 
L 192.023917 150.161862 
L 192.10669 150.678812 
L 192.14933 150.368642 
L 192.155317 151.299152 
L 192.202303 150.885592 
L 192.219518 151.402543 
L 192.258861 150.058472 
L 192.275379 150.678812 
L 192.370419 151.505933 
L 192.390641 149.541521 
L 192.439859 151.712713 
L 192.51031 151.195762 
L 192.537423 149.851692 
L 192.572677 151.402543 
L 192.615366 150.678812 
L 192.619554 151.402543 
L 192.700373 150.161862 
L 192.727402 151.195762 
L 192.826096 150.058472 
L 192.829591 151.609323 
L 192.840012 150.161862 
L 192.853756 151.816103 
L 192.945425 149.644911 
L 192.951684 150.678812 
L 193.029843 151.505933 
L 192.973306 150.058472 
L 193.06402 150.885592 
L 193.066817 150.885592 
L 193.157542 151.505933 
L 193.09979 150.058472 
L 193.17272 151.195762 
L 193.247521 149.955082 
L 193.216867 151.712713 
L 193.283918 151.092372 
L 193.286146 151.092372 
L 193.391064 150.265252 
L 193.305957 151.816103 
L 193.398944 150.885592 
L 193.404808 150.885592 
L 193.448487 151.505933 
L 193.418338 150.368642 
L 193.512624 151.092372 
L 193.604892 150.368642 
L 193.519454 151.299152 
L 193.624516 150.885592 
L 193.653768 151.505933 
L 193.637817 150.472032 
L 193.659488 150.988982 
" clip-path="url(#p8d74540b5b)" style="fill: none; stroke: #1f77b4; stroke-width: 0.7; stroke-linecap: square"/>
   </g>
   <g id="line2d_32">
    <path d="M 32.760609 150.885592 
L 195.143741 150.885592 
" clip-path="url(#p8d74540b5b)" style="fill: none; stroke-dasharray: 2.59,1.12; stroke-dashoffset: 0; stroke: #000000; stroke-width: 0.7"/>
   </g>
   <g id="patch_6">
    <path d="M 30.711563 197.265729 
L 30.711563 119.432396 
" style="fill: none; stroke: #000000; stroke-width: 0.5; stroke-linejoin: miter; stroke-linecap: square"/>
   </g>
   <g id="patch_7">
    <path d="M 30.711563 197.265729 
L 197.192788 197.265729 
" style="fill: none; stroke: #000000; stroke-width: 0.5; stroke-linejoin: miter; stroke-linecap: square"/>
   </g>
   <g id="text_16">
    <!-- $I(R;Y)$ difference -->
    <g transform="translate(89.082175 113.432396) scale(0.06 -0.06)">
     <use xlink:href="#DejaVuSans-Oblique-49" transform="translate(0 0.015625)"/>
     <use xlink:href="#DejaVuSans-28" transform="translate(29.492188 0.015625)"/>
     <use xlink:href="#DejaVuSans-Oblique-52" transform="translate(68.505859 0.015625)"/>
     <use xlink:href="#DejaVuSans-3b" transform="translate(137.988281 0.015625)"/>
     <use xlink:href="#DejaVuSans-Oblique-59" transform="translate(191.162109 0.015625)"/>
     <use xlink:href="#DejaVuSans-29" transform="translate(252.246094 0.015625)"/>
     <use xlink:href="#DejaVuSans-20" transform="translate(291.259766 0.015625)"/>
     <use xlink:href="#DejaVuSans-64" transform="translate(323.046875 0.015625)"/>
     <use xlink:href="#DejaVuSans-69" transform="translate(386.523438 0.015625)"/>
     <use xlink:href="#DejaVuSans-66" transform="translate(414.306641 0.015625)"/>
     <use xlink:href="#DejaVuSans-66" transform="translate(449.511719 0.015625)"/>
     <use xlink:href="#DejaVuSans-65" transform="translate(484.716797 0.015625)"/>
     <use xlink:href="#DejaVuSans-72" transform="translate(546.240234 0.015625)"/>
     <use xlink:href="#DejaVuSans-65" transform="translate(587.353516 0.015625)"/>
     <use xlink:href="#DejaVuSans-6e" transform="translate(648.876953 0.015625)"/>
     <use xlink:href="#DejaVuSans-63" transform="translate(712.255859 0.015625)"/>
     <use xlink:href="#DejaVuSans-65" transform="translate(767.236328 0.015625)"/>
    </g>
   </g>
  </g>
  <g id="axes_3">
   <g id="patch_8">
    <path d="M 30.711563 298.939062 
L 197.192788 298.939062 
L 197.192788 221.105729 
L 30.711563 221.105729 
z
" style="fill: #ffffff"/>
   </g>
   <g id="matplotlib.axis_5">
    <g id="xtick_19">
     <g id="line2d_33">
      <g>
       <use xlink:href="#m6aef68c51d" x="32.760609" y="298.939062" style="stroke: #000000; stroke-width: 0.5"/>
      </g>
     </g>
     <g id="text_17">
      <!-- 0.0 -->
      <g transform="translate(28.784828 308.238281) scale(0.05 -0.05)">
       <defs>
        <path id="DejaVuSans-2e" d="M 684 794 
L 1344 794 
L 1344 0 
L 684 0 
L 684 794 
z
" transform="scale(0.015625)"/>
       </defs>
       <use xlink:href="#DejaVuSans-30"/>
       <use xlink:href="#DejaVuSans-2e" x="63.623047"/>
       <use xlink:href="#DejaVuSans-30" x="95.410156"/>
      </g>
     </g>
    </g>
    <g id="xtick_20">
     <g id="line2d_34">
      <g>
       <use xlink:href="#m6aef68c51d" x="53.251079" y="298.939062" style="stroke: #000000; stroke-width: 0.5"/>
      </g>
     </g>
     <g id="text_18">
      <!-- 0.2 -->
      <g transform="translate(49.275298 308.238281) scale(0.05 -0.05)">
       <use xlink:href="#DejaVuSans-30"/>
       <use xlink:href="#DejaVuSans-2e" x="63.623047"/>
       <use xlink:href="#DejaVuSans-32" x="95.410156"/>
      </g>
     </g>
    </g>
    <g id="xtick_21">
     <g id="line2d_35">
      <g>
       <use xlink:href="#m6aef68c51d" x="73.741549" y="298.939062" style="stroke: #000000; stroke-width: 0.5"/>
      </g>
     </g>
     <g id="text_19">
      <!-- 0.4 -->
      <g transform="translate(69.765768 308.238281) scale(0.05 -0.05)">
       <use xlink:href="#DejaVuSans-30"/>
       <use xlink:href="#DejaVuSans-2e" x="63.623047"/>
       <use xlink:href="#DejaVuSans-34" x="95.410156"/>
      </g>
     </g>
    </g>
    <g id="xtick_22">
     <g id="line2d_36">
      <g>
       <use xlink:href="#m6aef68c51d" x="94.232019" y="298.939062" style="stroke: #000000; stroke-width: 0.5"/>
      </g>
     </g>
     <g id="text_20">
      <!-- 0.6 -->
      <g transform="translate(90.256238 308.238281) scale(0.05 -0.05)">
       <use xlink:href="#DejaVuSans-30"/>
       <use xlink:href="#DejaVuSans-2e" x="63.623047"/>
       <use xlink:href="#DejaVuSans-36" x="95.410156"/>
      </g>
     </g>
    </g>
    <g id="xtick_23">
     <g id="line2d_37">
      <g>
       <use xlink:href="#m6aef68c51d" x="114.722489" y="298.939062" style="stroke: #000000; stroke-width: 0.5"/>
      </g>
     </g>
     <g id="text_21">
      <!-- 0.8 -->
      <g transform="translate(110.746708 308.238281) scale(0.05 -0.05)">
       <defs>
        <path id="DejaVuSans-38" d="M 2034 2216 
Q 1584 2216 1326 1975 
Q 1069 1734 1069 1313 
Q 1069 891 1326 650 
Q 1584 409 2034 409 
Q 2484 409 2743 651 
Q 3003 894 3003 1313 
Q 3003 1734 2745 1975 
Q 2488 2216 2034 2216 
z
M 1403 2484 
Q 997 2584 770 2862 
Q 544 3141 544 3541 
Q 544 4100 942 4425 
Q 1341 4750 2034 4750 
Q 2731 4750 3128 4425 
Q 3525 4100 3525 3541 
Q 3525 3141 3298 2862 
Q 3072 2584 2669 2484 
Q 3125 2378 3379 2068 
Q 3634 1759 3634 1313 
Q 3634 634 3220 271 
Q 2806 -91 2034 -91 
Q 1263 -91 848 271 
Q 434 634 434 1313 
Q 434 1759 690 2068 
Q 947 2378 1403 2484 
z
M 1172 3481 
Q 1172 3119 1398 2916 
Q 1625 2713 2034 2713 
Q 2441 2713 2670 2916 
Q 2900 3119 2900 3481 
Q 2900 3844 2670 4047 
Q 2441 4250 2034 4250 
Q 1625 4250 1398 4047 
Q 1172 3844 1172 3481 
z
" transform="scale(0.015625)"/>
       </defs>
       <use xlink:href="#DejaVuSans-30"/>
       <use xlink:href="#DejaVuSans-2e" x="63.623047"/>
       <use xlink:href="#DejaVuSans-38" x="95.410156"/>
      </g>
     </g>
    </g>
    <g id="xtick_24">
     <g id="line2d_38">
      <g>
       <use xlink:href="#m6aef68c51d" x="135.212959" y="298.939062" style="stroke: #000000; stroke-width: 0.5"/>
      </g>
     </g>
     <g id="text_22">
      <!-- 1.0 -->
      <g transform="translate(131.237178 308.238281) scale(0.05 -0.05)">
       <use xlink:href="#DejaVuSans-31"/>
       <use xlink:href="#DejaVuSans-2e" x="63.623047"/>
       <use xlink:href="#DejaVuSans-30" x="95.410156"/>
      </g>
     </g>
    </g>
    <g id="xtick_25">
     <g id="line2d_39">
      <g>
       <use xlink:href="#m6aef68c51d" x="155.703429" y="298.939062" style="stroke: #000000; stroke-width: 0.5"/>
      </g>
     </g>
     <g id="text_23">
      <!-- 1.2 -->
      <g transform="translate(151.727647 308.238281) scale(0.05 -0.05)">
       <use xlink:href="#DejaVuSans-31"/>
       <use xlink:href="#DejaVuSans-2e" x="63.623047"/>
       <use xlink:href="#DejaVuSans-32" x="95.410156"/>
      </g>
     </g>
    </g>
    <g id="xtick_26">
     <g id="line2d_40">
      <g>
       <use xlink:href="#m6aef68c51d" x="176.193899" y="298.939062" style="stroke: #000000; stroke-width: 0.5"/>
      </g>
     </g>
     <g id="text_24">
      <!-- 1.4 -->
      <g transform="translate(172.218117 308.238281) scale(0.05 -0.05)">
       <use xlink:href="#DejaVuSans-31"/>
       <use xlink:href="#DejaVuSans-2e" x="63.623047"/>
       <use xlink:href="#DejaVuSans-34" x="95.410156"/>
      </g>
     </g>
    </g>
    <g id="xtick_27">
     <g id="line2d_41">
      <g>
       <use xlink:href="#m6aef68c51d" x="196.684368" y="298.939062" style="stroke: #000000; stroke-width: 0.5"/>
      </g>
     </g>
     <g id="text_25">
      <!-- 1.6 -->
      <g transform="translate(192.708587 308.238281) scale(0.05 -0.05)">
       <use xlink:href="#DejaVuSans-31"/>
       <use xlink:href="#DejaVuSans-2e" x="63.623047"/>
       <use xlink:href="#DejaVuSans-36" x="95.410156"/>
      </g>
     </g>
    </g>
   </g>
   <g id="matplotlib.axis_6">
    <g id="ytick_11">
     <g id="line2d_42">
      <g>
       <use xlink:href="#mcff14e4b62" x="30.711563" y="295.401184" style="stroke: #000000; stroke-width: 0.5"/>
      </g>
     </g>
     <g id="text_26">
      <!-- 0.0 -->
      <g transform="translate(17.26 297.300793) scale(0.05 -0.05)">
       <use xlink:href="#DejaVuSans-30"/>
       <use xlink:href="#DejaVuSans-2e" x="63.623047"/>
       <use xlink:href="#DejaVuSans-30" x="95.410156"/>
      </g>
     </g>
    </g>
    <g id="ytick_12">
     <g id="line2d_43">
      <g>
       <use xlink:href="#mcff14e4b62" x="30.711563" y="281.905629" style="stroke: #000000; stroke-width: 0.5"/>
      </g>
     </g>
     <g id="text_27">
      <!-- 0.2 -->
      <g transform="translate(17.26 283.805238) scale(0.05 -0.05)">
       <use xlink:href="#DejaVuSans-30"/>
       <use xlink:href="#DejaVuSans-2e" x="63.623047"/>
       <use xlink:href="#DejaVuSans-32" x="95.410156"/>
      </g>
     </g>
    </g>
    <g id="ytick_13">
     <g id="line2d_44">
      <g>
       <use xlink:href="#mcff14e4b62" x="30.711563" y="268.410074" style="stroke: #000000; stroke-width: 0.5"/>
      </g>
     </g>
     <g id="text_28">
      <!-- 0.4 -->
      <g transform="translate(17.26 270.309683) scale(0.05 -0.05)">
       <use xlink:href="#DejaVuSans-30"/>
       <use xlink:href="#DejaVuSans-2e" x="63.623047"/>
       <use xlink:href="#DejaVuSans-34" x="95.410156"/>
      </g>
     </g>
    </g>
    <g id="ytick_14">
     <g id="line2d_45">
      <g>
       <use xlink:href="#mcff14e4b62" x="30.711563" y="254.914519" style="stroke: #000000; stroke-width: 0.5"/>
      </g>
     </g>
     <g id="text_29">
      <!-- 0.6 -->
      <g transform="translate(17.26 256.814128) scale(0.05 -0.05)">
       <use xlink:href="#DejaVuSans-30"/>
       <use xlink:href="#DejaVuSans-2e" x="63.623047"/>
       <use xlink:href="#DejaVuSans-36" x="95.410156"/>
      </g>
     </g>
    </g>
    <g id="ytick_15">
     <g id="line2d_46">
      <g>
       <use xlink:href="#mcff14e4b62" x="30.711563" y="241.418964" style="stroke: #000000; stroke-width: 0.5"/>
      </g>
     </g>
     <g id="text_30">
      <!-- 0.8 -->
      <g transform="translate(17.26 243.318573) scale(0.05 -0.05)">
       <use xlink:href="#DejaVuSans-30"/>
       <use xlink:href="#DejaVuSans-2e" x="63.623047"/>
       <use xlink:href="#DejaVuSans-38" x="95.410156"/>
      </g>
     </g>
    </g>
    <g id="ytick_16">
     <g id="line2d_47">
      <g>
       <use xlink:href="#mcff14e4b62" x="30.711563" y="227.923409" style="stroke: #000000; stroke-width: 0.5"/>
      </g>
     </g>
     <g id="text_31">
      <!-- 1.0 -->
      <g transform="translate(17.26 229.823018) scale(0.05 -0.05)">
       <use xlink:href="#DejaVuSans-31"/>
       <use xlink:href="#DejaVuSans-2e" x="63.623047"/>
       <use xlink:href="#DejaVuSans-30" x="95.410156"/>
      </g>
     </g>
    </g>
    <g id="text_32">
     <!-- max $\Delta p(r|x)$ (softmax-IB bound) -->
     <g transform="translate(11.82 307.722396) rotate(-90) scale(0.06 -0.06)">
      <defs>
       <path id="DejaVuSans-Oblique-70" d="M 3175 2156 
Q 3175 2616 2975 2859 
Q 2775 3103 2400 3103 
Q 2144 3103 1911 2972 
Q 1678 2841 1497 2591 
Q 1319 2344 1212 1994 
Q 1106 1644 1106 1300 
Q 1106 863 1306 627 
Q 1506 391 1875 391 
Q 2147 391 2380 519 
Q 2613 647 2778 891 
Q 2956 1147 3065 1494 
Q 3175 1841 3175 2156 
z
M 1394 2969 
Q 1625 3272 1939 3428 
Q 2253 3584 2638 3584 
Q 3175 3584 3472 3232 
Q 3769 2881 3769 2247 
Q 3769 1728 3584 1258 
Q 3400 788 3053 416 
Q 2822 169 2531 39 
Q 2241 -91 1919 -91 
Q 1547 -91 1294 64 
Q 1041 219 916 525 
L 556 -1331 
L -19 -1331 
L 922 3500 
L 1497 3500 
L 1394 2969 
z
" transform="scale(0.015625)"/>
       <path id="DejaVuSans-Oblique-72" d="M 2853 2969 
Q 2766 3016 2653 3041 
Q 2541 3066 2413 3066 
Q 1953 3066 1609 2717 
Q 1266 2369 1153 1784 
L 800 0 
L 225 0 
L 909 3500 
L 1484 3500 
L 1375 2956 
Q 1603 3259 1920 3421 
Q 2238 3584 2597 3584 
Q 2691 3584 2781 3573 
Q 2872 3563 2963 3538 
L 2853 2969 
z
" transform="scale(0.015625)"/>
       <path id="DejaVuSans-7c" d="M 1344 4891 
L 1344 -1509 
L 813 -1509 
L 813 4891 
L 1344 4891 
z
" transform="scale(0.015625)"/>
       <path id="DejaVuSans-Oblique-78" d="M 3841 3500 
L 2234 1784 
L 3219 0 
L 2559 0 
L 1819 1388 
L 531 0 
L -166 0 
L 1556 1844 
L 641 3500 
L 1300 3500 
L 1972 2234 
L 3144 3500 
L 3841 3500 
z
" transform="scale(0.015625)"/>
      </defs>
      <use xlink:href="#DejaVuSans-6d" transform="translate(0 0.578125)"/>
      <use xlink:href="#DejaVuSans-61" transform="translate(97.412109 0.578125)"/>
      <use xlink:href="#DejaVuSans-78" transform="translate(158.691406 0.578125)"/>
      <use xlink:href="#DejaVuSans-20" transform="translate(217.871094 0.578125)"/>
      <use xlink:href="#DejaVuSans-394" transform="translate(249.658203 0.578125)"/>
      <use xlink:href="#DejaVuSans-Oblique-70" transform="translate(318.066406 0.578125)"/>
      <use xlink:href="#DejaVuSans-28" transform="translate(381.542969 0.578125)"/>
      <use xlink:href="#DejaVuSans-Oblique-72" transform="translate(420.556641 0.578125)"/>
      <use xlink:href="#DejaVuSans-7c" transform="translate(461.669922 0.578125)"/>
      <use xlink:href="#DejaVuSans-Oblique-78" transform="translate(495.361328 0.578125)"/>
      <use xlink:href="#DejaVuSans-29" transform="translate(554.541016 0.578125)"/>
      <use xlink:href="#DejaVuSans-20" transform="translate(593.554688 0.578125)"/>
      <use xlink:href="#DejaVuSans-28" transform="translate(625.341797 0.578125)"/>
      <use xlink:href="#DejaVuSans-73" transform="translate(664.355469 0.578125)"/>
      <use xlink:href="#DejaVuSans-6f" transform="translate(716.455078 0.578125)"/>
      <use xlink:href="#DejaVuSans-66" transform="translate(777.636719 0.578125)"/>
      <use xlink:href="#DejaVuSans-74" transform="translate(812.841797 0.578125)"/>
      <use xlink:href="#DejaVuSans-6d" transform="translate(852.050781 0.578125)"/>
      <use xlink:href="#DejaVuSans-61" transform="translate(949.462891 0.578125)"/>
      <use xlink:href="#DejaVuSans-78" transform="translate(1010.742188 0.578125)"/>
      <use xlink:href="#DejaVuSans-2d" transform="translate(1069.921875 0.578125)"/>
      <use xlink:href="#DejaVuSans-49" transform="translate(1106.005859 0.578125)"/>
      <use xlink:href="#DejaVuSans-42" transform="translate(1135.498047 0.578125)"/>
      <use xlink:href="#DejaVuSans-20" transform="translate(1204.101562 0.578125)"/>
      <use xlink:href="#DejaVuSans-62" transform="translate(1235.888672 0.578125)"/>
      <use xlink:href="#DejaVuSans-6f" transform="translate(1299.365234 0.578125)"/>
      <use xlink:href="#DejaVuSans-75" transform="translate(1360.546875 0.578125)"/>
      <use xlink:href="#DejaVuSans-6e" transform="translate(1423.925781 0.578125)"/>
      <use xlink:href="#DejaVuSans-64" transform="translate(1487.304688 0.578125)"/>
      <use xlink:href="#DejaVuSans-29" transform="translate(1550.78125 0.578125)"/>
     </g>
    </g>
    <g id="text_33">
     <!-- 1e−13 -->
     <g transform="translate(30.711563 218.105729) scale(0.05 -0.05)">
      <defs>
       <path id="DejaVuSans-33" d="M 2597 2516 
Q 3050 2419 3304 2112 
Q 3559 1806 3559 1356 
Q 3559 666 3084 287 
Q 2609 -91 1734 -91 
Q 1441 -91 1130 -33 
Q 819 25 488 141 
L 488 750 
Q 750 597 1062 519 
Q 1375 441 1716 441 
Q 2309 441 2620 675 
Q 2931 909 2931 1356 
Q 2931 1769 2642 2001 
Q 2353 2234 1838 2234 
L 1294 2234 
L 1294 2753 
L 1863 2753 
Q 2328 2753 2575 2939 
Q 2822 3125 2822 3475 
Q 2822 3834 2567 4026 
Q 2313 4219 1838 4219 
Q 1578 4219 1281 4162 
Q 984 4106 628 3988 
L 628 4550 
Q 988 4650 1302 4700 
Q 1616 4750 1894 4750 
Q 2613 4750 3031 4423 
Q 3450 4097 3450 3541 
Q 3450 3153 3228 2886 
Q 3006 2619 2597 2516 
z
" transform="scale(0.015625)"/>
      </defs>
      <use xlink:href="#DejaVuSans-31"/>
      <use xlink:href="#DejaVuSans-65" x="63.623047"/>
      <use xlink:href="#DejaVuSans-2212" x="125.146484"/>
      <use xlink:href="#DejaVuSans-31" x="208.935547"/>
      <use xlink:href="#DejaVuSans-33" x="272.558594"/>
     </g>
    </g>
   </g>
   <g id="line2d_48">
    <path d="M 32.791677 268.05707 
L 32.886019 229.775311 
L 33.270759 242.77313 
L 33.563875 240.263465 
L 33.925674 224.643608 
L 34.357064 251.68806 
L 34.858754 267.57012 
L 35.431247 242.623299 
L 36.074836 285.025404 
L 36.789592 249.702802 
L 37.575371 240.525668 
L 38.431802 250.002464 
L 39.358294 226.479035 
L 40.354032 265.210286 
L 41.417984 285.062861 
L 42.548904 270.454362 
L 43.745337 272.551993 
L 45.005628 269.855039 
L 46.327931 281.466923 
L 47.71022 243.784487 
L 49.150299 285.062861 
L 50.645816 258.093325 
L 52.194275 269.180801 
L 53.793053 273.90047 
L 55.439412 280.792685 
L 57.130515 276.672339 
L 58.863445 276.447593 
L 60.635215 281.8415 
L 62.442789 292.854061 
L 64.283094 276.559966 
L 66.153036 282.440823 
L 68.049516 284.538454 
L 69.969444 265.322659 
L 71.909751 288.80863 
L 73.867401 284.987946 
L 75.839409 278.76997 
L 77.822843 280.680312 
L 79.814841 289.183207 
L 81.812617 287.460154 
L 83.813471 269.780124 
L 85.814794 289.033376 
L 87.814077 281.991331 
L 89.808913 288.583884 
L 91.797004 287.085577 
L 93.776163 284.987946 
L 95.744318 287.759815 
L 97.699511 292.554399 
L 99.639902 292.741688 
L 101.563767 291.280838 
L 103.469501 288.883546 
L 105.355611 291.24338 
L 107.220722 292.554399 
L 109.063567 294.65203 
L 110.882993 293.003892 
L 112.67795 289.482869 
L 114.447494 284.238792 
L 116.190781 293.116265 
L 117.907062 288.508969 
L 119.595685 293.453384 
L 121.256081 289.407953 
L 122.887771 293.753045 
L 124.490355 293.228638 
L 126.063508 290.793888 
L 127.606979 293.228638 
L 129.120585 289.29558 
L 130.604208 293.528299 
L 132.057789 294.464741 
L 133.481325 292.479484 
L 134.874866 292.779145 
L 136.23851 290.606599 
L 137.572401 292.029992 
L 138.876723 293.827961 
L 141.397586 292.254738 
L 142.614675 293.827961 
L 143.803282 290.606599 
L 144.963751 289.707615 
L 146.09645 291.955076 
L 147.201766 294.577115 
L 149.33189 290.831346 
L 150.357556 293.977792 
L 151.357553 293.228638 
L 152.332337 294.726945 
L 153.282375 294.839318 
L 154.208141 291.655415 
L 155.110113 293.453384 
L 155.988775 293.67813 
L 156.84461 294.202538 
L 157.678105 293.977792 
L 158.489747 293.603215 
L 159.280022 293.378468 
L 160.049415 292.928976 
L 160.798407 293.153722 
L 161.527477 293.603215 
L 162.2371 294.801861 
L 163.599882 292.404569 
L 164.890452 293.753045 
L 165.509787 293.003892 
L 166.112411 294.352368 
L 166.69876 293.603215 
L 167.269257 294.277453 
L 167.824323 294.65203 
L 168.364367 291.056092 
L 168.889794 294.277453 
L 169.400997 293.453384 
L 169.898365 291.805246 
L 170.382276 293.153722 
L 171.311202 293.153722 
L 171.756933 292.629315 
L 172.190641 293.902876 
L 172.612664 294.726945 
L 173.023331 293.228638 
L 173.811879 294.127622 
L 174.190379 294.427284 
L 174.558763 293.902876 
L 174.917322 293.003892 
L 175.266339 293.228638 
L 175.60609 294.127622 
L 175.936841 294.539657 
L 176.258855 292.254738 
L 176.572385 294.202538 
L 176.877677 294.127622 
L 177.174972 293.303553 
L 177.464503 291.955076 
L 177.746496 293.603215 
L 178.021173 292.104907 
L 178.288747 294.277453 
L 178.549425 293.378468 
L 178.803411 293.827961 
L 179.050899 293.453384 
L 179.292081 293.977792 
L 179.527141 294.127622 
L 179.756258 292.70423 
L 180.197356 294.052707 
L 180.40967 293.378468 
L 180.616707 293.902876 
L 180.818622 292.479484 
L 181.015564 293.603215 
L 181.207678 290.981176 
L 181.395106 294.539657 
L 181.577983 292.70423 
L 181.930611 294.65203 
L 182.100615 293.827961 
L 182.266574 294.801861 
L 182.428605 293.565757 
L 182.586822 294.202538 
L 182.741334 293.303553 
L 182.892249 294.577115 
L 183.039668 294.127622 
L 183.183693 292.329653 
L 183.32442 293.977792 
L 183.461943 292.254738 
L 183.596353 293.003892 
L 183.72774 294.427284 
L 183.856187 292.254738 
L 183.981779 292.779145 
L 184.104595 292.404569 
L 184.342211 294.352368 
L 184.45716 293.303553 
L 184.56963 289.482869 
L 184.787411 294.65203 
L 184.892852 293.453384 
L 184.996078 293.902876 
L 185.09715 293.565757 
L 185.196126 292.404569 
L 185.293063 293.977792 
L 185.388017 292.104907 
L 185.481042 293.902876 
L 185.572188 293.827961 
L 185.661507 293.453384 
L 185.749048 294.502199 
L 186.001464 292.179822 
L 186.161679 294.352368 
L 186.239494 291.430669 
L 186.390734 293.003892 
L 186.536372 291.655415 
L 186.676689 294.052707 
L 186.744937 292.404569 
L 186.877771 294.127622 
L 186.942417 292.404569 
L 187.005922 293.041349 
L 187.249085 294.052707 
L 187.307292 292.404569 
L 187.364516 292.629315 
L 187.420781 292.479484 
L 187.530521 294.539657 
L 187.584042 293.528299 
L 187.63669 293.753045 
L 187.688488 293.902876 
L 187.739454 290.906261 
L 187.789608 293.490842 
L 187.838969 292.629315 
L 187.887555 293.378468 
L 187.935384 293.078807 
L 187.982472 293.303553 
L 188.028838 294.427284 
L 188.074497 292.854061 
L 188.119464 294.277453 
L 188.163756 291.805246 
L 188.207388 293.753045 
L 188.250373 293.753045 
L 188.292727 294.277453 
L 188.334462 293.603215 
L 188.416132 294.427284 
L 188.456093 292.21728 
L 188.534326 293.977792 
L 188.572623 293.453384 
L 188.610388 292.928976 
L 188.647634 290.306938 
L 188.68437 293.528299 
L 188.720607 290.75643 
L 188.860769 293.453384 
L 188.894661 289.445411 
L 188.96113 293.603215 
L 188.993725 294.502199 
L 189.025905 292.70423 
L 189.057678 292.629315 
L 189.089051 291.131007 
L 189.120032 293.490842 
L 189.15063 292.404569 
L 189.210703 293.640672 
L 189.269326 293.378468 
L 189.354659 291.655415 
L 189.409888 292.179822 
L 189.437023 294.052707 
L 189.490362 291.580499 
L 189.516577 293.827961 
L 189.59347 288.546427 
L 189.618534 293.378468 
L 189.667841 292.629315 
L 189.692093 293.303553 
L 189.716084 294.239995 
L 189.739819 291.280838 
L 189.809524 293.753045 
L 189.920953 291.205922 
L 189.899124 294.052707 
L 189.942562 293.003892 
L 189.985131 291.131007 
L 190.047417 286.785915 
L 190.067775 291.73033 
L 190.087934 291.430669 
L 190.127675 294.202538 
L 190.204921 293.228638 
L 190.223784 291.543042 
L 190.242472 293.753045 
L 190.315535 292.104907 
L 190.333391 293.902876 
L 190.386012 290.831346 
L 190.403244 291.73033 
L 190.437261 291.880161 
L 190.454049 289.183207 
L 190.470693 294.502199 
L 190.567649 290.344396 
L 190.61434 288.958461 
L 190.704386 293.116265 
L 190.845365 290.306938 
L 190.924986 293.827961 
L 190.950759 292.966434 
L 191.013599 284.538454 
L 191.038121 293.603215 
L 191.062304 291.880161 
L 191.086156 291.580499 
L 191.09796 293.303553 
L 191.144387 288.583884 
L 191.167138 291.73033 
L 191.178402 287.235407 
L 191.265917 294.352368 
L 191.276545 291.131007 
L 191.287105 293.790503 
L 191.297599 287.872188 
L 191.379248 293.378468 
L 191.457037 288.209307 
L 191.428299 293.453384 
L 191.494578 289.969819 
L 191.531264 294.277453 
L 191.558236 287.759815 
L 191.602197 293.67813 
L 191.636504 287.460154 
L 191.727133 287.984561 
L 191.805131 292.816603 
L 191.758813 286.261507 
L 191.842676 291.205922 
L 191.900854 293.67813 
L 191.893705 288.733715 
L 191.943037 291.280838 
L 192.036968 285.062861 
L 191.963682 293.753045 
L 192.056324 287.235407 
L 192.062718 292.966434 
L 192.094265 284.126419 
L 192.167214 292.104907 
L 192.25331 286.036761 
L 192.26439 294.427284 
L 192.280841 288.958461 
L 192.375504 284.538454 
L 192.36019 292.928976 
L 192.385614 290.494226 
L 192.439859 281.392008 
L 192.425289 293.228638 
L 192.487259 285.287608 
L 192.505733 293.453384 
L 192.585641 277.9459 
L 192.59847 289.183207 
L 192.660649 284.575911 
L 192.672706 293.565757 
L 192.676699 278.732512 
L 192.783283 289.857446 
L 192.826096 279.294377 
L 192.880743 292.554399 
L 192.890695 282.852858 
L 192.913567 293.153722 
L 192.945425 273.188774 
L 193.003444 292.928976 
L 193.091647 281.8415 
L 193.110544 293.266095 
L 193.113215 291.805246 
L 193.160088 279.032173 
L 193.185188 292.779145 
L 193.216867 279.818785 
L 193.219261 292.648044 
L 193.301592 273.825554 
L 193.329598 289.932361 
L 193.387097 293.116265 
L 193.381112 275.9981 
L 193.435428 291.205922 
L 193.448487 273.001485 
L 193.524539 292.966434 
L 193.54786 286.074219 
L 193.5495 286.111677 
L 193.61853 274.911827 
L 193.649451 292.629315 
L 193.659488 280.080989 
" clip-path="url(#p19ed7006eb)" style="fill: none; stroke: #1f77b4; stroke-width: 0.7; stroke-linecap: square"/>
   </g>
   <g id="line2d_49">
    <path d="M 32.760609 295.401184 
L 195.143741 295.401184 
" clip-path="url(#p19ed7006eb)" style="fill: none; stroke-dasharray: 2.59,1.12; stroke-dashoffset: 0; stroke: #000000; stroke-width: 0.7"/>
   </g>
   <g id="patch_9">
    <path d="M 30.711563 298.939062 
L 30.711563 221.105729 
" style="fill: none; stroke: #000000; stroke-width: 0.5; stroke-linejoin: miter; stroke-linecap: square"/>
   </g>
   <g id="patch_10">
    <path d="M 30.711563 298.939062 
L 197.192788 298.939062 
" style="fill: none; stroke: #000000; stroke-width: 0.5; stroke-linejoin: miter; stroke-linecap: square"/>
   </g>
   <g id="text_34">
    <!-- max $p(r|x)$ difference -->
    <g transform="translate(82.062175 215.105729) scale(0.06 -0.06)">
     <use xlink:href="#DejaVuSans-6d" transform="translate(0 0.578125)"/>
     <use xlink:href="#DejaVuSans-61" transform="translate(97.412109 0.578125)"/>
     <use xlink:href="#DejaVuSans-78" transform="translate(158.691406 0.578125)"/>
     <use xlink:href="#DejaVuSans-20" transform="translate(217.871094 0.578125)"/>
     <use xlink:href="#DejaVuSans-Oblique-70" transform="translate(249.658203 0.578125)"/>
     <use xlink:href="#DejaVuSans-28" transform="translate(313.134766 0.578125)"/>
     <use xlink:href="#DejaVuSans-Oblique-72" transform="translate(352.148438 0.578125)"/>
     <use xlink:href="#DejaVuSans-7c" transform="translate(393.261719 0.578125)"/>
     <use xlink:href="#DejaVuSans-Oblique-78" transform="translate(426.953125 0.578125)"/>
     <use xlink:href="#DejaVuSans-29" transform="translate(486.132812 0.578125)"/>
     <use xlink:href="#DejaVuSans-20" transform="translate(525.146484 0.578125)"/>
     <use xlink:href="#DejaVuSans-64" transform="translate(556.933594 0.578125)"/>
     <use xlink:href="#DejaVuSans-69" transform="translate(620.410156 0.578125)"/>
     <use xlink:href="#DejaVuSans-66" transform="translate(648.193359 0.578125)"/>
     <use xlink:href="#DejaVuSans-66" transform="translate(683.398438 0.578125)"/>
     <use xlink:href="#DejaVuSans-65" transform="translate(718.603516 0.578125)"/>
     <use xlink:href="#DejaVuSans-72" transform="translate(780.126953 0.578125)"/>
     <use xlink:href="#DejaVuSans-65" transform="translate(821.240234 0.578125)"/>
     <use xlink:href="#DejaVuSans-6e" transform="translate(882.763672 0.578125)"/>
     <use xlink:href="#DejaVuSans-63" transform="translate(946.142578 0.578125)"/>
     <use xlink:href="#DejaVuSans-65" transform="translate(1001.123047 0.578125)"/>
    </g>
   </g>
  </g>
 </g>
 <defs>
  <clipPath id="pd5195155c5">
   <rect x="30.711563" y="17.759062" width="166.481226" height="77.833333"/>
  </clipPath>
  <clipPath id="p8d74540b5b">
   <rect x="30.711563" y="119.432396" width="166.481226" height="77.833333"/>
  </clipPath>
  <clipPath id="p19ed7006eb">
   <rect x="30.711563" y="221.105729" width="166.481226" height="77.833333"/>
  </clipPath>
 </defs>
</svg>
