<?xml version="1.0" encoding="utf-8" standalone="no"?>
<!DOCTYPE svg PUBLIC "-//W3C//DTD SVG 1.1//EN"
  "http://www.w3.org/Graphics/SVG/1.1/DTD/svg11.dtd">
<svg xmlns:xlink="http://www.w3.org/1999/xlink" width="207.86707pt" height="316.478125pt" viewBox="0 0 207.86707 316.478125" xmlns="http://www.w3.org/2000/svg" version="1.1">
 <metadata>
  <rdf:RDF xmlns:dc="http://purl.org/dc/elements/1.1/" xmlns:cc="http://creativecommons.org/ns#" xmlns:rdf="http://www.w3.org/1999/02/22-rdf-syntax-ns#">
   <cc:Work>
    <dc:type rdf:resource="http://purl.org/dc/dcmitype/StillImage"/>
    <dc:date>2026-04-14T21:10:08.623523</dc:date>
    <dc:format>image/svg+xml</dc:format>
    <dc:creator>
     <cc:Agent>
      <dc:title>Matplotlib v3.8.2, https://matplotlib.org/</dc:title>
     </cc:Agent>
    </dc:creator>
   </cc:Work>
  </rdf:RDF>
 </metadata>
 <defs>
  <style type="text/css">*{stroke-linejoin: round; stroke-linecap: butt}</style>
 </defs>
 <g id="figure_1">
  <g id="patch_1">
   <path d="M 0 316.478125 
L 207.86707 316.478125 
L 207.86707 0 
L 0 0 
z
" style="fill: #ffffff"/>
  </g>
  <g id="axes_1">
   <g id="patch_2">
    <path d="M 30.711563 95.592396 
L 199.945793 95.592396 
L 199.945793 17.759062 
L 30.711563 17.759062 
z
" style="fill: #ffffff"/>
   </g>
   <g id="matplotlib.axis_1">
    <g id="xtick_1">
     <g id="line2d_1">
      <defs>
       <path id="mc5fffe936e" d="M 0 0 
L 0 2 
" style="stroke: #000000; stroke-width: 0.5"/>
      </defs>
      <g>
       <use xlink:href="#mc5fffe936e" x="33.966067" y="95.592396" style="stroke: #000000; stroke-width: 0.5"/>
      </g>
     </g>
    </g>
    <g id="xtick_2">
     <g id="line2d_2">
      <g>
       <use xlink:href="#mc5fffe936e" x="66.511111" y="95.592396" style="stroke: #000000; stroke-width: 0.5"/>
      </g>
     </g>
    </g>
    <g id="xtick_3">
     <g id="line2d_3">
      <g>
       <use xlink:href="#mc5fffe936e" x="99.056156" y="95.592396" style="stroke: #000000; stroke-width: 0.5"/>
      </g>
     </g>
    </g>
    <g id="xtick_4">
     <g id="line2d_4">
      <g>
       <use xlink:href="#mc5fffe936e" x="131.6012" y="95.592396" style="stroke: #000000; stroke-width: 0.5"/>
      </g>
     </g>
    </g>
    <g id="xtick_5">
     <g id="line2d_5">
      <g>
       <use xlink:href="#mc5fffe936e" x="164.146244" y="95.592396" style="stroke: #000000; stroke-width: 0.5"/>
      </g>
     </g>
    </g>
    <g id="xtick_6">
     <g id="line2d_6">
      <g>
       <use xlink:href="#mc5fffe936e" x="196.691289" y="95.592396" style="stroke: #000000; stroke-width: 0.5"/>
      </g>
     </g>
    </g>
   </g>
   <g id="matplotlib.axis_2">
    <g id="ytick_1">
     <g id="line2d_7">
      <defs>
       <path id="m04da489b06" d="M 0 0 
L -2 0 
" style="stroke: #000000; stroke-width: 0.5"/>
      </defs>
      <g>
       <use xlink:href="#m04da489b06" x="30.711563" y="86.876983" style="stroke: #000000; stroke-width: 0.5"/>
      </g>
     </g>
     <g id="text_1">
      <!-- −4 -->
      <g transform="translate(17.840469 88.776592) scale(0.05 -0.05)">
       <defs>
        <path id="DejaVuSans-2212" d="M 678 2272 
L 4684 2272 
L 4684 1741 
L 678 1741 
L 678 2272 
z
" transform="scale(0.015625)"/>
        <path id="DejaVuSans-34" d="M 2419 4116 
L 825 1625 
L 2419 1625 
L 2419 4116 
z
M 2253 4666 
L 3047 4666 
L 3047 1625 
L 3713 1625 
L 3713 1100 
L 3047 1100 
L 3047 0 
L 2419 0 
L 2419 1100 
L 313 1100 
L 313 1709 
L 2253 4666 
z
" transform="scale(0.015625)"/>
       </defs>
       <use xlink:href="#DejaVuSans-2212"/>
       <use xlink:href="#DejaVuSans-34" x="83.789062"/>
      </g>
     </g>
    </g>
    <g id="ytick_2">
     <g id="line2d_8">
      <g>
       <use xlink:href="#m04da489b06" x="30.711563" y="70.574439" style="stroke: #000000; stroke-width: 0.5"/>
      </g>
     </g>
     <g id="text_2">
      <!-- −2 -->
      <g transform="translate(17.840469 72.474048) scale(0.05 -0.05)">
       <defs>
        <path id="DejaVuSans-32" d="M 1228 531 
L 3431 531 
L 3431 0 
L 469 0 
L 469 531 
Q 828 903 1448 1529 
Q 2069 2156 2228 2338 
Q 2531 2678 2651 2914 
Q 2772 3150 2772 3378 
Q 2772 3750 2511 3984 
Q 2250 4219 1831 4219 
Q 1534 4219 1204 4116 
Q 875 4013 500 3803 
L 500 4441 
Q 881 4594 1212 4672 
Q 1544 4750 1819 4750 
Q 2544 4750 2975 4387 
Q 3406 4025 3406 3419 
Q 3406 3131 3298 2873 
Q 3191 2616 2906 2266 
Q 2828 2175 2409 1742 
Q 1991 1309 1228 531 
z
" transform="scale(0.015625)"/>
       </defs>
       <use xlink:href="#DejaVuSans-2212"/>
       <use xlink:href="#DejaVuSans-32" x="83.789062"/>
      </g>
     </g>
    </g>
    <g id="ytick_3">
     <g id="line2d_9">
      <g>
       <use xlink:href="#m04da489b06" x="30.711563" y="54.271895" style="stroke: #000000; stroke-width: 0.5"/>
      </g>
     </g>
     <g id="text_3">
      <!-- 0 -->
      <g transform="translate(22.030313 56.171504) scale(0.05 -0.05)">
       <defs>
        <path id="DejaVuSans-30" d="M 2034 4250 
Q 1547 4250 1301 3770 
Q 1056 3291 1056 2328 
Q 1056 1369 1301 889 
Q 1547 409 2034 409 
Q 2525 409 2770 889 
Q 3016 1369 3016 2328 
Q 3016 3291 2770 3770 
Q 2525 4250 2034 4250 
z
M 2034 4750 
Q 2819 4750 3233 4129 
Q 3647 3509 3647 2328 
Q 3647 1150 3233 529 
Q 2819 -91 2034 -91 
Q 1250 -91 836 529 
Q 422 1150 422 2328 
Q 422 3509 836 4129 
Q 1250 4750 2034 4750 
z
" transform="scale(0.015625)"/>
       </defs>
       <use xlink:href="#DejaVuSans-30"/>
      </g>
     </g>
    </g>
    <g id="ytick_4">
     <g id="line2d_10">
      <g>
       <use xlink:href="#m04da489b06" x="30.711563" y="37.969351" style="stroke: #000000; stroke-width: 0.5"/>
      </g>
     </g>
     <g id="text_4">
      <!-- 2 -->
      <g transform="translate(22.030313 39.86896) scale(0.05 -0.05)">
       <use xlink:href="#DejaVuSans-32"/>
      </g>
     </g>
    </g>
    <g id="ytick_5">
     <g id="line2d_11">
      <g>
       <use xlink:href="#m04da489b06" x="30.711563" y="21.666806" style="stroke: #000000; stroke-width: 0.5"/>
      </g>
     </g>
     <g id="text_5">
      <!-- 4 -->
      <g transform="translate(22.030313 23.566416) scale(0.05 -0.05)">
       <use xlink:href="#DejaVuSans-34"/>
      </g>
     </g>
    </g>
    <g id="text_6">
     <!-- $\Delta I(X;R)$ (softmax-IB bound) -->
     <g transform="translate(12.592656 97.595729) rotate(-90) scale(0.06 -0.06)">
      <defs>
       <path id="DejaVuSans-394" d="M 2188 4044 
L 906 525 
L 3472 525 
L 2188 4044 
z
M 50 0 
L 1831 4666 
L 2547 4666 
L 4325 0 
L 50 0 
z
" transform="scale(0.015625)"/>
       <path id="DejaVuSans-Oblique-49" d="M 1081 4666 
L 1716 4666 
L 806 0 
L 172 0 
L 1081 4666 
z
" transform="scale(0.015625)"/>
       <path id="DejaVuSans-28" d="M 1984 4856 
Q 1566 4138 1362 3434 
Q 1159 2731 1159 2009 
Q 1159 1288 1364 580 
Q 1569 -128 1984 -844 
L 1484 -844 
Q 1016 -109 783 600 
Q 550 1309 550 2009 
Q 550 2706 781 3412 
Q 1013 4119 1484 4856 
L 1984 4856 
z
" transform="scale(0.015625)"/>
       <path id="DejaVuSans-Oblique-58" d="M 878 4666 
L 1516 4666 
L 2316 2981 
L 3763 4666 
L 4500 4666 
L 2578 2438 
L 3738 0 
L 3103 0 
L 2163 1966 
L 459 0 
L -275 0 
L 1906 2509 
L 878 4666 
z
" transform="scale(0.015625)"/>
       <path id="DejaVuSans-3b" d="M 750 3309 
L 1409 3309 
L 1409 2516 
L 750 2516 
L 750 3309 
z
M 750 794 
L 1409 794 
L 1409 256 
L 897 -744 
L 494 -744 
L 750 256 
L 750 794 
z
" transform="scale(0.015625)"/>
       <path id="DejaVuSans-Oblique-52" d="M 1613 4147 
L 1294 2491 
L 2106 2491 
Q 2584 2491 2879 2755 
Q 3175 3019 3175 3444 
Q 3175 3784 2976 3965 
Q 2778 4147 2406 4147 
L 1613 4147 
z
M 2772 2241 
Q 2972 2194 3105 2009 
Q 3238 1825 3413 1275 
L 3809 0 
L 3144 0 
L 2778 1197 
Q 2638 1659 2453 1815 
Q 2269 1972 1888 1972 
L 1191 1972 
L 806 0 
L 172 0 
L 1081 4666 
L 2503 4666 
Q 3150 4666 3495 4373 
Q 3841 4081 3841 3531 
Q 3841 3044 3547 2687 
Q 3253 2331 2772 2241 
z
" transform="scale(0.015625)"/>
       <path id="DejaVuSans-29" d="M 513 4856 
L 1013 4856 
Q 1481 4119 1714 3412 
Q 1947 2706 1947 2009 
Q 1947 1309 1714 600 
Q 1481 -109 1013 -844 
L 513 -844 
Q 928 -128 1133 580 
Q 1338 1288 1338 2009 
Q 1338 2731 1133 3434 
Q 928 4138 513 4856 
z
" transform="scale(0.015625)"/>
       <path id="DejaVuSans-20" transform="scale(0.015625)"/>
       <path id="DejaVuSans-73" d="M 2834 3397 
L 2834 2853 
Q 2591 2978 2328 3040 
Q 2066 3103 1784 3103 
Q 1356 3103 1142 2972 
Q 928 2841 928 2578 
Q 928 2378 1081 2264 
Q 1234 2150 1697 2047 
L 1894 2003 
Q 2506 1872 2764 1633 
Q 3022 1394 3022 966 
Q 3022 478 2636 193 
Q 2250 -91 1575 -91 
Q 1294 -91 989 -36 
Q 684 19 347 128 
L 347 722 
Q 666 556 975 473 
Q 1284 391 1588 391 
Q 1994 391 2212 530 
Q 2431 669 2431 922 
Q 2431 1156 2273 1281 
Q 2116 1406 1581 1522 
L 1381 1569 
Q 847 1681 609 1914 
Q 372 2147 372 2553 
Q 372 3047 722 3315 
Q 1072 3584 1716 3584 
Q 2034 3584 2315 3537 
Q 2597 3491 2834 3397 
z
" transform="scale(0.015625)"/>
       <path id="DejaVuSans-6f" d="M 1959 3097 
Q 1497 3097 1228 2736 
Q 959 2375 959 1747 
Q 959 1119 1226 758 
Q 1494 397 1959 397 
Q 2419 397 2687 759 
Q 2956 1122 2956 1747 
Q 2956 2369 2687 2733 
Q 2419 3097 1959 3097 
z
M 1959 3584 
Q 2709 3584 3137 3096 
Q 3566 2609 3566 1747 
Q 3566 888 3137 398 
Q 2709 -91 1959 -91 
Q 1206 -91 779 398 
Q 353 888 353 1747 
Q 353 2609 779 3096 
Q 1206 3584 1959 3584 
z
" transform="scale(0.015625)"/>
       <path id="DejaVuSans-66" d="M 2375 4863 
L 2375 4384 
L 1825 4384 
Q 1516 4384 1395 4259 
Q 1275 4134 1275 3809 
L 1275 3500 
L 2222 3500 
L 2222 3053 
L 1275 3053 
L 1275 0 
L 697 0 
L 697 3053 
L 147 3053 
L 147 3500 
L 697 3500 
L 697 3744 
Q 697 4328 969 4595 
Q 1241 4863 1831 4863 
L 2375 4863 
z
" transform="scale(0.015625)"/>
       <path id="DejaVuSans-74" d="M 1172 4494 
L 1172 3500 
L 2356 3500 
L 2356 3053 
L 1172 3053 
L 1172 1153 
Q 1172 725 1289 603 
Q 1406 481 1766 481 
L 2356 481 
L 2356 0 
L 1766 0 
Q 1100 0 847 248 
Q 594 497 594 1153 
L 594 3053 
L 172 3053 
L 172 3500 
L 594 3500 
L 594 4494 
L 1172 4494 
z
" transform="scale(0.015625)"/>
       <path id="DejaVuSans-6d" d="M 3328 2828 
Q 3544 3216 3844 3400 
Q 4144 3584 4550 3584 
Q 5097 3584 5394 3201 
Q 5691 2819 5691 2113 
L 5691 0 
L 5113 0 
L 5113 2094 
Q 5113 2597 4934 2840 
Q 4756 3084 4391 3084 
Q 3944 3084 3684 2787 
Q 3425 2491 3425 1978 
L 3425 0 
L 2847 0 
L 2847 2094 
Q 2847 2600 2669 2842 
Q 2491 3084 2119 3084 
Q 1678 3084 1418 2786 
Q 1159 2488 1159 1978 
L 1159 0 
L 581 0 
L 581 3500 
L 1159 3500 
L 1159 2956 
Q 1356 3278 1631 3431 
Q 1906 3584 2284 3584 
Q 2666 3584 2933 3390 
Q 3200 3197 3328 2828 
z
" transform="scale(0.015625)"/>
       <path id="DejaVuSans-61" d="M 2194 1759 
Q 1497 1759 1228 1600 
Q 959 1441 959 1056 
Q 959 750 1161 570 
Q 1363 391 1709 391 
Q 2188 391 2477 730 
Q 2766 1069 2766 1631 
L 2766 1759 
L 2194 1759 
z
M 3341 1997 
L 3341 0 
L 2766 0 
L 2766 531 
Q 2569 213 2275 61 
Q 1981 -91 1556 -91 
Q 1019 -91 701 211 
Q 384 513 384 1019 
Q 384 1609 779 1909 
Q 1175 2209 1959 2209 
L 2766 2209 
L 2766 2266 
Q 2766 2663 2505 2880 
Q 2244 3097 1772 3097 
Q 1472 3097 1187 3025 
Q 903 2953 641 2809 
L 641 3341 
Q 956 3463 1253 3523 
Q 1550 3584 1831 3584 
Q 2591 3584 2966 3190 
Q 3341 2797 3341 1997 
z
" transform="scale(0.015625)"/>
       <path id="DejaVuSans-78" d="M 3513 3500 
L 2247 1797 
L 3578 0 
L 2900 0 
L 1881 1375 
L 863 0 
L 184 0 
L 1544 1831 
L 300 3500 
L 978 3500 
L 1906 2253 
L 2834 3500 
L 3513 3500 
z
" transform="scale(0.015625)"/>
       <path id="DejaVuSans-2d" d="M 313 2009 
L 1997 2009 
L 1997 1497 
L 313 1497 
L 313 2009 
z
" transform="scale(0.015625)"/>
       <path id="DejaVuSans-49" d="M 628 4666 
L 1259 4666 
L 1259 0 
L 628 0 
L 628 4666 
z
" transform="scale(0.015625)"/>
       <path id="DejaVuSans-42" d="M 1259 2228 
L 1259 519 
L 2272 519 
Q 2781 519 3026 730 
Q 3272 941 3272 1375 
Q 3272 1813 3026 2020 
Q 2781 2228 2272 2228 
L 1259 2228 
z
M 1259 4147 
L 1259 2741 
L 2194 2741 
Q 2656 2741 2882 2914 
Q 3109 3088 3109 3444 
Q 3109 3797 2882 3972 
Q 2656 4147 2194 4147 
L 1259 4147 
z
M 628 4666 
L 2241 4666 
Q 2963 4666 3353 4366 
Q 3744 4066 3744 3513 
Q 3744 3084 3544 2831 
Q 3344 2578 2956 2516 
Q 3422 2416 3680 2098 
Q 3938 1781 3938 1306 
Q 3938 681 3513 340 
Q 3088 0 2303 0 
L 628 0 
L 628 4666 
z
" transform="scale(0.015625)"/>
       <path id="DejaVuSans-62" d="M 3116 1747 
Q 3116 2381 2855 2742 
Q 2594 3103 2138 3103 
Q 1681 3103 1420 2742 
Q 1159 2381 1159 1747 
Q 1159 1113 1420 752 
Q 1681 391 2138 391 
Q 2594 391 2855 752 
Q 3116 1113 3116 1747 
z
M 1159 2969 
Q 1341 3281 1617 3432 
Q 1894 3584 2278 3584 
Q 2916 3584 3314 3078 
Q 3713 2572 3713 1747 
Q 3713 922 3314 415 
Q 2916 -91 2278 -91 
Q 1894 -91 1617 61 
Q 1341 213 1159 525 
L 1159 0 
L 581 0 
L 581 4863 
L 1159 4863 
L 1159 2969 
z
" transform="scale(0.015625)"/>
       <path id="DejaVuSans-75" d="M 544 1381 
L 544 3500 
L 1119 3500 
L 1119 1403 
Q 1119 906 1312 657 
Q 1506 409 1894 409 
Q 2359 409 2629 706 
Q 2900 1003 2900 1516 
L 2900 3500 
L 3475 3500 
L 3475 0 
L 2900 0 
L 2900 538 
Q 2691 219 2414 64 
Q 2138 -91 1772 -91 
Q 1169 -91 856 284 
Q 544 659 544 1381 
z
M 1991 3584 
L 1991 3584 
z
" transform="scale(0.015625)"/>
       <path id="DejaVuSans-6e" d="M 3513 2113 
L 3513 0 
L 2938 0 
L 2938 2094 
Q 2938 2591 2744 2837 
Q 2550 3084 2163 3084 
Q 1697 3084 1428 2787 
Q 1159 2491 1159 1978 
L 1159 0 
L 581 0 
L 581 3500 
L 1159 3500 
L 1159 2956 
Q 1366 3272 1645 3428 
Q 1925 3584 2291 3584 
Q 2894 3584 3203 3211 
Q 3513 2838 3513 2113 
z
" transform="scale(0.015625)"/>
       <path id="DejaVuSans-64" d="M 2906 2969 
L 2906 4863 
L 3481 4863 
L 3481 0 
L 2906 0 
L 2906 525 
Q 2725 213 2448 61 
Q 2172 -91 1784 -91 
Q 1150 -91 751 415 
Q 353 922 353 1747 
Q 353 2572 751 3078 
Q 1150 3584 1784 3584 
Q 2172 3584 2448 3432 
Q 2725 3281 2906 2969 
z
M 947 1747 
Q 947 1113 1208 752 
Q 1469 391 1925 391 
Q 2381 391 2643 752 
Q 2906 1113 2906 1747 
Q 2906 2381 2643 2742 
Q 2381 3103 1925 3103 
Q 1469 3103 1208 2742 
Q 947 2381 947 1747 
z
" transform="scale(0.015625)"/>
      </defs>
      <use xlink:href="#DejaVuSans-394" transform="translate(0 0.015625)"/>
      <use xlink:href="#DejaVuSans-Oblique-49" transform="translate(68.408203 0.015625)"/>
      <use xlink:href="#DejaVuSans-28" transform="translate(97.900391 0.015625)"/>
      <use xlink:href="#DejaVuSans-Oblique-58" transform="translate(136.914062 0.015625)"/>
      <use xlink:href="#DejaVuSans-3b" transform="translate(205.419922 0.015625)"/>
      <use xlink:href="#DejaVuSans-Oblique-52" transform="translate(258.59375 0.015625)"/>
      <use xlink:href="#DejaVuSans-29" transform="translate(328.076172 0.015625)"/>
      <use xlink:href="#DejaVuSans-20" transform="translate(367.089844 0.015625)"/>
      <use xlink:href="#DejaVuSans-28" transform="translate(398.876953 0.015625)"/>
      <use xlink:href="#DejaVuSans-73" transform="translate(437.890625 0.015625)"/>
      <use xlink:href="#DejaVuSans-6f" transform="translate(489.990234 0.015625)"/>
      <use xlink:href="#DejaVuSans-66" transform="translate(551.171875 0.015625)"/>
      <use xlink:href="#DejaVuSans-74" transform="translate(586.376953 0.015625)"/>
      <use xlink:href="#DejaVuSans-6d" transform="translate(625.585938 0.015625)"/>
      <use xlink:href="#DejaVuSans-61" transform="translate(722.998047 0.015625)"/>
      <use xlink:href="#DejaVuSans-78" transform="translate(784.277344 0.015625)"/>
      <use xlink:href="#DejaVuSans-2d" transform="translate(843.457031 0.015625)"/>
      <use xlink:href="#DejaVuSans-49" transform="translate(879.541016 0.015625)"/>
      <use xlink:href="#DejaVuSans-42" transform="translate(909.033203 0.015625)"/>
      <use xlink:href="#DejaVuSans-20" transform="translate(977.636719 0.015625)"/>
      <use xlink:href="#DejaVuSans-62" transform="translate(1009.423828 0.015625)"/>
      <use xlink:href="#DejaVuSans-6f" transform="translate(1072.900391 0.015625)"/>
      <use xlink:href="#DejaVuSans-75" transform="translate(1134.082031 0.015625)"/>
      <use xlink:href="#DejaVuSans-6e" transform="translate(1197.460938 0.015625)"/>
      <use xlink:href="#DejaVuSans-64" transform="translate(1260.839844 0.015625)"/>
      <use xlink:href="#DejaVuSans-29" transform="translate(1324.316406 0.015625)"/>
     </g>
    </g>
    <g id="text_7">
     <!-- 1e−15 -->
     <g transform="translate(30.711563 14.759062) scale(0.05 -0.05)">
      <defs>
       <path id="DejaVuSans-31" d="M 794 531 
L 1825 531 
L 1825 4091 
L 703 3866 
L 703 4441 
L 1819 4666 
L 2450 4666 
L 2450 531 
L 3481 531 
L 3481 0 
L 794 0 
L 794 531 
z
" transform="scale(0.015625)"/>
       <path id="DejaVuSans-65" d="M 3597 1894 
L 3597 1613 
L 953 1613 
Q 991 1019 1311 708 
Q 1631 397 2203 397 
Q 2534 397 2845 478 
Q 3156 559 3463 722 
L 3463 178 
Q 3153 47 2828 -22 
Q 2503 -91 2169 -91 
Q 1331 -91 842 396 
Q 353 884 353 1716 
Q 353 2575 817 3079 
Q 1281 3584 2069 3584 
Q 2775 3584 3186 3129 
Q 3597 2675 3597 1894 
z
M 3022 2063 
Q 3016 2534 2758 2815 
Q 2500 3097 2075 3097 
Q 1594 3097 1305 2825 
Q 1016 2553 972 2059 
L 3022 2063 
z
" transform="scale(0.015625)"/>
       <path id="DejaVuSans-35" d="M 691 4666 
L 3169 4666 
L 3169 4134 
L 1269 4134 
L 1269 2991 
Q 1406 3038 1543 3061 
Q 1681 3084 1819 3084 
Q 2600 3084 3056 2656 
Q 3513 2228 3513 1497 
Q 3513 744 3044 326 
Q 2575 -91 1722 -91 
Q 1428 -91 1123 -41 
Q 819 9 494 109 
L 494 744 
Q 775 591 1075 516 
Q 1375 441 1709 441 
Q 2250 441 2565 725 
Q 2881 1009 2881 1497 
Q 2881 1984 2565 2268 
Q 2250 2553 1709 2553 
Q 1456 2553 1204 2497 
Q 953 2441 691 2322 
L 691 4666 
z
" transform="scale(0.015625)"/>
      </defs>
      <use xlink:href="#DejaVuSans-31"/>
      <use xlink:href="#DejaVuSans-65" x="63.623047"/>
      <use xlink:href="#DejaVuSans-2212" x="125.146484"/>
      <use xlink:href="#DejaVuSans-31" x="208.935547"/>
      <use xlink:href="#DejaVuSans-35" x="272.558594"/>
     </g>
    </g>
   </g>
   <g id="line2d_12">
    <path d="M 33.992475 60.005747 
L 34.071663 53.847689 
L 34.203524 54.356736 
L 34.387881 54.187053 
L 34.624485 83.853199 
L 34.91302 53.366922 
L 35.253098 53.875969 
L 35.644267 44.20407 
L 36.086006 21.296941 
L 36.577731 57.156496 
L 37.118795 25.765245 
L 37.708489 50.821685 
L 38.346046 92.054517 
L 39.030642 42.959732 
L 39.761397 55.855597 
L 40.537382 57.326179 
L 41.357615 63.434746 
L 42.221069 59.927976 
L 43.126674 59.927976 
L 44.073316 73.841936 
L 45.059846 53.480043 
L 46.085076 51.443854 
L 47.147789 40.923543 
L 48.246736 69.656436 
L 49.380644 58.909881 
L 50.548214 61.285435 
L 51.74813 25.991489 
L 52.979057 62.98226 
L 54.239645 55.629354 
L 55.528534 44.769678 
L 56.844355 56.76057 
L 58.185734 52.009462 
L 59.551294 52.688192 
L 60.939657 44.543435 
L 62.349449 48.842057 
L 63.779299 52.009462 
L 65.227846 54.271895 
L 66.693736 39.33984 
L 68.175629 51.330732 
L 69.672197 51.556976 
L 71.182131 54.045651 
L 72.704137 62.190408 
L 74.236942 62.869138 
L 75.779294 56.534327 
L 77.329964 51.556976 
L 78.887746 59.701733 
L 80.451462 61.511679 
L 82.019958 54.724381 
L 83.592109 55.176868 
L 85.16682 49.294543 
L 86.743023 64.226598 
L 88.319682 47.937084 
L 89.895791 45.674651 
L 91.470376 56.534327 
L 93.042494 55.176868 
L 94.611236 53.366922 
L 96.175724 52.461949 
L 97.735112 54.271895 
L 99.288588 65.131571 
L 100.835372 47.937084 
L 102.374717 53.819408 
L 103.905909 46.127138 
L 105.428264 49.74703 
L 106.941133 53.819408 
L 108.443897 52.009462 
L 109.935967 54.271895 
L 111.416788 58.344273 
L 112.885833 62.869138 
L 114.342606 66.941517 
L 115.78664 54.271895 
L 117.217496 57.891787 
L 118.634765 64.226598 
L 120.038063 59.701733 
L 121.427036 52.461949 
L 122.801353 53.366922 
L 124.16071 61.511679 
L 126.833454 47.032111 
L 128.146354 54.271895 
L 129.443318 52.461949 
L 130.72416 55.176868 
L 131.988714 50.652003 
L 133.236833 50.652003 
L 134.468391 47.937084 
L 135.683282 56.986814 
L 136.881416 54.271895 
L 139.227144 52.461949 
L 140.374645 56.081841 
L 141.5052 49.74703 
L 142.618801 57.891787 
L 143.715453 48.842057 
L 144.795176 54.271895 
L 145.858 60.606706 
L 146.903969 54.271895 
L 147.933138 54.271895 
L 148.945573 50.652003 
L 149.941349 46.127138 
L 150.920553 51.556976 
L 151.88328 54.271895 
L 152.829634 59.701733 
L 153.759725 54.271895 
L 155.571607 50.652003 
L 156.453657 54.271895 
L 157.319963 55.176868 
L 158.170671 50.652003 
L 159.00593 54.271895 
L 159.825897 49.74703 
L 160.63073 52.461949 
L 161.420594 52.461949 
L 162.195656 54.271895 
L 162.956088 52.461949 
L 163.702064 54.271895 
L 164.433761 50.652003 
L 165.151358 54.271895 
L 165.855038 52.461949 
L 166.544983 49.74703 
L 167.221379 49.74703 
L 167.884413 54.271895 
L 168.534272 56.081841 
L 169.171144 53.366922 
L 169.79522 53.366922 
L 171.005742 55.176868 
L 171.592568 55.176868 
L 172.167357 56.081841 
L 172.7303 49.74703 
L 173.281586 53.366922 
L 173.821404 57.891787 
L 174.349942 52.461949 
L 174.867387 54.271895 
L 175.373927 54.271895 
L 175.869747 50.652003 
L 176.35503 56.986814 
L 176.829961 55.176868 
L 177.29472 54.271895 
L 177.749488 55.176868 
L 178.194443 51.556976 
L 178.629763 54.271895 
L 179.055624 52.461949 
L 179.472198 56.081841 
L 179.879658 55.176868 
L 180.278173 56.986814 
L 180.667913 52.461949 
L 181.049043 57.891787 
L 181.421728 54.271895 
L 181.786129 54.271895 
L 182.142407 53.366922 
L 182.490721 54.271895 
L 182.831225 53.366922 
L 183.489422 55.176868 
L 183.807416 55.176868 
L 184.118204 53.366922 
L 184.421931 52.461949 
L 184.718741 58.79676 
L 185.292171 54.271895 
L 185.569067 55.176868 
L 185.839596 56.986814 
L 186.103892 53.366922 
L 186.362083 53.366922 
L 186.614299 55.176868 
L 186.860665 52.461949 
L 187.101305 55.176868 
L 187.565889 52.461949 
L 187.790071 54.271895 
L 188.009001 51.556976 
L 188.222791 52.461949 
L 188.635398 56.081841 
L 188.83443 55.176868 
L 189.028756 55.176868 
L 189.4037 56.986814 
L 189.584519 50.652003 
L 189.761033 55.176868 
L 189.933337 55.176868 
L 190.101527 54.271895 
L 190.265693 55.176868 
L 190.425925 51.556976 
L 190.582313 56.081841 
L 190.734942 50.652003 
L 191.029263 56.986814 
L 191.17112 53.366922 
L 191.309547 53.366922 
L 191.444625 52.461949 
L 191.576428 57.891787 
L 191.830511 54.271895 
L 191.952936 53.366922 
L 192.072378 54.271895 
L 192.188907 52.461949 
L 192.41349 54.271895 
L 192.521676 56.081841 
L 192.627209 54.271895 
L 192.730152 56.081841 
L 192.928509 51.556976 
L 193.20809 57.891787 
L 193.296719 51.556976 
L 193.54966 56.081841 
L 193.708003 51.556976 
L 193.784235 54.271895 
L 193.858569 52.461949 
L 193.931051 55.176868 
L 194.001726 54.271895 
L 194.070637 55.176868 
L 194.137826 54.271895 
L 194.203335 56.081841 
L 194.267204 51.556976 
L 194.329472 54.271895 
L 194.449364 54.271895 
L 194.50706 50.652003 
L 194.563307 56.081841 
L 194.618138 54.271895 
L 194.671588 54.271895 
L 194.723691 52.461949 
L 194.774479 56.081841 
L 194.823986 54.271895 
L 194.872241 53.366922 
L 194.919276 56.081841 
L 195.009805 55.176868 
L 195.17749 52.461949 
L 195.255077 55.176868 
L 195.292395 54.271895 
L 195.328763 53.366922 
L 195.364204 54.271895 
L 195.39874 55.176868 
L 195.432395 51.556976 
L 195.46519 56.986814 
L 195.497146 53.366922 
L 195.528285 54.271895 
L 195.558627 51.556976 
L 195.616999 54.271895 
L 195.645067 54.271895 
L 195.672414 56.986814 
L 195.699059 53.366922 
L 195.750313 54.271895 
L 195.822352 53.366922 
L 195.845139 56.081841 
L 195.970023 53.366922 
L 195.988994 55.176868 
L 196.007475 51.556976 
L 196.076728 54.271895 
L 196.092933 54.271895 
L 196.108717 51.556976 
L 196.124091 56.986814 
L 196.195164 52.461949 
L 196.208287 56.986814 
L 196.26894 51.556976 
L 196.291041 54.271895 
L 196.301659 50.652003 
L 196.341424 56.081841 
L 196.401602 54.271895 
L 196.40932 54.271895 
L 196.444962 56.986814 
L 196.51335 52.461949 
L 196.593559 51.556976 
L 196.626469 56.986814 
L 196.691287 50.652003 
L 196.691289 52.461949 
" clip-path="url(#peab873c68a)" style="fill: none; stroke: #1f77b4; stroke-width: 0.7; stroke-linecap: square"/>
   </g>
   <g id="line2d_13">
    <path d="M 33.966067 54.271895 
L 196.691289 54.271895 
" clip-path="url(#peab873c68a)" style="fill: none; stroke-dasharray: 2.59,1.12; stroke-dashoffset: 0; stroke: #000000; stroke-width: 0.7"/>
   </g>
   <g id="patch_3">
    <path d="M 30.711563 95.592396 
L 30.711563 17.759062 
" style="fill: none; stroke: #000000; stroke-width: 0.5; stroke-linejoin: miter; stroke-linecap: square"/>
   </g>
   <g id="patch_4">
    <path d="M 30.711563 95.592396 
L 199.945793 95.592396 
" style="fill: none; stroke: #000000; stroke-width: 0.5; stroke-linejoin: miter; stroke-linecap: square"/>
   </g>
   <g id="text_8">
    <!-- $I(X;R)$ difference -->
    <g transform="translate(90.218678 11.759062) scale(0.06 -0.06)">
     <defs>
      <path id="DejaVuSans-69" d="M 603 3500 
L 1178 3500 
L 1178 0 
L 603 0 
L 603 3500 
z
M 603 4863 
L 1178 4863 
L 1178 4134 
L 603 4134 
L 603 4863 
z
" transform="scale(0.015625)"/>
      <path id="DejaVuSans-72" d="M 2631 2963 
Q 2534 3019 2420 3045 
Q 2306 3072 2169 3072 
Q 1681 3072 1420 2755 
Q 1159 2438 1159 1844 
L 1159 0 
L 581 0 
L 581 3500 
L 1159 3500 
L 1159 2956 
Q 1341 3275 1631 3429 
Q 1922 3584 2338 3584 
Q 2397 3584 2469 3576 
Q 2541 3569 2628 3553 
L 2631 2963 
z
" transform="scale(0.015625)"/>
      <path id="DejaVuSans-63" d="M 3122 3366 
L 3122 2828 
Q 2878 2963 2633 3030 
Q 2388 3097 2138 3097 
Q 1578 3097 1268 2742 
Q 959 2388 959 1747 
Q 959 1106 1268 751 
Q 1578 397 2138 397 
Q 2388 397 2633 464 
Q 2878 531 3122 666 
L 3122 134 
Q 2881 22 2623 -34 
Q 2366 -91 2075 -91 
Q 1284 -91 818 406 
Q 353 903 353 1747 
Q 353 2603 823 3093 
Q 1294 3584 2113 3584 
Q 2378 3584 2631 3529 
Q 2884 3475 3122 3366 
z
" transform="scale(0.015625)"/>
     </defs>
     <use xlink:href="#DejaVuSans-Oblique-49" transform="translate(0 0.015625)"/>
     <use xlink:href="#DejaVuSans-28" transform="translate(29.492188 0.015625)"/>
     <use xlink:href="#DejaVuSans-Oblique-58" transform="translate(68.505859 0.015625)"/>
     <use xlink:href="#DejaVuSans-3b" transform="translate(137.011719 0.015625)"/>
     <use xlink:href="#DejaVuSans-Oblique-52" transform="translate(190.185547 0.015625)"/>
     <use xlink:href="#DejaVuSans-29" transform="translate(259.667969 0.015625)"/>
     <use xlink:href="#DejaVuSans-20" transform="translate(298.681641 0.015625)"/>
     <use xlink:href="#DejaVuSans-64" transform="translate(330.46875 0.015625)"/>
     <use xlink:href="#DejaVuSans-69" transform="translate(393.945312 0.015625)"/>
     <use xlink:href="#DejaVuSans-66" transform="translate(421.728516 0.015625)"/>
     <use xlink:href="#DejaVuSans-66" transform="translate(456.933594 0.015625)"/>
     <use xlink:href="#DejaVuSans-65" transform="translate(492.138672 0.015625)"/>
     <use xlink:href="#DejaVuSans-72" transform="translate(553.662109 0.015625)"/>
     <use xlink:href="#DejaVuSans-65" transform="translate(594.775391 0.015625)"/>
     <use xlink:href="#DejaVuSans-6e" transform="translate(656.298828 0.015625)"/>
     <use xlink:href="#DejaVuSans-63" transform="translate(719.677734 0.015625)"/>
     <use xlink:href="#DejaVuSans-65" transform="translate(774.658203 0.015625)"/>
    </g>
   </g>
  </g>
  <g id="axes_2">
   <g id="patch_5">
    <path d="M 30.711563 197.265729 
L 199.945793 197.265729 
L 199.945793 119.432396 
L 30.711563 119.432396 
z
" style="fill: #ffffff"/>
   </g>
   <g id="matplotlib.axis_3">
    <g id="xtick_7">
     <g id="line2d_14">
      <g>
       <use xlink:href="#mc5fffe936e" x="33.966067" y="197.265729" style="stroke: #000000; stroke-width: 0.5"/>
      </g>
     </g>
    </g>
    <g id="xtick_8">
     <g id="line2d_15">
      <g>
       <use xlink:href="#mc5fffe936e" x="66.511111" y="197.265729" style="stroke: #000000; stroke-width: 0.5"/>
      </g>
     </g>
    </g>
    <g id="xtick_9">
     <g id="line2d_16">
      <g>
       <use xlink:href="#mc5fffe936e" x="99.056156" y="197.265729" style="stroke: #000000; stroke-width: 0.5"/>
      </g>
     </g>
    </g>
    <g id="xtick_10">
     <g id="line2d_17">
      <g>
       <use xlink:href="#mc5fffe936e" x="131.6012" y="197.265729" style="stroke: #000000; stroke-width: 0.5"/>
      </g>
     </g>
    </g>
    <g id="xtick_11">
     <g id="line2d_18">
      <g>
       <use xlink:href="#mc5fffe936e" x="164.146244" y="197.265729" style="stroke: #000000; stroke-width: 0.5"/>
      </g>
     </g>
    </g>
    <g id="xtick_12">
     <g id="line2d_19">
      <g>
       <use xlink:href="#mc5fffe936e" x="196.691289" y="197.265729" style="stroke: #000000; stroke-width: 0.5"/>
      </g>
     </g>
    </g>
   </g>
   <g id="matplotlib.axis_4">
    <g id="ytick_6">
     <g id="line2d_20">
      <g>
       <use xlink:href="#m04da489b06" x="30.711563" y="179.563261" style="stroke: #000000; stroke-width: 0.5"/>
      </g>
     </g>
     <g id="text_9">
      <!-- −1 -->
      <g transform="translate(17.840469 181.46287) scale(0.05 -0.05)">
       <use xlink:href="#DejaVuSans-2212"/>
       <use xlink:href="#DejaVuSans-31" x="83.789062"/>
      </g>
     </g>
    </g>
    <g id="ytick_7">
     <g id="line2d_21">
      <g>
       <use xlink:href="#m04da489b06" x="30.711563" y="157.347049" style="stroke: #000000; stroke-width: 0.5"/>
      </g>
     </g>
     <g id="text_10">
      <!-- 0 -->
      <g transform="translate(22.030313 159.246658) scale(0.05 -0.05)">
       <use xlink:href="#DejaVuSans-30"/>
      </g>
     </g>
    </g>
    <g id="ytick_8">
     <g id="line2d_22">
      <g>
       <use xlink:href="#m04da489b06" x="30.711563" y="135.130837" style="stroke: #000000; stroke-width: 0.5"/>
      </g>
     </g>
     <g id="text_11">
      <!-- 1 -->
      <g transform="translate(22.030313 137.030446) scale(0.05 -0.05)">
       <use xlink:href="#DejaVuSans-31"/>
      </g>
     </g>
    </g>
    <g id="text_12">
     <!-- $\Delta I(R;Y)$ (softmax-IB bound) -->
     <g transform="translate(12.592656 199.029062) rotate(-90) scale(0.06 -0.06)">
      <defs>
       <path id="DejaVuSans-Oblique-59" d="M 403 4666 
L 1081 4666 
L 1953 2747 
L 3616 4666 
L 4325 4666 
L 2209 2222 
L 1778 0 
L 1147 0 
L 1575 2222 
L 403 4666 
z
" transform="scale(0.015625)"/>
      </defs>
      <use xlink:href="#DejaVuSans-394" transform="translate(0 0.015625)"/>
      <use xlink:href="#DejaVuSans-Oblique-49" transform="translate(68.408203 0.015625)"/>
      <use xlink:href="#DejaVuSans-28" transform="translate(97.900391 0.015625)"/>
      <use xlink:href="#DejaVuSans-Oblique-52" transform="translate(136.914062 0.015625)"/>
      <use xlink:href="#DejaVuSans-3b" transform="translate(206.396484 0.015625)"/>
      <use xlink:href="#DejaVuSans-Oblique-59" transform="translate(259.570312 0.015625)"/>
      <use xlink:href="#DejaVuSans-29" transform="translate(320.654297 0.015625)"/>
      <use xlink:href="#DejaVuSans-20" transform="translate(359.667969 0.015625)"/>
      <use xlink:href="#DejaVuSans-28" transform="translate(391.455078 0.015625)"/>
      <use xlink:href="#DejaVuSans-73" transform="translate(430.46875 0.015625)"/>
      <use xlink:href="#DejaVuSans-6f" transform="translate(482.568359 0.015625)"/>
      <use xlink:href="#DejaVuSans-66" transform="translate(543.75 0.015625)"/>
      <use xlink:href="#DejaVuSans-74" transform="translate(578.955078 0.015625)"/>
      <use xlink:href="#DejaVuSans-6d" transform="translate(618.164062 0.015625)"/>
      <use xlink:href="#DejaVuSans-61" transform="translate(715.576172 0.015625)"/>
      <use xlink:href="#DejaVuSans-78" transform="translate(776.855469 0.015625)"/>
      <use xlink:href="#DejaVuSans-2d" transform="translate(836.035156 0.015625)"/>
      <use xlink:href="#DejaVuSans-49" transform="translate(872.119141 0.015625)"/>
      <use xlink:href="#DejaVuSans-42" transform="translate(901.611328 0.015625)"/>
      <use xlink:href="#DejaVuSans-20" transform="translate(970.214844 0.015625)"/>
      <use xlink:href="#DejaVuSans-62" transform="translate(1002.001953 0.015625)"/>
      <use xlink:href="#DejaVuSans-6f" transform="translate(1065.478516 0.015625)"/>
      <use xlink:href="#DejaVuSans-75" transform="translate(1126.660156 0.015625)"/>
      <use xlink:href="#DejaVuSans-6e" transform="translate(1190.039062 0.015625)"/>
      <use xlink:href="#DejaVuSans-64" transform="translate(1253.417969 0.015625)"/>
      <use xlink:href="#DejaVuSans-29" transform="translate(1316.894531 0.015625)"/>
     </g>
    </g>
    <g id="text_13">
     <!-- 1e−15 -->
     <g transform="translate(30.711563 116.432396) scale(0.05 -0.05)">
      <use xlink:href="#DejaVuSans-31"/>
      <use xlink:href="#DejaVuSans-65" x="63.623047"/>
      <use xlink:href="#DejaVuSans-2212" x="125.146484"/>
      <use xlink:href="#DejaVuSans-31" x="208.935547"/>
      <use xlink:href="#DejaVuSans-35" x="272.558594"/>
     </g>
    </g>
   </g>
   <g id="line2d_23">
    <path d="M 33.992475 165.6522 
L 34.071663 156.364305 
L 34.203524 156.768964 
L 34.387881 156.499191 
L 34.624485 185.634664 
L 34.91302 153.724384 
L 35.253098 157.501205 
L 35.644267 146.710289 
L 36.086006 122.970275 
L 36.577731 162.511273 
L 37.118795 125.43677 
L 37.708489 154.26393 
L 38.346046 193.72785 
L 39.030642 146.401977 
L 39.761397 156.113801 
L 41.357615 166.596405 
L 42.221069 165.825626 
L 43.126674 164.284066 
L 44.073316 175.229138 
L 45.059846 160.892635 
L 46.085076 155.497178 
L 47.147789 143.164703 
L 48.246736 172.762643 
L 49.380644 161.046791 
L 50.548214 161.046791 
L 51.74813 128.982356 
L 52.979057 163.821598 
L 54.239645 159.505232 
L 55.528534 148.097693 
L 56.844355 154.880554 
L 58.185734 151.180811 
L 59.551294 154.880554 
L 60.939657 148.406004 
L 62.349449 149.947564 
L 63.779299 154.572242 
L 65.227846 157.963673 
L 66.693736 143.164703 
L 68.175629 157.655361 
L 69.672197 153.030683 
L 71.182131 156.113801 
L 72.704137 165.054846 
L 74.236942 168.137965 
L 75.779294 158.888608 
L 77.329964 153.647306 
L 78.887746 166.288093 
L 80.451462 169.679524 
L 82.019958 157.347049 
L 83.592109 156.113801 
L 85.16682 154.26393 
L 86.743023 170.912771 
L 88.319682 151.180811 
L 89.895791 150.255876 
L 91.470376 160.73848 
L 93.042494 159.19692 
L 94.611236 161.046791 
L 96.175724 153.647306 
L 97.735112 157.347049 
L 99.288588 169.679524 
L 100.835372 147.481069 
L 102.374717 157.347049 
L 103.905909 148.714316 
L 105.428264 150.564188 
L 106.941133 157.347049 
L 108.443897 154.880554 
L 109.935967 157.963673 
L 111.416788 164.12991 
L 112.885833 167.213029 
L 114.342606 167.213029 
L 115.78664 160.430168 
L 117.217496 161.663415 
L 118.634765 169.679524 
L 120.038063 159.813544 
L 121.427036 154.26393 
L 122.801353 160.430168 
L 124.16071 163.513286 
L 125.504829 154.880554 
L 126.833454 154.26393 
L 128.146354 155.497178 
L 129.443318 154.880554 
L 130.72416 157.347049 
L 131.988714 153.030683 
L 133.236833 153.030683 
L 134.468391 154.880554 
L 135.683282 157.347049 
L 136.881416 154.880554 
L 138.062722 155.497178 
L 139.227144 154.880554 
L 140.374645 155.497178 
L 141.5052 153.030683 
L 142.618801 161.663415 
L 143.715453 149.947564 
L 144.795176 157.347049 
L 145.858 161.663415 
L 146.903969 156.730425 
L 147.933138 157.963673 
L 149.941349 148.097693 
L 150.920553 153.647306 
L 152.829634 162.280039 
L 153.759725 157.347049 
L 154.673674 160.430168 
L 155.571607 154.880554 
L 157.319963 161.046791 
L 158.170671 153.647306 
L 159.00593 157.347049 
L 159.825897 153.647306 
L 160.63073 156.730425 
L 161.420594 155.497178 
L 162.195656 157.963673 
L 162.956088 154.880554 
L 163.702064 156.730425 
L 164.433761 156.113801 
L 165.151358 157.347049 
L 165.855038 156.730425 
L 166.544983 150.564188 
L 168.534272 159.19692 
L 169.171144 157.963673 
L 169.79522 154.880554 
L 170.40669 153.647306 
L 171.005742 161.046791 
L 171.592568 157.347049 
L 172.167357 159.813544 
L 172.7303 154.880554 
L 173.281586 154.880554 
L 173.821404 164.746534 
L 174.349942 152.414059 
L 174.867387 159.813544 
L 175.373927 157.347049 
L 175.869747 153.647306 
L 176.35503 159.813544 
L 176.829961 161.046791 
L 177.29472 157.347049 
L 178.629763 157.347049 
L 179.055624 153.647306 
L 179.472198 157.347049 
L 179.879658 158.580296 
L 180.278173 162.280039 
L 180.667913 156.113801 
L 181.049043 158.580296 
L 181.421728 157.347049 
L 182.490721 157.347049 
L 182.831225 158.580296 
L 183.164075 157.347049 
L 183.489422 158.580296 
L 183.807416 157.347049 
L 184.118204 157.347049 
L 184.421931 152.414059 
L 184.718741 161.046791 
L 185.008775 158.580296 
L 185.292171 157.347049 
L 185.569067 157.347049 
L 185.839596 164.746534 
L 186.103892 157.347049 
L 186.614299 157.347049 
L 186.860665 159.813544 
L 187.101305 157.347049 
L 187.33634 157.347049 
L 187.565889 154.880554 
L 187.790071 157.347049 
L 188.009001 152.414059 
L 188.222791 152.414059 
L 188.431554 157.347049 
L 188.83443 157.347049 
L 189.028756 158.580296 
L 189.218479 158.580296 
L 189.4037 162.280039 
L 189.584519 154.880554 
L 189.761033 159.813544 
L 189.933337 158.580296 
L 190.101527 156.113801 
L 190.265693 157.347049 
L 190.425925 154.880554 
L 190.582313 162.280039 
L 190.734942 156.113801 
L 191.029263 158.580296 
L 191.17112 157.347049 
L 191.444625 157.347049 
L 191.576428 164.746534 
L 191.705032 157.347049 
L 191.952936 157.347049 
L 192.072378 158.580296 
L 192.188907 154.880554 
L 192.302589 154.880554 
L 192.521676 159.813544 
L 192.730152 157.347049 
L 192.830566 157.347049 
L 192.928509 152.414059 
L 193.20809 165.979781 
L 193.296719 151.180811 
L 193.383157 161.046791 
L 193.54966 157.347049 
L 193.629827 157.347049 
L 193.708003 151.180811 
L 193.784235 157.347049 
L 193.858569 154.880554 
L 193.931051 159.813544 
L 194.001726 157.347049 
L 194.070637 156.113801 
L 194.203335 159.813544 
L 194.267204 153.647306 
L 194.329472 157.347049 
L 194.449364 157.347049 
L 194.50706 152.414059 
L 194.563307 162.280039 
L 194.618138 157.347049 
L 194.671588 157.347049 
L 194.723691 153.647306 
L 194.774479 154.880554 
L 194.919276 162.280039 
L 195.053356 157.347049 
L 195.137172 157.347049 
L 195.17749 149.947564 
L 195.216783 157.347049 
L 195.255077 158.580296 
L 195.292395 157.347049 
L 195.39874 157.347049 
L 195.432395 153.647306 
L 195.46519 162.280039 
L 195.528285 157.347049 
L 195.558627 151.180811 
L 195.616999 157.347049 
L 195.645067 157.347049 
L 195.672414 162.280039 
L 195.699059 156.113801 
L 195.774955 161.046791 
L 195.910031 157.347049 
L 195.930554 156.113801 
L 195.950547 162.280039 
L 196.007475 152.414059 
L 196.043011 157.347049 
L 196.092933 157.347049 
L 196.139065 161.046791 
L 196.195164 153.647306 
L 196.208287 163.513286 
L 196.26894 152.414059 
L 196.301659 152.414059 
L 196.341424 161.046791 
L 196.431273 157.347049 
L 196.444962 163.513286 
L 196.51335 152.414059 
L 196.608345 163.513286 
L 196.626469 159.813544 
L 196.691289 148.714316 
L 196.65066 164.746534 
L 196.691289 154.880554 
" clip-path="url(#pd38cdb632a)" style="fill: none; stroke: #1f77b4; stroke-width: 0.7; stroke-linecap: square"/>
   </g>
   <g id="line2d_24">
    <path d="M 33.966067 157.347049 
L 196.691289 157.347049 
" clip-path="url(#pd38cdb632a)" style="fill: none; stroke-dasharray: 2.59,1.12; stroke-dashoffset: 0; stroke: #000000; stroke-width: 0.7"/>
   </g>
   <g id="patch_6">
    <path d="M 30.711563 197.265729 
L 30.711563 119.432396 
" style="fill: none; stroke: #000000; stroke-width: 0.5; stroke-linejoin: miter; stroke-linecap: square"/>
   </g>
   <g id="patch_7">
    <path d="M 30.711563 197.265729 
L 199.945793 197.265729 
" style="fill: none; stroke: #000000; stroke-width: 0.5; stroke-linejoin: miter; stroke-linecap: square"/>
   </g>
   <g id="text_14">
    <!-- $I(R;Y)$ difference -->
    <g transform="translate(90.458678 113.432396) scale(0.06 -0.06)">
     <use xlink:href="#DejaVuSans-Oblique-49" transform="translate(0 0.015625)"/>
     <use xlink:href="#DejaVuSans-28" transform="translate(29.492188 0.015625)"/>
     <use xlink:href="#DejaVuSans-Oblique-52" transform="translate(68.505859 0.015625)"/>
     <use xlink:href="#DejaVuSans-3b" transform="translate(137.988281 0.015625)"/>
     <use xlink:href="#DejaVuSans-Oblique-59" transform="translate(191.162109 0.015625)"/>
     <use xlink:href="#DejaVuSans-29" transform="translate(252.246094 0.015625)"/>
     <use xlink:href="#DejaVuSans-20" transform="translate(291.259766 0.015625)"/>
     <use xlink:href="#DejaVuSans-64" transform="translate(323.046875 0.015625)"/>
     <use xlink:href="#DejaVuSans-69" transform="translate(386.523438 0.015625)"/>
     <use xlink:href="#DejaVuSans-66" transform="translate(414.306641 0.015625)"/>
     <use xlink:href="#DejaVuSans-66" transform="translate(449.511719 0.015625)"/>
     <use xlink:href="#DejaVuSans-65" transform="translate(484.716797 0.015625)"/>
     <use xlink:href="#DejaVuSans-72" transform="translate(546.240234 0.015625)"/>
     <use xlink:href="#DejaVuSans-65" transform="translate(587.353516 0.015625)"/>
     <use xlink:href="#DejaVuSans-6e" transform="translate(648.876953 0.015625)"/>
     <use xlink:href="#DejaVuSans-63" transform="translate(712.255859 0.015625)"/>
     <use xlink:href="#DejaVuSans-65" transform="translate(767.236328 0.015625)"/>
    </g>
   </g>
  </g>
  <g id="axes_3">
   <g id="patch_8">
    <path d="M 30.711563 298.939062 
L 199.945793 298.939062 
L 199.945793 221.105729 
L 30.711563 221.105729 
z
" style="fill: #ffffff"/>
   </g>
   <g id="matplotlib.axis_5">
    <g id="xtick_13">
     <g id="line2d_25">
      <g>
       <use xlink:href="#mc5fffe936e" x="33.966067" y="298.939062" style="stroke: #000000; stroke-width: 0.5"/>
      </g>
     </g>
     <g id="text_15">
      <!-- 0.0 -->
      <g transform="translate(29.990286 308.238281) scale(0.05 -0.05)">
       <defs>
        <path id="DejaVuSans-2e" d="M 684 794 
L 1344 794 
L 1344 0 
L 684 0 
L 684 794 
z
" transform="scale(0.015625)"/>
       </defs>
       <use xlink:href="#DejaVuSans-30"/>
       <use xlink:href="#DejaVuSans-2e" x="63.623047"/>
       <use xlink:href="#DejaVuSans-30" x="95.410156"/>
      </g>
     </g>
    </g>
    <g id="xtick_14">
     <g id="line2d_26">
      <g>
       <use xlink:href="#mc5fffe936e" x="66.511111" y="298.939062" style="stroke: #000000; stroke-width: 0.5"/>
      </g>
     </g>
     <g id="text_16">
      <!-- 0.2 -->
      <g transform="translate(62.53533 308.238281) scale(0.05 -0.05)">
       <use xlink:href="#DejaVuSans-30"/>
       <use xlink:href="#DejaVuSans-2e" x="63.623047"/>
       <use xlink:href="#DejaVuSans-32" x="95.410156"/>
      </g>
     </g>
    </g>
    <g id="xtick_15">
     <g id="line2d_27">
      <g>
       <use xlink:href="#mc5fffe936e" x="99.056156" y="298.939062" style="stroke: #000000; stroke-width: 0.5"/>
      </g>
     </g>
     <g id="text_17">
      <!-- 0.4 -->
      <g transform="translate(95.080374 308.238281) scale(0.05 -0.05)">
       <use xlink:href="#DejaVuSans-30"/>
       <use xlink:href="#DejaVuSans-2e" x="63.623047"/>
       <use xlink:href="#DejaVuSans-34" x="95.410156"/>
      </g>
     </g>
    </g>
    <g id="xtick_16">
     <g id="line2d_28">
      <g>
       <use xlink:href="#mc5fffe936e" x="131.6012" y="298.939062" style="stroke: #000000; stroke-width: 0.5"/>
      </g>
     </g>
     <g id="text_18">
      <!-- 0.6 -->
      <g transform="translate(127.625419 308.238281) scale(0.05 -0.05)">
       <defs>
        <path id="DejaVuSans-36" d="M 2113 2584 
Q 1688 2584 1439 2293 
Q 1191 2003 1191 1497 
Q 1191 994 1439 701 
Q 1688 409 2113 409 
Q 2538 409 2786 701 
Q 3034 994 3034 1497 
Q 3034 2003 2786 2293 
Q 2538 2584 2113 2584 
z
M 3366 4563 
L 3366 3988 
Q 3128 4100 2886 4159 
Q 2644 4219 2406 4219 
Q 1781 4219 1451 3797 
Q 1122 3375 1075 2522 
Q 1259 2794 1537 2939 
Q 1816 3084 2150 3084 
Q 2853 3084 3261 2657 
Q 3669 2231 3669 1497 
Q 3669 778 3244 343 
Q 2819 -91 2113 -91 
Q 1303 -91 875 529 
Q 447 1150 447 2328 
Q 447 3434 972 4092 
Q 1497 4750 2381 4750 
Q 2619 4750 2861 4703 
Q 3103 4656 3366 4563 
z
" transform="scale(0.015625)"/>
       </defs>
       <use xlink:href="#DejaVuSans-30"/>
       <use xlink:href="#DejaVuSans-2e" x="63.623047"/>
       <use xlink:href="#DejaVuSans-36" x="95.410156"/>
      </g>
     </g>
    </g>
    <g id="xtick_17">
     <g id="line2d_29">
      <g>
       <use xlink:href="#mc5fffe936e" x="164.146244" y="298.939062" style="stroke: #000000; stroke-width: 0.5"/>
      </g>
     </g>
     <g id="text_19">
      <!-- 0.8 -->
      <g transform="translate(160.170463 308.238281) scale(0.05 -0.05)">
       <defs>
        <path id="DejaVuSans-38" d="M 2034 2216 
Q 1584 2216 1326 1975 
Q 1069 1734 1069 1313 
Q 1069 891 1326 650 
Q 1584 409 2034 409 
Q 2484 409 2743 651 
Q 3003 894 3003 1313 
Q 3003 1734 2745 1975 
Q 2488 2216 2034 2216 
z
M 1403 2484 
Q 997 2584 770 2862 
Q 544 3141 544 3541 
Q 544 4100 942 4425 
Q 1341 4750 2034 4750 
Q 2731 4750 3128 4425 
Q 3525 4100 3525 3541 
Q 3525 3141 3298 2862 
Q 3072 2584 2669 2484 
Q 3125 2378 3379 2068 
Q 3634 1759 3634 1313 
Q 3634 634 3220 271 
Q 2806 -91 2034 -91 
Q 1263 -91 848 271 
Q 434 634 434 1313 
Q 434 1759 690 2068 
Q 947 2378 1403 2484 
z
M 1172 3481 
Q 1172 3119 1398 2916 
Q 1625 2713 2034 2713 
Q 2441 2713 2670 2916 
Q 2900 3119 2900 3481 
Q 2900 3844 2670 4047 
Q 2441 4250 2034 4250 
Q 1625 4250 1398 4047 
Q 1172 3844 1172 3481 
z
" transform="scale(0.015625)"/>
       </defs>
       <use xlink:href="#DejaVuSans-30"/>
       <use xlink:href="#DejaVuSans-2e" x="63.623047"/>
       <use xlink:href="#DejaVuSans-38" x="95.410156"/>
      </g>
     </g>
    </g>
    <g id="xtick_18">
     <g id="line2d_30">
      <g>
       <use xlink:href="#mc5fffe936e" x="196.691289" y="298.939062" style="stroke: #000000; stroke-width: 0.5"/>
      </g>
     </g>
     <g id="text_20">
      <!-- 1.0 -->
      <g transform="translate(192.715508 308.238281) scale(0.05 -0.05)">
       <use xlink:href="#DejaVuSans-31"/>
       <use xlink:href="#DejaVuSans-2e" x="63.623047"/>
       <use xlink:href="#DejaVuSans-30" x="95.410156"/>
      </g>
     </g>
    </g>
   </g>
   <g id="matplotlib.axis_6">
    <g id="ytick_9">
     <g id="line2d_31">
      <g>
       <use xlink:href="#m04da489b06" x="30.711563" y="295.401184" style="stroke: #000000; stroke-width: 0.5"/>
      </g>
     </g>
     <g id="text_21">
      <!-- 0.0 -->
      <g transform="translate(17.26 297.300793) scale(0.05 -0.05)">
       <use xlink:href="#DejaVuSans-30"/>
       <use xlink:href="#DejaVuSans-2e" x="63.623047"/>
       <use xlink:href="#DejaVuSans-30" x="95.410156"/>
      </g>
     </g>
    </g>
    <g id="ytick_10">
     <g id="line2d_32">
      <g>
       <use xlink:href="#m04da489b06" x="30.711563" y="275.970465" style="stroke: #000000; stroke-width: 0.5"/>
      </g>
     </g>
     <g id="text_22">
      <!-- 0.5 -->
      <g transform="translate(17.26 277.870074) scale(0.05 -0.05)">
       <use xlink:href="#DejaVuSans-30"/>
       <use xlink:href="#DejaVuSans-2e" x="63.623047"/>
       <use xlink:href="#DejaVuSans-35" x="95.410156"/>
      </g>
     </g>
    </g>
    <g id="ytick_11">
     <g id="line2d_33">
      <g>
       <use xlink:href="#m04da489b06" x="30.711563" y="256.539746" style="stroke: #000000; stroke-width: 0.5"/>
      </g>
     </g>
     <g id="text_23">
      <!-- 1.0 -->
      <g transform="translate(17.26 258.439355) scale(0.05 -0.05)">
       <use xlink:href="#DejaVuSans-31"/>
       <use xlink:href="#DejaVuSans-2e" x="63.623047"/>
       <use xlink:href="#DejaVuSans-30" x="95.410156"/>
      </g>
     </g>
    </g>
    <g id="ytick_12">
     <g id="line2d_34">
      <g>
       <use xlink:href="#m04da489b06" x="30.711563" y="237.109027" style="stroke: #000000; stroke-width: 0.5"/>
      </g>
     </g>
     <g id="text_24">
      <!-- 1.5 -->
      <g transform="translate(17.26 239.008636) scale(0.05 -0.05)">
       <use xlink:href="#DejaVuSans-31"/>
       <use xlink:href="#DejaVuSans-2e" x="63.623047"/>
       <use xlink:href="#DejaVuSans-35" x="95.410156"/>
      </g>
     </g>
    </g>
    <g id="text_25">
     <!-- max $\Delta p(r|x)$ (softmax-IB bound) -->
     <g transform="translate(11.82 307.722396) rotate(-90) scale(0.06 -0.06)">
      <defs>
       <path id="DejaVuSans-Oblique-70" d="M 3175 2156 
Q 3175 2616 2975 2859 
Q 2775 3103 2400 3103 
Q 2144 3103 1911 2972 
Q 1678 2841 1497 2591 
Q 1319 2344 1212 1994 
Q 1106 1644 1106 1300 
Q 1106 863 1306 627 
Q 1506 391 1875 391 
Q 2147 391 2380 519 
Q 2613 647 2778 891 
Q 2956 1147 3065 1494 
Q 3175 1841 3175 2156 
z
M 1394 2969 
Q 1625 3272 1939 3428 
Q 2253 3584 2638 3584 
Q 3175 3584 3472 3232 
Q 3769 2881 3769 2247 
Q 3769 1728 3584 1258 
Q 3400 788 3053 416 
Q 2822 169 2531 39 
Q 2241 -91 1919 -91 
Q 1547 -91 1294 64 
Q 1041 219 916 525 
L 556 -1331 
L -19 -1331 
L 922 3500 
L 1497 3500 
L 1394 2969 
z
" transform="scale(0.015625)"/>
       <path id="DejaVuSans-Oblique-72" d="M 2853 2969 
Q 2766 3016 2653 3041 
Q 2541 3066 2413 3066 
Q 1953 3066 1609 2717 
Q 1266 2369 1153 1784 
L 800 0 
L 225 0 
L 909 3500 
L 1484 3500 
L 1375 2956 
Q 1603 3259 1920 3421 
Q 2238 3584 2597 3584 
Q 2691 3584 2781 3573 
Q 2872 3563 2963 3538 
L 2853 2969 
z
" transform="scale(0.015625)"/>
       <path id="DejaVuSans-7c" d="M 1344 4891 
L 1344 -1509 
L 813 -1509 
L 813 4891 
L 1344 4891 
z
" transform="scale(0.015625)"/>
       <path id="DejaVuSans-Oblique-78" d="M 3841 3500 
L 2234 1784 
L 3219 0 
L 2559 0 
L 1819 1388 
L 531 0 
L -166 0 
L 1556 1844 
L 641 3500 
L 1300 3500 
L 1972 2234 
L 3144 3500 
L 3841 3500 
z
" transform="scale(0.015625)"/>
      </defs>
      <use xlink:href="#DejaVuSans-6d" transform="translate(0 0.578125)"/>
      <use xlink:href="#DejaVuSans-61" transform="translate(97.412109 0.578125)"/>
      <use xlink:href="#DejaVuSans-78" transform="translate(158.691406 0.578125)"/>
      <use xlink:href="#DejaVuSans-20" transform="translate(217.871094 0.578125)"/>
      <use xlink:href="#DejaVuSans-394" transform="translate(249.658203 0.578125)"/>
      <use xlink:href="#DejaVuSans-Oblique-70" transform="translate(318.066406 0.578125)"/>
      <use xlink:href="#DejaVuSans-28" transform="translate(381.542969 0.578125)"/>
      <use xlink:href="#DejaVuSans-Oblique-72" transform="translate(420.556641 0.578125)"/>
      <use xlink:href="#DejaVuSans-7c" transform="translate(461.669922 0.578125)"/>
      <use xlink:href="#DejaVuSans-Oblique-78" transform="translate(495.361328 0.578125)"/>
      <use xlink:href="#DejaVuSans-29" transform="translate(554.541016 0.578125)"/>
      <use xlink:href="#DejaVuSans-20" transform="translate(593.554688 0.578125)"/>
      <use xlink:href="#DejaVuSans-28" transform="translate(625.341797 0.578125)"/>
      <use xlink:href="#DejaVuSans-73" transform="translate(664.355469 0.578125)"/>
      <use xlink:href="#DejaVuSans-6f" transform="translate(716.455078 0.578125)"/>
      <use xlink:href="#DejaVuSans-66" transform="translate(777.636719 0.578125)"/>
      <use xlink:href="#DejaVuSans-74" transform="translate(812.841797 0.578125)"/>
      <use xlink:href="#DejaVuSans-6d" transform="translate(852.050781 0.578125)"/>
      <use xlink:href="#DejaVuSans-61" transform="translate(949.462891 0.578125)"/>
      <use xlink:href="#DejaVuSans-78" transform="translate(1010.742188 0.578125)"/>
      <use xlink:href="#DejaVuSans-2d" transform="translate(1069.921875 0.578125)"/>
      <use xlink:href="#DejaVuSans-49" transform="translate(1106.005859 0.578125)"/>
      <use xlink:href="#DejaVuSans-42" transform="translate(1135.498047 0.578125)"/>
      <use xlink:href="#DejaVuSans-20" transform="translate(1204.101562 0.578125)"/>
      <use xlink:href="#DejaVuSans-62" transform="translate(1235.888672 0.578125)"/>
      <use xlink:href="#DejaVuSans-6f" transform="translate(1299.365234 0.578125)"/>
      <use xlink:href="#DejaVuSans-75" transform="translate(1360.546875 0.578125)"/>
      <use xlink:href="#DejaVuSans-6e" transform="translate(1423.925781 0.578125)"/>
      <use xlink:href="#DejaVuSans-64" transform="translate(1487.304688 0.578125)"/>
      <use xlink:href="#DejaVuSans-29" transform="translate(1550.78125 0.578125)"/>
     </g>
    </g>
    <g id="text_26">
     <!-- 1e−14 -->
     <g transform="translate(30.711563 218.105729) scale(0.05 -0.05)">
      <use xlink:href="#DejaVuSans-31"/>
      <use xlink:href="#DejaVuSans-65" x="63.623047"/>
      <use xlink:href="#DejaVuSans-2212" x="125.146484"/>
      <use xlink:href="#DejaVuSans-31" x="208.935547"/>
      <use xlink:href="#DejaVuSans-34" x="272.558594"/>
     </g>
    </g>
   </g>
   <g id="line2d_35">
    <path d="M 33.992475 231.978235 
L 34.071663 294.106838 
L 34.387881 293.028216 
L 34.624485 224.643608 
L 34.91302 292.812492 
L 35.253098 292.812492 
L 35.644267 282.026276 
L 36.086006 256.139358 
L 36.577731 292.812492 
L 37.118795 266.494125 
L 37.708489 291.086697 
L 38.346046 260.022396 
L 39.030642 285.477865 
L 39.761397 291.949595 
L 40.537382 293.459665 
L 41.357615 286.125038 
L 42.221069 289.792351 
L 43.126674 292.381043 
L 44.073316 283.320622 
L 45.059846 294.106838 
L 46.085076 290.2238 
L 47.147789 288.066557 
L 48.246736 287.635108 
L 49.380644 292.812492 
L 50.548214 291.949595 
L 51.74813 282.457725 
L 52.979057 291.086697 
L 54.239645 293.675389 
L 55.528534 291.518146 
L 56.844355 293.675389 
L 58.185734 294.538286 
L 59.551294 294.322562 
L 60.939657 288.929454 
L 62.349449 293.243941 
L 63.779299 293.459665 
L 65.227846 294.969735 
L 66.693736 291.086697 
L 68.175629 294.538286 
L 69.672197 292.381043 
L 71.182131 295.185459 
L 72.704137 293.243941 
L 74.236942 292.596768 
L 75.779294 294.861873 
L 77.329964 294.646149 
L 80.451462 293.675389 
L 82.019958 295.293322 
L 83.592109 294.969735 
L 85.16682 294.106838 
L 86.743023 291.949595 
L 89.895791 292.812492 
L 91.470376 294.861873 
L 93.042494 294.538286 
L 96.175724 294.646149 
L 97.735112 295.401184 
L 99.288588 292.812492 
L 100.835372 294.106838 
L 102.374717 294.969735 
L 103.905909 293.675389 
L 105.428264 294.430424 
L 106.941133 294.969735 
L 108.443897 294.807942 
L 109.935967 294.969735 
L 111.416788 294.538286 
L 112.885833 293.243941 
L 114.342606 292.812492 
L 115.78664 294.969735 
L 117.217496 294.106838 
L 118.634765 293.675389 
L 122.801353 294.969735 
L 124.16071 294.106838 
L 125.504829 295.023666 
L 126.833454 294.106838 
L 128.146354 294.106838 
L 129.443318 294.969735 
L 130.72416 294.969735 
L 131.988714 294.538286 
L 133.236833 294.861873 
L 134.468391 294.106838 
L 135.683282 294.969735 
L 139.227144 294.754011 
L 140.374645 294.538286 
L 143.715453 294.538286 
L 144.795176 294.861873 
L 145.858 294.484355 
L 146.903969 295.320287 
L 148.945573 294.969735 
L 149.941349 294.538286 
L 150.920553 294.94277 
L 151.88328 294.969735 
L 152.829634 294.538286 
L 153.759725 295.320287 
L 154.673674 294.969735 
L 155.571607 294.969735 
L 156.453657 295.266356 
L 157.319963 294.969735 
L 158.170671 294.969735 
L 159.00593 295.158494 
L 159.825897 294.538286 
L 160.63073 294.538286 
L 161.420594 294.969735 
L 162.195656 295.212425 
L 162.956088 294.538286 
L 163.702064 294.969735 
L 164.433761 294.538286 
L 165.151358 295.279839 
L 165.855038 294.969735 
L 166.544983 294.969735 
L 167.221379 294.538286 
L 167.884413 294.969735 
L 170.40669 294.969735 
L 171.005742 295.23939 
L 171.592568 295.225908 
L 172.167357 294.969735 
L 173.281586 294.969735 
L 173.821404 294.538286 
L 174.349942 294.969735 
L 174.867387 294.969735 
L 175.373927 295.252873 
L 175.869747 294.969735 
L 176.829961 294.969735 
L 177.29472 295.23939 
L 177.749488 295.293322 
L 178.194443 294.106838 
L 178.629763 295.28658 
L 179.055624 294.969735 
L 179.472198 295.259615 
L 179.879658 294.969735 
L 180.667913 294.969735 
L 181.049043 294.538286 
L 181.421728 295.306804 
L 181.786129 294.969735 
L 182.142407 295.23939 
L 182.490721 295.33377 
L 182.831225 294.969735 
L 183.164075 295.28658 
L 183.489422 294.969735 
L 183.807416 295.320287 
L 184.118204 295.306804 
L 184.718741 294.538286 
L 185.292171 295.252873 
L 185.569067 295.347253 
L 185.839596 294.969735 
L 186.103892 295.327028 
L 186.614299 295.310175 
L 186.860665 294.969735 
L 187.101305 295.303434 
L 187.33634 295.28658 
L 187.790071 294.538286 
L 188.009001 294.969735 
L 188.222791 294.969735 
L 188.431554 295.367477 
L 188.635398 294.969735 
L 188.83443 295.353994 
L 189.028756 294.969735 
L 190.101527 294.969735 
L 190.265693 295.357365 
L 190.425925 294.969735 
L 190.734942 294.969735 
L 190.883897 295.365791 
L 191.309547 295.391072 
L 191.444625 294.969735 
L 191.705032 294.969735 
L 191.830511 295.375904 
L 191.952936 294.969735 
L 192.302589 294.969735 
L 192.41349 295.389386 
L 192.521676 294.969735 
L 192.627209 295.382645 
L 192.730152 294.969735 
L 192.830566 295.38433 
L 192.928509 294.969735 
L 193.117215 295.387701 
L 193.296719 294.969735 
L 193.383157 294.969735 
L 193.467453 295.38096 
L 193.54966 294.969735 
L 193.629827 295.386016 
L 193.708003 294.969735 
L 193.784235 295.386858 
L 193.931051 294.969735 
L 194.001726 295.391072 
L 194.070637 294.969735 
L 194.137826 295.396128 
L 194.267204 294.969735 
L 194.39018 295.395285 
L 194.50706 294.538286 
L 194.618138 295.392757 
L 194.671588 295.377589 
L 194.774479 294.538286 
L 194.823986 295.391914 
L 194.872241 294.969735 
L 195.053356 294.969735 
L 195.137172 295.394021 
L 195.255077 294.969735 
L 195.39874 295.3936 
L 195.46519 294.969735 
L 195.497146 295.376325 
L 195.528285 295.394864 
L 195.558627 294.969735 
L 195.588192 295.399498 
L 195.616999 295.397813 
L 195.645067 295.3936 
L 195.774955 294.969735 
L 195.888964 295.40013 
L 195.910031 295.394653 
L 196.007475 294.969735 
L 196.076728 295.40013 
L 196.108717 294.969735 
L 196.15365 294.969735 
L 196.257443 295.397918 
L 196.291041 295.400552 
L 196.377178 294.969735 
L 196.385537 294.969735 
L 196.503423 295.400868 
L 196.508453 295.40071 
L 196.593559 294.538286 
L 196.618957 295.400762 
L 196.622815 295.400868 
L 196.691289 294.538286 
L 196.652838 295.401111 
L 196.691289 294.969735 
" clip-path="url(#pec10e6d4ac)" style="fill: none; stroke: #1f77b4; stroke-width: 0.7; stroke-linecap: square"/>
   </g>
   <g id="line2d_36">
    <path d="M 33.966067 295.401184 
L 196.691289 295.401184 
" clip-path="url(#pec10e6d4ac)" style="fill: none; stroke-dasharray: 2.59,1.12; stroke-dashoffset: 0; stroke: #000000; stroke-width: 0.7"/>
   </g>
   <g id="patch_9">
    <path d="M 30.711563 298.939062 
L 30.711563 221.105729 
" style="fill: none; stroke: #000000; stroke-width: 0.5; stroke-linejoin: miter; stroke-linecap: square"/>
   </g>
   <g id="patch_10">
    <path d="M 30.711563 298.939062 
L 199.945793 298.939062 
" style="fill: none; stroke: #000000; stroke-width: 0.5; stroke-linejoin: miter; stroke-linecap: square"/>
   </g>
   <g id="text_27">
    <!-- max $p(r|x)$ difference -->
    <g transform="translate(83.438678 215.105729) scale(0.06 -0.06)">
     <use xlink:href="#DejaVuSans-6d" transform="translate(0 0.578125)"/>
     <use xlink:href="#DejaVuSans-61" transform="translate(97.412109 0.578125)"/>
     <use xlink:href="#DejaVuSans-78" transform="translate(158.691406 0.578125)"/>
     <use xlink:href="#DejaVuSans-20" transform="translate(217.871094 0.578125)"/>
     <use xlink:href="#DejaVuSans-Oblique-70" transform="translate(249.658203 0.578125)"/>
     <use xlink:href="#DejaVuSans-28" transform="translate(313.134766 0.578125)"/>
     <use xlink:href="#DejaVuSans-Oblique-72" transform="translate(352.148438 0.578125)"/>
     <use xlink:href="#DejaVuSans-7c" transform="translate(393.261719 0.578125)"/>
     <use xlink:href="#DejaVuSans-Oblique-78" transform="translate(426.953125 0.578125)"/>
     <use xlink:href="#DejaVuSans-29" transform="translate(486.132812 0.578125)"/>
     <use xlink:href="#DejaVuSans-20" transform="translate(525.146484 0.578125)"/>
     <use xlink:href="#DejaVuSans-64" transform="translate(556.933594 0.578125)"/>
     <use xlink:href="#DejaVuSans-69" transform="translate(620.410156 0.578125)"/>
     <use xlink:href="#DejaVuSans-66" transform="translate(648.193359 0.578125)"/>
     <use xlink:href="#DejaVuSans-66" transform="translate(683.398438 0.578125)"/>
     <use xlink:href="#DejaVuSans-65" transform="translate(718.603516 0.578125)"/>
     <use xlink:href="#DejaVuSans-72" transform="translate(780.126953 0.578125)"/>
     <use xlink:href="#DejaVuSans-65" transform="translate(821.240234 0.578125)"/>
     <use xlink:href="#DejaVuSans-6e" transform="translate(882.763672 0.578125)"/>
     <use xlink:href="#DejaVuSans-63" transform="translate(946.142578 0.578125)"/>
     <use xlink:href="#DejaVuSans-65" transform="translate(1001.123047 0.578125)"/>
    </g>
   </g>
  </g>
 </g>
 <defs>
  <clipPath id="peab873c68a">
   <rect x="30.711563" y="17.759062" width="169.234231" height="77.833333"/>
  </clipPath>
  <clipPath id="pd38cdb632a">
   <rect x="30.711563" y="119.432396" width="169.234231" height="77.833333"/>
  </clipPath>
  <clipPath id="pec10e6d4ac">
   <rect x="30.711563" y="221.105729" width="169.234231" height="77.833333"/>
  </clipPath>
 </defs>
</svg>
