<?xml version="1.0" encoding="utf-8" standalone="no"?>
<!DOCTYPE svg PUBLIC "-//W3C//DTD SVG 1.1//EN"
  "http://www.w3.org/Graphics/SVG/1.1/DTD/svg11.dtd">
<svg xmlns:xlink="http://www.w3.org/1999/xlink" width="205.058437pt" height="173.145938pt" viewBox="0 0 205.058437 173.145938" xmlns="http://www.w3.org/2000/svg" version="1.1">
 <metadata>
  <rdf:RDF xmlns:dc="http://purl.org/dc/elements/1.1/" xmlns:cc="http://creativecommons.org/ns#" xmlns:rdf="http://www.w3.org/1999/02/22-rdf-syntax-ns#">
   <cc:Work>
    <dc:type rdf:resource="http://purl.org/dc/dcmitype/StillImage"/>
    <dc:date>2026-04-19T22:55:54.885604</dc:date>
    <dc:format>image/svg+xml</dc:format>
    <dc:creator>
     <cc:Agent>
      <dc:title>Matplotlib v3.8.2, https://matplotlib.org/</dc:title>
     </cc:Agent>
    </dc:creator>
   </cc:Work>
  </rdf:RDF>
 </metadata>
 <defs>
  <style type="text/css">*{stroke-linejoin: round; stroke-linecap: butt}</style>
 </defs>
 <g id="figure_1">
  <g id="patch_1">
   <path d="M -0 173.145938 
L 205.058437 173.145938 
L 205.058437 0 
L -0 0 
z
" style="fill: #ffffff"/>
  </g>
  <g id="axes_1">
   <g id="patch_2">
    <path d="M 30.458438 145.8 
L 197.858438 145.8 
L 197.858438 7.2 
L 30.458438 7.2 
z
" style="fill: #ffffff"/>
   </g>
   <g id="matplotlib.axis_1">
    <g id="xtick_1">
     <g id="line2d_1">
      <defs>
       <path id="mb07f476a5f" d="M 0 0 
L 0 2 
" style="stroke: #000000; stroke-width: 0.5"/>
      </defs>
      <g>
       <use xlink:href="#mb07f476a5f" x="38.067528" y="145.8" style="stroke: #000000; stroke-width: 0.5"/>
      </g>
     </g>
     <g id="text_1">
      <!-- 0.0 -->
      <g transform="translate(34.091747 155.099219) scale(0.05 -0.05)">
       <defs>
        <path id="DejaVuSans-30" d="M 2034 4250 
Q 1547 4250 1301 3770 
Q 1056 3291 1056 2328 
Q 1056 1369 1301 889 
Q 1547 409 2034 409 
Q 2525 409 2770 889 
Q 3016 1369 3016 2328 
Q 3016 3291 2770 3770 
Q 2525 4250 2034 4250 
z
M 2034 4750 
Q 2819 4750 3233 4129 
Q 3647 3509 3647 2328 
Q 3647 1150 3233 529 
Q 2819 -91 2034 -91 
Q 1250 -91 836 529 
Q 422 1150 422 2328 
Q 422 3509 836 4129 
Q 1250 4750 2034 4750 
z
" transform="scale(0.015625)"/>
        <path id="DejaVuSans-2e" d="M 684 794 
L 1344 794 
L 1344 0 
L 684 0 
L 684 794 
z
" transform="scale(0.015625)"/>
       </defs>
       <use xlink:href="#DejaVuSans-30"/>
       <use xlink:href="#DejaVuSans-2e" x="63.623047"/>
       <use xlink:href="#DejaVuSans-30" x="95.410156"/>
      </g>
     </g>
    </g>
    <g id="xtick_2">
     <g id="line2d_2">
      <g>
       <use xlink:href="#mb07f476a5f" x="68.503892" y="145.8" style="stroke: #000000; stroke-width: 0.5"/>
      </g>
     </g>
     <g id="text_2">
      <!-- 0.2 -->
      <g transform="translate(64.528111 155.099219) scale(0.05 -0.05)">
       <defs>
        <path id="DejaVuSans-32" d="M 1228 531 
L 3431 531 
L 3431 0 
L 469 0 
L 469 531 
Q 828 903 1448 1529 
Q 2069 2156 2228 2338 
Q 2531 2678 2651 2914 
Q 2772 3150 2772 3378 
Q 2772 3750 2511 3984 
Q 2250 4219 1831 4219 
Q 1534 4219 1204 4116 
Q 875 4013 500 3803 
L 500 4441 
Q 881 4594 1212 4672 
Q 1544 4750 1819 4750 
Q 2544 4750 2975 4387 
Q 3406 4025 3406 3419 
Q 3406 3131 3298 2873 
Q 3191 2616 2906 2266 
Q 2828 2175 2409 1742 
Q 1991 1309 1228 531 
z
" transform="scale(0.015625)"/>
       </defs>
       <use xlink:href="#DejaVuSans-30"/>
       <use xlink:href="#DejaVuSans-2e" x="63.623047"/>
       <use xlink:href="#DejaVuSans-32" x="95.410156"/>
      </g>
     </g>
    </g>
    <g id="xtick_3">
     <g id="line2d_3">
      <g>
       <use xlink:href="#mb07f476a5f" x="98.940256" y="145.8" style="stroke: #000000; stroke-width: 0.5"/>
      </g>
     </g>
     <g id="text_3">
      <!-- 0.4 -->
      <g transform="translate(94.964474 155.099219) scale(0.05 -0.05)">
       <defs>
        <path id="DejaVuSans-34" d="M 2419 4116 
L 825 1625 
L 2419 1625 
L 2419 4116 
z
M 2253 4666 
L 3047 4666 
L 3047 1625 
L 3713 1625 
L 3713 1100 
L 3047 1100 
L 3047 0 
L 2419 0 
L 2419 1100 
L 313 1100 
L 313 1709 
L 2253 4666 
z
" transform="scale(0.015625)"/>
       </defs>
       <use xlink:href="#DejaVuSans-30"/>
       <use xlink:href="#DejaVuSans-2e" x="63.623047"/>
       <use xlink:href="#DejaVuSans-34" x="95.410156"/>
      </g>
     </g>
    </g>
    <g id="xtick_4">
     <g id="line2d_4">
      <g>
       <use xlink:href="#mb07f476a5f" x="129.376619" y="145.8" style="stroke: #000000; stroke-width: 0.5"/>
      </g>
     </g>
     <g id="text_4">
      <!-- 0.6 -->
      <g transform="translate(125.400838 155.099219) scale(0.05 -0.05)">
       <defs>
        <path id="DejaVuSans-36" d="M 2113 2584 
Q 1688 2584 1439 2293 
Q 1191 2003 1191 1497 
Q 1191 994 1439 701 
Q 1688 409 2113 409 
Q 2538 409 2786 701 
Q 3034 994 3034 1497 
Q 3034 2003 2786 2293 
Q 2538 2584 2113 2584 
z
M 3366 4563 
L 3366 3988 
Q 3128 4100 2886 4159 
Q 2644 4219 2406 4219 
Q 1781 4219 1451 3797 
Q 1122 3375 1075 2522 
Q 1259 2794 1537 2939 
Q 1816 3084 2150 3084 
Q 2853 3084 3261 2657 
Q 3669 2231 3669 1497 
Q 3669 778 3244 343 
Q 2819 -91 2113 -91 
Q 1303 -91 875 529 
Q 447 1150 447 2328 
Q 447 3434 972 4092 
Q 1497 4750 2381 4750 
Q 2619 4750 2861 4703 
Q 3103 4656 3366 4563 
z
" transform="scale(0.015625)"/>
       </defs>
       <use xlink:href="#DejaVuSans-30"/>
       <use xlink:href="#DejaVuSans-2e" x="63.623047"/>
       <use xlink:href="#DejaVuSans-36" x="95.410156"/>
      </g>
     </g>
    </g>
    <g id="xtick_5">
     <g id="line2d_5">
      <g>
       <use xlink:href="#mb07f476a5f" x="159.812983" y="145.8" style="stroke: #000000; stroke-width: 0.5"/>
      </g>
     </g>
     <g id="text_5">
      <!-- 0.8 -->
      <g transform="translate(155.837202 155.099219) scale(0.05 -0.05)">
       <defs>
        <path id="DejaVuSans-38" d="M 2034 2216 
Q 1584 2216 1326 1975 
Q 1069 1734 1069 1313 
Q 1069 891 1326 650 
Q 1584 409 2034 409 
Q 2484 409 2743 651 
Q 3003 894 3003 1313 
Q 3003 1734 2745 1975 
Q 2488 2216 2034 2216 
z
M 1403 2484 
Q 997 2584 770 2862 
Q 544 3141 544 3541 
Q 544 4100 942 4425 
Q 1341 4750 2034 4750 
Q 2731 4750 3128 4425 
Q 3525 4100 3525 3541 
Q 3525 3141 3298 2862 
Q 3072 2584 2669 2484 
Q 3125 2378 3379 2068 
Q 3634 1759 3634 1313 
Q 3634 634 3220 271 
Q 2806 -91 2034 -91 
Q 1263 -91 848 271 
Q 434 634 434 1313 
Q 434 1759 690 2068 
Q 947 2378 1403 2484 
z
M 1172 3481 
Q 1172 3119 1398 2916 
Q 1625 2713 2034 2713 
Q 2441 2713 2670 2916 
Q 2900 3119 2900 3481 
Q 2900 3844 2670 4047 
Q 2441 4250 2034 4250 
Q 1625 4250 1398 4047 
Q 1172 3844 1172 3481 
z
" transform="scale(0.015625)"/>
       </defs>
       <use xlink:href="#DejaVuSans-30"/>
       <use xlink:href="#DejaVuSans-2e" x="63.623047"/>
       <use xlink:href="#DejaVuSans-38" x="95.410156"/>
      </g>
     </g>
    </g>
    <g id="xtick_6">
     <g id="line2d_6">
      <g>
       <use xlink:href="#mb07f476a5f" x="190.249347" y="145.8" style="stroke: #000000; stroke-width: 0.5"/>
      </g>
     </g>
     <g id="text_6">
      <!-- 1.0 -->
      <g transform="translate(186.273565 155.099219) scale(0.05 -0.05)">
       <defs>
        <path id="DejaVuSans-31" d="M 794 531 
L 1825 531 
L 1825 4091 
L 703 3866 
L 703 4441 
L 1819 4666 
L 2450 4666 
L 2450 531 
L 3481 531 
L 3481 0 
L 794 0 
L 794 531 
z
" transform="scale(0.015625)"/>
       </defs>
       <use xlink:href="#DejaVuSans-31"/>
       <use xlink:href="#DejaVuSans-2e" x="63.623047"/>
       <use xlink:href="#DejaVuSans-30" x="95.410156"/>
      </g>
     </g>
    </g>
    <g id="text_7">
     <!-- Information Capacity (bits) -->
     <g transform="translate(73.957031 164.698125) scale(0.06 -0.06)">
      <defs>
       <path id="DejaVuSans-49" d="M 628 4666 
L 1259 4666 
L 1259 0 
L 628 0 
L 628 4666 
z
" transform="scale(0.015625)"/>
       <path id="DejaVuSans-6e" d="M 3513 2113 
L 3513 0 
L 2938 0 
L 2938 2094 
Q 2938 2591 2744 2837 
Q 2550 3084 2163 3084 
Q 1697 3084 1428 2787 
Q 1159 2491 1159 1978 
L 1159 0 
L 581 0 
L 581 3500 
L 1159 3500 
L 1159 2956 
Q 1366 3272 1645 3428 
Q 1925 3584 2291 3584 
Q 2894 3584 3203 3211 
Q 3513 2838 3513 2113 
z
" transform="scale(0.015625)"/>
       <path id="DejaVuSans-66" d="M 2375 4863 
L 2375 4384 
L 1825 4384 
Q 1516 4384 1395 4259 
Q 1275 4134 1275 3809 
L 1275 3500 
L 2222 3500 
L 2222 3053 
L 1275 3053 
L 1275 0 
L 697 0 
L 697 3053 
L 147 3053 
L 147 3500 
L 697 3500 
L 697 3744 
Q 697 4328 969 4595 
Q 1241 4863 1831 4863 
L 2375 4863 
z
" transform="scale(0.015625)"/>
       <path id="DejaVuSans-6f" d="M 1959 3097 
Q 1497 3097 1228 2736 
Q 959 2375 959 1747 
Q 959 1119 1226 758 
Q 1494 397 1959 397 
Q 2419 397 2687 759 
Q 2956 1122 2956 1747 
Q 2956 2369 2687 2733 
Q 2419 3097 1959 3097 
z
M 1959 3584 
Q 2709 3584 3137 3096 
Q 3566 2609 3566 1747 
Q 3566 888 3137 398 
Q 2709 -91 1959 -91 
Q 1206 -91 779 398 
Q 353 888 353 1747 
Q 353 2609 779 3096 
Q 1206 3584 1959 3584 
z
" transform="scale(0.015625)"/>
       <path id="DejaVuSans-72" d="M 2631 2963 
Q 2534 3019 2420 3045 
Q 2306 3072 2169 3072 
Q 1681 3072 1420 2755 
Q 1159 2438 1159 1844 
L 1159 0 
L 581 0 
L 581 3500 
L 1159 3500 
L 1159 2956 
Q 1341 3275 1631 3429 
Q 1922 3584 2338 3584 
Q 2397 3584 2469 3576 
Q 2541 3569 2628 3553 
L 2631 2963 
z
" transform="scale(0.015625)"/>
       <path id="DejaVuSans-6d" d="M 3328 2828 
Q 3544 3216 3844 3400 
Q 4144 3584 4550 3584 
Q 5097 3584 5394 3201 
Q 5691 2819 5691 2113 
L 5691 0 
L 5113 0 
L 5113 2094 
Q 5113 2597 4934 2840 
Q 4756 3084 4391 3084 
Q 3944 3084 3684 2787 
Q 3425 2491 3425 1978 
L 3425 0 
L 2847 0 
L 2847 2094 
Q 2847 2600 2669 2842 
Q 2491 3084 2119 3084 
Q 1678 3084 1418 2786 
Q 1159 2488 1159 1978 
L 1159 0 
L 581 0 
L 581 3500 
L 1159 3500 
L 1159 2956 
Q 1356 3278 1631 3431 
Q 1906 3584 2284 3584 
Q 2666 3584 2933 3390 
Q 3200 3197 3328 2828 
z
" transform="scale(0.015625)"/>
       <path id="DejaVuSans-61" d="M 2194 1759 
Q 1497 1759 1228 1600 
Q 959 1441 959 1056 
Q 959 750 1161 570 
Q 1363 391 1709 391 
Q 2188 391 2477 730 
Q 2766 1069 2766 1631 
L 2766 1759 
L 2194 1759 
z
M 3341 1997 
L 3341 0 
L 2766 0 
L 2766 531 
Q 2569 213 2275 61 
Q 1981 -91 1556 -91 
Q 1019 -91 701 211 
Q 384 513 384 1019 
Q 384 1609 779 1909 
Q 1175 2209 1959 2209 
L 2766 2209 
L 2766 2266 
Q 2766 2663 2505 2880 
Q 2244 3097 1772 3097 
Q 1472 3097 1187 3025 
Q 903 2953 641 2809 
L 641 3341 
Q 956 3463 1253 3523 
Q 1550 3584 1831 3584 
Q 2591 3584 2966 3190 
Q 3341 2797 3341 1997 
z
" transform="scale(0.015625)"/>
       <path id="DejaVuSans-74" d="M 1172 4494 
L 1172 3500 
L 2356 3500 
L 2356 3053 
L 1172 3053 
L 1172 1153 
Q 1172 725 1289 603 
Q 1406 481 1766 481 
L 2356 481 
L 2356 0 
L 1766 0 
Q 1100 0 847 248 
Q 594 497 594 1153 
L 594 3053 
L 172 3053 
L 172 3500 
L 594 3500 
L 594 4494 
L 1172 4494 
z
" transform="scale(0.015625)"/>
       <path id="DejaVuSans-69" d="M 603 3500 
L 1178 3500 
L 1178 0 
L 603 0 
L 603 3500 
z
M 603 4863 
L 1178 4863 
L 1178 4134 
L 603 4134 
L 603 4863 
z
" transform="scale(0.015625)"/>
       <path id="DejaVuSans-20" transform="scale(0.015625)"/>
       <path id="DejaVuSans-43" d="M 4122 4306 
L 4122 3641 
Q 3803 3938 3442 4084 
Q 3081 4231 2675 4231 
Q 1875 4231 1450 3742 
Q 1025 3253 1025 2328 
Q 1025 1406 1450 917 
Q 1875 428 2675 428 
Q 3081 428 3442 575 
Q 3803 722 4122 1019 
L 4122 359 
Q 3791 134 3420 21 
Q 3050 -91 2638 -91 
Q 1578 -91 968 557 
Q 359 1206 359 2328 
Q 359 3453 968 4101 
Q 1578 4750 2638 4750 
Q 3056 4750 3426 4639 
Q 3797 4528 4122 4306 
z
" transform="scale(0.015625)"/>
       <path id="DejaVuSans-70" d="M 1159 525 
L 1159 -1331 
L 581 -1331 
L 581 3500 
L 1159 3500 
L 1159 2969 
Q 1341 3281 1617 3432 
Q 1894 3584 2278 3584 
Q 2916 3584 3314 3078 
Q 3713 2572 3713 1747 
Q 3713 922 3314 415 
Q 2916 -91 2278 -91 
Q 1894 -91 1617 61 
Q 1341 213 1159 525 
z
M 3116 1747 
Q 3116 2381 2855 2742 
Q 2594 3103 2138 3103 
Q 1681 3103 1420 2742 
Q 1159 2381 1159 1747 
Q 1159 1113 1420 752 
Q 1681 391 2138 391 
Q 2594 391 2855 752 
Q 3116 1113 3116 1747 
z
" transform="scale(0.015625)"/>
       <path id="DejaVuSans-63" d="M 3122 3366 
L 3122 2828 
Q 2878 2963 2633 3030 
Q 2388 3097 2138 3097 
Q 1578 3097 1268 2742 
Q 959 2388 959 1747 
Q 959 1106 1268 751 
Q 1578 397 2138 397 
Q 2388 397 2633 464 
Q 2878 531 3122 666 
L 3122 134 
Q 2881 22 2623 -34 
Q 2366 -91 2075 -91 
Q 1284 -91 818 406 
Q 353 903 353 1747 
Q 353 2603 823 3093 
Q 1294 3584 2113 3584 
Q 2378 3584 2631 3529 
Q 2884 3475 3122 3366 
z
" transform="scale(0.015625)"/>
       <path id="DejaVuSans-79" d="M 2059 -325 
Q 1816 -950 1584 -1140 
Q 1353 -1331 966 -1331 
L 506 -1331 
L 506 -850 
L 844 -850 
Q 1081 -850 1212 -737 
Q 1344 -625 1503 -206 
L 1606 56 
L 191 3500 
L 800 3500 
L 1894 763 
L 2988 3500 
L 3597 3500 
L 2059 -325 
z
" transform="scale(0.015625)"/>
       <path id="DejaVuSans-28" d="M 1984 4856 
Q 1566 4138 1362 3434 
Q 1159 2731 1159 2009 
Q 1159 1288 1364 580 
Q 1569 -128 1984 -844 
L 1484 -844 
Q 1016 -109 783 600 
Q 550 1309 550 2009 
Q 550 2706 781 3412 
Q 1013 4119 1484 4856 
L 1984 4856 
z
" transform="scale(0.015625)"/>
       <path id="DejaVuSans-62" d="M 3116 1747 
Q 3116 2381 2855 2742 
Q 2594 3103 2138 3103 
Q 1681 3103 1420 2742 
Q 1159 2381 1159 1747 
Q 1159 1113 1420 752 
Q 1681 391 2138 391 
Q 2594 391 2855 752 
Q 3116 1113 3116 1747 
z
M 1159 2969 
Q 1341 3281 1617 3432 
Q 1894 3584 2278 3584 
Q 2916 3584 3314 3078 
Q 3713 2572 3713 1747 
Q 3713 922 3314 415 
Q 2916 -91 2278 -91 
Q 1894 -91 1617 61 
Q 1341 213 1159 525 
L 1159 0 
L 581 0 
L 581 4863 
L 1159 4863 
L 1159 2969 
z
" transform="scale(0.015625)"/>
       <path id="DejaVuSans-73" d="M 2834 3397 
L 2834 2853 
Q 2591 2978 2328 3040 
Q 2066 3103 1784 3103 
Q 1356 3103 1142 2972 
Q 928 2841 928 2578 
Q 928 2378 1081 2264 
Q 1234 2150 1697 2047 
L 1894 2003 
Q 2506 1872 2764 1633 
Q 3022 1394 3022 966 
Q 3022 478 2636 193 
Q 2250 -91 1575 -91 
Q 1294 -91 989 -36 
Q 684 19 347 128 
L 347 722 
Q 666 556 975 473 
Q 1284 391 1588 391 
Q 1994 391 2212 530 
Q 2431 669 2431 922 
Q 2431 1156 2273 1281 
Q 2116 1406 1581 1522 
L 1381 1569 
Q 847 1681 609 1914 
Q 372 2147 372 2553 
Q 372 3047 722 3315 
Q 1072 3584 1716 3584 
Q 2034 3584 2315 3537 
Q 2597 3491 2834 3397 
z
" transform="scale(0.015625)"/>
       <path id="DejaVuSans-29" d="M 513 4856 
L 1013 4856 
Q 1481 4119 1714 3412 
Q 1947 2706 1947 2009 
Q 1947 1309 1714 600 
Q 1481 -109 1013 -844 
L 513 -844 
Q 928 -128 1133 580 
Q 1338 1288 1338 2009 
Q 1338 2731 1133 3434 
Q 928 4138 513 4856 
z
" transform="scale(0.015625)"/>
      </defs>
      <use xlink:href="#DejaVuSans-49"/>
      <use xlink:href="#DejaVuSans-6e" x="29.492188"/>
      <use xlink:href="#DejaVuSans-66" x="92.871094"/>
      <use xlink:href="#DejaVuSans-6f" x="128.076172"/>
      <use xlink:href="#DejaVuSans-72" x="189.257812"/>
      <use xlink:href="#DejaVuSans-6d" x="228.621094"/>
      <use xlink:href="#DejaVuSans-61" x="326.033203"/>
      <use xlink:href="#DejaVuSans-74" x="387.3125"/>
      <use xlink:href="#DejaVuSans-69" x="426.521484"/>
      <use xlink:href="#DejaVuSans-6f" x="454.304688"/>
      <use xlink:href="#DejaVuSans-6e" x="515.486328"/>
      <use xlink:href="#DejaVuSans-20" x="578.865234"/>
      <use xlink:href="#DejaVuSans-43" x="610.652344"/>
      <use xlink:href="#DejaVuSans-61" x="680.476562"/>
      <use xlink:href="#DejaVuSans-70" x="741.755859"/>
      <use xlink:href="#DejaVuSans-61" x="805.232422"/>
      <use xlink:href="#DejaVuSans-63" x="866.511719"/>
      <use xlink:href="#DejaVuSans-69" x="921.492188"/>
      <use xlink:href="#DejaVuSans-74" x="949.275391"/>
      <use xlink:href="#DejaVuSans-79" x="988.484375"/>
      <use xlink:href="#DejaVuSans-20" x="1047.664062"/>
      <use xlink:href="#DejaVuSans-28" x="1079.451172"/>
      <use xlink:href="#DejaVuSans-62" x="1118.464844"/>
      <use xlink:href="#DejaVuSans-69" x="1181.941406"/>
      <use xlink:href="#DejaVuSans-74" x="1209.724609"/>
      <use xlink:href="#DejaVuSans-73" x="1248.933594"/>
      <use xlink:href="#DejaVuSans-29" x="1301.033203"/>
     </g>
    </g>
   </g>
   <g id="matplotlib.axis_2">
    <g id="ytick_1">
     <g id="line2d_7">
      <defs>
       <path id="m39afcdacb5" d="M 0 0 
L -2 0 
" style="stroke: #000000; stroke-width: 0.5"/>
      </defs>
      <g>
       <use xlink:href="#m39afcdacb5" x="30.458438" y="139.5" style="stroke: #000000; stroke-width: 0.5"/>
      </g>
     </g>
     <g id="text_8">
      <!-- 0.0 -->
      <g transform="translate(17.006875 141.399609) scale(0.05 -0.05)">
       <use xlink:href="#DejaVuSans-30"/>
       <use xlink:href="#DejaVuSans-2e" x="63.623047"/>
       <use xlink:href="#DejaVuSans-30" x="95.410156"/>
      </g>
     </g>
    </g>
    <g id="ytick_2">
     <g id="line2d_8">
      <g>
       <use xlink:href="#m39afcdacb5" x="30.458438" y="121.90655" style="stroke: #000000; stroke-width: 0.5"/>
      </g>
     </g>
     <g id="text_9">
      <!-- 0.1 -->
      <g transform="translate(17.006875 123.80616) scale(0.05 -0.05)">
       <use xlink:href="#DejaVuSans-30"/>
       <use xlink:href="#DejaVuSans-2e" x="63.623047"/>
       <use xlink:href="#DejaVuSans-31" x="95.410156"/>
      </g>
     </g>
    </g>
    <g id="ytick_3">
     <g id="line2d_9">
      <g>
       <use xlink:href="#m39afcdacb5" x="30.458438" y="104.313101" style="stroke: #000000; stroke-width: 0.5"/>
      </g>
     </g>
     <g id="text_10">
      <!-- 0.2 -->
      <g transform="translate(17.006875 106.21271) scale(0.05 -0.05)">
       <use xlink:href="#DejaVuSans-30"/>
       <use xlink:href="#DejaVuSans-2e" x="63.623047"/>
       <use xlink:href="#DejaVuSans-32" x="95.410156"/>
      </g>
     </g>
    </g>
    <g id="ytick_4">
     <g id="line2d_10">
      <g>
       <use xlink:href="#m39afcdacb5" x="30.458438" y="86.719651" style="stroke: #000000; stroke-width: 0.5"/>
      </g>
     </g>
     <g id="text_11">
      <!-- 0.3 -->
      <g transform="translate(17.006875 88.61926) scale(0.05 -0.05)">
       <defs>
        <path id="DejaVuSans-33" d="M 2597 2516 
Q 3050 2419 3304 2112 
Q 3559 1806 3559 1356 
Q 3559 666 3084 287 
Q 2609 -91 1734 -91 
Q 1441 -91 1130 -33 
Q 819 25 488 141 
L 488 750 
Q 750 597 1062 519 
Q 1375 441 1716 441 
Q 2309 441 2620 675 
Q 2931 909 2931 1356 
Q 2931 1769 2642 2001 
Q 2353 2234 1838 2234 
L 1294 2234 
L 1294 2753 
L 1863 2753 
Q 2328 2753 2575 2939 
Q 2822 3125 2822 3475 
Q 2822 3834 2567 4026 
Q 2313 4219 1838 4219 
Q 1578 4219 1281 4162 
Q 984 4106 628 3988 
L 628 4550 
Q 988 4650 1302 4700 
Q 1616 4750 1894 4750 
Q 2613 4750 3031 4423 
Q 3450 4097 3450 3541 
Q 3450 3153 3228 2886 
Q 3006 2619 2597 2516 
z
" transform="scale(0.015625)"/>
       </defs>
       <use xlink:href="#DejaVuSans-30"/>
       <use xlink:href="#DejaVuSans-2e" x="63.623047"/>
       <use xlink:href="#DejaVuSans-33" x="95.410156"/>
      </g>
     </g>
    </g>
    <g id="ytick_5">
     <g id="line2d_11">
      <g>
       <use xlink:href="#m39afcdacb5" x="30.458438" y="69.126201" style="stroke: #000000; stroke-width: 0.5"/>
      </g>
     </g>
     <g id="text_12">
      <!-- 0.4 -->
      <g transform="translate(17.006875 71.025811) scale(0.05 -0.05)">
       <use xlink:href="#DejaVuSans-30"/>
       <use xlink:href="#DejaVuSans-2e" x="63.623047"/>
       <use xlink:href="#DejaVuSans-34" x="95.410156"/>
      </g>
     </g>
    </g>
    <g id="ytick_6">
     <g id="line2d_12">
      <g>
       <use xlink:href="#m39afcdacb5" x="30.458438" y="51.532752" style="stroke: #000000; stroke-width: 0.5"/>
      </g>
     </g>
     <g id="text_13">
      <!-- 0.5 -->
      <g transform="translate(17.006875 53.432361) scale(0.05 -0.05)">
       <defs>
        <path id="DejaVuSans-35" d="M 691 4666 
L 3169 4666 
L 3169 4134 
L 1269 4134 
L 1269 2991 
Q 1406 3038 1543 3061 
Q 1681 3084 1819 3084 
Q 2600 3084 3056 2656 
Q 3513 2228 3513 1497 
Q 3513 744 3044 326 
Q 2575 -91 1722 -91 
Q 1428 -91 1123 -41 
Q 819 9 494 109 
L 494 744 
Q 775 591 1075 516 
Q 1375 441 1709 441 
Q 2250 441 2565 725 
Q 2881 1009 2881 1497 
Q 2881 1984 2565 2268 
Q 2250 2553 1709 2553 
Q 1456 2553 1204 2497 
Q 953 2441 691 2322 
L 691 4666 
z
" transform="scale(0.015625)"/>
       </defs>
       <use xlink:href="#DejaVuSans-30"/>
       <use xlink:href="#DejaVuSans-2e" x="63.623047"/>
       <use xlink:href="#DejaVuSans-35" x="95.410156"/>
      </g>
     </g>
    </g>
    <g id="ytick_7">
     <g id="line2d_13">
      <g>
       <use xlink:href="#m39afcdacb5" x="30.458438" y="33.939302" style="stroke: #000000; stroke-width: 0.5"/>
      </g>
     </g>
     <g id="text_14">
      <!-- 0.6 -->
      <g transform="translate(17.006875 35.838912) scale(0.05 -0.05)">
       <use xlink:href="#DejaVuSans-30"/>
       <use xlink:href="#DejaVuSans-2e" x="63.623047"/>
       <use xlink:href="#DejaVuSans-36" x="95.410156"/>
      </g>
     </g>
    </g>
    <g id="ytick_8">
     <g id="line2d_14">
      <g>
       <use xlink:href="#m39afcdacb5" x="30.458438" y="16.345853" style="stroke: #000000; stroke-width: 0.5"/>
      </g>
     </g>
     <g id="text_15">
      <!-- 0.7 -->
      <g transform="translate(17.006875 18.245462) scale(0.05 -0.05)">
       <defs>
        <path id="DejaVuSans-37" d="M 525 4666 
L 3525 4666 
L 3525 4397 
L 1831 0 
L 1172 0 
L 2766 4134 
L 525 4134 
L 525 4666 
z
" transform="scale(0.015625)"/>
       </defs>
       <use xlink:href="#DejaVuSans-30"/>
       <use xlink:href="#DejaVuSans-2e" x="63.623047"/>
       <use xlink:href="#DejaVuSans-37" x="95.410156"/>
      </g>
     </g>
    </g>
    <g id="text_16">
     <!-- Inference Predictiveness (bits) -->
     <g transform="translate(11.759063 121.980938) rotate(-90) scale(0.06 -0.06)">
      <defs>
       <path id="DejaVuSans-65" d="M 3597 1894 
L 3597 1613 
L 953 1613 
Q 991 1019 1311 708 
Q 1631 397 2203 397 
Q 2534 397 2845 478 
Q 3156 559 3463 722 
L 3463 178 
Q 3153 47 2828 -22 
Q 2503 -91 2169 -91 
Q 1331 -91 842 396 
Q 353 884 353 1716 
Q 353 2575 817 3079 
Q 1281 3584 2069 3584 
Q 2775 3584 3186 3129 
Q 3597 2675 3597 1894 
z
M 3022 2063 
Q 3016 2534 2758 2815 
Q 2500 3097 2075 3097 
Q 1594 3097 1305 2825 
Q 1016 2553 972 2059 
L 3022 2063 
z
" transform="scale(0.015625)"/>
       <path id="DejaVuSans-50" d="M 1259 4147 
L 1259 2394 
L 2053 2394 
Q 2494 2394 2734 2622 
Q 2975 2850 2975 3272 
Q 2975 3691 2734 3919 
Q 2494 4147 2053 4147 
L 1259 4147 
z
M 628 4666 
L 2053 4666 
Q 2838 4666 3239 4311 
Q 3641 3956 3641 3272 
Q 3641 2581 3239 2228 
Q 2838 1875 2053 1875 
L 1259 1875 
L 1259 0 
L 628 0 
L 628 4666 
z
" transform="scale(0.015625)"/>
       <path id="DejaVuSans-64" d="M 2906 2969 
L 2906 4863 
L 3481 4863 
L 3481 0 
L 2906 0 
L 2906 525 
Q 2725 213 2448 61 
Q 2172 -91 1784 -91 
Q 1150 -91 751 415 
Q 353 922 353 1747 
Q 353 2572 751 3078 
Q 1150 3584 1784 3584 
Q 2172 3584 2448 3432 
Q 2725 3281 2906 2969 
z
M 947 1747 
Q 947 1113 1208 752 
Q 1469 391 1925 391 
Q 2381 391 2643 752 
Q 2906 1113 2906 1747 
Q 2906 2381 2643 2742 
Q 2381 3103 1925 3103 
Q 1469 3103 1208 2742 
Q 947 2381 947 1747 
z
" transform="scale(0.015625)"/>
       <path id="DejaVuSans-76" d="M 191 3500 
L 800 3500 
L 1894 563 
L 2988 3500 
L 3597 3500 
L 2284 0 
L 1503 0 
L 191 3500 
z
" transform="scale(0.015625)"/>
      </defs>
      <use xlink:href="#DejaVuSans-49"/>
      <use xlink:href="#DejaVuSans-6e" x="29.492188"/>
      <use xlink:href="#DejaVuSans-66" x="92.871094"/>
      <use xlink:href="#DejaVuSans-65" x="128.076172"/>
      <use xlink:href="#DejaVuSans-72" x="189.599609"/>
      <use xlink:href="#DejaVuSans-65" x="228.462891"/>
      <use xlink:href="#DejaVuSans-6e" x="289.986328"/>
      <use xlink:href="#DejaVuSans-63" x="353.365234"/>
      <use xlink:href="#DejaVuSans-65" x="408.345703"/>
      <use xlink:href="#DejaVuSans-20" x="469.869141"/>
      <use xlink:href="#DejaVuSans-50" x="501.65625"/>
      <use xlink:href="#DejaVuSans-72" x="560.208984"/>
      <use xlink:href="#DejaVuSans-65" x="599.072266"/>
      <use xlink:href="#DejaVuSans-64" x="660.595703"/>
      <use xlink:href="#DejaVuSans-69" x="724.072266"/>
      <use xlink:href="#DejaVuSans-63" x="751.855469"/>
      <use xlink:href="#DejaVuSans-74" x="806.835938"/>
      <use xlink:href="#DejaVuSans-69" x="846.044922"/>
      <use xlink:href="#DejaVuSans-76" x="873.828125"/>
      <use xlink:href="#DejaVuSans-65" x="933.007812"/>
      <use xlink:href="#DejaVuSans-6e" x="994.53125"/>
      <use xlink:href="#DejaVuSans-65" x="1057.910156"/>
      <use xlink:href="#DejaVuSans-73" x="1119.433594"/>
      <use xlink:href="#DejaVuSans-73" x="1171.533203"/>
      <use xlink:href="#DejaVuSans-20" x="1223.632812"/>
      <use xlink:href="#DejaVuSans-28" x="1255.419922"/>
      <use xlink:href="#DejaVuSans-62" x="1294.433594"/>
      <use xlink:href="#DejaVuSans-69" x="1357.910156"/>
      <use xlink:href="#DejaVuSans-74" x="1385.693359"/>
      <use xlink:href="#DejaVuSans-73" x="1424.902344"/>
      <use xlink:href="#DejaVuSans-29" x="1477.001953"/>
     </g>
    </g>
   </g>
   <g id="line2d_15">
    <path d="M 38.067528 139.5 
L 38.067528 139.5 
L 50.634626 134.335165 
L 65.704657 128.324118 
L 84.343975 121.192579 
L 99.390317 115.70847 
L 111.746219 111.408614 
L 125.082044 106.997564 
L 138.049625 102.965405 
L 149.775413 99.568512 
L 161.005829 96.573352 
L 170.470476 94.283299 
L 179.042089 92.441183 
L 185.967629 91.175292 
L 190.249347 90.577559 
L 190.249347 90.577559 
" clip-path="url(#pa307898853)" style="fill: none; stroke: #1f77b4; stroke-width: 0.7; stroke-linecap: square"/>
   </g>
   <g id="line2d_16">
    <path d="M 38.067528 139.5 
L 38.067528 139.5 
L 51.607756 131.499632 
L 64.746013 124.082281 
L 75.377097 118.360305 
L 84.127779 113.860227 
L 94.637923 108.735533 
L 102.840194 104.974567 
L 111.235422 101.37177 
L 118.899776 98.333362 
L 126.202993 95.702415 
L 134.770606 92.901257 
L 144.204707 90.024401 
L 153.414654 87.44953 
L 161.900166 85.316365 
L 169.144199 83.720832 
L 175.212283 82.608075 
L 178.544404 82.162182 
L 178.544404 82.162182 
" clip-path="url(#pa307898853)" style="fill: none; stroke: #aec7e8; stroke-width: 0.7; stroke-linecap: square"/>
   </g>
   <g id="line2d_17">
    <path d="M 38.067528 139.5 
L 38.067528 139.5 
L 50.762414 130.216616 
L 65.363169 119.823662 
L 77.706483 111.300288 
L 88.272698 104.215839 
L 97.414305 98.25944 
L 112.419808 88.869285 
L 124.192358 81.881402 
L 133.643632 76.545834 
L 141.370091 72.387357 
L 150.582797 67.697201 
L 157.718044 64.290208 
L 164.967418 61.058993 
L 171.533178 58.363458 
L 177.735972 56.056792 
L 183.045331 54.312923 
L 187.493195 53.077367 
L 190.249347 52.500552 
L 190.249347 52.500552 
" clip-path="url(#pa307898853)" style="fill: none; stroke: #ff7f0e; stroke-width: 0.7; stroke-linecap: square"/>
   </g>
   <g id="line2d_18">
    <path d="M 38.067528 139.5 
L 38.067528 139.5 
L 54.161853 126.48591 
L 70.551314 113.629969 
L 83.534143 103.781065 
L 94.057392 96.052061 
L 102.746036 89.867267 
L 116.21063 80.693335 
L 126.101056 74.330897 
L 133.613688 69.753447 
L 141.91364 65.002473 
L 149.441637 61.031227 
L 155.469461 58.143301 
L 160.421933 56.025782 
L 164.451058 54.544979 
L 168.632102 53.271911 
L 175.401007 51.414612 
L 181.007533 50.109535 
L 185.333357 49.323624 
L 187.406171 49.07921 
L 187.406171 49.07921 
" clip-path="url(#pa307898853)" style="fill: none; stroke: #ffbb78; stroke-width: 0.7; stroke-linecap: square"/>
   </g>
   <g id="line2d_19">
    <path d="M 38.067528 139.5 
L 38.067528 139.5 
L 56.854469 123.209472 
L 79.175409 104.422616 
L 95.871522 90.86522 
L 108.81204 80.714822 
L 119.122598 72.893242 
L 127.520242 66.725501 
L 140.341412 57.723856 
L 149.627127 51.579113 
L 156.62173 47.201806 
L 164.316651 42.685236 
L 171.311395 38.909295 
L 176.990509 36.131335 
L 181.813707 34.031262 
L 185.790147 32.540114 
L 188.924349 31.596318 
L 190.249347 31.32046 
L 190.249347 31.32046 
" clip-path="url(#pa307898853)" style="fill: none; stroke: #2ca02c; stroke-width: 0.7; stroke-linecap: square"/>
   </g>
   <g id="line2d_20">
    <path d="M 38.067528 139.5 
L 38.067528 139.5 
L 59.925803 119.796546 
L 83.6396 99.079566 
L 100.516847 84.874407 
L 113.114839 74.644662 
L 122.857879 67.002281 
L 130.600683 61.12855 
L 142.079069 52.815609 
L 150.113392 47.341438 
L 158.35227 42.103962 
L 163.841281 38.881652 
L 168.676811 36.270527 
L 172.980357 34.181832 
L 176.703335 32.630548 
L 179.374431 31.759798 
L 181.583473 31.284238 
L 185.323179 30.77221 
L 188.727257 30.513428 
L 189.408839 30.492193 
L 189.408839 30.492193 
" clip-path="url(#pa307898853)" style="fill: none; stroke: #98df8a; stroke-width: 0.7; stroke-linecap: square"/>
   </g>
   <g id="line2d_21">
    <path d="M 38.067528 139.5 
L 38.067528 139.5 
L 52.623025 125.94053 
L 83.272363 98.10632 
L 103.7689 80.200216 
L 118.398639 67.886815 
L 129.340852 59.001629 
L 137.816171 52.353665 
L 150.041954 43.211472 
L 158.37723 37.359149 
L 164.369305 33.393787 
L 170.66574 29.498972 
L 176.09606 26.42248 
L 180.883932 23.996717 
L 184.555187 22.389586 
L 187.452718 21.358032 
L 189.512634 20.850692 
L 190.249346 20.756912 
L 190.249346 20.756912 
" clip-path="url(#pa307898853)" style="fill: none; stroke: #d62728; stroke-width: 0.7; stroke-linecap: square"/>
   </g>
   <g id="line2d_22">
    <path d="M 38.067528 139.5 
L 38.067528 139.5 
L 68.670287 110.730072 
L 95.180679 86.654648 
L 112.913238 71.163215 
L 125.573202 60.507717 
L 135.041038 52.819732 
L 142.369836 47.071075 
L 152.921302 39.180757 
L 160.083169 34.152165 
L 167.227365 29.481144 
L 173.048787 26.01125 
L 177.261467 23.757373 
L 181.0003 22.018978 
L 183.70479 21.011529 
L 185.636568 20.52605 
L 187.722525 20.24803 
L 189.520756 20.146832 
L 189.520756 20.146832 
" clip-path="url(#pa307898853)" style="fill: none; stroke: #ff9896; stroke-width: 0.7; stroke-linecap: square"/>
   </g>
   <g id="line2d_23">
    <path d="M 38.067528 139.5 
L 38.067528 139.5 
L 39.957142 137.678204 
L 80.245315 99.579802 
L 104.757369 77.319277 
L 121.171907 62.979324 
L 132.898333 53.10957 
L 141.671331 45.985807 
L 153.863976 36.561238 
L 161.864196 30.767229 
L 167.452291 26.959743 
L 173.162174 23.32984 
L 177.928379 20.560918 
L 181.970423 18.466063 
L 185.330256 16.984983 
L 187.724615 16.173493 
L 189.394079 15.837061 
L 190.220348 15.779192 
L 190.220348 15.779192 
" clip-path="url(#pa307898853)" style="fill: none; stroke: #9467bd; stroke-width: 0.7; stroke-linecap: square"/>
   </g>
   <g id="line2d_24">
    <path d="M 38.067528 139.5 
L 38.067528 139.5 
L 49.077195 128.84605 
L 86.637809 93.32698 
L 109.499953 72.564852 
L 124.817667 59.183118 
L 135.764088 49.969873 
L 143.953757 43.319776 
L 155.329307 34.526741 
L 162.780102 29.130577 
L 169.996097 24.274172 
L 175.708547 20.778204 
L 179.735425 18.57211 
L 183.211836 16.921688 
L 185.696621 15.983791 
L 187.423568 15.5629 
L 189.228529 15.369637 
L 189.967672 15.340616 
L 189.967672 15.340616 
" clip-path="url(#pa307898853)" style="fill: none; stroke: #c5b0d5; stroke-width: 0.7; stroke-linecap: square"/>
   </g>
   <g id="line2d_25">
    <path d="M 38.067528 139.5 
L 38.067528 139.5 
L 55.413647 122.669687 
L 91.535535 88.511248 
L 113.537036 68.530738 
L 128.283064 55.648444 
L 138.822521 46.77773 
L 146.708129 40.374534 
L 157.661323 31.907969 
L 164.83537 26.712237 
L 171.784045 22.035749 
L 177.287963 18.66743 
L 181.718177 16.261932 
L 184.97975 14.755425 
L 187.290443 13.9262 
L 188.869078 13.587455 
L 190.115684 13.5 
L 190.115684 13.5 
" clip-path="url(#pa307898853)" style="fill: none; stroke: #8c564b; stroke-width: 0.7; stroke-linecap: square"/>
   </g>
   <g id="patch_3">
    <path d="M 30.458438 145.8 
L 30.458438 7.2 
" style="fill: none; stroke: #000000; stroke-width: 0.5; stroke-linejoin: miter; stroke-linecap: square"/>
   </g>
   <g id="patch_4">
    <path d="M 30.458438 145.8 
L 197.858438 145.8 
" style="fill: none; stroke: #000000; stroke-width: 0.5; stroke-linejoin: miter; stroke-linecap: square"/>
   </g>
   <g id="legend_1">
    <g id="line2d_26">
     <path d="M 34.958438 13.749219 
L 39.958438 13.749219 
L 44.958438 13.749219 
" style="fill: none; stroke: #1f77b4; stroke-width: 0.7; stroke-linecap: square"/>
    </g>
    <g id="text_17">
     <!-- # of beads=1 -->
     <g transform="translate(48.958438 15.499219) scale(0.05 -0.05)">
      <defs>
       <path id="DejaVuSans-23" d="M 3272 2816 
L 2363 2816 
L 2100 1772 
L 3016 1772 
L 3272 2816 
z
M 2803 4594 
L 2478 3297 
L 3391 3297 
L 3719 4594 
L 4219 4594 
L 3897 3297 
L 4872 3297 
L 4872 2816 
L 3775 2816 
L 3519 1772 
L 4513 1772 
L 4513 1294 
L 3397 1294 
L 3072 0 
L 2572 0 
L 2894 1294 
L 1978 1294 
L 1656 0 
L 1153 0 
L 1478 1294 
L 494 1294 
L 494 1772 
L 1594 1772 
L 1856 2816 
L 850 2816 
L 850 3297 
L 1978 3297 
L 2297 4594 
L 2803 4594 
z
" transform="scale(0.015625)"/>
       <path id="DejaVuSans-3d" d="M 678 2906 
L 4684 2906 
L 4684 2381 
L 678 2381 
L 678 2906 
z
M 678 1631 
L 4684 1631 
L 4684 1100 
L 678 1100 
L 678 1631 
z
" transform="scale(0.015625)"/>
      </defs>
      <use xlink:href="#DejaVuSans-23"/>
      <use xlink:href="#DejaVuSans-20" x="83.789062"/>
      <use xlink:href="#DejaVuSans-6f" x="115.576172"/>
      <use xlink:href="#DejaVuSans-66" x="176.757812"/>
      <use xlink:href="#DejaVuSans-20" x="211.962891"/>
      <use xlink:href="#DejaVuSans-62" x="243.75"/>
      <use xlink:href="#DejaVuSans-65" x="307.226562"/>
      <use xlink:href="#DejaVuSans-61" x="368.75"/>
      <use xlink:href="#DejaVuSans-64" x="430.029297"/>
      <use xlink:href="#DejaVuSans-73" x="493.505859"/>
      <use xlink:href="#DejaVuSans-3d" x="545.605469"/>
      <use xlink:href="#DejaVuSans-31" x="629.394531"/>
     </g>
    </g>
    <g id="line2d_27">
     <path d="M 34.958438 21.088281 
L 39.958438 21.088281 
L 44.958438 21.088281 
" style="fill: none; stroke: #aec7e8; stroke-width: 0.7; stroke-linecap: square"/>
    </g>
    <g id="text_18">
     <!-- # of beads=2 -->
     <g transform="translate(48.958438 22.838281) scale(0.05 -0.05)">
      <use xlink:href="#DejaVuSans-23"/>
      <use xlink:href="#DejaVuSans-20" x="83.789062"/>
      <use xlink:href="#DejaVuSans-6f" x="115.576172"/>
      <use xlink:href="#DejaVuSans-66" x="176.757812"/>
      <use xlink:href="#DejaVuSans-20" x="211.962891"/>
      <use xlink:href="#DejaVuSans-62" x="243.75"/>
      <use xlink:href="#DejaVuSans-65" x="307.226562"/>
      <use xlink:href="#DejaVuSans-61" x="368.75"/>
      <use xlink:href="#DejaVuSans-64" x="430.029297"/>
      <use xlink:href="#DejaVuSans-73" x="493.505859"/>
      <use xlink:href="#DejaVuSans-3d" x="545.605469"/>
      <use xlink:href="#DejaVuSans-32" x="629.394531"/>
     </g>
    </g>
    <g id="line2d_28">
     <path d="M 34.958438 28.427344 
L 39.958438 28.427344 
L 44.958438 28.427344 
" style="fill: none; stroke: #ff7f0e; stroke-width: 0.7; stroke-linecap: square"/>
    </g>
    <g id="text_19">
     <!-- # of beads=3 -->
     <g transform="translate(48.958438 30.177344) scale(0.05 -0.05)">
      <use xlink:href="#DejaVuSans-23"/>
      <use xlink:href="#DejaVuSans-20" x="83.789062"/>
      <use xlink:href="#DejaVuSans-6f" x="115.576172"/>
      <use xlink:href="#DejaVuSans-66" x="176.757812"/>
      <use xlink:href="#DejaVuSans-20" x="211.962891"/>
      <use xlink:href="#DejaVuSans-62" x="243.75"/>
      <use xlink:href="#DejaVuSans-65" x="307.226562"/>
      <use xlink:href="#DejaVuSans-61" x="368.75"/>
      <use xlink:href="#DejaVuSans-64" x="430.029297"/>
      <use xlink:href="#DejaVuSans-73" x="493.505859"/>
      <use xlink:href="#DejaVuSans-3d" x="545.605469"/>
      <use xlink:href="#DejaVuSans-33" x="629.394531"/>
     </g>
    </g>
    <g id="line2d_29">
     <path d="M 34.958438 35.766406 
L 39.958438 35.766406 
L 44.958438 35.766406 
" style="fill: none; stroke: #ffbb78; stroke-width: 0.7; stroke-linecap: square"/>
    </g>
    <g id="text_20">
     <!-- # of beads=4 -->
     <g transform="translate(48.958438 37.516406) scale(0.05 -0.05)">
      <use xlink:href="#DejaVuSans-23"/>
      <use xlink:href="#DejaVuSans-20" x="83.789062"/>
      <use xlink:href="#DejaVuSans-6f" x="115.576172"/>
      <use xlink:href="#DejaVuSans-66" x="176.757812"/>
      <use xlink:href="#DejaVuSans-20" x="211.962891"/>
      <use xlink:href="#DejaVuSans-62" x="243.75"/>
      <use xlink:href="#DejaVuSans-65" x="307.226562"/>
      <use xlink:href="#DejaVuSans-61" x="368.75"/>
      <use xlink:href="#DejaVuSans-64" x="430.029297"/>
      <use xlink:href="#DejaVuSans-73" x="493.505859"/>
      <use xlink:href="#DejaVuSans-3d" x="545.605469"/>
      <use xlink:href="#DejaVuSans-34" x="629.394531"/>
     </g>
    </g>
    <g id="line2d_30">
     <path d="M 34.958438 43.105469 
L 39.958438 43.105469 
L 44.958438 43.105469 
" style="fill: none; stroke: #2ca02c; stroke-width: 0.7; stroke-linecap: square"/>
    </g>
    <g id="text_21">
     <!-- # of beads=5 -->
     <g transform="translate(48.958438 44.855469) scale(0.05 -0.05)">
      <use xlink:href="#DejaVuSans-23"/>
      <use xlink:href="#DejaVuSans-20" x="83.789062"/>
      <use xlink:href="#DejaVuSans-6f" x="115.576172"/>
      <use xlink:href="#DejaVuSans-66" x="176.757812"/>
      <use xlink:href="#DejaVuSans-20" x="211.962891"/>
      <use xlink:href="#DejaVuSans-62" x="243.75"/>
      <use xlink:href="#DejaVuSans-65" x="307.226562"/>
      <use xlink:href="#DejaVuSans-61" x="368.75"/>
      <use xlink:href="#DejaVuSans-64" x="430.029297"/>
      <use xlink:href="#DejaVuSans-73" x="493.505859"/>
      <use xlink:href="#DejaVuSans-3d" x="545.605469"/>
      <use xlink:href="#DejaVuSans-35" x="629.394531"/>
     </g>
    </g>
    <g id="line2d_31">
     <path d="M 34.958438 50.444531 
L 39.958438 50.444531 
L 44.958438 50.444531 
" style="fill: none; stroke: #98df8a; stroke-width: 0.7; stroke-linecap: square"/>
    </g>
    <g id="text_22">
     <!-- # of beads=6 -->
     <g transform="translate(48.958438 52.194531) scale(0.05 -0.05)">
      <use xlink:href="#DejaVuSans-23"/>
      <use xlink:href="#DejaVuSans-20" x="83.789062"/>
      <use xlink:href="#DejaVuSans-6f" x="115.576172"/>
      <use xlink:href="#DejaVuSans-66" x="176.757812"/>
      <use xlink:href="#DejaVuSans-20" x="211.962891"/>
      <use xlink:href="#DejaVuSans-62" x="243.75"/>
      <use xlink:href="#DejaVuSans-65" x="307.226562"/>
      <use xlink:href="#DejaVuSans-61" x="368.75"/>
      <use xlink:href="#DejaVuSans-64" x="430.029297"/>
      <use xlink:href="#DejaVuSans-73" x="493.505859"/>
      <use xlink:href="#DejaVuSans-3d" x="545.605469"/>
      <use xlink:href="#DejaVuSans-36" x="629.394531"/>
     </g>
    </g>
    <g id="line2d_32">
     <path d="M 34.958438 57.783594 
L 39.958438 57.783594 
L 44.958438 57.783594 
" style="fill: none; stroke: #d62728; stroke-width: 0.7; stroke-linecap: square"/>
    </g>
    <g id="text_23">
     <!-- # of beads=7 -->
     <g transform="translate(48.958438 59.533594) scale(0.05 -0.05)">
      <use xlink:href="#DejaVuSans-23"/>
      <use xlink:href="#DejaVuSans-20" x="83.789062"/>
      <use xlink:href="#DejaVuSans-6f" x="115.576172"/>
      <use xlink:href="#DejaVuSans-66" x="176.757812"/>
      <use xlink:href="#DejaVuSans-20" x="211.962891"/>
      <use xlink:href="#DejaVuSans-62" x="243.75"/>
      <use xlink:href="#DejaVuSans-65" x="307.226562"/>
      <use xlink:href="#DejaVuSans-61" x="368.75"/>
      <use xlink:href="#DejaVuSans-64" x="430.029297"/>
      <use xlink:href="#DejaVuSans-73" x="493.505859"/>
      <use xlink:href="#DejaVuSans-3d" x="545.605469"/>
      <use xlink:href="#DejaVuSans-37" x="629.394531"/>
     </g>
    </g>
    <g id="line2d_33">
     <path d="M 34.958438 65.122656 
L 39.958438 65.122656 
L 44.958438 65.122656 
" style="fill: none; stroke: #ff9896; stroke-width: 0.7; stroke-linecap: square"/>
    </g>
    <g id="text_24">
     <!-- # of beads=8 -->
     <g transform="translate(48.958438 66.872656) scale(0.05 -0.05)">
      <use xlink:href="#DejaVuSans-23"/>
      <use xlink:href="#DejaVuSans-20" x="83.789062"/>
      <use xlink:href="#DejaVuSans-6f" x="115.576172"/>
      <use xlink:href="#DejaVuSans-66" x="176.757812"/>
      <use xlink:href="#DejaVuSans-20" x="211.962891"/>
      <use xlink:href="#DejaVuSans-62" x="243.75"/>
      <use xlink:href="#DejaVuSans-65" x="307.226562"/>
      <use xlink:href="#DejaVuSans-61" x="368.75"/>
      <use xlink:href="#DejaVuSans-64" x="430.029297"/>
      <use xlink:href="#DejaVuSans-73" x="493.505859"/>
      <use xlink:href="#DejaVuSans-3d" x="545.605469"/>
      <use xlink:href="#DejaVuSans-38" x="629.394531"/>
     </g>
    </g>
    <g id="line2d_34">
     <path d="M 34.958438 72.461719 
L 39.958438 72.461719 
L 44.958438 72.461719 
" style="fill: none; stroke: #9467bd; stroke-width: 0.7; stroke-linecap: square"/>
    </g>
    <g id="text_25">
     <!-- # of beads=9 -->
     <g transform="translate(48.958438 74.211719) scale(0.05 -0.05)">
      <defs>
       <path id="DejaVuSans-39" d="M 703 97 
L 703 672 
Q 941 559 1184 500 
Q 1428 441 1663 441 
Q 2288 441 2617 861 
Q 2947 1281 2994 2138 
Q 2813 1869 2534 1725 
Q 2256 1581 1919 1581 
Q 1219 1581 811 2004 
Q 403 2428 403 3163 
Q 403 3881 828 4315 
Q 1253 4750 1959 4750 
Q 2769 4750 3195 4129 
Q 3622 3509 3622 2328 
Q 3622 1225 3098 567 
Q 2575 -91 1691 -91 
Q 1453 -91 1209 -44 
Q 966 3 703 97 
z
M 1959 2075 
Q 2384 2075 2632 2365 
Q 2881 2656 2881 3163 
Q 2881 3666 2632 3958 
Q 2384 4250 1959 4250 
Q 1534 4250 1286 3958 
Q 1038 3666 1038 3163 
Q 1038 2656 1286 2365 
Q 1534 2075 1959 2075 
z
" transform="scale(0.015625)"/>
      </defs>
      <use xlink:href="#DejaVuSans-23"/>
      <use xlink:href="#DejaVuSans-20" x="83.789062"/>
      <use xlink:href="#DejaVuSans-6f" x="115.576172"/>
      <use xlink:href="#DejaVuSans-66" x="176.757812"/>
      <use xlink:href="#DejaVuSans-20" x="211.962891"/>
      <use xlink:href="#DejaVuSans-62" x="243.75"/>
      <use xlink:href="#DejaVuSans-65" x="307.226562"/>
      <use xlink:href="#DejaVuSans-61" x="368.75"/>
      <use xlink:href="#DejaVuSans-64" x="430.029297"/>
      <use xlink:href="#DejaVuSans-73" x="493.505859"/>
      <use xlink:href="#DejaVuSans-3d" x="545.605469"/>
      <use xlink:href="#DejaVuSans-39" x="629.394531"/>
     </g>
    </g>
    <g id="line2d_35">
     <path d="M 34.958438 79.800781 
L 39.958438 79.800781 
L 44.958438 79.800781 
" style="fill: none; stroke: #c5b0d5; stroke-width: 0.7; stroke-linecap: square"/>
    </g>
    <g id="text_26">
     <!-- # of beads=10 -->
     <g transform="translate(48.958438 81.550781) scale(0.05 -0.05)">
      <use xlink:href="#DejaVuSans-23"/>
      <use xlink:href="#DejaVuSans-20" x="83.789062"/>
      <use xlink:href="#DejaVuSans-6f" x="115.576172"/>
      <use xlink:href="#DejaVuSans-66" x="176.757812"/>
      <use xlink:href="#DejaVuSans-20" x="211.962891"/>
      <use xlink:href="#DejaVuSans-62" x="243.75"/>
      <use xlink:href="#DejaVuSans-65" x="307.226562"/>
      <use xlink:href="#DejaVuSans-61" x="368.75"/>
      <use xlink:href="#DejaVuSans-64" x="430.029297"/>
      <use xlink:href="#DejaVuSans-73" x="493.505859"/>
      <use xlink:href="#DejaVuSans-3d" x="545.605469"/>
      <use xlink:href="#DejaVuSans-31" x="629.394531"/>
      <use xlink:href="#DejaVuSans-30" x="693.017578"/>
     </g>
    </g>
    <g id="line2d_36">
     <path d="M 34.958438 87.139844 
L 39.958438 87.139844 
L 44.958438 87.139844 
" style="fill: none; stroke: #8c564b; stroke-width: 0.7; stroke-linecap: square"/>
    </g>
    <g id="text_27">
     <!-- # of beads=11 -->
     <g transform="translate(48.958438 88.889844) scale(0.05 -0.05)">
      <use xlink:href="#DejaVuSans-23"/>
      <use xlink:href="#DejaVuSans-20" x="83.789062"/>
      <use xlink:href="#DejaVuSans-6f" x="115.576172"/>
      <use xlink:href="#DejaVuSans-66" x="176.757812"/>
      <use xlink:href="#DejaVuSans-20" x="211.962891"/>
      <use xlink:href="#DejaVuSans-62" x="243.75"/>
      <use xlink:href="#DejaVuSans-65" x="307.226562"/>
      <use xlink:href="#DejaVuSans-61" x="368.75"/>
      <use xlink:href="#DejaVuSans-64" x="430.029297"/>
      <use xlink:href="#DejaVuSans-73" x="493.505859"/>
      <use xlink:href="#DejaVuSans-3d" x="545.605469"/>
      <use xlink:href="#DejaVuSans-31" x="629.394531"/>
      <use xlink:href="#DejaVuSans-31" x="693.017578"/>
     </g>
    </g>
   </g>
  </g>
 </g>
 <defs>
  <clipPath id="pa307898853">
   <rect x="30.458438" y="7.2" width="167.4" height="138.6"/>
  </clipPath>
 </defs>
</svg>
