<?xml version="1.0" encoding="utf-8" standalone="no"?>
<!DOCTYPE svg PUBLIC "-//W3C//DTD SVG 1.1//EN"
  "http://www.w3.org/Graphics/SVG/1.1/DTD/svg11.dtd">
<svg xmlns:xlink="http://www.w3.org/1999/xlink" width="208.818437pt" height="172.885937pt" viewBox="0 0 208.818437 172.885937" xmlns="http://www.w3.org/2000/svg" version="1.1">
 <metadata>
  <rdf:RDF xmlns:dc="http://purl.org/dc/elements/1.1/" xmlns:cc="http://creativecommons.org/ns#" xmlns:rdf="http://www.w3.org/1999/02/22-rdf-syntax-ns#">
   <cc:Work>
    <dc:type rdf:resource="http://purl.org/dc/dcmitype/StillImage"/>
    <dc:date>2026-04-19T16:16:51.056751</dc:date>
    <dc:format>image/svg+xml</dc:format>
    <dc:creator>
     <cc:Agent>
      <dc:title>Matplotlib v3.8.2, https://matplotlib.org/</dc:title>
     </cc:Agent>
    </dc:creator>
   </cc:Work>
  </rdf:RDF>
 </metadata>
 <defs>
  <style type="text/css">*{stroke-linejoin: round; stroke-linecap: butt}</style>
 </defs>
 <g id="figure_1">
  <g id="patch_1">
   <path d="M 0 172.885937 
L 208.818437 172.885937 
L 208.818437 0 
L 0 0 
z
" style="fill: #ffffff"/>
  </g>
  <g id="axes_1">
   <g id="patch_2">
    <path d="M 30.458438 145.54 
L 201.618437 145.54 
L 201.618437 7.2 
L 30.458438 7.2 
z
" style="fill: #ffffff"/>
   </g>
   <g id="matplotlib.axis_1">
    <g id="xtick_1">
     <g id="line2d_1">
      <defs>
       <path id="m0a82bc1584" d="M 0 0 
L 0 2 
" style="stroke: #000000; stroke-width: 0.5"/>
      </defs>
      <g>
       <use xlink:href="#m0a82bc1584" x="38.236506" y="145.54" style="stroke: #000000; stroke-width: 0.5"/>
      </g>
     </g>
     <g id="text_1">
      <!-- 0.0 -->
      <g transform="translate(34.260725 154.839219) scale(0.05 -0.05)">
       <defs>
        <path id="DejaVuSans-30" d="M 2034 4250 
Q 1547 4250 1301 3770 
Q 1056 3291 1056 2328 
Q 1056 1369 1301 889 
Q 1547 409 2034 409 
Q 2525 409 2770 889 
Q 3016 1369 3016 2328 
Q 3016 3291 2770 3770 
Q 2525 4250 2034 4250 
z
M 2034 4750 
Q 2819 4750 3233 4129 
Q 3647 3509 3647 2328 
Q 3647 1150 3233 529 
Q 2819 -91 2034 -91 
Q 1250 -91 836 529 
Q 422 1150 422 2328 
Q 422 3509 836 4129 
Q 1250 4750 2034 4750 
z
" transform="scale(0.015625)"/>
        <path id="DejaVuSans-2e" d="M 684 794 
L 1344 794 
L 1344 0 
L 684 0 
L 684 794 
z
" transform="scale(0.015625)"/>
       </defs>
       <use xlink:href="#DejaVuSans-30"/>
       <use xlink:href="#DejaVuSans-2e" x="63.623047"/>
       <use xlink:href="#DejaVuSans-30" x="95.410156"/>
      </g>
     </g>
    </g>
    <g id="xtick_2">
     <g id="line2d_2">
      <g>
       <use xlink:href="#m0a82bc1584" x="69.356893" y="145.54" style="stroke: #000000; stroke-width: 0.5"/>
      </g>
     </g>
     <g id="text_2">
      <!-- 0.2 -->
      <g transform="translate(65.381111 154.839219) scale(0.05 -0.05)">
       <defs>
        <path id="DejaVuSans-32" d="M 1228 531 
L 3431 531 
L 3431 0 
L 469 0 
L 469 531 
Q 828 903 1448 1529 
Q 2069 2156 2228 2338 
Q 2531 2678 2651 2914 
Q 2772 3150 2772 3378 
Q 2772 3750 2511 3984 
Q 2250 4219 1831 4219 
Q 1534 4219 1204 4116 
Q 875 4013 500 3803 
L 500 4441 
Q 881 4594 1212 4672 
Q 1544 4750 1819 4750 
Q 2544 4750 2975 4387 
Q 3406 4025 3406 3419 
Q 3406 3131 3298 2873 
Q 3191 2616 2906 2266 
Q 2828 2175 2409 1742 
Q 1991 1309 1228 531 
z
" transform="scale(0.015625)"/>
       </defs>
       <use xlink:href="#DejaVuSans-30"/>
       <use xlink:href="#DejaVuSans-2e" x="63.623047"/>
       <use xlink:href="#DejaVuSans-32" x="95.410156"/>
      </g>
     </g>
    </g>
    <g id="xtick_3">
     <g id="line2d_3">
      <g>
       <use xlink:href="#m0a82bc1584" x="100.477279" y="145.54" style="stroke: #000000; stroke-width: 0.5"/>
      </g>
     </g>
     <g id="text_3">
      <!-- 0.4 -->
      <g transform="translate(96.501498 154.839219) scale(0.05 -0.05)">
       <defs>
        <path id="DejaVuSans-34" d="M 2419 4116 
L 825 1625 
L 2419 1625 
L 2419 4116 
z
M 2253 4666 
L 3047 4666 
L 3047 1625 
L 3713 1625 
L 3713 1100 
L 3047 1100 
L 3047 0 
L 2419 0 
L 2419 1100 
L 313 1100 
L 313 1709 
L 2253 4666 
z
" transform="scale(0.015625)"/>
       </defs>
       <use xlink:href="#DejaVuSans-30"/>
       <use xlink:href="#DejaVuSans-2e" x="63.623047"/>
       <use xlink:href="#DejaVuSans-34" x="95.410156"/>
      </g>
     </g>
    </g>
    <g id="xtick_4">
     <g id="line2d_4">
      <g>
       <use xlink:href="#m0a82bc1584" x="131.597665" y="145.54" style="stroke: #000000; stroke-width: 0.5"/>
      </g>
     </g>
     <g id="text_4">
      <!-- 0.6 -->
      <g transform="translate(127.621884 154.839219) scale(0.05 -0.05)">
       <defs>
        <path id="DejaVuSans-36" d="M 2113 2584 
Q 1688 2584 1439 2293 
Q 1191 2003 1191 1497 
Q 1191 994 1439 701 
Q 1688 409 2113 409 
Q 2538 409 2786 701 
Q 3034 994 3034 1497 
Q 3034 2003 2786 2293 
Q 2538 2584 2113 2584 
z
M 3366 4563 
L 3366 3988 
Q 3128 4100 2886 4159 
Q 2644 4219 2406 4219 
Q 1781 4219 1451 3797 
Q 1122 3375 1075 2522 
Q 1259 2794 1537 2939 
Q 1816 3084 2150 3084 
Q 2853 3084 3261 2657 
Q 3669 2231 3669 1497 
Q 3669 778 3244 343 
Q 2819 -91 2113 -91 
Q 1303 -91 875 529 
Q 447 1150 447 2328 
Q 447 3434 972 4092 
Q 1497 4750 2381 4750 
Q 2619 4750 2861 4703 
Q 3103 4656 3366 4563 
z
" transform="scale(0.015625)"/>
       </defs>
       <use xlink:href="#DejaVuSans-30"/>
       <use xlink:href="#DejaVuSans-2e" x="63.623047"/>
       <use xlink:href="#DejaVuSans-36" x="95.410156"/>
      </g>
     </g>
    </g>
    <g id="xtick_5">
     <g id="line2d_5">
      <g>
       <use xlink:href="#m0a82bc1584" x="162.718051" y="145.54" style="stroke: #000000; stroke-width: 0.5"/>
      </g>
     </g>
     <g id="text_5">
      <!-- 0.8 -->
      <g transform="translate(158.74227 154.839219) scale(0.05 -0.05)">
       <defs>
        <path id="DejaVuSans-38" d="M 2034 2216 
Q 1584 2216 1326 1975 
Q 1069 1734 1069 1313 
Q 1069 891 1326 650 
Q 1584 409 2034 409 
Q 2484 409 2743 651 
Q 3003 894 3003 1313 
Q 3003 1734 2745 1975 
Q 2488 2216 2034 2216 
z
M 1403 2484 
Q 997 2584 770 2862 
Q 544 3141 544 3541 
Q 544 4100 942 4425 
Q 1341 4750 2034 4750 
Q 2731 4750 3128 4425 
Q 3525 4100 3525 3541 
Q 3525 3141 3298 2862 
Q 3072 2584 2669 2484 
Q 3125 2378 3379 2068 
Q 3634 1759 3634 1313 
Q 3634 634 3220 271 
Q 2806 -91 2034 -91 
Q 1263 -91 848 271 
Q 434 634 434 1313 
Q 434 1759 690 2068 
Q 947 2378 1403 2484 
z
M 1172 3481 
Q 1172 3119 1398 2916 
Q 1625 2713 2034 2713 
Q 2441 2713 2670 2916 
Q 2900 3119 2900 3481 
Q 2900 3844 2670 4047 
Q 2441 4250 2034 4250 
Q 1625 4250 1398 4047 
Q 1172 3844 1172 3481 
z
" transform="scale(0.015625)"/>
       </defs>
       <use xlink:href="#DejaVuSans-30"/>
       <use xlink:href="#DejaVuSans-2e" x="63.623047"/>
       <use xlink:href="#DejaVuSans-38" x="95.410156"/>
      </g>
     </g>
    </g>
    <g id="xtick_6">
     <g id="line2d_6">
      <g>
       <use xlink:href="#m0a82bc1584" x="193.838438" y="145.54" style="stroke: #000000; stroke-width: 0.5"/>
      </g>
     </g>
     <g id="text_6">
      <!-- 1.0 -->
      <g transform="translate(189.862656 154.839219) scale(0.05 -0.05)">
       <defs>
        <path id="DejaVuSans-31" d="M 794 531 
L 1825 531 
L 1825 4091 
L 703 3866 
L 703 4441 
L 1819 4666 
L 2450 4666 
L 2450 531 
L 3481 531 
L 3481 0 
L 794 0 
L 794 531 
z
" transform="scale(0.015625)"/>
       </defs>
       <use xlink:href="#DejaVuSans-31"/>
       <use xlink:href="#DejaVuSans-2e" x="63.623047"/>
       <use xlink:href="#DejaVuSans-30" x="95.410156"/>
      </g>
     </g>
    </g>
    <g id="text_7">
     <!-- Information Capacity (bits) -->
     <g transform="translate(75.837031 164.438125) scale(0.06 -0.06)">
      <defs>
       <path id="DejaVuSans-49" d="M 628 4666 
L 1259 4666 
L 1259 0 
L 628 0 
L 628 4666 
z
" transform="scale(0.015625)"/>
       <path id="DejaVuSans-6e" d="M 3513 2113 
L 3513 0 
L 2938 0 
L 2938 2094 
Q 2938 2591 2744 2837 
Q 2550 3084 2163 3084 
Q 1697 3084 1428 2787 
Q 1159 2491 1159 1978 
L 1159 0 
L 581 0 
L 581 3500 
L 1159 3500 
L 1159 2956 
Q 1366 3272 1645 3428 
Q 1925 3584 2291 3584 
Q 2894 3584 3203 3211 
Q 3513 2838 3513 2113 
z
" transform="scale(0.015625)"/>
       <path id="DejaVuSans-66" d="M 2375 4863 
L 2375 4384 
L 1825 4384 
Q 1516 4384 1395 4259 
Q 1275 4134 1275 3809 
L 1275 3500 
L 2222 3500 
L 2222 3053 
L 1275 3053 
L 1275 0 
L 697 0 
L 697 3053 
L 147 3053 
L 147 3500 
L 697 3500 
L 697 3744 
Q 697 4328 969 4595 
Q 1241 4863 1831 4863 
L 2375 4863 
z
" transform="scale(0.015625)"/>
       <path id="DejaVuSans-6f" d="M 1959 3097 
Q 1497 3097 1228 2736 
Q 959 2375 959 1747 
Q 959 1119 1226 758 
Q 1494 397 1959 397 
Q 2419 397 2687 759 
Q 2956 1122 2956 1747 
Q 2956 2369 2687 2733 
Q 2419 3097 1959 3097 
z
M 1959 3584 
Q 2709 3584 3137 3096 
Q 3566 2609 3566 1747 
Q 3566 888 3137 398 
Q 2709 -91 1959 -91 
Q 1206 -91 779 398 
Q 353 888 353 1747 
Q 353 2609 779 3096 
Q 1206 3584 1959 3584 
z
" transform="scale(0.015625)"/>
       <path id="DejaVuSans-72" d="M 2631 2963 
Q 2534 3019 2420 3045 
Q 2306 3072 2169 3072 
Q 1681 3072 1420 2755 
Q 1159 2438 1159 1844 
L 1159 0 
L 581 0 
L 581 3500 
L 1159 3500 
L 1159 2956 
Q 1341 3275 1631 3429 
Q 1922 3584 2338 3584 
Q 2397 3584 2469 3576 
Q 2541 3569 2628 3553 
L 2631 2963 
z
" transform="scale(0.015625)"/>
       <path id="DejaVuSans-6d" d="M 3328 2828 
Q 3544 3216 3844 3400 
Q 4144 3584 4550 3584 
Q 5097 3584 5394 3201 
Q 5691 2819 5691 2113 
L 5691 0 
L 5113 0 
L 5113 2094 
Q 5113 2597 4934 2840 
Q 4756 3084 4391 3084 
Q 3944 3084 3684 2787 
Q 3425 2491 3425 1978 
L 3425 0 
L 2847 0 
L 2847 2094 
Q 2847 2600 2669 2842 
Q 2491 3084 2119 3084 
Q 1678 3084 1418 2786 
Q 1159 2488 1159 1978 
L 1159 0 
L 581 0 
L 581 3500 
L 1159 3500 
L 1159 2956 
Q 1356 3278 1631 3431 
Q 1906 3584 2284 3584 
Q 2666 3584 2933 3390 
Q 3200 3197 3328 2828 
z
" transform="scale(0.015625)"/>
       <path id="DejaVuSans-61" d="M 2194 1759 
Q 1497 1759 1228 1600 
Q 959 1441 959 1056 
Q 959 750 1161 570 
Q 1363 391 1709 391 
Q 2188 391 2477 730 
Q 2766 1069 2766 1631 
L 2766 1759 
L 2194 1759 
z
M 3341 1997 
L 3341 0 
L 2766 0 
L 2766 531 
Q 2569 213 2275 61 
Q 1981 -91 1556 -91 
Q 1019 -91 701 211 
Q 384 513 384 1019 
Q 384 1609 779 1909 
Q 1175 2209 1959 2209 
L 2766 2209 
L 2766 2266 
Q 2766 2663 2505 2880 
Q 2244 3097 1772 3097 
Q 1472 3097 1187 3025 
Q 903 2953 641 2809 
L 641 3341 
Q 956 3463 1253 3523 
Q 1550 3584 1831 3584 
Q 2591 3584 2966 3190 
Q 3341 2797 3341 1997 
z
" transform="scale(0.015625)"/>
       <path id="DejaVuSans-74" d="M 1172 4494 
L 1172 3500 
L 2356 3500 
L 2356 3053 
L 1172 3053 
L 1172 1153 
Q 1172 725 1289 603 
Q 1406 481 1766 481 
L 2356 481 
L 2356 0 
L 1766 0 
Q 1100 0 847 248 
Q 594 497 594 1153 
L 594 3053 
L 172 3053 
L 172 3500 
L 594 3500 
L 594 4494 
L 1172 4494 
z
" transform="scale(0.015625)"/>
       <path id="DejaVuSans-69" d="M 603 3500 
L 1178 3500 
L 1178 0 
L 603 0 
L 603 3500 
z
M 603 4863 
L 1178 4863 
L 1178 4134 
L 603 4134 
L 603 4863 
z
" transform="scale(0.015625)"/>
       <path id="DejaVuSans-20" transform="scale(0.015625)"/>
       <path id="DejaVuSans-43" d="M 4122 4306 
L 4122 3641 
Q 3803 3938 3442 4084 
Q 3081 4231 2675 4231 
Q 1875 4231 1450 3742 
Q 1025 3253 1025 2328 
Q 1025 1406 1450 917 
Q 1875 428 2675 428 
Q 3081 428 3442 575 
Q 3803 722 4122 1019 
L 4122 359 
Q 3791 134 3420 21 
Q 3050 -91 2638 -91 
Q 1578 -91 968 557 
Q 359 1206 359 2328 
Q 359 3453 968 4101 
Q 1578 4750 2638 4750 
Q 3056 4750 3426 4639 
Q 3797 4528 4122 4306 
z
" transform="scale(0.015625)"/>
       <path id="DejaVuSans-70" d="M 1159 525 
L 1159 -1331 
L 581 -1331 
L 581 3500 
L 1159 3500 
L 1159 2969 
Q 1341 3281 1617 3432 
Q 1894 3584 2278 3584 
Q 2916 3584 3314 3078 
Q 3713 2572 3713 1747 
Q 3713 922 3314 415 
Q 2916 -91 2278 -91 
Q 1894 -91 1617 61 
Q 1341 213 1159 525 
z
M 3116 1747 
Q 3116 2381 2855 2742 
Q 2594 3103 2138 3103 
Q 1681 3103 1420 2742 
Q 1159 2381 1159 1747 
Q 1159 1113 1420 752 
Q 1681 391 2138 391 
Q 2594 391 2855 752 
Q 3116 1113 3116 1747 
z
" transform="scale(0.015625)"/>
       <path id="DejaVuSans-63" d="M 3122 3366 
L 3122 2828 
Q 2878 2963 2633 3030 
Q 2388 3097 2138 3097 
Q 1578 3097 1268 2742 
Q 959 2388 959 1747 
Q 959 1106 1268 751 
Q 1578 397 2138 397 
Q 2388 397 2633 464 
Q 2878 531 3122 666 
L 3122 134 
Q 2881 22 2623 -34 
Q 2366 -91 2075 -91 
Q 1284 -91 818 406 
Q 353 903 353 1747 
Q 353 2603 823 3093 
Q 1294 3584 2113 3584 
Q 2378 3584 2631 3529 
Q 2884 3475 3122 3366 
z
" transform="scale(0.015625)"/>
       <path id="DejaVuSans-79" d="M 2059 -325 
Q 1816 -950 1584 -1140 
Q 1353 -1331 966 -1331 
L 506 -1331 
L 506 -850 
L 844 -850 
Q 1081 -850 1212 -737 
Q 1344 -625 1503 -206 
L 1606 56 
L 191 3500 
L 800 3500 
L 1894 763 
L 2988 3500 
L 3597 3500 
L 2059 -325 
z
" transform="scale(0.015625)"/>
       <path id="DejaVuSans-28" d="M 1984 4856 
Q 1566 4138 1362 3434 
Q 1159 2731 1159 2009 
Q 1159 1288 1364 580 
Q 1569 -128 1984 -844 
L 1484 -844 
Q 1016 -109 783 600 
Q 550 1309 550 2009 
Q 550 2706 781 3412 
Q 1013 4119 1484 4856 
L 1984 4856 
z
" transform="scale(0.015625)"/>
       <path id="DejaVuSans-62" d="M 3116 1747 
Q 3116 2381 2855 2742 
Q 2594 3103 2138 3103 
Q 1681 3103 1420 2742 
Q 1159 2381 1159 1747 
Q 1159 1113 1420 752 
Q 1681 391 2138 391 
Q 2594 391 2855 752 
Q 3116 1113 3116 1747 
z
M 1159 2969 
Q 1341 3281 1617 3432 
Q 1894 3584 2278 3584 
Q 2916 3584 3314 3078 
Q 3713 2572 3713 1747 
Q 3713 922 3314 415 
Q 2916 -91 2278 -91 
Q 1894 -91 1617 61 
Q 1341 213 1159 525 
L 1159 0 
L 581 0 
L 581 4863 
L 1159 4863 
L 1159 2969 
z
" transform="scale(0.015625)"/>
       <path id="DejaVuSans-73" d="M 2834 3397 
L 2834 2853 
Q 2591 2978 2328 3040 
Q 2066 3103 1784 3103 
Q 1356 3103 1142 2972 
Q 928 2841 928 2578 
Q 928 2378 1081 2264 
Q 1234 2150 1697 2047 
L 1894 2003 
Q 2506 1872 2764 1633 
Q 3022 1394 3022 966 
Q 3022 478 2636 193 
Q 2250 -91 1575 -91 
Q 1294 -91 989 -36 
Q 684 19 347 128 
L 347 722 
Q 666 556 975 473 
Q 1284 391 1588 391 
Q 1994 391 2212 530 
Q 2431 669 2431 922 
Q 2431 1156 2273 1281 
Q 2116 1406 1581 1522 
L 1381 1569 
Q 847 1681 609 1914 
Q 372 2147 372 2553 
Q 372 3047 722 3315 
Q 1072 3584 1716 3584 
Q 2034 3584 2315 3537 
Q 2597 3491 2834 3397 
z
" transform="scale(0.015625)"/>
       <path id="DejaVuSans-29" d="M 513 4856 
L 1013 4856 
Q 1481 4119 1714 3412 
Q 1947 2706 1947 2009 
Q 1947 1309 1714 600 
Q 1481 -109 1013 -844 
L 513 -844 
Q 928 -128 1133 580 
Q 1338 1288 1338 2009 
Q 1338 2731 1133 3434 
Q 928 4138 513 4856 
z
" transform="scale(0.015625)"/>
      </defs>
      <use xlink:href="#DejaVuSans-49"/>
      <use xlink:href="#DejaVuSans-6e" x="29.492188"/>
      <use xlink:href="#DejaVuSans-66" x="92.871094"/>
      <use xlink:href="#DejaVuSans-6f" x="128.076172"/>
      <use xlink:href="#DejaVuSans-72" x="189.257812"/>
      <use xlink:href="#DejaVuSans-6d" x="228.621094"/>
      <use xlink:href="#DejaVuSans-61" x="326.033203"/>
      <use xlink:href="#DejaVuSans-74" x="387.3125"/>
      <use xlink:href="#DejaVuSans-69" x="426.521484"/>
      <use xlink:href="#DejaVuSans-6f" x="454.304688"/>
      <use xlink:href="#DejaVuSans-6e" x="515.486328"/>
      <use xlink:href="#DejaVuSans-20" x="578.865234"/>
      <use xlink:href="#DejaVuSans-43" x="610.652344"/>
      <use xlink:href="#DejaVuSans-61" x="680.476562"/>
      <use xlink:href="#DejaVuSans-70" x="741.755859"/>
      <use xlink:href="#DejaVuSans-61" x="805.232422"/>
      <use xlink:href="#DejaVuSans-63" x="866.511719"/>
      <use xlink:href="#DejaVuSans-69" x="921.492188"/>
      <use xlink:href="#DejaVuSans-74" x="949.275391"/>
      <use xlink:href="#DejaVuSans-79" x="988.484375"/>
      <use xlink:href="#DejaVuSans-20" x="1047.664062"/>
      <use xlink:href="#DejaVuSans-28" x="1079.451172"/>
      <use xlink:href="#DejaVuSans-62" x="1118.464844"/>
      <use xlink:href="#DejaVuSans-69" x="1181.941406"/>
      <use xlink:href="#DejaVuSans-74" x="1209.724609"/>
      <use xlink:href="#DejaVuSans-73" x="1248.933594"/>
      <use xlink:href="#DejaVuSans-29" x="1301.033203"/>
     </g>
    </g>
   </g>
   <g id="matplotlib.axis_2">
    <g id="ytick_1">
     <g id="line2d_7">
      <defs>
       <path id="m8492cebc1d" d="M 0 0 
L -2 0 
" style="stroke: #000000; stroke-width: 0.5"/>
      </defs>
      <g>
       <use xlink:href="#m8492cebc1d" x="30.458438" y="127.77763" style="stroke: #000000; stroke-width: 0.5"/>
      </g>
     </g>
     <g id="text_8">
      <!-- 0.3 -->
      <g transform="translate(17.006875 129.677239) scale(0.05 -0.05)">
       <defs>
        <path id="DejaVuSans-33" d="M 2597 2516 
Q 3050 2419 3304 2112 
Q 3559 1806 3559 1356 
Q 3559 666 3084 287 
Q 2609 -91 1734 -91 
Q 1441 -91 1130 -33 
Q 819 25 488 141 
L 488 750 
Q 750 597 1062 519 
Q 1375 441 1716 441 
Q 2309 441 2620 675 
Q 2931 909 2931 1356 
Q 2931 1769 2642 2001 
Q 2353 2234 1838 2234 
L 1294 2234 
L 1294 2753 
L 1863 2753 
Q 2328 2753 2575 2939 
Q 2822 3125 2822 3475 
Q 2822 3834 2567 4026 
Q 2313 4219 1838 4219 
Q 1578 4219 1281 4162 
Q 984 4106 628 3988 
L 628 4550 
Q 988 4650 1302 4700 
Q 1616 4750 1894 4750 
Q 2613 4750 3031 4423 
Q 3450 4097 3450 3541 
Q 3450 3153 3228 2886 
Q 3006 2619 2597 2516 
z
" transform="scale(0.015625)"/>
       </defs>
       <use xlink:href="#DejaVuSans-30"/>
       <use xlink:href="#DejaVuSans-2e" x="63.623047"/>
       <use xlink:href="#DejaVuSans-33" x="95.410156"/>
      </g>
     </g>
    </g>
    <g id="ytick_2">
     <g id="line2d_8">
      <g>
       <use xlink:href="#m8492cebc1d" x="30.458438" y="102.073815" style="stroke: #000000; stroke-width: 0.5"/>
      </g>
     </g>
     <g id="text_9">
      <!-- 0.4 -->
      <g transform="translate(17.006875 103.973424) scale(0.05 -0.05)">
       <use xlink:href="#DejaVuSans-30"/>
       <use xlink:href="#DejaVuSans-2e" x="63.623047"/>
       <use xlink:href="#DejaVuSans-34" x="95.410156"/>
      </g>
     </g>
    </g>
    <g id="ytick_3">
     <g id="line2d_9">
      <g>
       <use xlink:href="#m8492cebc1d" x="30.458438" y="76.37" style="stroke: #000000; stroke-width: 0.5"/>
      </g>
     </g>
     <g id="text_10">
      <!-- 0.5 -->
      <g transform="translate(17.006875 78.269609) scale(0.05 -0.05)">
       <defs>
        <path id="DejaVuSans-35" d="M 691 4666 
L 3169 4666 
L 3169 4134 
L 1269 4134 
L 1269 2991 
Q 1406 3038 1543 3061 
Q 1681 3084 1819 3084 
Q 2600 3084 3056 2656 
Q 3513 2228 3513 1497 
Q 3513 744 3044 326 
Q 2575 -91 1722 -91 
Q 1428 -91 1123 -41 
Q 819 9 494 109 
L 494 744 
Q 775 591 1075 516 
Q 1375 441 1709 441 
Q 2250 441 2565 725 
Q 2881 1009 2881 1497 
Q 2881 1984 2565 2268 
Q 2250 2553 1709 2553 
Q 1456 2553 1204 2497 
Q 953 2441 691 2322 
L 691 4666 
z
" transform="scale(0.015625)"/>
       </defs>
       <use xlink:href="#DejaVuSans-30"/>
       <use xlink:href="#DejaVuSans-2e" x="63.623047"/>
       <use xlink:href="#DejaVuSans-35" x="95.410156"/>
      </g>
     </g>
    </g>
    <g id="ytick_4">
     <g id="line2d_10">
      <g>
       <use xlink:href="#m8492cebc1d" x="30.458438" y="50.666185" style="stroke: #000000; stroke-width: 0.5"/>
      </g>
     </g>
     <g id="text_11">
      <!-- 0.6 -->
      <g transform="translate(17.006875 52.565794) scale(0.05 -0.05)">
       <use xlink:href="#DejaVuSans-30"/>
       <use xlink:href="#DejaVuSans-2e" x="63.623047"/>
       <use xlink:href="#DejaVuSans-36" x="95.410156"/>
      </g>
     </g>
    </g>
    <g id="ytick_5">
     <g id="line2d_11">
      <g>
       <use xlink:href="#m8492cebc1d" x="30.458438" y="24.96237" style="stroke: #000000; stroke-width: 0.5"/>
      </g>
     </g>
     <g id="text_12">
      <!-- 0.7 -->
      <g transform="translate(17.006875 26.861979) scale(0.05 -0.05)">
       <defs>
        <path id="DejaVuSans-37" d="M 525 4666 
L 3525 4666 
L 3525 4397 
L 1831 0 
L 1172 0 
L 2766 4134 
L 525 4134 
L 525 4666 
z
" transform="scale(0.015625)"/>
       </defs>
       <use xlink:href="#DejaVuSans-30"/>
       <use xlink:href="#DejaVuSans-2e" x="63.623047"/>
       <use xlink:href="#DejaVuSans-37" x="95.410156"/>
      </g>
     </g>
    </g>
    <g id="text_13">
     <!-- Marginal probability choose Jar 0 -->
     <g transform="translate(11.759063 125.604219) rotate(-90) scale(0.06 -0.06)">
      <defs>
       <path id="DejaVuSans-4d" d="M 628 4666 
L 1569 4666 
L 2759 1491 
L 3956 4666 
L 4897 4666 
L 4897 0 
L 4281 0 
L 4281 4097 
L 3078 897 
L 2444 897 
L 1241 4097 
L 1241 0 
L 628 0 
L 628 4666 
z
" transform="scale(0.015625)"/>
       <path id="DejaVuSans-67" d="M 2906 1791 
Q 2906 2416 2648 2759 
Q 2391 3103 1925 3103 
Q 1463 3103 1205 2759 
Q 947 2416 947 1791 
Q 947 1169 1205 825 
Q 1463 481 1925 481 
Q 2391 481 2648 825 
Q 2906 1169 2906 1791 
z
M 3481 434 
Q 3481 -459 3084 -895 
Q 2688 -1331 1869 -1331 
Q 1566 -1331 1297 -1286 
Q 1028 -1241 775 -1147 
L 775 -588 
Q 1028 -725 1275 -790 
Q 1522 -856 1778 -856 
Q 2344 -856 2625 -561 
Q 2906 -266 2906 331 
L 2906 616 
Q 2728 306 2450 153 
Q 2172 0 1784 0 
Q 1141 0 747 490 
Q 353 981 353 1791 
Q 353 2603 747 3093 
Q 1141 3584 1784 3584 
Q 2172 3584 2450 3431 
Q 2728 3278 2906 2969 
L 2906 3500 
L 3481 3500 
L 3481 434 
z
" transform="scale(0.015625)"/>
       <path id="DejaVuSans-6c" d="M 603 4863 
L 1178 4863 
L 1178 0 
L 603 0 
L 603 4863 
z
" transform="scale(0.015625)"/>
       <path id="DejaVuSans-68" d="M 3513 2113 
L 3513 0 
L 2938 0 
L 2938 2094 
Q 2938 2591 2744 2837 
Q 2550 3084 2163 3084 
Q 1697 3084 1428 2787 
Q 1159 2491 1159 1978 
L 1159 0 
L 581 0 
L 581 4863 
L 1159 4863 
L 1159 2956 
Q 1366 3272 1645 3428 
Q 1925 3584 2291 3584 
Q 2894 3584 3203 3211 
Q 3513 2838 3513 2113 
z
" transform="scale(0.015625)"/>
       <path id="DejaVuSans-65" d="M 3597 1894 
L 3597 1613 
L 953 1613 
Q 991 1019 1311 708 
Q 1631 397 2203 397 
Q 2534 397 2845 478 
Q 3156 559 3463 722 
L 3463 178 
Q 3153 47 2828 -22 
Q 2503 -91 2169 -91 
Q 1331 -91 842 396 
Q 353 884 353 1716 
Q 353 2575 817 3079 
Q 1281 3584 2069 3584 
Q 2775 3584 3186 3129 
Q 3597 2675 3597 1894 
z
M 3022 2063 
Q 3016 2534 2758 2815 
Q 2500 3097 2075 3097 
Q 1594 3097 1305 2825 
Q 1016 2553 972 2059 
L 3022 2063 
z
" transform="scale(0.015625)"/>
       <path id="DejaVuSans-4a" d="M 628 4666 
L 1259 4666 
L 1259 325 
Q 1259 -519 939 -900 
Q 619 -1281 -91 -1281 
L -331 -1281 
L -331 -750 
L -134 -750 
Q 284 -750 456 -515 
Q 628 -281 628 325 
L 628 4666 
z
" transform="scale(0.015625)"/>
      </defs>
      <use xlink:href="#DejaVuSans-4d"/>
      <use xlink:href="#DejaVuSans-61" x="86.279297"/>
      <use xlink:href="#DejaVuSans-72" x="147.558594"/>
      <use xlink:href="#DejaVuSans-67" x="186.921875"/>
      <use xlink:href="#DejaVuSans-69" x="250.398438"/>
      <use xlink:href="#DejaVuSans-6e" x="278.181641"/>
      <use xlink:href="#DejaVuSans-61" x="341.560547"/>
      <use xlink:href="#DejaVuSans-6c" x="402.839844"/>
      <use xlink:href="#DejaVuSans-20" x="430.623047"/>
      <use xlink:href="#DejaVuSans-70" x="462.410156"/>
      <use xlink:href="#DejaVuSans-72" x="525.886719"/>
      <use xlink:href="#DejaVuSans-6f" x="564.75"/>
      <use xlink:href="#DejaVuSans-62" x="625.931641"/>
      <use xlink:href="#DejaVuSans-61" x="689.408203"/>
      <use xlink:href="#DejaVuSans-62" x="750.6875"/>
      <use xlink:href="#DejaVuSans-69" x="814.164062"/>
      <use xlink:href="#DejaVuSans-6c" x="841.947266"/>
      <use xlink:href="#DejaVuSans-69" x="869.730469"/>
      <use xlink:href="#DejaVuSans-74" x="897.513672"/>
      <use xlink:href="#DejaVuSans-79" x="936.722656"/>
      <use xlink:href="#DejaVuSans-20" x="995.902344"/>
      <use xlink:href="#DejaVuSans-63" x="1027.689453"/>
      <use xlink:href="#DejaVuSans-68" x="1082.669922"/>
      <use xlink:href="#DejaVuSans-6f" x="1146.048828"/>
      <use xlink:href="#DejaVuSans-6f" x="1207.230469"/>
      <use xlink:href="#DejaVuSans-73" x="1268.412109"/>
      <use xlink:href="#DejaVuSans-65" x="1320.511719"/>
      <use xlink:href="#DejaVuSans-20" x="1382.035156"/>
      <use xlink:href="#DejaVuSans-4a" x="1413.822266"/>
      <use xlink:href="#DejaVuSans-61" x="1443.314453"/>
      <use xlink:href="#DejaVuSans-72" x="1504.59375"/>
      <use xlink:href="#DejaVuSans-20" x="1545.707031"/>
      <use xlink:href="#DejaVuSans-30" x="1577.494141"/>
     </g>
    </g>
   </g>
   <g id="line2d_12">
    <path d="M 38.238438 76.37 
L 193.838438 76.37 
L 193.838438 76.37 
" clip-path="url(#p2e2407a02c)" style="fill: none; stroke: #000000; stroke-width: 0.7; stroke-linecap: square"/>
   </g>
   <g id="line2d_13">
    <path d="M 38.238438 76.241483 
L 38.392785 75.21497 
L 38.79277 74.196202 
L 39.434905 73.191915 
L 40.313641 72.208572 
L 41.575629 71.134891 
L 43.301523 69.991581 
L 45.34683 68.909688 
L 47.935509 67.799904 
L 51.122183 66.694296 
L 54.943717 65.628133 
L 59.084001 64.703103 
L 63.822616 63.864896 
L 69.132631 63.143466 
L 75.328781 62.533601 
L 81.969171 62.10612 
L 89.301933 61.860076 
L 97.164063 61.820106 
L 105.685685 62.003052 
L 114.570692 62.414981 
L 124.042343 63.078336 
L 133.812597 63.987601 
L 143.660057 65.127584 
L 153.301129 66.467484 
L 162.222824 67.929794 
L 169.991444 69.422472 
L 176.522285 70.897062 
L 182.008951 72.358546 
L 187.312748 74.007864 
L 193.084188 75.863966 
L 193.084188 75.863966 
" clip-path="url(#p2e2407a02c)" style="fill: none; stroke: #1f77b4; stroke-width: 0.7; stroke-linecap: square"/>
   </g>
   <g id="line2d_14">
    <path d="M 38.238438 76.498517 
L 38.392785 77.52503 
L 38.79277 78.543798 
L 39.434905 79.548085 
L 40.313641 80.531428 
L 41.575629 81.605109 
L 43.301523 82.748419 
L 45.34683 83.830312 
L 47.935509 84.940096 
L 51.122183 86.045704 
L 54.943717 87.111867 
L 59.084001 88.036897 
L 63.822616 88.875104 
L 69.132631 89.596534 
L 75.328781 90.206399 
L 81.969171 90.63388 
L 89.301933 90.879924 
L 97.164063 90.919894 
L 105.685685 90.736948 
L 114.570692 90.325019 
L 124.042343 89.661664 
L 133.812597 88.752399 
L 143.660057 87.612416 
L 153.301129 86.272516 
L 162.222824 84.810206 
L 169.991444 83.317528 
L 176.522285 81.842938 
L 182.008951 80.381454 
L 187.312748 78.732136 
L 193.084188 76.876034 
L 193.084188 76.876034 
" clip-path="url(#p2e2407a02c)" style="fill: none; stroke: #aec7e8; stroke-width: 0.7; stroke-linecap: square"/>
   </g>
   <g id="line2d_15">
    <path d="M 38.238438 76.112967 
L 38.392747 74.060125 
L 38.79229 72.023641 
L 39.432681 70.017673 
L 40.306974 68.055694 
L 41.405855 66.150213 
L 42.717886 64.312536 
L 44.229801 62.552581 
L 46.151195 60.67594 
L 48.284101 58.917829 
L 50.604549 57.285264 
L 53.372875 55.623986 
L 56.308622 54.126128 
L 59.691971 52.666818 
L 63.196158 51.400716 
L 67.11117 50.23117 
L 71.409947 49.198806 
L 75.719521 48.391544 
L 80.324077 47.749561 
L 85.168053 47.293 
L 90.496259 47.023835 
L 95.906303 46.977707 
L 101.601016 47.156187 
L 107.456056 47.564606 
L 113.582472 48.219284 
L 119.797691 49.105091 
L 126.304666 50.254776 
L 133.129186 51.684946 
L 140.517141 53.465017 
L 148.537707 55.631007 
L 157.666388 58.3333 
L 167.202176 61.384441 
L 174.924241 64.080844 
L 180.447167 65.953562 
L 183.544872 66.760026 
L 186.309186 67.252573 
L 188.946443 67.497636 
L 191.5031 67.513829 
L 193.009592 67.405951 
L 193.009592 67.405951 
" clip-path="url(#p2e2407a02c)" style="fill: none; stroke: #ff7f0e; stroke-width: 0.7; stroke-linecap: square"/>
   </g>
   <g id="line2d_16">
    <path d="M 38.238438 76.627033 
L 38.392747 78.679875 
L 38.79229 80.716359 
L 39.432681 82.722327 
L 40.306974 84.684306 
L 41.405855 86.589787 
L 42.717886 88.427464 
L 44.229801 90.187419 
L 46.151195 92.06406 
L 48.284101 93.822171 
L 50.604549 95.454736 
L 53.372875 97.116014 
L 56.308622 98.613872 
L 59.691971 100.073182 
L 63.196158 101.339284 
L 67.11117 102.50883 
L 71.409947 103.541194 
L 75.719521 104.348456 
L 80.324077 104.990439 
L 85.168053 105.447 
L 90.496259 105.716165 
L 95.906303 105.762293 
L 101.601016 105.583813 
L 107.456056 105.175394 
L 113.582472 104.520716 
L 119.797691 103.634909 
L 126.304666 102.485224 
L 133.129186 101.055054 
L 140.517141 99.274983 
L 148.537707 97.108993 
L 157.666388 94.4067 
L 167.202176 91.355559 
L 174.924241 88.659156 
L 180.447167 86.786438 
L 183.544872 85.979974 
L 186.309186 85.487427 
L 188.946443 85.242364 
L 191.5031 85.226171 
L 193.009592 85.334049 
L 193.009592 85.334049 
" clip-path="url(#p2e2407a02c)" style="fill: none; stroke: #ffbb78; stroke-width: 0.7; stroke-linecap: square"/>
   </g>
   <g id="line2d_17">
    <path d="M 38.238438 75.984451 
L 38.392684 72.905654 
L 38.791492 69.853552 
L 39.428986 66.851096 
L 40.295927 63.919848 
L 41.380032 61.079433 
L 42.666408 58.34711 
L 44.138035 55.737468 
L 45.776305 53.262247 
L 47.561556 50.930306 
L 49.720512 48.485558 
L 52.011186 46.234352 
L 54.405536 44.177517 
L 57.155125 42.117054 
L 59.965923 40.286271 
L 63.092231 38.525249 
L 66.220481 37.012655 
L 69.600623 35.6236 
L 73.189537 34.396949 
L 76.9368 33.362525 
L 80.788104 32.539968 
L 84.689091 31.938507 
L 88.589071 31.557591 
L 92.65017 31.384792 
L 96.788772 31.434649 
L 100.933036 31.704169 
L 105.338686 32.2194 
L 109.875797 32.976957 
L 114.940562 34.057522 
L 120.941546 35.577988 
L 143.412574 41.510398 
L 148.968362 42.609227 
L 153.941351 43.369498 
L 158.403988 43.83201 
L 162.366669 44.024285 
L 165.806449 43.974164 
L 168.80833 43.711931 
L 171.612929 43.242113 
L 175.250082 42.380636 
L 176.873529 41.831677 
L 177.483557 41.403686 
L 177.902693 40.819369 
L 178.396833 39.957203 
L 178.396833 39.957203 
" clip-path="url(#p2e2407a02c)" style="fill: none; stroke: #2ca02c; stroke-width: 0.7; stroke-linecap: square"/>
   </g>
   <g id="line2d_18">
    <path d="M 38.238438 76.755549 
L 38.392684 79.834346 
L 38.791492 82.886448 
L 39.428986 85.888904 
L 40.295927 88.820152 
L 41.380032 91.660567 
L 42.666408 94.39289 
L 44.138035 97.002532 
L 45.776305 99.477753 
L 47.561556 101.809694 
L 49.720512 104.254442 
L 52.011186 106.505648 
L 54.405536 108.562483 
L 57.155125 110.622946 
L 59.965923 112.453729 
L 63.092231 114.214751 
L 66.220481 115.727345 
L 69.600623 117.1164 
L 73.189537 118.343051 
L 76.9368 119.377475 
L 80.788104 120.200032 
L 84.689091 120.801493 
L 88.589071 121.182409 
L 92.65017 121.355208 
L 96.788772 121.305351 
L 100.933036 121.035831 
L 105.338686 120.5206 
L 109.875797 119.763043 
L 114.940562 118.682478 
L 120.941546 117.162012 
L 143.412574 111.229602 
L 148.968362 110.130773 
L 153.941351 109.370502 
L 158.403988 108.90799 
L 162.366669 108.715715 
L 165.806449 108.765836 
L 168.80833 109.028069 
L 171.612929 109.497887 
L 175.250082 110.359364 
L 176.873529 110.908323 
L 177.483557 111.336314 
L 177.902693 111.920631 
L 178.396833 112.782797 
L 178.396833 112.782797 
" clip-path="url(#p2e2407a02c)" style="fill: none; stroke: #98df8a; stroke-width: 0.7; stroke-linecap: square"/>
   </g>
   <g id="line2d_19">
    <path d="M 38.238438 75.855935 
L 38.392596 71.75174 
L 38.790376 67.687164 
L 39.423839 63.695973 
L 40.280591 59.809379 
L 41.344343 56.055079 
L 42.595632 52.456556 
L 44.012615 49.032654 
L 45.571911 45.797426 
L 47.466215 42.394809 
L 49.475929 39.249457 
L 51.568072 36.361927 
L 53.951953 33.450172 
L 56.36148 30.838681 
L 59.00224 28.292769 
L 61.830157 25.875629 
L 64.790233 23.639389 
L 67.820769 21.622447 
L 71.053067 19.742779 
L 74.37531 18.078098 
L 77.67873 16.675736 
L 81.007141 15.511126 
L 84.240455 14.620954 
L 87.30618 14.005799 
L 90.268095 13.634897 
L 93.192326 13.490977 
L 96.228673 13.565886 
L 99.650702 13.881658 
L 103.842721 14.50496 
L 109.51256 15.589412 
L 117.66278 17.392487 
L 130.10301 20.393878 
L 159.783475 27.623198 
L 169.296536 29.671005 
L 176.124742 30.92699 
L 179.710976 31.394694 
L 179.765734 31.392247 
L 179.765734 31.392247 
" clip-path="url(#p2e2407a02c)" style="fill: none; stroke: #d62728; stroke-width: 0.7; stroke-linecap: square"/>
   </g>
   <g id="line2d_20">
    <path d="M 38.238438 76.884065 
L 38.392596 80.98826 
L 38.790376 85.052836 
L 39.423839 89.044027 
L 40.280591 92.930621 
L 41.344343 96.684921 
L 42.595632 100.283444 
L 44.012615 103.707346 
L 45.571911 106.942574 
L 47.466215 110.345191 
L 49.475929 113.490543 
L 51.568072 116.378073 
L 53.951953 119.289828 
L 56.36148 121.901319 
L 59.00224 124.447231 
L 61.830157 126.864371 
L 64.790233 129.100611 
L 67.820769 131.117553 
L 71.053067 132.997221 
L 74.37531 134.661902 
L 77.67873 136.064264 
L 81.007141 137.228874 
L 84.240455 138.119046 
L 87.30618 138.734201 
L 90.268095 139.105103 
L 93.192326 139.249023 
L 96.228673 139.174114 
L 99.650702 138.858342 
L 103.842721 138.23504 
L 109.51256 137.150588 
L 117.66278 135.347513 
L 130.10301 132.346122 
L 159.783475 125.116802 
L 169.296536 123.068995 
L 176.124742 121.81301 
L 179.710976 121.345306 
L 179.765734 121.347753 
L 179.765734 121.347753 
" clip-path="url(#p2e2407a02c)" style="fill: none; stroke: #ff9896; stroke-width: 0.7; stroke-linecap: square"/>
   </g>
   <g id="line2d_21">
    <defs>
     <path id="m598353bc49" d="M -1.5 1.5 
L 1.5 -1.5 
M -1.5 -1.5 
L 1.5 1.5 
" style="stroke: #000000; stroke-width: 0.4"/>
    </defs>
    <g clip-path="url(#p2e2407a02c)">
     <use xlink:href="#m598353bc49" x="114.883966" y="78.511985" style="stroke: #000000; stroke-width: 0.4"/>
     <use xlink:href="#m598353bc49" x="85.713484" y="94.36267" style="stroke: #000000; stroke-width: 0.4"/>
     <use xlink:href="#m598353bc49" x="157.942888" y="72.514428" style="stroke: #000000; stroke-width: 0.4"/>
     <use xlink:href="#m598353bc49" x="145.257261" y="81.082366" style="stroke: #000000; stroke-width: 0.4"/>
     <use xlink:href="#m598353bc49" x="123.147703" y="78.511985" style="stroke: #000000; stroke-width: 0.4"/>
     <use xlink:href="#m598353bc49" x="140.799272" y="74.228015" style="stroke: #000000; stroke-width: 0.4"/>
     <use xlink:href="#m598353bc49" x="141.590222" y="80.225572" style="stroke: #000000; stroke-width: 0.4"/>
     <use xlink:href="#m598353bc49" x="160.942951" y="77.655191" style="stroke: #000000; stroke-width: 0.4"/>
     <use xlink:href="#m598353bc49" x="165.207285" y="72.514428" style="stroke: #000000; stroke-width: 0.4"/>
     <use xlink:href="#m598353bc49" x="131.136334" y="76.37" style="stroke: #000000; stroke-width: 0.4"/>
     <use xlink:href="#m598353bc49" x="116.915651" y="91.792289" style="stroke: #000000; stroke-width: 0.4"/>
     <use xlink:href="#m598353bc49" x="144.747" y="77.655191" style="stroke: #000000; stroke-width: 0.4"/>
     <use xlink:href="#m598353bc49" x="124.458072" y="79.368778" style="stroke: #000000; stroke-width: 0.4"/>
     <use xlink:href="#m598353bc49" x="124.024489" y="79.368778" style="stroke: #000000; stroke-width: 0.4"/>
     <use xlink:href="#m598353bc49" x="138.153984" y="85.794732" style="stroke: #000000; stroke-width: 0.4"/>
     <use xlink:href="#m598353bc49" x="130.97602" y="77.226794" style="stroke: #000000; stroke-width: 0.4"/>
     <use xlink:href="#m598353bc49" x="153.522266" y="72.942825" style="stroke: #000000; stroke-width: 0.4"/>
     <use xlink:href="#m598353bc49" x="167.644308" y="78.940381" style="stroke: #000000; stroke-width: 0.4"/>
     <use xlink:href="#m598353bc49" x="129.316923" y="69.515649" style="stroke: #000000; stroke-width: 0.4"/>
     <use xlink:href="#m598353bc49" x="70.193586" y="84.564169" style="stroke: #000000; stroke-width: 0.4"/>
     <use xlink:href="#m598353bc49" x="170.424" y="74.228015" style="stroke: #000000; stroke-width: 0.4"/>
     <use xlink:href="#m598353bc49" x="156.947009" y="76.798397" style="stroke: #000000; stroke-width: 0.4"/>
     <use xlink:href="#m598353bc49" x="155.342949" y="78.511985" style="stroke: #000000; stroke-width: 0.4"/>
     <use xlink:href="#m598353bc49" x="90.422716" y="80.225572" style="stroke: #000000; stroke-width: 0.4"/>
     <use xlink:href="#m598353bc49" x="173.201989" y="78.511985" style="stroke: #000000; stroke-width: 0.4"/>
     <use xlink:href="#m598353bc49" x="173.363739" y="77.655191" style="stroke: #000000; stroke-width: 0.4"/>
     <use xlink:href="#m598353bc49" x="147.717123" y="77.226794" style="stroke: #000000; stroke-width: 0.4"/>
     <use xlink:href="#m598353bc49" x="90.751161" y="87.741471" style="stroke: #000000; stroke-width: 0.4"/>
     <use xlink:href="#m598353bc49" x="169.954297" y="75.084809" style="stroke: #000000; stroke-width: 0.4"/>
     <use xlink:href="#m598353bc49" x="146.395308" y="73.799619" style="stroke: #000000; stroke-width: 0.4"/>
    </g>
   </g>
   <g id="patch_3">
    <path d="M 30.458438 145.54 
L 30.458438 7.2 
" style="fill: none; stroke: #000000; stroke-width: 0.5; stroke-linejoin: miter; stroke-linecap: square"/>
   </g>
   <g id="patch_4">
    <path d="M 30.458438 145.54 
L 201.618438 145.54 
" style="fill: none; stroke: #000000; stroke-width: 0.5; stroke-linejoin: miter; stroke-linecap: square"/>
   </g>
  </g>
 </g>
 <defs>
  <clipPath id="p2e2407a02c">
   <rect x="30.458438" y="7.2" width="171.16" height="138.34"/>
  </clipPath>
 </defs>
</svg>
