<?xml version="1.0" encoding="utf-8" standalone="no"?>
<!DOCTYPE svg PUBLIC "-//W3C//DTD SVG 1.1//EN"
  "http://www.w3.org/Graphics/SVG/1.1/DTD/svg11.dtd">
<svg xmlns:xlink="http://www.w3.org/1999/xlink" width="139.451562pt" height="107.899063pt" viewBox="0 0 139.451562 107.899063" xmlns="http://www.w3.org/2000/svg" version="1.1">
 <metadata>
  <rdf:RDF xmlns:dc="http://purl.org/dc/elements/1.1/" xmlns:cc="http://creativecommons.org/ns#" xmlns:rdf="http://www.w3.org/1999/02/22-rdf-syntax-ns#">
   <cc:Work>
    <dc:type rdf:resource="http://purl.org/dc/dcmitype/StillImage"/>
    <dc:date>2026-04-03T14:42:21.346672</dc:date>
    <dc:format>image/svg+xml</dc:format>
    <dc:creator>
     <cc:Agent>
      <dc:title>Matplotlib v3.6.2, https://matplotlib.org/</dc:title>
     </cc:Agent>
    </dc:creator>
   </cc:Work>
  </rdf:RDF>
 </metadata>
 <defs>
  <style type="text/css">*{stroke-linejoin: round; stroke-linecap: butt}</style>
 </defs>
 <g id="figure_1">
  <g id="patch_1">
   <path d="M 0 107.899063 
L 139.451562 107.899063 
L 139.451562 0 
L 0 0 
z
" style="fill: #ffffff"/>
  </g>
  <g id="axes_1">
   <g id="patch_2">
    <path d="M 20.651563 90.36 
L 132.251563 90.36 
L 132.251563 7.2 
L 20.651563 7.2 
z
" style="fill: #ffffff"/>
   </g>
   <g id="matplotlib.axis_1">
    <g id="xtick_1">
     <g id="line2d_1">
      <defs>
       <path id="m680f4de845" d="M 0 0 
L 0 2 
" style="stroke: #000000; stroke-width: 0.5"/>
      </defs>
      <g>
       <use xlink:href="#m680f4de845" x="25.72429" y="90.36" style="stroke: #000000; stroke-width: 0.5"/>
      </g>
     </g>
     <g id="text_1">
      <!-- 0.0 -->
      <g transform="translate(21.748509 99.659219) scale(0.05 -0.05)">
       <defs>
        <path id="DejaVuSans-30" d="M 2034 4250 
Q 1547 4250 1301 3770 
Q 1056 3291 1056 2328 
Q 1056 1369 1301 889 
Q 1547 409 2034 409 
Q 2525 409 2770 889 
Q 3016 1369 3016 2328 
Q 3016 3291 2770 3770 
Q 2525 4250 2034 4250 
z
M 2034 4750 
Q 2819 4750 3233 4129 
Q 3647 3509 3647 2328 
Q 3647 1150 3233 529 
Q 2819 -91 2034 -91 
Q 1250 -91 836 529 
Q 422 1150 422 2328 
Q 422 3509 836 4129 
Q 1250 4750 2034 4750 
z
" transform="scale(0.015625)"/>
        <path id="DejaVuSans-2e" d="M 684 794 
L 1344 794 
L 1344 0 
L 684 0 
L 684 794 
z
" transform="scale(0.015625)"/>
       </defs>
       <use xlink:href="#DejaVuSans-30"/>
       <use xlink:href="#DejaVuSans-2e" x="63.623047"/>
       <use xlink:href="#DejaVuSans-30" x="95.410156"/>
      </g>
     </g>
    </g>
    <g id="xtick_2">
     <g id="line2d_2">
      <g>
       <use xlink:href="#m680f4de845" x="46.015199" y="90.36" style="stroke: #000000; stroke-width: 0.5"/>
      </g>
     </g>
     <g id="text_2">
      <!-- 0.2 -->
      <g transform="translate(42.039418 99.659219) scale(0.05 -0.05)">
       <defs>
        <path id="DejaVuSans-32" d="M 1228 531 
L 3431 531 
L 3431 0 
L 469 0 
L 469 531 
Q 828 903 1448 1529 
Q 2069 2156 2228 2338 
Q 2531 2678 2651 2914 
Q 2772 3150 2772 3378 
Q 2772 3750 2511 3984 
Q 2250 4219 1831 4219 
Q 1534 4219 1204 4116 
Q 875 4013 500 3803 
L 500 4441 
Q 881 4594 1212 4672 
Q 1544 4750 1819 4750 
Q 2544 4750 2975 4387 
Q 3406 4025 3406 3419 
Q 3406 3131 3298 2873 
Q 3191 2616 2906 2266 
Q 2828 2175 2409 1742 
Q 1991 1309 1228 531 
z
" transform="scale(0.015625)"/>
       </defs>
       <use xlink:href="#DejaVuSans-30"/>
       <use xlink:href="#DejaVuSans-2e" x="63.623047"/>
       <use xlink:href="#DejaVuSans-32" x="95.410156"/>
      </g>
     </g>
    </g>
    <g id="xtick_3">
     <g id="line2d_3">
      <g>
       <use xlink:href="#m680f4de845" x="66.306108" y="90.36" style="stroke: #000000; stroke-width: 0.5"/>
      </g>
     </g>
     <g id="text_3">
      <!-- 0.4 -->
      <g transform="translate(62.330327 99.659219) scale(0.05 -0.05)">
       <defs>
        <path id="DejaVuSans-34" d="M 2419 4116 
L 825 1625 
L 2419 1625 
L 2419 4116 
z
M 2253 4666 
L 3047 4666 
L 3047 1625 
L 3713 1625 
L 3713 1100 
L 3047 1100 
L 3047 0 
L 2419 0 
L 2419 1100 
L 313 1100 
L 313 1709 
L 2253 4666 
z
" transform="scale(0.015625)"/>
       </defs>
       <use xlink:href="#DejaVuSans-30"/>
       <use xlink:href="#DejaVuSans-2e" x="63.623047"/>
       <use xlink:href="#DejaVuSans-34" x="95.410156"/>
      </g>
     </g>
    </g>
    <g id="xtick_4">
     <g id="line2d_4">
      <g>
       <use xlink:href="#m680f4de845" x="86.597017" y="90.36" style="stroke: #000000; stroke-width: 0.5"/>
      </g>
     </g>
     <g id="text_4">
      <!-- 0.6 -->
      <g transform="translate(82.621236 99.659219) scale(0.05 -0.05)">
       <defs>
        <path id="DejaVuSans-36" d="M 2113 2584 
Q 1688 2584 1439 2293 
Q 1191 2003 1191 1497 
Q 1191 994 1439 701 
Q 1688 409 2113 409 
Q 2538 409 2786 701 
Q 3034 994 3034 1497 
Q 3034 2003 2786 2293 
Q 2538 2584 2113 2584 
z
M 3366 4563 
L 3366 3988 
Q 3128 4100 2886 4159 
Q 2644 4219 2406 4219 
Q 1781 4219 1451 3797 
Q 1122 3375 1075 2522 
Q 1259 2794 1537 2939 
Q 1816 3084 2150 3084 
Q 2853 3084 3261 2657 
Q 3669 2231 3669 1497 
Q 3669 778 3244 343 
Q 2819 -91 2113 -91 
Q 1303 -91 875 529 
Q 447 1150 447 2328 
Q 447 3434 972 4092 
Q 1497 4750 2381 4750 
Q 2619 4750 2861 4703 
Q 3103 4656 3366 4563 
z
" transform="scale(0.015625)"/>
       </defs>
       <use xlink:href="#DejaVuSans-30"/>
       <use xlink:href="#DejaVuSans-2e" x="63.623047"/>
       <use xlink:href="#DejaVuSans-36" x="95.410156"/>
      </g>
     </g>
    </g>
    <g id="xtick_5">
     <g id="line2d_5">
      <g>
       <use xlink:href="#m680f4de845" x="106.887926" y="90.36" style="stroke: #000000; stroke-width: 0.5"/>
      </g>
     </g>
     <g id="text_5">
      <!-- 0.8 -->
      <g transform="translate(102.912145 99.659219) scale(0.05 -0.05)">
       <defs>
        <path id="DejaVuSans-38" d="M 2034 2216 
Q 1584 2216 1326 1975 
Q 1069 1734 1069 1313 
Q 1069 891 1326 650 
Q 1584 409 2034 409 
Q 2484 409 2743 651 
Q 3003 894 3003 1313 
Q 3003 1734 2745 1975 
Q 2488 2216 2034 2216 
z
M 1403 2484 
Q 997 2584 770 2862 
Q 544 3141 544 3541 
Q 544 4100 942 4425 
Q 1341 4750 2034 4750 
Q 2731 4750 3128 4425 
Q 3525 4100 3525 3541 
Q 3525 3141 3298 2862 
Q 3072 2584 2669 2484 
Q 3125 2378 3379 2068 
Q 3634 1759 3634 1313 
Q 3634 634 3220 271 
Q 2806 -91 2034 -91 
Q 1263 -91 848 271 
Q 434 634 434 1313 
Q 434 1759 690 2068 
Q 947 2378 1403 2484 
z
M 1172 3481 
Q 1172 3119 1398 2916 
Q 1625 2713 2034 2713 
Q 2441 2713 2670 2916 
Q 2900 3119 2900 3481 
Q 2900 3844 2670 4047 
Q 2441 4250 2034 4250 
Q 1625 4250 1398 4047 
Q 1172 3844 1172 3481 
z
" transform="scale(0.015625)"/>
       </defs>
       <use xlink:href="#DejaVuSans-30"/>
       <use xlink:href="#DejaVuSans-2e" x="63.623047"/>
       <use xlink:href="#DejaVuSans-38" x="95.410156"/>
      </g>
     </g>
    </g>
    <g id="xtick_6">
     <g id="line2d_6">
      <g>
       <use xlink:href="#m680f4de845" x="127.178835" y="90.36" style="stroke: #000000; stroke-width: 0.5"/>
      </g>
     </g>
     <g id="text_6">
      <!-- 1.0 -->
      <g transform="translate(123.203054 99.659219) scale(0.05 -0.05)">
       <defs>
        <path id="DejaVuSans-31" d="M 794 531 
L 1825 531 
L 1825 4091 
L 703 3866 
L 703 4441 
L 1819 4666 
L 2450 4666 
L 2450 531 
L 3481 531 
L 3481 0 
L 794 0 
L 794 531 
z
" transform="scale(0.015625)"/>
       </defs>
       <use xlink:href="#DejaVuSans-31"/>
       <use xlink:href="#DejaVuSans-2e" x="63.623047"/>
       <use xlink:href="#DejaVuSans-30" x="95.410156"/>
      </g>
     </g>
    </g>
   </g>
   <g id="matplotlib.axis_2">
    <g id="ytick_1">
     <g id="line2d_7">
      <defs>
       <path id="mfd065466d3" d="M 0 0 
L -2 0 
" style="stroke: #000000; stroke-width: 0.5"/>
      </defs>
      <g>
       <use xlink:href="#mfd065466d3" x="20.651563" y="86.583432" style="stroke: #000000; stroke-width: 0.5"/>
      </g>
     </g>
     <g id="text_7">
      <!-- 0.0 -->
      <g transform="translate(7.2 88.483042) scale(0.05 -0.05)">
       <use xlink:href="#DejaVuSans-30"/>
       <use xlink:href="#DejaVuSans-2e" x="63.623047"/>
       <use xlink:href="#DejaVuSans-30" x="95.410156"/>
      </g>
     </g>
    </g>
    <g id="ytick_2">
     <g id="line2d_8">
      <g>
       <use xlink:href="#mfd065466d3" x="20.651563" y="71.462059" style="stroke: #000000; stroke-width: 0.5"/>
      </g>
     </g>
     <g id="text_8">
      <!-- 0.2 -->
      <g transform="translate(7.2 73.361669) scale(0.05 -0.05)">
       <use xlink:href="#DejaVuSans-30"/>
       <use xlink:href="#DejaVuSans-2e" x="63.623047"/>
       <use xlink:href="#DejaVuSans-32" x="95.410156"/>
      </g>
     </g>
    </g>
    <g id="ytick_3">
     <g id="line2d_9">
      <g>
       <use xlink:href="#mfd065466d3" x="20.651563" y="56.340686" style="stroke: #000000; stroke-width: 0.5"/>
      </g>
     </g>
     <g id="text_9">
      <!-- 0.4 -->
      <g transform="translate(7.2 58.240296) scale(0.05 -0.05)">
       <use xlink:href="#DejaVuSans-30"/>
       <use xlink:href="#DejaVuSans-2e" x="63.623047"/>
       <use xlink:href="#DejaVuSans-34" x="95.410156"/>
      </g>
     </g>
    </g>
    <g id="ytick_4">
     <g id="line2d_10">
      <g>
       <use xlink:href="#mfd065466d3" x="20.651563" y="41.219314" style="stroke: #000000; stroke-width: 0.5"/>
      </g>
     </g>
     <g id="text_10">
      <!-- 0.6 -->
      <g transform="translate(7.2 43.118923) scale(0.05 -0.05)">
       <use xlink:href="#DejaVuSans-30"/>
       <use xlink:href="#DejaVuSans-2e" x="63.623047"/>
       <use xlink:href="#DejaVuSans-36" x="95.410156"/>
      </g>
     </g>
    </g>
    <g id="ytick_5">
     <g id="line2d_11">
      <g>
       <use xlink:href="#mfd065466d3" x="20.651563" y="26.097941" style="stroke: #000000; stroke-width: 0.5"/>
      </g>
     </g>
     <g id="text_11">
      <!-- 0.8 -->
      <g transform="translate(7.2 27.99755) scale(0.05 -0.05)">
       <use xlink:href="#DejaVuSans-30"/>
       <use xlink:href="#DejaVuSans-2e" x="63.623047"/>
       <use xlink:href="#DejaVuSans-38" x="95.410156"/>
      </g>
     </g>
    </g>
    <g id="ytick_6">
     <g id="line2d_12">
      <g>
       <use xlink:href="#mfd065466d3" x="20.651563" y="10.976568" style="stroke: #000000; stroke-width: 0.5"/>
      </g>
     </g>
     <g id="text_12">
      <!-- 1.0 -->
      <g transform="translate(7.2 12.876177) scale(0.05 -0.05)">
       <use xlink:href="#DejaVuSans-31"/>
       <use xlink:href="#DejaVuSans-2e" x="63.623047"/>
       <use xlink:href="#DejaVuSans-30" x="95.410156"/>
      </g>
     </g>
    </g>
   </g>
   <g id="line2d_13">
    <path d="M 25.72429 50.668598 
L 26.738835 50.630887 
L 27.753381 50.593172 
L 28.767926 50.555454 
L 29.782472 50.517732 
L 30.797017 50.480007 
L 31.811563 50.442278 
L 32.826108 50.404546 
L 33.840653 50.366811 
L 34.855199 50.329073 
L 35.869744 50.291331 
L 36.88429 50.253587 
L 37.898835 50.215839 
L 38.913381 50.178089 
L 39.927926 50.140336 
L 40.942472 50.10258 
L 41.957017 50.064822 
L 42.971563 50.027061 
L 43.986108 49.989297 
L 45.000653 49.951531 
L 46.015199 49.913763 
L 47.029744 49.875992 
L 48.04429 49.83822 
L 49.058835 49.800445 
L 50.073381 49.762668 
L 51.087926 49.724889 
L 52.102472 49.687108 
L 53.117017 49.649326 
L 54.131563 49.611541 
L 55.146108 49.573755 
L 56.160653 49.535968 
L 57.175199 49.498179 
L 58.189744 49.460388 
L 59.20429 49.422596 
L 60.218835 49.384803 
L 61.233381 49.347009 
L 62.247926 49.309213 
L 63.262472 49.271417 
L 64.277017 49.233619 
L 65.291562 49.195821 
L 66.306108 49.158022 
L 67.320653 49.120222 
L 68.335199 49.082421 
L 69.349744 49.04462 
L 70.36429 49.006818 
L 71.378835 48.969016 
L 72.393381 48.931213 
L 73.407926 48.89341 
L 74.422472 48.855607 
L 75.437017 48.817803 
L 76.451562 48.78 
L 77.466108 48.742197 
L 78.480653 48.704393 
L 79.495199 48.66659 
L 80.509744 48.628787 
L 81.52429 48.590984 
L 82.538835 48.553182 
L 83.553381 48.51538 
L 84.567926 48.477579 
L 85.582472 48.439778 
L 86.597017 48.401978 
L 87.611562 48.364179 
L 88.626108 48.326381 
L 89.640653 48.288583 
L 90.655199 48.250787 
L 91.669744 48.212991 
L 92.68429 48.175197 
L 93.698835 48.137404 
L 94.713381 48.099612 
L 95.727926 48.061821 
L 96.742472 48.024032 
L 97.757017 47.986245 
L 98.771563 47.948459 
L 99.786108 47.910674 
L 100.800653 47.872892 
L 101.815199 47.835111 
L 102.829744 47.797332 
L 103.84429 47.759555 
L 104.858835 47.72178 
L 105.873381 47.684008 
L 106.887926 47.646237 
L 107.902472 47.608469 
L 108.917017 47.570703 
L 109.931563 47.532939 
L 110.946108 47.495178 
L 111.960653 47.45742 
L 112.975199 47.419664 
L 113.989744 47.381911 
L 115.00429 47.344161 
L 116.018835 47.306413 
L 117.033381 47.268669 
L 118.047926 47.230927 
L 119.062472 47.193189 
L 120.077017 47.155454 
L 121.091563 47.117722 
L 122.106108 47.079993 
L 123.120653 47.042268 
L 124.135199 47.004546 
L 125.149744 46.966828 
L 126.16429 46.929113 
L 127.178835 46.891402 
" clip-path="url(#p37d0184161)" style="fill: none; stroke-dasharray: 3.7,1.6; stroke-dashoffset: 0; stroke: #808080"/>
   </g>
   <g id="line2d_14">
    <path d="M 25.72429 77.570873 
L 26.738835 77.248476 
L 27.753381 76.91622 
L 28.767926 76.573925 
L 29.782472 76.221414 
L 30.797017 75.858518 
L 31.811563 75.485075 
L 32.826108 75.10093 
L 33.840653 74.705937 
L 34.855199 74.299958 
L 35.869744 73.882869 
L 36.88429 73.454554 
L 37.898835 73.01491 
L 38.913381 72.563847 
L 39.927926 72.101289 
L 40.942472 71.627176 
L 41.957017 71.141463 
L 42.971563 70.644122 
L 43.986108 70.135142 
L 45.000653 69.614531 
L 46.015199 69.082317 
L 47.029744 68.538547 
L 48.04429 67.983291 
L 49.058835 67.416637 
L 50.073381 66.8387 
L 51.087926 66.249615 
L 52.102472 65.64954 
L 53.117017 65.038659 
L 54.131563 64.41718 
L 55.146108 63.785333 
L 56.160653 63.143375 
L 57.175199 62.491587 
L 58.189744 61.830275 
L 59.20429 61.15977 
L 60.218835 60.480424 
L 61.233381 59.792617 
L 62.247926 59.096749 
L 63.262472 58.393244 
L 64.277017 57.682548 
L 65.291562 56.965126 
L 66.306108 56.241465 
L 67.320653 55.512068 
L 68.335199 54.777458 
L 69.349744 54.038172 
L 70.36429 53.294762 
L 71.378835 52.547792 
L 72.393381 51.797839 
L 73.407926 51.045488 
L 74.422472 50.291331 
L 75.437017 49.535968 
L 76.451562 48.78 
L 77.466108 48.024032 
L 78.480653 47.268669 
L 79.495199 46.514512 
L 80.509744 45.762161 
L 81.52429 45.012208 
L 82.538835 44.265238 
L 83.553381 43.521828 
L 84.567926 42.782542 
L 85.582472 42.047932 
L 86.597017 41.318535 
L 87.611562 40.594874 
L 88.626108 39.877452 
L 89.640653 39.166756 
L 90.655199 38.463251 
L 91.669744 37.767383 
L 92.68429 37.079576 
L 93.698835 36.40023 
L 94.713381 35.729725 
L 95.727926 35.068413 
L 96.742472 34.416625 
L 97.757017 33.774667 
L 98.771563 33.14282 
L 99.786108 32.521341 
L 100.800653 31.91046 
L 101.815199 31.310385 
L 102.829744 30.7213 
L 103.84429 30.143363 
L 104.858835 29.576709 
L 105.873381 29.021453 
L 106.887926 28.477683 
L 107.902472 27.945469 
L 108.917017 27.424858 
L 109.931563 26.915878 
L 110.946108 26.418537 
L 111.960653 25.932824 
L 112.975199 25.458711 
L 113.989744 24.996153 
L 115.00429 24.54509 
L 116.018835 24.105446 
L 117.033381 23.677131 
L 118.047926 23.260042 
L 119.062472 22.854063 
L 120.077017 22.45907 
L 121.091563 22.074925 
L 122.106108 21.701482 
L 123.120653 21.338586 
L 124.135199 20.986075 
L 125.149744 20.64378 
L 126.16429 20.311524 
L 127.178835 19.989127 
" clip-path="url(#p37d0184161)" style="fill: none; stroke: #a1c2c2; stroke-linecap: square"/>
   </g>
   <g id="line2d_15">
    <path d="M 25.72429 85.223551 
L 26.738835 85.112494 
L 27.753381 84.992562 
L 28.767926 84.863078 
L 29.782472 84.72332 
L 30.797017 84.572517 
L 31.811563 84.409849 
L 32.826108 84.234442 
L 33.840653 84.045369 
L 34.855199 83.841646 
L 35.869744 83.622235 
L 36.88429 83.386035 
L 37.898835 83.13189 
L 38.913381 82.858584 
L 39.927926 82.564842 
L 40.942472 82.249331 
L 41.957017 81.910666 
L 42.971563 81.547408 
L 43.986108 81.15807 
L 45.000653 80.741123 
L 46.015199 80.295006 
L 47.029744 79.818126 
L 48.04429 79.308877 
L 49.058835 78.765648 
L 50.073381 78.186839 
L 51.087926 77.570873 
L 52.102472 76.91622 
L 53.117017 76.221414 
L 54.131563 75.485075 
L 55.146108 74.705937 
L 56.160653 73.882869 
L 57.175199 73.01491 
L 58.189744 72.101289 
L 59.20429 71.141463 
L 60.218835 70.135142 
L 61.233381 69.082317 
L 62.247926 67.983291 
L 63.262472 66.8387 
L 64.277017 65.64954 
L 65.291562 64.41718 
L 66.306108 63.143375 
L 67.320653 61.830275 
L 68.335199 60.480424 
L 69.349744 59.096749 
L 70.36429 57.682548 
L 71.378835 56.241465 
L 72.393381 54.777458 
L 73.407926 53.294762 
L 74.422472 51.797839 
L 75.437017 50.291331 
L 76.451562 48.78 
L 77.466108 47.268669 
L 78.480653 45.762161 
L 79.495199 44.265238 
L 80.509744 42.782542 
L 81.52429 41.318535 
L 82.538835 39.877452 
L 83.553381 38.463251 
L 84.567926 37.079576 
L 85.582472 35.729725 
L 86.597017 34.416625 
L 87.611562 33.14282 
L 88.626108 31.91046 
L 89.640653 30.7213 
L 90.655199 29.576709 
L 91.669744 28.477683 
L 92.68429 27.424858 
L 93.698835 26.418537 
L 94.713381 25.458711 
L 95.727926 24.54509 
L 96.742472 23.677131 
L 97.757017 22.854063 
L 98.771563 22.074925 
L 99.786108 21.338586 
L 100.800653 20.64378 
L 101.815199 19.989127 
L 102.829744 19.373161 
L 103.84429 18.794352 
L 104.858835 18.251123 
L 105.873381 17.741874 
L 106.887926 17.264994 
L 107.902472 16.818877 
L 108.917017 16.40193 
L 109.931563 16.012592 
L 110.946108 15.649334 
L 111.960653 15.310669 
L 112.975199 14.995158 
L 113.989744 14.701416 
L 115.00429 14.42811 
L 116.018835 14.173965 
L 117.033381 13.937765 
L 118.047926 13.718354 
L 119.062472 13.514631 
L 120.077017 13.325558 
L 121.091563 13.150151 
L 122.106108 12.987483 
L 123.120653 12.83668 
L 124.135199 12.696922 
L 125.149744 12.567438 
L 126.16429 12.447506 
L 127.178835 12.336449 
" clip-path="url(#p37d0184161)" style="fill: none; stroke: #428585; stroke-linecap: square"/>
   </g>
   <g id="line2d_16">
    <path d="M 25.72429 86.58 
L 26.738835 86.57924 
L 27.753381 86.578312 
L 28.767926 86.577178 
L 29.782472 86.575794 
L 30.797017 86.574103 
L 31.811563 86.572038 
L 32.826108 86.569515 
L 33.840653 86.566435 
L 34.855199 86.562672 
L 35.869744 86.558078 
L 36.88429 86.552466 
L 37.898835 86.545614 
L 38.913381 86.537246 
L 39.927926 86.527027 
L 40.942472 86.514551 
L 41.957017 86.499317 
L 42.971563 86.480719 
L 43.986108 86.458016 
L 45.000653 86.430304 
L 46.015199 86.396485 
L 47.029744 86.355219 
L 48.04429 86.304879 
L 49.058835 86.243483 
L 50.073381 86.168631 
L 51.087926 86.077407 
L 52.102472 85.966286 
L 53.117017 85.831008 
L 54.131563 85.666439 
L 55.146108 85.466414 
L 56.160653 85.223551 
L 57.175199 84.929058 
L 58.189744 84.572517 
L 59.20429 84.141674 
L 60.218835 83.622235 
L 61.233381 82.997711 
L 62.247926 82.249331 
L 63.262472 81.356093 
L 64.277017 80.295006 
L 65.291562 79.041611 
L 66.306108 77.570873 
L 67.320653 75.858518 
L 68.335199 73.882869 
L 69.349744 71.627176 
L 70.36429 69.082317 
L 71.378835 66.249615 
L 72.393381 63.143375 
L 73.407926 59.792617 
L 74.422472 56.241465 
L 75.437017 52.547792 
L 76.451562 48.78 
L 77.466108 45.012208 
L 78.480653 41.318535 
L 79.495199 37.767383 
L 80.509744 34.416625 
L 81.52429 31.310385 
L 82.538835 28.477683 
L 83.553381 25.932824 
L 84.567926 23.677131 
L 85.582472 21.701482 
L 86.597017 19.989127 
L 87.611562 18.518389 
L 88.626108 17.264994 
L 89.640653 16.203907 
L 90.655199 15.310669 
L 91.669744 14.562289 
L 92.68429 13.937765 
L 93.698835 13.418326 
L 94.713381 12.987483 
L 95.727926 12.630942 
L 96.742472 12.336449 
L 97.757017 12.093586 
L 98.771563 11.893561 
L 99.786108 11.728992 
L 100.800653 11.593714 
L 101.815199 11.482593 
L 102.829744 11.391369 
L 103.84429 11.316517 
L 104.858835 11.255121 
L 105.873381 11.204781 
L 106.887926 11.163515 
L 107.902472 11.129696 
L 108.917017 11.101984 
L 109.931563 11.079281 
L 110.946108 11.060683 
L 111.960653 11.045449 
L 112.975199 11.032973 
L 113.989744 11.022754 
L 115.00429 11.014386 
L 116.018835 11.007534 
L 117.033381 11.001922 
L 118.047926 10.997328 
L 119.062472 10.993565 
L 120.077017 10.990485 
L 121.091563 10.987962 
L 122.106108 10.985897 
L 123.120653 10.984206 
L 124.135199 10.982822 
L 125.149744 10.981688 
L 126.16429 10.98076 
L 127.178835 10.98 
" clip-path="url(#p37d0184161)" style="fill: none; stroke: #136666; stroke-linecap: square"/>
   </g>
   <g id="patch_3">
    <path d="M 20.651563 90.36 
L 20.651563 7.2 
" style="fill: none; stroke: #000000; stroke-width: 0.5; stroke-linejoin: miter; stroke-linecap: square"/>
   </g>
   <g id="patch_4">
    <path d="M 20.651563 90.36 
L 132.251563 90.36 
" style="fill: none; stroke: #000000; stroke-width: 0.5; stroke-linejoin: miter; stroke-linecap: square"/>
   </g>
   <g id="legend_1">
    <g id="line2d_17">
     <path d="M 89.560156 60.959219 
L 94.560156 60.959219 
L 99.560156 60.959219 
" style="fill: none; stroke-dasharray: 3.7,1.6; stroke-dashoffset: 0; stroke: #808080"/>
    </g>
    <g id="text_13">
     <!-- β* = 0.1 -->
     <g transform="translate(103.560156 62.709219) scale(0.05 -0.05)">
      <defs>
       <path id="DejaVuSans-3b2" d="M 1178 216 
L 1178 -1331 
L 600 -1331 
L 600 3478 
Q 600 4903 1931 4903 
Q 3288 4903 3288 3700 
Q 3288 2844 2750 2531 
Q 3625 2250 3625 1416 
Q 3625 -66 2119 -66 
Q 1456 -66 1178 216 
z
M 1178 966 
Q 1525 425 2141 425 
Q 3041 425 3041 1406 
Q 3041 2288 1591 2219 
L 1591 2750 
Q 2725 2750 2725 3750 
Q 2725 4434 1994 4434 
Q 1178 4434 1178 3459 
L 1178 966 
z
" transform="scale(0.015625)"/>
       <path id="DejaVuSans-2a" d="M 3009 3897 
L 1888 3291 
L 3009 2681 
L 2828 2375 
L 1778 3009 
L 1778 1831 
L 1422 1831 
L 1422 3009 
L 372 2375 
L 191 2681 
L 1313 3291 
L 191 3897 
L 372 4206 
L 1422 3572 
L 1422 4750 
L 1778 4750 
L 1778 3572 
L 2828 4206 
L 3009 3897 
z
" transform="scale(0.015625)"/>
       <path id="DejaVuSans-20" transform="scale(0.015625)"/>
       <path id="DejaVuSans-3d" d="M 678 2906 
L 4684 2906 
L 4684 2381 
L 678 2381 
L 678 2906 
z
M 678 1631 
L 4684 1631 
L 4684 1100 
L 678 1100 
L 678 1631 
z
" transform="scale(0.015625)"/>
      </defs>
      <use xlink:href="#DejaVuSans-3b2"/>
      <use xlink:href="#DejaVuSans-2a" x="63.818359"/>
      <use xlink:href="#DejaVuSans-20" x="113.818359"/>
      <use xlink:href="#DejaVuSans-3d" x="145.605469"/>
      <use xlink:href="#DejaVuSans-20" x="229.394531"/>
      <use xlink:href="#DejaVuSans-30" x="261.181641"/>
      <use xlink:href="#DejaVuSans-2e" x="324.804688"/>
      <use xlink:href="#DejaVuSans-31" x="356.591797"/>
     </g>
    </g>
    <g id="line2d_18">
     <path d="M 89.560156 68.329531 
L 94.560156 68.329531 
L 99.560156 68.329531 
" style="fill: none; stroke: #a1c2c2; stroke-linecap: square"/>
    </g>
    <g id="text_14">
     <!-- β* = 2.0 -->
     <g transform="translate(103.560156 70.079531) scale(0.05 -0.05)">
      <use xlink:href="#DejaVuSans-3b2"/>
      <use xlink:href="#DejaVuSans-2a" x="63.818359"/>
      <use xlink:href="#DejaVuSans-20" x="113.818359"/>
      <use xlink:href="#DejaVuSans-3d" x="145.605469"/>
      <use xlink:href="#DejaVuSans-20" x="229.394531"/>
      <use xlink:href="#DejaVuSans-32" x="261.181641"/>
      <use xlink:href="#DejaVuSans-2e" x="324.804688"/>
      <use xlink:href="#DejaVuSans-30" x="356.591797"/>
     </g>
    </g>
    <g id="line2d_19">
     <path d="M 89.560156 75.699844 
L 94.560156 75.699844 
L 99.560156 75.699844 
" style="fill: none; stroke: #428585; stroke-linecap: square"/>
    </g>
    <g id="text_15">
     <!-- β* = 4.0 -->
     <g transform="translate(103.560156 77.449844) scale(0.05 -0.05)">
      <use xlink:href="#DejaVuSans-3b2"/>
      <use xlink:href="#DejaVuSans-2a" x="63.818359"/>
      <use xlink:href="#DejaVuSans-20" x="113.818359"/>
      <use xlink:href="#DejaVuSans-3d" x="145.605469"/>
      <use xlink:href="#DejaVuSans-20" x="229.394531"/>
      <use xlink:href="#DejaVuSans-34" x="261.181641"/>
      <use xlink:href="#DejaVuSans-2e" x="324.804688"/>
      <use xlink:href="#DejaVuSans-30" x="356.591797"/>
     </g>
    </g>
    <g id="line2d_20">
     <path d="M 89.560156 83.070156 
L 94.560156 83.070156 
L 99.560156 83.070156 
" style="fill: none; stroke: #136666; stroke-linecap: square"/>
    </g>
    <g id="text_16">
     <!-- β* = 10.0 -->
     <g transform="translate(103.560156 84.820156) scale(0.05 -0.05)">
      <use xlink:href="#DejaVuSans-3b2"/>
      <use xlink:href="#DejaVuSans-2a" x="63.818359"/>
      <use xlink:href="#DejaVuSans-20" x="113.818359"/>
      <use xlink:href="#DejaVuSans-3d" x="145.605469"/>
      <use xlink:href="#DejaVuSans-20" x="229.394531"/>
      <use xlink:href="#DejaVuSans-31" x="261.181641"/>
      <use xlink:href="#DejaVuSans-30" x="324.804688"/>
      <use xlink:href="#DejaVuSans-2e" x="388.427734"/>
      <use xlink:href="#DejaVuSans-30" x="420.214844"/>
     </g>
    </g>
   </g>
  </g>
 </g>
 <defs>
  <clipPath id="p37d0184161">
   <rect x="20.651563" y="7.2" width="111.6" height="83.16"/>
  </clipPath>
 </defs>
</svg>
