<?xml version="1.0" encoding="utf-8" standalone="no"?>
<!DOCTYPE svg PUBLIC "-//W3C//DTD SVG 1.1//EN"
  "http://www.w3.org/Graphics/SVG/1.1/DTD/svg11.dtd">
<svg xmlns:xlink="http://www.w3.org/1999/xlink" width="42.3pt" height="42.12pt" viewBox="0 0 42.3 42.12" xmlns="http://www.w3.org/2000/svg" version="1.1">
 <metadata>
  <rdf:RDF xmlns:dc="http://purl.org/dc/elements/1.1/" xmlns:cc="http://creativecommons.org/ns#" xmlns:rdf="http://www.w3.org/1999/02/22-rdf-syntax-ns#">
   <cc:Work>
    <dc:type rdf:resource="http://purl.org/dc/dcmitype/StillImage"/>
    <dc:date>2026-04-16T18:27:07.640082</dc:date>
    <dc:format>image/svg+xml</dc:format>
    <dc:creator>
     <cc:Agent>
      <dc:title>Matplotlib v3.8.2, https://matplotlib.org/</dc:title>
     </cc:Agent>
    </dc:creator>
   </cc:Work>
  </rdf:RDF>
 </metadata>
 <defs>
  <style type="text/css">*{stroke-linejoin: round; stroke-linecap: butt}</style>
 </defs>
 <g id="figure_1">
  <g id="patch_1">
   <path d="M 0 42.12 
L 42.3 42.12 
L 42.3 0 
L 0 0 
z
" style="fill: #ffffff"/>
  </g>
  <g id="axes_1">
   <g id="patch_2">
    <path d="M 7.2 34.92 
L 35.1 34.92 
L 35.1 7.2 
L 7.2 7.2 
z
" style="fill: #ffffff"/>
   </g>
   <g id="matplotlib.axis_1"/>
   <g id="matplotlib.axis_2">
    <g id="ytick_1">
     <g id="line2d_1"/>
    </g>
    <g id="ytick_2">
     <g id="line2d_2"/>
    </g>
   </g>
   <g id="line2d_3">
    <path d="M 5.805 8.617712 
L 7.2 8.589971 
L 8.595 8.564973 
L 9.99 8.542698 
L 11.385 8.523127 
L 12.78 8.506239 
L 14.175 8.492011 
L 15.57 8.480423 
L 16.965 8.471452 
L 18.36 8.465073 
L 19.755 8.461264 
L 21.15 8.46 
L 22.545 8.461256 
L 23.94 8.465006 
L 25.335 8.471225 
L 26.73 8.479886 
L 28.125 8.490962 
L 29.52 8.504427 
L 30.915 8.520252 
L 32.31 8.53841 
L 33.705 8.558871 
L 35.1 8.581609 
" clip-path="url(#p717ea30e21)" style="fill: none; stroke: #fafcfc; stroke-width: 0.8; stroke-linecap: square"/>
   </g>
   <g id="line2d_4">
    <path d="M 7.13025 33.366675 
L 8.10675 32.983926 
L 8.94375 32.411127 
L 9.711 31.6226 
L 10.548 30.423091 
L 11.45475 28.697082 
L 12.501 26.187493 
L 13.96575 22.0045 
L 16.61625 14.336863 
L 17.73225 11.802857 
L 18.639 10.241775 
L 19.476 9.235302 
L 20.1735 8.717574 
L 20.871 8.480423 
L 21.49875 8.490962 
L 22.19625 8.728401 
L 22.9635 9.230476 
L 23.87025 10.094421 
L 25.056 11.558733 
L 26.73 14.021046 
L 31.752 21.621232 
L 33.705 24.062092 
L 35.1 25.562878 
L 35.1 25.562878 
" clip-path="url(#p717ea30e21)" style="fill: none; stroke: #a1c2c2; stroke-width: 0.8; stroke-linecap: square"/>
   </g>
   <g id="line2d_5">
    <path d="M 7.165125 33.66 
L 13.651875 33.550081 
L 14.279625 33.282367 
L 14.767875 32.822256 
L 15.256125 32.01562 
L 15.77925 30.649056 
L 16.372125 28.39283 
L 17.139375 24.465081 
L 19.510875 11.531867 
L 20.10375 9.685634 
L 20.592 8.798184 
L 20.975625 8.492011 
L 21.324375 8.490962 
L 21.673125 8.728401 
L 22.1265 9.345807 
L 22.719375 10.574243 
L 23.59125 12.957413 
L 27.35775 23.900845 
L 28.508625 26.30334 
L 29.624625 28.13763 
L 30.740625 29.552083 
L 31.8915 30.653175 
L 33.112125 31.512172 
L 34.47225 32.190509 
L 35.1 32.428136 
L 35.1 32.428136 
" clip-path="url(#p717ea30e21)" style="fill: none; stroke: #428585; stroke-width: 0.8; stroke-linecap: square"/>
   </g>
   <g id="line2d_6">
    <path d="M 7.18605 33.66 
L 18.15075 33.550081 
L 18.4158 33.258474 
L 18.6669 32.579971 
L 18.9459 31.069403 
L 19.29465 27.754993 
L 19.8666 19.681036 
L 20.55015 11.022983 
L 20.91285 8.842746 
L 21.13605 8.461264 
L 21.27555 8.558871 
L 21.47085 9.070725 
L 21.7917 10.658479 
L 22.39155 15.003619 
L 23.61915 23.819456 
L 24.3306 27.334685 
L 25.0002 29.590369 
L 25.65585 31.055381 
L 26.32545 32.023816 
L 27.0369 32.667824 
L 27.85995 33.106395 
L 28.9062 33.397369 
L 30.4407 33.572353 
L 33.4539 33.649881 
L 35.1 33.65689 
L 35.1 33.65689 
" clip-path="url(#p717ea30e21)" style="fill: none; stroke: #136666; stroke-width: 0.8; stroke-linecap: square"/>
   </g>
   <g id="patch_3">
    <path d="M 7.2 34.92 
L 7.2 7.2 
" style="fill: none; stroke: #000000; stroke-width: 0.3; stroke-linejoin: miter; stroke-linecap: square"/>
   </g>
   <g id="patch_4">
    <path d="M 35.1 34.92 
L 35.1 7.2 
" style="fill: none; stroke: #000000; stroke-width: 0.3; stroke-linejoin: miter; stroke-linecap: square"/>
   </g>
   <g id="patch_5">
    <path d="M 7.2 34.92 
L 35.1 34.92 
" style="fill: none; stroke: #000000; stroke-width: 0.3; stroke-linejoin: miter; stroke-linecap: square"/>
   </g>
   <g id="patch_6">
    <path d="M 7.2 7.2 
L 35.1 7.2 
" style="fill: none; stroke: #000000; stroke-width: 0.3; stroke-linejoin: miter; stroke-linecap: square"/>
   </g>
  </g>
 </g>
 <defs>
  <clipPath id="p717ea30e21">
   <rect x="7.2" y="7.2" width="27.9" height="27.72"/>
  </clipPath>
 </defs>
</svg>
