<?xml version="1.0" encoding="UTF-8"?>
<svg id="Layer_1" xmlns="http://www.w3.org/2000/svg" version="1.1" xmlns:xlink="http://www.w3.org/1999/xlink" viewBox="0 0 283.46 141.73">
  <!-- Generator: Adobe Illustrator 30.2.1, SVG Export Plug-In . SVG Version: 2.1.1 Build 1)  -->
  <defs>
    <style>
      .st0 {
        font-size: 7px;
      }

      .st0, .st1, .st2, .st3, .st4 {
        font-family: ArialMT, Arial;
      }

      .st0, .st5 {
        fill: #fff;
      }

      .st6 {
        stroke: #bb2026;
        stroke-dasharray: 3.7 1.6;
      }

      .st6, .st7, .st8, .st9 {
        fill: none;
      }

      .st6, .st8, .st10 {
        stroke-linejoin: round;
      }

      .st7 {
        stroke-width: 4px;
      }

      .st7, .st11, .st12 {
        stroke: #231f20;
      }

      .st7, .st11, .st12, .st9 {
        stroke-miterlimit: 10;
      }

      .st1 {
        font-size: 8px;
      }

      .st1, .st2, .st13, .st3, .st4 {
        fill: #231f20;
      }

      .st14 {
        fill: #418585;
      }

      .st2 {
        font-size: 6px;
      }

      .st3 {
        font-size: 5px;
      }

      .st11 {
        fill: url(#linear-gradient);
      }

      .st11, .st12, .st10, .st9 {
        stroke-width: .5px;
      }

      .st15 {
        fill: #808285;
      }

      .st16 {
        fill: #febe4d;
      }

      .st12 {
        fill: url(#linear-gradient1);
      }

      .st8 {
        stroke: #428585;
      }

      .st8, .st9 {
        stroke-linecap: square;
      }

      .st4 {
        font-size: 5.5px;
      }

      .st10, .st9 {
        stroke: #000;
      }

      .st17 {
        fill: #ba2127;
      }

      .st18 {
        fill-rule: evenodd;
      }
    </style>
    <linearGradient id="linear-gradient" x1="195.32" y1="146.25" x2="258.23" y2="146.25" gradientTransform="translate(-102.93 37.43) rotate(-31.61)" gradientUnits="userSpaceOnUse">
      <stop offset="0" stop-color="#fff"/>
      <stop offset="1" stop-color="#000"/>
    </linearGradient>
    <linearGradient id="linear-gradient1" x1="306.58" y1="198.95" x2="357.4" y2="198.95" gradientTransform="translate(44.14 394.9) rotate(-90)" gradientUnits="userSpaceOnUse">
      <stop offset="0" stop-color="#fff"/>
      <stop offset="1" stop-color="#418585"/>
    </linearGradient>
  </defs>
  <g>
    <rect class="st5" x="6.94" y="14.39" width="295.71" height="121.76"/>
    <rect class="st5" x="27.61" y="21.59" width="26.13" height="97.02"/>
    <line class="st10" x1="27.61" y1="111.37" x2="25.61" y2="111.37"/>
    <path class="st18" d="M15.73,110.03c-.25,0-.44.12-.57.38-.13.25-.19.62-.19,1.13s.06.87.19,1.13c.13.25.32.37.57.37s.45-.12.57-.37c.13-.25.19-.62.19-1.13s-.06-.88-.19-1.13c-.13-.25-.32-.38-.57-.38M15.73,109.64c.41,0,.72.16.94.49.22.32.32.79.32,1.41s-.11,1.08-.32,1.41c-.21.32-.53.48-.94.48s-.72-.16-.94-.48c-.21-.32-.32-.79-.32-1.41s.11-1.08.32-1.41c.22-.32.53-.49.94-.49h0Z"/>
    <polygon class="st18" points="17.8 112.73 18.31 112.73 18.31 113.35 17.8 113.35 17.8 112.73 17.8 112.73"/>
    <path class="st18" d="M20.53,110.03c-.25,0-.44.12-.57.38-.13.25-.19.62-.19,1.13s.06.87.19,1.13c.13.25.32.37.57.37s.45-.12.57-.37c.13-.25.19-.62.19-1.13s-.06-.88-.19-1.13c-.13-.25-.32-.38-.57-.38M20.53,109.64c.41,0,.72.16.94.49.22.32.32.79.32,1.41s-.11,1.08-.32,1.41c-.21.32-.53.48-.94.48s-.72-.16-.94-.48c-.21-.32-.32-.79-.32-1.41s.11-1.08.32-1.41c.22-.32.53-.49.94-.49h0Z"/>
    <line class="st10" x1="27.61" y1="96.89" x2="25.61" y2="96.89"/>
    <path class="st18" d="M15.73,95.39c-.25,0-.44.12-.57.38-.13.25-.19.62-.19,1.13s.06.87.19,1.13c.13.25.32.37.57.37s.45-.12.57-.37c.13-.25.19-.62.19-1.13s-.06-.88-.19-1.13c-.13-.25-.32-.38-.57-.38M15.73,95c.41,0,.72.16.94.49.22.32.32.79.32,1.41s-.11,1.08-.32,1.41c-.21.32-.53.48-.94.48s-.72-.16-.94-.48c-.21-.32-.32-.79-.32-1.41s.11-1.08.32-1.41c.22-.32.53-.49.94-.49h0Z"/>
    <polygon class="st18" points="17.8 98.09 18.31 98.09 18.31 98.71 17.8 98.71 17.8 98.09 17.8 98.09"/>
    <polygon class="st18" points="19.56 98.3 20.37 98.3 20.37 95.52 19.49 95.69 19.49 95.24 20.36 95.07 20.86 95.07 20.86 98.3 21.66 98.3 21.66 98.71 19.56 98.71 19.56 98.3 19.56 98.3"/>
    <line class="st10" x1="27.61" y1="82.41" x2="25.61" y2="82.41"/>
    <path class="st18" d="M15.73,80.99c-.25,0-.44.12-.57.38-.13.25-.19.62-.19,1.13s.06.87.19,1.13c.13.25.32.37.57.37s.45-.12.57-.37c.13-.25.19-.62.19-1.13s-.06-.88-.19-1.13c-.13-.25-.32-.38-.57-.38M15.73,80.6c.41,0,.72.16.94.49.22.32.32.79.32,1.41s-.11,1.08-.32,1.41c-.21.32-.53.48-.94.48s-.72-.16-.94-.48c-.21-.32-.32-.79-.32-1.41s.11-1.08.32-1.41c.22-.32.53-.49.94-.49h0Z"/>
    <polygon class="st18" points="17.8 83.69 18.31 83.69 18.31 84.31 17.8 84.31 17.8 83.69 17.8 83.69"/>
    <path class="st18" d="M19.9,83.9h1.72v.42h-2.31v-.42c.19-.19.44-.45.76-.78.32-.33.53-.54.61-.63.16-.18.27-.33.33-.45.06-.12.1-.24.1-.36,0-.19-.07-.35-.21-.47-.13-.12-.31-.18-.53-.18-.15,0-.32.03-.49.08-.17.05-.35.13-.55.24v-.5c.2-.08.38-.14.56-.18.17-.04.33-.06.47-.06.38,0,.68.1.9.28.22.19.34.44.34.76,0,.15-.03.29-.09.43-.06.13-.16.29-.31.47-.04.05-.17.18-.39.41-.22.22-.52.54-.92.94h0Z"/>
    <line class="st10" x1="27.61" y1="67.93" x2="25.61" y2="67.93"/>
    <path class="st18" d="M15.73,66.59c-.25,0-.44.12-.57.38-.13.25-.19.62-.19,1.13s.06.87.19,1.13c.13.25.32.37.57.37s.45-.12.57-.37c.13-.25.19-.62.19-1.13s-.06-.88-.19-1.13c-.13-.25-.32-.38-.57-.38M15.73,66.2c.41,0,.72.16.94.49.22.32.32.79.32,1.41s-.11,1.08-.32,1.41c-.21.32-.53.48-.94.48s-.72-.16-.94-.48c-.21-.32-.32-.79-.32-1.41s.11-1.08.32-1.41c.22-.32.53-.49.94-.49h0Z"/>
    <polygon class="st18" points="17.8 69.29 18.31 69.29 18.31 69.91 17.8 69.91 17.8 69.29 17.8 69.29"/>
    <path class="st18" d="M20.97,67.95c.24.05.42.16.55.31.13.16.2.36.2.59,0,.36-.12.64-.37.83-.25.2-.6.3-1.05.3-.15,0-.31-.01-.47-.05-.16-.03-.33-.07-.5-.13v-.48c.14.08.29.14.45.18.16.04.33.06.51.06.31,0,.54-.06.71-.18.16-.12.24-.3.24-.53,0-.21-.08-.38-.23-.5-.15-.12-.36-.18-.63-.18h-.42v-.41h.44c.24,0,.43-.05.56-.14.13-.1.19-.24.19-.42s-.07-.33-.2-.43c-.13-.1-.32-.15-.57-.15-.13,0-.28.01-.43.04s-.32.08-.51.14v-.44c.19-.05.36-.09.52-.12.16-.03.32-.04.46-.04.37,0,.67.09.89.26.22.17.33.4.33.69,0,.2-.06.37-.17.51-.11.14-.28.23-.49.29h0Z"/>
    <line class="st10" x1="27.61" y1="53.45" x2="25.61" y2="53.45"/>
    <path class="st18" d="M15.73,51.95c-.25,0-.44.12-.57.38-.13.25-.19.62-.19,1.13s.06.87.19,1.13c.13.25.32.37.57.37s.45-.12.57-.37c.13-.25.19-.62.19-1.13s-.06-.88-.19-1.13c-.13-.25-.32-.38-.57-.38M15.73,51.56c.41,0,.72.16.94.49.22.32.32.79.32,1.41s-.11,1.08-.32,1.41c-.21.32-.53.48-.94.48s-.72-.16-.94-.48c-.21-.32-.32-.79-.32-1.41s.11-1.08.32-1.41c.22-.32.53-.49.94-.49h0Z"/>
    <polygon class="st18" points="17.8 54.65 18.31 54.65 18.31 55.27 17.8 55.27 17.8 54.65 17.8 54.65"/>
    <path class="st18" d="M20.83,52.06l-1.25,1.95h1.25v-1.95M20.7,51.63h.62v2.38h.52v.41h-.52v.86h-.49v-.86h-1.65v-.48l1.52-2.31h0Z"/>
    <line class="st10" x1="27.61" y1="38.96" x2="25.61" y2="38.96"/>
    <path class="st18" d="M15.73,37.55c-.25,0-.44.12-.57.38-.13.25-.19.62-.19,1.13s.06.87.19,1.13c.13.25.32.37.57.37s.45-.12.57-.37c.13-.25.19-.62.19-1.13s-.06-.88-.19-1.13c-.13-.25-.32-.38-.57-.38M15.73,37.16c.41,0,.72.16.94.49.22.32.32.79.32,1.41s-.11,1.08-.32,1.41c-.21.32-.53.48-.94.48s-.72-.16-.94-.48c-.21-.32-.32-.79-.32-1.41s.11-1.08.32-1.41c.22-.32.53-.49.94-.49h0Z"/>
    <polygon class="st18" points="17.8 40.25 18.31 40.25 18.31 40.87 17.8 40.87 17.8 40.25 17.8 40.25"/>
    <path class="st18" d="M19.48,37.23h1.94v.42h-1.48v.89c.07-.02.14-.04.21-.05.07-.01.14-.02.21-.02.41,0,.73.11.97.33.24.22.36.52.36.91s-.12.7-.37.92c-.24.22-.59.32-1.03.32-.15,0-.31-.01-.47-.04-.16-.03-.32-.07-.49-.12v-.5c.15.08.3.14.45.18.16.04.32.06.5.06.28,0,.51-.07.67-.22.16-.15.25-.35.25-.6s-.08-.45-.25-.6c-.16-.15-.39-.22-.67-.22-.13,0-.26.01-.4.04-.13.03-.26.08-.4.14v-1.83h0Z"/>
    <line class="st10" x1="27.61" y1="24.48" x2="25.61" y2="24.48"/>
    <path class="st18" d="M15.73,23.15c-.25,0-.44.12-.57.38-.13.25-.19.62-.19,1.13s.06.87.19,1.13c.13.25.32.37.57.37s.45-.12.57-.37c.13-.25.19-.62.19-1.13s-.06-.88-.19-1.13c-.13-.25-.32-.38-.57-.38M15.73,22.76c.41,0,.72.16.94.49.22.32.32.79.32,1.41s-.11,1.08-.32,1.41c-.21.32-.53.48-.94.48s-.72-.16-.94-.48c-.21-.32-.32-.79-.32-1.41s.11-1.08.32-1.41c.22-.32.53-.49.94-.49h0Z"/>
    <polygon class="st18" points="17.8 25.85 18.31 25.85 18.31 26.47 17.8 26.47 17.8 25.85 17.8 25.85"/>
    <path class="st18" d="M20.59,24.45c-.22,0-.4.08-.53.23-.13.15-.19.36-.19.62s.06.47.19.62c.13.15.31.23.53.23s.4-.08.52-.23c.13-.15.2-.36.2-.62s-.07-.47-.2-.62c-.13-.15-.3-.23-.52-.23M21.57,22.91v.45c-.12-.06-.25-.1-.38-.13-.12-.03-.25-.05-.37-.05-.32,0-.57.11-.75.33-.17.22-.27.55-.29,1,.1-.14.22-.25.36-.32.14-.08.31-.11.48-.11.37,0,.65.11.87.33s.32.52.32.91-.11.67-.33.9c-.22.23-.52.34-.88.34-.42,0-.74-.16-.97-.48-.22-.32-.33-.79-.33-1.41,0-.58.14-1.04.41-1.38.27-.34.64-.52,1.1-.52.12,0,.25.01.37.04.13.02.26.06.4.11h0Z"/>
    <path class="st9" d="M27.61,118.61V21.59M27.61,118.61h26.13"/>
    <rect class="st5" x="92.94" y="21.59" width="163.32" height="97.02"/>
    <line class="st10" x1="99.47" y1="118.61" x2="99.47" y2="120.61"/>
    <path class="st18" d="M97.09,124.67c-.25,0-.44.12-.57.38-.13.25-.19.62-.19,1.13s.06.87.19,1.13c.13.25.32.37.57.37s.45-.12.57-.37c.13-.25.19-.62.19-1.13s-.06-.88-.19-1.13c-.13-.25-.32-.38-.57-.38M97.09,124.28c.41,0,.72.16.94.49.22.32.32.79.32,1.41s-.11,1.08-.32,1.41c-.21.32-.53.48-.94.48s-.72-.16-.94-.48c-.21-.32-.32-.79-.32-1.41s.11-1.08.32-1.41c.22-.32.53-.49.94-.49h0Z"/>
    <polygon class="st18" points="99.16 127.37 99.67 127.37 99.67 127.99 99.16 127.99 99.16 127.37 99.16 127.37"/>
    <path class="st18" d="M101.89,124.67c-.25,0-.44.12-.57.38-.13.25-.19.62-.19,1.13s.06.87.19,1.13c.13.25.32.37.57.37s.45-.12.57-.37c.13-.25.19-.62.19-1.13s-.06-.88-.19-1.13c-.13-.25-.32-.38-.57-.38M101.89,124.28c.41,0,.72.16.94.49.22.32.32.79.32,1.41s-.11,1.08-.32,1.41c-.21.32-.53.48-.94.48s-.72-.16-.94-.48c-.21-.32-.32-.79-.32-1.41s.11-1.08.32-1.41c.22-.32.53-.49.94-.49h0Z"/>
    <line class="st10" x1="125.6" y1="118.61" x2="125.6" y2="120.61"/>
    <path class="st18" d="M123.25,124.67c-.25,0-.44.12-.57.38-.13.25-.19.62-.19,1.13s.06.87.19,1.13c.13.25.32.37.57.37s.45-.12.57-.37c.13-.25.19-.62.19-1.13s-.06-.88-.19-1.13c-.13-.25-.32-.38-.57-.38M123.25,124.28c.41,0,.72.16.94.49.22.32.32.79.32,1.41s-.11,1.08-.32,1.41c-.21.32-.53.48-.94.48s-.72-.16-.94-.48c-.21-.32-.32-.79-.32-1.41s.11-1.08.32-1.41c.22-.32.53-.49.94-.49h0Z"/>
    <polygon class="st18" points="125.32 127.37 125.83 127.37 125.83 127.99 125.32 127.99 125.32 127.37 125.32 127.37"/>
    <path class="st18" d="M127.42,127.58h1.72v.42h-2.31v-.42c.19-.19.44-.45.76-.78.32-.33.53-.54.61-.63.16-.18.27-.33.33-.45.06-.12.1-.24.1-.36,0-.19-.07-.35-.21-.47-.13-.12-.31-.18-.53-.18-.15,0-.32.03-.49.08-.17.05-.35.13-.55.24v-.5c.2-.08.38-.14.56-.18.17-.04.33-.06.47-.06.38,0,.68.1.9.28.22.19.34.44.34.76,0,.15-.03.29-.09.43-.06.13-.16.29-.31.47-.04.05-.17.18-.39.41-.22.22-.52.54-.92.94h0Z"/>
    <line class="st10" x1="151.73" y1="118.61" x2="151.73" y2="120.61"/>
    <path class="st18" d="M149.41,124.67c-.25,0-.44.12-.57.38-.13.25-.19.62-.19,1.13s.06.87.19,1.13c.13.25.32.37.57.37s.45-.12.57-.37c.13-.25.19-.62.19-1.13s-.06-.88-.19-1.13c-.13-.25-.32-.38-.57-.38M149.41,124.28c.41,0,.72.16.94.49.22.32.32.79.32,1.41s-.11,1.08-.32,1.41c-.21.32-.53.48-.94.48s-.72-.16-.94-.48c-.21-.32-.32-.79-.32-1.41s.11-1.08.32-1.41c.22-.32.53-.49.94-.49h0Z"/>
    <polygon class="st18" points="151.48 127.37 151.99 127.37 151.99 127.99 151.48 127.99 151.48 127.37 151.48 127.37"/>
    <path class="st18" d="M154.51,124.78l-1.25,1.95h1.25v-1.95M154.38,124.35h.62v2.38h.52v.41h-.52v.86h-.49v-.86h-1.65v-.48l1.52-2.31h0Z"/>
    <line class="st10" x1="177.86" y1="118.61" x2="177.86" y2="120.61"/>
    <path class="st18" d="M175.57,124.67c-.25,0-.44.12-.57.38-.13.25-.19.62-.19,1.13s.06.87.19,1.13c.13.25.32.37.57.37s.45-.12.57-.37c.13-.25.19-.62.19-1.13s-.06-.88-.19-1.13c-.13-.25-.32-.38-.57-.38M175.57,124.28c.41,0,.72.16.94.49.22.32.32.79.32,1.41s-.11,1.08-.32,1.41c-.21.32-.53.48-.94.48s-.72-.16-.94-.48c-.21-.32-.32-.79-.32-1.41s.11-1.08.32-1.41c.22-.32.53-.49.94-.49h0Z"/>
    <polygon class="st18" points="177.64 127.37 178.15 127.37 178.15 127.99 177.64 127.99 177.64 127.37 177.64 127.37"/>
    <path class="st18" d="M180.19,125.97c-.22,0-.4.08-.53.23-.13.15-.19.36-.19.62s.06.47.19.62c.13.15.31.23.53.23s.4-.08.52-.23c.13-.15.2-.36.2-.62s-.07-.47-.2-.62c-.13-.15-.3-.23-.52-.23M181.17,124.43v.45c-.12-.06-.25-.1-.38-.13-.12-.03-.25-.05-.37-.05-.32,0-.57.11-.75.33-.17.22-.27.55-.29,1,.1-.14.22-.25.36-.32.14-.08.31-.11.48-.11.37,0,.65.11.87.33.21.22.32.52.32.91s-.11.67-.33.9c-.22.23-.52.34-.88.34-.42,0-.74-.16-.97-.48-.22-.32-.33-.79-.33-1.41,0-.58.14-1.04.41-1.38.27-.34.64-.52,1.1-.52.12,0,.25.01.37.04.13.02.26.06.4.11h0Z"/>
    <line class="st10" x1="203.99" y1="118.61" x2="203.99" y2="120.61"/>
    <path class="st18" d="M201.49,124.67c-.25,0-.44.12-.57.38-.13.25-.19.62-.19,1.13s.06.87.19,1.13c.13.25.32.37.57.37s.45-.12.57-.37c.13-.25.19-.62.19-1.13s-.06-.88-.19-1.13c-.13-.25-.32-.38-.57-.38M201.49,124.28c.41,0,.72.16.94.49.22.32.32.79.32,1.41s-.11,1.08-.32,1.41c-.21.32-.53.48-.94.48s-.72-.16-.94-.48c-.21-.32-.32-.79-.32-1.41s.11-1.08.32-1.41c.22-.32.53-.49.94-.49h0Z"/>
    <polygon class="st18" points="203.8 127.37 204.31 127.37 204.31 127.99 203.8 127.99 203.8 127.37 203.8 127.37"/>
    <path class="st18" d="M206.29,126.26c-.23,0-.42.06-.55.19s-.2.3-.2.52.07.39.2.52.32.19.55.19.42-.06.55-.19c.13-.13.2-.3.2-.52s-.07-.39-.2-.52-.32-.19-.55-.19M205.8,126.05c-.21-.05-.38-.15-.5-.3-.12-.14-.18-.32-.18-.53,0-.29.1-.52.31-.69s.49-.25.85-.25.65.09.85.25.31.4.31.69c0,.21-.06.39-.18.53-.12.14-.28.24-.49.3.24.06.42.16.55.32.13.16.2.36.2.59,0,.35-.11.62-.32.81-.21.19-.52.28-.93.28s-.71-.1-.93-.28c-.21-.19-.32-.46-.32-.81,0-.23.07-.43.2-.59s.32-.27.56-.32M205.62,125.27c0,.19.06.34.18.44.12.1.29.16.5.16s.38-.05.5-.16c.12-.1.18-.25.18-.44s-.06-.34-.18-.44c-.12-.1-.28-.16-.5-.16s-.38.05-.5.16c-.12.11-.18.25-.18.44h0Z"/>
    <line class="st10" x1="230.12" y1="118.61" x2="230.12" y2="120.61"/>
    <polygon class="st18" points="226.68 127.58 227.49 127.58 227.49 124.8 226.61 124.97 226.61 124.52 227.48 124.35 227.98 124.35 227.98 127.58 228.78 127.58 228.78 127.99 226.68 127.99 226.68 127.58 226.68 127.58"/>
    <polygon class="st18" points="229.96 127.37 230.47 127.37 230.47 127.99 229.96 127.99 229.96 127.37 229.96 127.37"/>
    <path class="st18" d="M232.45,124.67c-.25,0-.44.12-.57.38-.13.25-.19.62-.19,1.13s.06.87.19,1.13c.13.25.32.37.57.37s.45-.12.57-.37c.13-.25.19-.62.19-1.13s-.06-.88-.19-1.13c-.13-.25-.32-.38-.57-.38M232.45,124.28c.41,0,.72.16.94.49.22.32.32.79.32,1.41s-.11,1.08-.32,1.41c-.21.32-.53.48-.94.48s-.72-.16-.94-.48c-.21-.32-.32-.79-.32-1.41s.11-1.08.32-1.41c.22-.32.53-.49.94-.49h0Z"/>
    <polyline class="st8" points="99.47 111.37 112.73 100.89 125.17 91.32 137.33 82.25 147.83 74.68 157.76 67.79 166.8 61.77 175.39 56.3 183.26 51.57 190.62 47.4 197.15 43.97 203.13 41.06 208.5 38.71 213.25 36.86 217.5 35.44 221.34 34.39 225.04 33.61 228.69 33.07 230.11 32.93 230.11 32.93"/>
    <polyline class="st6" points="99.47 111.37 111.01 105.05 121.97 99.29 132.89 93.79 143.22 88.84 153.04 84.38 162.58 80.3 171.54 76.69 180.15 73.47 188.46 70.6 196.41 68.09 204.04 65.92 211.29 64.08 218.05 62.6 224.24 61.47 229.22 60.77 230.12 60.69 230.12 60.69"/>
    <path class="st9" d="M92.94,118.61V21.59M92.94,118.61h163.32"/>
    <polyline class="st8" points="97.44 28.13 102.44 28.13 107.44 28.13"/>
    <polygon class="st18" points="111.83 26.19 113.93 26.19 113.93 26.6 112.33 26.6 112.33 27.68 113.77 27.68 113.77 28.09 112.33 28.09 112.33 29.83 111.83 29.83 111.83 26.19 111.83 26.19"/>
    <path class="st18" d="M114.41,28.75v-1.66h.45v1.64c0,.26.05.45.15.58.1.13.25.19.45.19.24,0,.43-.08.57-.23.14-.15.21-.37.21-.63v-1.55h.45v2.73h-.45v-.42c-.11.17-.24.29-.38.37s-.31.12-.5.12c-.31,0-.55-.1-.72-.29-.16-.2-.24-.48-.24-.86M115.54,27.03h0Z"/>
    <polygon class="st18" points="117.81 26.03 118.26 26.03 118.26 29.83 117.81 29.83 117.81 26.03 117.81 26.03"/>
    <polygon class="st18" points="119.01 26.03 119.46 26.03 119.46 29.83 119.01 29.83 119.01 26.03 119.01 26.03"/>
    <polygon class="st18" points="122.15 26.19 122.65 26.19 122.65 29.83 122.15 29.83 122.15 26.19 122.15 26.19"/>
    <path class="st18" d="M124.09,28.09v1.34h.79c.27,0,.46-.05.59-.16.13-.11.19-.28.19-.51s-.06-.4-.19-.5c-.13-.11-.32-.16-.59-.16h-.79M124.09,26.59v1.1h.73c.24,0,.42-.04.54-.13.12-.09.18-.23.18-.42s-.06-.32-.18-.41c-.12-.09-.3-.14-.54-.14h-.73M123.59,26.19h1.26c.38,0,.67.08.87.23.2.16.31.38.31.67,0,.22-.05.4-.16.53-.1.13-.26.21-.46.25.24.05.43.16.56.33.13.16.2.37.2.62,0,.32-.11.58-.33.75-.22.18-.54.27-.94.27h-1.31v-3.65h0Z"/>
    <path class="st18" d="M130.58,28.47c0-.33-.07-.59-.21-.78-.13-.19-.32-.28-.56-.28s-.42.1-.56.28c-.13.19-.2.45-.2.78s.07.59.2.78c.14.19.32.28.56.28s.42-.09.56-.28c.14-.19.21-.45.21-.78M129.05,27.51c.1-.16.21-.28.36-.36.14-.08.32-.12.52-.12.33,0,.6.13.81.4.21.26.31.61.31,1.04s-.1.78-.31,1.04c-.21.26-.48.4-.81.4-.2,0-.37-.04-.52-.12-.14-.08-.26-.2-.36-.36v.41h-.45v-3.8h.45v1.48h0Z"/>
    <path class="st18" d="M132.79,27.41c-.24,0-.43.1-.57.28-.14.19-.21.44-.21.77s.07.59.21.77c.14.19.33.28.57.28s.43-.1.57-.28c.14-.19.21-.45.21-.77s-.07-.58-.21-.77c-.14-.19-.33-.29-.57-.29M132.79,27.03c.39,0,.7.13.92.38.22.25.33.61.33,1.05s-.11.8-.33,1.05c-.22.25-.53.38-.92.38s-.7-.13-.92-.38c-.22-.26-.33-.61-.33-1.05s.11-.8.33-1.05c.22-.25.53-.38.92-.38h0Z"/>
    <path class="st18" d="M134.81,28.75v-1.66h.45v1.64c0,.26.05.45.15.58.1.13.25.19.45.19.24,0,.43-.08.57-.23.14-.15.21-.37.21-.63v-1.55h.45v2.73h-.45v-.42c-.11.17-.24.29-.38.37-.14.08-.31.12-.5.12-.31,0-.55-.1-.72-.29-.16-.2-.24-.48-.24-.86M135.94,27.03h0Z"/>
    <path class="st18" d="M140.25,28.18v1.65h-.45v-1.64c0-.26-.05-.45-.15-.58-.1-.13-.25-.19-.45-.19-.24,0-.43.08-.57.23s-.21.37-.21.63v1.55h-.45v-2.73h.45v.42c.11-.16.23-.29.38-.37.15-.08.31-.12.51-.12.31,0,.55.1.71.29.16.19.24.48.24.86h0Z"/>
    <path class="st18" d="M142.89,27.51v-1.48h.45v3.8h-.45v-.41c-.1.16-.21.28-.36.36-.14.08-.31.12-.52.12-.33,0-.6-.13-.81-.4s-.31-.61-.31-1.04.1-.78.31-1.04.48-.4.81-.4c.2,0,.37.04.52.12.14.08.26.2.36.36M141.36,28.47c0,.33.07.59.2.78.14.19.32.28.56.28s.42-.09.56-.28c.14-.19.21-.45.21-.78s-.07-.59-.21-.78c-.14-.19-.32-.28-.56-.28s-.42.1-.56.28c-.13.19-.2.45-.2.78h0Z"/>
    <polyline class="st6" points="97.44 35.48 102.44 35.48 107.44 35.48"/>
    <polygon class="st18" points="111.83 33.63 112.33 33.63 112.33 35.12 114.12 35.12 114.12 33.63 114.61 33.63 114.61 37.27 114.12 37.27 114.12 35.54 112.33 35.54 112.33 37.27 111.83 37.27 111.83 33.63 111.83 33.63"/>
    <path class="st18" d="M117.99,35.79v.22h-2.07c.02.31.11.54.28.71.17.16.4.24.7.24.17,0,.34-.02.5-.06.16-.04.32-.1.48-.19v.42c-.16.07-.33.12-.5.16s-.34.05-.52.05c-.44,0-.78-.13-1.04-.38-.25-.25-.38-.6-.38-1.03s.12-.8.36-1.06c.24-.26.57-.4.98-.4.37,0,.66.12.87.36.21.24.32.56.32.96M117.54,35.66c0-.25-.07-.44-.21-.59s-.31-.22-.53-.22c-.25,0-.45.07-.6.21-.15.14-.24.34-.26.6h1.6Z"/>
    <path class="st18" d="M118.73,36.19v-1.66h.45v1.64c0,.26.05.45.15.58.1.13.25.19.45.19.24,0,.43-.08.57-.23.14-.15.21-.37.21-.63v-1.55h.45v2.73h-.45v-.42c-.11.17-.24.29-.38.37-.14.08-.31.12-.5.12-.31,0-.55-.1-.72-.29-.16-.2-.24-.48-.24-.86M119.86,34.47h0Z"/>
    <path class="st18" d="M123.48,34.96c-.05-.03-.1-.05-.17-.06-.06-.01-.12-.02-.2-.02-.25,0-.45.08-.59.25-.13.16-.2.4-.2.71v1.44h-.45v-2.73h.45v.42c.1-.17.22-.29.37-.37.15-.08.33-.12.55-.12.03,0,.07,0,.1,0,.04,0,.08,0,.12.02v.46h0Z"/>
    <path class="st18" d="M124.05,34.54h.45v2.73h-.45v-2.73M124.05,33.47h.45v.57h-.45v-.57h0Z"/>
    <path class="st18" d="M127,34.62v.42c-.13-.07-.26-.11-.4-.15-.14-.03-.28-.05-.42-.05-.22,0-.39.03-.5.1-.11.07-.17.17-.17.31,0,.1.04.19.12.25.08.06.24.11.48.17l.15.03c.32.07.54.17.68.29.13.12.2.3.2.52,0,.25-.1.45-.3.6-.2.15-.48.22-.83.22-.15,0-.3-.01-.46-.04-.16-.03-.32-.07-.5-.13v-.46c.17.09.33.15.49.2.16.04.32.06.48.06.21,0,.37-.04.49-.11.11-.07.17-.18.17-.31,0-.12-.04-.21-.12-.28-.08-.07-.26-.13-.54-.19l-.16-.04c-.28-.06-.48-.15-.6-.27-.12-.12-.19-.29-.19-.5,0-.26.09-.46.27-.6s.44-.21.78-.21c.17,0,.32.01.47.04.15.02.28.06.41.11h0Z"/>
    <path class="st18" d="M128.34,33.76v.78h.93v.35h-.93v1.48c0,.22.03.37.09.43.06.06.19.1.37.1h.46v.38h-.46c-.35,0-.59-.06-.72-.19-.13-.13-.2-.37-.2-.71v-1.48h-.33v-.35h.33v-.78h.45Z"/>
    <path class="st18" d="M129.81,34.54h.45v2.73h-.45v-2.73M129.81,33.47h.45v.57h-.45v-.57h0Z"/>
    <path class="st18" d="M133.22,34.64v.42c-.13-.07-.25-.12-.38-.16-.13-.04-.26-.05-.39-.05-.29,0-.52.09-.68.28-.16.18-.24.44-.24.78s.08.59.24.78c.16.18.39.28.68.28.13,0,.26-.02.39-.05.13-.04.26-.09.38-.16v.42c-.12.06-.26.1-.39.13-.13.03-.28.04-.43.04-.41,0-.74-.13-.98-.39-.24-.26-.36-.61-.36-1.05s.12-.8.37-1.05c.25-.26.58-.38,1.01-.38.14,0,.27.01.41.04.13.03.26.07.38.13h0Z"/>
    <polygon class="st18" points="135.59 33.63 136.09 33.63 136.09 37.27 135.59 37.27 135.59 33.63 135.59 33.63"/>
    <path class="st18" d="M137.53,35.53v1.34h.79c.27,0,.46-.05.59-.16.13-.11.19-.28.19-.51s-.06-.4-.19-.5c-.13-.11-.32-.16-.59-.16h-.79M137.53,34.03v1.1h.73c.24,0,.42-.04.54-.13.12-.09.18-.23.18-.42s-.06-.32-.18-.41c-.12-.09-.3-.14-.54-.14h-.73M137.03,33.63h1.26c.38,0,.67.08.87.23.2.16.31.38.31.67,0,.22-.05.4-.16.53s-.26.21-.46.25c.24.05.43.16.56.33.13.16.2.37.2.62,0,.32-.11.58-.33.75-.22.18-.54.27-.94.27h-1.31v-3.65h0Z"/>
    <path class="st18" d="M144.02,35.91c0-.33-.07-.59-.21-.78-.13-.19-.32-.28-.56-.28s-.42.1-.56.28c-.13.19-.2.45-.2.78s.07.59.2.78c.14.19.32.28.56.28s.42-.09.56-.28c.14-.19.21-.45.21-.78M142.49,34.95c.1-.16.21-.28.36-.36.14-.08.32-.12.52-.12.33,0,.6.13.81.4.21.26.31.61.31,1.04s-.1.78-.31,1.04c-.21.26-.48.4-.81.4-.2,0-.37-.04-.52-.12-.14-.08-.26-.2-.36-.36v.41h-.45v-3.8h.45v1.48h0Z"/>
    <path class="st18" d="M146.47,34.85c-.24,0-.43.1-.57.28-.14.19-.21.44-.21.77s.07.59.21.77c.14.19.33.28.57.28s.43-.1.57-.28c.14-.19.21-.45.21-.77s-.07-.58-.21-.77c-.14-.19-.33-.29-.57-.29M146.47,34.47c.39,0,.7.13.92.38.22.25.33.61.33,1.05s-.11.8-.33,1.05c-.22.25-.53.38-.92.38s-.7-.13-.92-.38c-.22-.26-.33-.61-.33-1.05s.11-.8.33-1.05c.22-.25.53-.38.92-.38h0Z"/>
    <path class="st18" d="M148.25,36.19v-1.66h.45v1.64c0,.26.05.45.15.58.1.13.25.19.45.19.24,0,.43-.08.57-.23.14-.15.21-.37.21-.63v-1.55h.45v2.73h-.45v-.42c-.11.17-.24.29-.38.37-.14.08-.31.12-.5.12-.31,0-.55-.1-.72-.29-.16-.2-.24-.48-.24-.86M149.38,34.47h0Z"/>
    <path class="st18" d="M153.93,35.62v1.65h-.45v-1.64c0-.26-.05-.45-.15-.58-.1-.13-.25-.19-.45-.19-.24,0-.43.08-.57.23s-.21.37-.21.63v1.55h-.45v-2.73h.45v.42c.11-.16.23-.29.38-.37.15-.08.31-.12.51-.12.31,0,.55.1.71.29.16.19.24.48.24.86h0Z"/>
    <path class="st18" d="M156.57,34.95v-1.48h.45v3.8h-.45v-.41c-.1.16-.21.28-.36.36-.14.08-.31.12-.52.12-.33,0-.6-.13-.81-.4-.21-.26-.31-.61-.31-1.04s.1-.78.31-1.04c.21-.26.48-.4.81-.4.2,0,.37.04.52.12.14.08.26.2.36.36M155.04,35.91c0,.33.07.59.2.78.14.19.32.28.56.28s.42-.09.56-.28c.14-.19.21-.45.21-.78s-.07-.59-.21-.78c-.14-.19-.32-.28-.56-.28s-.42.1-.56.28c-.13.19-.2.45-.2.78h0Z"/>
    <rect class="st5" x="269.32" y="21.59" width="26.13" height="97.02"/>
  </g>
  <text class="st2" transform="translate(141.36 136.79)"><tspan x="0" y="0">Information Capacity (bits)</tspan></text>
  <text class="st2" transform="translate(8.34 105.79) rotate(-90)"><tspan x="0" y="0">Inference Predictiveness (bits)</tspan></text>
  <text class="st1" transform="translate(78.8 7.48)"><tspan x="0" y="0">IB framework reveals structure in variability (schematic)</tspan></text>
  <text class="st2" transform="translate(24.5 6.71)"><tspan x="0" y="0">Variability in </tspan><tspan x="-.67" y="7.2">performance</tspan></text>
  <g>
    <path class="st11" d="M195.49,30.03l-46.65,28.7,2.02,3.28s-9.52-2.05-10.75-2.31l.03-.13,2.82-10.77,2.02,3.28,46.65-28.7,3.87,6.66Z"/>
    <text class="st0" transform="translate(161.72 48.96) rotate(-31.61)"><tspan x="0" y="0">Noise</tspan></text>
  </g>
  <g>
    <path class="st12" d="M246.93,37.66v44.25s3.85,0,3.85,0c0,0-6.73,5.69-7.6,6.42l-.09-.08-7.7-6.5h3.85s0-44.25,0-44.25l7.7.16Z"/>
    <text class="st0" transform="translate(245.62 65.61) rotate(-90)"><tspan x="0" y="0">Bias</tspan></text>
  </g>
  <text class="st3" transform="translate(59.46 60.24)"><tspan x="0" y="0">Plot versus </tspan><tspan x="0" y="6">information </tspan><tspan x="3.19" y="12">capacity</tspan></text>
  <g>
    <line class="st7" x1="58.22" y1="79.97" x2="82.51" y2="79.97"/>
    <polygon class="st13" points="81.16 84.56 89.11 79.97 81.16 75.38 81.16 84.56"/>
  </g>
  <circle class="st14" cx="129.63" cy="85.76" r="2.8"/>
  <circle class="st14" cx="126.17" cy="90.57" r="2.8"/>
  <circle class="st14" cx="142.56" cy="78.09" r="2.8"/>
  <circle class="st14" cx="145.36" cy="70.49" r="2.8"/>
  <circle class="st14" cx="152" cy="73.29" r="2.8"/>
  <circle class="st14" cx="167.8" cy="65.1" r="2.8"/>
  <circle class="st14" cx="174.49" cy="53.98" r="2.8"/>
  <circle class="st14" cx="192.69" cy="51.18" r="2.8"/>
  <circle class="st14" cx="195.49" cy="42.69" r="2.8"/>
  <circle class="st14" cx="188.07" cy="53.98" r="2.8"/>
  <circle class="st14" cx="202.9" cy="44.27" r="2.8"/>
  <circle class="st14" cx="211.81" cy="37.5" r="2.8"/>
  <circle class="st14" cx="214.61" cy="34.94" r="2.8"/>
  <circle class="st14" cx="222.36" cy="37.74" r="2.8"/>
  <circle class="st14" cx="225.16" cy="30.82" r="2.8"/>
  <circle class="st17" cx="128.97" cy="96.17" r="2.8"/>
  <circle class="st17" cx="142.56" cy="94.95" r="2.8"/>
  <circle class="st17" cx="148.15" cy="87.29" r="2.8"/>
  <circle class="st17" cx="159.04" cy="79.12" r="2.8"/>
  <circle class="st17" cx="167.8" cy="75.29" r="2.8"/>
  <circle class="st17" cx="180.3" cy="78.09" r="2.8"/>
  <circle class="st17" cx="189.9" cy="72.49" r="2.8"/>
  <circle class="st17" cx="205.7" cy="62.01" r="2.8"/>
  <circle class="st17" cx="201.83" cy="66.49" r="2.8"/>
  <circle class="st17" cx="217.67" cy="63.69" r="2.8"/>
  <circle class="st17" cx="213.94" cy="58.09" r="2.8"/>
  <circle class="st17" cx="228.53" cy="60.89" r="2.8"/>
  <circle class="st16" cx="157.6" cy="100.4" r="2.8"/>
  <circle class="st16" cx="187.1" cy="91.01" r="2.8"/>
  <circle class="st16" cx="200.1" cy="96.17" r="2.8"/>
  <circle class="st16" cx="181.8" cy="62.91" r="2.8"/>
  <circle class="st16" cx="218.72" cy="48.64" r="2.8"/>
  <circle class="st15" cx="41.16" cy="30.82" r="2.8"/>
  <circle class="st15" cx="45.36" cy="37.74" r="2.8"/>
  <circle class="st15" cx="34.61" cy="34.94" r="2.8"/>
  <circle class="st15" cx="39.81" cy="37.5" r="2.8"/>
  <circle class="st15" cx="42.9" cy="44.27" r="2.8"/>
  <circle class="st15" cx="36.49" cy="42.69" r="2.8"/>
  <circle class="st15" cx="33.69" cy="51.44" r="2.8"/>
  <circle class="st15" cx="40.07" cy="53.98" r="2.8"/>
  <circle class="st15" cx="46.49" cy="53.98" r="2.8"/>
  <circle class="st15" cx="33.8" cy="65.27" r="2.8"/>
  <circle class="st15" cx="43" cy="73.26" r="2.8"/>
  <circle class="st15" cx="38.36" cy="70.49" r="2.8"/>
  <circle class="st15" cx="34.56" cy="78.09" r="2.8"/>
  <circle class="st15" cx="41.63" cy="85.76" r="2.8"/>
  <circle class="st15" cx="38.17" cy="90.57" r="2.8"/>
  <circle class="st15" cx="32.53" cy="60.89" r="2.8"/>
  <circle class="st15" cx="49.67" cy="63.69" r="2.8"/>
  <circle class="st15" cx="36.94" cy="58.09" r="2.8"/>
  <circle class="st15" cx="44.7" cy="62.3" r="2.8"/>
  <circle class="st15" cx="42.83" cy="66.49" r="2.8"/>
  <circle class="st15" cx="32.9" cy="72.49" r="2.8"/>
  <circle class="st15" cx="40.3" cy="78.09" r="2.8"/>
  <circle class="st15" cx="48.8" cy="75.29" r="2.8"/>
  <circle class="st15" cx="45.04" cy="79.33" r="2.8"/>
  <circle class="st15" cx="33.15" cy="87.29" r="2.8"/>
  <circle class="st15" cx="47.56" cy="94.95" r="2.8"/>
  <circle class="st15" cx="40.97" cy="96.17" r="2.8"/>
  <circle class="st15" cx="38.72" cy="48.64" r="2.8"/>
  <circle class="st15" cx="38.8" cy="62.91" r="2.8"/>
  <circle class="st15" cx="33.1" cy="96.17" r="2.8"/>
  <circle class="st15" cx="44.1" cy="91.01" r="2.8"/>
  <circle class="st15" cx="37.6" cy="100.4" r="2.8"/>
  <circle class="st16" cx="102.29" cy="43.85" r="2.8"/>
  <text class="st4" transform="translate(111.5 45.49)"><tspan x="0" y="0">Neither</tspan></text>
</svg>