<?xml version="1.0" encoding="utf-8"?>
<!-- Generator: Adobe Illustrator 26.0.3, SVG Export Plug-In . SVG Version: 6.00 Build 0)  -->
<svg version="1.1" id="Layer_1" xmlns="http://www.w3.org/2000/svg" xmlns:xlink="http://www.w3.org/1999/xlink" x="0px" y="0px"
	 viewBox="0 0 3456 2592" style="enable-background:new 0 0 3456 2592;" xml:space="preserve">
<style type="text/css">
	.st0{fill:none;}
	.st1{font-family:'ArialMT';}
	.st2{font-size:30px;}
	.st3{font-family:'Arial-BoldMT';}
	.st4{font-family:'CMUSerif-Roman';}
	.st5{font-size:36px;}
	.st6{font-family:'CMUSerif-BoldItalic';}
	.st7{clip-path:url(#SVGID_00000106863875340714363480000014762816839673487539_);}
	.st8{clip-path:url(#SVGID_00000006684829483283588760000004732985403060673970_);}
	.st9{clip-path:url(#SVGID_00000059276997460546547490000001914578243854448292_);}
	.st10{clip-path:url(#SVGID_00000173842581872962306210000017506200990466376611_);}
	.st11{clip-path:url(#SVGID_00000079456815313617667050000010851707936195549334_);}
	.st12{clip-path:url(#SVGID_00000085967011711238955000000009763162702702675639_);}
	.st13{clip-path:url(#SVGID_00000072992345256408966050000005330807593405702057_);}
	.st14{clip-path:url(#SVGID_00000080199233412341968100000001177264454808756616_);}
	.st15{fill:none;stroke:#000000;stroke-width:3;stroke-miterlimit:8;}
	.st16{clip-path:url(#SVGID_00000135655619120454937950000007954779129570220962_);}
	.st17{clip-path:url(#SVGID_00000101789868603284783090000002181511252598631607_);}
	.st18{fill:none;stroke:#000000;stroke-width:2;stroke-miterlimit:10;}
	.st19{fill:#FFFFFF;stroke:#FFFFFF;stroke-width:2;stroke-miterlimit:10;}
	.st20{stroke:#FFFFFF;stroke-width:5;stroke-miterlimit:10;}
	.st21{fill:#BCBEC0;}
	.st22{fill:#808285;stroke:#000000;stroke-width:5;stroke-miterlimit:10;}
	.st23{fill:#FFFFFF;stroke:#000000;stroke-width:5;stroke-miterlimit:10;}
	.st24{fill:#DA1C5C;}
	.st25{font-family:'CMUSerif-Bold';}
	.st26{fill:#00AEEF;}
	.st27{font-family:'ArialNarrow-Bold';}
	.st28{font-family:'LMRoman10-Regular';}
	.st29{font-family:'LMRoman10-Italic';}
	.st30{font-size:24px;}
	.st31{font-family:'Cambria-Italic';}
</style>
<rect x="822.8" y="590.1" class="st0" width="274.6" height="38.5"/>
<text transform="matrix(1 0 0 1 837.9928 621.8391)"><tspan x="0" y="0" class="st1 st2">Observations</tspan><tspan x="176.7" y="0" class="st3 st2"> </tspan><tspan x="185.1" y="0" class="st4 st5">(</tspan><tspan x="199" y="0" class="st6 st5">X</tspan><tspan x="230.2" y="0" class="st4 st5">)</tspan></text>
<rect x="1247.7" y="590.1" class="st0" width="261.6" height="38.5"/>
<text transform="matrix(1 0 0 1 1282.4303 621.8391)"><tspan x="0" y="0" class="st1 st2">Inference</tspan><tspan x="125.1" y="0" class="st3 st2"> </tspan><tspan x="133.4" y="0" class="st4 st5">(</tspan><tspan x="147.4" y="0" class="st6 st5">R</tspan><tspan x="178.3" y="0" class="st4 st5">)</tspan></text>
<rect x="1546.1" y="590.1" class="st0" width="261.6" height="38.5"/>
<text transform="matrix(1 0 0 1 1562.3301 621.8391)"><tspan x="0" y="0" class="st1 st2">Latent State</tspan><tspan x="161.8" y="0" class="st3 st2"> </tspan><tspan x="170.1" y="0" class="st4 st5">(</tspan><tspan x="184.1" y="0" class="st6 st5">Y</tspan><tspan x="215.2" y="0" class="st4 st5">)</tspan></text>
<g>
	<defs>
		<path id="SVGID_1_" d="M925.4,694.3c1.6-1.7,7.6-1.9,12-1.9c9,0,23.1-0.1,32,0c5.7,0.2,10.6,0.1,11.3,6.1c0.3,1.9,0.3,4.3,0.3,6.5
			c-0.2,15,0.5,37.9-0.3,52.8c-0.8,5.3-3.4,5.9-10,6.2c-6.4,0.2-15.7,0.1-22.9,0.1c-7-0.2-13.8,0.6-20.5-0.9
			c-4.1-0.9-4.2-6.4-4.3-11.2c0-5.3,0-10.6,0-16.1c0-7.6,0-16.4,0-23.8C923.3,707.1,922.1,697,925.4,694.3L925.4,694.3z"/>
	</defs>
	<clipPath id="SVGID_00000056407895263245240090000007194587109737011364_">
		<use xlink:href="#SVGID_1_"  style="overflow:visible;"/>
	</clipPath>
	<g style="clip-path:url(#SVGID_00000056407895263245240090000007194587109737011364_);">
		<defs>
			<path id="SVGID_00000052810584499238361720000003337095849262487972_" d="M925.3,762.6c1.6,1.7,7.6,1.9,12,1.9
				c9,0,23.3,0.1,32.2,0c5.8-0.2,10.8-0.1,11.4-6.2c0.8-14.9,0.1-37.9,0.3-52.9c0-2.2-0.1-4.6-0.3-6.6c-0.8-5.3-3.4-5.9-10.1-6.2
				c-6.5-0.1-15.9-0.1-23.1-0.1c-7,0.2-13.8-0.6-20.4,0.9c-4.1,0.9-4.2,6.4-4.2,11.2c0,5.3,0,10.6,0,16.1c0,7.7,0,16.6,0,24.1
				C923.3,749.7,922.1,759.8,925.3,762.6L925.3,762.6z"/>
		</defs>
		<clipPath id="SVGID_00000163058648189870038190000014803872988130514341_">
			<use xlink:href="#SVGID_00000052810584499238361720000003337095849262487972_"  style="overflow:visible;"/>
		</clipPath>
		<g style="clip-path:url(#SVGID_00000163058648189870038190000014803872988130514341_);">
			<defs>
				<path id="SVGID_00000070101000257660129540000013034313090717398459_" d="M925.4,762.3c1.6,1.7,7.6,1.9,12,1.9
					c9,0,23.1,0.1,32,0c5.7-0.2,10.6-0.1,11.3-6.1c0.3-1.9,0.3-4.3,0.3-6.5c-0.2-15,0.5-37.9-0.3-52.8c-0.8-5.3-3.4-5.9-10-6.2
					c-6.4-0.2-15.7-0.1-22.9-0.1c-7,0.2-13.8-0.6-20.5,0.9c-4.1,0.9-4.2,6.4-4.3,11.2c0,5.3,0,10.6,0,16.1c0,7.6,0,16.4,0,23.8
					C923.3,749.5,922.1,759.6,925.4,762.3L925.4,762.3z"/>
			</defs>
			<clipPath id="SVGID_00000038392020579579609980000016421813351251511457_">
				<use xlink:href="#SVGID_00000070101000257660129540000013034313090717398459_"  style="overflow:visible;"/>
			</clipPath>
			<g transform="matrix(1 0 0 1 0 0)" style="clip-path:url(#SVGID_00000038392020579579609980000016421813351251511457_);">
				
					<image style="overflow:visible;" width="244" height="302" xlink:href="10393939.png"  transform="matrix(0.2375 0 0 0.2377 923.0613 692.3963)">
				</image>
			</g>
			
				<use xlink:href="#SVGID_00000070101000257660129540000013034313090717398459_"  style="overflow:visible;fill:none;stroke:#000000;stroke-miterlimit:10;"/>
		</g>
		
			<use xlink:href="#SVGID_00000052810584499238361720000003337095849262487972_"  style="overflow:visible;fill:none;stroke:#000000;stroke-miterlimit:10;"/>
	</g>
	<use xlink:href="#SVGID_1_"  style="overflow:visible;fill:none;stroke:#000000;stroke-miterlimit:10;"/>
</g>
<g>
	<defs>
		<path id="SVGID_00000105415191019204873470000000631719606745467318_" d="M861.2,746.3c1.6-1.7,7.5-1.9,11.9-1.9
			c9,0,23.1-0.1,32,0c5.7,0.2,10.8,0.1,11.4,6.2c0.3,1.9,0.3,4.3,0.3,6.5c-0.2,14.9,0.5,37.7-0.3,52.5c-0.8,5.3-3.4,5.9-10,6.2
			c-6.4,0.2-15.7,0.1-22.9,0.1c-7-0.2-13.8,0.6-20.4-0.8c-4.2-1-4.3-6.3-4.3-11.1c0-5.3,0-10.6,0-16.1c0-7.6,0-16.4,0-23.8
			C859.1,759,857.9,749,861.2,746.3L861.2,746.3z"/>
	</defs>
	<clipPath id="SVGID_00000000941928731053382760000006780621775072658320_">
		<use xlink:href="#SVGID_00000105415191019204873470000000631719606745467318_"  style="overflow:visible;"/>
	</clipPath>
	<g style="clip-path:url(#SVGID_00000000941928731053382760000006780621775072658320_);">
		<defs>
			<path id="SVGID_00000145771307779785235710000014381026952135059086_" d="M861.2,814.3c1.6,1.7,7.6,1.9,12,1.9
				c9,0,23.1,0.1,32.1,0c5.8-0.2,10.9,0,11.5-6.1c0.3-1.9,0.3-4.3,0.3-6.5c-0.2-15,0.5-37.9-0.3-52.8c-0.8-5.3-3.4-5.9-10.1-6.2
				c-6.5-0.1-15.9-0.1-23.1-0.1c-7,0.2-13.8-0.6-20.4,0.9c-4.1,0.9-4.2,6.4-4.2,11.2c0,5.3,0,10.6,0,16.1c0,7.6,0,16.4,0,23.8
				C859.1,801.5,857.9,811.6,861.2,814.3L861.2,814.3z"/>
		</defs>
		<clipPath id="SVGID_00000176016585377724920780000015516333278502847395_">
			<use xlink:href="#SVGID_00000145771307779785235710000014381026952135059086_"  style="overflow:visible;"/>
		</clipPath>
		<g style="clip-path:url(#SVGID_00000176016585377724920780000015516333278502847395_);">
			<defs>
				<path id="SVGID_00000173875698854461318060000003995328246420725381_" d="M861.2,814c1.6,1.7,7.5,1.9,11.9,1.9
					c9,0,23.1,0.1,32,0c5.7-0.2,10.8-0.1,11.4-6.2c0.3-1.9,0.3-4.3,0.3-6.5c-0.2-14.9,0.5-37.7-0.3-52.5c-0.8-5.3-3.4-5.9-10-6.2
					c-6.4-0.2-15.7-0.1-22.9-0.1c-7,0.2-13.8-0.6-20.4,0.8c-4.2,1-4.3,6.3-4.3,11.1c0,5.3,0,10.6,0,16.1c0,7.6,0,16.4,0,23.8
					C859.1,801.3,857.9,811.3,861.2,814L861.2,814z"/>
			</defs>
			<clipPath id="SVGID_00000156556068761234901370000003593992415381089929_">
				<use xlink:href="#SVGID_00000173875698854461318060000003995328246420725381_"  style="overflow:visible;"/>
			</clipPath>
			<g style="clip-path:url(#SVGID_00000156556068761234901370000003593992415381089929_);">
				
					<image style="overflow:visible;" width="244" height="302" xlink:href="1039393B.png"  transform="matrix(0.2375 0 0 0.2368 858.871 744.3987)">
				</image>
			</g>
			
				<use xlink:href="#SVGID_00000173875698854461318060000003995328246420725381_"  style="overflow:visible;fill:none;stroke:#000000;stroke-miterlimit:10;"/>
		</g>
		
			<use xlink:href="#SVGID_00000145771307779785235710000014381026952135059086_"  style="overflow:visible;fill:none;stroke:#000000;stroke-miterlimit:10;"/>
	</g>
	
		<use xlink:href="#SVGID_00000105415191019204873470000000631719606745467318_"  style="overflow:visible;fill:none;stroke:#000000;stroke-miterlimit:10;"/>
</g>
<g>
	<defs>
		<path id="SVGID_00000012463298046986478520000016860081101260775100_" d="M892.3,824.3c1.6-1.7,7.5-1.9,11.9-1.9
			c9,0,23.1-0.1,32,0c5.7,0.2,10.8,0.1,11.4,6.2c0.3,1.9,0.3,4.3,0.3,6.5c-0.2,14.9,0.5,37.7-0.3,52.5c-0.8,5.3-3.4,5.9-10,6.2
			c-6.4,0.2-15.7,0.1-22.9,0.1c-7-0.2-13.8,0.6-20.4-0.8c-4.2-1-4.3-6.3-4.3-11.1c0-5.3,0-10.6,0-16.1c0-7.6,0-16.4,0-23.8
			C890.3,837,889.1,827,892.3,824.3L892.3,824.3z"/>
	</defs>
	<clipPath id="SVGID_00000022525769702787116300000004204718348154361485_">
		<use xlink:href="#SVGID_00000012463298046986478520000016860081101260775100_"  style="overflow:visible;"/>
	</clipPath>
	<g style="clip-path:url(#SVGID_00000022525769702787116300000004204718348154361485_);">
		<defs>
			<path id="SVGID_00000021089832614669542900000016853852002925626251_" d="M892.3,892.3c1.6,1.7,7.6,1.9,12,1.9
				c9,0,23.1,0.1,32.1,0c5.8-0.2,10.9,0,11.5-6.1c0.3-1.9,0.3-4.3,0.3-6.5c-0.2-15,0.5-37.9-0.3-52.8c-0.8-5.3-3.4-5.9-10.1-6.2
				c-6.5-0.1-15.9-0.1-23.1-0.1c-7,0.2-13.8-0.6-20.4,0.9c-4.1,0.9-4.2,6.4-4.2,11.2c0,5.3,0,10.6,0,16.1c0,7.6,0,16.4,0,23.8
				C890.3,879.5,889,889.6,892.3,892.3L892.3,892.3z"/>
		</defs>
		<clipPath id="SVGID_00000039113925121290090870000000099015565354219693_">
			<use xlink:href="#SVGID_00000021089832614669542900000016853852002925626251_"  style="overflow:visible;"/>
		</clipPath>
		<g style="clip-path:url(#SVGID_00000039113925121290090870000000099015565354219693_);">
			<defs>
				<path id="SVGID_00000181770624805628310790000007693886144957700753_" d="M892.3,892c1.6,1.7,7.5,1.9,11.9,1.9
					c9,0,23.1,0.1,32,0c5.7-0.2,10.8-0.1,11.4-6.2c0.3-1.9,0.3-4.3,0.3-6.5c-0.2-14.9,0.5-37.7-0.3-52.5c-0.8-5.3-3.4-5.9-10-6.2
					c-6.4-0.2-15.7-0.1-22.9-0.1c-7,0.2-13.8-0.6-20.4,0.8c-4.2,1-4.3,6.3-4.3,11.1c0,5.3,0,10.6,0,16.1c0,7.6,0,16.4,0,23.8
					C890.3,879.3,889.1,889.4,892.3,892L892.3,892z"/>
			</defs>
			<clipPath id="SVGID_00000086692905437456903030000010049484792208139938_">
				<use xlink:href="#SVGID_00000181770624805628310790000007693886144957700753_"  style="overflow:visible;"/>
			</clipPath>
			<g style="clip-path:url(#SVGID_00000086692905437456903030000010049484792208139938_);">
				
					<image style="overflow:visible;" width="244" height="302" xlink:href="1039393E.png"  transform="matrix(0.2375 0 0 0.2368 890.0182 822.4022)">
				</image>
			</g>
			
				<use xlink:href="#SVGID_00000181770624805628310790000007693886144957700753_"  style="overflow:visible;fill:none;stroke:#000000;stroke-miterlimit:10;"/>
		</g>
		
			<use xlink:href="#SVGID_00000021089832614669542900000016853852002925626251_"  style="overflow:visible;fill:none;stroke:#000000;stroke-miterlimit:10;"/>
	</g>
	
		<use xlink:href="#SVGID_00000012463298046986478520000016860081101260775100_"  style="overflow:visible;fill:none;stroke:#000000;stroke-miterlimit:10;"/>
</g>
<g>
	<defs>
		<path id="SVGID_00000021837606538725022200000015760372220488564123_" d="M988.9,745.8c1.5-1.2,4.5-1.3,9.5-1.3
			c6.2,0,12.8,0,20.2,0c5.9,0,11.6,0,15.9,0c3.2,0,5.6,0.1,7.2,0.5c4.4,1.1,3.2,6.3,3.5,9.9c-0.2,15.3,0.4,41.2-0.2,56.2
			c-0.7,4.9-3.2,4.5-9.7,4.8c-6.7,0-16.5,0-24,0c-6.8-0.1-13.4,0.4-19.9-0.4c-3.5-0.6-4.1-2.5-4.2-7.3c-0.1-3.9,0-7.6,0-11.7
			c0-11.8,0-24.9,0-36.6C987.4,755.7,986.7,747.2,988.9,745.8L988.9,745.8z"/>
	</defs>
	<clipPath id="SVGID_00000054265381013109710480000016033888660689408944_">
		<use xlink:href="#SVGID_00000021837606538725022200000015760372220488564123_"  style="overflow:visible;"/>
	</clipPath>
	<g style="clip-path:url(#SVGID_00000054265381013109710480000016033888660689408944_);">
		<defs>
			<path id="SVGID_00000129900932982415516650000010719560322658631348_" d="M988.9,814.8c1.5,1.2,4.5,1.3,9.5,1.3
				c6.3,0,12.9,0,20.4,0c6,0,11.8,0,16.1,0c3.2,0,5.6-0.1,7.2-0.5c4.4-1.1,3.2-6.3,3.5-9.9c-0.2-15.3,0.4-41.5-0.2-56.6
				c-0.7-4.9-3.1-4.5-9.6-4.8c-6.7,0-16.5,0-23.9,0c-6.8,0.1-13.4-0.3-20,0.3c-3.3,0.5-4.1,2-4.4,5.8c-0.2,4.5-0.1,8.9-0.1,13.5
				c0,11.9,0,25,0,36.8C987.4,804.9,986.7,813.4,988.9,814.8L988.9,814.8z"/>
		</defs>
		<clipPath id="SVGID_00000127028338004798143820000008023104336902956972_">
			<use xlink:href="#SVGID_00000129900932982415516650000010719560322658631348_"  style="overflow:visible;"/>
		</clipPath>
		<g style="clip-path:url(#SVGID_00000127028338004798143820000008023104336902956972_);">
			<defs>
				<path id="SVGID_00000015325694213073187090000012133491171362548901_" d="M988.9,814.5c1.5,1.2,4.5,1.3,9.5,1.3
					c6.2,0,12.8,0,20.2,0c5.9,0,11.6,0,15.9,0c3.2,0,5.6-0.1,7.2-0.5c4.4-1.1,3.2-6.3,3.5-9.9c-0.2-15.3,0.4-41.2-0.2-56.2
					c-0.7-4.9-3.2-4.5-9.7-4.8c-6.7,0-16.5,0-24,0c-6.8,0.1-13.4-0.4-19.9,0.4c-3.5,0.6-4.1,2.5-4.2,7.3c-0.1,3.9,0,7.6,0,11.7
					c0,11.8,0,24.9,0,36.6C987.4,804.6,986.7,813.1,988.9,814.5L988.9,814.5z"/>
			</defs>
			<clipPath id="SVGID_00000162345120619436416490000000816367762278095781_">
				<use xlink:href="#SVGID_00000015325694213073187090000012133491171362548901_"  style="overflow:visible;"/>
			</clipPath>
			
				<g transform="matrix(1 0 0 1 -6.103516e-05 0)" style="clip-path:url(#SVGID_00000162345120619436416490000000816367762278095781_);">
				
					<image style="overflow:visible;" width="244" height="302" xlink:href="1039393F.png"  transform="matrix(0.2375 0 0 0.2368 987.2517 744.3987)">
				</image>
			</g>
			
				<use xlink:href="#SVGID_00000015325694213073187090000012133491171362548901_"  style="overflow:visible;fill:none;stroke:#000000;stroke-miterlimit:10;"/>
		</g>
		
			<use xlink:href="#SVGID_00000129900932982415516650000010719560322658631348_"  style="overflow:visible;fill:none;stroke:#000000;stroke-miterlimit:10;"/>
	</g>
	
		<use xlink:href="#SVGID_00000021837606538725022200000015760372220488564123_"  style="overflow:visible;fill:none;stroke:#000000;stroke-miterlimit:10;"/>
</g>
<image style="overflow:visible;" width="2048" height="2048" xlink:href="../../../../Dropbox/HMM_Beads/Figures/weather_prediction/figure2_Folder/Links/purple.png"  transform="matrix(0.1028 -8.397226e-04 8.102279e-04 9.919675e-02 1388.3984 630.3395)">
</image>
<image style="overflow:visible;" width="2048" height="2048" xlink:href="../../../../Dropbox/HMM_Beads/Figures/weather_prediction/figure2_Folder/Links/green.png"  transform="matrix(0.1036 0 0 0.1036 1395.4061 773.9098)">
</image>
<image style="overflow:visible;" width="71" height="71" xlink:href="../../../../Dropbox/HMM_Beads/Figures/weather_prediction/figure2_Folder/Links/Asset 1.png"  transform="matrix(0.8388 0 0 0.8388 1365.6273 845.8425)">
</image>
<image style="overflow:visible;" width="2048" height="2048" xlink:href="../../../../Dropbox/HMM_Beads/Figures/weather_prediction/figure2_Folder/Links/green.png"  transform="matrix(0.1036 0 0 0.1036 1570.8112 691.6478)">
</image>
<image style="overflow:visible;" width="600" height="600" xlink:href="../../../../Dropbox/HMM_Beads/Figures/weather_prediction/figure2_Folder/Links/medal.png"  transform="matrix(0.1166 0 0 0.1146 1709.0529 702.9519)">
</image>
<path class="st15" d="M953.6,590.1c0-10.5,1.2-18.9,2.7-18.9H1360c1.5,0,2.7,8.5,2.7,18.9"/>
<path class="st15" d="M1380.6,590.1c0-10.5,0.8-18.9,1.9-18.9h285.9c1,0,1.9,8.5,1.9,18.9"/>
<rect x="1035.6" y="485.3" class="st0" width="261.6" height="74"/>
<text transform="matrix(1 0 0 1 1083.9004 515.0308)"><tspan x="0" y="0" class="st3 st2">Information </tspan><tspan x="20" y="36" class="st3 st2">Capacity </tspan></text>
<g>
	<defs>
		<path id="SVGID_00000124147183161702751450000010981066884300168374_" d="M958.4,824.1c1.6-1.7,7.5-1.9,11.9-1.9
			c9,0,23.1-0.1,32,0c5.7,0.2,10.8,0.1,11.4,6.2c0.3,1.9,0.3,4.3,0.3,6.5c-0.2,14.9,0.5,37.7-0.3,52.5c-0.8,5.3-3.4,5.9-10,6.2
			c-6.4,0.2-15.7,0.1-22.9,0.1c-7-0.2-13.8,0.6-20.4-0.8c-4.2-1-4.3-6.3-4.3-11.1c0-5.3,0-10.6,0-16.1c0-7.6,0-16.4,0-23.8
			C956.3,836.9,955.2,826.8,958.4,824.1L958.4,824.1z"/>
	</defs>
	<clipPath id="SVGID_00000078005358818704136950000000957797000645896112_">
		<use xlink:href="#SVGID_00000124147183161702751450000010981066884300168374_"  style="overflow:visible;"/>
	</clipPath>
	<g style="clip-path:url(#SVGID_00000078005358818704136950000000957797000645896112_);">
		<defs>
			<path id="SVGID_00000171693556092535693330000017492949879752770729_" d="M958.4,892.2c1.6,1.7,7.6,1.9,12,1.9
				c9,0,23.1,0.1,32.1,0c5.8-0.2,10.9,0,11.5-6.1c0.3-1.9,0.3-4.3,0.3-6.5c-0.2-15,0.5-37.9-0.3-52.8c-0.8-5.3-3.4-5.9-10.1-6.2
				c-6.5-0.1-15.9-0.1-23.1-0.1c-7,0.2-13.8-0.6-20.4,0.9c-4.1,0.9-4.2,6.4-4.2,11.2c0,5.3,0,10.6,0,16.1c0,7.6,0,16.4,0,23.8
				C956.4,879.3,955.1,889.4,958.4,892.2L958.4,892.2z"/>
		</defs>
		<clipPath id="SVGID_00000132059377992905474310000002923489757654859947_">
			<use xlink:href="#SVGID_00000171693556092535693330000017492949879752770729_"  style="overflow:visible;"/>
		</clipPath>
		<g style="clip-path:url(#SVGID_00000132059377992905474310000002923489757654859947_);">
			<defs>
				<path id="SVGID_00000178180531890644676200000002864244255736405137_" d="M958.4,891.9c1.6,1.7,7.5,1.9,11.9,1.9
					c9,0,23.1,0.1,32,0c5.7-0.2,10.8-0.1,11.4-6.2c0.3-1.9,0.3-4.3,0.3-6.5c-0.2-14.9,0.5-37.7-0.3-52.5c-0.8-5.3-3.4-5.9-10-6.2
					c-6.4-0.2-15.7-0.1-22.9-0.1c-7,0.2-13.8-0.6-20.4,0.8c-4.2,1-4.3,6.3-4.3,11.1c0,5.3,0,10.6,0,16.1c0,7.6,0,16.4,0,23.8
					C956.3,879.2,955.2,889.2,958.4,891.9L958.4,891.9z"/>
			</defs>
			<clipPath id="SVGID_00000034789696189784329170000016974121065291487381_">
				<use xlink:href="#SVGID_00000178180531890644676200000002864244255736405137_"  style="overflow:visible;"/>
			</clipPath>
			<g style="clip-path:url(#SVGID_00000034789696189784329170000016974121065291487381_);">
				
					<image style="overflow:visible;" width="244" height="302" xlink:href="58454542.png"  transform="matrix(0.2375 0 0 0.2368 956.1032 822.2674)">
				</image>
			</g>
			
				<use xlink:href="#SVGID_00000178180531890644676200000002864244255736405137_"  style="overflow:visible;fill:none;stroke:#000000;stroke-miterlimit:10;"/>
		</g>
		
			<use xlink:href="#SVGID_00000171693556092535693330000017492949879752770729_"  style="overflow:visible;fill:none;stroke:#000000;stroke-miterlimit:10;"/>
	</g>
	
		<use xlink:href="#SVGID_00000124147183161702751450000010981066884300168374_"  style="overflow:visible;fill:none;stroke:#000000;stroke-miterlimit:10;"/>
</g>
<path class="st18" d="M1137.9,700.4"/>
<path class="st19" d="M1094.4,659"/>
<path class="st20" d="M1085.7,653"/>
<polygon class="st21" points="1125.4,661 1062.5,661 1062.5,927.5 1125.4,927.5 1160.9,837.4 1223.8,837.4 1223.8,751 1160.9,751 
	"/>
<rect x="1394.6" y="489.2" class="st0" width="261.6" height="66.1"/>
<text transform="matrix(1 0 0 1 1458.75 515.0306)"><tspan x="0" y="0" class="st3 st2">Inference </tspan><tspan x="-39.2" y="36" class="st3 st2">Predictiveness</tspan></text>
<polyline class="st0" points="1062.5,661 1106.8,661 1131.9,751 1176.2,751 1176.2,837.4 1131.9,837.4 1106.8,927.5 1062.5,927.5 
	"/>
<path class="st22" d="M1344.1,799.1c-0.1-21.7-18.6-38.7-39-37.4c-19.1,1.2-34.7,18-34.3,38.3l0,60.9h73.3V799.1z"/>
<ellipse transform="matrix(0.9239 -0.3827 0.3827 0.9239 -190.7828 558.0628)" class="st23" cx="1307.4" cy="758.6" rx="33" ry="33"/>
<polyline class="st21" points="1174.2,751.2 1217.7,751.2 1216.1,751.2 1216.1,721.6 1253.8,797 1216.1,866.7 1216.1,837.1 
	1217.7,837.1 1174.2,837.1 "/>
<rect x="1035.6" y="437.4" class="st0" width="261.6" height="47.3"/>
<text transform="matrix(1 0 0 1 1105.0542 473.5823)"><tspan x="0" y="0" class="st24 st6 st5">I</tspan><tspan x="17" y="0" class="st24 st25 st5">(</tspan><tspan x="33.1" y="0" class="st24 st6 st5">X</tspan><tspan x="64.2" y="0" class="st24 st25 st5">;</tspan><tspan x="75.7" y="0" class="st24 st6 st5">R</tspan><tspan x="106.6" y="0" class="st24 st25 st5">)</tspan></text>
<rect x="1394.6" y="405.4" class="st0" width="261.6" height="111.3"/>
<text transform="matrix(1 0 0 1 1464.1055 473.5824)"><tspan x="0" y="0" class="st26 st6 st5">I</tspan><tspan x="17" y="0" class="st26 st25 st5">(</tspan><tspan x="33.1" y="0" class="st26 st6 st5">R</tspan><tspan x="64" y="0" class="st26 st25 st5">;</tspan><tspan x="75.5" y="0" class="st26 st6 st5">Y</tspan><tspan x="106.6" y="0" class="st26 st25 st5">)</tspan></text>
<rect x="1027.5" y="757.7" class="st0" width="250.5" height="84.3"/>
<text transform="matrix(1 0 0 1 1071.6116 783.4437)"><tspan x="0" y="0" class="st27 st5">Information </tspan><tspan x="5.7" y="43.2" class="st27 st5">Bottleneck</tspan></text>
<rect x="965.8" y="999.8" class="st0" width="328.1" height="36.9"/>
<text transform="matrix(1 0 0 1 968.1404 1021.2564)"><tspan x="0" y="0" class="st1 st2">IB optimization problem</tspan><tspan x="313.5" y="0" class="st3 st2">:</tspan></text>
<rect x="1293.6" y="978" class="st0" width="95.7" height="74.7"/>
<text transform="matrix(1 0 0 1 1311.4598 1002.9886)"><tspan x="0" y="0" class="st28 st5">min</tspan><tspan x="0.6" y="28.8" class="st29 st30">p</tspan><tspan x="12.8" y="28.8" class="st28 st30">(</tspan><tspan x="22.2" y="28.8" class="st29 st30">r</tspan><tspan x="32.3" y="28.8" class="st28 st30">|</tspan><tspan x="39" y="28.8" class="st29 st30">x</tspan><tspan x="50.1" y="28.8" class="st28 st30">)</tspan></text>
<rect x="1332.4" y="982.4" class="st0" width="389.9" height="113.6"/>
<text transform="matrix(1 0 0 1 1389.4093 1007.5787)"><tspan x="0" y="0" class="st24 st28 st5">I(X;R)</tspan><tspan x="104.5" y="0" class="st28 st5"> - </tspan><tspan x="140.5" y="0" class="st31 st5">β</tspan><tspan x="159.4" y="0" class="st28 st5"> </tspan><tspan x="171.4" y="0" class="st26 st28 st5">I(R;Y)</tspan></text>
</svg>
