<?xml version="1.0" encoding="utf-8" standalone="no"?>
<!DOCTYPE svg PUBLIC "-//W3C//DTD SVG 1.1//EN"
  "http://www.w3.org/Graphics/SVG/1.1/DTD/svg11.dtd">
<svg xmlns:xlink="http://www.w3.org/1999/xlink" width="227.459913pt" height="179.971062pt" viewBox="0 0 227.459913 179.971062" xmlns="http://www.w3.org/2000/svg" version="1.1">
 <metadata>
  <rdf:RDF xmlns:dc="http://purl.org/dc/elements/1.1/" xmlns:cc="http://creativecommons.org/ns#" xmlns:rdf="http://www.w3.org/1999/02/22-rdf-syntax-ns#">
   <cc:Work>
    <dc:type rdf:resource="http://purl.org/dc/dcmitype/StillImage"/>
    <dc:date>2026-04-23T17:21:04.539085</dc:date>
    <dc:format>image/svg+xml</dc:format>
    <dc:creator>
     <cc:Agent>
      <dc:title>Matplotlib v3.8.2, https://matplotlib.org/</dc:title>
     </cc:Agent>
    </dc:creator>
   </cc:Work>
  </rdf:RDF>
 </metadata>
 <defs>
  <style type="text/css">*{stroke-linejoin: round; stroke-linecap: butt}</style>
 </defs>
 <g id="figure_1">
  <g id="patch_1">
   <path d="M 0 179.971062 
L 227.459913 179.971062 
L 227.459913 0 
L 0 0 
z
" style="fill: #ffffff"/>
  </g>
  <g id="axes_1">
   <g id="patch_2">
    <path d="M 7.2 77.76 
L 102.313636 77.76 
L 102.313636 7.2 
L 7.2 7.2 
z
" style="fill: #ffffff"/>
   </g>
   <g id="matplotlib.axis_1">
    <g id="xtick_1">
     <g id="line2d_1">
      <defs>
       <path id="m87a29d5c83" d="M 0 0 
L 0 2 
" style="stroke: #000000; stroke-width: 0.5"/>
      </defs>
      <g>
       <use xlink:href="#m87a29d5c83" x="20.787662" y="77.76" style="stroke: #000000; stroke-width: 0.5"/>
      </g>
     </g>
     <g id="text_1">
      <!-- 0.00 -->
      <g transform="translate(15.221256 87.059219) scale(0.05 -0.05)">
       <defs>
        <path id="DejaVuSans-30" d="M 2034 4250 
Q 1547 4250 1301 3770 
Q 1056 3291 1056 2328 
Q 1056 1369 1301 889 
Q 1547 409 2034 409 
Q 2525 409 2770 889 
Q 3016 1369 3016 2328 
Q 3016 3291 2770 3770 
Q 2525 4250 2034 4250 
z
M 2034 4750 
Q 2819 4750 3233 4129 
Q 3647 3509 3647 2328 
Q 3647 1150 3233 529 
Q 2819 -91 2034 -91 
Q 1250 -91 836 529 
Q 422 1150 422 2328 
Q 422 3509 836 4129 
Q 1250 4750 2034 4750 
z
" transform="scale(0.015625)"/>
        <path id="DejaVuSans-2e" d="M 684 794 
L 1344 794 
L 1344 0 
L 684 0 
L 684 794 
z
" transform="scale(0.015625)"/>
       </defs>
       <use xlink:href="#DejaVuSans-30"/>
       <use xlink:href="#DejaVuSans-2e" x="63.623047"/>
       <use xlink:href="#DejaVuSans-30" x="95.410156"/>
       <use xlink:href="#DejaVuSans-30" x="159.033203"/>
      </g>
     </g>
    </g>
    <g id="xtick_2">
     <g id="line2d_2">
      <g>
       <use xlink:href="#m87a29d5c83" x="37.77224" y="77.76" style="stroke: #000000; stroke-width: 0.5"/>
      </g>
     </g>
     <g id="text_2">
      <!-- 0.25 -->
      <g transform="translate(32.205834 87.059219) scale(0.05 -0.05)">
       <defs>
        <path id="DejaVuSans-32" d="M 1228 531 
L 3431 531 
L 3431 0 
L 469 0 
L 469 531 
Q 828 903 1448 1529 
Q 2069 2156 2228 2338 
Q 2531 2678 2651 2914 
Q 2772 3150 2772 3378 
Q 2772 3750 2511 3984 
Q 2250 4219 1831 4219 
Q 1534 4219 1204 4116 
Q 875 4013 500 3803 
L 500 4441 
Q 881 4594 1212 4672 
Q 1544 4750 1819 4750 
Q 2544 4750 2975 4387 
Q 3406 4025 3406 3419 
Q 3406 3131 3298 2873 
Q 3191 2616 2906 2266 
Q 2828 2175 2409 1742 
Q 1991 1309 1228 531 
z
" transform="scale(0.015625)"/>
        <path id="DejaVuSans-35" d="M 691 4666 
L 3169 4666 
L 3169 4134 
L 1269 4134 
L 1269 2991 
Q 1406 3038 1543 3061 
Q 1681 3084 1819 3084 
Q 2600 3084 3056 2656 
Q 3513 2228 3513 1497 
Q 3513 744 3044 326 
Q 2575 -91 1722 -91 
Q 1428 -91 1123 -41 
Q 819 9 494 109 
L 494 744 
Q 775 591 1075 516 
Q 1375 441 1709 441 
Q 2250 441 2565 725 
Q 2881 1009 2881 1497 
Q 2881 1984 2565 2268 
Q 2250 2553 1709 2553 
Q 1456 2553 1204 2497 
Q 953 2441 691 2322 
L 691 4666 
z
" transform="scale(0.015625)"/>
       </defs>
       <use xlink:href="#DejaVuSans-30"/>
       <use xlink:href="#DejaVuSans-2e" x="63.623047"/>
       <use xlink:href="#DejaVuSans-32" x="95.410156"/>
       <use xlink:href="#DejaVuSans-35" x="159.033203"/>
      </g>
     </g>
    </g>
    <g id="xtick_3">
     <g id="line2d_3">
      <g>
       <use xlink:href="#m87a29d5c83" x="54.756818" y="77.76" style="stroke: #000000; stroke-width: 0.5"/>
      </g>
     </g>
     <g id="text_3">
      <!-- 0.50 -->
      <g transform="translate(49.190412 87.059219) scale(0.05 -0.05)">
       <use xlink:href="#DejaVuSans-30"/>
       <use xlink:href="#DejaVuSans-2e" x="63.623047"/>
       <use xlink:href="#DejaVuSans-35" x="95.410156"/>
       <use xlink:href="#DejaVuSans-30" x="159.033203"/>
      </g>
     </g>
    </g>
    <g id="xtick_4">
     <g id="line2d_4">
      <g>
       <use xlink:href="#m87a29d5c83" x="71.741396" y="77.76" style="stroke: #000000; stroke-width: 0.5"/>
      </g>
     </g>
     <g id="text_4">
      <!-- 0.75 -->
      <g transform="translate(66.17499 87.059219) scale(0.05 -0.05)">
       <defs>
        <path id="DejaVuSans-37" d="M 525 4666 
L 3525 4666 
L 3525 4397 
L 1831 0 
L 1172 0 
L 2766 4134 
L 525 4134 
L 525 4666 
z
" transform="scale(0.015625)"/>
       </defs>
       <use xlink:href="#DejaVuSans-30"/>
       <use xlink:href="#DejaVuSans-2e" x="63.623047"/>
       <use xlink:href="#DejaVuSans-37" x="95.410156"/>
       <use xlink:href="#DejaVuSans-35" x="159.033203"/>
      </g>
     </g>
    </g>
    <g id="xtick_5">
     <g id="line2d_5">
      <g>
       <use xlink:href="#m87a29d5c83" x="88.725974" y="77.76" style="stroke: #000000; stroke-width: 0.5"/>
      </g>
     </g>
     <g id="text_5">
      <!-- 1.00 -->
      <g transform="translate(83.159568 87.059219) scale(0.05 -0.05)">
       <defs>
        <path id="DejaVuSans-31" d="M 794 531 
L 1825 531 
L 1825 4091 
L 703 3866 
L 703 4441 
L 1819 4666 
L 2450 4666 
L 2450 531 
L 3481 531 
L 3481 0 
L 794 0 
L 794 531 
z
" transform="scale(0.015625)"/>
       </defs>
       <use xlink:href="#DejaVuSans-31"/>
       <use xlink:href="#DejaVuSans-2e" x="63.623047"/>
       <use xlink:href="#DejaVuSans-30" x="95.410156"/>
       <use xlink:href="#DejaVuSans-30" x="159.033203"/>
      </g>
     </g>
    </g>
   </g>
   <g id="matplotlib.axis_2">
    <g id="ytick_1">
     <g id="line2d_6"/>
    </g>
    <g id="ytick_2">
     <g id="line2d_7"/>
    </g>
    <g id="ytick_3">
     <g id="line2d_8"/>
    </g>
    <g id="ytick_4">
     <g id="line2d_9"/>
    </g>
    <g id="ytick_5">
     <g id="line2d_10"/>
    </g>
   </g>
   <g id="line2d_11">
    <path d="M 0.406169 73.972594 
L 7.2 73.972016 
L 13.993831 73.9715 
L 20.787662 73.971048 
L 27.581494 73.970657 
L 34.375325 73.970328 
L 41.169156 73.970059 
L 47.962987 73.969852 
L 54.756818 73.969704 
L 61.550649 73.969616 
L 68.344481 73.969587 
L 75.138312 73.969616 
L 81.932143 73.969703 
L 88.725974 73.969847 
L 95.519805 73.970047 
L 102.313636 73.970303 
" clip-path="url(#p3828fa0579)" style="fill: none; stroke: #808080; stroke-linecap: square"/>
   </g>
   <g id="line2d_12">
    <path d="M 0.406169 73.970657 
L 7.2 73.970328 
L 13.993831 73.970059 
L 20.787662 73.969852 
L 27.581494 73.969704 
L 34.375325 73.969616 
L 41.169156 73.969587 
L 47.962987 73.969616 
L 54.756818 73.969703 
L 61.550649 73.969847 
L 68.344481 73.970047 
L 75.138312 73.970303 
L 81.932143 73.970615 
L 88.725974 73.970981 
L 95.519805 73.971401 
L 102.313636 73.971875 
" clip-path="url(#p3828fa0579)" style="fill: none; stroke-dasharray: 3.7,1.6; stroke-dashoffset: 0; stroke: #808080"/>
   </g>
   <g id="LineCollection_1">
    <path d="M 68.344481 77.46843 
L 68.344481 13.322975 
" clip-path="url(#p3828fa0579)" style="fill: none; stroke-dasharray: 1.85,0.8; stroke-dashoffset: 0; stroke: #000000; stroke-width: 0.5"/>
   </g>
   <g id="patch_3">
    <path d="M 7.2 77.76 
L 7.2 7.2 
" style="fill: none; stroke: #000000; stroke-width: 0.5; stroke-linejoin: miter; stroke-linecap: square"/>
   </g>
   <g id="patch_4">
    <path d="M 7.2 77.76 
L 102.313636 77.76 
" style="fill: none; stroke: #000000; stroke-width: 0.5; stroke-linejoin: miter; stroke-linecap: square"/>
   </g>
   <g id="text_6">
    <!-- β* = 0.1 -->
    <g transform="translate(81.932143 19.44595) scale(0.05 -0.05)">
     <defs>
      <path id="DejaVuSans-3b2" d="M 1178 216 
L 1178 -1331 
L 600 -1331 
L 600 3478 
Q 600 4903 1931 4903 
Q 3288 4903 3288 3700 
Q 3288 2844 2750 2531 
Q 3625 2250 3625 1416 
Q 3625 -66 2119 -66 
Q 1456 -66 1178 216 
z
M 1178 966 
Q 1525 425 2141 425 
Q 3041 425 3041 1406 
Q 3041 2288 1591 2219 
L 1591 2750 
Q 2725 2750 2725 3750 
Q 2725 4434 1994 4434 
Q 1178 4434 1178 3459 
L 1178 966 
z
" transform="scale(0.015625)"/>
      <path id="DejaVuSans-2a" d="M 3009 3897 
L 1888 3291 
L 3009 2681 
L 2828 2375 
L 1778 3009 
L 1778 1831 
L 1422 1831 
L 1422 3009 
L 372 2375 
L 191 2681 
L 1313 3291 
L 191 3897 
L 372 4206 
L 1422 3572 
L 1422 4750 
L 1778 4750 
L 1778 3572 
L 2828 4206 
L 3009 3897 
z
" transform="scale(0.015625)"/>
      <path id="DejaVuSans-20" transform="scale(0.015625)"/>
      <path id="DejaVuSans-3d" d="M 678 2906 
L 4684 2906 
L 4684 2381 
L 678 2381 
L 678 2906 
z
M 678 1631 
L 4684 1631 
L 4684 1100 
L 678 1100 
L 678 1631 
z
" transform="scale(0.015625)"/>
     </defs>
     <use xlink:href="#DejaVuSans-3b2"/>
     <use xlink:href="#DejaVuSans-2a" x="63.818359"/>
     <use xlink:href="#DejaVuSans-20" x="113.818359"/>
     <use xlink:href="#DejaVuSans-3d" x="145.605469"/>
     <use xlink:href="#DejaVuSans-20" x="229.394531"/>
     <use xlink:href="#DejaVuSans-30" x="261.181641"/>
     <use xlink:href="#DejaVuSans-2e" x="324.804688"/>
     <use xlink:href="#DejaVuSans-31" x="356.591797"/>
    </g>
   </g>
  </g>
  <g id="axes_2">
   <g id="patch_5">
    <path d="M 121.336364 77.76 
L 216.45 77.76 
L 216.45 7.2 
L 121.336364 7.2 
z
" style="fill: #ffffff"/>
   </g>
   <g id="matplotlib.axis_3">
    <g id="xtick_6">
     <g id="line2d_13">
      <g>
       <use xlink:href="#m87a29d5c83" x="134.924026" y="77.76" style="stroke: #000000; stroke-width: 0.5"/>
      </g>
     </g>
     <g id="text_7">
      <!-- 0.00 -->
      <g transform="translate(129.35762 87.059219) scale(0.05 -0.05)">
       <use xlink:href="#DejaVuSans-30"/>
       <use xlink:href="#DejaVuSans-2e" x="63.623047"/>
       <use xlink:href="#DejaVuSans-30" x="95.410156"/>
       <use xlink:href="#DejaVuSans-30" x="159.033203"/>
      </g>
     </g>
    </g>
    <g id="xtick_7">
     <g id="line2d_14">
      <g>
       <use xlink:href="#m87a29d5c83" x="151.908604" y="77.76" style="stroke: #000000; stroke-width: 0.5"/>
      </g>
     </g>
     <g id="text_8">
      <!-- 0.25 -->
      <g transform="translate(146.342198 87.059219) scale(0.05 -0.05)">
       <use xlink:href="#DejaVuSans-30"/>
       <use xlink:href="#DejaVuSans-2e" x="63.623047"/>
       <use xlink:href="#DejaVuSans-32" x="95.410156"/>
       <use xlink:href="#DejaVuSans-35" x="159.033203"/>
      </g>
     </g>
    </g>
    <g id="xtick_8">
     <g id="line2d_15">
      <g>
       <use xlink:href="#m87a29d5c83" x="168.893182" y="77.76" style="stroke: #000000; stroke-width: 0.5"/>
      </g>
     </g>
     <g id="text_9">
      <!-- 0.50 -->
      <g transform="translate(163.326776 87.059219) scale(0.05 -0.05)">
       <use xlink:href="#DejaVuSans-30"/>
       <use xlink:href="#DejaVuSans-2e" x="63.623047"/>
       <use xlink:href="#DejaVuSans-35" x="95.410156"/>
       <use xlink:href="#DejaVuSans-30" x="159.033203"/>
      </g>
     </g>
    </g>
    <g id="xtick_9">
     <g id="line2d_16">
      <g>
       <use xlink:href="#m87a29d5c83" x="185.87776" y="77.76" style="stroke: #000000; stroke-width: 0.5"/>
      </g>
     </g>
     <g id="text_10">
      <!-- 0.75 -->
      <g transform="translate(180.311353 87.059219) scale(0.05 -0.05)">
       <use xlink:href="#DejaVuSans-30"/>
       <use xlink:href="#DejaVuSans-2e" x="63.623047"/>
       <use xlink:href="#DejaVuSans-37" x="95.410156"/>
       <use xlink:href="#DejaVuSans-35" x="159.033203"/>
      </g>
     </g>
    </g>
    <g id="xtick_10">
     <g id="line2d_17">
      <g>
       <use xlink:href="#m87a29d5c83" x="202.862338" y="77.76" style="stroke: #000000; stroke-width: 0.5"/>
      </g>
     </g>
     <g id="text_11">
      <!-- 1.00 -->
      <g transform="translate(197.295931 87.059219) scale(0.05 -0.05)">
       <use xlink:href="#DejaVuSans-31"/>
       <use xlink:href="#DejaVuSans-2e" x="63.623047"/>
       <use xlink:href="#DejaVuSans-30" x="95.410156"/>
       <use xlink:href="#DejaVuSans-30" x="159.033203"/>
      </g>
     </g>
    </g>
   </g>
   <g id="matplotlib.axis_4">
    <g id="ytick_6">
     <g id="line2d_18"/>
    </g>
    <g id="ytick_7">
     <g id="line2d_19"/>
    </g>
    <g id="ytick_8">
     <g id="line2d_20"/>
    </g>
    <g id="ytick_9">
     <g id="line2d_21"/>
    </g>
    <g id="ytick_10">
     <g id="line2d_22"/>
    </g>
   </g>
   <g id="line2d_23">
    <path d="M 120.996672 74.122758 
L 126.092045 73.685891 
L 130.847727 73.054654 
L 135.603409 72.186011 
L 140.698782 71.009012 
L 146.813231 69.352231 
L 160.061201 65.692142 
L 165.156575 64.567428 
L 169.572565 63.811165 
L 173.988555 63.280074 
L 178.404545 62.977025 
L 182.820536 62.890499 
L 187.576218 63.014136 
L 193.011282 63.385781 
L 199.465422 64.068474 
L 207.957711 65.215227 
L 216.45 66.479723 
L 216.45 66.479723 
" clip-path="url(#pefe779aa66)" style="fill: none; stroke: #a1c2c2; stroke-linecap: square"/>
   </g>
   <g id="line2d_24">
    <path d="M 120.996672 68.963706 
L 131.866802 65.944748 
L 136.962175 64.772152 
L 141.717857 63.913153 
L 146.133847 63.346824 
L 150.549838 63.009125 
L 154.965828 62.890502 
L 159.72151 62.983952 
L 165.156575 63.327748 
L 171.271023 63.946908 
L 179.083929 64.971364 
L 214.072159 69.845398 
L 216.45 70.11072 
L 216.45 70.11072 
" clip-path="url(#pefe779aa66)" style="fill: none; stroke-dasharray: 3.7,1.6; stroke-dashoffset: 0; stroke: #a1c2c2"/>
   </g>
   <g id="LineCollection_2">
    <path d="M 182.480844 77.46843 
L 182.480844 13.322975 
" clip-path="url(#pefe779aa66)" style="fill: none; stroke-dasharray: 1.85,0.8; stroke-dashoffset: 0; stroke: #000000; stroke-width: 0.5"/>
   </g>
   <g id="patch_6">
    <path d="M 121.336364 77.76 
L 121.336364 7.2 
" style="fill: none; stroke: #000000; stroke-width: 0.5; stroke-linejoin: miter; stroke-linecap: square"/>
   </g>
   <g id="patch_7">
    <path d="M 121.336364 77.76 
L 216.45 77.76 
" style="fill: none; stroke: #000000; stroke-width: 0.5; stroke-linejoin: miter; stroke-linecap: square"/>
   </g>
   <g id="text_12">
    <!-- β* = 2.0 -->
    <g transform="translate(196.068506 19.44595) scale(0.05 -0.05)">
     <use xlink:href="#DejaVuSans-3b2"/>
     <use xlink:href="#DejaVuSans-2a" x="63.818359"/>
     <use xlink:href="#DejaVuSans-20" x="113.818359"/>
     <use xlink:href="#DejaVuSans-3d" x="145.605469"/>
     <use xlink:href="#DejaVuSans-20" x="229.394531"/>
     <use xlink:href="#DejaVuSans-32" x="261.181641"/>
     <use xlink:href="#DejaVuSans-2e" x="324.804688"/>
     <use xlink:href="#DejaVuSans-30" x="356.591797"/>
    </g>
   </g>
   <g id="legend_1">
    <g id="line2d_25">
     <path d="M 125.836364 13.749219 
L 130.836364 13.749219 
L 135.836364 13.749219 
" style="fill: none; stroke: #a1c2c2; stroke-linecap: square"/>
    </g>
    <g id="text_13">
     <!-- $q_1$ -->
     <g transform="translate(139.836364 15.499219) scale(0.05 -0.05)">
      <defs>
       <path id="DejaVuSans-Oblique-71" d="M 2669 525 
Q 2438 222 2123 65 
Q 1809 -91 1428 -91 
Q 897 -91 595 267 
Q 294 625 294 1253 
Q 294 1759 480 2231 
Q 666 2703 1013 3078 
Q 1238 3322 1530 3453 
Q 1822 3584 2144 3584 
Q 2531 3584 2781 3431 
Q 3031 3278 3144 2969 
L 3244 3494 
L 3822 3494 
L 2888 -1319 
L 2309 -1319 
L 2669 525 
z
M 891 1338 
Q 891 875 1084 633 
Q 1278 391 1644 391 
Q 2188 391 2572 911 
Q 2956 1431 2956 2175 
Q 2956 2625 2757 2864 
Q 2559 3103 2188 3103 
Q 1916 3103 1684 2976 
Q 1453 2850 1281 2606 
Q 1100 2350 995 2006 
Q 891 1663 891 1338 
z
" transform="scale(0.015625)"/>
      </defs>
      <use xlink:href="#DejaVuSans-Oblique-71"/>
      <use xlink:href="#DejaVuSans-31" transform="translate(63.476562 -16.40625) scale(0.7)"/>
     </g>
    </g>
    <g id="line2d_26">
     <path d="M 125.836364 21.098437 
L 130.836364 21.098437 
L 135.836364 21.098437 
" style="fill: none; stroke-dasharray: 3.7,1.6; stroke-dashoffset: 0; stroke: #a1c2c2"/>
    </g>
    <g id="text_14">
     <!-- $q_2$ -->
     <g transform="translate(139.836364 22.848437) scale(0.05 -0.05)">
      <use xlink:href="#DejaVuSans-Oblique-71"/>
      <use xlink:href="#DejaVuSans-32" transform="translate(63.476562 -16.40625) scale(0.7)"/>
     </g>
    </g>
    <g id="line2d_27">
     <path d="M 125.836364 28.498437 
L 135.836364 28.498437 
" style="fill: none; stroke-dasharray: 1.85,0.8; stroke-dashoffset: 0; stroke: #000000; stroke-width: 0.5"/>
    </g>
    <g id="text_15">
     <!-- $p(y=1|x)$ -->
     <g transform="translate(139.836364 30.248437) scale(0.05 -0.05)">
      <defs>
       <path id="DejaVuSans-Oblique-70" d="M 3175 2156 
Q 3175 2616 2975 2859 
Q 2775 3103 2400 3103 
Q 2144 3103 1911 2972 
Q 1678 2841 1497 2591 
Q 1319 2344 1212 1994 
Q 1106 1644 1106 1300 
Q 1106 863 1306 627 
Q 1506 391 1875 391 
Q 2147 391 2380 519 
Q 2613 647 2778 891 
Q 2956 1147 3065 1494 
Q 3175 1841 3175 2156 
z
M 1394 2969 
Q 1625 3272 1939 3428 
Q 2253 3584 2638 3584 
Q 3175 3584 3472 3232 
Q 3769 2881 3769 2247 
Q 3769 1728 3584 1258 
Q 3400 788 3053 416 
Q 2822 169 2531 39 
Q 2241 -91 1919 -91 
Q 1547 -91 1294 64 
Q 1041 219 916 525 
L 556 -1331 
L -19 -1331 
L 922 3500 
L 1497 3500 
L 1394 2969 
z
" transform="scale(0.015625)"/>
       <path id="DejaVuSans-28" d="M 1984 4856 
Q 1566 4138 1362 3434 
Q 1159 2731 1159 2009 
Q 1159 1288 1364 580 
Q 1569 -128 1984 -844 
L 1484 -844 
Q 1016 -109 783 600 
Q 550 1309 550 2009 
Q 550 2706 781 3412 
Q 1013 4119 1484 4856 
L 1984 4856 
z
" transform="scale(0.015625)"/>
       <path id="DejaVuSans-Oblique-79" d="M 1588 -325 
Q 1188 -997 936 -1164 
Q 684 -1331 294 -1331 
L -159 -1331 
L -63 -850 
L 269 -850 
Q 509 -850 678 -719 
Q 847 -588 1056 -206 
L 1234 128 
L 459 3500 
L 1069 3500 
L 1650 819 
L 3256 3500 
L 3859 3500 
L 1588 -325 
z
" transform="scale(0.015625)"/>
       <path id="DejaVuSans-7c" d="M 1344 4891 
L 1344 -1509 
L 813 -1509 
L 813 4891 
L 1344 4891 
z
" transform="scale(0.015625)"/>
       <path id="DejaVuSans-Oblique-78" d="M 3841 3500 
L 2234 1784 
L 3219 0 
L 2559 0 
L 1819 1388 
L 531 0 
L -166 0 
L 1556 1844 
L 641 3500 
L 1300 3500 
L 1972 2234 
L 3144 3500 
L 3841 3500 
z
" transform="scale(0.015625)"/>
       <path id="DejaVuSans-29" d="M 513 4856 
L 1013 4856 
Q 1481 4119 1714 3412 
Q 1947 2706 1947 2009 
Q 1947 1309 1714 600 
Q 1481 -109 1013 -844 
L 513 -844 
Q 928 -128 1133 580 
Q 1338 1288 1338 2009 
Q 1338 2731 1133 3434 
Q 928 4138 513 4856 
z
" transform="scale(0.015625)"/>
      </defs>
      <use xlink:href="#DejaVuSans-Oblique-70" transform="translate(0 0.578125)"/>
      <use xlink:href="#DejaVuSans-28" transform="translate(63.476562 0.578125)"/>
      <use xlink:href="#DejaVuSans-Oblique-79" transform="translate(102.490234 0.578125)"/>
      <use xlink:href="#DejaVuSans-3d" transform="translate(181.152344 0.578125)"/>
      <use xlink:href="#DejaVuSans-31" transform="translate(284.423828 0.578125)"/>
      <use xlink:href="#DejaVuSans-7c" transform="translate(348.046875 0.578125)"/>
      <use xlink:href="#DejaVuSans-Oblique-78" transform="translate(381.738281 0.578125)"/>
      <use xlink:href="#DejaVuSans-29" transform="translate(440.917969 0.578125)"/>
     </g>
    </g>
   </g>
  </g>
  <g id="axes_3">
   <g id="patch_8">
    <path d="M 7.2 162.432 
L 102.313636 162.432 
L 102.313636 91.872 
L 7.2 91.872 
z
" style="fill: #ffffff"/>
   </g>
   <g id="matplotlib.axis_5">
    <g id="xtick_11">
     <g id="line2d_28">
      <g>
       <use xlink:href="#m87a29d5c83" x="20.787662" y="162.432" style="stroke: #000000; stroke-width: 0.5"/>
      </g>
     </g>
     <g id="text_16">
      <!-- 0.00 -->
      <g transform="translate(15.221256 171.731219) scale(0.05 -0.05)">
       <use xlink:href="#DejaVuSans-30"/>
       <use xlink:href="#DejaVuSans-2e" x="63.623047"/>
       <use xlink:href="#DejaVuSans-30" x="95.410156"/>
       <use xlink:href="#DejaVuSans-30" x="159.033203"/>
      </g>
     </g>
    </g>
    <g id="xtick_12">
     <g id="line2d_29">
      <g>
       <use xlink:href="#m87a29d5c83" x="37.77224" y="162.432" style="stroke: #000000; stroke-width: 0.5"/>
      </g>
     </g>
     <g id="text_17">
      <!-- 0.25 -->
      <g transform="translate(32.205834 171.731219) scale(0.05 -0.05)">
       <use xlink:href="#DejaVuSans-30"/>
       <use xlink:href="#DejaVuSans-2e" x="63.623047"/>
       <use xlink:href="#DejaVuSans-32" x="95.410156"/>
       <use xlink:href="#DejaVuSans-35" x="159.033203"/>
      </g>
     </g>
    </g>
    <g id="xtick_13">
     <g id="line2d_30">
      <g>
       <use xlink:href="#m87a29d5c83" x="54.756818" y="162.432" style="stroke: #000000; stroke-width: 0.5"/>
      </g>
     </g>
     <g id="text_18">
      <!-- 0.50 -->
      <g transform="translate(49.190412 171.731219) scale(0.05 -0.05)">
       <use xlink:href="#DejaVuSans-30"/>
       <use xlink:href="#DejaVuSans-2e" x="63.623047"/>
       <use xlink:href="#DejaVuSans-35" x="95.410156"/>
       <use xlink:href="#DejaVuSans-30" x="159.033203"/>
      </g>
     </g>
    </g>
    <g id="xtick_14">
     <g id="line2d_31">
      <g>
       <use xlink:href="#m87a29d5c83" x="71.741396" y="162.432" style="stroke: #000000; stroke-width: 0.5"/>
      </g>
     </g>
     <g id="text_19">
      <!-- 0.75 -->
      <g transform="translate(66.17499 171.731219) scale(0.05 -0.05)">
       <use xlink:href="#DejaVuSans-30"/>
       <use xlink:href="#DejaVuSans-2e" x="63.623047"/>
       <use xlink:href="#DejaVuSans-37" x="95.410156"/>
       <use xlink:href="#DejaVuSans-35" x="159.033203"/>
      </g>
     </g>
    </g>
    <g id="xtick_15">
     <g id="line2d_32">
      <g>
       <use xlink:href="#m87a29d5c83" x="88.725974" y="162.432" style="stroke: #000000; stroke-width: 0.5"/>
      </g>
     </g>
     <g id="text_20">
      <!-- 1.00 -->
      <g transform="translate(83.159568 171.731219) scale(0.05 -0.05)">
       <use xlink:href="#DejaVuSans-31"/>
       <use xlink:href="#DejaVuSans-2e" x="63.623047"/>
       <use xlink:href="#DejaVuSans-30" x="95.410156"/>
       <use xlink:href="#DejaVuSans-30" x="159.033203"/>
      </g>
     </g>
    </g>
   </g>
   <g id="matplotlib.axis_6">
    <g id="ytick_11">
     <g id="line2d_33"/>
    </g>
    <g id="ytick_12">
     <g id="line2d_34"/>
    </g>
    <g id="ytick_13">
     <g id="line2d_35"/>
    </g>
    <g id="ytick_14">
     <g id="line2d_36"/>
    </g>
    <g id="ytick_15">
     <g id="line2d_37"/>
    </g>
   </g>
   <g id="line2d_38">
    <path d="M 7.030154 159.224727 
L 31.997484 159.115014 
L 35.054708 158.853067 
L 37.262703 158.449295 
L 39.131006 157.894934 
L 40.829464 157.17755 
L 42.527922 156.22858 
L 44.22638 155.035854 
L 46.094683 153.450649 
L 48.302679 151.258762 
L 51.359903 147.851405 
L 56.115584 142.529563 
L 58.32358 140.392608 
L 60.191883 138.866647 
L 61.890341 137.741603 
L 63.588799 136.883751 
L 65.117411 136.343822 
L 66.646023 136.019411 
L 68.344481 135.899107 
L 70.042938 136.011671 
L 71.911242 136.37434 
L 73.949391 137.012818 
L 76.327232 138.013088 
L 79.21461 139.492368 
L 83.460755 141.956011 
L 91.783198 146.821288 
L 96.029343 149.012122 
L 99.935795 150.77715 
L 102.313636 151.72987 
L 102.313636 151.72987 
" clip-path="url(#p1c2e5ffdec)" style="fill: none; stroke: #428585; stroke-linecap: square"/>
   </g>
   <g id="line2d_39">
    <path d="M 7.030154 158.95322 
L 9.407995 158.59894 
L 11.446144 158.068746 
L 13.314448 157.338869 
L 15.012906 156.437738 
L 16.711364 155.293874 
L 18.579667 153.758936 
L 20.617817 151.790701 
L 23.335349 148.823735 
L 29.449797 142.008769 
L 31.657792 139.948361 
L 33.526096 138.501811 
L 35.224554 137.455774 
L 36.923011 136.679421 
L 38.451623 136.212137 
L 39.980235 135.957539 
L 41.678693 135.909497 
L 43.377151 136.087176 
L 45.245455 136.512022 
L 47.283604 137.206382 
L 49.661445 138.25622 
L 52.718669 139.870026 
L 57.644196 142.772362 
L 64.268182 146.63487 
L 68.514326 148.846971 
L 72.420779 150.633558 
L 76.327232 152.172337 
L 80.233685 153.474189 
L 84.309984 154.603382 
L 88.725974 155.596507 
L 93.651502 156.467983 
L 99.086567 157.19782 
L 102.313636 157.538947 
L 102.313636 157.538947 
" clip-path="url(#p1c2e5ffdec)" style="fill: none; stroke-dasharray: 3.7,1.6; stroke-dashoffset: 0; stroke: #428585"/>
   </g>
   <g id="LineCollection_3">
    <path d="M 68.344481 162.14043 
L 68.344481 97.994975 
" clip-path="url(#p1c2e5ffdec)" style="fill: none; stroke-dasharray: 1.85,0.8; stroke-dashoffset: 0; stroke: #000000; stroke-width: 0.5"/>
   </g>
   <g id="patch_9">
    <path d="M 7.2 162.432 
L 7.2 91.872 
" style="fill: none; stroke: #000000; stroke-width: 0.5; stroke-linejoin: miter; stroke-linecap: square"/>
   </g>
   <g id="patch_10">
    <path d="M 7.2 162.432 
L 102.313636 162.432 
" style="fill: none; stroke: #000000; stroke-width: 0.5; stroke-linejoin: miter; stroke-linecap: square"/>
   </g>
   <g id="text_21">
    <!-- β* = 4.0 -->
    <g transform="translate(81.932143 104.11795) scale(0.05 -0.05)">
     <defs>
      <path id="DejaVuSans-34" d="M 2419 4116 
L 825 1625 
L 2419 1625 
L 2419 4116 
z
M 2253 4666 
L 3047 4666 
L 3047 1625 
L 3713 1625 
L 3713 1100 
L 3047 1100 
L 3047 0 
L 2419 0 
L 2419 1100 
L 313 1100 
L 313 1709 
L 2253 4666 
z
" transform="scale(0.015625)"/>
     </defs>
     <use xlink:href="#DejaVuSans-3b2"/>
     <use xlink:href="#DejaVuSans-2a" x="63.818359"/>
     <use xlink:href="#DejaVuSans-20" x="113.818359"/>
     <use xlink:href="#DejaVuSans-3d" x="145.605469"/>
     <use xlink:href="#DejaVuSans-20" x="229.394531"/>
     <use xlink:href="#DejaVuSans-34" x="261.181641"/>
     <use xlink:href="#DejaVuSans-2e" x="324.804688"/>
     <use xlink:href="#DejaVuSans-30" x="356.591797"/>
    </g>
   </g>
  </g>
  <g id="axes_4">
   <g id="patch_11">
    <path d="M 121.336364 162.432 
L 216.45 162.432 
L 216.45 91.872 
L 121.336364 91.872 
z
" style="fill: #ffffff"/>
   </g>
   <g id="matplotlib.axis_7">
    <g id="xtick_16">
     <g id="line2d_40">
      <g>
       <use xlink:href="#m87a29d5c83" x="134.924026" y="162.432" style="stroke: #000000; stroke-width: 0.5"/>
      </g>
     </g>
     <g id="text_22">
      <!-- 0.00 -->
      <g transform="translate(129.35762 171.731219) scale(0.05 -0.05)">
       <use xlink:href="#DejaVuSans-30"/>
       <use xlink:href="#DejaVuSans-2e" x="63.623047"/>
       <use xlink:href="#DejaVuSans-30" x="95.410156"/>
       <use xlink:href="#DejaVuSans-30" x="159.033203"/>
      </g>
     </g>
    </g>
    <g id="xtick_17">
     <g id="line2d_41">
      <g>
       <use xlink:href="#m87a29d5c83" x="151.908604" y="162.432" style="stroke: #000000; stroke-width: 0.5"/>
      </g>
     </g>
     <g id="text_23">
      <!-- 0.25 -->
      <g transform="translate(146.342198 171.731219) scale(0.05 -0.05)">
       <use xlink:href="#DejaVuSans-30"/>
       <use xlink:href="#DejaVuSans-2e" x="63.623047"/>
       <use xlink:href="#DejaVuSans-32" x="95.410156"/>
       <use xlink:href="#DejaVuSans-35" x="159.033203"/>
      </g>
     </g>
    </g>
    <g id="xtick_18">
     <g id="line2d_42">
      <g>
       <use xlink:href="#m87a29d5c83" x="168.893182" y="162.432" style="stroke: #000000; stroke-width: 0.5"/>
      </g>
     </g>
     <g id="text_24">
      <!-- 0.50 -->
      <g transform="translate(163.326776 171.731219) scale(0.05 -0.05)">
       <use xlink:href="#DejaVuSans-30"/>
       <use xlink:href="#DejaVuSans-2e" x="63.623047"/>
       <use xlink:href="#DejaVuSans-35" x="95.410156"/>
       <use xlink:href="#DejaVuSans-30" x="159.033203"/>
      </g>
     </g>
    </g>
    <g id="xtick_19">
     <g id="line2d_43">
      <g>
       <use xlink:href="#m87a29d5c83" x="185.87776" y="162.432" style="stroke: #000000; stroke-width: 0.5"/>
      </g>
     </g>
     <g id="text_25">
      <!-- 0.75 -->
      <g transform="translate(180.311353 171.731219) scale(0.05 -0.05)">
       <use xlink:href="#DejaVuSans-30"/>
       <use xlink:href="#DejaVuSans-2e" x="63.623047"/>
       <use xlink:href="#DejaVuSans-37" x="95.410156"/>
       <use xlink:href="#DejaVuSans-35" x="159.033203"/>
      </g>
     </g>
    </g>
    <g id="xtick_20">
     <g id="line2d_44">
      <g>
       <use xlink:href="#m87a29d5c83" x="202.862338" y="162.432" style="stroke: #000000; stroke-width: 0.5"/>
      </g>
     </g>
     <g id="text_26">
      <!-- 1.00 -->
      <g transform="translate(197.295931 171.731219) scale(0.05 -0.05)">
       <use xlink:href="#DejaVuSans-31"/>
       <use xlink:href="#DejaVuSans-2e" x="63.623047"/>
       <use xlink:href="#DejaVuSans-30" x="95.410156"/>
       <use xlink:href="#DejaVuSans-30" x="159.033203"/>
      </g>
     </g>
    </g>
   </g>
   <g id="matplotlib.axis_8">
    <g id="ytick_16">
     <g id="line2d_45"/>
    </g>
    <g id="ytick_17">
     <g id="line2d_46"/>
    </g>
    <g id="ytick_18">
     <g id="line2d_47"/>
    </g>
    <g id="ytick_19">
     <g id="line2d_48"/>
    </g>
    <g id="ytick_20">
     <g id="line2d_49"/>
    </g>
   </g>
   <g id="line2d_50">
    <path d="M 121.268425 159.224727 
L 167.126786 159.120089 
L 168.14586 158.88254 
L 168.893182 158.500908 
L 169.572565 157.901665 
L 170.18401 157.074883 
L 170.863393 155.745252 
L 171.542776 153.896429 
L 172.290097 151.186939 
L 173.173295 147.036234 
L 174.19237 141.075004 
L 175.687013 130.791421 
L 177.996916 114.921802 
L 179.083929 108.969137 
L 179.967127 105.271989 
L 180.714448 103.02494 
L 181.325893 101.796371 
L 181.869399 101.15359 
L 182.344968 100.922417 
L 182.752597 100.956695 
L 183.228166 101.249899 
L 183.771672 101.891295 
L 184.451055 103.099832 
L 185.266315 105.051176 
L 186.353328 108.301578 
L 187.915909 113.779214 
L 192.739529 131.148223 
L 194.505925 136.45322 
L 196.136445 140.649025 
L 197.699026 144.053745 
L 199.193669 146.791057 
L 200.688312 149.076694 
L 202.182955 150.969721 
L 203.745536 152.591276 
L 205.376055 153.957767 
L 207.074513 155.091492 
L 208.908847 156.049441 
L 210.946997 156.859919 
L 213.256899 157.534163 
L 215.974432 158.087473 
L 216.45 158.163841 
L 216.45 158.163841 
" clip-path="url(#p7f762ae85b)" style="fill: none; stroke: #136666; stroke-linecap: square"/>
   </g>
   <g id="line2d_51">
    <path d="M 121.268425 159.224727 
L 139.951461 159.120089 
L 140.970536 158.88254 
L 141.717857 158.500908 
L 142.39724 157.901665 
L 143.008685 157.074883 
L 143.688068 155.745252 
L 144.367451 153.896429 
L 145.114773 151.186939 
L 145.997971 147.036234 
L 147.017045 141.075004 
L 148.511688 130.791421 
L 150.821591 114.921802 
L 151.908604 108.969137 
L 152.791802 105.271989 
L 153.539123 103.02494 
L 154.150568 101.796371 
L 154.694075 101.15359 
L 155.169643 100.922417 
L 155.577273 100.956695 
L 156.052841 101.249899 
L 156.596347 101.891295 
L 157.275731 103.099832 
L 158.09099 105.051176 
L 159.178003 108.301578 
L 160.740584 113.779214 
L 165.564205 131.148223 
L 167.330601 136.45322 
L 168.96112 140.649025 
L 170.523701 144.053745 
L 172.018344 146.791057 
L 173.512987 149.076694 
L 175.00763 150.969721 
L 176.570211 152.591276 
L 178.200731 153.957767 
L 179.899188 155.091492 
L 181.733523 156.049441 
L 183.771672 156.859919 
L 186.081575 157.534163 
L 188.799107 158.087473 
L 192.128084 158.526062 
L 196.408198 158.851853 
L 202.454708 159.071392 
L 212.713393 159.190828 
L 216.45 159.205168 
L 216.45 159.205168 
" clip-path="url(#p7f762ae85b)" style="fill: none; stroke-dasharray: 3.7,1.6; stroke-dashoffset: 0; stroke: #136666"/>
   </g>
   <g id="LineCollection_4">
    <path d="M 182.480844 162.14043 
L 182.480844 97.994975 
" clip-path="url(#p7f762ae85b)" style="fill: none; stroke-dasharray: 1.85,0.8; stroke-dashoffset: 0; stroke: #000000; stroke-width: 0.5"/>
   </g>
   <g id="patch_12">
    <path d="M 121.336364 162.432 
L 121.336364 91.872 
" style="fill: none; stroke: #000000; stroke-width: 0.5; stroke-linejoin: miter; stroke-linecap: square"/>
   </g>
   <g id="patch_13">
    <path d="M 121.336364 162.432 
L 216.45 162.432 
" style="fill: none; stroke: #000000; stroke-width: 0.5; stroke-linejoin: miter; stroke-linecap: square"/>
   </g>
   <g id="text_27">
    <!-- β* = 10.0 -->
    <g transform="translate(196.068506 104.11795) scale(0.05 -0.05)">
     <use xlink:href="#DejaVuSans-3b2"/>
     <use xlink:href="#DejaVuSans-2a" x="63.818359"/>
     <use xlink:href="#DejaVuSans-20" x="113.818359"/>
     <use xlink:href="#DejaVuSans-3d" x="145.605469"/>
     <use xlink:href="#DejaVuSans-20" x="229.394531"/>
     <use xlink:href="#DejaVuSans-31" x="261.181641"/>
     <use xlink:href="#DejaVuSans-30" x="324.804688"/>
     <use xlink:href="#DejaVuSans-2e" x="388.427734"/>
     <use xlink:href="#DejaVuSans-30" x="420.214844"/>
    </g>
   </g>
  </g>
 </g>
 <defs>
  <clipPath id="p3828fa0579">
   <rect x="7.2" y="7.2" width="95.113636" height="70.56"/>
  </clipPath>
  <clipPath id="pefe779aa66">
   <rect x="121.336364" y="7.2" width="95.113636" height="70.56"/>
  </clipPath>
  <clipPath id="p1c2e5ffdec">
   <rect x="7.2" y="91.872" width="95.113636" height="70.56"/>
  </clipPath>
  <clipPath id="p7f762ae85b">
   <rect x="121.336364" y="91.872" width="95.113636" height="70.56"/>
  </clipPath>
 </defs>
</svg>
