<?xml version="1.0" encoding="utf-8" standalone="no"?>
<!DOCTYPE svg PUBLIC "-//W3C//DTD SVG 1.1//EN"
  "http://www.w3.org/Graphics/SVG/1.1/DTD/svg11.dtd">
<svg xmlns:xlink="http://www.w3.org/1999/xlink" width="119.921563pt" height="102.355062pt" viewBox="0 0 119.921563 102.355062" xmlns="http://www.w3.org/2000/svg" version="1.1">
 <metadata>
  <rdf:RDF xmlns:dc="http://purl.org/dc/elements/1.1/" xmlns:cc="http://creativecommons.org/ns#" xmlns:rdf="http://www.w3.org/1999/02/22-rdf-syntax-ns#">
   <cc:Work>
    <dc:type rdf:resource="http://purl.org/dc/dcmitype/StillImage"/>
    <dc:date>2026-04-22T02:56:21.100218</dc:date>
    <dc:format>image/svg+xml</dc:format>
    <dc:creator>
     <cc:Agent>
      <dc:title>Matplotlib v3.8.2, https://matplotlib.org/</dc:title>
     </cc:Agent>
    </dc:creator>
   </cc:Work>
  </rdf:RDF>
 </metadata>
 <defs>
  <style type="text/css">*{stroke-linejoin: round; stroke-linecap: butt}</style>
 </defs>
 <g id="figure_1">
  <g id="patch_1">
   <path d="M 0 102.355062 
L 119.921562 102.355062 
L 119.921562 0 
L 0 0 
z
" style="fill: #ffffff"/>
  </g>
  <g id="axes_1">
   <g id="patch_2">
    <path d="M 20.651563 84.816 
L 112.721563 84.816 
L 112.721563 7.2 
L 20.651563 7.2 
z
" style="fill: #ffffff"/>
   </g>
   <g id="matplotlib.axis_1">
    <g id="xtick_1">
     <g id="line2d_1">
      <defs>
       <path id="m8d1fa9d12a" d="M 0 0 
L 0 2 
" style="stroke: #000000; stroke-width: 0.5"/>
      </defs>
      <g>
       <use xlink:href="#m8d1fa9d12a" x="24.836562" y="84.816" style="stroke: #000000; stroke-width: 0.5"/>
      </g>
     </g>
     <g id="text_1">
      <!-- 0.0 -->
      <g transform="translate(20.860781 94.115219) scale(0.05 -0.05)">
       <defs>
        <path id="DejaVuSans-30" d="M 2034 4250 
Q 1547 4250 1301 3770 
Q 1056 3291 1056 2328 
Q 1056 1369 1301 889 
Q 1547 409 2034 409 
Q 2525 409 2770 889 
Q 3016 1369 3016 2328 
Q 3016 3291 2770 3770 
Q 2525 4250 2034 4250 
z
M 2034 4750 
Q 2819 4750 3233 4129 
Q 3647 3509 3647 2328 
Q 3647 1150 3233 529 
Q 2819 -91 2034 -91 
Q 1250 -91 836 529 
Q 422 1150 422 2328 
Q 422 3509 836 4129 
Q 1250 4750 2034 4750 
z
" transform="scale(0.015625)"/>
        <path id="DejaVuSans-2e" d="M 684 794 
L 1344 794 
L 1344 0 
L 684 0 
L 684 794 
z
" transform="scale(0.015625)"/>
       </defs>
       <use xlink:href="#DejaVuSans-30"/>
       <use xlink:href="#DejaVuSans-2e" x="63.623047"/>
       <use xlink:href="#DejaVuSans-30" x="95.410156"/>
      </g>
     </g>
    </g>
    <g id="xtick_2">
     <g id="line2d_2">
      <g>
       <use xlink:href="#m8d1fa9d12a" x="41.576563" y="84.816" style="stroke: #000000; stroke-width: 0.5"/>
      </g>
     </g>
     <g id="text_2">
      <!-- 0.2 -->
      <g transform="translate(37.600781 94.115219) scale(0.05 -0.05)">
       <defs>
        <path id="DejaVuSans-32" d="M 1228 531 
L 3431 531 
L 3431 0 
L 469 0 
L 469 531 
Q 828 903 1448 1529 
Q 2069 2156 2228 2338 
Q 2531 2678 2651 2914 
Q 2772 3150 2772 3378 
Q 2772 3750 2511 3984 
Q 2250 4219 1831 4219 
Q 1534 4219 1204 4116 
Q 875 4013 500 3803 
L 500 4441 
Q 881 4594 1212 4672 
Q 1544 4750 1819 4750 
Q 2544 4750 2975 4387 
Q 3406 4025 3406 3419 
Q 3406 3131 3298 2873 
Q 3191 2616 2906 2266 
Q 2828 2175 2409 1742 
Q 1991 1309 1228 531 
z
" transform="scale(0.015625)"/>
       </defs>
       <use xlink:href="#DejaVuSans-30"/>
       <use xlink:href="#DejaVuSans-2e" x="63.623047"/>
       <use xlink:href="#DejaVuSans-32" x="95.410156"/>
      </g>
     </g>
    </g>
    <g id="xtick_3">
     <g id="line2d_3">
      <g>
       <use xlink:href="#m8d1fa9d12a" x="58.316563" y="84.816" style="stroke: #000000; stroke-width: 0.5"/>
      </g>
     </g>
     <g id="text_3">
      <!-- 0.4 -->
      <g transform="translate(54.340781 94.115219) scale(0.05 -0.05)">
       <defs>
        <path id="DejaVuSans-34" d="M 2419 4116 
L 825 1625 
L 2419 1625 
L 2419 4116 
z
M 2253 4666 
L 3047 4666 
L 3047 1625 
L 3713 1625 
L 3713 1100 
L 3047 1100 
L 3047 0 
L 2419 0 
L 2419 1100 
L 313 1100 
L 313 1709 
L 2253 4666 
z
" transform="scale(0.015625)"/>
       </defs>
       <use xlink:href="#DejaVuSans-30"/>
       <use xlink:href="#DejaVuSans-2e" x="63.623047"/>
       <use xlink:href="#DejaVuSans-34" x="95.410156"/>
      </g>
     </g>
    </g>
    <g id="xtick_4">
     <g id="line2d_4">
      <g>
       <use xlink:href="#m8d1fa9d12a" x="75.056563" y="84.816" style="stroke: #000000; stroke-width: 0.5"/>
      </g>
     </g>
     <g id="text_4">
      <!-- 0.6 -->
      <g transform="translate(71.080781 94.115219) scale(0.05 -0.05)">
       <defs>
        <path id="DejaVuSans-36" d="M 2113 2584 
Q 1688 2584 1439 2293 
Q 1191 2003 1191 1497 
Q 1191 994 1439 701 
Q 1688 409 2113 409 
Q 2538 409 2786 701 
Q 3034 994 3034 1497 
Q 3034 2003 2786 2293 
Q 2538 2584 2113 2584 
z
M 3366 4563 
L 3366 3988 
Q 3128 4100 2886 4159 
Q 2644 4219 2406 4219 
Q 1781 4219 1451 3797 
Q 1122 3375 1075 2522 
Q 1259 2794 1537 2939 
Q 1816 3084 2150 3084 
Q 2853 3084 3261 2657 
Q 3669 2231 3669 1497 
Q 3669 778 3244 343 
Q 2819 -91 2113 -91 
Q 1303 -91 875 529 
Q 447 1150 447 2328 
Q 447 3434 972 4092 
Q 1497 4750 2381 4750 
Q 2619 4750 2861 4703 
Q 3103 4656 3366 4563 
z
" transform="scale(0.015625)"/>
       </defs>
       <use xlink:href="#DejaVuSans-30"/>
       <use xlink:href="#DejaVuSans-2e" x="63.623047"/>
       <use xlink:href="#DejaVuSans-36" x="95.410156"/>
      </g>
     </g>
    </g>
    <g id="xtick_5">
     <g id="line2d_5">
      <g>
       <use xlink:href="#m8d1fa9d12a" x="91.796563" y="84.816" style="stroke: #000000; stroke-width: 0.5"/>
      </g>
     </g>
     <g id="text_5">
      <!-- 0.8 -->
      <g transform="translate(87.820781 94.115219) scale(0.05 -0.05)">
       <defs>
        <path id="DejaVuSans-38" d="M 2034 2216 
Q 1584 2216 1326 1975 
Q 1069 1734 1069 1313 
Q 1069 891 1326 650 
Q 1584 409 2034 409 
Q 2484 409 2743 651 
Q 3003 894 3003 1313 
Q 3003 1734 2745 1975 
Q 2488 2216 2034 2216 
z
M 1403 2484 
Q 997 2584 770 2862 
Q 544 3141 544 3541 
Q 544 4100 942 4425 
Q 1341 4750 2034 4750 
Q 2731 4750 3128 4425 
Q 3525 4100 3525 3541 
Q 3525 3141 3298 2862 
Q 3072 2584 2669 2484 
Q 3125 2378 3379 2068 
Q 3634 1759 3634 1313 
Q 3634 634 3220 271 
Q 2806 -91 2034 -91 
Q 1263 -91 848 271 
Q 434 634 434 1313 
Q 434 1759 690 2068 
Q 947 2378 1403 2484 
z
M 1172 3481 
Q 1172 3119 1398 2916 
Q 1625 2713 2034 2713 
Q 2441 2713 2670 2916 
Q 2900 3119 2900 3481 
Q 2900 3844 2670 4047 
Q 2441 4250 2034 4250 
Q 1625 4250 1398 4047 
Q 1172 3844 1172 3481 
z
" transform="scale(0.015625)"/>
       </defs>
       <use xlink:href="#DejaVuSans-30"/>
       <use xlink:href="#DejaVuSans-2e" x="63.623047"/>
       <use xlink:href="#DejaVuSans-38" x="95.410156"/>
      </g>
     </g>
    </g>
    <g id="xtick_6">
     <g id="line2d_6">
      <g>
       <use xlink:href="#m8d1fa9d12a" x="108.536563" y="84.816" style="stroke: #000000; stroke-width: 0.5"/>
      </g>
     </g>
     <g id="text_6">
      <!-- 1.0 -->
      <g transform="translate(104.560781 94.115219) scale(0.05 -0.05)">
       <defs>
        <path id="DejaVuSans-31" d="M 794 531 
L 1825 531 
L 1825 4091 
L 703 3866 
L 703 4441 
L 1819 4666 
L 2450 4666 
L 2450 531 
L 3481 531 
L 3481 0 
L 794 0 
L 794 531 
z
" transform="scale(0.015625)"/>
       </defs>
       <use xlink:href="#DejaVuSans-31"/>
       <use xlink:href="#DejaVuSans-2e" x="63.623047"/>
       <use xlink:href="#DejaVuSans-30" x="95.410156"/>
      </g>
     </g>
    </g>
   </g>
   <g id="matplotlib.axis_2">
    <g id="ytick_1">
     <g id="line2d_7">
      <defs>
       <path id="md49a57b9a4" d="M 0 0 
L -2 0 
" style="stroke: #000000; stroke-width: 0.5"/>
      </defs>
      <g>
       <use xlink:href="#md49a57b9a4" x="20.651563" y="81.291204" style="stroke: #000000; stroke-width: 0.5"/>
      </g>
     </g>
     <g id="text_7">
      <!-- 0.0 -->
      <g transform="translate(7.2 83.190813) scale(0.05 -0.05)">
       <use xlink:href="#DejaVuSans-30"/>
       <use xlink:href="#DejaVuSans-2e" x="63.623047"/>
       <use xlink:href="#DejaVuSans-30" x="95.410156"/>
      </g>
     </g>
    </g>
    <g id="ytick_2">
     <g id="line2d_8">
      <g>
       <use xlink:href="#md49a57b9a4" x="20.651563" y="67.177922" style="stroke: #000000; stroke-width: 0.5"/>
      </g>
     </g>
     <g id="text_8">
      <!-- 0.2 -->
      <g transform="translate(7.2 69.077532) scale(0.05 -0.05)">
       <use xlink:href="#DejaVuSans-30"/>
       <use xlink:href="#DejaVuSans-2e" x="63.623047"/>
       <use xlink:href="#DejaVuSans-32" x="95.410156"/>
      </g>
     </g>
    </g>
    <g id="ytick_3">
     <g id="line2d_9">
      <g>
       <use xlink:href="#md49a57b9a4" x="20.651563" y="53.064641" style="stroke: #000000; stroke-width: 0.5"/>
      </g>
     </g>
     <g id="text_9">
      <!-- 0.4 -->
      <g transform="translate(7.2 54.96425) scale(0.05 -0.05)">
       <use xlink:href="#DejaVuSans-30"/>
       <use xlink:href="#DejaVuSans-2e" x="63.623047"/>
       <use xlink:href="#DejaVuSans-34" x="95.410156"/>
      </g>
     </g>
    </g>
    <g id="ytick_4">
     <g id="line2d_10">
      <g>
       <use xlink:href="#md49a57b9a4" x="20.651563" y="38.951359" style="stroke: #000000; stroke-width: 0.5"/>
      </g>
     </g>
     <g id="text_10">
      <!-- 0.6 -->
      <g transform="translate(7.2 40.850969) scale(0.05 -0.05)">
       <use xlink:href="#DejaVuSans-30"/>
       <use xlink:href="#DejaVuSans-2e" x="63.623047"/>
       <use xlink:href="#DejaVuSans-36" x="95.410156"/>
      </g>
     </g>
    </g>
    <g id="ytick_5">
     <g id="line2d_11">
      <g>
       <use xlink:href="#md49a57b9a4" x="20.651563" y="24.838078" style="stroke: #000000; stroke-width: 0.5"/>
      </g>
     </g>
     <g id="text_11">
      <!-- 0.8 -->
      <g transform="translate(7.2 26.737687) scale(0.05 -0.05)">
       <use xlink:href="#DejaVuSans-30"/>
       <use xlink:href="#DejaVuSans-2e" x="63.623047"/>
       <use xlink:href="#DejaVuSans-38" x="95.410156"/>
      </g>
     </g>
    </g>
    <g id="ytick_6">
     <g id="line2d_12">
      <g>
       <use xlink:href="#md49a57b9a4" x="20.651563" y="10.724796" style="stroke: #000000; stroke-width: 0.5"/>
      </g>
     </g>
     <g id="text_12">
      <!-- 1.0 -->
      <g transform="translate(7.2 12.624406) scale(0.05 -0.05)">
       <use xlink:href="#DejaVuSans-31"/>
       <use xlink:href="#DejaVuSans-2e" x="63.623047"/>
       <use xlink:href="#DejaVuSans-30" x="95.410156"/>
      </g>
     </g>
    </g>
   </g>
   <g id="line2d_13">
    <path d="M 24.836562 47.770692 
L 25.673562 47.735495 
L 26.510562 47.700294 
L 27.347562 47.665091 
L 28.184562 47.629884 
L 29.021563 47.594673 
L 29.858562 47.55946 
L 30.695563 47.524243 
L 31.532563 47.489024 
L 32.369563 47.453801 
L 33.206563 47.418576 
L 34.043563 47.383348 
L 34.880562 47.348117 
L 35.717562 47.312883 
L 36.554563 47.277647 
L 37.391562 47.242408 
L 38.228563 47.207167 
L 39.065562 47.171923 
L 39.902563 47.136677 
L 40.739562 47.101429 
L 41.576563 47.066179 
L 42.413562 47.030926 
L 43.250563 46.995672 
L 44.087563 46.960415 
L 44.924563 46.925157 
L 45.761562 46.889896 
L 46.598562 46.854634 
L 47.435563 46.819371 
L 48.272563 46.784105 
L 49.109562 46.748838 
L 49.946562 46.71357 
L 50.783563 46.6783 
L 51.620563 46.643029 
L 52.457563 46.607757 
L 53.294562 46.572483 
L 54.131563 46.537208 
L 54.968563 46.501933 
L 55.805563 46.466656 
L 56.642562 46.431378 
L 57.479563 46.3961 
L 58.316563 46.36082 
L 59.153563 46.32554 
L 59.990562 46.29026 
L 60.827562 46.254978 
L 61.664563 46.219697 
L 62.501562 46.184415 
L 63.338563 46.149132 
L 64.175563 46.113849 
L 65.012563 46.078566 
L 65.849562 46.043283 
L 66.686563 46.008 
L 67.523562 45.972717 
L 68.360563 45.937434 
L 69.197563 45.902151 
L 70.034563 45.866868 
L 70.871563 45.831585 
L 71.708562 45.796303 
L 72.545563 45.761022 
L 73.382563 45.72574 
L 74.219562 45.69046 
L 75.056562 45.65518 
L 75.893563 45.6199 
L 76.730562 45.584622 
L 77.567563 45.549344 
L 78.404562 45.514067 
L 79.241563 45.478792 
L 80.078563 45.443517 
L 80.915563 45.408243 
L 81.752563 45.372971 
L 82.589562 45.3377 
L 83.426563 45.30243 
L 84.263563 45.267162 
L 85.100562 45.231895 
L 85.937562 45.196629 
L 86.774563 45.161366 
L 87.611563 45.126104 
L 88.448563 45.090843 
L 89.285562 45.055585 
L 90.122563 45.020328 
L 90.959563 44.985074 
L 91.796563 44.949821 
L 92.633563 44.914571 
L 93.470563 44.879323 
L 94.307563 44.844077 
L 95.144562 44.808833 
L 95.981562 44.773592 
L 96.818562 44.738353 
L 97.655563 44.703117 
L 98.492563 44.667883 
L 99.329563 44.632652 
L 100.166562 44.597424 
L 101.003563 44.562199 
L 101.840563 44.526976 
L 102.677563 44.491757 
L 103.514563 44.45654 
L 104.351563 44.421327 
L 105.188563 44.386116 
L 106.025563 44.350909 
L 106.862562 44.315706 
L 107.699562 44.280505 
L 108.536563 44.245308 
" clip-path="url(#p9994df172e)" style="fill: none; stroke: #808080; stroke-linecap: square"/>
   </g>
   <g id="line2d_14">
    <path d="M 24.836562 72.879482 
L 25.673562 72.578578 
L 26.510562 72.268472 
L 27.347562 71.948996 
L 28.184562 71.619986 
L 29.021563 71.281284 
L 29.858562 70.932737 
L 30.695563 70.574201 
L 31.532563 70.205541 
L 32.369563 69.826628 
L 33.206563 69.437345 
L 34.043563 69.037584 
L 34.880562 68.627249 
L 35.717562 68.206257 
L 36.554563 67.774537 
L 37.391562 67.332031 
L 38.228563 66.878699 
L 39.065562 66.414514 
L 39.902563 65.939466 
L 40.739562 65.453562 
L 41.576563 64.956829 
L 42.413562 64.449311 
L 43.250563 63.931071 
L 44.087563 63.402195 
L 44.924563 62.862787 
L 45.761562 62.312974 
L 46.598562 61.752904 
L 47.435563 61.182749 
L 48.272563 60.602701 
L 49.109562 60.012977 
L 49.946562 59.413817 
L 50.783563 58.805481 
L 51.620563 58.188257 
L 52.457563 57.562452 
L 53.294562 56.928396 
L 54.131563 56.286442 
L 54.968563 55.636966 
L 55.805563 54.980361 
L 56.642562 54.317044 
L 57.479563 53.647451 
L 58.316563 52.972034 
L 59.153563 52.291264 
L 59.990562 51.605627 
L 60.827562 50.915627 
L 61.664563 50.221778 
L 62.501562 49.524606 
L 63.338563 48.82465 
L 64.175563 48.122455 
L 65.012563 47.418576 
L 65.849562 46.71357 
L 66.686563 46.008 
L 67.523562 45.30243 
L 68.360563 44.597424 
L 69.197563 43.893545 
L 70.034563 43.19135 
L 70.871563 42.491394 
L 71.708562 41.794222 
L 72.545563 41.100373 
L 73.382563 40.410373 
L 74.219562 39.724736 
L 75.056562 39.043966 
L 75.893563 38.368549 
L 76.730562 37.698956 
L 77.567563 37.035639 
L 78.404562 36.379034 
L 79.241563 35.729558 
L 80.078563 35.087604 
L 80.915563 34.453548 
L 81.752563 33.827743 
L 82.589562 33.210519 
L 83.426563 32.602183 
L 84.263563 32.003023 
L 85.100562 31.413299 
L 85.937562 30.833251 
L 86.774563 30.263096 
L 87.611563 29.703026 
L 88.448563 29.153213 
L 89.285562 28.613805 
L 90.122563 28.084929 
L 90.959563 27.566689 
L 91.796563 27.059171 
L 92.633563 26.562438 
L 93.470563 26.076534 
L 94.307563 25.601486 
L 95.144562 25.137301 
L 95.981562 24.683969 
L 96.818562 24.241463 
L 97.655563 23.809743 
L 98.492563 23.388751 
L 99.329563 22.978416 
L 100.166562 22.578655 
L 101.003563 22.189372 
L 101.840563 21.810459 
L 102.677563 21.441799 
L 103.514563 21.083263 
L 104.351563 20.734716 
L 105.188563 20.396014 
L 106.025563 20.067004 
L 106.862562 19.747528 
L 107.699562 19.437422 
L 108.536563 19.136518 
" clip-path="url(#p9994df172e)" style="fill: none; stroke: #a1c2c2; stroke-linecap: square"/>
   </g>
   <g id="line2d_15">
    <path d="M 24.836562 80.021981 
L 25.673562 79.918328 
L 26.510562 79.806391 
L 27.347562 79.68554 
L 28.184562 79.555099 
L 29.021563 79.414349 
L 29.858562 79.262525 
L 30.695563 79.098812 
L 31.532563 78.922344 
L 32.369563 78.732203 
L 33.206563 78.527419 
L 34.043563 78.306966 
L 34.880562 78.069764 
L 35.717562 77.814679 
L 36.554563 77.540519 
L 37.391562 77.246042 
L 38.228563 76.929955 
L 39.065562 76.590914 
L 39.902563 76.227532 
L 40.739562 75.838382 
L 41.576563 75.422005 
L 42.413562 74.976917 
L 43.250563 74.501618 
L 44.087563 73.994605 
L 44.924563 73.454383 
L 45.761562 72.879482 
L 46.598562 72.268472 
L 47.435563 71.619986 
L 48.272563 70.932737 
L 49.109562 70.205541 
L 49.946562 69.437345 
L 50.783563 68.627249 
L 51.620563 67.774537 
L 52.457563 66.878699 
L 53.294562 65.939466 
L 54.131563 64.956829 
L 54.968563 63.931071 
L 55.805563 62.862787 
L 56.642562 61.752904 
L 57.479563 60.602701 
L 58.316563 59.413817 
L 59.153563 58.188257 
L 59.990562 56.928396 
L 60.827562 55.636966 
L 61.664563 54.317044 
L 62.501562 52.972034 
L 63.338563 51.605627 
L 64.175563 50.221778 
L 65.012563 48.82465 
L 65.849562 47.418576 
L 66.686563 46.008 
L 67.523562 44.597424 
L 68.360563 43.19135 
L 69.197563 41.794222 
L 70.034563 40.410373 
L 70.871563 39.043966 
L 71.708562 37.698956 
L 72.545563 36.379034 
L 73.382563 35.087604 
L 74.219562 33.827743 
L 75.056562 32.602183 
L 75.893563 31.413299 
L 76.730562 30.263096 
L 77.567563 29.153213 
L 78.404562 28.084929 
L 79.241563 27.059171 
L 80.078563 26.076534 
L 80.915563 25.137301 
L 81.752563 24.241463 
L 82.589562 23.388751 
L 83.426563 22.578655 
L 84.263563 21.810459 
L 85.100562 21.083263 
L 85.937562 20.396014 
L 86.774563 19.747528 
L 87.611563 19.136518 
L 88.448563 18.561617 
L 89.285562 18.021395 
L 90.122563 17.514382 
L 90.959563 17.039083 
L 91.796563 16.593995 
L 92.633563 16.177618 
L 93.470563 15.788468 
L 94.307563 15.425086 
L 95.144562 15.086045 
L 95.981562 14.769958 
L 96.818562 14.475481 
L 97.655563 14.201321 
L 98.492563 13.946236 
L 99.329563 13.709034 
L 100.166562 13.488581 
L 101.003563 13.283797 
L 101.840563 13.093656 
L 102.677563 12.917188 
L 103.514563 12.753475 
L 104.351563 12.601651 
L 105.188563 12.460901 
L 106.025563 12.33046 
L 106.862562 12.209609 
L 107.699562 12.097672 
L 108.536563 11.994019 
" clip-path="url(#p9994df172e)" style="fill: none; stroke: #428585; stroke-linecap: square"/>
   </g>
   <g id="line2d_16">
    <path d="M 24.836562 81.288 
L 25.673562 81.287291 
L 26.510562 81.286425 
L 27.347562 81.285367 
L 28.184562 81.284074 
L 29.021563 81.282496 
L 29.858562 81.280568 
L 30.695563 81.278214 
L 31.532563 81.275339 
L 32.369563 81.271828 
L 33.206563 81.267539 
L 34.043563 81.262302 
L 34.880562 81.255906 
L 35.717562 81.248096 
L 36.554563 81.238559 
L 37.391562 81.226914 
L 38.228563 81.212696 
L 39.065562 81.195338 
L 39.902563 81.174148 
L 40.739562 81.148284 
L 41.576563 81.116719 
L 42.413562 81.078205 
L 43.250563 81.03122 
L 44.087563 80.973918 
L 44.924563 80.904055 
L 45.761562 80.818913 
L 46.598562 80.7152 
L 47.435563 80.588941 
L 48.272563 80.435343 
L 49.109562 80.248653 
L 49.946562 80.021981 
L 50.783563 79.747121 
L 51.620563 79.414349 
L 52.457563 79.012229 
L 53.294562 78.527419 
L 54.131563 77.94453 
L 54.968563 77.246042 
L 55.805563 76.412354 
L 56.642562 75.422005 
L 57.479563 74.25217 
L 58.316563 72.879482 
L 59.153563 71.281284 
L 59.990562 69.437345 
L 60.827562 67.332031 
L 61.664563 64.956829 
L 62.501562 62.312974 
L 63.338563 59.413817 
L 64.175563 56.286442 
L 65.012563 52.972034 
L 65.849562 49.524606 
L 66.686563 46.008 
L 67.523562 42.491394 
L 68.360563 39.043966 
L 69.197563 35.729558 
L 70.034563 32.602183 
L 70.871563 29.703026 
L 71.708562 27.059171 
L 72.545563 24.683969 
L 73.382563 22.578655 
L 74.219562 20.734716 
L 75.056562 19.136518 
L 75.893563 17.76383 
L 76.730562 16.593995 
L 77.567563 15.603646 
L 78.404562 14.769958 
L 79.241563 14.07147 
L 80.078563 13.488581 
L 80.915563 13.003771 
L 81.752563 12.601651 
L 82.589562 12.268879 
L 83.426563 11.994019 
L 84.263563 11.767347 
L 85.100562 11.580657 
L 85.937562 11.427059 
L 86.774563 11.3008 
L 87.611563 11.197087 
L 88.448563 11.111945 
L 89.285562 11.042082 
L 90.122563 10.98478 
L 90.959563 10.937795 
L 91.796563 10.899281 
L 92.633563 10.867716 
L 93.470563 10.841852 
L 94.307563 10.820662 
L 95.144562 10.803304 
L 95.981562 10.789086 
L 96.818562 10.777441 
L 97.655563 10.767904 
L 98.492563 10.760094 
L 99.329563 10.753698 
L 100.166562 10.748461 
L 101.003563 10.744172 
L 101.840563 10.740661 
L 102.677563 10.737786 
L 103.514563 10.735432 
L 104.351563 10.733504 
L 105.188563 10.731926 
L 106.025563 10.730633 
L 106.862562 10.729575 
L 107.699562 10.728709 
L 108.536563 10.728 
" clip-path="url(#p9994df172e)" style="fill: none; stroke: #136666; stroke-linecap: square"/>
   </g>
   <g id="LineCollection_1">
    <path d="M 83.426562 84.816 
L 83.426562 7.2 
" clip-path="url(#p9994df172e)" style="fill: none; stroke-dasharray: 1.85,0.8; stroke-dashoffset: 0; stroke: #000000; stroke-width: 0.5"/>
   </g>
   <g id="patch_3">
    <path d="M 20.651563 84.816 
L 20.651563 7.2 
" style="fill: none; stroke: #000000; stroke-width: 0.5; stroke-linejoin: miter; stroke-linecap: square"/>
   </g>
   <g id="patch_4">
    <path d="M 20.651562 84.816 
L 112.721563 84.816 
" style="fill: none; stroke: #000000; stroke-width: 0.5; stroke-linejoin: miter; stroke-linecap: square"/>
   </g>
   <g id="legend_1">
    <g id="line2d_17">
     <path d="M 25.151563 13.780469 
L 30.151563 13.780469 
L 35.151562 13.780469 
" style="fill: none; stroke: #808080; stroke-linecap: square"/>
    </g>
    <g id="text_13">
     <!-- β* = 0.1 -->
     <g transform="translate(39.151562 15.530469) scale(0.05 -0.05)">
      <defs>
       <path id="DejaVuSans-3b2" d="M 1178 216 
L 1178 -1331 
L 600 -1331 
L 600 3478 
Q 600 4903 1931 4903 
Q 3288 4903 3288 3700 
Q 3288 2844 2750 2531 
Q 3625 2250 3625 1416 
Q 3625 -66 2119 -66 
Q 1456 -66 1178 216 
z
M 1178 966 
Q 1525 425 2141 425 
Q 3041 425 3041 1406 
Q 3041 2288 1591 2219 
L 1591 2750 
Q 2725 2750 2725 3750 
Q 2725 4434 1994 4434 
Q 1178 4434 1178 3459 
L 1178 966 
z
" transform="scale(0.015625)"/>
       <path id="DejaVuSans-2a" d="M 3009 3897 
L 1888 3291 
L 3009 2681 
L 2828 2375 
L 1778 3009 
L 1778 1831 
L 1422 1831 
L 1422 3009 
L 372 2375 
L 191 2681 
L 1313 3291 
L 191 3897 
L 372 4206 
L 1422 3572 
L 1422 4750 
L 1778 4750 
L 1778 3572 
L 2828 4206 
L 3009 3897 
z
" transform="scale(0.015625)"/>
       <path id="DejaVuSans-20" transform="scale(0.015625)"/>
       <path id="DejaVuSans-3d" d="M 678 2906 
L 4684 2906 
L 4684 2381 
L 678 2381 
L 678 2906 
z
M 678 1631 
L 4684 1631 
L 4684 1100 
L 678 1100 
L 678 1631 
z
" transform="scale(0.015625)"/>
      </defs>
      <use xlink:href="#DejaVuSans-3b2"/>
      <use xlink:href="#DejaVuSans-2a" x="63.818359"/>
      <use xlink:href="#DejaVuSans-20" x="113.818359"/>
      <use xlink:href="#DejaVuSans-3d" x="145.605469"/>
      <use xlink:href="#DejaVuSans-20" x="229.394531"/>
      <use xlink:href="#DejaVuSans-30" x="261.181641"/>
      <use xlink:href="#DejaVuSans-2e" x="324.804688"/>
      <use xlink:href="#DejaVuSans-31" x="356.591797"/>
     </g>
    </g>
    <g id="line2d_18">
     <path d="M 25.151563 21.150781 
L 30.151563 21.150781 
L 35.151562 21.150781 
" style="fill: none; stroke: #a1c2c2; stroke-linecap: square"/>
    </g>
    <g id="text_14">
     <!-- β* = 2.0 -->
     <g transform="translate(39.151562 22.900781) scale(0.05 -0.05)">
      <use xlink:href="#DejaVuSans-3b2"/>
      <use xlink:href="#DejaVuSans-2a" x="63.818359"/>
      <use xlink:href="#DejaVuSans-20" x="113.818359"/>
      <use xlink:href="#DejaVuSans-3d" x="145.605469"/>
      <use xlink:href="#DejaVuSans-20" x="229.394531"/>
      <use xlink:href="#DejaVuSans-32" x="261.181641"/>
      <use xlink:href="#DejaVuSans-2e" x="324.804688"/>
      <use xlink:href="#DejaVuSans-30" x="356.591797"/>
     </g>
    </g>
    <g id="line2d_19">
     <path d="M 25.151563 28.521094 
L 30.151563 28.521094 
L 35.151562 28.521094 
" style="fill: none; stroke: #428585; stroke-linecap: square"/>
    </g>
    <g id="text_15">
     <!-- β* = 4.0 -->
     <g transform="translate(39.151562 30.271094) scale(0.05 -0.05)">
      <use xlink:href="#DejaVuSans-3b2"/>
      <use xlink:href="#DejaVuSans-2a" x="63.818359"/>
      <use xlink:href="#DejaVuSans-20" x="113.818359"/>
      <use xlink:href="#DejaVuSans-3d" x="145.605469"/>
      <use xlink:href="#DejaVuSans-20" x="229.394531"/>
      <use xlink:href="#DejaVuSans-34" x="261.181641"/>
      <use xlink:href="#DejaVuSans-2e" x="324.804688"/>
      <use xlink:href="#DejaVuSans-30" x="356.591797"/>
     </g>
    </g>
    <g id="line2d_20">
     <path d="M 25.151563 35.891406 
L 30.151563 35.891406 
L 35.151562 35.891406 
" style="fill: none; stroke: #136666; stroke-linecap: square"/>
    </g>
    <g id="text_16">
     <!-- β* = 10.0 -->
     <g transform="translate(39.151562 37.641406) scale(0.05 -0.05)">
      <use xlink:href="#DejaVuSans-3b2"/>
      <use xlink:href="#DejaVuSans-2a" x="63.818359"/>
      <use xlink:href="#DejaVuSans-20" x="113.818359"/>
      <use xlink:href="#DejaVuSans-3d" x="145.605469"/>
      <use xlink:href="#DejaVuSans-20" x="229.394531"/>
      <use xlink:href="#DejaVuSans-31" x="261.181641"/>
      <use xlink:href="#DejaVuSans-30" x="324.804688"/>
      <use xlink:href="#DejaVuSans-2e" x="388.427734"/>
      <use xlink:href="#DejaVuSans-30" x="420.214844"/>
     </g>
    </g>
   </g>
  </g>
 </g>
 <defs>
  <clipPath id="p9994df172e">
   <rect x="20.651563" y="7.2" width="92.07" height="77.616"/>
  </clipPath>
 </defs>
</svg>
