<?xml version="1.0" encoding="utf-8" standalone="no"?>
<!DOCTYPE svg PUBLIC "-//W3C//DTD SVG 1.1//EN"
  "http://www.w3.org/Graphics/SVG/1.1/DTD/svg11.dtd">
<svg xmlns:xlink="http://www.w3.org/1999/xlink" width="158.37125pt" height="129.639062pt" viewBox="0 0 158.37125 129.639062" xmlns="http://www.w3.org/2000/svg" version="1.1">
 <metadata>
  <rdf:RDF xmlns:dc="http://purl.org/dc/elements/1.1/" xmlns:cc="http://creativecommons.org/ns#" xmlns:rdf="http://www.w3.org/1999/02/22-rdf-syntax-ns#">
   <cc:Work>
    <dc:type rdf:resource="http://purl.org/dc/dcmitype/StillImage"/>
    <dc:date>2026-04-16T19:08:51.478484</dc:date>
    <dc:format>image/svg+xml</dc:format>
    <dc:creator>
     <cc:Agent>
      <dc:title>Matplotlib v3.8.2, https://matplotlib.org/</dc:title>
     </cc:Agent>
    </dc:creator>
   </cc:Work>
  </rdf:RDF>
 </metadata>
 <defs>
  <style type="text/css">*{stroke-linejoin: round; stroke-linecap: butt}</style>
 </defs>
 <g id="figure_1">
  <g id="patch_1">
   <path d="M 0 129.639062 
L 158.37125 129.639062 
L 158.37125 0 
L 0 0 
z
" style="fill: #ffffff"/>
  </g>
  <g id="axes_1">
   <g id="patch_2">
    <path d="M 15.88125 112.1 
L 151.17125 112.1 
L 151.17125 7.2 
L 15.88125 7.2 
z
" style="fill: #ffffff"/>
   </g>
   <g id="matplotlib.axis_1">
    <g id="xtick_1">
     <g id="line2d_1">
      <defs>
       <path id="mc1d1841127" d="M 0 0 
L 0 2 
" style="stroke: #000000; stroke-width: 0.5"/>
      </defs>
      <g>
       <use xlink:href="#mc1d1841127" x="22.030586" y="112.1" style="stroke: #000000; stroke-width: 0.5"/>
      </g>
     </g>
     <g id="text_1">
      <!-- 0.0 -->
      <g transform="translate(18.054805 121.399219) scale(0.05 -0.05)">
       <defs>
        <path id="DejaVuSans-30" d="M 2034 4250 
Q 1547 4250 1301 3770 
Q 1056 3291 1056 2328 
Q 1056 1369 1301 889 
Q 1547 409 2034 409 
Q 2525 409 2770 889 
Q 3016 1369 3016 2328 
Q 3016 3291 2770 3770 
Q 2525 4250 2034 4250 
z
M 2034 4750 
Q 2819 4750 3233 4129 
Q 3647 3509 3647 2328 
Q 3647 1150 3233 529 
Q 2819 -91 2034 -91 
Q 1250 -91 836 529 
Q 422 1150 422 2328 
Q 422 3509 836 4129 
Q 1250 4750 2034 4750 
z
" transform="scale(0.015625)"/>
        <path id="DejaVuSans-2e" d="M 684 794 
L 1344 794 
L 1344 0 
L 684 0 
L 684 794 
z
" transform="scale(0.015625)"/>
       </defs>
       <use xlink:href="#DejaVuSans-30"/>
       <use xlink:href="#DejaVuSans-2e" x="63.623047"/>
       <use xlink:href="#DejaVuSans-30" x="95.410156"/>
      </g>
     </g>
    </g>
    <g id="xtick_2">
     <g id="line2d_2">
      <g>
       <use xlink:href="#mc1d1841127" x="46.628838" y="112.1" style="stroke: #000000; stroke-width: 0.5"/>
      </g>
     </g>
     <g id="text_2">
      <!-- 0.2 -->
      <g transform="translate(42.653057 121.399219) scale(0.05 -0.05)">
       <defs>
        <path id="DejaVuSans-32" d="M 1228 531 
L 3431 531 
L 3431 0 
L 469 0 
L 469 531 
Q 828 903 1448 1529 
Q 2069 2156 2228 2338 
Q 2531 2678 2651 2914 
Q 2772 3150 2772 3378 
Q 2772 3750 2511 3984 
Q 2250 4219 1831 4219 
Q 1534 4219 1204 4116 
Q 875 4013 500 3803 
L 500 4441 
Q 881 4594 1212 4672 
Q 1544 4750 1819 4750 
Q 2544 4750 2975 4387 
Q 3406 4025 3406 3419 
Q 3406 3131 3298 2873 
Q 3191 2616 2906 2266 
Q 2828 2175 2409 1742 
Q 1991 1309 1228 531 
z
" transform="scale(0.015625)"/>
       </defs>
       <use xlink:href="#DejaVuSans-30"/>
       <use xlink:href="#DejaVuSans-2e" x="63.623047"/>
       <use xlink:href="#DejaVuSans-32" x="95.410156"/>
      </g>
     </g>
    </g>
    <g id="xtick_3">
     <g id="line2d_3">
      <g>
       <use xlink:href="#mc1d1841127" x="71.227091" y="112.1" style="stroke: #000000; stroke-width: 0.5"/>
      </g>
     </g>
     <g id="text_3">
      <!-- 0.4 -->
      <g transform="translate(67.251309 121.399219) scale(0.05 -0.05)">
       <defs>
        <path id="DejaVuSans-34" d="M 2419 4116 
L 825 1625 
L 2419 1625 
L 2419 4116 
z
M 2253 4666 
L 3047 4666 
L 3047 1625 
L 3713 1625 
L 3713 1100 
L 3047 1100 
L 3047 0 
L 2419 0 
L 2419 1100 
L 313 1100 
L 313 1709 
L 2253 4666 
z
" transform="scale(0.015625)"/>
       </defs>
       <use xlink:href="#DejaVuSans-30"/>
       <use xlink:href="#DejaVuSans-2e" x="63.623047"/>
       <use xlink:href="#DejaVuSans-34" x="95.410156"/>
      </g>
     </g>
    </g>
    <g id="xtick_4">
     <g id="line2d_4">
      <g>
       <use xlink:href="#mc1d1841127" x="95.825343" y="112.1" style="stroke: #000000; stroke-width: 0.5"/>
      </g>
     </g>
     <g id="text_4">
      <!-- 0.6 -->
      <g transform="translate(91.849562 121.399219) scale(0.05 -0.05)">
       <defs>
        <path id="DejaVuSans-36" d="M 2113 2584 
Q 1688 2584 1439 2293 
Q 1191 2003 1191 1497 
Q 1191 994 1439 701 
Q 1688 409 2113 409 
Q 2538 409 2786 701 
Q 3034 994 3034 1497 
Q 3034 2003 2786 2293 
Q 2538 2584 2113 2584 
z
M 3366 4563 
L 3366 3988 
Q 3128 4100 2886 4159 
Q 2644 4219 2406 4219 
Q 1781 4219 1451 3797 
Q 1122 3375 1075 2522 
Q 1259 2794 1537 2939 
Q 1816 3084 2150 3084 
Q 2853 3084 3261 2657 
Q 3669 2231 3669 1497 
Q 3669 778 3244 343 
Q 2819 -91 2113 -91 
Q 1303 -91 875 529 
Q 447 1150 447 2328 
Q 447 3434 972 4092 
Q 1497 4750 2381 4750 
Q 2619 4750 2861 4703 
Q 3103 4656 3366 4563 
z
" transform="scale(0.015625)"/>
       </defs>
       <use xlink:href="#DejaVuSans-30"/>
       <use xlink:href="#DejaVuSans-2e" x="63.623047"/>
       <use xlink:href="#DejaVuSans-36" x="95.410156"/>
      </g>
     </g>
    </g>
    <g id="xtick_5">
     <g id="line2d_5">
      <g>
       <use xlink:href="#mc1d1841127" x="120.423595" y="112.1" style="stroke: #000000; stroke-width: 0.5"/>
      </g>
     </g>
     <g id="text_5">
      <!-- 0.8 -->
      <g transform="translate(116.447814 121.399219) scale(0.05 -0.05)">
       <defs>
        <path id="DejaVuSans-38" d="M 2034 2216 
Q 1584 2216 1326 1975 
Q 1069 1734 1069 1313 
Q 1069 891 1326 650 
Q 1584 409 2034 409 
Q 2484 409 2743 651 
Q 3003 894 3003 1313 
Q 3003 1734 2745 1975 
Q 2488 2216 2034 2216 
z
M 1403 2484 
Q 997 2584 770 2862 
Q 544 3141 544 3541 
Q 544 4100 942 4425 
Q 1341 4750 2034 4750 
Q 2731 4750 3128 4425 
Q 3525 4100 3525 3541 
Q 3525 3141 3298 2862 
Q 3072 2584 2669 2484 
Q 3125 2378 3379 2068 
Q 3634 1759 3634 1313 
Q 3634 634 3220 271 
Q 2806 -91 2034 -91 
Q 1263 -91 848 271 
Q 434 634 434 1313 
Q 434 1759 690 2068 
Q 947 2378 1403 2484 
z
M 1172 3481 
Q 1172 3119 1398 2916 
Q 1625 2713 2034 2713 
Q 2441 2713 2670 2916 
Q 2900 3119 2900 3481 
Q 2900 3844 2670 4047 
Q 2441 4250 2034 4250 
Q 1625 4250 1398 4047 
Q 1172 3844 1172 3481 
z
" transform="scale(0.015625)"/>
       </defs>
       <use xlink:href="#DejaVuSans-30"/>
       <use xlink:href="#DejaVuSans-2e" x="63.623047"/>
       <use xlink:href="#DejaVuSans-38" x="95.410156"/>
      </g>
     </g>
    </g>
    <g id="xtick_6">
     <g id="line2d_6">
      <g>
       <use xlink:href="#mc1d1841127" x="145.021848" y="112.1" style="stroke: #000000; stroke-width: 0.5"/>
      </g>
     </g>
     <g id="text_6">
      <!-- 1.0 -->
      <g transform="translate(141.046066 121.399219) scale(0.05 -0.05)">
       <defs>
        <path id="DejaVuSans-31" d="M 794 531 
L 1825 531 
L 1825 4091 
L 703 3866 
L 703 4441 
L 1819 4666 
L 2450 4666 
L 2450 531 
L 3481 531 
L 3481 0 
L 794 0 
L 794 531 
z
" transform="scale(0.015625)"/>
       </defs>
       <use xlink:href="#DejaVuSans-31"/>
       <use xlink:href="#DejaVuSans-2e" x="63.623047"/>
       <use xlink:href="#DejaVuSans-30" x="95.410156"/>
      </g>
     </g>
    </g>
   </g>
   <g id="matplotlib.axis_2">
    <g id="ytick_1">
     <g id="line2d_7">
      <defs>
       <path id="mb97408961d" d="M 0 0 
L -2 0 
" style="stroke: #000000; stroke-width: 0.5"/>
      </defs>
      <g>
       <use xlink:href="#mb97408961d" x="15.88125" y="106.578947" style="stroke: #000000; stroke-width: 0.5"/>
      </g>
     </g>
     <g id="text_7">
      <!-- 0 -->
      <g transform="translate(7.2 108.478557) scale(0.05 -0.05)">
       <use xlink:href="#DejaVuSans-30"/>
      </g>
     </g>
    </g>
    <g id="ytick_2">
     <g id="line2d_8">
      <g>
       <use xlink:href="#mb97408961d" x="15.88125" y="84.494737" style="stroke: #000000; stroke-width: 0.5"/>
      </g>
     </g>
     <g id="text_8">
      <!-- 2 -->
      <g transform="translate(7.2 86.394346) scale(0.05 -0.05)">
       <use xlink:href="#DejaVuSans-32"/>
      </g>
     </g>
    </g>
    <g id="ytick_3">
     <g id="line2d_9">
      <g>
       <use xlink:href="#mb97408961d" x="15.88125" y="62.410526" style="stroke: #000000; stroke-width: 0.5"/>
      </g>
     </g>
     <g id="text_9">
      <!-- 4 -->
      <g transform="translate(7.2 64.310136) scale(0.05 -0.05)">
       <use xlink:href="#DejaVuSans-34"/>
      </g>
     </g>
    </g>
    <g id="ytick_4">
     <g id="line2d_10">
      <g>
       <use xlink:href="#mb97408961d" x="15.88125" y="40.326316" style="stroke: #000000; stroke-width: 0.5"/>
      </g>
     </g>
     <g id="text_10">
      <!-- 6 -->
      <g transform="translate(7.2 42.225925) scale(0.05 -0.05)">
       <use xlink:href="#DejaVuSans-36"/>
      </g>
     </g>
    </g>
    <g id="ytick_5">
     <g id="line2d_11">
      <g>
       <use xlink:href="#mb97408961d" x="15.88125" y="18.242105" style="stroke: #000000; stroke-width: 0.5"/>
      </g>
     </g>
     <g id="text_11">
      <!-- 8 -->
      <g transform="translate(7.2 20.141715) scale(0.05 -0.05)">
       <use xlink:href="#DejaVuSans-38"/>
      </g>
     </g>
    </g>
   </g>
   <g id="line2d_12">
    <path d="M 22.030826 106.523737 
L 22.157677 105.309105 
L 22.515597 104.094474 
L 23.132224 102.824632 
L 24.031426 101.499579 
L 25.286205 100.064105 
L 26.941968 98.518211 
L 29.109398 96.806684 
L 31.925426 94.874316 
L 35.634458 92.610684 
L 40.70732 89.794947 
L 48.479785 85.764579 
L 64.519751 77.483 
L 71.25275 73.728684 
L 76.941125 70.305632 
L 81.840431 67.103421 
L 86.253324 63.956421 
L 90.211517 60.864632 
L 93.815309 57.772842 
L 97.144902 54.625842 
L 100.211595 51.423632 
L 103.075445 48.111 
L 105.739803 44.687947 
L 108.248208 41.099263 
L 110.59896 37.344947 
L 112.823716 33.369789 
L 114.944776 29.118579 
L 116.954272 24.591316 
L 118.890669 19.677579 
L 120.759838 14.322158 
L 122.581503 8.414632 
L 124.352419 1.899789 
L 125.072923 -1 
L 125.072923 -1 
" clip-path="url(#p3f21f8615c)" style="fill: none; stroke: #000000; stroke-width: 0.8; stroke-linecap: square"/>
   </g>
   <g id="line2d_13">
    <path d="M 22.030795 106.523737 
L 22.151166 105.253895 
L 22.491608 103.984053 
L 23.077113 102.659 
L 23.929125 101.278737 
L 25.113629 99.788053 
L 26.671366 98.186947 
L 28.702339 96.420211 
L 31.330572 94.432632 
L 34.778625 92.113789 
L 39.384431 89.298053 
L 46.168626 85.433316 
L 65.575695 74.501632 
L 72.148857 70.471263 
L 77.762595 66.772158 
L 82.809029 63.183474 
L 87.400037 59.65 
L 91.698524 56.061316 
L 95.714326 52.417421 
L 99.46202 48.718316 
L 103.007686 44.908789 
L 106.401789 40.933632 
L 109.598328 36.848053 
L 112.643124 32.596842 
L 115.534135 28.18 
L 118.301533 23.542316 
L 120.907305 18.739 
L 123.377342 13.714842 
L 125.681127 8.525053 
L 127.840839 3.114421 
L 129.332395 -1 
L 129.332395 -1 
" clip-path="url(#p3f21f8615c)" style="fill: none; stroke-dasharray: 2.96,1.28; stroke-dashoffset: 0; stroke: #000000; stroke-width: 0.8"/>
   </g>
   <g id="line2d_14">
    <defs>
     <path id="m1e567f2fe6" d="M 0 1.5 
C 0.397805 1.5 0.77937 1.341951 1.06066 1.06066 
C 1.341951 0.77937 1.5 0.397805 1.5 0 
C 1.5 -0.397805 1.341951 -0.77937 1.06066 -1.06066 
C 0.77937 -1.341951 0.397805 -1.5 0 -1.5 
C -0.397805 -1.5 -0.77937 -1.341951 -1.06066 -1.06066 
C -1.341951 -0.77937 -1.5 -0.397805 -1.5 0 
C -1.5 0.397805 -1.341951 0.77937 -1.06066 1.06066 
C -0.77937 1.341951 -0.397805 1.5 0 1.5 
z
"/>
    </defs>
    <g clip-path="url(#p3f21f8615c)">
     <use xlink:href="#m1e567f2fe6" x="37.587862" y="93.154791" style="fill: #298c8c; fill-opacity: 0.7"/>
    </g>
   </g>
   <g id="line2d_15">
    <defs>
     <path id="m4a0786f1e1" d="M 0 1.5 
C 0.397805 1.5 0.77937 1.341951 1.06066 1.06066 
C 1.341951 0.77937 1.5 0.397805 1.5 0 
C 1.5 -0.397805 1.341951 -0.77937 1.06066 -1.06066 
C 0.77937 -1.341951 0.397805 -1.5 0 -1.5 
C -0.397805 -1.5 -0.77937 -1.341951 -1.06066 -1.06066 
C -1.341951 -0.77937 -1.5 -0.397805 -1.5 0 
C -1.5 0.397805 -1.341951 0.77937 -1.06066 1.06066 
C -0.77937 1.341951 -0.397805 1.5 0 1.5 
z
"/>
    </defs>
    <g clip-path="url(#p3f21f8615c)">
     <use xlink:href="#m4a0786f1e1" x="52.986537" y="86.499227" style="fill: #a00000; fill-opacity: 0.7"/>
    </g>
   </g>
   <g id="line2d_16">
    <g clip-path="url(#p3f21f8615c)">
     <use xlink:href="#m1e567f2fe6" x="85.440083" y="62.745892" style="fill: #298c8c; fill-opacity: 0.7"/>
    </g>
   </g>
   <g id="line2d_17">
    <g clip-path="url(#p3f21f8615c)">
     <use xlink:href="#m4a0786f1e1" x="109.827616" y="39.379784" style="fill: #a00000; fill-opacity: 0.7"/>
    </g>
   </g>
   <g id="line2d_18">
    <g clip-path="url(#p3f21f8615c)">
     <use xlink:href="#m4a0786f1e1" x="124.271341" y="14.336817" style="fill: #a00000; fill-opacity: 0.7"/>
    </g>
   </g>
   <g id="line2d_19">
    <g clip-path="url(#p3f21f8615c)">
     <use xlink:href="#m4a0786f1e1" x="83.567961" y="67.514492" style="fill: #a00000; fill-opacity: 0.7"/>
    </g>
   </g>
   <g id="line2d_20">
    <g clip-path="url(#p3f21f8615c)">
     <use xlink:href="#m4a0786f1e1" x="53.246083" y="82.405539" style="fill: #a00000; fill-opacity: 0.7"/>
    </g>
   </g>
   <g id="line2d_21">
    <g clip-path="url(#p3f21f8615c)">
     <use xlink:href="#m4a0786f1e1" x="120.365872" y="23.971165" style="fill: #a00000; fill-opacity: 0.7"/>
    </g>
   </g>
   <g id="line2d_22">
    <g clip-path="url(#p3f21f8615c)">
     <use xlink:href="#m4a0786f1e1" x="45.655215" y="79.246164" style="fill: #a00000; fill-opacity: 0.7"/>
    </g>
   </g>
   <g id="line2d_23">
    <g clip-path="url(#p3f21f8615c)">
     <use xlink:href="#m1e567f2fe6" x="41.928294" y="89.618426" style="fill: #298c8c; fill-opacity: 0.7"/>
    </g>
   </g>
   <g id="line2d_24">
    <g clip-path="url(#p3f21f8615c)">
     <use xlink:href="#m1e567f2fe6" x="104.634109" y="50.779423" style="fill: #298c8c; fill-opacity: 0.7"/>
    </g>
   </g>
   <g id="line2d_25">
    <g clip-path="url(#p3f21f8615c)">
     <use xlink:href="#m4a0786f1e1" x="74.679416" y="70.732596" style="fill: #a00000; fill-opacity: 0.7"/>
    </g>
   </g>
   <g id="line2d_26">
    <g clip-path="url(#p3f21f8615c)">
     <use xlink:href="#m4a0786f1e1" x="101.077542" y="49.602502" style="fill: #a00000; fill-opacity: 0.7"/>
    </g>
   </g>
   <g id="line2d_27">
    <g clip-path="url(#p3f21f8615c)">
     <use xlink:href="#m1e567f2fe6" x="113.331564" y="22.346997" style="fill: #298c8c; fill-opacity: 0.7"/>
    </g>
   </g>
   <g id="line2d_28">
    <defs>
     <path id="mf48abd7487" d="M 0 1.5 
C 0.397805 1.5 0.77937 1.341951 1.06066 1.06066 
C 1.341951 0.77937 1.5 0.397805 1.5 0 
C 1.5 -0.397805 1.341951 -0.77937 1.06066 -1.06066 
C 0.77937 -1.341951 0.397805 -1.5 0 -1.5 
C -0.397805 -1.5 -0.77937 -1.341951 -1.06066 -1.06066 
C -1.341951 -0.77937 -1.5 -0.397805 -1.5 0 
C -1.5 0.397805 -1.341951 0.77937 -1.06066 1.06066 
C -0.77937 1.341951 -0.397805 1.5 0 1.5 
z
"/>
    </defs>
    <g clip-path="url(#p3f21f8615c)">
     <use xlink:href="#mf48abd7487" x="35.845736" y="88.167735" style="fill: #ffa500; fill-opacity: 0.7"/>
    </g>
   </g>
   <g id="line2d_29">
    <g clip-path="url(#p3f21f8615c)">
     <use xlink:href="#m1e567f2fe6" x="61.352807" y="80.870178" style="fill: #298c8c; fill-opacity: 0.7"/>
    </g>
   </g>
   <g id="line2d_30">
    <g clip-path="url(#p3f21f8615c)">
     <use xlink:href="#m1e567f2fe6" x="71.825419" y="75.306865" style="fill: #298c8c; fill-opacity: 0.7"/>
    </g>
   </g>
   <g id="line2d_31">
    <g clip-path="url(#p3f21f8615c)">
     <use xlink:href="#m4a0786f1e1" x="62.87296" y="72.758802" style="fill: #a00000; fill-opacity: 0.7"/>
    </g>
   </g>
   <g id="line2d_32">
    <g clip-path="url(#p3f21f8615c)">
     <use xlink:href="#m1e567f2fe6" x="78.226487" y="62.376566" style="fill: #298c8c; fill-opacity: 0.7"/>
    </g>
   </g>
   <g id="line2d_33">
    <g clip-path="url(#p3f21f8615c)">
     <use xlink:href="#m4a0786f1e1" x="89.749932" y="57.361985" style="fill: #a00000; fill-opacity: 0.7"/>
    </g>
   </g>
   <g id="line2d_34">
    <g clip-path="url(#p3f21f8615c)">
     <use xlink:href="#m4a0786f1e1" x="64.642055" y="75.661307" style="fill: #a00000; fill-opacity: 0.7"/>
    </g>
   </g>
   <g id="line2d_35">
    <g clip-path="url(#p3f21f8615c)">
     <use xlink:href="#m1e567f2fe6" x="97.70215" y="55.625849" style="fill: #298c8c; fill-opacity: 0.7"/>
    </g>
   </g>
   <g id="line2d_36">
    <g clip-path="url(#p3f21f8615c)">
     <use xlink:href="#m4a0786f1e1" x="85.647342" y="65.268268" style="fill: #a00000; fill-opacity: 0.7"/>
    </g>
   </g>
   <g id="line2d_37">
    <g clip-path="url(#p3f21f8615c)">
     <use xlink:href="#m4a0786f1e1" x="85.076156" y="59.418037" style="fill: #a00000; fill-opacity: 0.7"/>
    </g>
   </g>
   <g id="line2d_38">
    <g clip-path="url(#p3f21f8615c)">
     <use xlink:href="#m4a0786f1e1" x="49.352876" y="84.948137" style="fill: #a00000; fill-opacity: 0.7"/>
    </g>
   </g>
   <g id="line2d_39">
    <g clip-path="url(#p3f21f8615c)">
     <use xlink:href="#m4a0786f1e1" x="79.820891" y="65.739288" style="fill: #a00000; fill-opacity: 0.7"/>
    </g>
   </g>
   <g id="line2d_40">
    <g clip-path="url(#p3f21f8615c)">
     <use xlink:href="#m1e567f2fe6" x="119.517243" y="45.187791" style="fill: #298c8c; fill-opacity: 0.7"/>
    </g>
   </g>
   <g id="line2d_41">
    <g clip-path="url(#p3f21f8615c)">
     <use xlink:href="#m4a0786f1e1" x="95.570314" y="57.49202" style="fill: #a00000; fill-opacity: 0.7"/>
    </g>
   </g>
   <g id="line2d_42">
    <g clip-path="url(#p3f21f8615c)">
     <use xlink:href="#m4a0786f1e1" x="95.40059" y="59.939268" style="fill: #a00000; fill-opacity: 0.7"/>
    </g>
   </g>
   <g id="line2d_43">
    <g clip-path="url(#p3f21f8615c)">
     <use xlink:href="#m4a0786f1e1" x="104.519424" y="43.479488" style="fill: #a00000; fill-opacity: 0.7"/>
    </g>
   </g>
   <g id="line2d_44">
    <g clip-path="url(#p3f21f8615c)">
     <use xlink:href="#m4a0786f1e1" x="64.074343" y="76.745524" style="fill: #a00000; fill-opacity: 0.7"/>
    </g>
   </g>
   <g id="line2d_45">
    <g clip-path="url(#p3f21f8615c)">
     <use xlink:href="#m1e567f2fe6" x="110.849369" y="24.00325" style="fill: #298c8c; fill-opacity: 0.7"/>
    </g>
   </g>
   <g id="line2d_46">
    <g clip-path="url(#p3f21f8615c)">
     <use xlink:href="#m1e567f2fe6" x="67.748675" y="78.471994" style="fill: #298c8c; fill-opacity: 0.7"/>
    </g>
   </g>
   <g id="line2d_47">
    <g clip-path="url(#p3f21f8615c)">
     <use xlink:href="#m1e567f2fe6" x="85.215474" y="57.940767" style="fill: #298c8c; fill-opacity: 0.7"/>
    </g>
   </g>
   <g id="line2d_48">
    <g clip-path="url(#p3f21f8615c)">
     <use xlink:href="#m4a0786f1e1" x="68.870472" y="77.408078" style="fill: #a00000; fill-opacity: 0.7"/>
    </g>
   </g>
   <g id="line2d_49">
    <g clip-path="url(#p3f21f8615c)">
     <use xlink:href="#m1e567f2fe6" x="96.666295" y="63.300577" style="fill: #298c8c; fill-opacity: 0.7"/>
    </g>
   </g>
   <g id="line2d_50">
    <g clip-path="url(#p3f21f8615c)">
     <use xlink:href="#m4a0786f1e1" x="76.220667" y="67.710707" style="fill: #a00000; fill-opacity: 0.7"/>
    </g>
   </g>
   <g id="line2d_51">
    <g clip-path="url(#p3f21f8615c)">
     <use xlink:href="#m4a0786f1e1" x="102.517353" y="48.820912" style="fill: #a00000; fill-opacity: 0.7"/>
    </g>
   </g>
   <g id="line2d_52">
    <g clip-path="url(#p3f21f8615c)">
     <use xlink:href="#m4a0786f1e1" x="100.485039" y="48.958017" style="fill: #a00000; fill-opacity: 0.7"/>
    </g>
   </g>
   <g id="line2d_53">
    <g clip-path="url(#p3f21f8615c)">
     <use xlink:href="#m4a0786f1e1" x="104.092402" y="55.48491" style="fill: #a00000; fill-opacity: 0.7"/>
    </g>
   </g>
   <g id="line2d_54">
    <g clip-path="url(#p3f21f8615c)">
     <use xlink:href="#m1e567f2fe6" x="80.710548" y="63.847186" style="fill: #298c8c; fill-opacity: 0.7"/>
    </g>
   </g>
   <g id="line2d_55">
    <g clip-path="url(#p3f21f8615c)">
     <use xlink:href="#m4a0786f1e1" x="85.377835" y="62.607613" style="fill: #a00000; fill-opacity: 0.7"/>
    </g>
   </g>
   <g id="line2d_56">
    <g clip-path="url(#p3f21f8615c)">
     <use xlink:href="#m4a0786f1e1" x="82.927292" y="64.643048" style="fill: #a00000; fill-opacity: 0.7"/>
    </g>
   </g>
   <g id="line2d_57">
    <g clip-path="url(#p3f21f8615c)">
     <use xlink:href="#m1e567f2fe6" x="97.092722" y="52.596613" style="fill: #298c8c; fill-opacity: 0.7"/>
    </g>
   </g>
   <g id="line2d_58">
    <g clip-path="url(#p3f21f8615c)">
     <use xlink:href="#m4a0786f1e1" x="100.281223" y="52.53933" style="fill: #a00000; fill-opacity: 0.7"/>
    </g>
   </g>
   <g id="line2d_59">
    <g clip-path="url(#p3f21f8615c)">
     <use xlink:href="#m4a0786f1e1" x="96.298044" y="59.57389" style="fill: #a00000; fill-opacity: 0.7"/>
    </g>
   </g>
   <g id="line2d_60">
    <g clip-path="url(#p3f21f8615c)">
     <use xlink:href="#m4a0786f1e1" x="87.329256" y="40.196668" style="fill: #a00000; fill-opacity: 0.7"/>
    </g>
   </g>
   <g id="line2d_61">
    <g clip-path="url(#p3f21f8615c)">
     <use xlink:href="#m4a0786f1e1" x="70.930704" y="70.334371" style="fill: #a00000; fill-opacity: 0.7"/>
    </g>
   </g>
   <g id="line2d_62">
    <g clip-path="url(#p3f21f8615c)">
     <use xlink:href="#m4a0786f1e1" x="39.984746" y="90.615055" style="fill: #a00000; fill-opacity: 0.7"/>
    </g>
   </g>
   <g id="line2d_63">
    <g clip-path="url(#p3f21f8615c)">
     <use xlink:href="#mf48abd7487" x="39.39123" y="83.136378" style="fill: #ffa500; fill-opacity: 0.7"/>
    </g>
   </g>
   <g id="line2d_64">
    <g clip-path="url(#p3f21f8615c)">
     <use xlink:href="#m1e567f2fe6" x="75.744454" y="76.966669" style="fill: #298c8c; fill-opacity: 0.7"/>
    </g>
   </g>
   <g id="line2d_65">
    <g clip-path="url(#p3f21f8615c)">
     <use xlink:href="#m1e567f2fe6" x="95.129363" y="57.119628" style="fill: #298c8c; fill-opacity: 0.7"/>
    </g>
   </g>
   <g id="line2d_66">
    <g clip-path="url(#p3f21f8615c)">
     <use xlink:href="#m4a0786f1e1" x="74.690157" y="75.165185" style="fill: #a00000; fill-opacity: 0.7"/>
    </g>
   </g>
   <g id="patch_3">
    <path d="M 15.88125 112.1 
L 15.88125 7.2 
" style="fill: none; stroke: #000000; stroke-width: 0.5; stroke-linejoin: miter; stroke-linecap: square"/>
   </g>
   <g id="patch_4">
    <path d="M 15.88125 112.1 
L 151.17125 112.1 
" style="fill: none; stroke: #000000; stroke-width: 0.5; stroke-linejoin: miter; stroke-linecap: square"/>
   </g>
   <g id="legend_1">
    <g id="line2d_67">
     <g>
      <use xlink:href="#m1e567f2fe6" x="25.38125" y="13.749219" style="fill: #298c8c; fill-opacity: 0.7"/>
     </g>
    </g>
    <g id="text_12">
     <!-- On full bound -->
     <g transform="translate(34.38125 15.499219) scale(0.05 -0.05)">
      <defs>
       <path id="DejaVuSans-4f" d="M 2522 4238 
Q 1834 4238 1429 3725 
Q 1025 3213 1025 2328 
Q 1025 1447 1429 934 
Q 1834 422 2522 422 
Q 3209 422 3611 934 
Q 4013 1447 4013 2328 
Q 4013 3213 3611 3725 
Q 3209 4238 2522 4238 
z
M 2522 4750 
Q 3503 4750 4090 4092 
Q 4678 3434 4678 2328 
Q 4678 1225 4090 567 
Q 3503 -91 2522 -91 
Q 1538 -91 948 565 
Q 359 1222 359 2328 
Q 359 3434 948 4092 
Q 1538 4750 2522 4750 
z
" transform="scale(0.015625)"/>
       <path id="DejaVuSans-6e" d="M 3513 2113 
L 3513 0 
L 2938 0 
L 2938 2094 
Q 2938 2591 2744 2837 
Q 2550 3084 2163 3084 
Q 1697 3084 1428 2787 
Q 1159 2491 1159 1978 
L 1159 0 
L 581 0 
L 581 3500 
L 1159 3500 
L 1159 2956 
Q 1366 3272 1645 3428 
Q 1925 3584 2291 3584 
Q 2894 3584 3203 3211 
Q 3513 2838 3513 2113 
z
" transform="scale(0.015625)"/>
       <path id="DejaVuSans-20" transform="scale(0.015625)"/>
       <path id="DejaVuSans-66" d="M 2375 4863 
L 2375 4384 
L 1825 4384 
Q 1516 4384 1395 4259 
Q 1275 4134 1275 3809 
L 1275 3500 
L 2222 3500 
L 2222 3053 
L 1275 3053 
L 1275 0 
L 697 0 
L 697 3053 
L 147 3053 
L 147 3500 
L 697 3500 
L 697 3744 
Q 697 4328 969 4595 
Q 1241 4863 1831 4863 
L 2375 4863 
z
" transform="scale(0.015625)"/>
       <path id="DejaVuSans-75" d="M 544 1381 
L 544 3500 
L 1119 3500 
L 1119 1403 
Q 1119 906 1312 657 
Q 1506 409 1894 409 
Q 2359 409 2629 706 
Q 2900 1003 2900 1516 
L 2900 3500 
L 3475 3500 
L 3475 0 
L 2900 0 
L 2900 538 
Q 2691 219 2414 64 
Q 2138 -91 1772 -91 
Q 1169 -91 856 284 
Q 544 659 544 1381 
z
M 1991 3584 
L 1991 3584 
z
" transform="scale(0.015625)"/>
       <path id="DejaVuSans-6c" d="M 603 4863 
L 1178 4863 
L 1178 0 
L 603 0 
L 603 4863 
z
" transform="scale(0.015625)"/>
       <path id="DejaVuSans-62" d="M 3116 1747 
Q 3116 2381 2855 2742 
Q 2594 3103 2138 3103 
Q 1681 3103 1420 2742 
Q 1159 2381 1159 1747 
Q 1159 1113 1420 752 
Q 1681 391 2138 391 
Q 2594 391 2855 752 
Q 3116 1113 3116 1747 
z
M 1159 2969 
Q 1341 3281 1617 3432 
Q 1894 3584 2278 3584 
Q 2916 3584 3314 3078 
Q 3713 2572 3713 1747 
Q 3713 922 3314 415 
Q 2916 -91 2278 -91 
Q 1894 -91 1617 61 
Q 1341 213 1159 525 
L 1159 0 
L 581 0 
L 581 4863 
L 1159 4863 
L 1159 2969 
z
" transform="scale(0.015625)"/>
       <path id="DejaVuSans-6f" d="M 1959 3097 
Q 1497 3097 1228 2736 
Q 959 2375 959 1747 
Q 959 1119 1226 758 
Q 1494 397 1959 397 
Q 2419 397 2687 759 
Q 2956 1122 2956 1747 
Q 2956 2369 2687 2733 
Q 2419 3097 1959 3097 
z
M 1959 3584 
Q 2709 3584 3137 3096 
Q 3566 2609 3566 1747 
Q 3566 888 3137 398 
Q 2709 -91 1959 -91 
Q 1206 -91 779 398 
Q 353 888 353 1747 
Q 353 2609 779 3096 
Q 1206 3584 1959 3584 
z
" transform="scale(0.015625)"/>
       <path id="DejaVuSans-64" d="M 2906 2969 
L 2906 4863 
L 3481 4863 
L 3481 0 
L 2906 0 
L 2906 525 
Q 2725 213 2448 61 
Q 2172 -91 1784 -91 
Q 1150 -91 751 415 
Q 353 922 353 1747 
Q 353 2572 751 3078 
Q 1150 3584 1784 3584 
Q 2172 3584 2448 3432 
Q 2725 3281 2906 2969 
z
M 947 1747 
Q 947 1113 1208 752 
Q 1469 391 1925 391 
Q 2381 391 2643 752 
Q 2906 1113 2906 1747 
Q 2906 2381 2643 2742 
Q 2381 3103 1925 3103 
Q 1469 3103 1208 2742 
Q 947 2381 947 1747 
z
" transform="scale(0.015625)"/>
      </defs>
      <use xlink:href="#DejaVuSans-4f"/>
      <use xlink:href="#DejaVuSans-6e" x="78.710938"/>
      <use xlink:href="#DejaVuSans-20" x="142.089844"/>
      <use xlink:href="#DejaVuSans-66" x="173.876953"/>
      <use xlink:href="#DejaVuSans-75" x="209.082031"/>
      <use xlink:href="#DejaVuSans-6c" x="272.460938"/>
      <use xlink:href="#DejaVuSans-6c" x="300.244141"/>
      <use xlink:href="#DejaVuSans-20" x="328.027344"/>
      <use xlink:href="#DejaVuSans-62" x="359.814453"/>
      <use xlink:href="#DejaVuSans-6f" x="423.291016"/>
      <use xlink:href="#DejaVuSans-75" x="484.472656"/>
      <use xlink:href="#DejaVuSans-6e" x="547.851562"/>
      <use xlink:href="#DejaVuSans-64" x="611.230469"/>
     </g>
    </g>
    <g id="line2d_68">
     <g>
      <use xlink:href="#m4a0786f1e1" x="25.38125" y="21.088281" style="fill: #a00000; fill-opacity: 0.7"/>
     </g>
    </g>
    <g id="text_13">
     <!-- On heuristic bound -->
     <g transform="translate(34.38125 22.838281) scale(0.05 -0.05)">
      <defs>
       <path id="DejaVuSans-68" d="M 3513 2113 
L 3513 0 
L 2938 0 
L 2938 2094 
Q 2938 2591 2744 2837 
Q 2550 3084 2163 3084 
Q 1697 3084 1428 2787 
Q 1159 2491 1159 1978 
L 1159 0 
L 581 0 
L 581 4863 
L 1159 4863 
L 1159 2956 
Q 1366 3272 1645 3428 
Q 1925 3584 2291 3584 
Q 2894 3584 3203 3211 
Q 3513 2838 3513 2113 
z
" transform="scale(0.015625)"/>
       <path id="DejaVuSans-65" d="M 3597 1894 
L 3597 1613 
L 953 1613 
Q 991 1019 1311 708 
Q 1631 397 2203 397 
Q 2534 397 2845 478 
Q 3156 559 3463 722 
L 3463 178 
Q 3153 47 2828 -22 
Q 2503 -91 2169 -91 
Q 1331 -91 842 396 
Q 353 884 353 1716 
Q 353 2575 817 3079 
Q 1281 3584 2069 3584 
Q 2775 3584 3186 3129 
Q 3597 2675 3597 1894 
z
M 3022 2063 
Q 3016 2534 2758 2815 
Q 2500 3097 2075 3097 
Q 1594 3097 1305 2825 
Q 1016 2553 972 2059 
L 3022 2063 
z
" transform="scale(0.015625)"/>
       <path id="DejaVuSans-72" d="M 2631 2963 
Q 2534 3019 2420 3045 
Q 2306 3072 2169 3072 
Q 1681 3072 1420 2755 
Q 1159 2438 1159 1844 
L 1159 0 
L 581 0 
L 581 3500 
L 1159 3500 
L 1159 2956 
Q 1341 3275 1631 3429 
Q 1922 3584 2338 3584 
Q 2397 3584 2469 3576 
Q 2541 3569 2628 3553 
L 2631 2963 
z
" transform="scale(0.015625)"/>
       <path id="DejaVuSans-69" d="M 603 3500 
L 1178 3500 
L 1178 0 
L 603 0 
L 603 3500 
z
M 603 4863 
L 1178 4863 
L 1178 4134 
L 603 4134 
L 603 4863 
z
" transform="scale(0.015625)"/>
       <path id="DejaVuSans-73" d="M 2834 3397 
L 2834 2853 
Q 2591 2978 2328 3040 
Q 2066 3103 1784 3103 
Q 1356 3103 1142 2972 
Q 928 2841 928 2578 
Q 928 2378 1081 2264 
Q 1234 2150 1697 2047 
L 1894 2003 
Q 2506 1872 2764 1633 
Q 3022 1394 3022 966 
Q 3022 478 2636 193 
Q 2250 -91 1575 -91 
Q 1294 -91 989 -36 
Q 684 19 347 128 
L 347 722 
Q 666 556 975 473 
Q 1284 391 1588 391 
Q 1994 391 2212 530 
Q 2431 669 2431 922 
Q 2431 1156 2273 1281 
Q 2116 1406 1581 1522 
L 1381 1569 
Q 847 1681 609 1914 
Q 372 2147 372 2553 
Q 372 3047 722 3315 
Q 1072 3584 1716 3584 
Q 2034 3584 2315 3537 
Q 2597 3491 2834 3397 
z
" transform="scale(0.015625)"/>
       <path id="DejaVuSans-74" d="M 1172 4494 
L 1172 3500 
L 2356 3500 
L 2356 3053 
L 1172 3053 
L 1172 1153 
Q 1172 725 1289 603 
Q 1406 481 1766 481 
L 2356 481 
L 2356 0 
L 1766 0 
Q 1100 0 847 248 
Q 594 497 594 1153 
L 594 3053 
L 172 3053 
L 172 3500 
L 594 3500 
L 594 4494 
L 1172 4494 
z
" transform="scale(0.015625)"/>
       <path id="DejaVuSans-63" d="M 3122 3366 
L 3122 2828 
Q 2878 2963 2633 3030 
Q 2388 3097 2138 3097 
Q 1578 3097 1268 2742 
Q 959 2388 959 1747 
Q 959 1106 1268 751 
Q 1578 397 2138 397 
Q 2388 397 2633 464 
Q 2878 531 3122 666 
L 3122 134 
Q 2881 22 2623 -34 
Q 2366 -91 2075 -91 
Q 1284 -91 818 406 
Q 353 903 353 1747 
Q 353 2603 823 3093 
Q 1294 3584 2113 3584 
Q 2378 3584 2631 3529 
Q 2884 3475 3122 3366 
z
" transform="scale(0.015625)"/>
      </defs>
      <use xlink:href="#DejaVuSans-4f"/>
      <use xlink:href="#DejaVuSans-6e" x="78.710938"/>
      <use xlink:href="#DejaVuSans-20" x="142.089844"/>
      <use xlink:href="#DejaVuSans-68" x="173.876953"/>
      <use xlink:href="#DejaVuSans-65" x="237.255859"/>
      <use xlink:href="#DejaVuSans-75" x="298.779297"/>
      <use xlink:href="#DejaVuSans-72" x="362.158203"/>
      <use xlink:href="#DejaVuSans-69" x="403.271484"/>
      <use xlink:href="#DejaVuSans-73" x="431.054688"/>
      <use xlink:href="#DejaVuSans-74" x="483.154297"/>
      <use xlink:href="#DejaVuSans-69" x="522.363281"/>
      <use xlink:href="#DejaVuSans-63" x="550.146484"/>
      <use xlink:href="#DejaVuSans-20" x="605.126953"/>
      <use xlink:href="#DejaVuSans-62" x="636.914062"/>
      <use xlink:href="#DejaVuSans-6f" x="700.390625"/>
      <use xlink:href="#DejaVuSans-75" x="761.572266"/>
      <use xlink:href="#DejaVuSans-6e" x="824.951172"/>
      <use xlink:href="#DejaVuSans-64" x="888.330078"/>
     </g>
    </g>
    <g id="line2d_69">
     <g>
      <use xlink:href="#mf48abd7487" x="25.38125" y="28.427344" style="fill: #ffa500; fill-opacity: 0.7"/>
     </g>
    </g>
    <g id="text_14">
     <!-- Neither -->
     <g transform="translate(34.38125 30.177344) scale(0.05 -0.05)">
      <defs>
       <path id="DejaVuSans-4e" d="M 628 4666 
L 1478 4666 
L 3547 763 
L 3547 4666 
L 4159 4666 
L 4159 0 
L 3309 0 
L 1241 3903 
L 1241 0 
L 628 0 
L 628 4666 
z
" transform="scale(0.015625)"/>
      </defs>
      <use xlink:href="#DejaVuSans-4e"/>
      <use xlink:href="#DejaVuSans-65" x="74.804688"/>
      <use xlink:href="#DejaVuSans-69" x="136.328125"/>
      <use xlink:href="#DejaVuSans-74" x="164.111328"/>
      <use xlink:href="#DejaVuSans-68" x="203.320312"/>
      <use xlink:href="#DejaVuSans-65" x="266.699219"/>
      <use xlink:href="#DejaVuSans-72" x="328.222656"/>
     </g>
    </g>
   </g>
   <g id="legend_2">
    <g id="line2d_70">
     <path d="M 75.315 97.471094 
L 80.315 97.471094 
L 85.315 97.471094 
" style="fill: none; stroke: #000000; stroke-width: 0.8; stroke-linecap: square"/>
    </g>
    <g id="text_15">
     <!-- Full bound theory -->
     <g transform="translate(89.315 99.221094) scale(0.05 -0.05)">
      <defs>
       <path id="DejaVuSans-46" d="M 628 4666 
L 3309 4666 
L 3309 4134 
L 1259 4134 
L 1259 2759 
L 3109 2759 
L 3109 2228 
L 1259 2228 
L 1259 0 
L 628 0 
L 628 4666 
z
" transform="scale(0.015625)"/>
       <path id="DejaVuSans-79" d="M 2059 -325 
Q 1816 -950 1584 -1140 
Q 1353 -1331 966 -1331 
L 506 -1331 
L 506 -850 
L 844 -850 
Q 1081 -850 1212 -737 
Q 1344 -625 1503 -206 
L 1606 56 
L 191 3500 
L 800 3500 
L 1894 763 
L 2988 3500 
L 3597 3500 
L 2059 -325 
z
" transform="scale(0.015625)"/>
      </defs>
      <use xlink:href="#DejaVuSans-46"/>
      <use xlink:href="#DejaVuSans-75" x="52.019531"/>
      <use xlink:href="#DejaVuSans-6c" x="115.398438"/>
      <use xlink:href="#DejaVuSans-6c" x="143.181641"/>
      <use xlink:href="#DejaVuSans-20" x="170.964844"/>
      <use xlink:href="#DejaVuSans-62" x="202.751953"/>
      <use xlink:href="#DejaVuSans-6f" x="266.228516"/>
      <use xlink:href="#DejaVuSans-75" x="327.410156"/>
      <use xlink:href="#DejaVuSans-6e" x="390.789062"/>
      <use xlink:href="#DejaVuSans-64" x="454.167969"/>
      <use xlink:href="#DejaVuSans-20" x="517.644531"/>
      <use xlink:href="#DejaVuSans-74" x="549.431641"/>
      <use xlink:href="#DejaVuSans-68" x="588.640625"/>
      <use xlink:href="#DejaVuSans-65" x="652.019531"/>
      <use xlink:href="#DejaVuSans-6f" x="713.542969"/>
      <use xlink:href="#DejaVuSans-72" x="774.724609"/>
      <use xlink:href="#DejaVuSans-79" x="815.837891"/>
     </g>
    </g>
    <g id="line2d_71">
     <path d="M 75.315 104.810156 
L 80.315 104.810156 
L 85.315 104.810156 
" style="fill: none; stroke-dasharray: 2.96,1.28; stroke-dashoffset: 0; stroke: #000000; stroke-width: 0.8"/>
    </g>
    <g id="text_16">
     <!-- Heuristic bound theory -->
     <g transform="translate(89.315 106.560156) scale(0.05 -0.05)">
      <defs>
       <path id="DejaVuSans-48" d="M 628 4666 
L 1259 4666 
L 1259 2753 
L 3553 2753 
L 3553 4666 
L 4184 4666 
L 4184 0 
L 3553 0 
L 3553 2222 
L 1259 2222 
L 1259 0 
L 628 0 
L 628 4666 
z
" transform="scale(0.015625)"/>
      </defs>
      <use xlink:href="#DejaVuSans-48"/>
      <use xlink:href="#DejaVuSans-65" x="75.195312"/>
      <use xlink:href="#DejaVuSans-75" x="136.71875"/>
      <use xlink:href="#DejaVuSans-72" x="200.097656"/>
      <use xlink:href="#DejaVuSans-69" x="241.210938"/>
      <use xlink:href="#DejaVuSans-73" x="268.994141"/>
      <use xlink:href="#DejaVuSans-74" x="321.09375"/>
      <use xlink:href="#DejaVuSans-69" x="360.302734"/>
      <use xlink:href="#DejaVuSans-63" x="388.085938"/>
      <use xlink:href="#DejaVuSans-20" x="443.066406"/>
      <use xlink:href="#DejaVuSans-62" x="474.853516"/>
      <use xlink:href="#DejaVuSans-6f" x="538.330078"/>
      <use xlink:href="#DejaVuSans-75" x="599.511719"/>
      <use xlink:href="#DejaVuSans-6e" x="662.890625"/>
      <use xlink:href="#DejaVuSans-64" x="726.269531"/>
      <use xlink:href="#DejaVuSans-20" x="789.746094"/>
      <use xlink:href="#DejaVuSans-74" x="821.533203"/>
      <use xlink:href="#DejaVuSans-68" x="860.742188"/>
      <use xlink:href="#DejaVuSans-65" x="924.121094"/>
      <use xlink:href="#DejaVuSans-6f" x="985.644531"/>
      <use xlink:href="#DejaVuSans-72" x="1046.826172"/>
      <use xlink:href="#DejaVuSans-79" x="1087.939453"/>
     </g>
    </g>
   </g>
  </g>
 </g>
 <defs>
  <clipPath id="p3f21f8615c">
   <rect x="15.88125" y="7.2" width="135.29" height="104.9"/>
  </clipPath>
 </defs>
</svg>
