<?xml version="1.0" encoding="utf-8" standalone="no"?>
<!DOCTYPE svg PUBLIC "-//W3C//DTD SVG 1.1//EN"
  "http://www.w3.org/Graphics/SVG/1.1/DTD/svg11.dtd">
<svg xmlns:xlink="http://www.w3.org/1999/xlink" width="144.00125pt" height="122.439062pt" viewBox="0 0 144.00125 122.439062" xmlns="http://www.w3.org/2000/svg" version="1.1">
 <metadata>
  <rdf:RDF xmlns:dc="http://purl.org/dc/elements/1.1/" xmlns:cc="http://creativecommons.org/ns#" xmlns:rdf="http://www.w3.org/1999/02/22-rdf-syntax-ns#">
   <cc:Work>
    <dc:type rdf:resource="http://purl.org/dc/dcmitype/StillImage"/>
    <dc:date>2026-04-17T16:53:13.593201</dc:date>
    <dc:format>image/svg+xml</dc:format>
    <dc:creator>
     <cc:Agent>
      <dc:title>Matplotlib v3.6.2, https://matplotlib.org/</dc:title>
     </cc:Agent>
    </dc:creator>
   </cc:Work>
  </rdf:RDF>
 </metadata>
 <defs>
  <style type="text/css">*{stroke-linejoin: round; stroke-linecap: butt}</style>
 </defs>
 <g id="figure_1">
  <g id="patch_1">
   <path d="M 0 122.439062 
L 144.00125 122.439062 
L 144.00125 0 
L 0 0 
z
" style="fill: #ffffff"/>
  </g>
  <g id="axes_1">
   <g id="patch_2">
    <path d="M 15.88125 104.9 
L 136.80125 104.9 
L 136.80125 7.2 
L 15.88125 7.2 
z
" style="fill: #ffffff"/>
   </g>
   <g id="matplotlib.axis_1">
    <g id="xtick_1">
     <g id="line2d_1">
      <defs>
       <path id="m5bd88a386c" d="M 0 0 
L 0 2 
" style="stroke: #000000; stroke-width: 0.5"/>
      </defs>
      <g>
       <use xlink:href="#m5bd88a386c" x="21.377426" y="104.9" style="stroke: #000000; stroke-width: 0.5"/>
      </g>
     </g>
     <g id="text_1">
      <!-- 0.0 -->
      <g transform="translate(17.401645 114.199219) scale(0.05 -0.05)">
       <defs>
        <path id="DejaVuSans-30" d="M 2034 4250 
Q 1547 4250 1301 3770 
Q 1056 3291 1056 2328 
Q 1056 1369 1301 889 
Q 1547 409 2034 409 
Q 2525 409 2770 889 
Q 3016 1369 3016 2328 
Q 3016 3291 2770 3770 
Q 2525 4250 2034 4250 
z
M 2034 4750 
Q 2819 4750 3233 4129 
Q 3647 3509 3647 2328 
Q 3647 1150 3233 529 
Q 2819 -91 2034 -91 
Q 1250 -91 836 529 
Q 422 1150 422 2328 
Q 422 3509 836 4129 
Q 1250 4750 2034 4750 
z
" transform="scale(0.015625)"/>
        <path id="DejaVuSans-2e" d="M 684 794 
L 1344 794 
L 1344 0 
L 684 0 
L 684 794 
z
" transform="scale(0.015625)"/>
       </defs>
       <use xlink:href="#DejaVuSans-30"/>
       <use xlink:href="#DejaVuSans-2e" x="63.623047"/>
       <use xlink:href="#DejaVuSans-30" x="95.410156"/>
      </g>
     </g>
    </g>
    <g id="xtick_2">
     <g id="line2d_2">
      <g>
       <use xlink:href="#m5bd88a386c" x="43.362944" y="104.9" style="stroke: #000000; stroke-width: 0.5"/>
      </g>
     </g>
     <g id="text_2">
      <!-- 0.2 -->
      <g transform="translate(39.387163 114.199219) scale(0.05 -0.05)">
       <defs>
        <path id="DejaVuSans-32" d="M 1228 531 
L 3431 531 
L 3431 0 
L 469 0 
L 469 531 
Q 828 903 1448 1529 
Q 2069 2156 2228 2338 
Q 2531 2678 2651 2914 
Q 2772 3150 2772 3378 
Q 2772 3750 2511 3984 
Q 2250 4219 1831 4219 
Q 1534 4219 1204 4116 
Q 875 4013 500 3803 
L 500 4441 
Q 881 4594 1212 4672 
Q 1544 4750 1819 4750 
Q 2544 4750 2975 4387 
Q 3406 4025 3406 3419 
Q 3406 3131 3298 2873 
Q 3191 2616 2906 2266 
Q 2828 2175 2409 1742 
Q 1991 1309 1228 531 
z
" transform="scale(0.015625)"/>
       </defs>
       <use xlink:href="#DejaVuSans-30"/>
       <use xlink:href="#DejaVuSans-2e" x="63.623047"/>
       <use xlink:href="#DejaVuSans-32" x="95.410156"/>
      </g>
     </g>
    </g>
    <g id="xtick_3">
     <g id="line2d_3">
      <g>
       <use xlink:href="#m5bd88a386c" x="65.348461" y="104.9" style="stroke: #000000; stroke-width: 0.5"/>
      </g>
     </g>
     <g id="text_3">
      <!-- 0.4 -->
      <g transform="translate(61.37268 114.199219) scale(0.05 -0.05)">
       <defs>
        <path id="DejaVuSans-34" d="M 2419 4116 
L 825 1625 
L 2419 1625 
L 2419 4116 
z
M 2253 4666 
L 3047 4666 
L 3047 1625 
L 3713 1625 
L 3713 1100 
L 3047 1100 
L 3047 0 
L 2419 0 
L 2419 1100 
L 313 1100 
L 313 1709 
L 2253 4666 
z
" transform="scale(0.015625)"/>
       </defs>
       <use xlink:href="#DejaVuSans-30"/>
       <use xlink:href="#DejaVuSans-2e" x="63.623047"/>
       <use xlink:href="#DejaVuSans-34" x="95.410156"/>
      </g>
     </g>
    </g>
    <g id="xtick_4">
     <g id="line2d_4">
      <g>
       <use xlink:href="#m5bd88a386c" x="87.333979" y="104.9" style="stroke: #000000; stroke-width: 0.5"/>
      </g>
     </g>
     <g id="text_4">
      <!-- 0.6 -->
      <g transform="translate(83.358198 114.199219) scale(0.05 -0.05)">
       <defs>
        <path id="DejaVuSans-36" d="M 2113 2584 
Q 1688 2584 1439 2293 
Q 1191 2003 1191 1497 
Q 1191 994 1439 701 
Q 1688 409 2113 409 
Q 2538 409 2786 701 
Q 3034 994 3034 1497 
Q 3034 2003 2786 2293 
Q 2538 2584 2113 2584 
z
M 3366 4563 
L 3366 3988 
Q 3128 4100 2886 4159 
Q 2644 4219 2406 4219 
Q 1781 4219 1451 3797 
Q 1122 3375 1075 2522 
Q 1259 2794 1537 2939 
Q 1816 3084 2150 3084 
Q 2853 3084 3261 2657 
Q 3669 2231 3669 1497 
Q 3669 778 3244 343 
Q 2819 -91 2113 -91 
Q 1303 -91 875 529 
Q 447 1150 447 2328 
Q 447 3434 972 4092 
Q 1497 4750 2381 4750 
Q 2619 4750 2861 4703 
Q 3103 4656 3366 4563 
z
" transform="scale(0.015625)"/>
       </defs>
       <use xlink:href="#DejaVuSans-30"/>
       <use xlink:href="#DejaVuSans-2e" x="63.623047"/>
       <use xlink:href="#DejaVuSans-36" x="95.410156"/>
      </g>
     </g>
    </g>
    <g id="xtick_5">
     <g id="line2d_5">
      <g>
       <use xlink:href="#m5bd88a386c" x="109.319497" y="104.9" style="stroke: #000000; stroke-width: 0.5"/>
      </g>
     </g>
     <g id="text_5">
      <!-- 0.8 -->
      <g transform="translate(105.343715 114.199219) scale(0.05 -0.05)">
       <defs>
        <path id="DejaVuSans-38" d="M 2034 2216 
Q 1584 2216 1326 1975 
Q 1069 1734 1069 1313 
Q 1069 891 1326 650 
Q 1584 409 2034 409 
Q 2484 409 2743 651 
Q 3003 894 3003 1313 
Q 3003 1734 2745 1975 
Q 2488 2216 2034 2216 
z
M 1403 2484 
Q 997 2584 770 2862 
Q 544 3141 544 3541 
Q 544 4100 942 4425 
Q 1341 4750 2034 4750 
Q 2731 4750 3128 4425 
Q 3525 4100 3525 3541 
Q 3525 3141 3298 2862 
Q 3072 2584 2669 2484 
Q 3125 2378 3379 2068 
Q 3634 1759 3634 1313 
Q 3634 634 3220 271 
Q 2806 -91 2034 -91 
Q 1263 -91 848 271 
Q 434 634 434 1313 
Q 434 1759 690 2068 
Q 947 2378 1403 2484 
z
M 1172 3481 
Q 1172 3119 1398 2916 
Q 1625 2713 2034 2713 
Q 2441 2713 2670 2916 
Q 2900 3119 2900 3481 
Q 2900 3844 2670 4047 
Q 2441 4250 2034 4250 
Q 1625 4250 1398 4047 
Q 1172 3844 1172 3481 
z
" transform="scale(0.015625)"/>
       </defs>
       <use xlink:href="#DejaVuSans-30"/>
       <use xlink:href="#DejaVuSans-2e" x="63.623047"/>
       <use xlink:href="#DejaVuSans-38" x="95.410156"/>
      </g>
     </g>
    </g>
    <g id="xtick_6">
     <g id="line2d_6">
      <g>
       <use xlink:href="#m5bd88a386c" x="131.305014" y="104.9" style="stroke: #000000; stroke-width: 0.5"/>
      </g>
     </g>
     <g id="text_6">
      <!-- 1.0 -->
      <g transform="translate(127.329233 114.199219) scale(0.05 -0.05)">
       <defs>
        <path id="DejaVuSans-31" d="M 794 531 
L 1825 531 
L 1825 4091 
L 703 3866 
L 703 4441 
L 1819 4666 
L 2450 4666 
L 2450 531 
L 3481 531 
L 3481 0 
L 794 0 
L 794 531 
z
" transform="scale(0.015625)"/>
       </defs>
       <use xlink:href="#DejaVuSans-31"/>
       <use xlink:href="#DejaVuSans-2e" x="63.623047"/>
       <use xlink:href="#DejaVuSans-30" x="95.410156"/>
      </g>
     </g>
    </g>
   </g>
   <g id="matplotlib.axis_2">
    <g id="ytick_1">
     <g id="line2d_7">
      <defs>
       <path id="m7af9592432" d="M 0 0 
L -2 0 
" style="stroke: #000000; stroke-width: 0.5"/>
      </defs>
      <g>
       <use xlink:href="#m7af9592432" x="15.88125" y="99.757895" style="stroke: #000000; stroke-width: 0.5"/>
      </g>
     </g>
     <g id="text_7">
      <!-- 0 -->
      <g transform="translate(7.2 101.657504) scale(0.05 -0.05)">
       <use xlink:href="#DejaVuSans-30"/>
      </g>
     </g>
    </g>
    <g id="ytick_2">
     <g id="line2d_8">
      <g>
       <use xlink:href="#m7af9592432" x="15.88125" y="79.189474" style="stroke: #000000; stroke-width: 0.5"/>
      </g>
     </g>
     <g id="text_8">
      <!-- 2 -->
      <g transform="translate(7.2 81.089083) scale(0.05 -0.05)">
       <use xlink:href="#DejaVuSans-32"/>
      </g>
     </g>
    </g>
    <g id="ytick_3">
     <g id="line2d_9">
      <g>
       <use xlink:href="#m7af9592432" x="15.88125" y="58.621053" style="stroke: #000000; stroke-width: 0.5"/>
      </g>
     </g>
     <g id="text_9">
      <!-- 4 -->
      <g transform="translate(7.2 60.520662) scale(0.05 -0.05)">
       <use xlink:href="#DejaVuSans-34"/>
      </g>
     </g>
    </g>
    <g id="ytick_4">
     <g id="line2d_10">
      <g>
       <use xlink:href="#m7af9592432" x="15.88125" y="38.052632" style="stroke: #000000; stroke-width: 0.5"/>
      </g>
     </g>
     <g id="text_10">
      <!-- 6 -->
      <g transform="translate(7.2 39.952241) scale(0.05 -0.05)">
       <use xlink:href="#DejaVuSans-36"/>
      </g>
     </g>
    </g>
    <g id="ytick_5">
     <g id="line2d_11">
      <g>
       <use xlink:href="#m7af9592432" x="15.88125" y="17.484211" style="stroke: #000000; stroke-width: 0.5"/>
      </g>
     </g>
     <g id="text_11">
      <!-- 8 -->
      <g transform="translate(7.2 19.38382) scale(0.05 -0.05)">
       <use xlink:href="#DejaVuSans-38"/>
      </g>
     </g>
    </g>
   </g>
   <g id="line2d_12">
    <path d="M 21.377641 99.706474 
L 21.501099 98.523789 
L 21.850133 97.341105 
L 22.449937 96.107 
L 23.321676 94.821474 
L 24.531466 93.433105 
L 26.178365 91.890474 
L 28.390136 90.142158 
L 31.233734 88.188158 
L 35.092867 85.822789 
L 40.502731 82.788947 
L 52.101251 76.618421 
L 60.536378 71.990526 
L 66.554799 68.442474 
L 71.623503 65.202947 
L 76.047848 62.117684 
L 80.015689 59.083842 
L 83.618463 56.05 
L 86.878806 53.016158 
L 89.871093 49.930895 
L 92.652528 46.742789 
L 95.227369 43.451842 
L 97.63782 40.006632 
L 99.883937 36.407158 
L 101.99687 32.602 
L 103.998893 28.539737 
L 105.926696 24.117526 
L 107.765063 19.335368 
L 109.538767 14.090421 
L 111.248199 8.331263 
L 112.906332 1.955053 
L 113.604973 -1 
L 113.604973 -1 
" clip-path="url(#p6e07094e35)" style="fill: none; stroke: #000000; stroke-width: 0.8; stroke-linecap: square"/>
   </g>
   <g id="line2d_13">
    <path d="M 21.377614 99.706474 
L 21.494357 98.472368 
L 21.843509 97.186842 
L 22.447714 95.849895 
L 23.32579 94.461526 
L 24.537788 92.970316 
L 26.173411 91.324842 
L 28.282619 89.525105 
L 31.042962 87.468263 
L 34.746435 85.000053 
L 39.965095 81.811947 
L 50.352846 75.795684 
L 59.378254 70.447895 
L 65.626858 66.488474 
L 70.900714 62.889 
L 75.633469 59.392368 
L 79.926574 55.947158 
L 83.928082 52.450526 
L 87.649738 48.902474 
L 91.155166 45.251579 
L 94.450653 41.497842 
L 97.584083 37.589842 
L 100.554397 33.527579 
L 103.362078 29.311053 
L 106.038001 24.888842 
L 108.575254 20.260947 
L 110.968106 15.427368 
L 113.211857 10.388105 
L 115.302869 5.143158 
L 117.255903 -0.358895 
L 117.468635 -1 
L 117.468635 -1 
" clip-path="url(#p6e07094e35)" style="fill: none; stroke-dasharray: 2.96,1.28; stroke-dashoffset: 0; stroke: #000000; stroke-width: 0.8"/>
   </g>
   <g id="line2d_14">
    <defs>
     <path id="m9815647ccc" d="M 0 1.5 
C 0.397805 1.5 0.77937 1.341951 1.06066 1.06066 
C 1.341951 0.77937 1.5 0.397805 1.5 0 
C 1.5 -0.397805 1.341951 -0.77937 1.06066 -1.06066 
C 0.77937 -1.341951 0.397805 -1.5 0 -1.5 
C -0.397805 -1.5 -0.77937 -1.341951 -1.06066 -1.06066 
C -1.341951 -0.77937 -1.5 -0.397805 -1.5 0 
C -1.5 0.397805 -1.341951 0.77937 -1.06066 1.06066 
C -0.77937 1.341951 -0.397805 1.5 0 1.5 
z
"/>
    </defs>
    <g clip-path="url(#p6e07094e35)">
     <use xlink:href="#m9815647ccc" x="35.282267" y="87.25513" style="fill: #298c8c; fill-opacity: 0.7"/>
    </g>
   </g>
   <g id="line2d_15">
    <defs>
     <path id="mb35e8c2f36" d="M 0 1.5 
C 0.397805 1.5 0.77937 1.341951 1.06066 1.06066 
C 1.341951 0.77937 1.5 0.397805 1.5 0 
C 1.5 -0.397805 1.341951 -0.77937 1.06066 -1.06066 
C 0.77937 -1.341951 0.397805 -1.5 0 -1.5 
C -0.397805 -1.5 -0.77937 -1.341951 -1.06066 -1.06066 
C -1.341951 -0.77937 -1.5 -0.397805 -1.5 0 
C -1.5 0.397805 -1.341951 0.77937 -1.06066 1.06066 
C -0.77937 1.341951 -0.397805 1.5 0 1.5 
z
"/>
    </defs>
    <g clip-path="url(#p6e07094e35)">
     <use xlink:href="#mb35e8c2f36" x="49.045352" y="81.056382" style="fill: #a00000; fill-opacity: 0.7"/>
    </g>
   </g>
   <g id="line2d_16">
    <g clip-path="url(#p6e07094e35)">
     <use xlink:href="#m9815647ccc" x="78.051803" y="58.9334" style="fill: #298c8c; fill-opacity: 0.7"/>
    </g>
   </g>
   <g id="line2d_17">
    <g clip-path="url(#p6e07094e35)">
     <use xlink:href="#mb35e8c2f36" x="99.848983" y="37.171066" style="fill: #a00000; fill-opacity: 0.7"/>
    </g>
   </g>
   <g id="line2d_18">
    <g clip-path="url(#p6e07094e35)">
     <use xlink:href="#mb35e8c2f36" x="112.758549" y="13.846969" style="fill: #a00000; fill-opacity: 0.7"/>
    </g>
   </g>
   <g id="line2d_19">
    <g clip-path="url(#p6e07094e35)">
     <use xlink:href="#mb35e8c2f36" x="76.37853" y="63.374698" style="fill: #a00000; fill-opacity: 0.7"/>
    </g>
   </g>
   <g id="line2d_20">
    <g clip-path="url(#p6e07094e35)">
     <use xlink:href="#mb35e8c2f36" x="49.277329" y="77.243671" style="fill: #a00000; fill-opacity: 0.7"/>
    </g>
   </g>
   <g id="line2d_21">
    <g clip-path="url(#p6e07094e35)">
     <use xlink:href="#mb35e8c2f36" x="109.267905" y="22.820046" style="fill: #a00000; fill-opacity: 0.7"/>
    </g>
   </g>
   <g id="line2d_22">
    <g clip-path="url(#p6e07094e35)">
     <use xlink:href="#mb35e8c2f36" x="42.492735" y="74.301147" style="fill: #a00000; fill-opacity: 0.7"/>
    </g>
   </g>
   <g id="line2d_23">
    <g clip-path="url(#p6e07094e35)">
     <use xlink:href="#m9815647ccc" x="39.161674" y="83.961489" style="fill: #298c8c; fill-opacity: 0.7"/>
    </g>
   </g>
   <g id="line2d_24">
    <g clip-path="url(#p6e07094e35)">
     <use xlink:href="#m9815647ccc" x="95.207111" y="47.788271" style="fill: #298c8c; fill-opacity: 0.7"/>
    </g>
   </g>
   <g id="line2d_25">
    <g clip-path="url(#p6e07094e35)">
     <use xlink:href="#mb35e8c2f36" x="68.434093" y="66.371922" style="fill: #a00000; fill-opacity: 0.7"/>
    </g>
   </g>
   <g id="line2d_26">
    <g clip-path="url(#p6e07094e35)">
     <use xlink:href="#mb35e8c2f36" x="92.028309" y="46.69213" style="fill: #a00000; fill-opacity: 0.7"/>
    </g>
   </g>
   <g id="line2d_27">
    <g clip-path="url(#p6e07094e35)">
     <use xlink:href="#m9815647ccc" x="102.980754" y="21.307356" style="fill: #298c8c; fill-opacity: 0.7"/>
    </g>
   </g>
   <g id="line2d_28">
    <defs>
     <path id="m378d4ed9d4" d="M 0 1.5 
C 0.397805 1.5 0.77937 1.341951 1.06066 1.06066 
C 1.341951 0.77937 1.5 0.397805 1.5 0 
C 1.5 -0.397805 1.341951 -0.77937 1.06066 -1.06066 
C 0.77937 -1.341951 0.397805 -1.5 0 -1.5 
C -0.397805 -1.5 -0.77937 -1.341951 -1.06066 -1.06066 
C -1.341951 -0.77937 -1.5 -0.397805 -1.5 0 
C -1.5 0.397805 -1.341951 0.77937 -1.06066 1.06066 
C -0.77937 1.341951 -0.397805 1.5 0 1.5 
z
"/>
    </defs>
    <g clip-path="url(#p6e07094e35)">
     <use xlink:href="#m378d4ed9d4" x="33.725183" y="82.610369" style="fill: #ffa500; fill-opacity: 0.7"/>
    </g>
   </g>
   <g id="line2d_29">
    <g clip-path="url(#p6e07094e35)">
     <use xlink:href="#m9815647ccc" x="56.522987" y="75.813693" style="fill: #298c8c; fill-opacity: 0.7"/>
    </g>
   </g>
   <g id="line2d_30">
    <g clip-path="url(#p6e07094e35)">
     <use xlink:href="#m9815647ccc" x="65.883238" y="70.632228" style="fill: #298c8c; fill-opacity: 0.7"/>
    </g>
   </g>
   <g id="line2d_31">
    <g clip-path="url(#p6e07094e35)">
     <use xlink:href="#mb35e8c2f36" x="57.881676" y="68.259056" style="fill: #a00000; fill-opacity: 0.7"/>
    </g>
   </g>
   <g id="line2d_32">
    <g clip-path="url(#p6e07094e35)">
     <use xlink:href="#m9815647ccc" x="71.604408" y="58.589423" style="fill: #298c8c; fill-opacity: 0.7"/>
    </g>
   </g>
   <g id="line2d_33">
    <g clip-path="url(#p6e07094e35)">
     <use xlink:href="#mb35e8c2f36" x="81.903875" y="53.919027" style="fill: #a00000; fill-opacity: 0.7"/>
    </g>
   </g>
   <g id="line2d_34">
    <g clip-path="url(#p6e07094e35)">
     <use xlink:href="#mb35e8c2f36" x="59.462864" y="70.962343" style="fill: #a00000; fill-opacity: 0.7"/>
    </g>
   </g>
   <g id="line2d_35">
    <g clip-path="url(#p6e07094e35)">
     <use xlink:href="#m9815647ccc" x="89.011439" y="52.302054" style="fill: #298c8c; fill-opacity: 0.7"/>
    </g>
   </g>
   <g id="line2d_36">
    <g clip-path="url(#p6e07094e35)">
     <use xlink:href="#mb35e8c2f36" x="78.237048" y="61.282648" style="fill: #a00000; fill-opacity: 0.7"/>
    </g>
   </g>
   <g id="line2d_37">
    <g clip-path="url(#p6e07094e35)">
     <use xlink:href="#mb35e8c2f36" x="77.726531" y="55.833958" style="fill: #a00000; fill-opacity: 0.7"/>
    </g>
   </g>
   <g id="line2d_38">
    <g clip-path="url(#p6e07094e35)">
     <use xlink:href="#mb35e8c2f36" x="45.797645" y="79.611754" style="fill: #a00000; fill-opacity: 0.7"/>
    </g>
   </g>
   <g id="line2d_39">
    <g clip-path="url(#p6e07094e35)">
     <use xlink:href="#mb35e8c2f36" x="73.02946" y="61.721338" style="fill: #a00000; fill-opacity: 0.7"/>
    </g>
   </g>
   <g id="line2d_40">
    <g clip-path="url(#p6e07094e35)">
     <use xlink:href="#m9815647ccc" x="108.509414" y="42.58043" style="fill: #298c8c; fill-opacity: 0.7"/>
    </g>
   </g>
   <g id="line2d_41">
    <g clip-path="url(#p6e07094e35)">
     <use xlink:href="#mb35e8c2f36" x="87.106038" y="54.040137" style="fill: #a00000; fill-opacity: 0.7"/>
    </g>
   </g>
   <g id="line2d_42">
    <g clip-path="url(#p6e07094e35)">
     <use xlink:href="#mb35e8c2f36" x="86.954342" y="56.319414" style="fill: #a00000; fill-opacity: 0.7"/>
    </g>
   </g>
   <g id="line2d_43">
    <g clip-path="url(#p6e07094e35)">
     <use xlink:href="#mb35e8c2f36" x="95.104607" y="40.98938" style="fill: #a00000; fill-opacity: 0.7"/>
    </g>
   </g>
   <g id="line2d_44">
    <g clip-path="url(#p6e07094e35)">
     <use xlink:href="#mb35e8c2f36" x="58.955452" y="71.972142" style="fill: #a00000; fill-opacity: 0.7"/>
    </g>
   </g>
   <g id="line2d_45">
    <g clip-path="url(#p6e07094e35)">
     <use xlink:href="#m9815647ccc" x="100.762209" y="22.849929" style="fill: #298c8c; fill-opacity: 0.7"/>
    </g>
   </g>
   <g id="line2d_46">
    <g clip-path="url(#p6e07094e35)">
     <use xlink:href="#m9815647ccc" x="62.239511" y="73.580113" style="fill: #298c8c; fill-opacity: 0.7"/>
    </g>
   </g>
   <g id="line2d_47">
    <g clip-path="url(#p6e07094e35)">
     <use xlink:href="#m9815647ccc" x="77.85105" y="54.458083" style="fill: #298c8c; fill-opacity: 0.7"/>
    </g>
   </g>
   <g id="line2d_48">
    <g clip-path="url(#p6e07094e35)">
     <use xlink:href="#mb35e8c2f36" x="63.242154" y="72.589221" style="fill: #a00000; fill-opacity: 0.7"/>
    </g>
   </g>
   <g id="line2d_49">
    <g clip-path="url(#p6e07094e35)">
     <use xlink:href="#m9815647ccc" x="88.085608" y="59.450013" style="fill: #298c8c; fill-opacity: 0.7"/>
    </g>
   </g>
   <g id="line2d_50">
    <g clip-path="url(#p6e07094e35)">
     <use xlink:href="#mb35e8c2f36" x="69.811639" y="63.557446" style="fill: #a00000; fill-opacity: 0.7"/>
    </g>
   </g>
   <g id="line2d_51">
    <g clip-path="url(#p6e07094e35)">
     <use xlink:href="#mb35e8c2f36" x="93.315189" y="45.964185" style="fill: #a00000; fill-opacity: 0.7"/>
    </g>
   </g>
   <g id="line2d_52">
    <g clip-path="url(#p6e07094e35)">
     <use xlink:href="#mb35e8c2f36" x="91.498739" y="46.09188" style="fill: #a00000; fill-opacity: 0.7"/>
    </g>
   </g>
   <g id="line2d_53">
    <g clip-path="url(#p6e07094e35)">
     <use xlink:href="#mb35e8c2f36" x="94.722942" y="52.170788" style="fill: #a00000; fill-opacity: 0.7"/>
    </g>
   </g>
   <g id="line2d_54">
    <g clip-path="url(#p6e07094e35)">
     <use xlink:href="#m9815647ccc" x="73.824621" y="59.959105" style="fill: #298c8c; fill-opacity: 0.7"/>
    </g>
   </g>
   <g id="line2d_55">
    <g clip-path="url(#p6e07094e35)">
     <use xlink:href="#mb35e8c2f36" x="77.996166" y="58.804612" style="fill: #a00000; fill-opacity: 0.7"/>
    </g>
   </g>
   <g id="line2d_56">
    <g clip-path="url(#p6e07094e35)">
     <use xlink:href="#mb35e8c2f36" x="75.805911" y="60.700341" style="fill: #a00000; fill-opacity: 0.7"/>
    </g>
   </g>
   <g id="line2d_57">
    <g clip-path="url(#p6e07094e35)">
     <use xlink:href="#m9815647ccc" x="88.466742" y="49.480735" style="fill: #298c8c; fill-opacity: 0.7"/>
    </g>
   </g>
   <g id="line2d_58">
    <g clip-path="url(#p6e07094e35)">
     <use xlink:href="#mb35e8c2f36" x="91.316572" y="49.427383" style="fill: #a00000; fill-opacity: 0.7"/>
    </g>
   </g>
   <g id="line2d_59">
    <g clip-path="url(#p6e07094e35)">
     <use xlink:href="#mb35e8c2f36" x="87.756472" y="55.979114" style="fill: #a00000; fill-opacity: 0.7"/>
    </g>
   </g>
   <g id="line2d_60">
    <g clip-path="url(#p6e07094e35)">
     <use xlink:href="#mb35e8c2f36" x="79.740315" y="37.931883" style="fill: #a00000; fill-opacity: 0.7"/>
    </g>
   </g>
   <g id="line2d_61">
    <g clip-path="url(#p6e07094e35)">
     <use xlink:href="#mb35e8c2f36" x="65.083556" y="66.00103" style="fill: #a00000; fill-opacity: 0.7"/>
    </g>
   </g>
   <g id="line2d_62">
    <g clip-path="url(#p6e07094e35)">
     <use xlink:href="#mb35e8c2f36" x="37.424563" y="84.889713" style="fill: #a00000; fill-opacity: 0.7"/>
    </g>
   </g>
   <g id="line2d_63">
    <g clip-path="url(#p6e07094e35)">
     <use xlink:href="#m378d4ed9d4" x="36.894088" y="77.924348" style="fill: #ffa500; fill-opacity: 0.7"/>
    </g>
   </g>
   <g id="line2d_64">
    <g clip-path="url(#p6e07094e35)">
     <use xlink:href="#m9815647ccc" x="69.386007" y="72.178108" style="fill: #298c8c; fill-opacity: 0.7"/>
    </g>
   </g>
   <g id="line2d_65">
    <g clip-path="url(#p6e07094e35)">
     <use xlink:href="#m9815647ccc" x="86.711923" y="53.693305" style="fill: #298c8c; fill-opacity: 0.7"/>
    </g>
   </g>
   <g id="line2d_66">
    <g clip-path="url(#p6e07094e35)">
     <use xlink:href="#mb35e8c2f36" x="68.443694" y="70.500273" style="fill: #a00000; fill-opacity: 0.7"/>
    </g>
   </g>
   <g id="patch_3">
    <path d="M 15.88125 104.9 
L 15.88125 7.2 
" style="fill: none; stroke: #000000; stroke-width: 0.5; stroke-linejoin: miter; stroke-linecap: square"/>
   </g>
   <g id="patch_4">
    <path d="M 15.88125 104.9 
L 136.80125 104.9 
" style="fill: none; stroke: #000000; stroke-width: 0.5; stroke-linejoin: miter; stroke-linecap: square"/>
   </g>
   <g id="legend_1">
    <g id="line2d_67">
     <g>
      <use xlink:href="#m9815647ccc" x="25.38125" y="13.749219" style="fill: #298c8c; fill-opacity: 0.7"/>
     </g>
    </g>
    <g id="text_12">
     <!-- On full bound -->
     <g transform="translate(34.38125 15.499219) scale(0.05 -0.05)">
      <defs>
       <path id="DejaVuSans-4f" d="M 2522 4238 
Q 1834 4238 1429 3725 
Q 1025 3213 1025 2328 
Q 1025 1447 1429 934 
Q 1834 422 2522 422 
Q 3209 422 3611 934 
Q 4013 1447 4013 2328 
Q 4013 3213 3611 3725 
Q 3209 4238 2522 4238 
z
M 2522 4750 
Q 3503 4750 4090 4092 
Q 4678 3434 4678 2328 
Q 4678 1225 4090 567 
Q 3503 -91 2522 -91 
Q 1538 -91 948 565 
Q 359 1222 359 2328 
Q 359 3434 948 4092 
Q 1538 4750 2522 4750 
z
" transform="scale(0.015625)"/>
       <path id="DejaVuSans-6e" d="M 3513 2113 
L 3513 0 
L 2938 0 
L 2938 2094 
Q 2938 2591 2744 2837 
Q 2550 3084 2163 3084 
Q 1697 3084 1428 2787 
Q 1159 2491 1159 1978 
L 1159 0 
L 581 0 
L 581 3500 
L 1159 3500 
L 1159 2956 
Q 1366 3272 1645 3428 
Q 1925 3584 2291 3584 
Q 2894 3584 3203 3211 
Q 3513 2838 3513 2113 
z
" transform="scale(0.015625)"/>
       <path id="DejaVuSans-20" transform="scale(0.015625)"/>
       <path id="DejaVuSans-66" d="M 2375 4863 
L 2375 4384 
L 1825 4384 
Q 1516 4384 1395 4259 
Q 1275 4134 1275 3809 
L 1275 3500 
L 2222 3500 
L 2222 3053 
L 1275 3053 
L 1275 0 
L 697 0 
L 697 3053 
L 147 3053 
L 147 3500 
L 697 3500 
L 697 3744 
Q 697 4328 969 4595 
Q 1241 4863 1831 4863 
L 2375 4863 
z
" transform="scale(0.015625)"/>
       <path id="DejaVuSans-75" d="M 544 1381 
L 544 3500 
L 1119 3500 
L 1119 1403 
Q 1119 906 1312 657 
Q 1506 409 1894 409 
Q 2359 409 2629 706 
Q 2900 1003 2900 1516 
L 2900 3500 
L 3475 3500 
L 3475 0 
L 2900 0 
L 2900 538 
Q 2691 219 2414 64 
Q 2138 -91 1772 -91 
Q 1169 -91 856 284 
Q 544 659 544 1381 
z
M 1991 3584 
L 1991 3584 
z
" transform="scale(0.015625)"/>
       <path id="DejaVuSans-6c" d="M 603 4863 
L 1178 4863 
L 1178 0 
L 603 0 
L 603 4863 
z
" transform="scale(0.015625)"/>
       <path id="DejaVuSans-62" d="M 3116 1747 
Q 3116 2381 2855 2742 
Q 2594 3103 2138 3103 
Q 1681 3103 1420 2742 
Q 1159 2381 1159 1747 
Q 1159 1113 1420 752 
Q 1681 391 2138 391 
Q 2594 391 2855 752 
Q 3116 1113 3116 1747 
z
M 1159 2969 
Q 1341 3281 1617 3432 
Q 1894 3584 2278 3584 
Q 2916 3584 3314 3078 
Q 3713 2572 3713 1747 
Q 3713 922 3314 415 
Q 2916 -91 2278 -91 
Q 1894 -91 1617 61 
Q 1341 213 1159 525 
L 1159 0 
L 581 0 
L 581 4863 
L 1159 4863 
L 1159 2969 
z
" transform="scale(0.015625)"/>
       <path id="DejaVuSans-6f" d="M 1959 3097 
Q 1497 3097 1228 2736 
Q 959 2375 959 1747 
Q 959 1119 1226 758 
Q 1494 397 1959 397 
Q 2419 397 2687 759 
Q 2956 1122 2956 1747 
Q 2956 2369 2687 2733 
Q 2419 3097 1959 3097 
z
M 1959 3584 
Q 2709 3584 3137 3096 
Q 3566 2609 3566 1747 
Q 3566 888 3137 398 
Q 2709 -91 1959 -91 
Q 1206 -91 779 398 
Q 353 888 353 1747 
Q 353 2609 779 3096 
Q 1206 3584 1959 3584 
z
" transform="scale(0.015625)"/>
       <path id="DejaVuSans-64" d="M 2906 2969 
L 2906 4863 
L 3481 4863 
L 3481 0 
L 2906 0 
L 2906 525 
Q 2725 213 2448 61 
Q 2172 -91 1784 -91 
Q 1150 -91 751 415 
Q 353 922 353 1747 
Q 353 2572 751 3078 
Q 1150 3584 1784 3584 
Q 2172 3584 2448 3432 
Q 2725 3281 2906 2969 
z
M 947 1747 
Q 947 1113 1208 752 
Q 1469 391 1925 391 
Q 2381 391 2643 752 
Q 2906 1113 2906 1747 
Q 2906 2381 2643 2742 
Q 2381 3103 1925 3103 
Q 1469 3103 1208 2742 
Q 947 2381 947 1747 
z
" transform="scale(0.015625)"/>
      </defs>
      <use xlink:href="#DejaVuSans-4f"/>
      <use xlink:href="#DejaVuSans-6e" x="78.710938"/>
      <use xlink:href="#DejaVuSans-20" x="142.089844"/>
      <use xlink:href="#DejaVuSans-66" x="173.876953"/>
      <use xlink:href="#DejaVuSans-75" x="209.082031"/>
      <use xlink:href="#DejaVuSans-6c" x="272.460938"/>
      <use xlink:href="#DejaVuSans-6c" x="300.244141"/>
      <use xlink:href="#DejaVuSans-20" x="328.027344"/>
      <use xlink:href="#DejaVuSans-62" x="359.814453"/>
      <use xlink:href="#DejaVuSans-6f" x="423.291016"/>
      <use xlink:href="#DejaVuSans-75" x="484.472656"/>
      <use xlink:href="#DejaVuSans-6e" x="547.851562"/>
      <use xlink:href="#DejaVuSans-64" x="611.230469"/>
     </g>
    </g>
    <g id="line2d_68">
     <g>
      <use xlink:href="#mb35e8c2f36" x="25.38125" y="21.088281" style="fill: #a00000; fill-opacity: 0.7"/>
     </g>
    </g>
    <g id="text_13">
     <!-- On heuristic bound -->
     <g transform="translate(34.38125 22.838281) scale(0.05 -0.05)">
      <defs>
       <path id="DejaVuSans-68" d="M 3513 2113 
L 3513 0 
L 2938 0 
L 2938 2094 
Q 2938 2591 2744 2837 
Q 2550 3084 2163 3084 
Q 1697 3084 1428 2787 
Q 1159 2491 1159 1978 
L 1159 0 
L 581 0 
L 581 4863 
L 1159 4863 
L 1159 2956 
Q 1366 3272 1645 3428 
Q 1925 3584 2291 3584 
Q 2894 3584 3203 3211 
Q 3513 2838 3513 2113 
z
" transform="scale(0.015625)"/>
       <path id="DejaVuSans-65" d="M 3597 1894 
L 3597 1613 
L 953 1613 
Q 991 1019 1311 708 
Q 1631 397 2203 397 
Q 2534 397 2845 478 
Q 3156 559 3463 722 
L 3463 178 
Q 3153 47 2828 -22 
Q 2503 -91 2169 -91 
Q 1331 -91 842 396 
Q 353 884 353 1716 
Q 353 2575 817 3079 
Q 1281 3584 2069 3584 
Q 2775 3584 3186 3129 
Q 3597 2675 3597 1894 
z
M 3022 2063 
Q 3016 2534 2758 2815 
Q 2500 3097 2075 3097 
Q 1594 3097 1305 2825 
Q 1016 2553 972 2059 
L 3022 2063 
z
" transform="scale(0.015625)"/>
       <path id="DejaVuSans-72" d="M 2631 2963 
Q 2534 3019 2420 3045 
Q 2306 3072 2169 3072 
Q 1681 3072 1420 2755 
Q 1159 2438 1159 1844 
L 1159 0 
L 581 0 
L 581 3500 
L 1159 3500 
L 1159 2956 
Q 1341 3275 1631 3429 
Q 1922 3584 2338 3584 
Q 2397 3584 2469 3576 
Q 2541 3569 2628 3553 
L 2631 2963 
z
" transform="scale(0.015625)"/>
       <path id="DejaVuSans-69" d="M 603 3500 
L 1178 3500 
L 1178 0 
L 603 0 
L 603 3500 
z
M 603 4863 
L 1178 4863 
L 1178 4134 
L 603 4134 
L 603 4863 
z
" transform="scale(0.015625)"/>
       <path id="DejaVuSans-73" d="M 2834 3397 
L 2834 2853 
Q 2591 2978 2328 3040 
Q 2066 3103 1784 3103 
Q 1356 3103 1142 2972 
Q 928 2841 928 2578 
Q 928 2378 1081 2264 
Q 1234 2150 1697 2047 
L 1894 2003 
Q 2506 1872 2764 1633 
Q 3022 1394 3022 966 
Q 3022 478 2636 193 
Q 2250 -91 1575 -91 
Q 1294 -91 989 -36 
Q 684 19 347 128 
L 347 722 
Q 666 556 975 473 
Q 1284 391 1588 391 
Q 1994 391 2212 530 
Q 2431 669 2431 922 
Q 2431 1156 2273 1281 
Q 2116 1406 1581 1522 
L 1381 1569 
Q 847 1681 609 1914 
Q 372 2147 372 2553 
Q 372 3047 722 3315 
Q 1072 3584 1716 3584 
Q 2034 3584 2315 3537 
Q 2597 3491 2834 3397 
z
" transform="scale(0.015625)"/>
       <path id="DejaVuSans-74" d="M 1172 4494 
L 1172 3500 
L 2356 3500 
L 2356 3053 
L 1172 3053 
L 1172 1153 
Q 1172 725 1289 603 
Q 1406 481 1766 481 
L 2356 481 
L 2356 0 
L 1766 0 
Q 1100 0 847 248 
Q 594 497 594 1153 
L 594 3053 
L 172 3053 
L 172 3500 
L 594 3500 
L 594 4494 
L 1172 4494 
z
" transform="scale(0.015625)"/>
       <path id="DejaVuSans-63" d="M 3122 3366 
L 3122 2828 
Q 2878 2963 2633 3030 
Q 2388 3097 2138 3097 
Q 1578 3097 1268 2742 
Q 959 2388 959 1747 
Q 959 1106 1268 751 
Q 1578 397 2138 397 
Q 2388 397 2633 464 
Q 2878 531 3122 666 
L 3122 134 
Q 2881 22 2623 -34 
Q 2366 -91 2075 -91 
Q 1284 -91 818 406 
Q 353 903 353 1747 
Q 353 2603 823 3093 
Q 1294 3584 2113 3584 
Q 2378 3584 2631 3529 
Q 2884 3475 3122 3366 
z
" transform="scale(0.015625)"/>
      </defs>
      <use xlink:href="#DejaVuSans-4f"/>
      <use xlink:href="#DejaVuSans-6e" x="78.710938"/>
      <use xlink:href="#DejaVuSans-20" x="142.089844"/>
      <use xlink:href="#DejaVuSans-68" x="173.876953"/>
      <use xlink:href="#DejaVuSans-65" x="237.255859"/>
      <use xlink:href="#DejaVuSans-75" x="298.779297"/>
      <use xlink:href="#DejaVuSans-72" x="362.158203"/>
      <use xlink:href="#DejaVuSans-69" x="403.271484"/>
      <use xlink:href="#DejaVuSans-73" x="431.054688"/>
      <use xlink:href="#DejaVuSans-74" x="483.154297"/>
      <use xlink:href="#DejaVuSans-69" x="522.363281"/>
      <use xlink:href="#DejaVuSans-63" x="550.146484"/>
      <use xlink:href="#DejaVuSans-20" x="605.126953"/>
      <use xlink:href="#DejaVuSans-62" x="636.914062"/>
      <use xlink:href="#DejaVuSans-6f" x="700.390625"/>
      <use xlink:href="#DejaVuSans-75" x="761.572266"/>
      <use xlink:href="#DejaVuSans-6e" x="824.951172"/>
      <use xlink:href="#DejaVuSans-64" x="888.330078"/>
     </g>
    </g>
    <g id="line2d_69">
     <g>
      <use xlink:href="#m378d4ed9d4" x="25.38125" y="28.427344" style="fill: #ffa500; fill-opacity: 0.7"/>
     </g>
    </g>
    <g id="text_14">
     <!-- Neither -->
     <g transform="translate(34.38125 30.177344) scale(0.05 -0.05)">
      <defs>
       <path id="DejaVuSans-4e" d="M 628 4666 
L 1478 4666 
L 3547 763 
L 3547 4666 
L 4159 4666 
L 4159 0 
L 3309 0 
L 1241 3903 
L 1241 0 
L 628 0 
L 628 4666 
z
" transform="scale(0.015625)"/>
      </defs>
      <use xlink:href="#DejaVuSans-4e"/>
      <use xlink:href="#DejaVuSans-65" x="74.804688"/>
      <use xlink:href="#DejaVuSans-69" x="136.328125"/>
      <use xlink:href="#DejaVuSans-74" x="164.111328"/>
      <use xlink:href="#DejaVuSans-68" x="203.320312"/>
      <use xlink:href="#DejaVuSans-65" x="266.699219"/>
      <use xlink:href="#DejaVuSans-72" x="328.222656"/>
     </g>
    </g>
   </g>
   <g id="legend_2">
    <g id="line2d_70">
     <path d="M 60.945 90.271094 
L 65.945 90.271094 
L 70.945 90.271094 
" style="fill: none; stroke: #000000; stroke-width: 0.8; stroke-linecap: square"/>
    </g>
    <g id="text_15">
     <!-- Full bound theory -->
     <g transform="translate(74.945 92.021094) scale(0.05 -0.05)">
      <defs>
       <path id="DejaVuSans-46" d="M 628 4666 
L 3309 4666 
L 3309 4134 
L 1259 4134 
L 1259 2759 
L 3109 2759 
L 3109 2228 
L 1259 2228 
L 1259 0 
L 628 0 
L 628 4666 
z
" transform="scale(0.015625)"/>
       <path id="DejaVuSans-79" d="M 2059 -325 
Q 1816 -950 1584 -1140 
Q 1353 -1331 966 -1331 
L 506 -1331 
L 506 -850 
L 844 -850 
Q 1081 -850 1212 -737 
Q 1344 -625 1503 -206 
L 1606 56 
L 191 3500 
L 800 3500 
L 1894 763 
L 2988 3500 
L 3597 3500 
L 2059 -325 
z
" transform="scale(0.015625)"/>
      </defs>
      <use xlink:href="#DejaVuSans-46"/>
      <use xlink:href="#DejaVuSans-75" x="52.019531"/>
      <use xlink:href="#DejaVuSans-6c" x="115.398438"/>
      <use xlink:href="#DejaVuSans-6c" x="143.181641"/>
      <use xlink:href="#DejaVuSans-20" x="170.964844"/>
      <use xlink:href="#DejaVuSans-62" x="202.751953"/>
      <use xlink:href="#DejaVuSans-6f" x="266.228516"/>
      <use xlink:href="#DejaVuSans-75" x="327.410156"/>
      <use xlink:href="#DejaVuSans-6e" x="390.789062"/>
      <use xlink:href="#DejaVuSans-64" x="454.167969"/>
      <use xlink:href="#DejaVuSans-20" x="517.644531"/>
      <use xlink:href="#DejaVuSans-74" x="549.431641"/>
      <use xlink:href="#DejaVuSans-68" x="588.640625"/>
      <use xlink:href="#DejaVuSans-65" x="652.019531"/>
      <use xlink:href="#DejaVuSans-6f" x="713.542969"/>
      <use xlink:href="#DejaVuSans-72" x="774.724609"/>
      <use xlink:href="#DejaVuSans-79" x="815.837891"/>
     </g>
    </g>
    <g id="line2d_71">
     <path d="M 60.945 97.610156 
L 65.945 97.610156 
L 70.945 97.610156 
" style="fill: none; stroke-dasharray: 2.96,1.28; stroke-dashoffset: 0; stroke: #000000; stroke-width: 0.8"/>
    </g>
    <g id="text_16">
     <!-- Heuristic bound theory -->
     <g transform="translate(74.945 99.360156) scale(0.05 -0.05)">
      <defs>
       <path id="DejaVuSans-48" d="M 628 4666 
L 1259 4666 
L 1259 2753 
L 3553 2753 
L 3553 4666 
L 4184 4666 
L 4184 0 
L 3553 0 
L 3553 2222 
L 1259 2222 
L 1259 0 
L 628 0 
L 628 4666 
z
" transform="scale(0.015625)"/>
      </defs>
      <use xlink:href="#DejaVuSans-48"/>
      <use xlink:href="#DejaVuSans-65" x="75.195312"/>
      <use xlink:href="#DejaVuSans-75" x="136.71875"/>
      <use xlink:href="#DejaVuSans-72" x="200.097656"/>
      <use xlink:href="#DejaVuSans-69" x="241.210938"/>
      <use xlink:href="#DejaVuSans-73" x="268.994141"/>
      <use xlink:href="#DejaVuSans-74" x="321.09375"/>
      <use xlink:href="#DejaVuSans-69" x="360.302734"/>
      <use xlink:href="#DejaVuSans-63" x="388.085938"/>
      <use xlink:href="#DejaVuSans-20" x="443.066406"/>
      <use xlink:href="#DejaVuSans-62" x="474.853516"/>
      <use xlink:href="#DejaVuSans-6f" x="538.330078"/>
      <use xlink:href="#DejaVuSans-75" x="599.511719"/>
      <use xlink:href="#DejaVuSans-6e" x="662.890625"/>
      <use xlink:href="#DejaVuSans-64" x="726.269531"/>
      <use xlink:href="#DejaVuSans-20" x="789.746094"/>
      <use xlink:href="#DejaVuSans-74" x="821.533203"/>
      <use xlink:href="#DejaVuSans-68" x="860.742188"/>
      <use xlink:href="#DejaVuSans-65" x="924.121094"/>
      <use xlink:href="#DejaVuSans-6f" x="985.644531"/>
      <use xlink:href="#DejaVuSans-72" x="1046.826172"/>
      <use xlink:href="#DejaVuSans-79" x="1087.939453"/>
     </g>
    </g>
   </g>
  </g>
 </g>
 <defs>
  <clipPath id="p6e07094e35">
   <rect x="15.88125" y="7.2" width="120.92" height="97.7"/>
  </clipPath>
 </defs>
</svg>
