<?xml version="1.0" encoding="utf-8" standalone="no"?>
<!DOCTYPE svg PUBLIC "-//W3C//DTD SVG 1.1//EN"
  "http://www.w3.org/Graphics/SVG/1.1/DTD/svg11.dtd">
<svg xmlns:xlink="http://www.w3.org/1999/xlink" width="158.37125pt" height="129.639062pt" viewBox="0 0 158.37125 129.639062" xmlns="http://www.w3.org/2000/svg" version="1.1">
 <metadata>
  <rdf:RDF xmlns:dc="http://purl.org/dc/elements/1.1/" xmlns:cc="http://creativecommons.org/ns#" xmlns:rdf="http://www.w3.org/1999/02/22-rdf-syntax-ns#">
   <cc:Work>
    <dc:type rdf:resource="http://purl.org/dc/dcmitype/StillImage"/>
    <dc:date>2026-04-16T19:08:50.532354</dc:date>
    <dc:format>image/svg+xml</dc:format>
    <dc:creator>
     <cc:Agent>
      <dc:title>Matplotlib v3.8.2, https://matplotlib.org/</dc:title>
     </cc:Agent>
    </dc:creator>
   </cc:Work>
  </rdf:RDF>
 </metadata>
 <defs>
  <style type="text/css">*{stroke-linejoin: round; stroke-linecap: butt}</style>
 </defs>
 <g id="figure_1">
  <g id="patch_1">
   <path d="M 0 129.639062 
L 158.37125 129.639062 
L 158.37125 0 
L 0 0 
z
" style="fill: #ffffff"/>
  </g>
  <g id="axes_1">
   <g id="patch_2">
    <path d="M 15.88125 112.1 
L 151.17125 112.1 
L 151.17125 7.2 
L 15.88125 7.2 
z
" style="fill: #ffffff"/>
   </g>
   <g id="matplotlib.axis_1">
    <g id="xtick_1">
     <g id="line2d_1">
      <defs>
       <path id="m9c95bf9e25" d="M 0 0 
L 0 2 
" style="stroke: #000000; stroke-width: 0.5"/>
      </defs>
      <g>
       <use xlink:href="#m9c95bf9e25" x="22.030416" y="112.1" style="stroke: #000000; stroke-width: 0.5"/>
      </g>
     </g>
     <g id="text_1">
      <!-- 0.0 -->
      <g transform="translate(18.054635 121.399219) scale(0.05 -0.05)">
       <defs>
        <path id="DejaVuSans-30" d="M 2034 4250 
Q 1547 4250 1301 3770 
Q 1056 3291 1056 2328 
Q 1056 1369 1301 889 
Q 1547 409 2034 409 
Q 2525 409 2770 889 
Q 3016 1369 3016 2328 
Q 3016 3291 2770 3770 
Q 2525 4250 2034 4250 
z
M 2034 4750 
Q 2819 4750 3233 4129 
Q 3647 3509 3647 2328 
Q 3647 1150 3233 529 
Q 2819 -91 2034 -91 
Q 1250 -91 836 529 
Q 422 1150 422 2328 
Q 422 3509 836 4129 
Q 1250 4750 2034 4750 
z
" transform="scale(0.015625)"/>
        <path id="DejaVuSans-2e" d="M 684 794 
L 1344 794 
L 1344 0 
L 684 0 
L 684 794 
z
" transform="scale(0.015625)"/>
       </defs>
       <use xlink:href="#DejaVuSans-30"/>
       <use xlink:href="#DejaVuSans-2e" x="63.623047"/>
       <use xlink:href="#DejaVuSans-30" x="95.410156"/>
      </g>
     </g>
    </g>
    <g id="xtick_2">
     <g id="line2d_2">
      <g>
       <use xlink:href="#m9c95bf9e25" x="46.628674" y="112.1" style="stroke: #000000; stroke-width: 0.5"/>
      </g>
     </g>
     <g id="text_2">
      <!-- 0.2 -->
      <g transform="translate(42.652892 121.399219) scale(0.05 -0.05)">
       <defs>
        <path id="DejaVuSans-32" d="M 1228 531 
L 3431 531 
L 3431 0 
L 469 0 
L 469 531 
Q 828 903 1448 1529 
Q 2069 2156 2228 2338 
Q 2531 2678 2651 2914 
Q 2772 3150 2772 3378 
Q 2772 3750 2511 3984 
Q 2250 4219 1831 4219 
Q 1534 4219 1204 4116 
Q 875 4013 500 3803 
L 500 4441 
Q 881 4594 1212 4672 
Q 1544 4750 1819 4750 
Q 2544 4750 2975 4387 
Q 3406 4025 3406 3419 
Q 3406 3131 3298 2873 
Q 3191 2616 2906 2266 
Q 2828 2175 2409 1742 
Q 1991 1309 1228 531 
z
" transform="scale(0.015625)"/>
       </defs>
       <use xlink:href="#DejaVuSans-30"/>
       <use xlink:href="#DejaVuSans-2e" x="63.623047"/>
       <use xlink:href="#DejaVuSans-32" x="95.410156"/>
      </g>
     </g>
    </g>
    <g id="xtick_3">
     <g id="line2d_3">
      <g>
       <use xlink:href="#m9c95bf9e25" x="71.226931" y="112.1" style="stroke: #000000; stroke-width: 0.5"/>
      </g>
     </g>
     <g id="text_3">
      <!-- 0.4 -->
      <g transform="translate(67.25115 121.399219) scale(0.05 -0.05)">
       <defs>
        <path id="DejaVuSans-34" d="M 2419 4116 
L 825 1625 
L 2419 1625 
L 2419 4116 
z
M 2253 4666 
L 3047 4666 
L 3047 1625 
L 3713 1625 
L 3713 1100 
L 3047 1100 
L 3047 0 
L 2419 0 
L 2419 1100 
L 313 1100 
L 313 1709 
L 2253 4666 
z
" transform="scale(0.015625)"/>
       </defs>
       <use xlink:href="#DejaVuSans-30"/>
       <use xlink:href="#DejaVuSans-2e" x="63.623047"/>
       <use xlink:href="#DejaVuSans-34" x="95.410156"/>
      </g>
     </g>
    </g>
    <g id="xtick_4">
     <g id="line2d_4">
      <g>
       <use xlink:href="#m9c95bf9e25" x="95.825189" y="112.1" style="stroke: #000000; stroke-width: 0.5"/>
      </g>
     </g>
     <g id="text_4">
      <!-- 0.6 -->
      <g transform="translate(91.849408 121.399219) scale(0.05 -0.05)">
       <defs>
        <path id="DejaVuSans-36" d="M 2113 2584 
Q 1688 2584 1439 2293 
Q 1191 2003 1191 1497 
Q 1191 994 1439 701 
Q 1688 409 2113 409 
Q 2538 409 2786 701 
Q 3034 994 3034 1497 
Q 3034 2003 2786 2293 
Q 2538 2584 2113 2584 
z
M 3366 4563 
L 3366 3988 
Q 3128 4100 2886 4159 
Q 2644 4219 2406 4219 
Q 1781 4219 1451 3797 
Q 1122 3375 1075 2522 
Q 1259 2794 1537 2939 
Q 1816 3084 2150 3084 
Q 2853 3084 3261 2657 
Q 3669 2231 3669 1497 
Q 3669 778 3244 343 
Q 2819 -91 2113 -91 
Q 1303 -91 875 529 
Q 447 1150 447 2328 
Q 447 3434 972 4092 
Q 1497 4750 2381 4750 
Q 2619 4750 2861 4703 
Q 3103 4656 3366 4563 
z
" transform="scale(0.015625)"/>
       </defs>
       <use xlink:href="#DejaVuSans-30"/>
       <use xlink:href="#DejaVuSans-2e" x="63.623047"/>
       <use xlink:href="#DejaVuSans-36" x="95.410156"/>
      </g>
     </g>
    </g>
    <g id="xtick_5">
     <g id="line2d_5">
      <g>
       <use xlink:href="#m9c95bf9e25" x="120.423447" y="112.1" style="stroke: #000000; stroke-width: 0.5"/>
      </g>
     </g>
     <g id="text_5">
      <!-- 0.8 -->
      <g transform="translate(116.447666 121.399219) scale(0.05 -0.05)">
       <defs>
        <path id="DejaVuSans-38" d="M 2034 2216 
Q 1584 2216 1326 1975 
Q 1069 1734 1069 1313 
Q 1069 891 1326 650 
Q 1584 409 2034 409 
Q 2484 409 2743 651 
Q 3003 894 3003 1313 
Q 3003 1734 2745 1975 
Q 2488 2216 2034 2216 
z
M 1403 2484 
Q 997 2584 770 2862 
Q 544 3141 544 3541 
Q 544 4100 942 4425 
Q 1341 4750 2034 4750 
Q 2731 4750 3128 4425 
Q 3525 4100 3525 3541 
Q 3525 3141 3298 2862 
Q 3072 2584 2669 2484 
Q 3125 2378 3379 2068 
Q 3634 1759 3634 1313 
Q 3634 634 3220 271 
Q 2806 -91 2034 -91 
Q 1263 -91 848 271 
Q 434 634 434 1313 
Q 434 1759 690 2068 
Q 947 2378 1403 2484 
z
M 1172 3481 
Q 1172 3119 1398 2916 
Q 1625 2713 2034 2713 
Q 2441 2713 2670 2916 
Q 2900 3119 2900 3481 
Q 2900 3844 2670 4047 
Q 2441 4250 2034 4250 
Q 1625 4250 1398 4047 
Q 1172 3844 1172 3481 
z
" transform="scale(0.015625)"/>
       </defs>
       <use xlink:href="#DejaVuSans-30"/>
       <use xlink:href="#DejaVuSans-2e" x="63.623047"/>
       <use xlink:href="#DejaVuSans-38" x="95.410156"/>
      </g>
     </g>
    </g>
    <g id="xtick_6">
     <g id="line2d_6">
      <g>
       <use xlink:href="#m9c95bf9e25" x="145.021705" y="112.1" style="stroke: #000000; stroke-width: 0.5"/>
      </g>
     </g>
     <g id="text_6">
      <!-- 1.0 -->
      <g transform="translate(141.045923 121.399219) scale(0.05 -0.05)">
       <defs>
        <path id="DejaVuSans-31" d="M 794 531 
L 1825 531 
L 1825 4091 
L 703 3866 
L 703 4441 
L 1819 4666 
L 2450 4666 
L 2450 531 
L 3481 531 
L 3481 0 
L 794 0 
L 794 531 
z
" transform="scale(0.015625)"/>
       </defs>
       <use xlink:href="#DejaVuSans-31"/>
       <use xlink:href="#DejaVuSans-2e" x="63.623047"/>
       <use xlink:href="#DejaVuSans-30" x="95.410156"/>
      </g>
     </g>
    </g>
   </g>
   <g id="matplotlib.axis_2">
    <g id="ytick_1">
     <g id="line2d_7">
      <defs>
       <path id="me7a0c58dff" d="M 0 0 
L -2 0 
" style="stroke: #000000; stroke-width: 0.5"/>
      </defs>
      <g>
       <use xlink:href="#me7a0c58dff" x="15.88125" y="106.578947" style="stroke: #000000; stroke-width: 0.5"/>
      </g>
     </g>
     <g id="text_7">
      <!-- 0 -->
      <g transform="translate(7.2 108.478557) scale(0.05 -0.05)">
       <use xlink:href="#DejaVuSans-30"/>
      </g>
     </g>
    </g>
    <g id="ytick_2">
     <g id="line2d_8">
      <g>
       <use xlink:href="#me7a0c58dff" x="15.88125" y="84.494737" style="stroke: #000000; stroke-width: 0.5"/>
      </g>
     </g>
     <g id="text_8">
      <!-- 2 -->
      <g transform="translate(7.2 86.394346) scale(0.05 -0.05)">
       <use xlink:href="#DejaVuSans-32"/>
      </g>
     </g>
    </g>
    <g id="ytick_3">
     <g id="line2d_9">
      <g>
       <use xlink:href="#me7a0c58dff" x="15.88125" y="62.410526" style="stroke: #000000; stroke-width: 0.5"/>
      </g>
     </g>
     <g id="text_9">
      <!-- 4 -->
      <g transform="translate(7.2 64.310136) scale(0.05 -0.05)">
       <use xlink:href="#DejaVuSans-34"/>
      </g>
     </g>
    </g>
    <g id="ytick_4">
     <g id="line2d_10">
      <g>
       <use xlink:href="#me7a0c58dff" x="15.88125" y="40.326316" style="stroke: #000000; stroke-width: 0.5"/>
      </g>
     </g>
     <g id="text_10">
      <!-- 6 -->
      <g transform="translate(7.2 42.225925) scale(0.05 -0.05)">
       <use xlink:href="#DejaVuSans-36"/>
      </g>
     </g>
    </g>
    <g id="ytick_5">
     <g id="line2d_11">
      <g>
       <use xlink:href="#me7a0c58dff" x="15.88125" y="18.242105" style="stroke: #000000; stroke-width: 0.5"/>
      </g>
     </g>
     <g id="text_11">
      <!-- 8 -->
      <g transform="translate(7.2 20.141715) scale(0.05 -0.05)">
       <use xlink:href="#DejaVuSans-38"/>
      </g>
     </g>
    </g>
   </g>
   <g id="line2d_12">
    <path d="M 22.030798 106.523737 
L 22.153952 105.585158 
L 22.496394 104.646579 
L 23.094542 103.652789 
L 24.036072 102.548579 
L 25.326167 101.389158 
L 27.073644 100.119316 
L 29.437343 98.683842 
L 32.620699 97.027526 
L 36.72838 95.150368 
L 42.371572 92.831526 
L 50.677685 89.684526 
L 76.124285 80.188316 
L 83.725566 77.041316 
L 90.09324 74.170368 
L 95.677784 71.409842 
L 100.544357 68.759737 
L 104.857228 66.164842 
L 108.748317 63.569947 
L 112.248236 60.975053 
L 115.452983 58.324947 
L 118.375528 55.619632 
L 121.031625 52.859105 
L 123.483128 49.988158 
L 125.732907 47.006789 
L 127.787093 43.915 
L 129.684379 40.657579 
L 131.449714 37.179316 
L 133.074954 33.480211 
L 134.57641 29.505053 
L 135.9631 25.198632 
L 137.239043 20.505737 
L 138.416612 15.315947 
L 139.498481 9.518842 
L 140.474076 3.059211 
L 140.986942 -1 
L 140.986942 -1 
" clip-path="url(#p495492efd8)" style="fill: none; stroke: #000000; stroke-width: 0.8; stroke-linecap: square"/>
   </g>
   <g id="line2d_13">
    <path d="M 22.030795 106.523737 
L 22.153269 105.585158 
L 22.493825 104.646579 
L 23.088705 103.652789 
L 24.025158 102.548579 
L 25.308435 101.389158 
L 27.046942 100.119316 
L 29.399012 98.683842 
L 32.567679 97.027526 
L 36.658191 95.150368 
L 42.281453 92.831526 
L 50.417816 89.739737 
L 77.295378 79.691421 
L 84.85376 76.544421 
L 91.19141 73.673474 
L 96.75954 70.912947 
L 101.719742 68.207632 
L 106.120261 65.557526 
L 110.093509 62.907421 
L 113.670429 60.257316 
L 116.947183 57.552 
L 119.880127 54.846684 
L 122.60391 52.030947 
L 125.07215 49.16 
L 127.342073 46.178632 
L 129.417498 43.086842 
L 131.335123 39.829421 
L 133.091344 36.406368 
L 134.709049 32.762474 
L 136.181675 28.897737 
L 137.540127 24.701737 
L 138.770258 20.174474 
L 139.887328 15.205526 
L 140.895331 9.684474 
L 141.784329 3.556105 
L 142.3191 -1 
L 142.3191 -1 
" clip-path="url(#p495492efd8)" style="fill: none; stroke-dasharray: 2.96,1.28; stroke-dashoffset: 0; stroke: #000000; stroke-width: 0.8"/>
   </g>
   <g id="line2d_14">
    <defs>
     <path id="m8370aeedd7" d="M 0 1.5 
C 0.397805 1.5 0.77937 1.341951 1.06066 1.06066 
C 1.341951 0.77937 1.5 0.397805 1.5 0 
C 1.5 -0.397805 1.341951 -0.77937 1.06066 -1.06066 
C 0.77937 -1.341951 0.397805 -1.5 0 -1.5 
C -0.397805 -1.5 -0.77937 -1.341951 -1.06066 -1.06066 
C -1.341951 -0.77937 -1.5 -0.397805 -1.5 0 
C -1.5 0.397805 -1.341951 0.77937 -1.06066 1.06066 
C -0.77937 1.341951 -0.397805 1.5 0 1.5 
z
"/>
    </defs>
    <g clip-path="url(#p495492efd8)">
     <use xlink:href="#m8370aeedd7" x="82.614303" y="77.867578" style="fill: #298c8c; fill-opacity: 0.7"/>
    </g>
   </g>
   <g id="line2d_15">
    <g clip-path="url(#p495492efd8)">
     <use xlink:href="#m8370aeedd7" x="59.557294" y="88.386598" style="fill: #298c8c; fill-opacity: 0.7"/>
    </g>
   </g>
   <g id="line2d_16">
    <g clip-path="url(#p495492efd8)">
     <use xlink:href="#m8370aeedd7" x="116.649049" y="61.394421" style="fill: #298c8c; fill-opacity: 0.7"/>
    </g>
   </g>
   <g id="line2d_17">
    <g clip-path="url(#p495492efd8)">
     <use xlink:href="#m8370aeedd7" x="106.622043" y="66.391134" style="fill: #298c8c; fill-opacity: 0.7"/>
    </g>
   </g>
   <g id="line2d_18">
    <g clip-path="url(#p495492efd8)">
     <use xlink:href="#m8370aeedd7" x="89.146148" y="74.272706" style="fill: #298c8c; fill-opacity: 0.7"/>
    </g>
   </g>
   <g id="line2d_19">
    <g clip-path="url(#p495492efd8)">
     <use xlink:href="#m8370aeedd7" x="103.098348" y="63.803947" style="fill: #298c8c; fill-opacity: 0.7"/>
    </g>
   </g>
   <g id="line2d_20">
    <g clip-path="url(#p495492efd8)">
     <use xlink:href="#m8370aeedd7" x="103.723532" y="68.879614" style="fill: #298c8c; fill-opacity: 0.7"/>
    </g>
   </g>
   <g id="line2d_21">
    <g clip-path="url(#p495492efd8)">
     <use xlink:href="#m8370aeedd7" x="119.020368" y="49.751385" style="fill: #298c8c; fill-opacity: 0.7"/>
    </g>
   </g>
   <g id="line2d_22">
    <g clip-path="url(#p495492efd8)">
     <use xlink:href="#m8370aeedd7" x="122.390994" y="56.548463" style="fill: #298c8c; fill-opacity: 0.7"/>
    </g>
   </g>
   <g id="line2d_23">
    <g clip-path="url(#p495492efd8)">
     <use xlink:href="#m8370aeedd7" x="95.460543" y="73.260085" style="fill: #298c8c; fill-opacity: 0.7"/>
    </g>
   </g>
   <g id="line2d_24">
    <g clip-path="url(#p495492efd8)">
     <use xlink:href="#m8370aeedd7" x="84.220193" y="75.190788" style="fill: #298c8c; fill-opacity: 0.7"/>
    </g>
   </g>
   <g id="line2d_25">
    <g clip-path="url(#p495492efd8)">
     <use xlink:href="#m8370aeedd7" x="106.218721" y="68.907071" style="fill: #298c8c; fill-opacity: 0.7"/>
    </g>
   </g>
   <g id="line2d_26">
    <g clip-path="url(#p495492efd8)">
     <use xlink:href="#m8370aeedd7" x="90.181893" y="74.716261" style="fill: #298c8c; fill-opacity: 0.7"/>
    </g>
   </g>
   <g id="line2d_27">
    <defs>
     <path id="m769f456459" d="M 0 1.5 
C 0.397805 1.5 0.77937 1.341951 1.06066 1.06066 
C 1.341951 0.77937 1.5 0.397805 1.5 0 
C 1.5 -0.397805 1.341951 -0.77937 1.06066 -1.06066 
C 0.77937 -1.341951 0.397805 -1.5 0 -1.5 
C -0.397805 -1.5 -0.77937 -1.341951 -1.06066 -1.06066 
C -1.341951 -0.77937 -1.5 -0.397805 -1.5 0 
C -1.5 0.397805 -1.341951 0.77937 -1.06066 1.06066 
C -0.77937 1.341951 -0.397805 1.5 0 1.5 
z
"/>
    </defs>
    <g clip-path="url(#p495492efd8)">
     <use xlink:href="#m769f456459" x="89.839179" y="73.828931" style="fill: #ffa500; fill-opacity: 0.7"/>
    </g>
   </g>
   <g id="line2d_28">
    <g clip-path="url(#p495492efd8)">
     <use xlink:href="#m8370aeedd7" x="101.007452" y="73.105035" style="fill: #298c8c; fill-opacity: 0.7"/>
    </g>
   </g>
   <g id="line2d_29">
    <g clip-path="url(#p495492efd8)">
     <use xlink:href="#m8370aeedd7" x="95.333827" y="68.350135" style="fill: #298c8c; fill-opacity: 0.7"/>
    </g>
   </g>
   <g id="line2d_30">
    <g clip-path="url(#p495492efd8)">
     <use xlink:href="#m8370aeedd7" x="113.15489" y="64.425035" style="fill: #298c8c; fill-opacity: 0.7"/>
    </g>
   </g>
   <g id="line2d_31">
    <g clip-path="url(#p495492efd8)">
     <use xlink:href="#m8370aeedd7" x="124.317272" y="51.813048" style="fill: #298c8c; fill-opacity: 0.7"/>
    </g>
   </g>
   <g id="line2d_32">
    <g clip-path="url(#p495492efd8)">
     <use xlink:href="#m8370aeedd7" x="94.022439" y="76.960571" style="fill: #298c8c; fill-opacity: 0.7"/>
    </g>
   </g>
   <g id="line2d_33">
    <g clip-path="url(#p495492efd8)">
     <use xlink:href="#m8370aeedd7" x="47.290015" y="93.653445" style="fill: #298c8c; fill-opacity: 0.7"/>
    </g>
   </g>
   <g id="line2d_34">
    <g clip-path="url(#p495492efd8)">
     <use xlink:href="#m8370aeedd7" x="126.514403" y="46.609839" style="fill: #298c8c; fill-opacity: 0.7"/>
    </g>
   </g>
   <g id="line2d_35">
    <g clip-path="url(#p495492efd8)">
     <use xlink:href="#m8370aeedd7" x="115.861884" y="62.732841" style="fill: #298c8c; fill-opacity: 0.7"/>
    </g>
   </g>
   <g id="line2d_36">
    <g clip-path="url(#p495492efd8)">
     <use xlink:href="#m8370aeedd7" x="114.593999" y="61.281649" style="fill: #298c8c; fill-opacity: 0.7"/>
    </g>
   </g>
   <g id="line2d_37">
    <g clip-path="url(#p495492efd8)">
     <use xlink:href="#m8370aeedd7" x="63.279578" y="85.977391" style="fill: #298c8c; fill-opacity: 0.7"/>
    </g>
   </g>
   <g id="line2d_38">
    <g clip-path="url(#p495492efd8)">
     <use xlink:href="#m8370aeedd7" x="128.710189" y="47.623312" style="fill: #298c8c; fill-opacity: 0.7"/>
    </g>
   </g>
   <g id="line2d_39">
    <g clip-path="url(#p495492efd8)">
     <use xlink:href="#m8370aeedd7" x="128.838039" y="43.226751" style="fill: #298c8c; fill-opacity: 0.7"/>
    </g>
   </g>
   <g id="line2d_40">
    <g clip-path="url(#p495492efd8)">
     <use xlink:href="#m8370aeedd7" x="108.566373" y="65.682326" style="fill: #298c8c; fill-opacity: 0.7"/>
    </g>
   </g>
   <g id="line2d_41">
    <g clip-path="url(#p495492efd8)">
     <use xlink:href="#m8370aeedd7" x="63.539188" y="85.943636" style="fill: #298c8c; fill-opacity: 0.7"/>
    </g>
   </g>
   <g id="line2d_42">
    <g clip-path="url(#p495492efd8)">
     <use xlink:href="#m8370aeedd7" x="126.143139" y="47.080712" style="fill: #298c8c; fill-opacity: 0.7"/>
    </g>
   </g>
   <g id="line2d_43">
    <g clip-path="url(#p495492efd8)">
     <use xlink:href="#m8370aeedd7" x="107.521581" y="66.384716" style="fill: #298c8c; fill-opacity: 0.7"/>
    </g>
   </g>
   <g id="patch_3">
    <path d="M 15.88125 112.1 
L 15.88125 7.2 
" style="fill: none; stroke: #000000; stroke-width: 0.5; stroke-linejoin: miter; stroke-linecap: square"/>
   </g>
   <g id="patch_4">
    <path d="M 15.88125 112.1 
L 151.17125 112.1 
" style="fill: none; stroke: #000000; stroke-width: 0.5; stroke-linejoin: miter; stroke-linecap: square"/>
   </g>
   <g id="legend_1">
    <g id="line2d_44">
     <g>
      <use xlink:href="#m8370aeedd7" x="25.38125" y="13.749219" style="fill: #298c8c; fill-opacity: 0.7"/>
     </g>
    </g>
    <g id="text_12">
     <!-- On full and heuristic bounds -->
     <g transform="translate(34.38125 15.499219) scale(0.05 -0.05)">
      <defs>
       <path id="DejaVuSans-4f" d="M 2522 4238 
Q 1834 4238 1429 3725 
Q 1025 3213 1025 2328 
Q 1025 1447 1429 934 
Q 1834 422 2522 422 
Q 3209 422 3611 934 
Q 4013 1447 4013 2328 
Q 4013 3213 3611 3725 
Q 3209 4238 2522 4238 
z
M 2522 4750 
Q 3503 4750 4090 4092 
Q 4678 3434 4678 2328 
Q 4678 1225 4090 567 
Q 3503 -91 2522 -91 
Q 1538 -91 948 565 
Q 359 1222 359 2328 
Q 359 3434 948 4092 
Q 1538 4750 2522 4750 
z
" transform="scale(0.015625)"/>
       <path id="DejaVuSans-6e" d="M 3513 2113 
L 3513 0 
L 2938 0 
L 2938 2094 
Q 2938 2591 2744 2837 
Q 2550 3084 2163 3084 
Q 1697 3084 1428 2787 
Q 1159 2491 1159 1978 
L 1159 0 
L 581 0 
L 581 3500 
L 1159 3500 
L 1159 2956 
Q 1366 3272 1645 3428 
Q 1925 3584 2291 3584 
Q 2894 3584 3203 3211 
Q 3513 2838 3513 2113 
z
" transform="scale(0.015625)"/>
       <path id="DejaVuSans-20" transform="scale(0.015625)"/>
       <path id="DejaVuSans-66" d="M 2375 4863 
L 2375 4384 
L 1825 4384 
Q 1516 4384 1395 4259 
Q 1275 4134 1275 3809 
L 1275 3500 
L 2222 3500 
L 2222 3053 
L 1275 3053 
L 1275 0 
L 697 0 
L 697 3053 
L 147 3053 
L 147 3500 
L 697 3500 
L 697 3744 
Q 697 4328 969 4595 
Q 1241 4863 1831 4863 
L 2375 4863 
z
" transform="scale(0.015625)"/>
       <path id="DejaVuSans-75" d="M 544 1381 
L 544 3500 
L 1119 3500 
L 1119 1403 
Q 1119 906 1312 657 
Q 1506 409 1894 409 
Q 2359 409 2629 706 
Q 2900 1003 2900 1516 
L 2900 3500 
L 3475 3500 
L 3475 0 
L 2900 0 
L 2900 538 
Q 2691 219 2414 64 
Q 2138 -91 1772 -91 
Q 1169 -91 856 284 
Q 544 659 544 1381 
z
M 1991 3584 
L 1991 3584 
z
" transform="scale(0.015625)"/>
       <path id="DejaVuSans-6c" d="M 603 4863 
L 1178 4863 
L 1178 0 
L 603 0 
L 603 4863 
z
" transform="scale(0.015625)"/>
       <path id="DejaVuSans-61" d="M 2194 1759 
Q 1497 1759 1228 1600 
Q 959 1441 959 1056 
Q 959 750 1161 570 
Q 1363 391 1709 391 
Q 2188 391 2477 730 
Q 2766 1069 2766 1631 
L 2766 1759 
L 2194 1759 
z
M 3341 1997 
L 3341 0 
L 2766 0 
L 2766 531 
Q 2569 213 2275 61 
Q 1981 -91 1556 -91 
Q 1019 -91 701 211 
Q 384 513 384 1019 
Q 384 1609 779 1909 
Q 1175 2209 1959 2209 
L 2766 2209 
L 2766 2266 
Q 2766 2663 2505 2880 
Q 2244 3097 1772 3097 
Q 1472 3097 1187 3025 
Q 903 2953 641 2809 
L 641 3341 
Q 956 3463 1253 3523 
Q 1550 3584 1831 3584 
Q 2591 3584 2966 3190 
Q 3341 2797 3341 1997 
z
" transform="scale(0.015625)"/>
       <path id="DejaVuSans-64" d="M 2906 2969 
L 2906 4863 
L 3481 4863 
L 3481 0 
L 2906 0 
L 2906 525 
Q 2725 213 2448 61 
Q 2172 -91 1784 -91 
Q 1150 -91 751 415 
Q 353 922 353 1747 
Q 353 2572 751 3078 
Q 1150 3584 1784 3584 
Q 2172 3584 2448 3432 
Q 2725 3281 2906 2969 
z
M 947 1747 
Q 947 1113 1208 752 
Q 1469 391 1925 391 
Q 2381 391 2643 752 
Q 2906 1113 2906 1747 
Q 2906 2381 2643 2742 
Q 2381 3103 1925 3103 
Q 1469 3103 1208 2742 
Q 947 2381 947 1747 
z
" transform="scale(0.015625)"/>
       <path id="DejaVuSans-68" d="M 3513 2113 
L 3513 0 
L 2938 0 
L 2938 2094 
Q 2938 2591 2744 2837 
Q 2550 3084 2163 3084 
Q 1697 3084 1428 2787 
Q 1159 2491 1159 1978 
L 1159 0 
L 581 0 
L 581 4863 
L 1159 4863 
L 1159 2956 
Q 1366 3272 1645 3428 
Q 1925 3584 2291 3584 
Q 2894 3584 3203 3211 
Q 3513 2838 3513 2113 
z
" transform="scale(0.015625)"/>
       <path id="DejaVuSans-65" d="M 3597 1894 
L 3597 1613 
L 953 1613 
Q 991 1019 1311 708 
Q 1631 397 2203 397 
Q 2534 397 2845 478 
Q 3156 559 3463 722 
L 3463 178 
Q 3153 47 2828 -22 
Q 2503 -91 2169 -91 
Q 1331 -91 842 396 
Q 353 884 353 1716 
Q 353 2575 817 3079 
Q 1281 3584 2069 3584 
Q 2775 3584 3186 3129 
Q 3597 2675 3597 1894 
z
M 3022 2063 
Q 3016 2534 2758 2815 
Q 2500 3097 2075 3097 
Q 1594 3097 1305 2825 
Q 1016 2553 972 2059 
L 3022 2063 
z
" transform="scale(0.015625)"/>
       <path id="DejaVuSans-72" d="M 2631 2963 
Q 2534 3019 2420 3045 
Q 2306 3072 2169 3072 
Q 1681 3072 1420 2755 
Q 1159 2438 1159 1844 
L 1159 0 
L 581 0 
L 581 3500 
L 1159 3500 
L 1159 2956 
Q 1341 3275 1631 3429 
Q 1922 3584 2338 3584 
Q 2397 3584 2469 3576 
Q 2541 3569 2628 3553 
L 2631 2963 
z
" transform="scale(0.015625)"/>
       <path id="DejaVuSans-69" d="M 603 3500 
L 1178 3500 
L 1178 0 
L 603 0 
L 603 3500 
z
M 603 4863 
L 1178 4863 
L 1178 4134 
L 603 4134 
L 603 4863 
z
" transform="scale(0.015625)"/>
       <path id="DejaVuSans-73" d="M 2834 3397 
L 2834 2853 
Q 2591 2978 2328 3040 
Q 2066 3103 1784 3103 
Q 1356 3103 1142 2972 
Q 928 2841 928 2578 
Q 928 2378 1081 2264 
Q 1234 2150 1697 2047 
L 1894 2003 
Q 2506 1872 2764 1633 
Q 3022 1394 3022 966 
Q 3022 478 2636 193 
Q 2250 -91 1575 -91 
Q 1294 -91 989 -36 
Q 684 19 347 128 
L 347 722 
Q 666 556 975 473 
Q 1284 391 1588 391 
Q 1994 391 2212 530 
Q 2431 669 2431 922 
Q 2431 1156 2273 1281 
Q 2116 1406 1581 1522 
L 1381 1569 
Q 847 1681 609 1914 
Q 372 2147 372 2553 
Q 372 3047 722 3315 
Q 1072 3584 1716 3584 
Q 2034 3584 2315 3537 
Q 2597 3491 2834 3397 
z
" transform="scale(0.015625)"/>
       <path id="DejaVuSans-74" d="M 1172 4494 
L 1172 3500 
L 2356 3500 
L 2356 3053 
L 1172 3053 
L 1172 1153 
Q 1172 725 1289 603 
Q 1406 481 1766 481 
L 2356 481 
L 2356 0 
L 1766 0 
Q 1100 0 847 248 
Q 594 497 594 1153 
L 594 3053 
L 172 3053 
L 172 3500 
L 594 3500 
L 594 4494 
L 1172 4494 
z
" transform="scale(0.015625)"/>
       <path id="DejaVuSans-63" d="M 3122 3366 
L 3122 2828 
Q 2878 2963 2633 3030 
Q 2388 3097 2138 3097 
Q 1578 3097 1268 2742 
Q 959 2388 959 1747 
Q 959 1106 1268 751 
Q 1578 397 2138 397 
Q 2388 397 2633 464 
Q 2878 531 3122 666 
L 3122 134 
Q 2881 22 2623 -34 
Q 2366 -91 2075 -91 
Q 1284 -91 818 406 
Q 353 903 353 1747 
Q 353 2603 823 3093 
Q 1294 3584 2113 3584 
Q 2378 3584 2631 3529 
Q 2884 3475 3122 3366 
z
" transform="scale(0.015625)"/>
       <path id="DejaVuSans-62" d="M 3116 1747 
Q 3116 2381 2855 2742 
Q 2594 3103 2138 3103 
Q 1681 3103 1420 2742 
Q 1159 2381 1159 1747 
Q 1159 1113 1420 752 
Q 1681 391 2138 391 
Q 2594 391 2855 752 
Q 3116 1113 3116 1747 
z
M 1159 2969 
Q 1341 3281 1617 3432 
Q 1894 3584 2278 3584 
Q 2916 3584 3314 3078 
Q 3713 2572 3713 1747 
Q 3713 922 3314 415 
Q 2916 -91 2278 -91 
Q 1894 -91 1617 61 
Q 1341 213 1159 525 
L 1159 0 
L 581 0 
L 581 4863 
L 1159 4863 
L 1159 2969 
z
" transform="scale(0.015625)"/>
       <path id="DejaVuSans-6f" d="M 1959 3097 
Q 1497 3097 1228 2736 
Q 959 2375 959 1747 
Q 959 1119 1226 758 
Q 1494 397 1959 397 
Q 2419 397 2687 759 
Q 2956 1122 2956 1747 
Q 2956 2369 2687 2733 
Q 2419 3097 1959 3097 
z
M 1959 3584 
Q 2709 3584 3137 3096 
Q 3566 2609 3566 1747 
Q 3566 888 3137 398 
Q 2709 -91 1959 -91 
Q 1206 -91 779 398 
Q 353 888 353 1747 
Q 353 2609 779 3096 
Q 1206 3584 1959 3584 
z
" transform="scale(0.015625)"/>
      </defs>
      <use xlink:href="#DejaVuSans-4f"/>
      <use xlink:href="#DejaVuSans-6e" x="78.710938"/>
      <use xlink:href="#DejaVuSans-20" x="142.089844"/>
      <use xlink:href="#DejaVuSans-66" x="173.876953"/>
      <use xlink:href="#DejaVuSans-75" x="209.082031"/>
      <use xlink:href="#DejaVuSans-6c" x="272.460938"/>
      <use xlink:href="#DejaVuSans-6c" x="300.244141"/>
      <use xlink:href="#DejaVuSans-20" x="328.027344"/>
      <use xlink:href="#DejaVuSans-61" x="359.814453"/>
      <use xlink:href="#DejaVuSans-6e" x="421.09375"/>
      <use xlink:href="#DejaVuSans-64" x="484.472656"/>
      <use xlink:href="#DejaVuSans-20" x="547.949219"/>
      <use xlink:href="#DejaVuSans-68" x="579.736328"/>
      <use xlink:href="#DejaVuSans-65" x="643.115234"/>
      <use xlink:href="#DejaVuSans-75" x="704.638672"/>
      <use xlink:href="#DejaVuSans-72" x="768.017578"/>
      <use xlink:href="#DejaVuSans-69" x="809.130859"/>
      <use xlink:href="#DejaVuSans-73" x="836.914062"/>
      <use xlink:href="#DejaVuSans-74" x="889.013672"/>
      <use xlink:href="#DejaVuSans-69" x="928.222656"/>
      <use xlink:href="#DejaVuSans-63" x="956.005859"/>
      <use xlink:href="#DejaVuSans-20" x="1010.986328"/>
      <use xlink:href="#DejaVuSans-62" x="1042.773438"/>
      <use xlink:href="#DejaVuSans-6f" x="1106.25"/>
      <use xlink:href="#DejaVuSans-75" x="1167.431641"/>
      <use xlink:href="#DejaVuSans-6e" x="1230.810547"/>
      <use xlink:href="#DejaVuSans-64" x="1294.189453"/>
      <use xlink:href="#DejaVuSans-73" x="1357.666016"/>
     </g>
    </g>
    <g id="line2d_45">
     <g>
      <use xlink:href="#m769f456459" x="25.38125" y="21.088281" style="fill: #ffa500; fill-opacity: 0.7"/>
     </g>
    </g>
    <g id="text_13">
     <!-- Neither -->
     <g transform="translate(34.38125 22.838281) scale(0.05 -0.05)">
      <defs>
       <path id="DejaVuSans-4e" d="M 628 4666 
L 1478 4666 
L 3547 763 
L 3547 4666 
L 4159 4666 
L 4159 0 
L 3309 0 
L 1241 3903 
L 1241 0 
L 628 0 
L 628 4666 
z
" transform="scale(0.015625)"/>
      </defs>
      <use xlink:href="#DejaVuSans-4e"/>
      <use xlink:href="#DejaVuSans-65" x="74.804688"/>
      <use xlink:href="#DejaVuSans-69" x="136.328125"/>
      <use xlink:href="#DejaVuSans-74" x="164.111328"/>
      <use xlink:href="#DejaVuSans-68" x="203.320312"/>
      <use xlink:href="#DejaVuSans-65" x="266.699219"/>
      <use xlink:href="#DejaVuSans-72" x="328.222656"/>
     </g>
    </g>
   </g>
   <g id="legend_2">
    <g id="line2d_46">
     <path d="M 75.315 97.471094 
L 80.315 97.471094 
L 85.315 97.471094 
" style="fill: none; stroke: #000000; stroke-width: 0.8; stroke-linecap: square"/>
    </g>
    <g id="text_14">
     <!-- Full bound theory -->
     <g transform="translate(89.315 99.221094) scale(0.05 -0.05)">
      <defs>
       <path id="DejaVuSans-46" d="M 628 4666 
L 3309 4666 
L 3309 4134 
L 1259 4134 
L 1259 2759 
L 3109 2759 
L 3109 2228 
L 1259 2228 
L 1259 0 
L 628 0 
L 628 4666 
z
" transform="scale(0.015625)"/>
       <path id="DejaVuSans-79" d="M 2059 -325 
Q 1816 -950 1584 -1140 
Q 1353 -1331 966 -1331 
L 506 -1331 
L 506 -850 
L 844 -850 
Q 1081 -850 1212 -737 
Q 1344 -625 1503 -206 
L 1606 56 
L 191 3500 
L 800 3500 
L 1894 763 
L 2988 3500 
L 3597 3500 
L 2059 -325 
z
" transform="scale(0.015625)"/>
      </defs>
      <use xlink:href="#DejaVuSans-46"/>
      <use xlink:href="#DejaVuSans-75" x="52.019531"/>
      <use xlink:href="#DejaVuSans-6c" x="115.398438"/>
      <use xlink:href="#DejaVuSans-6c" x="143.181641"/>
      <use xlink:href="#DejaVuSans-20" x="170.964844"/>
      <use xlink:href="#DejaVuSans-62" x="202.751953"/>
      <use xlink:href="#DejaVuSans-6f" x="266.228516"/>
      <use xlink:href="#DejaVuSans-75" x="327.410156"/>
      <use xlink:href="#DejaVuSans-6e" x="390.789062"/>
      <use xlink:href="#DejaVuSans-64" x="454.167969"/>
      <use xlink:href="#DejaVuSans-20" x="517.644531"/>
      <use xlink:href="#DejaVuSans-74" x="549.431641"/>
      <use xlink:href="#DejaVuSans-68" x="588.640625"/>
      <use xlink:href="#DejaVuSans-65" x="652.019531"/>
      <use xlink:href="#DejaVuSans-6f" x="713.542969"/>
      <use xlink:href="#DejaVuSans-72" x="774.724609"/>
      <use xlink:href="#DejaVuSans-79" x="815.837891"/>
     </g>
    </g>
    <g id="line2d_47">
     <path d="M 75.315 104.810156 
L 80.315 104.810156 
L 85.315 104.810156 
" style="fill: none; stroke-dasharray: 2.96,1.28; stroke-dashoffset: 0; stroke: #000000; stroke-width: 0.8"/>
    </g>
    <g id="text_15">
     <!-- Heuristic bound theory -->
     <g transform="translate(89.315 106.560156) scale(0.05 -0.05)">
      <defs>
       <path id="DejaVuSans-48" d="M 628 4666 
L 1259 4666 
L 1259 2753 
L 3553 2753 
L 3553 4666 
L 4184 4666 
L 4184 0 
L 3553 0 
L 3553 2222 
L 1259 2222 
L 1259 0 
L 628 0 
L 628 4666 
z
" transform="scale(0.015625)"/>
      </defs>
      <use xlink:href="#DejaVuSans-48"/>
      <use xlink:href="#DejaVuSans-65" x="75.195312"/>
      <use xlink:href="#DejaVuSans-75" x="136.71875"/>
      <use xlink:href="#DejaVuSans-72" x="200.097656"/>
      <use xlink:href="#DejaVuSans-69" x="241.210938"/>
      <use xlink:href="#DejaVuSans-73" x="268.994141"/>
      <use xlink:href="#DejaVuSans-74" x="321.09375"/>
      <use xlink:href="#DejaVuSans-69" x="360.302734"/>
      <use xlink:href="#DejaVuSans-63" x="388.085938"/>
      <use xlink:href="#DejaVuSans-20" x="443.066406"/>
      <use xlink:href="#DejaVuSans-62" x="474.853516"/>
      <use xlink:href="#DejaVuSans-6f" x="538.330078"/>
      <use xlink:href="#DejaVuSans-75" x="599.511719"/>
      <use xlink:href="#DejaVuSans-6e" x="662.890625"/>
      <use xlink:href="#DejaVuSans-64" x="726.269531"/>
      <use xlink:href="#DejaVuSans-20" x="789.746094"/>
      <use xlink:href="#DejaVuSans-74" x="821.533203"/>
      <use xlink:href="#DejaVuSans-68" x="860.742188"/>
      <use xlink:href="#DejaVuSans-65" x="924.121094"/>
      <use xlink:href="#DejaVuSans-6f" x="985.644531"/>
      <use xlink:href="#DejaVuSans-72" x="1046.826172"/>
      <use xlink:href="#DejaVuSans-79" x="1087.939453"/>
     </g>
    </g>
   </g>
  </g>
 </g>
 <defs>
  <clipPath id="p495492efd8">
   <rect x="15.88125" y="7.2" width="135.29" height="104.9"/>
  </clipPath>
 </defs>
</svg>
