<?xml version="1.0" encoding="utf-8" standalone="no"?>
<!DOCTYPE svg PUBLIC "-//W3C//DTD SVG 1.1//EN"
  "http://www.w3.org/Graphics/SVG/1.1/DTD/svg11.dtd">
<svg xmlns:xlink="http://www.w3.org/1999/xlink" width="205.058437pt" height="173.426186pt" viewBox="0 0 205.058437 173.426186" xmlns="http://www.w3.org/2000/svg" version="1.1">
 <metadata>
  <rdf:RDF xmlns:dc="http://purl.org/dc/elements/1.1/" xmlns:cc="http://creativecommons.org/ns#" xmlns:rdf="http://www.w3.org/1999/02/22-rdf-syntax-ns#">
   <cc:Work>
    <dc:type rdf:resource="http://purl.org/dc/dcmitype/StillImage"/>
    <dc:date>2026-04-22T22:28:48.479384</dc:date>
    <dc:format>image/svg+xml</dc:format>
    <dc:creator>
     <cc:Agent>
      <dc:title>Matplotlib v3.8.2, https://matplotlib.org/</dc:title>
     </cc:Agent>
    </dc:creator>
   </cc:Work>
  </rdf:RDF>
 </metadata>
 <defs>
  <style type="text/css">*{stroke-linejoin: round; stroke-linecap: butt}</style>
 </defs>
 <g id="figure_1">
  <g id="patch_1">
   <path d="M -0 173.426186 
L 205.058437 173.426186 
L 205.058437 0 
L -0 0 
z
" style="fill: #ffffff"/>
  </g>
  <g id="axes_1">
   <g id="patch_2">
    <path d="M 30.458438 146.080248 
L 197.858438 146.080248 
L 197.858438 7.480248 
L 30.458438 7.480248 
z
" style="fill: #ffffff"/>
   </g>
   <g id="matplotlib.axis_1">
    <g id="xtick_1">
     <g id="line2d_1">
      <defs>
       <path id="m05af0a3182" d="M 0 0 
L 0 2 
" style="stroke: #000000; stroke-width: 0.5"/>
      </defs>
      <g>
       <use xlink:href="#m05af0a3182" x="38.067528" y="146.080248" style="stroke: #000000; stroke-width: 0.5"/>
      </g>
     </g>
     <g id="text_1">
      <!-- 0.0 -->
      <g transform="translate(34.091747 155.379467) scale(0.05 -0.05)">
       <defs>
        <path id="DejaVuSans-30" d="M 2034 4250 
Q 1547 4250 1301 3770 
Q 1056 3291 1056 2328 
Q 1056 1369 1301 889 
Q 1547 409 2034 409 
Q 2525 409 2770 889 
Q 3016 1369 3016 2328 
Q 3016 3291 2770 3770 
Q 2525 4250 2034 4250 
z
M 2034 4750 
Q 2819 4750 3233 4129 
Q 3647 3509 3647 2328 
Q 3647 1150 3233 529 
Q 2819 -91 2034 -91 
Q 1250 -91 836 529 
Q 422 1150 422 2328 
Q 422 3509 836 4129 
Q 1250 4750 2034 4750 
z
" transform="scale(0.015625)"/>
        <path id="DejaVuSans-2e" d="M 684 794 
L 1344 794 
L 1344 0 
L 684 0 
L 684 794 
z
" transform="scale(0.015625)"/>
       </defs>
       <use xlink:href="#DejaVuSans-30"/>
       <use xlink:href="#DejaVuSans-2e" x="63.623047"/>
       <use xlink:href="#DejaVuSans-30" x="95.410156"/>
      </g>
     </g>
    </g>
    <g id="xtick_2">
     <g id="line2d_2">
      <g>
       <use xlink:href="#m05af0a3182" x="68.503892" y="146.080248" style="stroke: #000000; stroke-width: 0.5"/>
      </g>
     </g>
     <g id="text_2">
      <!-- 0.2 -->
      <g transform="translate(64.528111 155.379467) scale(0.05 -0.05)">
       <defs>
        <path id="DejaVuSans-32" d="M 1228 531 
L 3431 531 
L 3431 0 
L 469 0 
L 469 531 
Q 828 903 1448 1529 
Q 2069 2156 2228 2338 
Q 2531 2678 2651 2914 
Q 2772 3150 2772 3378 
Q 2772 3750 2511 3984 
Q 2250 4219 1831 4219 
Q 1534 4219 1204 4116 
Q 875 4013 500 3803 
L 500 4441 
Q 881 4594 1212 4672 
Q 1544 4750 1819 4750 
Q 2544 4750 2975 4387 
Q 3406 4025 3406 3419 
Q 3406 3131 3298 2873 
Q 3191 2616 2906 2266 
Q 2828 2175 2409 1742 
Q 1991 1309 1228 531 
z
" transform="scale(0.015625)"/>
       </defs>
       <use xlink:href="#DejaVuSans-30"/>
       <use xlink:href="#DejaVuSans-2e" x="63.623047"/>
       <use xlink:href="#DejaVuSans-32" x="95.410156"/>
      </g>
     </g>
    </g>
    <g id="xtick_3">
     <g id="line2d_3">
      <g>
       <use xlink:href="#m05af0a3182" x="98.940256" y="146.080248" style="stroke: #000000; stroke-width: 0.5"/>
      </g>
     </g>
     <g id="text_3">
      <!-- 0.4 -->
      <g transform="translate(94.964474 155.379467) scale(0.05 -0.05)">
       <defs>
        <path id="DejaVuSans-34" d="M 2419 4116 
L 825 1625 
L 2419 1625 
L 2419 4116 
z
M 2253 4666 
L 3047 4666 
L 3047 1625 
L 3713 1625 
L 3713 1100 
L 3047 1100 
L 3047 0 
L 2419 0 
L 2419 1100 
L 313 1100 
L 313 1709 
L 2253 4666 
z
" transform="scale(0.015625)"/>
       </defs>
       <use xlink:href="#DejaVuSans-30"/>
       <use xlink:href="#DejaVuSans-2e" x="63.623047"/>
       <use xlink:href="#DejaVuSans-34" x="95.410156"/>
      </g>
     </g>
    </g>
    <g id="xtick_4">
     <g id="line2d_4">
      <g>
       <use xlink:href="#m05af0a3182" x="129.376619" y="146.080248" style="stroke: #000000; stroke-width: 0.5"/>
      </g>
     </g>
     <g id="text_4">
      <!-- 0.6 -->
      <g transform="translate(125.400838 155.379467) scale(0.05 -0.05)">
       <defs>
        <path id="DejaVuSans-36" d="M 2113 2584 
Q 1688 2584 1439 2293 
Q 1191 2003 1191 1497 
Q 1191 994 1439 701 
Q 1688 409 2113 409 
Q 2538 409 2786 701 
Q 3034 994 3034 1497 
Q 3034 2003 2786 2293 
Q 2538 2584 2113 2584 
z
M 3366 4563 
L 3366 3988 
Q 3128 4100 2886 4159 
Q 2644 4219 2406 4219 
Q 1781 4219 1451 3797 
Q 1122 3375 1075 2522 
Q 1259 2794 1537 2939 
Q 1816 3084 2150 3084 
Q 2853 3084 3261 2657 
Q 3669 2231 3669 1497 
Q 3669 778 3244 343 
Q 2819 -91 2113 -91 
Q 1303 -91 875 529 
Q 447 1150 447 2328 
Q 447 3434 972 4092 
Q 1497 4750 2381 4750 
Q 2619 4750 2861 4703 
Q 3103 4656 3366 4563 
z
" transform="scale(0.015625)"/>
       </defs>
       <use xlink:href="#DejaVuSans-30"/>
       <use xlink:href="#DejaVuSans-2e" x="63.623047"/>
       <use xlink:href="#DejaVuSans-36" x="95.410156"/>
      </g>
     </g>
    </g>
    <g id="xtick_5">
     <g id="line2d_5">
      <g>
       <use xlink:href="#m05af0a3182" x="159.812983" y="146.080248" style="stroke: #000000; stroke-width: 0.5"/>
      </g>
     </g>
     <g id="text_5">
      <!-- 0.8 -->
      <g transform="translate(155.837202 155.379467) scale(0.05 -0.05)">
       <defs>
        <path id="DejaVuSans-38" d="M 2034 2216 
Q 1584 2216 1326 1975 
Q 1069 1734 1069 1313 
Q 1069 891 1326 650 
Q 1584 409 2034 409 
Q 2484 409 2743 651 
Q 3003 894 3003 1313 
Q 3003 1734 2745 1975 
Q 2488 2216 2034 2216 
z
M 1403 2484 
Q 997 2584 770 2862 
Q 544 3141 544 3541 
Q 544 4100 942 4425 
Q 1341 4750 2034 4750 
Q 2731 4750 3128 4425 
Q 3525 4100 3525 3541 
Q 3525 3141 3298 2862 
Q 3072 2584 2669 2484 
Q 3125 2378 3379 2068 
Q 3634 1759 3634 1313 
Q 3634 634 3220 271 
Q 2806 -91 2034 -91 
Q 1263 -91 848 271 
Q 434 634 434 1313 
Q 434 1759 690 2068 
Q 947 2378 1403 2484 
z
M 1172 3481 
Q 1172 3119 1398 2916 
Q 1625 2713 2034 2713 
Q 2441 2713 2670 2916 
Q 2900 3119 2900 3481 
Q 2900 3844 2670 4047 
Q 2441 4250 2034 4250 
Q 1625 4250 1398 4047 
Q 1172 3844 1172 3481 
z
" transform="scale(0.015625)"/>
       </defs>
       <use xlink:href="#DejaVuSans-30"/>
       <use xlink:href="#DejaVuSans-2e" x="63.623047"/>
       <use xlink:href="#DejaVuSans-38" x="95.410156"/>
      </g>
     </g>
    </g>
    <g id="xtick_6">
     <g id="line2d_6">
      <g>
       <use xlink:href="#m05af0a3182" x="190.249347" y="146.080248" style="stroke: #000000; stroke-width: 0.5"/>
      </g>
     </g>
     <g id="text_6">
      <!-- 1.0 -->
      <g transform="translate(186.273565 155.379467) scale(0.05 -0.05)">
       <defs>
        <path id="DejaVuSans-31" d="M 794 531 
L 1825 531 
L 1825 4091 
L 703 3866 
L 703 4441 
L 1819 4666 
L 2450 4666 
L 2450 531 
L 3481 531 
L 3481 0 
L 794 0 
L 794 531 
z
" transform="scale(0.015625)"/>
       </defs>
       <use xlink:href="#DejaVuSans-31"/>
       <use xlink:href="#DejaVuSans-2e" x="63.623047"/>
       <use xlink:href="#DejaVuSans-30" x="95.410156"/>
      </g>
     </g>
    </g>
    <g id="text_7">
     <!-- Inference predictiveness (bits) -->
     <g transform="translate(68.529375 164.978373) scale(0.06 -0.06)">
      <defs>
       <path id="DejaVuSans-49" d="M 628 4666 
L 1259 4666 
L 1259 0 
L 628 0 
L 628 4666 
z
" transform="scale(0.015625)"/>
       <path id="DejaVuSans-6e" d="M 3513 2113 
L 3513 0 
L 2938 0 
L 2938 2094 
Q 2938 2591 2744 2837 
Q 2550 3084 2163 3084 
Q 1697 3084 1428 2787 
Q 1159 2491 1159 1978 
L 1159 0 
L 581 0 
L 581 3500 
L 1159 3500 
L 1159 2956 
Q 1366 3272 1645 3428 
Q 1925 3584 2291 3584 
Q 2894 3584 3203 3211 
Q 3513 2838 3513 2113 
z
" transform="scale(0.015625)"/>
       <path id="DejaVuSans-66" d="M 2375 4863 
L 2375 4384 
L 1825 4384 
Q 1516 4384 1395 4259 
Q 1275 4134 1275 3809 
L 1275 3500 
L 2222 3500 
L 2222 3053 
L 1275 3053 
L 1275 0 
L 697 0 
L 697 3053 
L 147 3053 
L 147 3500 
L 697 3500 
L 697 3744 
Q 697 4328 969 4595 
Q 1241 4863 1831 4863 
L 2375 4863 
z
" transform="scale(0.015625)"/>
       <path id="DejaVuSans-65" d="M 3597 1894 
L 3597 1613 
L 953 1613 
Q 991 1019 1311 708 
Q 1631 397 2203 397 
Q 2534 397 2845 478 
Q 3156 559 3463 722 
L 3463 178 
Q 3153 47 2828 -22 
Q 2503 -91 2169 -91 
Q 1331 -91 842 396 
Q 353 884 353 1716 
Q 353 2575 817 3079 
Q 1281 3584 2069 3584 
Q 2775 3584 3186 3129 
Q 3597 2675 3597 1894 
z
M 3022 2063 
Q 3016 2534 2758 2815 
Q 2500 3097 2075 3097 
Q 1594 3097 1305 2825 
Q 1016 2553 972 2059 
L 3022 2063 
z
" transform="scale(0.015625)"/>
       <path id="DejaVuSans-72" d="M 2631 2963 
Q 2534 3019 2420 3045 
Q 2306 3072 2169 3072 
Q 1681 3072 1420 2755 
Q 1159 2438 1159 1844 
L 1159 0 
L 581 0 
L 581 3500 
L 1159 3500 
L 1159 2956 
Q 1341 3275 1631 3429 
Q 1922 3584 2338 3584 
Q 2397 3584 2469 3576 
Q 2541 3569 2628 3553 
L 2631 2963 
z
" transform="scale(0.015625)"/>
       <path id="DejaVuSans-63" d="M 3122 3366 
L 3122 2828 
Q 2878 2963 2633 3030 
Q 2388 3097 2138 3097 
Q 1578 3097 1268 2742 
Q 959 2388 959 1747 
Q 959 1106 1268 751 
Q 1578 397 2138 397 
Q 2388 397 2633 464 
Q 2878 531 3122 666 
L 3122 134 
Q 2881 22 2623 -34 
Q 2366 -91 2075 -91 
Q 1284 -91 818 406 
Q 353 903 353 1747 
Q 353 2603 823 3093 
Q 1294 3584 2113 3584 
Q 2378 3584 2631 3529 
Q 2884 3475 3122 3366 
z
" transform="scale(0.015625)"/>
       <path id="DejaVuSans-20" transform="scale(0.015625)"/>
       <path id="DejaVuSans-70" d="M 1159 525 
L 1159 -1331 
L 581 -1331 
L 581 3500 
L 1159 3500 
L 1159 2969 
Q 1341 3281 1617 3432 
Q 1894 3584 2278 3584 
Q 2916 3584 3314 3078 
Q 3713 2572 3713 1747 
Q 3713 922 3314 415 
Q 2916 -91 2278 -91 
Q 1894 -91 1617 61 
Q 1341 213 1159 525 
z
M 3116 1747 
Q 3116 2381 2855 2742 
Q 2594 3103 2138 3103 
Q 1681 3103 1420 2742 
Q 1159 2381 1159 1747 
Q 1159 1113 1420 752 
Q 1681 391 2138 391 
Q 2594 391 2855 752 
Q 3116 1113 3116 1747 
z
" transform="scale(0.015625)"/>
       <path id="DejaVuSans-64" d="M 2906 2969 
L 2906 4863 
L 3481 4863 
L 3481 0 
L 2906 0 
L 2906 525 
Q 2725 213 2448 61 
Q 2172 -91 1784 -91 
Q 1150 -91 751 415 
Q 353 922 353 1747 
Q 353 2572 751 3078 
Q 1150 3584 1784 3584 
Q 2172 3584 2448 3432 
Q 2725 3281 2906 2969 
z
M 947 1747 
Q 947 1113 1208 752 
Q 1469 391 1925 391 
Q 2381 391 2643 752 
Q 2906 1113 2906 1747 
Q 2906 2381 2643 2742 
Q 2381 3103 1925 3103 
Q 1469 3103 1208 2742 
Q 947 2381 947 1747 
z
" transform="scale(0.015625)"/>
       <path id="DejaVuSans-69" d="M 603 3500 
L 1178 3500 
L 1178 0 
L 603 0 
L 603 3500 
z
M 603 4863 
L 1178 4863 
L 1178 4134 
L 603 4134 
L 603 4863 
z
" transform="scale(0.015625)"/>
       <path id="DejaVuSans-74" d="M 1172 4494 
L 1172 3500 
L 2356 3500 
L 2356 3053 
L 1172 3053 
L 1172 1153 
Q 1172 725 1289 603 
Q 1406 481 1766 481 
L 2356 481 
L 2356 0 
L 1766 0 
Q 1100 0 847 248 
Q 594 497 594 1153 
L 594 3053 
L 172 3053 
L 172 3500 
L 594 3500 
L 594 4494 
L 1172 4494 
z
" transform="scale(0.015625)"/>
       <path id="DejaVuSans-76" d="M 191 3500 
L 800 3500 
L 1894 563 
L 2988 3500 
L 3597 3500 
L 2284 0 
L 1503 0 
L 191 3500 
z
" transform="scale(0.015625)"/>
       <path id="DejaVuSans-73" d="M 2834 3397 
L 2834 2853 
Q 2591 2978 2328 3040 
Q 2066 3103 1784 3103 
Q 1356 3103 1142 2972 
Q 928 2841 928 2578 
Q 928 2378 1081 2264 
Q 1234 2150 1697 2047 
L 1894 2003 
Q 2506 1872 2764 1633 
Q 3022 1394 3022 966 
Q 3022 478 2636 193 
Q 2250 -91 1575 -91 
Q 1294 -91 989 -36 
Q 684 19 347 128 
L 347 722 
Q 666 556 975 473 
Q 1284 391 1588 391 
Q 1994 391 2212 530 
Q 2431 669 2431 922 
Q 2431 1156 2273 1281 
Q 2116 1406 1581 1522 
L 1381 1569 
Q 847 1681 609 1914 
Q 372 2147 372 2553 
Q 372 3047 722 3315 
Q 1072 3584 1716 3584 
Q 2034 3584 2315 3537 
Q 2597 3491 2834 3397 
z
" transform="scale(0.015625)"/>
       <path id="DejaVuSans-28" d="M 1984 4856 
Q 1566 4138 1362 3434 
Q 1159 2731 1159 2009 
Q 1159 1288 1364 580 
Q 1569 -128 1984 -844 
L 1484 -844 
Q 1016 -109 783 600 
Q 550 1309 550 2009 
Q 550 2706 781 3412 
Q 1013 4119 1484 4856 
L 1984 4856 
z
" transform="scale(0.015625)"/>
       <path id="DejaVuSans-62" d="M 3116 1747 
Q 3116 2381 2855 2742 
Q 2594 3103 2138 3103 
Q 1681 3103 1420 2742 
Q 1159 2381 1159 1747 
Q 1159 1113 1420 752 
Q 1681 391 2138 391 
Q 2594 391 2855 752 
Q 3116 1113 3116 1747 
z
M 1159 2969 
Q 1341 3281 1617 3432 
Q 1894 3584 2278 3584 
Q 2916 3584 3314 3078 
Q 3713 2572 3713 1747 
Q 3713 922 3314 415 
Q 2916 -91 2278 -91 
Q 1894 -91 1617 61 
Q 1341 213 1159 525 
L 1159 0 
L 581 0 
L 581 4863 
L 1159 4863 
L 1159 2969 
z
" transform="scale(0.015625)"/>
       <path id="DejaVuSans-29" d="M 513 4856 
L 1013 4856 
Q 1481 4119 1714 3412 
Q 1947 2706 1947 2009 
Q 1947 1309 1714 600 
Q 1481 -109 1013 -844 
L 513 -844 
Q 928 -128 1133 580 
Q 1338 1288 1338 2009 
Q 1338 2731 1133 3434 
Q 928 4138 513 4856 
z
" transform="scale(0.015625)"/>
      </defs>
      <use xlink:href="#DejaVuSans-49"/>
      <use xlink:href="#DejaVuSans-6e" x="29.492188"/>
      <use xlink:href="#DejaVuSans-66" x="92.871094"/>
      <use xlink:href="#DejaVuSans-65" x="128.076172"/>
      <use xlink:href="#DejaVuSans-72" x="189.599609"/>
      <use xlink:href="#DejaVuSans-65" x="228.462891"/>
      <use xlink:href="#DejaVuSans-6e" x="289.986328"/>
      <use xlink:href="#DejaVuSans-63" x="353.365234"/>
      <use xlink:href="#DejaVuSans-65" x="408.345703"/>
      <use xlink:href="#DejaVuSans-20" x="469.869141"/>
      <use xlink:href="#DejaVuSans-70" x="501.65625"/>
      <use xlink:href="#DejaVuSans-72" x="565.132812"/>
      <use xlink:href="#DejaVuSans-65" x="603.996094"/>
      <use xlink:href="#DejaVuSans-64" x="665.519531"/>
      <use xlink:href="#DejaVuSans-69" x="728.996094"/>
      <use xlink:href="#DejaVuSans-63" x="756.779297"/>
      <use xlink:href="#DejaVuSans-74" x="811.759766"/>
      <use xlink:href="#DejaVuSans-69" x="850.96875"/>
      <use xlink:href="#DejaVuSans-76" x="878.751953"/>
      <use xlink:href="#DejaVuSans-65" x="937.931641"/>
      <use xlink:href="#DejaVuSans-6e" x="999.455078"/>
      <use xlink:href="#DejaVuSans-65" x="1062.833984"/>
      <use xlink:href="#DejaVuSans-73" x="1124.357422"/>
      <use xlink:href="#DejaVuSans-73" x="1176.457031"/>
      <use xlink:href="#DejaVuSans-20" x="1228.556641"/>
      <use xlink:href="#DejaVuSans-28" x="1260.34375"/>
      <use xlink:href="#DejaVuSans-62" x="1299.357422"/>
      <use xlink:href="#DejaVuSans-69" x="1362.833984"/>
      <use xlink:href="#DejaVuSans-74" x="1390.617188"/>
      <use xlink:href="#DejaVuSans-73" x="1429.826172"/>
      <use xlink:href="#DejaVuSans-29" x="1481.925781"/>
     </g>
    </g>
   </g>
   <g id="matplotlib.axis_2">
    <g id="ytick_1">
     <g id="line2d_7">
      <defs>
       <path id="m5b01e98e9f" d="M 0 0 
L -2 0 
" style="stroke: #000000; stroke-width: 0.5"/>
      </defs>
      <g>
       <use xlink:href="#m5b01e98e9f" x="30.458438" y="139.780248" style="stroke: #000000; stroke-width: 0.5"/>
      </g>
     </g>
     <g id="text_8">
      <!-- 0.0 -->
      <g transform="translate(17.006875 141.679858) scale(0.05 -0.05)">
       <use xlink:href="#DejaVuSans-30"/>
       <use xlink:href="#DejaVuSans-2e" x="63.623047"/>
       <use xlink:href="#DejaVuSans-30" x="95.410156"/>
      </g>
     </g>
    </g>
    <g id="ytick_2">
     <g id="line2d_8">
      <g>
       <use xlink:href="#m5b01e98e9f" x="30.458438" y="121.111586" style="stroke: #000000; stroke-width: 0.5"/>
      </g>
     </g>
     <g id="text_9">
      <!-- 0.1 -->
      <g transform="translate(17.006875 123.011195) scale(0.05 -0.05)">
       <use xlink:href="#DejaVuSans-30"/>
       <use xlink:href="#DejaVuSans-2e" x="63.623047"/>
       <use xlink:href="#DejaVuSans-31" x="95.410156"/>
      </g>
     </g>
    </g>
    <g id="ytick_3">
     <g id="line2d_9">
      <g>
       <use xlink:href="#m5b01e98e9f" x="30.458438" y="102.442923" style="stroke: #000000; stroke-width: 0.5"/>
      </g>
     </g>
     <g id="text_10">
      <!-- 0.2 -->
      <g transform="translate(17.006875 104.342532) scale(0.05 -0.05)">
       <use xlink:href="#DejaVuSans-30"/>
       <use xlink:href="#DejaVuSans-2e" x="63.623047"/>
       <use xlink:href="#DejaVuSans-32" x="95.410156"/>
      </g>
     </g>
    </g>
    <g id="ytick_4">
     <g id="line2d_10">
      <g>
       <use xlink:href="#m5b01e98e9f" x="30.458438" y="83.77426" style="stroke: #000000; stroke-width: 0.5"/>
      </g>
     </g>
     <g id="text_11">
      <!-- 0.3 -->
      <g transform="translate(17.006875 85.67387) scale(0.05 -0.05)">
       <defs>
        <path id="DejaVuSans-33" d="M 2597 2516 
Q 3050 2419 3304 2112 
Q 3559 1806 3559 1356 
Q 3559 666 3084 287 
Q 2609 -91 1734 -91 
Q 1441 -91 1130 -33 
Q 819 25 488 141 
L 488 750 
Q 750 597 1062 519 
Q 1375 441 1716 441 
Q 2309 441 2620 675 
Q 2931 909 2931 1356 
Q 2931 1769 2642 2001 
Q 2353 2234 1838 2234 
L 1294 2234 
L 1294 2753 
L 1863 2753 
Q 2328 2753 2575 2939 
Q 2822 3125 2822 3475 
Q 2822 3834 2567 4026 
Q 2313 4219 1838 4219 
Q 1578 4219 1281 4162 
Q 984 4106 628 3988 
L 628 4550 
Q 988 4650 1302 4700 
Q 1616 4750 1894 4750 
Q 2613 4750 3031 4423 
Q 3450 4097 3450 3541 
Q 3450 3153 3228 2886 
Q 3006 2619 2597 2516 
z
" transform="scale(0.015625)"/>
       </defs>
       <use xlink:href="#DejaVuSans-30"/>
       <use xlink:href="#DejaVuSans-2e" x="63.623047"/>
       <use xlink:href="#DejaVuSans-33" x="95.410156"/>
      </g>
     </g>
    </g>
    <g id="ytick_5">
     <g id="line2d_11">
      <g>
       <use xlink:href="#m5b01e98e9f" x="30.458438" y="65.105597" style="stroke: #000000; stroke-width: 0.5"/>
      </g>
     </g>
     <g id="text_12">
      <!-- 0.4 -->
      <g transform="translate(17.006875 67.005207) scale(0.05 -0.05)">
       <use xlink:href="#DejaVuSans-30"/>
       <use xlink:href="#DejaVuSans-2e" x="63.623047"/>
       <use xlink:href="#DejaVuSans-34" x="95.410156"/>
      </g>
     </g>
    </g>
    <g id="ytick_6">
     <g id="line2d_12">
      <g>
       <use xlink:href="#m5b01e98e9f" x="30.458438" y="46.436935" style="stroke: #000000; stroke-width: 0.5"/>
      </g>
     </g>
     <g id="text_13">
      <!-- 0.5 -->
      <g transform="translate(17.006875 48.336544) scale(0.05 -0.05)">
       <defs>
        <path id="DejaVuSans-35" d="M 691 4666 
L 3169 4666 
L 3169 4134 
L 1269 4134 
L 1269 2991 
Q 1406 3038 1543 3061 
Q 1681 3084 1819 3084 
Q 2600 3084 3056 2656 
Q 3513 2228 3513 1497 
Q 3513 744 3044 326 
Q 2575 -91 1722 -91 
Q 1428 -91 1123 -41 
Q 819 9 494 109 
L 494 744 
Q 775 591 1075 516 
Q 1375 441 1709 441 
Q 2250 441 2565 725 
Q 2881 1009 2881 1497 
Q 2881 1984 2565 2268 
Q 2250 2553 1709 2553 
Q 1456 2553 1204 2497 
Q 953 2441 691 2322 
L 691 4666 
z
" transform="scale(0.015625)"/>
       </defs>
       <use xlink:href="#DejaVuSans-30"/>
       <use xlink:href="#DejaVuSans-2e" x="63.623047"/>
       <use xlink:href="#DejaVuSans-35" x="95.410156"/>
      </g>
     </g>
    </g>
    <g id="ytick_7">
     <g id="line2d_13">
      <g>
       <use xlink:href="#m5b01e98e9f" x="30.458438" y="27.768272" style="stroke: #000000; stroke-width: 0.5"/>
      </g>
     </g>
     <g id="text_14">
      <!-- 0.6 -->
      <g transform="translate(17.006875 29.667881) scale(0.05 -0.05)">
       <use xlink:href="#DejaVuSans-30"/>
       <use xlink:href="#DejaVuSans-2e" x="63.623047"/>
       <use xlink:href="#DejaVuSans-36" x="95.410156"/>
      </g>
     </g>
    </g>
    <g id="ytick_8">
     <g id="line2d_14">
      <g>
       <use xlink:href="#m5b01e98e9f" x="30.458438" y="9.099609" style="stroke: #000000; stroke-width: 0.5"/>
      </g>
     </g>
     <g id="text_15">
      <!-- 0.7 -->
      <g transform="translate(17.006875 10.999219) scale(0.05 -0.05)">
       <defs>
        <path id="DejaVuSans-37" d="M 525 4666 
L 3525 4666 
L 3525 4397 
L 1831 0 
L 1172 0 
L 2766 4134 
L 525 4134 
L 525 4666 
z
" transform="scale(0.015625)"/>
       </defs>
       <use xlink:href="#DejaVuSans-30"/>
       <use xlink:href="#DejaVuSans-2e" x="63.623047"/>
       <use xlink:href="#DejaVuSans-37" x="95.410156"/>
      </g>
     </g>
    </g>
    <g id="text_16">
     <!-- Information capacity (bits) -->
     <g transform="translate(11.759063 116.536342) rotate(-90) scale(0.06 -0.06)">
      <defs>
       <path id="DejaVuSans-6f" d="M 1959 3097 
Q 1497 3097 1228 2736 
Q 959 2375 959 1747 
Q 959 1119 1226 758 
Q 1494 397 1959 397 
Q 2419 397 2687 759 
Q 2956 1122 2956 1747 
Q 2956 2369 2687 2733 
Q 2419 3097 1959 3097 
z
M 1959 3584 
Q 2709 3584 3137 3096 
Q 3566 2609 3566 1747 
Q 3566 888 3137 398 
Q 2709 -91 1959 -91 
Q 1206 -91 779 398 
Q 353 888 353 1747 
Q 353 2609 779 3096 
Q 1206 3584 1959 3584 
z
" transform="scale(0.015625)"/>
       <path id="DejaVuSans-6d" d="M 3328 2828 
Q 3544 3216 3844 3400 
Q 4144 3584 4550 3584 
Q 5097 3584 5394 3201 
Q 5691 2819 5691 2113 
L 5691 0 
L 5113 0 
L 5113 2094 
Q 5113 2597 4934 2840 
Q 4756 3084 4391 3084 
Q 3944 3084 3684 2787 
Q 3425 2491 3425 1978 
L 3425 0 
L 2847 0 
L 2847 2094 
Q 2847 2600 2669 2842 
Q 2491 3084 2119 3084 
Q 1678 3084 1418 2786 
Q 1159 2488 1159 1978 
L 1159 0 
L 581 0 
L 581 3500 
L 1159 3500 
L 1159 2956 
Q 1356 3278 1631 3431 
Q 1906 3584 2284 3584 
Q 2666 3584 2933 3390 
Q 3200 3197 3328 2828 
z
" transform="scale(0.015625)"/>
       <path id="DejaVuSans-61" d="M 2194 1759 
Q 1497 1759 1228 1600 
Q 959 1441 959 1056 
Q 959 750 1161 570 
Q 1363 391 1709 391 
Q 2188 391 2477 730 
Q 2766 1069 2766 1631 
L 2766 1759 
L 2194 1759 
z
M 3341 1997 
L 3341 0 
L 2766 0 
L 2766 531 
Q 2569 213 2275 61 
Q 1981 -91 1556 -91 
Q 1019 -91 701 211 
Q 384 513 384 1019 
Q 384 1609 779 1909 
Q 1175 2209 1959 2209 
L 2766 2209 
L 2766 2266 
Q 2766 2663 2505 2880 
Q 2244 3097 1772 3097 
Q 1472 3097 1187 3025 
Q 903 2953 641 2809 
L 641 3341 
Q 956 3463 1253 3523 
Q 1550 3584 1831 3584 
Q 2591 3584 2966 3190 
Q 3341 2797 3341 1997 
z
" transform="scale(0.015625)"/>
       <path id="DejaVuSans-79" d="M 2059 -325 
Q 1816 -950 1584 -1140 
Q 1353 -1331 966 -1331 
L 506 -1331 
L 506 -850 
L 844 -850 
Q 1081 -850 1212 -737 
Q 1344 -625 1503 -206 
L 1606 56 
L 191 3500 
L 800 3500 
L 1894 763 
L 2988 3500 
L 3597 3500 
L 2059 -325 
z
" transform="scale(0.015625)"/>
      </defs>
      <use xlink:href="#DejaVuSans-49"/>
      <use xlink:href="#DejaVuSans-6e" x="29.492188"/>
      <use xlink:href="#DejaVuSans-66" x="92.871094"/>
      <use xlink:href="#DejaVuSans-6f" x="128.076172"/>
      <use xlink:href="#DejaVuSans-72" x="189.257812"/>
      <use xlink:href="#DejaVuSans-6d" x="228.621094"/>
      <use xlink:href="#DejaVuSans-61" x="326.033203"/>
      <use xlink:href="#DejaVuSans-74" x="387.3125"/>
      <use xlink:href="#DejaVuSans-69" x="426.521484"/>
      <use xlink:href="#DejaVuSans-6f" x="454.304688"/>
      <use xlink:href="#DejaVuSans-6e" x="515.486328"/>
      <use xlink:href="#DejaVuSans-20" x="578.865234"/>
      <use xlink:href="#DejaVuSans-63" x="610.652344"/>
      <use xlink:href="#DejaVuSans-61" x="665.632812"/>
      <use xlink:href="#DejaVuSans-70" x="726.912109"/>
      <use xlink:href="#DejaVuSans-61" x="790.388672"/>
      <use xlink:href="#DejaVuSans-63" x="851.667969"/>
      <use xlink:href="#DejaVuSans-69" x="906.648438"/>
      <use xlink:href="#DejaVuSans-74" x="934.431641"/>
      <use xlink:href="#DejaVuSans-79" x="973.640625"/>
      <use xlink:href="#DejaVuSans-20" x="1032.820312"/>
      <use xlink:href="#DejaVuSans-28" x="1064.607422"/>
      <use xlink:href="#DejaVuSans-62" x="1103.621094"/>
      <use xlink:href="#DejaVuSans-69" x="1167.097656"/>
      <use xlink:href="#DejaVuSans-74" x="1194.880859"/>
      <use xlink:href="#DejaVuSans-73" x="1234.089844"/>
      <use xlink:href="#DejaVuSans-29" x="1286.189453"/>
     </g>
    </g>
   </g>
   <g id="line2d_15">
    <path d="M 38.067528 139.780248 
L 38.067528 139.780248 
L 52.623025 125.392099 
L 83.272363 95.856819 
L 103.7689 76.856394 
L 118.398639 63.790467 
L 129.340852 54.362267 
L 137.816171 47.308018 
L 150.041954 37.607105 
L 158.37723 31.397121 
L 164.369305 27.189418 
L 170.66574 23.056574 
L 176.09606 19.792064 
L 180.883932 17.218052 
L 184.555187 15.512702 
L 187.360154 14.448187 
L 189.397254 13.901395 
L 190.249346 13.780248 
L 190.249346 13.780248 
" clip-path="url(#pad6f73b49d)" style="fill: none; stroke: #000000; stroke-width: 0.7; stroke-linecap: square"/>
   </g>
   <g id="line2d_16">
    <path d="M 38.067528 139.780248 
L 38.067528 139.780248 
L 50.634626 134.299767 
L 65.704657 127.921359 
L 84.343975 120.35398 
L 99.390317 114.534713 
L 111.746219 109.972074 
L 125.082044 105.291446 
L 138.049625 101.012864 
L 149.775413 97.408371 
L 159.814748 94.553085 
L 169.693349 91.989881 
L 178.170577 90.031419 
L 185.102154 88.654522 
L 190.002918 87.892821 
L 190.249347 87.867942 
L 190.249347 87.867942 
" clip-path="url(#pad6f73b49d)" style="fill: none; stroke-dasharray: 2.59,1.12; stroke-dashoffset: 0; stroke: #000000; stroke-width: 0.7"/>
   </g>
   <g id="line2d_17">
    <defs>
     <path id="md0f154f24b" d="M 0 1.5 
C 0.397805 1.5 0.77937 1.341951 1.06066 1.06066 
C 1.341951 0.77937 1.5 0.397805 1.5 0 
C 1.5 -0.397805 1.341951 -0.77937 1.06066 -1.06066 
C 0.77937 -1.341951 0.397805 -1.5 0 -1.5 
C -0.397805 -1.5 -0.77937 -1.341951 -1.06066 -1.06066 
C -1.341951 -0.77937 -1.5 -0.397805 -1.5 0 
C -1.5 0.397805 -1.341951 0.77937 -1.06066 1.06066 
C -0.77937 1.341951 -0.397805 1.5 0 1.5 
z
" style="stroke: #000000; stroke-opacity: 0"/>
    </defs>
    <g clip-path="url(#pad6f73b49d)">
     <use xlink:href="#md0f154f24b" x="77.952881" y="100.843695" style="fill: #1f77b4; fill-opacity: 0.1; stroke: #000000; stroke-opacity: 0"/>
    </g>
   </g>
   <g id="line2d_18">
    <g clip-path="url(#pad6f73b49d)">
     <use xlink:href="#md0f154f24b" x="77.929954" y="100.949747" style="fill: #1f77b4; fill-opacity: 0.1; stroke: #000000; stroke-opacity: 0"/>
    </g>
   </g>
   <g id="line2d_19">
    <g clip-path="url(#pad6f73b49d)">
     <use xlink:href="#md0f154f24b" x="77.873011" y="100.969647" style="fill: #1f77b4; fill-opacity: 0.1; stroke: #000000; stroke-opacity: 0"/>
    </g>
   </g>
   <g id="line2d_20">
    <g clip-path="url(#pad6f73b49d)">
     <use xlink:href="#md0f154f24b" x="77.974243" y="100.863479" style="fill: #1f77b4; fill-opacity: 0.1; stroke: #000000; stroke-opacity: 0"/>
    </g>
   </g>
   <g id="line2d_21">
    <g clip-path="url(#pad6f73b49d)">
     <use xlink:href="#md0f154f24b" x="77.926739" y="100.919434" style="fill: #1f77b4; fill-opacity: 0.1; stroke: #000000; stroke-opacity: 0"/>
    </g>
   </g>
   <g id="line2d_22">
    <g clip-path="url(#pad6f73b49d)">
     <use xlink:href="#md0f154f24b" x="77.923999" y="100.90793" style="fill: #1f77b4; fill-opacity: 0.1; stroke: #000000; stroke-opacity: 0"/>
    </g>
   </g>
   <g id="line2d_23">
    <g clip-path="url(#pad6f73b49d)">
     <use xlink:href="#md0f154f24b" x="78.01903" y="100.851199" style="fill: #1f77b4; fill-opacity: 0.1; stroke: #000000; stroke-opacity: 0"/>
    </g>
   </g>
   <g id="line2d_24">
    <g clip-path="url(#pad6f73b49d)">
     <use xlink:href="#md0f154f24b" x="77.95156" y="100.886401" style="fill: #1f77b4; fill-opacity: 0.1; stroke: #000000; stroke-opacity: 0"/>
    </g>
   </g>
   <g id="line2d_25">
    <g clip-path="url(#pad6f73b49d)">
     <use xlink:href="#md0f154f24b" x="77.925651" y="100.923612" style="fill: #1f77b4; fill-opacity: 0.1; stroke: #000000; stroke-opacity: 0"/>
    </g>
   </g>
   <g id="line2d_26">
    <g clip-path="url(#pad6f73b49d)">
     <use xlink:href="#md0f154f24b" x="77.957889" y="100.898921" style="fill: #1f77b4; fill-opacity: 0.1; stroke: #000000; stroke-opacity: 0"/>
    </g>
   </g>
   <g id="line2d_27">
    <g clip-path="url(#pad6f73b49d)">
     <use xlink:href="#md0f154f24b" x="77.89899" y="100.921255" style="fill: #1f77b4; fill-opacity: 0.1; stroke: #000000; stroke-opacity: 0"/>
    </g>
   </g>
   <g id="line2d_28">
    <g clip-path="url(#pad6f73b49d)">
     <use xlink:href="#md0f154f24b" x="77.915611" y="100.92313" style="fill: #1f77b4; fill-opacity: 0.1; stroke: #000000; stroke-opacity: 0"/>
    </g>
   </g>
   <g id="line2d_29">
    <g clip-path="url(#pad6f73b49d)">
     <use xlink:href="#md0f154f24b" x="77.879574" y="100.977938" style="fill: #1f77b4; fill-opacity: 0.1; stroke: #000000; stroke-opacity: 0"/>
    </g>
   </g>
   <g id="line2d_30">
    <g clip-path="url(#pad6f73b49d)">
     <use xlink:href="#md0f154f24b" x="77.911744" y="100.922553" style="fill: #1f77b4; fill-opacity: 0.1; stroke: #000000; stroke-opacity: 0"/>
    </g>
   </g>
   <g id="line2d_31">
    <g clip-path="url(#pad6f73b49d)">
     <use xlink:href="#md0f154f24b" x="77.894772" y="100.94124" style="fill: #1f77b4; fill-opacity: 0.1; stroke: #000000; stroke-opacity: 0"/>
    </g>
   </g>
   <g id="line2d_32">
    <g clip-path="url(#pad6f73b49d)">
     <use xlink:href="#md0f154f24b" x="77.954331" y="100.906277" style="fill: #1f77b4; fill-opacity: 0.1; stroke: #000000; stroke-opacity: 0"/>
    </g>
   </g>
   <g id="line2d_33">
    <g clip-path="url(#pad6f73b49d)">
     <use xlink:href="#md0f154f24b" x="77.977118" y="100.886885" style="fill: #1f77b4; fill-opacity: 0.1; stroke: #000000; stroke-opacity: 0"/>
    </g>
   </g>
   <g id="line2d_34">
    <g clip-path="url(#pad6f73b49d)">
     <use xlink:href="#md0f154f24b" x="77.95443" y="100.890423" style="fill: #1f77b4; fill-opacity: 0.1; stroke: #000000; stroke-opacity: 0"/>
    </g>
   </g>
   <g id="line2d_35">
    <g clip-path="url(#pad6f73b49d)">
     <use xlink:href="#md0f154f24b" x="77.92548" y="100.917896" style="fill: #1f77b4; fill-opacity: 0.1; stroke: #000000; stroke-opacity: 0"/>
    </g>
   </g>
   <g id="line2d_36">
    <g clip-path="url(#pad6f73b49d)">
     <use xlink:href="#md0f154f24b" x="77.943896" y="100.919264" style="fill: #1f77b4; fill-opacity: 0.1; stroke: #000000; stroke-opacity: 0"/>
    </g>
   </g>
   <g id="line2d_37">
    <defs>
     <path id="mdc6ddd0b7d" d="M -1.5 0 
L 1.5 0 
M 0 1.5 
L 0 -1.5 
" style="stroke: #000000; stroke-width: 0.5"/>
    </defs>
    <g clip-path="url(#pad6f73b49d)">
     <use xlink:href="#mdc6ddd0b7d" x="77.926752" y="100.921777" style="fill: #1f77b4; stroke: #000000; stroke-width: 0.5"/>
    </g>
   </g>
   <g id="line2d_38"/>
   <g id="line2d_39">
    <defs>
     <path id="md559c61662" d="M 0 1.5 
C 0.397805 1.5 0.77937 1.341951 1.06066 1.06066 
C 1.341951 0.77937 1.5 0.397805 1.5 0 
C 1.5 -0.397805 1.341951 -0.77937 1.06066 -1.06066 
C 0.77937 -1.341951 0.397805 -1.5 0 -1.5 
C -0.397805 -1.5 -0.77937 -1.341951 -1.06066 -1.06066 
C -1.341951 -0.77937 -1.5 -0.397805 -1.5 0 
C -1.5 0.397805 -1.341951 0.77937 -1.06066 1.06066 
C -0.77937 1.341951 -0.397805 1.5 0 1.5 
z
" style="stroke: #000000; stroke-opacity: 0"/>
    </defs>
    <g clip-path="url(#pad6f73b49d)">
     <use xlink:href="#md559c61662" x="125.277111" y="57.739934" style="fill: #ff7f0e; fill-opacity: 0.1; stroke: #000000; stroke-opacity: 0"/>
    </g>
   </g>
   <g id="line2d_40">
    <g clip-path="url(#pad6f73b49d)">
     <use xlink:href="#md559c61662" x="125.243361" y="57.891874" style="fill: #ff7f0e; fill-opacity: 0.1; stroke: #000000; stroke-opacity: 0"/>
    </g>
   </g>
   <g id="line2d_41">
    <g clip-path="url(#pad6f73b49d)">
     <use xlink:href="#md559c61662" x="125.139726" y="57.960564" style="fill: #ff7f0e; fill-opacity: 0.1; stroke: #000000; stroke-opacity: 0"/>
    </g>
   </g>
   <g id="line2d_42">
    <g clip-path="url(#pad6f73b49d)">
     <use xlink:href="#md559c61662" x="125.316129" y="57.778757" style="fill: #ff7f0e; fill-opacity: 0.1; stroke: #000000; stroke-opacity: 0"/>
    </g>
   </g>
   <g id="line2d_43">
    <g clip-path="url(#pad6f73b49d)">
     <use xlink:href="#md559c61662" x="125.274106" y="57.790918" style="fill: #ff7f0e; fill-opacity: 0.1; stroke: #000000; stroke-opacity: 0"/>
    </g>
   </g>
   <g id="line2d_44">
    <g clip-path="url(#pad6f73b49d)">
     <use xlink:href="#md559c61662" x="125.246449" y="57.826284" style="fill: #ff7f0e; fill-opacity: 0.1; stroke: #000000; stroke-opacity: 0"/>
    </g>
   </g>
   <g id="line2d_45">
    <g clip-path="url(#pad6f73b49d)">
     <use xlink:href="#md559c61662" x="125.306499" y="57.811346" style="fill: #ff7f0e; fill-opacity: 0.1; stroke: #000000; stroke-opacity: 0"/>
    </g>
   </g>
   <g id="line2d_46">
    <g clip-path="url(#pad6f73b49d)">
     <use xlink:href="#md559c61662" x="125.259317" y="57.812283" style="fill: #ff7f0e; fill-opacity: 0.1; stroke: #000000; stroke-opacity: 0"/>
    </g>
   </g>
   <g id="line2d_47">
    <g clip-path="url(#pad6f73b49d)">
     <use xlink:href="#md559c61662" x="125.212707" y="57.870377" style="fill: #ff7f0e; fill-opacity: 0.1; stroke: #000000; stroke-opacity: 0"/>
    </g>
   </g>
   <g id="line2d_48">
    <g clip-path="url(#pad6f73b49d)">
     <use xlink:href="#md559c61662" x="125.252701" y="57.864078" style="fill: #ff7f0e; fill-opacity: 0.1; stroke: #000000; stroke-opacity: 0"/>
    </g>
   </g>
   <g id="line2d_49">
    <g clip-path="url(#pad6f73b49d)">
     <use xlink:href="#md559c61662" x="125.203567" y="57.855818" style="fill: #ff7f0e; fill-opacity: 0.1; stroke: #000000; stroke-opacity: 0"/>
    </g>
   </g>
   <g id="line2d_50">
    <g clip-path="url(#pad6f73b49d)">
     <use xlink:href="#md559c61662" x="125.196074" y="57.890207" style="fill: #ff7f0e; fill-opacity: 0.1; stroke: #000000; stroke-opacity: 0"/>
    </g>
   </g>
   <g id="line2d_51">
    <g clip-path="url(#pad6f73b49d)">
     <use xlink:href="#md559c61662" x="125.097812" y="57.960639" style="fill: #ff7f0e; fill-opacity: 0.1; stroke: #000000; stroke-opacity: 0"/>
    </g>
   </g>
   <g id="line2d_52">
    <g clip-path="url(#pad6f73b49d)">
     <use xlink:href="#md559c61662" x="125.161857" y="57.933719" style="fill: #ff7f0e; fill-opacity: 0.1; stroke: #000000; stroke-opacity: 0"/>
    </g>
   </g>
   <g id="line2d_53">
    <g clip-path="url(#pad6f73b49d)">
     <use xlink:href="#md559c61662" x="125.171971" y="57.915493" style="fill: #ff7f0e; fill-opacity: 0.1; stroke: #000000; stroke-opacity: 0"/>
    </g>
   </g>
   <g id="line2d_54">
    <g clip-path="url(#pad6f73b49d)">
     <use xlink:href="#md559c61662" x="125.320734" y="57.775449" style="fill: #ff7f0e; fill-opacity: 0.1; stroke: #000000; stroke-opacity: 0"/>
    </g>
   </g>
   <g id="line2d_55">
    <g clip-path="url(#pad6f73b49d)">
     <use xlink:href="#md559c61662" x="125.244046" y="57.837329" style="fill: #ff7f0e; fill-opacity: 0.1; stroke: #000000; stroke-opacity: 0"/>
    </g>
   </g>
   <g id="line2d_56">
    <g clip-path="url(#pad6f73b49d)">
     <use xlink:href="#md559c61662" x="125.307495" y="57.812038" style="fill: #ff7f0e; fill-opacity: 0.1; stroke: #000000; stroke-opacity: 0"/>
    </g>
   </g>
   <g id="line2d_57">
    <g clip-path="url(#pad6f73b49d)">
     <use xlink:href="#md559c61662" x="125.278037" y="57.828138" style="fill: #ff7f0e; fill-opacity: 0.1; stroke: #000000; stroke-opacity: 0"/>
    </g>
   </g>
   <g id="line2d_58">
    <g clip-path="url(#pad6f73b49d)">
     <use xlink:href="#md559c61662" x="125.261633" y="57.84925" style="fill: #ff7f0e; fill-opacity: 0.1; stroke: #000000; stroke-opacity: 0"/>
    </g>
   </g>
   <g id="line2d_59">
    <defs>
     <path id="mee55f9a359" d="M -1.5 0 
L 1.5 0 
M 0 1.5 
L 0 -1.5 
" style="stroke: #000000; stroke-width: 0.5"/>
    </defs>
    <g clip-path="url(#pad6f73b49d)">
     <use xlink:href="#mee55f9a359" x="125.222493" y="57.871719" style="fill: #ff7f0e; stroke: #000000; stroke-width: 0.5"/>
    </g>
   </g>
   <g id="line2d_60"/>
   <g id="line2d_61">
    <defs>
     <path id="m619c27cc06" d="M 0 1.5 
C 0.397805 1.5 0.77937 1.341951 1.06066 1.06066 
C 1.341951 0.77937 1.5 0.397805 1.5 0 
C 1.5 -0.397805 1.341951 -0.77937 1.06066 -1.06066 
C 0.77937 -1.341951 0.397805 -1.5 0 -1.5 
C -0.397805 -1.5 -0.77937 -1.341951 -1.06066 -1.06066 
C -1.341951 -0.77937 -1.5 -0.397805 -1.5 0 
C -1.5 0.397805 -1.341951 0.77937 -1.06066 1.06066 
C -0.77937 1.341951 -0.397805 1.5 0 1.5 
z
" style="stroke: #000000; stroke-opacity: 0"/>
    </defs>
    <g clip-path="url(#pad6f73b49d)">
     <use xlink:href="#m619c27cc06" x="170.982792" y="22.789359" style="fill: #2ca02c; fill-opacity: 0.1; stroke: #000000; stroke-opacity: 0"/>
    </g>
   </g>
   <g id="line2d_62">
    <g clip-path="url(#pad6f73b49d)">
     <use xlink:href="#m619c27cc06" x="170.899361" y="22.926581" style="fill: #2ca02c; fill-opacity: 0.1; stroke: #000000; stroke-opacity: 0"/>
    </g>
   </g>
   <g id="line2d_63">
    <g clip-path="url(#pad6f73b49d)">
     <use xlink:href="#m619c27cc06" x="170.926394" y="22.892368" style="fill: #2ca02c; fill-opacity: 0.1; stroke: #000000; stroke-opacity: 0"/>
    </g>
   </g>
   <g id="line2d_64">
    <g clip-path="url(#pad6f73b49d)">
     <use xlink:href="#m619c27cc06" x="170.949383" y="22.885405" style="fill: #2ca02c; fill-opacity: 0.1; stroke: #000000; stroke-opacity: 0"/>
    </g>
   </g>
   <g id="line2d_65">
    <g clip-path="url(#pad6f73b49d)">
     <use xlink:href="#m619c27cc06" x="170.964104" y="22.842573" style="fill: #2ca02c; fill-opacity: 0.1; stroke: #000000; stroke-opacity: 0"/>
    </g>
   </g>
   <g id="line2d_66">
    <g clip-path="url(#pad6f73b49d)">
     <use xlink:href="#m619c27cc06" x="170.95465" y="22.823096" style="fill: #2ca02c; fill-opacity: 0.1; stroke: #000000; stroke-opacity: 0"/>
    </g>
   </g>
   <g id="line2d_67">
    <g clip-path="url(#pad6f73b49d)">
     <use xlink:href="#m619c27cc06" x="170.956696" y="22.885329" style="fill: #2ca02c; fill-opacity: 0.1; stroke: #000000; stroke-opacity: 0"/>
    </g>
   </g>
   <g id="line2d_68">
    <g clip-path="url(#pad6f73b49d)">
     <use xlink:href="#m619c27cc06" x="170.918164" y="22.835134" style="fill: #2ca02c; fill-opacity: 0.1; stroke: #000000; stroke-opacity: 0"/>
    </g>
   </g>
   <g id="line2d_69">
    <g clip-path="url(#pad6f73b49d)">
     <use xlink:href="#m619c27cc06" x="170.867144" y="22.946212" style="fill: #2ca02c; fill-opacity: 0.1; stroke: #000000; stroke-opacity: 0"/>
    </g>
   </g>
   <g id="line2d_70">
    <g clip-path="url(#pad6f73b49d)">
     <use xlink:href="#m619c27cc06" x="170.941595" y="22.905588" style="fill: #2ca02c; fill-opacity: 0.1; stroke: #000000; stroke-opacity: 0"/>
    </g>
   </g>
   <g id="line2d_71">
    <g clip-path="url(#pad6f73b49d)">
     <use xlink:href="#m619c27cc06" x="170.903504" y="22.90508" style="fill: #2ca02c; fill-opacity: 0.1; stroke: #000000; stroke-opacity: 0"/>
    </g>
   </g>
   <g id="line2d_72">
    <g clip-path="url(#pad6f73b49d)">
     <use xlink:href="#m619c27cc06" x="170.932212" y="22.875559" style="fill: #2ca02c; fill-opacity: 0.1; stroke: #000000; stroke-opacity: 0"/>
    </g>
   </g>
   <g id="line2d_73">
    <g clip-path="url(#pad6f73b49d)">
     <use xlink:href="#m619c27cc06" x="170.879763" y="22.902061" style="fill: #2ca02c; fill-opacity: 0.1; stroke: #000000; stroke-opacity: 0"/>
    </g>
   </g>
   <g id="line2d_74">
    <g clip-path="url(#pad6f73b49d)">
     <use xlink:href="#m619c27cc06" x="170.876876" y="22.928349" style="fill: #2ca02c; fill-opacity: 0.1; stroke: #000000; stroke-opacity: 0"/>
    </g>
   </g>
   <g id="line2d_75">
    <g clip-path="url(#pad6f73b49d)">
     <use xlink:href="#m619c27cc06" x="170.874125" y="22.918424" style="fill: #2ca02c; fill-opacity: 0.1; stroke: #000000; stroke-opacity: 0"/>
    </g>
   </g>
   <g id="line2d_76">
    <g clip-path="url(#pad6f73b49d)">
     <use xlink:href="#m619c27cc06" x="170.936843" y="22.877487" style="fill: #2ca02c; fill-opacity: 0.1; stroke: #000000; stroke-opacity: 0"/>
    </g>
   </g>
   <g id="line2d_77">
    <g clip-path="url(#pad6f73b49d)">
     <use xlink:href="#m619c27cc06" x="170.931035" y="22.875276" style="fill: #2ca02c; fill-opacity: 0.1; stroke: #000000; stroke-opacity: 0"/>
    </g>
   </g>
   <g id="line2d_78">
    <g clip-path="url(#pad6f73b49d)">
     <use xlink:href="#m619c27cc06" x="170.964938" y="22.876636" style="fill: #2ca02c; fill-opacity: 0.1; stroke: #000000; stroke-opacity: 0"/>
    </g>
   </g>
   <g id="line2d_79">
    <g clip-path="url(#pad6f73b49d)">
     <use xlink:href="#m619c27cc06" x="170.955283" y="22.875101" style="fill: #2ca02c; fill-opacity: 0.1; stroke: #000000; stroke-opacity: 0"/>
    </g>
   </g>
   <g id="line2d_80">
    <g clip-path="url(#pad6f73b49d)">
     <use xlink:href="#m619c27cc06" x="170.925388" y="22.878653" style="fill: #2ca02c; fill-opacity: 0.1; stroke: #000000; stroke-opacity: 0"/>
    </g>
   </g>
   <g id="line2d_81">
    <defs>
     <path id="m733872776b" d="M -1.5 0 
L 1.5 0 
M 0 1.5 
L 0 -1.5 
" style="stroke: #000000; stroke-width: 0.5"/>
    </defs>
    <g clip-path="url(#pad6f73b49d)">
     <use xlink:href="#m733872776b" x="170.923605" y="22.894667" style="fill: #2ca02c; stroke: #000000; stroke-width: 0.5"/>
    </g>
   </g>
   <g id="line2d_82"/>
   <g id="patch_3">
    <path d="M 30.458438 146.080248 
L 30.458438 7.480248 
" style="fill: none; stroke: #000000; stroke-width: 0.5; stroke-linejoin: miter; stroke-linecap: square"/>
   </g>
   <g id="patch_4">
    <path d="M 30.458438 146.080248 
L 197.858438 146.080248 
" style="fill: none; stroke: #000000; stroke-width: 0.5; stroke-linejoin: miter; stroke-linecap: square"/>
   </g>
   <g id="legend_1">
    <g id="line2d_83">
     <path d="M 34.958438 14.029467 
L 39.958438 14.029467 
L 44.958438 14.029467 
" style="fill: none; stroke: #000000; stroke-width: 0.7; stroke-linecap: square"/>
    </g>
    <g id="text_17">
     <!-- Full IB bound -->
     <g transform="translate(48.958438 15.779467) scale(0.05 -0.05)">
      <defs>
       <path id="DejaVuSans-46" d="M 628 4666 
L 3309 4666 
L 3309 4134 
L 1259 4134 
L 1259 2759 
L 3109 2759 
L 3109 2228 
L 1259 2228 
L 1259 0 
L 628 0 
L 628 4666 
z
" transform="scale(0.015625)"/>
       <path id="DejaVuSans-75" d="M 544 1381 
L 544 3500 
L 1119 3500 
L 1119 1403 
Q 1119 906 1312 657 
Q 1506 409 1894 409 
Q 2359 409 2629 706 
Q 2900 1003 2900 1516 
L 2900 3500 
L 3475 3500 
L 3475 0 
L 2900 0 
L 2900 538 
Q 2691 219 2414 64 
Q 2138 -91 1772 -91 
Q 1169 -91 856 284 
Q 544 659 544 1381 
z
M 1991 3584 
L 1991 3584 
z
" transform="scale(0.015625)"/>
       <path id="DejaVuSans-6c" d="M 603 4863 
L 1178 4863 
L 1178 0 
L 603 0 
L 603 4863 
z
" transform="scale(0.015625)"/>
       <path id="DejaVuSans-42" d="M 1259 2228 
L 1259 519 
L 2272 519 
Q 2781 519 3026 730 
Q 3272 941 3272 1375 
Q 3272 1813 3026 2020 
Q 2781 2228 2272 2228 
L 1259 2228 
z
M 1259 4147 
L 1259 2741 
L 2194 2741 
Q 2656 2741 2882 2914 
Q 3109 3088 3109 3444 
Q 3109 3797 2882 3972 
Q 2656 4147 2194 4147 
L 1259 4147 
z
M 628 4666 
L 2241 4666 
Q 2963 4666 3353 4366 
Q 3744 4066 3744 3513 
Q 3744 3084 3544 2831 
Q 3344 2578 2956 2516 
Q 3422 2416 3680 2098 
Q 3938 1781 3938 1306 
Q 3938 681 3513 340 
Q 3088 0 2303 0 
L 628 0 
L 628 4666 
z
" transform="scale(0.015625)"/>
      </defs>
      <use xlink:href="#DejaVuSans-46"/>
      <use xlink:href="#DejaVuSans-75" x="52.019531"/>
      <use xlink:href="#DejaVuSans-6c" x="115.398438"/>
      <use xlink:href="#DejaVuSans-6c" x="143.181641"/>
      <use xlink:href="#DejaVuSans-20" x="170.964844"/>
      <use xlink:href="#DejaVuSans-49" x="202.751953"/>
      <use xlink:href="#DejaVuSans-42" x="232.244141"/>
      <use xlink:href="#DejaVuSans-20" x="300.847656"/>
      <use xlink:href="#DejaVuSans-62" x="332.634766"/>
      <use xlink:href="#DejaVuSans-6f" x="396.111328"/>
      <use xlink:href="#DejaVuSans-75" x="457.292969"/>
      <use xlink:href="#DejaVuSans-6e" x="520.671875"/>
      <use xlink:href="#DejaVuSans-64" x="584.050781"/>
     </g>
    </g>
    <g id="line2d_84">
     <path d="M 34.958438 21.368529 
L 39.958438 21.368529 
L 44.958438 21.368529 
" style="fill: none; stroke-dasharray: 2.59,1.12; stroke-dashoffset: 0; stroke: #000000; stroke-width: 0.7"/>
    </g>
    <g id="text_18">
     <!-- One-back IB bound -->
     <g transform="translate(48.958438 23.118529) scale(0.05 -0.05)">
      <defs>
       <path id="DejaVuSans-4f" d="M 2522 4238 
Q 1834 4238 1429 3725 
Q 1025 3213 1025 2328 
Q 1025 1447 1429 934 
Q 1834 422 2522 422 
Q 3209 422 3611 934 
Q 4013 1447 4013 2328 
Q 4013 3213 3611 3725 
Q 3209 4238 2522 4238 
z
M 2522 4750 
Q 3503 4750 4090 4092 
Q 4678 3434 4678 2328 
Q 4678 1225 4090 567 
Q 3503 -91 2522 -91 
Q 1538 -91 948 565 
Q 359 1222 359 2328 
Q 359 3434 948 4092 
Q 1538 4750 2522 4750 
z
" transform="scale(0.015625)"/>
       <path id="DejaVuSans-2d" d="M 313 2009 
L 1997 2009 
L 1997 1497 
L 313 1497 
L 313 2009 
z
" transform="scale(0.015625)"/>
       <path id="DejaVuSans-6b" d="M 581 4863 
L 1159 4863 
L 1159 1991 
L 2875 3500 
L 3609 3500 
L 1753 1863 
L 3688 0 
L 2938 0 
L 1159 1709 
L 1159 0 
L 581 0 
L 581 4863 
z
" transform="scale(0.015625)"/>
      </defs>
      <use xlink:href="#DejaVuSans-4f"/>
      <use xlink:href="#DejaVuSans-6e" x="78.710938"/>
      <use xlink:href="#DejaVuSans-65" x="142.089844"/>
      <use xlink:href="#DejaVuSans-2d" x="203.613281"/>
      <use xlink:href="#DejaVuSans-62" x="239.697266"/>
      <use xlink:href="#DejaVuSans-61" x="303.173828"/>
      <use xlink:href="#DejaVuSans-63" x="364.453125"/>
      <use xlink:href="#DejaVuSans-6b" x="419.433594"/>
      <use xlink:href="#DejaVuSans-20" x="477.34375"/>
      <use xlink:href="#DejaVuSans-49" x="509.130859"/>
      <use xlink:href="#DejaVuSans-42" x="538.623047"/>
      <use xlink:href="#DejaVuSans-20" x="607.226562"/>
      <use xlink:href="#DejaVuSans-62" x="639.013672"/>
      <use xlink:href="#DejaVuSans-6f" x="702.490234"/>
      <use xlink:href="#DejaVuSans-75" x="763.671875"/>
      <use xlink:href="#DejaVuSans-6e" x="827.050781"/>
      <use xlink:href="#DejaVuSans-64" x="890.429688"/>
     </g>
    </g>
    <g id="line2d_85">
     <defs>
      <path id="md1143dbb16" d="M 0 1.5 
C 0.397805 1.5 0.77937 1.341951 1.06066 1.06066 
C 1.341951 0.77937 1.5 0.397805 1.5 0 
C 1.5 -0.397805 1.341951 -0.77937 1.06066 -1.06066 
C 0.77937 -1.341951 0.397805 -1.5 0 -1.5 
C -0.397805 -1.5 -0.77937 -1.341951 -1.06066 -1.06066 
C -1.341951 -0.77937 -1.5 -0.397805 -1.5 0 
C -1.5 0.397805 -1.341951 0.77937 -1.06066 1.06066 
C -0.77937 1.341951 -0.397805 1.5 0 1.5 
z
" style="stroke: #000000; stroke-opacity: 0"/>
     </defs>
     <g>
      <use xlink:href="#md1143dbb16" x="39.958438" y="28.707592" style="fill: #1f77b4; stroke: #000000; stroke-opacity: 0"/>
     </g>
    </g>
    <g id="text_19">
     <!-- Beta=1.5 -->
     <g transform="translate(48.958438 30.457592) scale(0.05 -0.05)">
      <defs>
       <path id="DejaVuSans-3d" d="M 678 2906 
L 4684 2906 
L 4684 2381 
L 678 2381 
L 678 2906 
z
M 678 1631 
L 4684 1631 
L 4684 1100 
L 678 1100 
L 678 1631 
z
" transform="scale(0.015625)"/>
      </defs>
      <use xlink:href="#DejaVuSans-42"/>
      <use xlink:href="#DejaVuSans-65" x="68.603516"/>
      <use xlink:href="#DejaVuSans-74" x="130.126953"/>
      <use xlink:href="#DejaVuSans-61" x="169.335938"/>
      <use xlink:href="#DejaVuSans-3d" x="230.615234"/>
      <use xlink:href="#DejaVuSans-31" x="314.404297"/>
      <use xlink:href="#DejaVuSans-2e" x="378.027344"/>
      <use xlink:href="#DejaVuSans-35" x="409.814453"/>
     </g>
    </g>
    <g id="line2d_86">
     <defs>
      <path id="m5458d70ea1" d="M 0 1.5 
C 0.397805 1.5 0.77937 1.341951 1.06066 1.06066 
C 1.341951 0.77937 1.5 0.397805 1.5 0 
C 1.5 -0.397805 1.341951 -0.77937 1.06066 -1.06066 
C 0.77937 -1.341951 0.397805 -1.5 0 -1.5 
C -0.397805 -1.5 -0.77937 -1.341951 -1.06066 -1.06066 
C -1.341951 -0.77937 -1.5 -0.397805 -1.5 0 
C -1.5 0.397805 -1.341951 0.77937 -1.06066 1.06066 
C -0.77937 1.341951 -0.397805 1.5 0 1.5 
z
" style="stroke: #000000; stroke-opacity: 0"/>
     </defs>
     <g>
      <use xlink:href="#m5458d70ea1" x="39.958438" y="36.046654" style="fill: #ff7f0e; stroke: #000000; stroke-opacity: 0"/>
     </g>
    </g>
    <g id="text_20">
     <!-- Beta=2.7 -->
     <g transform="translate(48.958438 37.796654) scale(0.05 -0.05)">
      <use xlink:href="#DejaVuSans-42"/>
      <use xlink:href="#DejaVuSans-65" x="68.603516"/>
      <use xlink:href="#DejaVuSans-74" x="130.126953"/>
      <use xlink:href="#DejaVuSans-61" x="169.335938"/>
      <use xlink:href="#DejaVuSans-3d" x="230.615234"/>
      <use xlink:href="#DejaVuSans-32" x="314.404297"/>
      <use xlink:href="#DejaVuSans-2e" x="378.027344"/>
      <use xlink:href="#DejaVuSans-37" x="409.814453"/>
     </g>
    </g>
    <g id="line2d_87">
     <defs>
      <path id="mdae949e28f" d="M 0 1.5 
C 0.397805 1.5 0.77937 1.341951 1.06066 1.06066 
C 1.341951 0.77937 1.5 0.397805 1.5 0 
C 1.5 -0.397805 1.341951 -0.77937 1.06066 -1.06066 
C 0.77937 -1.341951 0.397805 -1.5 0 -1.5 
C -0.397805 -1.5 -0.77937 -1.341951 -1.06066 -1.06066 
C -1.341951 -0.77937 -1.5 -0.397805 -1.5 0 
C -1.5 0.397805 -1.341951 0.77937 -1.06066 1.06066 
C -0.77937 1.341951 -0.397805 1.5 0 1.5 
z
" style="stroke: #000000; stroke-opacity: 0"/>
     </defs>
     <g>
      <use xlink:href="#mdae949e28f" x="39.958438" y="43.385717" style="fill: #2ca02c; stroke: #000000; stroke-opacity: 0"/>
     </g>
    </g>
    <g id="text_21">
     <!-- Beta=5 -->
     <g transform="translate(48.958438 45.135717) scale(0.05 -0.05)">
      <use xlink:href="#DejaVuSans-42"/>
      <use xlink:href="#DejaVuSans-65" x="68.603516"/>
      <use xlink:href="#DejaVuSans-74" x="130.126953"/>
      <use xlink:href="#DejaVuSans-61" x="169.335938"/>
      <use xlink:href="#DejaVuSans-3d" x="230.615234"/>
      <use xlink:href="#DejaVuSans-35" x="314.404297"/>
     </g>
    </g>
   </g>
  </g>
 </g>
 <defs>
  <clipPath id="pad6f73b49d">
   <rect x="30.458438" y="7.480248" width="167.4" height="138.6"/>
  </clipPath>
 </defs>
</svg>
