<?xml version="1.0" encoding="utf-8" standalone="no"?>
<!DOCTYPE svg PUBLIC "-//W3C//DTD SVG 1.1//EN"
  "http://www.w3.org/Graphics/SVG/1.1/DTD/svg11.dtd">
<svg xmlns:xlink="http://www.w3.org/1999/xlink" width="208.818437pt" height="172.885937pt" viewBox="0 0 208.818437 172.885937" xmlns="http://www.w3.org/2000/svg" version="1.1">
 <metadata>
  <rdf:RDF xmlns:dc="http://purl.org/dc/elements/1.1/" xmlns:cc="http://creativecommons.org/ns#" xmlns:rdf="http://www.w3.org/1999/02/22-rdf-syntax-ns#">
   <cc:Work>
    <dc:type rdf:resource="http://purl.org/dc/dcmitype/StillImage"/>
    <dc:date>2026-04-22T22:07:43.339692</dc:date>
    <dc:format>image/svg+xml</dc:format>
    <dc:creator>
     <cc:Agent>
      <dc:title>Matplotlib v3.8.2, https://matplotlib.org/</dc:title>
     </cc:Agent>
    </dc:creator>
   </cc:Work>
  </rdf:RDF>
 </metadata>
 <defs>
  <style type="text/css">*{stroke-linejoin: round; stroke-linecap: butt}</style>
 </defs>
 <g id="figure_1">
  <g id="patch_1">
   <path d="M 0 172.885937 
L 208.818437 172.885937 
L 208.818437 0 
L 0 0 
z
" style="fill: #ffffff"/>
  </g>
  <g id="axes_1">
   <g id="patch_2">
    <path d="M 30.458438 145.54 
L 201.618437 145.54 
L 201.618437 7.2 
L 30.458438 7.2 
z
" style="fill: #ffffff"/>
   </g>
   <g id="matplotlib.axis_1">
    <g id="xtick_1">
     <g id="line2d_1">
      <defs>
       <path id="mde89be06dd" d="M 0 0 
L 0 2 
" style="stroke: #000000; stroke-width: 0.5"/>
      </defs>
      <g>
       <use xlink:href="#mde89be06dd" x="38.236132" y="145.54" style="stroke: #000000; stroke-width: 0.5"/>
      </g>
     </g>
     <g id="text_1">
      <!-- 0.0 -->
      <g transform="translate(34.260351 154.839219) scale(0.05 -0.05)">
       <defs>
        <path id="DejaVuSans-30" d="M 2034 4250 
Q 1547 4250 1301 3770 
Q 1056 3291 1056 2328 
Q 1056 1369 1301 889 
Q 1547 409 2034 409 
Q 2525 409 2770 889 
Q 3016 1369 3016 2328 
Q 3016 3291 2770 3770 
Q 2525 4250 2034 4250 
z
M 2034 4750 
Q 2819 4750 3233 4129 
Q 3647 3509 3647 2328 
Q 3647 1150 3233 529 
Q 2819 -91 2034 -91 
Q 1250 -91 836 529 
Q 422 1150 422 2328 
Q 422 3509 836 4129 
Q 1250 4750 2034 4750 
z
" transform="scale(0.015625)"/>
        <path id="DejaVuSans-2e" d="M 684 794 
L 1344 794 
L 1344 0 
L 684 0 
L 684 794 
z
" transform="scale(0.015625)"/>
       </defs>
       <use xlink:href="#DejaVuSans-30"/>
       <use xlink:href="#DejaVuSans-2e" x="63.623047"/>
       <use xlink:href="#DejaVuSans-30" x="95.410156"/>
      </g>
     </g>
    </g>
    <g id="xtick_2">
     <g id="line2d_2">
      <g>
       <use xlink:href="#mde89be06dd" x="69.489539" y="145.54" style="stroke: #000000; stroke-width: 0.5"/>
      </g>
     </g>
     <g id="text_2">
      <!-- 0.2 -->
      <g transform="translate(65.513758 154.839219) scale(0.05 -0.05)">
       <defs>
        <path id="DejaVuSans-32" d="M 1228 531 
L 3431 531 
L 3431 0 
L 469 0 
L 469 531 
Q 828 903 1448 1529 
Q 2069 2156 2228 2338 
Q 2531 2678 2651 2914 
Q 2772 3150 2772 3378 
Q 2772 3750 2511 3984 
Q 2250 4219 1831 4219 
Q 1534 4219 1204 4116 
Q 875 4013 500 3803 
L 500 4441 
Q 881 4594 1212 4672 
Q 1544 4750 1819 4750 
Q 2544 4750 2975 4387 
Q 3406 4025 3406 3419 
Q 3406 3131 3298 2873 
Q 3191 2616 2906 2266 
Q 2828 2175 2409 1742 
Q 1991 1309 1228 531 
z
" transform="scale(0.015625)"/>
       </defs>
       <use xlink:href="#DejaVuSans-30"/>
       <use xlink:href="#DejaVuSans-2e" x="63.623047"/>
       <use xlink:href="#DejaVuSans-32" x="95.410156"/>
      </g>
     </g>
    </g>
    <g id="xtick_3">
     <g id="line2d_3">
      <g>
       <use xlink:href="#mde89be06dd" x="100.742946" y="145.54" style="stroke: #000000; stroke-width: 0.5"/>
      </g>
     </g>
     <g id="text_3">
      <!-- 0.4 -->
      <g transform="translate(96.767165 154.839219) scale(0.05 -0.05)">
       <defs>
        <path id="DejaVuSans-34" d="M 2419 4116 
L 825 1625 
L 2419 1625 
L 2419 4116 
z
M 2253 4666 
L 3047 4666 
L 3047 1625 
L 3713 1625 
L 3713 1100 
L 3047 1100 
L 3047 0 
L 2419 0 
L 2419 1100 
L 313 1100 
L 313 1709 
L 2253 4666 
z
" transform="scale(0.015625)"/>
       </defs>
       <use xlink:href="#DejaVuSans-30"/>
       <use xlink:href="#DejaVuSans-2e" x="63.623047"/>
       <use xlink:href="#DejaVuSans-34" x="95.410156"/>
      </g>
     </g>
    </g>
    <g id="xtick_4">
     <g id="line2d_4">
      <g>
       <use xlink:href="#mde89be06dd" x="131.996353" y="145.54" style="stroke: #000000; stroke-width: 0.5"/>
      </g>
     </g>
     <g id="text_4">
      <!-- 0.6 -->
      <g transform="translate(128.020571 154.839219) scale(0.05 -0.05)">
       <defs>
        <path id="DejaVuSans-36" d="M 2113 2584 
Q 1688 2584 1439 2293 
Q 1191 2003 1191 1497 
Q 1191 994 1439 701 
Q 1688 409 2113 409 
Q 2538 409 2786 701 
Q 3034 994 3034 1497 
Q 3034 2003 2786 2293 
Q 2538 2584 2113 2584 
z
M 3366 4563 
L 3366 3988 
Q 3128 4100 2886 4159 
Q 2644 4219 2406 4219 
Q 1781 4219 1451 3797 
Q 1122 3375 1075 2522 
Q 1259 2794 1537 2939 
Q 1816 3084 2150 3084 
Q 2853 3084 3261 2657 
Q 3669 2231 3669 1497 
Q 3669 778 3244 343 
Q 2819 -91 2113 -91 
Q 1303 -91 875 529 
Q 447 1150 447 2328 
Q 447 3434 972 4092 
Q 1497 4750 2381 4750 
Q 2619 4750 2861 4703 
Q 3103 4656 3366 4563 
z
" transform="scale(0.015625)"/>
       </defs>
       <use xlink:href="#DejaVuSans-30"/>
       <use xlink:href="#DejaVuSans-2e" x="63.623047"/>
       <use xlink:href="#DejaVuSans-36" x="95.410156"/>
      </g>
     </g>
    </g>
    <g id="xtick_5">
     <g id="line2d_5">
      <g>
       <use xlink:href="#mde89be06dd" x="163.249759" y="145.54" style="stroke: #000000; stroke-width: 0.5"/>
      </g>
     </g>
     <g id="text_5">
      <!-- 0.8 -->
      <g transform="translate(159.273978 154.839219) scale(0.05 -0.05)">
       <defs>
        <path id="DejaVuSans-38" d="M 2034 2216 
Q 1584 2216 1326 1975 
Q 1069 1734 1069 1313 
Q 1069 891 1326 650 
Q 1584 409 2034 409 
Q 2484 409 2743 651 
Q 3003 894 3003 1313 
Q 3003 1734 2745 1975 
Q 2488 2216 2034 2216 
z
M 1403 2484 
Q 997 2584 770 2862 
Q 544 3141 544 3541 
Q 544 4100 942 4425 
Q 1341 4750 2034 4750 
Q 2731 4750 3128 4425 
Q 3525 4100 3525 3541 
Q 3525 3141 3298 2862 
Q 3072 2584 2669 2484 
Q 3125 2378 3379 2068 
Q 3634 1759 3634 1313 
Q 3634 634 3220 271 
Q 2806 -91 2034 -91 
Q 1263 -91 848 271 
Q 434 634 434 1313 
Q 434 1759 690 2068 
Q 947 2378 1403 2484 
z
M 1172 3481 
Q 1172 3119 1398 2916 
Q 1625 2713 2034 2713 
Q 2441 2713 2670 2916 
Q 2900 3119 2900 3481 
Q 2900 3844 2670 4047 
Q 2441 4250 2034 4250 
Q 1625 4250 1398 4047 
Q 1172 3844 1172 3481 
z
" transform="scale(0.015625)"/>
       </defs>
       <use xlink:href="#DejaVuSans-30"/>
       <use xlink:href="#DejaVuSans-2e" x="63.623047"/>
       <use xlink:href="#DejaVuSans-38" x="95.410156"/>
      </g>
     </g>
    </g>
    <g id="xtick_6">
     <g id="line2d_6">
      <g>
       <use xlink:href="#mde89be06dd" x="194.503166" y="145.54" style="stroke: #000000; stroke-width: 0.5"/>
      </g>
     </g>
     <g id="text_6">
      <!-- 1.0 -->
      <g transform="translate(190.527385 154.839219) scale(0.05 -0.05)">
       <defs>
        <path id="DejaVuSans-31" d="M 794 531 
L 1825 531 
L 1825 4091 
L 703 3866 
L 703 4441 
L 1819 4666 
L 2450 4666 
L 2450 531 
L 3481 531 
L 3481 0 
L 794 0 
L 794 531 
z
" transform="scale(0.015625)"/>
       </defs>
       <use xlink:href="#DejaVuSans-31"/>
       <use xlink:href="#DejaVuSans-2e" x="63.623047"/>
       <use xlink:href="#DejaVuSans-30" x="95.410156"/>
      </g>
     </g>
    </g>
    <g id="text_7">
     <!-- Information Capacity (bits) -->
     <g transform="translate(75.837031 164.438125) scale(0.06 -0.06)">
      <defs>
       <path id="DejaVuSans-49" d="M 628 4666 
L 1259 4666 
L 1259 0 
L 628 0 
L 628 4666 
z
" transform="scale(0.015625)"/>
       <path id="DejaVuSans-6e" d="M 3513 2113 
L 3513 0 
L 2938 0 
L 2938 2094 
Q 2938 2591 2744 2837 
Q 2550 3084 2163 3084 
Q 1697 3084 1428 2787 
Q 1159 2491 1159 1978 
L 1159 0 
L 581 0 
L 581 3500 
L 1159 3500 
L 1159 2956 
Q 1366 3272 1645 3428 
Q 1925 3584 2291 3584 
Q 2894 3584 3203 3211 
Q 3513 2838 3513 2113 
z
" transform="scale(0.015625)"/>
       <path id="DejaVuSans-66" d="M 2375 4863 
L 2375 4384 
L 1825 4384 
Q 1516 4384 1395 4259 
Q 1275 4134 1275 3809 
L 1275 3500 
L 2222 3500 
L 2222 3053 
L 1275 3053 
L 1275 0 
L 697 0 
L 697 3053 
L 147 3053 
L 147 3500 
L 697 3500 
L 697 3744 
Q 697 4328 969 4595 
Q 1241 4863 1831 4863 
L 2375 4863 
z
" transform="scale(0.015625)"/>
       <path id="DejaVuSans-6f" d="M 1959 3097 
Q 1497 3097 1228 2736 
Q 959 2375 959 1747 
Q 959 1119 1226 758 
Q 1494 397 1959 397 
Q 2419 397 2687 759 
Q 2956 1122 2956 1747 
Q 2956 2369 2687 2733 
Q 2419 3097 1959 3097 
z
M 1959 3584 
Q 2709 3584 3137 3096 
Q 3566 2609 3566 1747 
Q 3566 888 3137 398 
Q 2709 -91 1959 -91 
Q 1206 -91 779 398 
Q 353 888 353 1747 
Q 353 2609 779 3096 
Q 1206 3584 1959 3584 
z
" transform="scale(0.015625)"/>
       <path id="DejaVuSans-72" d="M 2631 2963 
Q 2534 3019 2420 3045 
Q 2306 3072 2169 3072 
Q 1681 3072 1420 2755 
Q 1159 2438 1159 1844 
L 1159 0 
L 581 0 
L 581 3500 
L 1159 3500 
L 1159 2956 
Q 1341 3275 1631 3429 
Q 1922 3584 2338 3584 
Q 2397 3584 2469 3576 
Q 2541 3569 2628 3553 
L 2631 2963 
z
" transform="scale(0.015625)"/>
       <path id="DejaVuSans-6d" d="M 3328 2828 
Q 3544 3216 3844 3400 
Q 4144 3584 4550 3584 
Q 5097 3584 5394 3201 
Q 5691 2819 5691 2113 
L 5691 0 
L 5113 0 
L 5113 2094 
Q 5113 2597 4934 2840 
Q 4756 3084 4391 3084 
Q 3944 3084 3684 2787 
Q 3425 2491 3425 1978 
L 3425 0 
L 2847 0 
L 2847 2094 
Q 2847 2600 2669 2842 
Q 2491 3084 2119 3084 
Q 1678 3084 1418 2786 
Q 1159 2488 1159 1978 
L 1159 0 
L 581 0 
L 581 3500 
L 1159 3500 
L 1159 2956 
Q 1356 3278 1631 3431 
Q 1906 3584 2284 3584 
Q 2666 3584 2933 3390 
Q 3200 3197 3328 2828 
z
" transform="scale(0.015625)"/>
       <path id="DejaVuSans-61" d="M 2194 1759 
Q 1497 1759 1228 1600 
Q 959 1441 959 1056 
Q 959 750 1161 570 
Q 1363 391 1709 391 
Q 2188 391 2477 730 
Q 2766 1069 2766 1631 
L 2766 1759 
L 2194 1759 
z
M 3341 1997 
L 3341 0 
L 2766 0 
L 2766 531 
Q 2569 213 2275 61 
Q 1981 -91 1556 -91 
Q 1019 -91 701 211 
Q 384 513 384 1019 
Q 384 1609 779 1909 
Q 1175 2209 1959 2209 
L 2766 2209 
L 2766 2266 
Q 2766 2663 2505 2880 
Q 2244 3097 1772 3097 
Q 1472 3097 1187 3025 
Q 903 2953 641 2809 
L 641 3341 
Q 956 3463 1253 3523 
Q 1550 3584 1831 3584 
Q 2591 3584 2966 3190 
Q 3341 2797 3341 1997 
z
" transform="scale(0.015625)"/>
       <path id="DejaVuSans-74" d="M 1172 4494 
L 1172 3500 
L 2356 3500 
L 2356 3053 
L 1172 3053 
L 1172 1153 
Q 1172 725 1289 603 
Q 1406 481 1766 481 
L 2356 481 
L 2356 0 
L 1766 0 
Q 1100 0 847 248 
Q 594 497 594 1153 
L 594 3053 
L 172 3053 
L 172 3500 
L 594 3500 
L 594 4494 
L 1172 4494 
z
" transform="scale(0.015625)"/>
       <path id="DejaVuSans-69" d="M 603 3500 
L 1178 3500 
L 1178 0 
L 603 0 
L 603 3500 
z
M 603 4863 
L 1178 4863 
L 1178 4134 
L 603 4134 
L 603 4863 
z
" transform="scale(0.015625)"/>
       <path id="DejaVuSans-20" transform="scale(0.015625)"/>
       <path id="DejaVuSans-43" d="M 4122 4306 
L 4122 3641 
Q 3803 3938 3442 4084 
Q 3081 4231 2675 4231 
Q 1875 4231 1450 3742 
Q 1025 3253 1025 2328 
Q 1025 1406 1450 917 
Q 1875 428 2675 428 
Q 3081 428 3442 575 
Q 3803 722 4122 1019 
L 4122 359 
Q 3791 134 3420 21 
Q 3050 -91 2638 -91 
Q 1578 -91 968 557 
Q 359 1206 359 2328 
Q 359 3453 968 4101 
Q 1578 4750 2638 4750 
Q 3056 4750 3426 4639 
Q 3797 4528 4122 4306 
z
" transform="scale(0.015625)"/>
       <path id="DejaVuSans-70" d="M 1159 525 
L 1159 -1331 
L 581 -1331 
L 581 3500 
L 1159 3500 
L 1159 2969 
Q 1341 3281 1617 3432 
Q 1894 3584 2278 3584 
Q 2916 3584 3314 3078 
Q 3713 2572 3713 1747 
Q 3713 922 3314 415 
Q 2916 -91 2278 -91 
Q 1894 -91 1617 61 
Q 1341 213 1159 525 
z
M 3116 1747 
Q 3116 2381 2855 2742 
Q 2594 3103 2138 3103 
Q 1681 3103 1420 2742 
Q 1159 2381 1159 1747 
Q 1159 1113 1420 752 
Q 1681 391 2138 391 
Q 2594 391 2855 752 
Q 3116 1113 3116 1747 
z
" transform="scale(0.015625)"/>
       <path id="DejaVuSans-63" d="M 3122 3366 
L 3122 2828 
Q 2878 2963 2633 3030 
Q 2388 3097 2138 3097 
Q 1578 3097 1268 2742 
Q 959 2388 959 1747 
Q 959 1106 1268 751 
Q 1578 397 2138 397 
Q 2388 397 2633 464 
Q 2878 531 3122 666 
L 3122 134 
Q 2881 22 2623 -34 
Q 2366 -91 2075 -91 
Q 1284 -91 818 406 
Q 353 903 353 1747 
Q 353 2603 823 3093 
Q 1294 3584 2113 3584 
Q 2378 3584 2631 3529 
Q 2884 3475 3122 3366 
z
" transform="scale(0.015625)"/>
       <path id="DejaVuSans-79" d="M 2059 -325 
Q 1816 -950 1584 -1140 
Q 1353 -1331 966 -1331 
L 506 -1331 
L 506 -850 
L 844 -850 
Q 1081 -850 1212 -737 
Q 1344 -625 1503 -206 
L 1606 56 
L 191 3500 
L 800 3500 
L 1894 763 
L 2988 3500 
L 3597 3500 
L 2059 -325 
z
" transform="scale(0.015625)"/>
       <path id="DejaVuSans-28" d="M 1984 4856 
Q 1566 4138 1362 3434 
Q 1159 2731 1159 2009 
Q 1159 1288 1364 580 
Q 1569 -128 1984 -844 
L 1484 -844 
Q 1016 -109 783 600 
Q 550 1309 550 2009 
Q 550 2706 781 3412 
Q 1013 4119 1484 4856 
L 1984 4856 
z
" transform="scale(0.015625)"/>
       <path id="DejaVuSans-62" d="M 3116 1747 
Q 3116 2381 2855 2742 
Q 2594 3103 2138 3103 
Q 1681 3103 1420 2742 
Q 1159 2381 1159 1747 
Q 1159 1113 1420 752 
Q 1681 391 2138 391 
Q 2594 391 2855 752 
Q 3116 1113 3116 1747 
z
M 1159 2969 
Q 1341 3281 1617 3432 
Q 1894 3584 2278 3584 
Q 2916 3584 3314 3078 
Q 3713 2572 3713 1747 
Q 3713 922 3314 415 
Q 2916 -91 2278 -91 
Q 1894 -91 1617 61 
Q 1341 213 1159 525 
L 1159 0 
L 581 0 
L 581 4863 
L 1159 4863 
L 1159 2969 
z
" transform="scale(0.015625)"/>
       <path id="DejaVuSans-73" d="M 2834 3397 
L 2834 2853 
Q 2591 2978 2328 3040 
Q 2066 3103 1784 3103 
Q 1356 3103 1142 2972 
Q 928 2841 928 2578 
Q 928 2378 1081 2264 
Q 1234 2150 1697 2047 
L 1894 2003 
Q 2506 1872 2764 1633 
Q 3022 1394 3022 966 
Q 3022 478 2636 193 
Q 2250 -91 1575 -91 
Q 1294 -91 989 -36 
Q 684 19 347 128 
L 347 722 
Q 666 556 975 473 
Q 1284 391 1588 391 
Q 1994 391 2212 530 
Q 2431 669 2431 922 
Q 2431 1156 2273 1281 
Q 2116 1406 1581 1522 
L 1381 1569 
Q 847 1681 609 1914 
Q 372 2147 372 2553 
Q 372 3047 722 3315 
Q 1072 3584 1716 3584 
Q 2034 3584 2315 3537 
Q 2597 3491 2834 3397 
z
" transform="scale(0.015625)"/>
       <path id="DejaVuSans-29" d="M 513 4856 
L 1013 4856 
Q 1481 4119 1714 3412 
Q 1947 2706 1947 2009 
Q 1947 1309 1714 600 
Q 1481 -109 1013 -844 
L 513 -844 
Q 928 -128 1133 580 
Q 1338 1288 1338 2009 
Q 1338 2731 1133 3434 
Q 928 4138 513 4856 
z
" transform="scale(0.015625)"/>
      </defs>
      <use xlink:href="#DejaVuSans-49"/>
      <use xlink:href="#DejaVuSans-6e" x="29.492188"/>
      <use xlink:href="#DejaVuSans-66" x="92.871094"/>
      <use xlink:href="#DejaVuSans-6f" x="128.076172"/>
      <use xlink:href="#DejaVuSans-72" x="189.257812"/>
      <use xlink:href="#DejaVuSans-6d" x="228.621094"/>
      <use xlink:href="#DejaVuSans-61" x="326.033203"/>
      <use xlink:href="#DejaVuSans-74" x="387.3125"/>
      <use xlink:href="#DejaVuSans-69" x="426.521484"/>
      <use xlink:href="#DejaVuSans-6f" x="454.304688"/>
      <use xlink:href="#DejaVuSans-6e" x="515.486328"/>
      <use xlink:href="#DejaVuSans-20" x="578.865234"/>
      <use xlink:href="#DejaVuSans-43" x="610.652344"/>
      <use xlink:href="#DejaVuSans-61" x="680.476562"/>
      <use xlink:href="#DejaVuSans-70" x="741.755859"/>
      <use xlink:href="#DejaVuSans-61" x="805.232422"/>
      <use xlink:href="#DejaVuSans-63" x="866.511719"/>
      <use xlink:href="#DejaVuSans-69" x="921.492188"/>
      <use xlink:href="#DejaVuSans-74" x="949.275391"/>
      <use xlink:href="#DejaVuSans-79" x="988.484375"/>
      <use xlink:href="#DejaVuSans-20" x="1047.664062"/>
      <use xlink:href="#DejaVuSans-28" x="1079.451172"/>
      <use xlink:href="#DejaVuSans-62" x="1118.464844"/>
      <use xlink:href="#DejaVuSans-69" x="1181.941406"/>
      <use xlink:href="#DejaVuSans-74" x="1209.724609"/>
      <use xlink:href="#DejaVuSans-73" x="1248.933594"/>
      <use xlink:href="#DejaVuSans-29" x="1301.033203"/>
     </g>
    </g>
   </g>
   <g id="matplotlib.axis_2">
    <g id="ytick_1">
     <g id="line2d_7">
      <defs>
       <path id="mf06c8dac73" d="M 0 0 
L -2 0 
" style="stroke: #000000; stroke-width: 0.5"/>
      </defs>
      <g>
       <use xlink:href="#mf06c8dac73" x="30.458438" y="143.202013" style="stroke: #000000; stroke-width: 0.5"/>
      </g>
     </g>
     <g id="text_8">
      <!-- 0.3 -->
      <g transform="translate(17.006875 145.101623) scale(0.05 -0.05)">
       <defs>
        <path id="DejaVuSans-33" d="M 2597 2516 
Q 3050 2419 3304 2112 
Q 3559 1806 3559 1356 
Q 3559 666 3084 287 
Q 2609 -91 1734 -91 
Q 1441 -91 1130 -33 
Q 819 25 488 141 
L 488 750 
Q 750 597 1062 519 
Q 1375 441 1716 441 
Q 2309 441 2620 675 
Q 2931 909 2931 1356 
Q 2931 1769 2642 2001 
Q 2353 2234 1838 2234 
L 1294 2234 
L 1294 2753 
L 1863 2753 
Q 2328 2753 2575 2939 
Q 2822 3125 2822 3475 
Q 2822 3834 2567 4026 
Q 2313 4219 1838 4219 
Q 1578 4219 1281 4162 
Q 984 4106 628 3988 
L 628 4550 
Q 988 4650 1302 4700 
Q 1616 4750 1894 4750 
Q 2613 4750 3031 4423 
Q 3450 4097 3450 3541 
Q 3450 3153 3228 2886 
Q 3006 2619 2597 2516 
z
" transform="scale(0.015625)"/>
       </defs>
       <use xlink:href="#DejaVuSans-30"/>
       <use xlink:href="#DejaVuSans-2e" x="63.623047"/>
       <use xlink:href="#DejaVuSans-33" x="95.410156"/>
      </g>
     </g>
    </g>
    <g id="ytick_2">
     <g id="line2d_8">
      <g>
       <use xlink:href="#mf06c8dac73" x="30.458438" y="113.673335" style="stroke: #000000; stroke-width: 0.5"/>
      </g>
     </g>
     <g id="text_9">
      <!-- 0.4 -->
      <g transform="translate(17.006875 115.572945) scale(0.05 -0.05)">
       <use xlink:href="#DejaVuSans-30"/>
       <use xlink:href="#DejaVuSans-2e" x="63.623047"/>
       <use xlink:href="#DejaVuSans-34" x="95.410156"/>
      </g>
     </g>
    </g>
    <g id="ytick_3">
     <g id="line2d_9">
      <g>
       <use xlink:href="#mf06c8dac73" x="30.458438" y="84.144657" style="stroke: #000000; stroke-width: 0.5"/>
      </g>
     </g>
     <g id="text_10">
      <!-- 0.5 -->
      <g transform="translate(17.006875 86.044267) scale(0.05 -0.05)">
       <defs>
        <path id="DejaVuSans-35" d="M 691 4666 
L 3169 4666 
L 3169 4134 
L 1269 4134 
L 1269 2991 
Q 1406 3038 1543 3061 
Q 1681 3084 1819 3084 
Q 2600 3084 3056 2656 
Q 3513 2228 3513 1497 
Q 3513 744 3044 326 
Q 2575 -91 1722 -91 
Q 1428 -91 1123 -41 
Q 819 9 494 109 
L 494 744 
Q 775 591 1075 516 
Q 1375 441 1709 441 
Q 2250 441 2565 725 
Q 2881 1009 2881 1497 
Q 2881 1984 2565 2268 
Q 2250 2553 1709 2553 
Q 1456 2553 1204 2497 
Q 953 2441 691 2322 
L 691 4666 
z
" transform="scale(0.015625)"/>
       </defs>
       <use xlink:href="#DejaVuSans-30"/>
       <use xlink:href="#DejaVuSans-2e" x="63.623047"/>
       <use xlink:href="#DejaVuSans-35" x="95.410156"/>
      </g>
     </g>
    </g>
    <g id="ytick_4">
     <g id="line2d_10">
      <g>
       <use xlink:href="#mf06c8dac73" x="30.458438" y="54.615979" style="stroke: #000000; stroke-width: 0.5"/>
      </g>
     </g>
     <g id="text_11">
      <!-- 0.6 -->
      <g transform="translate(17.006875 56.515589) scale(0.05 -0.05)">
       <use xlink:href="#DejaVuSans-30"/>
       <use xlink:href="#DejaVuSans-2e" x="63.623047"/>
       <use xlink:href="#DejaVuSans-36" x="95.410156"/>
      </g>
     </g>
    </g>
    <g id="ytick_5">
     <g id="line2d_11">
      <g>
       <use xlink:href="#mf06c8dac73" x="30.458438" y="25.087302" style="stroke: #000000; stroke-width: 0.5"/>
      </g>
     </g>
     <g id="text_12">
      <!-- 0.7 -->
      <g transform="translate(17.006875 26.986911) scale(0.05 -0.05)">
       <defs>
        <path id="DejaVuSans-37" d="M 525 4666 
L 3525 4666 
L 3525 4397 
L 1831 0 
L 1172 0 
L 2766 4134 
L 525 4134 
L 525 4666 
z
" transform="scale(0.015625)"/>
       </defs>
       <use xlink:href="#DejaVuSans-30"/>
       <use xlink:href="#DejaVuSans-2e" x="63.623047"/>
       <use xlink:href="#DejaVuSans-37" x="95.410156"/>
      </g>
     </g>
    </g>
    <g id="text_13">
     <!-- Marginal probability choose Jar 0 -->
     <g transform="translate(11.759063 125.604219) rotate(-90) scale(0.06 -0.06)">
      <defs>
       <path id="DejaVuSans-4d" d="M 628 4666 
L 1569 4666 
L 2759 1491 
L 3956 4666 
L 4897 4666 
L 4897 0 
L 4281 0 
L 4281 4097 
L 3078 897 
L 2444 897 
L 1241 4097 
L 1241 0 
L 628 0 
L 628 4666 
z
" transform="scale(0.015625)"/>
       <path id="DejaVuSans-67" d="M 2906 1791 
Q 2906 2416 2648 2759 
Q 2391 3103 1925 3103 
Q 1463 3103 1205 2759 
Q 947 2416 947 1791 
Q 947 1169 1205 825 
Q 1463 481 1925 481 
Q 2391 481 2648 825 
Q 2906 1169 2906 1791 
z
M 3481 434 
Q 3481 -459 3084 -895 
Q 2688 -1331 1869 -1331 
Q 1566 -1331 1297 -1286 
Q 1028 -1241 775 -1147 
L 775 -588 
Q 1028 -725 1275 -790 
Q 1522 -856 1778 -856 
Q 2344 -856 2625 -561 
Q 2906 -266 2906 331 
L 2906 616 
Q 2728 306 2450 153 
Q 2172 0 1784 0 
Q 1141 0 747 490 
Q 353 981 353 1791 
Q 353 2603 747 3093 
Q 1141 3584 1784 3584 
Q 2172 3584 2450 3431 
Q 2728 3278 2906 2969 
L 2906 3500 
L 3481 3500 
L 3481 434 
z
" transform="scale(0.015625)"/>
       <path id="DejaVuSans-6c" d="M 603 4863 
L 1178 4863 
L 1178 0 
L 603 0 
L 603 4863 
z
" transform="scale(0.015625)"/>
       <path id="DejaVuSans-68" d="M 3513 2113 
L 3513 0 
L 2938 0 
L 2938 2094 
Q 2938 2591 2744 2837 
Q 2550 3084 2163 3084 
Q 1697 3084 1428 2787 
Q 1159 2491 1159 1978 
L 1159 0 
L 581 0 
L 581 4863 
L 1159 4863 
L 1159 2956 
Q 1366 3272 1645 3428 
Q 1925 3584 2291 3584 
Q 2894 3584 3203 3211 
Q 3513 2838 3513 2113 
z
" transform="scale(0.015625)"/>
       <path id="DejaVuSans-65" d="M 3597 1894 
L 3597 1613 
L 953 1613 
Q 991 1019 1311 708 
Q 1631 397 2203 397 
Q 2534 397 2845 478 
Q 3156 559 3463 722 
L 3463 178 
Q 3153 47 2828 -22 
Q 2503 -91 2169 -91 
Q 1331 -91 842 396 
Q 353 884 353 1716 
Q 353 2575 817 3079 
Q 1281 3584 2069 3584 
Q 2775 3584 3186 3129 
Q 3597 2675 3597 1894 
z
M 3022 2063 
Q 3016 2534 2758 2815 
Q 2500 3097 2075 3097 
Q 1594 3097 1305 2825 
Q 1016 2553 972 2059 
L 3022 2063 
z
" transform="scale(0.015625)"/>
       <path id="DejaVuSans-4a" d="M 628 4666 
L 1259 4666 
L 1259 325 
Q 1259 -519 939 -900 
Q 619 -1281 -91 -1281 
L -331 -1281 
L -331 -750 
L -134 -750 
Q 284 -750 456 -515 
Q 628 -281 628 325 
L 628 4666 
z
" transform="scale(0.015625)"/>
      </defs>
      <use xlink:href="#DejaVuSans-4d"/>
      <use xlink:href="#DejaVuSans-61" x="86.279297"/>
      <use xlink:href="#DejaVuSans-72" x="147.558594"/>
      <use xlink:href="#DejaVuSans-67" x="186.921875"/>
      <use xlink:href="#DejaVuSans-69" x="250.398438"/>
      <use xlink:href="#DejaVuSans-6e" x="278.181641"/>
      <use xlink:href="#DejaVuSans-61" x="341.560547"/>
      <use xlink:href="#DejaVuSans-6c" x="402.839844"/>
      <use xlink:href="#DejaVuSans-20" x="430.623047"/>
      <use xlink:href="#DejaVuSans-70" x="462.410156"/>
      <use xlink:href="#DejaVuSans-72" x="525.886719"/>
      <use xlink:href="#DejaVuSans-6f" x="564.75"/>
      <use xlink:href="#DejaVuSans-62" x="625.931641"/>
      <use xlink:href="#DejaVuSans-61" x="689.408203"/>
      <use xlink:href="#DejaVuSans-62" x="750.6875"/>
      <use xlink:href="#DejaVuSans-69" x="814.164062"/>
      <use xlink:href="#DejaVuSans-6c" x="841.947266"/>
      <use xlink:href="#DejaVuSans-69" x="869.730469"/>
      <use xlink:href="#DejaVuSans-74" x="897.513672"/>
      <use xlink:href="#DejaVuSans-79" x="936.722656"/>
      <use xlink:href="#DejaVuSans-20" x="995.902344"/>
      <use xlink:href="#DejaVuSans-63" x="1027.689453"/>
      <use xlink:href="#DejaVuSans-68" x="1082.669922"/>
      <use xlink:href="#DejaVuSans-6f" x="1146.048828"/>
      <use xlink:href="#DejaVuSans-6f" x="1207.230469"/>
      <use xlink:href="#DejaVuSans-73" x="1268.412109"/>
      <use xlink:href="#DejaVuSans-65" x="1320.511719"/>
      <use xlink:href="#DejaVuSans-20" x="1382.035156"/>
      <use xlink:href="#DejaVuSans-4a" x="1413.822266"/>
      <use xlink:href="#DejaVuSans-61" x="1443.314453"/>
      <use xlink:href="#DejaVuSans-72" x="1504.59375"/>
      <use xlink:href="#DejaVuSans-20" x="1545.707031"/>
      <use xlink:href="#DejaVuSans-30" x="1577.494141"/>
     </g>
    </g>
   </g>
   <g id="line2d_12">
    <path d="M 38.238438 84.080737 
L 38.383569 83.633515 
L 38.824615 83.123695 
L 39.666964 82.553354 
L 41.021963 81.925751 
L 43.205592 81.184368 
L 46.470391 80.340448 
L 51.049958 79.410339 
L 57.119434 78.415898 
L 65.154494 77.334614 
L 75.606435 76.167717 
L 88.266461 74.983386 
L 103.79254 73.758815 
L 122.351761 72.526376 
L 143.531916 71.349573 
L 166.687716 70.289732 
L 192.392236 69.122932 
L 193.294661 68.871207 
L 193.294661 68.871207 
" clip-path="url(#pd898739803)" style="fill: none; stroke: #000000; stroke-width: 0.7; stroke-linecap: square"/>
   </g>
   <g id="line2d_13">
    <path d="M 38.238438 83.933097 
L 38.383562 82.453985 
L 38.753451 80.983282 
L 39.345534 79.528218 
L 40.155723 78.095792 
L 41.341553 76.494988 
L 42.794529 74.941718 
L 44.502086 73.444386 
L 46.709342 71.835945 
L 49.197508 70.316589 
L 51.94157 68.893437 
L 55.25837 67.431349 
L 58.820619 66.099142 
L 62.976885 64.786091 
L 67.737463 63.534904 
L 72.672592 62.468078 
L 78.146483 61.510745 
L 84.111759 60.694765 
L 90.498422 60.044943 
L 97.631227 59.554944 
L 104.960656 59.27764 
L 112.73519 59.204814 
L 121.098427 59.35382 
L 129.731546 59.730866 
L 138.85164 60.353868 
L 148.352652 61.229211 
L 158.164208 62.359088 
L 168.21894 63.742492 
L 178.217197 65.34144 
L 186.541064 66.88346 
L 190.245915 67.759149 
L 191.945036 68.378205 
L 193.293073 68.871 
L 193.293073 68.871 
" clip-path="url(#pd898739803)" style="fill: none; stroke: #1f77b4; stroke-width: 0.7; stroke-linecap: square"/>
   </g>
   <g id="line2d_14">
    <path d="M 38.238438 84.228378 
L 38.383556 84.813111 
L 38.753381 85.391758 
L 39.447655 86.038922 
L 40.566989 86.740022 
L 42.215045 87.473942 
L 44.492108 88.21247 
L 47.48711 88.920548 
L 50.959667 89.513682 
L 55.187732 90.016144 
L 60.189378 90.388308 
L 65.947014 90.593317 
L 72.404669 90.600972 
L 79.46911 90.391326 
L 87.433195 89.927551 
L 96.120326 89.187784 
L 105.292549 88.177384 
L 115.035035 86.87764 
L 125.284426 85.287064 
L 136.35824 83.340428 
L 148.223244 81.023881 
L 161.158198 78.267209 
L 176.318567 74.798511 
L 191.873382 71.252919 
L 192.609975 71.413729 
L 193.44672 71.770308 
L 193.44672 71.770308 
" clip-path="url(#pd898739803)" style="fill: none; stroke: #aec7e8; stroke-width: 0.7; stroke-linecap: square"/>
   </g>
   <g id="line2d_15">
    <path d="M 38.238438 83.785457 
L 38.383537 81.27467 
L 38.753138 78.780664 
L 39.344094 76.31781 
L 40.151416 73.899911 
L 41.168371 71.539971 
L 42.386611 69.249983 
L 43.796336 67.040765 
L 45.386472 64.921819 
L 47.409059 62.621032 
L 49.631902 60.458457 
L 52.034458 58.441382 
L 54.595545 56.574674 
L 57.293737 54.860915 
L 60.466584 53.116278 
L 63.756413 51.563621 
L 67.134872 50.198226 
L 70.960269 48.892373 
L 74.828465 47.797466 
L 79.096805 46.820457 
L 83.729013 46.003784 
L 88.298469 45.421132 
L 93.141527 45.02294 
L 98.19804 44.828188 
L 103.401874 44.845852 
L 109.005067 45.095265 
L 114.57943 45.565554 
L 120.335992 46.269852 
L 126.400678 47.237647 
L 132.805331 48.494095 
L 139.487784 50.039607 
L 146.633955 51.924855 
L 154.912107 54.348395 
L 167.455144 58.290617 
L 178.981304 61.832639 
L 185.501338 63.609497 
L 188.535504 64.245599 
L 190.138302 64.360103 
L 191.557731 64.237797 
L 192.391779 64.082713 
L 192.391779 64.082713 
" clip-path="url(#pd898739803)" style="fill: none; stroke: #ff7f0e; stroke-width: 0.7; stroke-linecap: square"/>
   </g>
   <g id="line2d_16">
    <path d="M 38.238438 84.376018 
L 38.383525 85.992622 
L 38.752999 87.595661 
L 39.343458 89.173526 
L 40.14952 90.715083 
L 41.163939 92.209863 
L 42.566854 93.848596 
L 44.214403 95.400899 
L 46.088662 96.855859 
L 48.169994 98.204574 
L 50.732995 99.586442 
L 53.500823 100.818581 
L 56.442248 101.897447 
L 59.876542 102.915688 
L 63.446091 103.746656 
L 67.482866 104.451641 
L 71.589628 104.948887 
L 76.100435 105.271344 
L 80.970678 105.385556 
L 86.141724 105.267174 
L 91.189374 104.933851 
L 96.761828 104.334733 
L 102.415433 103.495426 
L 108.379666 102.373137 
L 114.522383 100.978855 
L 120.71519 99.345007 
L 127.306885 97.375293 
L 134.45461 95.001993 
L 142.629835 92.040875 
L 153.564462 87.817227 
L 170.440427 81.299564 
L 178.276418 78.534672 
L 186.441883 75.906422 
L 193.600714 73.754952 
L 193.838437 73.690532 
L 193.838437 73.690532 
" clip-path="url(#pd898739803)" style="fill: none; stroke: #ffbb78; stroke-width: 0.7; stroke-linecap: square"/>
   </g>
   <g id="line2d_17">
    <path d="M 38.238438 83.637818 
L 38.383492 80.09572 
L 38.752593 76.580428 
L 39.341594 73.114759 
L 40.143951 69.720404 
L 41.150892 66.417467 
L 42.351634 63.224083 
L 43.733652 60.156126 
L 45.282973 57.227003 
L 46.984491 54.447554 
L 48.822296 51.826037 
L 51.068483 49.030653 
L 53.44653 46.453742 
L 55.931965 44.096389 
L 58.501057 41.956446 
L 61.131227 40.029014 
L 64.136982 38.105713 
L 67.166 36.429528 
L 70.529369 34.83894 
L 73.862746 33.513186 
L 77.466479 32.333394 
L 80.97993 31.415782 
L 84.6878 30.678919 
L 88.538787 30.150747 
L 92.479453 29.848709 
L 96.457691 29.77966 
L 100.426021 29.940601 
L 104.344271 30.320066 
L 108.385645 30.936472 
L 112.477993 31.787341 
L 116.734031 32.903698 
L 121.219633 34.31631 
L 126.101098 36.092202 
L 131.939499 38.464927 
L 141.364343 42.579621 
L 151.738507 47.032162 
L 158.590846 49.728585 
L 164.738253 51.911777 
L 170.378098 53.682733 
L 175.482845 55.057546 
L 179.782639 55.993848 
L 182.904967 56.462156 
L 184.7747 56.538795 
L 186.049958 56.370863 
L 188.612849 55.956767 
L 189.020114 55.952337 
L 189.020114 55.952337 
" clip-path="url(#pd898739803)" style="fill: none; stroke: #2ca02c; stroke-width: 0.7; stroke-linecap: square"/>
   </g>
   <g id="line2d_18">
    <path d="M 38.238438 84.523658 
L 38.383475 87.171898 
L 38.752385 89.798037 
L 39.340643 92.383267 
L 40.141122 94.909723 
L 41.144301 97.360861 
L 42.338523 99.721777 
L 43.71032 101.979456 
L 45.244756 104.122929 
L 47.176947 106.421542 
L 49.275561 108.549774 
L 51.515027 110.501406 
L 53.869901 112.273513 
L 56.626317 114.052694 
L 59.464116 115.608685 
L 62.352479 116.948755 
L 65.587416 118.196568 
L 68.817338 119.206318 
L 72.331216 120.063706 
L 75.775239 120.680285 
L 79.425901 121.108279 
L 83.231948 121.320201 
L 87.139395 121.298646 
L 90.839097 121.060828 
L 94.812191 120.573976 
L 98.745254 119.858781 
L 102.606744 118.933793 
L 106.56569 117.761264 
L 110.739107 116.289627 
L 115.19913 114.470458 
L 120.126167 112.2067 
L 126.001895 109.248315 
L 137.430557 103.170527 
L 145.834659 98.841878 
L 152.4076 95.70378 
L 158.390285 93.089285 
L 164.085336 90.841048 
L 169.443104 88.962184 
L 174.412245 87.452036 
L 178.791719 86.347612 
L 182.379358 85.662689 
L 185.025001 85.370465 
L 186.820165 85.381128 
L 188.115349 85.603981 
L 189.453075 86.076594 
L 191.626157 87.056042 
L 191.626157 87.056042 
" clip-path="url(#pd898739803)" style="fill: none; stroke: #98df8a; stroke-width: 0.7; stroke-linecap: square"/>
   </g>
   <g id="line2d_19">
    <path d="M 38.238438 83.49018 
L 38.383429 78.917287 
L 38.751818 74.383543 
L 39.338043 69.922037 
L 40.133378 65.563803 
L 41.126217 61.337021 
L 42.302453 57.266387 
L 43.645912 53.372667 
L 45.138837 49.672458 
L 46.762376 46.178133 
L 48.752826 42.447143 
L 50.859264 39.001941 
L 53.053076 35.842897 
L 55.306932 32.965389 
L 57.88265 30.05377 
L 60.469355 27.470339 
L 63.321593 24.959692 
L 66.118992 22.797575 
L 69.101422 20.782873 
L 72.212164 18.970221 
L 75.151749 17.507379 
L 78.128413 16.259962 
L 81.287984 15.185039 
L 84.339938 14.388652 
L 87.244358 13.856163 
L 90.118142 13.555988 
L 92.89825 13.495065 
L 95.547204 13.663645 
L 98.147208 14.05919 
L 100.675712 14.669649 
L 103.359855 15.552161 
L 106.366535 16.784383 
L 110.273544 18.644788 
L 118.589796 22.928796 
L 127.787261 27.549319 
L 135.771008 31.30775 
L 143.583296 34.74041 
L 151.326909 37.901096 
L 158.990495 40.789924 
L 166.52565 43.394121 
L 173.865609 45.697612 
L 180.612621 47.588639 
L 184.444298 48.468071 
L 185.846672 48.591358 
L 186.541629 48.447321 
L 186.584411 48.428632 
L 186.584411 48.428632 
" clip-path="url(#pd898739803)" style="fill: none; stroke: #d62728; stroke-width: 0.7; stroke-linecap: square"/>
   </g>
   <g id="line2d_20">
    <path d="M 38.238438 84.671297 
L 38.383407 88.350788 
L 38.751541 91.997912 
L 39.33678 95.58532 
L 40.129635 99.087372 
L 41.117532 102.480804 
L 42.285261 105.745251 
L 43.615492 108.863609 
L 45.310445 112.23123 
L 47.163195 115.375584 
L 49.143381 118.287663 
L 51.220999 120.963755 
L 53.638985 123.693616 
L 56.105765 126.133321 
L 58.587127 128.294968 
L 61.32527 130.389801 
L 64.275364 132.349625 
L 67.126631 133.982944 
L 70.09459 135.434561 
L 73.11834 136.669143 
L 76.136984 137.664906 
L 79.094771 138.41326 
L 81.945541 138.917235 
L 84.805707 139.197944 
L 87.471051 139.241912 
L 90.057142 139.066334 
L 92.535287 138.679339 
L 94.989067 138.07236 
L 97.482301 137.225467 
L 100.216478 136.050957 
L 103.420618 134.417323 
L 108.038428 131.784768 
L 123.831183 122.625708 
L 131.551849 118.480153 
L 139.264116 114.590406 
L 147.035062 110.919335 
L 154.839865 107.47778 
L 162.635303 104.282709 
L 170.403527 101.338389 
L 178.145965 98.641313 
L 185.579344 96.282847 
L 189.591102 95.202096 
L 191.158555 94.9859 
L 192.032971 95.073336 
L 192.09555 95.091051 
L 192.09555 95.091051 
" clip-path="url(#pd898739803)" style="fill: none; stroke: #ff9896; stroke-width: 0.7; stroke-linecap: square"/>
   </g>
   <g id="line2d_21">
    <defs>
     <path id="m899059446d" d="M -1.5 1.5 
L 1.5 -1.5 
M -1.5 -1.5 
L 1.5 1.5 
" style="stroke: #000000; stroke-width: 0.4"/>
    </defs>
    <g clip-path="url(#pd898739803)">
     <use xlink:href="#m899059446d" x="160.659217" y="65.246304" style="stroke: #000000; stroke-width: 0.4"/>
     <use xlink:href="#m899059446d" x="175.522146" y="67.018024" style="stroke: #000000; stroke-width: 0.4"/>
     <use xlink:href="#m899059446d" x="164.741435" y="72.92376" style="stroke: #000000; stroke-width: 0.4"/>
     <use xlink:href="#m899059446d" x="93.981935" y="88.869246" style="stroke: #000000; stroke-width: 0.4"/>
     <use xlink:href="#m899059446d" x="150.220793" y="65.246304" style="stroke: #000000; stroke-width: 0.4"/>
     <use xlink:href="#m899059446d" x="167.111947" y="65.246304" style="stroke: #000000; stroke-width: 0.4"/>
     <use xlink:href="#m899059446d" x="92.004268" y="80.601216" style="stroke: #000000; stroke-width: 0.4"/>
     <use xlink:href="#m899059446d" x="49.475103" y="81.782363" style="stroke: #000000; stroke-width: 0.4"/>
     <use xlink:href="#m899059446d" x="125.853254" y="78.829495" style="stroke: #000000; stroke-width: 0.4"/>
     <use xlink:href="#m899059446d" x="181.413476" y="78.829495" style="stroke: #000000; stroke-width: 0.4"/>
     <use xlink:href="#m899059446d" x="80.080412" y="85.325804" style="stroke: #000000; stroke-width: 0.4"/>
     <use xlink:href="#m899059446d" x="134.526961" y="69.970892" style="stroke: #000000; stroke-width: 0.4"/>
     <use xlink:href="#m899059446d" x="158.010861" y="63.474583" style="stroke: #000000; stroke-width: 0.4"/>
     <use xlink:href="#m899059446d" x="168.855499" y="72.92376" style="stroke: #000000; stroke-width: 0.4"/>
     <use xlink:href="#m899059446d" x="149.072744" y="85.325804" style="stroke: #000000; stroke-width: 0.4"/>
     <use xlink:href="#m899059446d" x="124.2861" y="65.836877" style="stroke: #000000; stroke-width: 0.4"/>
     <use xlink:href="#m899059446d" x="160.515368" y="57.568847" style="stroke: #000000; stroke-width: 0.4"/>
     <use xlink:href="#m899059446d" x="145.858292" y="76.467201" style="stroke: #000000; stroke-width: 0.4"/>
     <use xlink:href="#m899059446d" x="161.692449" y="75.876628" style="stroke: #000000; stroke-width: 0.4"/>
     <use xlink:href="#m899059446d" x="144.629739" y="61.112289" style="stroke: #000000; stroke-width: 0.4"/>
     <use xlink:href="#m899059446d" x="121.882202" y="65.246304" style="stroke: #000000; stroke-width: 0.4"/>
     <use xlink:href="#m899059446d" x="178.145386" y="72.333186" style="stroke: #000000; stroke-width: 0.4"/>
     <use xlink:href="#m899059446d" x="147.676685" y="80.010642" style="stroke: #000000; stroke-width: 0.4"/>
     <use xlink:href="#m899059446d" x="167.151956" y="66.427451" style="stroke: #000000; stroke-width: 0.4"/>
     <use xlink:href="#m899059446d" x="119.321972" y="75.286054" style="stroke: #000000; stroke-width: 0.4"/>
     <use xlink:href="#m899059446d" x="163.053786" y="71.742613" style="stroke: #000000; stroke-width: 0.4"/>
     <use xlink:href="#m899059446d" x="149.647907" y="79.420069" style="stroke: #000000; stroke-width: 0.4"/>
     <use xlink:href="#m899059446d" x="165.768726" y="66.427451" style="stroke: #000000; stroke-width: 0.4"/>
     <use xlink:href="#m899059446d" x="70.943811" y="89.459819" style="stroke: #000000; stroke-width: 0.4"/>
     <use xlink:href="#m899059446d" x="182.805709" y="79.420069" style="stroke: #000000; stroke-width: 0.4"/>
     <use xlink:href="#m899059446d" x="133.470494" y="97.137276" style="stroke: #000000; stroke-width: 0.4"/>
     <use xlink:href="#m899059446d" x="176.815047" y="69.970892" style="stroke: #000000; stroke-width: 0.4"/>
     <use xlink:href="#m899059446d" x="138.525186" y="91.822114" style="stroke: #000000; stroke-width: 0.4"/>
     <use xlink:href="#m899059446d" x="178.436697" y="70.561466" style="stroke: #000000; stroke-width: 0.4"/>
     <use xlink:href="#m899059446d" x="164.29135" y="71.152039" style="stroke: #000000; stroke-width: 0.4"/>
     <use xlink:href="#m899059446d" x="167.295683" y="74.104907" style="stroke: #000000; stroke-width: 0.4"/>
     <use xlink:href="#m899059446d" x="140.160313" y="56.3877" style="stroke: #000000; stroke-width: 0.4"/>
     <use xlink:href="#m899059446d" x="148.700047" y="71.742613" style="stroke: #000000; stroke-width: 0.4"/>
     <use xlink:href="#m899059446d" x="172.351615" y="73.514333" style="stroke: #000000; stroke-width: 0.4"/>
     <use xlink:href="#m899059446d" x="144.516684" y="68.199171" style="stroke: #000000; stroke-width: 0.4"/>
     <use xlink:href="#m899059446d" x="181.738327" y="80.010642" style="stroke: #000000; stroke-width: 0.4"/>
     <use xlink:href="#m899059446d" x="172.690173" y="69.380318" style="stroke: #000000; stroke-width: 0.4"/>
     <use xlink:href="#m899059446d" x="176.768547" y="67.018024" style="stroke: #000000; stroke-width: 0.4"/>
     <use xlink:href="#m899059446d" x="114.33381" y="91.23154" style="stroke: #000000; stroke-width: 0.4"/>
     <use xlink:href="#m899059446d" x="170.748586" y="68.199171" style="stroke: #000000; stroke-width: 0.4"/>
     <use xlink:href="#m899059446d" x="173.728957" y="70.561466" style="stroke: #000000; stroke-width: 0.4"/>
     <use xlink:href="#m899059446d" x="124.814225" y="74.69548" style="stroke: #000000; stroke-width: 0.4"/>
     <use xlink:href="#m899059446d" x="164.191211" y="72.92376" style="stroke: #000000; stroke-width: 0.4"/>
     <use xlink:href="#m899059446d" x="151.986729" y="67.608598" style="stroke: #000000; stroke-width: 0.4"/>
     <use xlink:href="#m899059446d" x="177.166003" y="71.152039" style="stroke: #000000; stroke-width: 0.4"/>
     <use xlink:href="#m899059446d" x="165.281842" y="78.238922" style="stroke: #000000; stroke-width: 0.4"/>
     <use xlink:href="#m899059446d" x="171.643666" y="64.65573" style="stroke: #000000; stroke-width: 0.4"/>
     <use xlink:href="#m899059446d" x="172.424696" y="68.199171" style="stroke: #000000; stroke-width: 0.4"/>
     <use xlink:href="#m899059446d" x="95.970178" y="71.152039" style="stroke: #000000; stroke-width: 0.4"/>
     <use xlink:href="#m899059446d" x="156.218784" y="74.69548" style="stroke: #000000; stroke-width: 0.4"/>
     <use xlink:href="#m899059446d" x="154.781723" y="75.876628" style="stroke: #000000; stroke-width: 0.4"/>
     <use xlink:href="#m899059446d" x="173.598989" y="71.152039" style="stroke: #000000; stroke-width: 0.4"/>
     <use xlink:href="#m899059446d" x="175.376347" y="71.742613" style="stroke: #000000; stroke-width: 0.4"/>
     <use xlink:href="#m899059446d" x="145.072366" y="74.69548" style="stroke: #000000; stroke-width: 0.4"/>
     <use xlink:href="#m899059446d" x="172.455673" y="68.789745" style="stroke: #000000; stroke-width: 0.4"/>
     <use xlink:href="#m899059446d" x="129.418569" y="73.514333" style="stroke: #000000; stroke-width: 0.4"/>
     <use xlink:href="#m899059446d" x="173.474865" y="67.608598" style="stroke: #000000; stroke-width: 0.4"/>
     <use xlink:href="#m899059446d" x="170.975699" y="71.742613" style="stroke: #000000; stroke-width: 0.4"/>
     <use xlink:href="#m899059446d" x="98.740559" y="75.876628" style="stroke: #000000; stroke-width: 0.4"/>
    </g>
   </g>
   <g id="patch_3">
    <path d="M 30.458438 145.54 
L 30.458438 7.2 
" style="fill: none; stroke: #000000; stroke-width: 0.5; stroke-linejoin: miter; stroke-linecap: square"/>
   </g>
   <g id="patch_4">
    <path d="M 30.458438 145.54 
L 201.618438 145.54 
" style="fill: none; stroke: #000000; stroke-width: 0.5; stroke-linejoin: miter; stroke-linecap: square"/>
   </g>
  </g>
 </g>
 <defs>
  <clipPath id="pd898739803">
   <rect x="30.458438" y="7.2" width="171.16" height="138.34"/>
  </clipPath>
 </defs>
</svg>
