<?xml version="1.0" encoding="utf-8" standalone="no"?>
<!DOCTYPE svg PUBLIC "-//W3C//DTD SVG 1.1//EN"
  "http://www.w3.org/Graphics/SVG/1.1/DTD/svg11.dtd">
<svg xmlns:xlink="http://www.w3.org/1999/xlink" width="146.74pt" height="58.752pt" viewBox="0 0 146.74 58.752" xmlns="http://www.w3.org/2000/svg" version="1.1">
 <metadata>
  <rdf:RDF xmlns:dc="http://purl.org/dc/elements/1.1/" xmlns:cc="http://creativecommons.org/ns#" xmlns:rdf="http://www.w3.org/1999/02/22-rdf-syntax-ns#">
   <cc:Work>
    <dc:type rdf:resource="http://purl.org/dc/dcmitype/StillImage"/>
    <dc:date>2026-04-16T18:27:02.935269</dc:date>
    <dc:format>image/svg+xml</dc:format>
    <dc:creator>
     <cc:Agent>
      <dc:title>Matplotlib v3.8.2, https://matplotlib.org/</dc:title>
     </cc:Agent>
    </dc:creator>
   </cc:Work>
  </rdf:RDF>
 </metadata>
 <defs>
  <style type="text/css">*{stroke-linejoin: round; stroke-linecap: butt}</style>
 </defs>
 <g id="figure_1">
  <g id="patch_1">
   <path d="M 0 58.752 
L 146.74 58.752 
L 146.74 0 
L 0 0 
z
" style="fill: #ffffff"/>
  </g>
  <g id="axes_1">
   <g id="patch_2">
    <path d="M 11.2 51.552 
L 139.54 51.552 
L 139.54 7.2 
L 11.2 7.2 
z
" style="fill: #ffffff"/>
   </g>
   <g id="matplotlib.axis_1"/>
   <g id="matplotlib.axis_2">
    <g id="ytick_1">
     <g id="line2d_1">
      <defs>
       <path id="mc78f049b33" d="M 0 0 
L -4 0 
" style="stroke: #000000; stroke-width: 0.8"/>
      </defs>
      <g>
       <use xlink:href="#mc78f049b33" x="11.2" y="47.856" style="stroke: #000000; stroke-width: 0.8"/>
      </g>
     </g>
    </g>
    <g id="ytick_2">
     <g id="line2d_2">
      <g>
       <use xlink:href="#mc78f049b33" x="11.2" y="10.896" style="stroke: #000000; stroke-width: 0.8"/>
      </g>
     </g>
    </g>
   </g>
   <g id="line2d_3">
    <path d="M 17.033636 10.896 
L 21.056834 10.896 
L 25.080031 10.896 
L 29.103229 10.896 
L 33.126426 10.896 
L 37.149624 10.896 
L 41.172821 10.896 
L 45.196019 10.896 
L 49.219216 47.856 
L 53.242414 47.856 
L 57.265611 47.856 
L 61.288809 47.856 
L 65.312006 47.856 
L 69.335204 47.856 
L 73.358401 47.856 
L 77.381599 47.856 
L 81.404796 47.856 
L 85.427994 47.856 
L 89.451191 47.856 
L 93.474389 47.856 
L 97.497586 47.856 
L 101.520784 47.856 
L 105.543981 47.856 
L 109.567179 47.856 
L 113.590376 47.856 
L 117.613574 47.856 
L 121.636771 47.856 
L 125.659969 47.856 
L 129.683166 47.856 
L 133.706364 47.856 
" clip-path="url(#p96542b3c53)" style="fill: none; stroke: #ff7f0e; stroke-linecap: square"/>
   </g>
   <g id="line2d_4">
    <defs>
     <path id="m93a9b6c11b" d="M 0 4 
C 1.060812 4 2.078319 3.578535 2.828427 2.828427 
C 3.578535 2.078319 4 1.060812 4 0 
C 4 -1.060812 3.578535 -2.078319 2.828427 -2.828427 
C 2.078319 -3.578535 1.060812 -4 0 -4 
C -1.060812 -4 -2.078319 -3.578535 -2.828427 -2.828427 
C -3.578535 -2.078319 -4 -1.060812 -4 0 
C -4 1.060812 -3.578535 2.078319 -2.828427 2.828427 
C -2.078319 3.578535 -1.060812 4 0 4 
z
" style="stroke: #808080; stroke-width: 0.5"/>
    </defs>
    <g clip-path="url(#p96542b3c53)">
     <use xlink:href="#m93a9b6c11b" x="17.033636" y="29.376" style="fill: #ffffff; stroke: #808080; stroke-width: 0.5"/>
    </g>
   </g>
   <g id="line2d_5">
    <g clip-path="url(#p96542b3c53)">
     <use xlink:href="#m93a9b6c11b" x="21.056834" y="29.376" style="fill: #ffffff; stroke: #808080; stroke-width: 0.5"/>
    </g>
   </g>
   <g id="line2d_6">
    <g clip-path="url(#p96542b3c53)">
     <use xlink:href="#m93a9b6c11b" x="25.080031" y="29.376" style="fill: #ffffff; stroke: #808080; stroke-width: 0.5"/>
    </g>
   </g>
   <g id="line2d_7">
    <g clip-path="url(#p96542b3c53)">
     <use xlink:href="#m93a9b6c11b" x="29.103229" y="29.376" style="fill: #ffffff; stroke: #808080; stroke-width: 0.5"/>
    </g>
   </g>
   <g id="line2d_8">
    <defs>
     <path id="m8b940c605c" d="M 0 4 
C 1.060812 4 2.078319 3.578535 2.828427 2.828427 
C 3.578535 2.078319 4 1.060812 4 0 
C 4 -1.060812 3.578535 -2.078319 2.828427 -2.828427 
C 2.078319 -3.578535 1.060812 -4 0 -4 
C -1.060812 -4 -2.078319 -3.578535 -2.828427 -2.828427 
C -3.578535 -2.078319 -4 -1.060812 -4 0 
C -4 1.060812 -3.578535 2.078319 -2.828427 2.828427 
C -2.078319 3.578535 -1.060812 4 0 4 
z
" style="stroke: #808080; stroke-width: 0.5"/>
    </defs>
    <g clip-path="url(#p96542b3c53)">
     <use xlink:href="#m8b940c605c" x="33.126426" y="29.376" style="stroke: #808080; stroke-width: 0.5"/>
    </g>
   </g>
   <g id="line2d_9">
    <g clip-path="url(#p96542b3c53)">
     <use xlink:href="#m93a9b6c11b" x="37.149624" y="29.376" style="fill: #ffffff; stroke: #808080; stroke-width: 0.5"/>
    </g>
   </g>
   <g id="line2d_10">
    <g clip-path="url(#p96542b3c53)">
     <use xlink:href="#m93a9b6c11b" x="41.172821" y="29.376" style="fill: #ffffff; stroke: #808080; stroke-width: 0.5"/>
    </g>
   </g>
   <g id="line2d_11">
    <g clip-path="url(#p96542b3c53)">
     <use xlink:href="#m8b940c605c" x="45.196019" y="29.376" style="stroke: #808080; stroke-width: 0.5"/>
    </g>
   </g>
   <g id="line2d_12">
    <g clip-path="url(#p96542b3c53)">
     <use xlink:href="#m93a9b6c11b" x="49.219216" y="29.376" style="fill: #ffffff; stroke: #808080; stroke-width: 0.5"/>
    </g>
   </g>
   <g id="line2d_13">
    <g clip-path="url(#p96542b3c53)">
     <use xlink:href="#m93a9b6c11b" x="53.242414" y="29.376" style="fill: #ffffff; stroke: #808080; stroke-width: 0.5"/>
    </g>
   </g>
   <g id="line2d_14">
    <g clip-path="url(#p96542b3c53)">
     <use xlink:href="#m93a9b6c11b" x="57.265611" y="29.376" style="fill: #ffffff; stroke: #808080; stroke-width: 0.5"/>
    </g>
   </g>
   <g id="line2d_15">
    <g clip-path="url(#p96542b3c53)">
     <use xlink:href="#m93a9b6c11b" x="61.288809" y="29.376" style="fill: #ffffff; stroke: #808080; stroke-width: 0.5"/>
    </g>
   </g>
   <g id="line2d_16">
    <g clip-path="url(#p96542b3c53)">
     <use xlink:href="#m8b940c605c" x="65.312006" y="29.376" style="stroke: #808080; stroke-width: 0.5"/>
    </g>
   </g>
   <g id="line2d_17">
    <g clip-path="url(#p96542b3c53)">
     <use xlink:href="#m93a9b6c11b" x="69.335204" y="29.376" style="fill: #ffffff; stroke: #808080; stroke-width: 0.5"/>
    </g>
   </g>
   <g id="line2d_18">
    <g clip-path="url(#p96542b3c53)">
     <use xlink:href="#m93a9b6c11b" x="73.358401" y="29.376" style="fill: #ffffff; stroke: #808080; stroke-width: 0.5"/>
    </g>
   </g>
   <g id="line2d_19">
    <g clip-path="url(#p96542b3c53)">
     <use xlink:href="#m93a9b6c11b" x="77.381599" y="29.376" style="fill: #ffffff; stroke: #808080; stroke-width: 0.5"/>
    </g>
   </g>
   <g id="line2d_20">
    <g clip-path="url(#p96542b3c53)">
     <use xlink:href="#m8b940c605c" x="81.404796" y="29.376" style="stroke: #808080; stroke-width: 0.5"/>
    </g>
   </g>
   <g id="line2d_21">
    <g clip-path="url(#p96542b3c53)">
     <use xlink:href="#m8b940c605c" x="85.427994" y="29.376" style="stroke: #808080; stroke-width: 0.5"/>
    </g>
   </g>
   <g id="line2d_22">
    <g clip-path="url(#p96542b3c53)">
     <use xlink:href="#m93a9b6c11b" x="89.451191" y="29.376" style="fill: #ffffff; stroke: #808080; stroke-width: 0.5"/>
    </g>
   </g>
   <g id="line2d_23">
    <g clip-path="url(#p96542b3c53)">
     <use xlink:href="#m8b940c605c" x="93.474389" y="29.376" style="stroke: #808080; stroke-width: 0.5"/>
    </g>
   </g>
   <g id="line2d_24">
    <g clip-path="url(#p96542b3c53)">
     <use xlink:href="#m93a9b6c11b" x="97.497586" y="29.376" style="fill: #ffffff; stroke: #808080; stroke-width: 0.5"/>
    </g>
   </g>
   <g id="line2d_25">
    <g clip-path="url(#p96542b3c53)">
     <use xlink:href="#m93a9b6c11b" x="101.520784" y="29.376" style="fill: #ffffff; stroke: #808080; stroke-width: 0.5"/>
    </g>
   </g>
   <g id="line2d_26">
    <g clip-path="url(#p96542b3c53)">
     <use xlink:href="#m8b940c605c" x="105.543981" y="29.376" style="stroke: #808080; stroke-width: 0.5"/>
    </g>
   </g>
   <g id="line2d_27">
    <g clip-path="url(#p96542b3c53)">
     <use xlink:href="#m8b940c605c" x="109.567179" y="29.376" style="stroke: #808080; stroke-width: 0.5"/>
    </g>
   </g>
   <g id="line2d_28">
    <g clip-path="url(#p96542b3c53)">
     <use xlink:href="#m8b940c605c" x="113.590376" y="29.376" style="stroke: #808080; stroke-width: 0.5"/>
    </g>
   </g>
   <g id="line2d_29">
    <g clip-path="url(#p96542b3c53)">
     <use xlink:href="#m8b940c605c" x="117.613574" y="29.376" style="stroke: #808080; stroke-width: 0.5"/>
    </g>
   </g>
   <g id="line2d_30">
    <g clip-path="url(#p96542b3c53)">
     <use xlink:href="#m8b940c605c" x="121.636771" y="29.376" style="stroke: #808080; stroke-width: 0.5"/>
    </g>
   </g>
   <g id="line2d_31">
    <g clip-path="url(#p96542b3c53)">
     <use xlink:href="#m8b940c605c" x="125.659969" y="29.376" style="stroke: #808080; stroke-width: 0.5"/>
    </g>
   </g>
   <g id="line2d_32">
    <g clip-path="url(#p96542b3c53)">
     <use xlink:href="#m93a9b6c11b" x="129.683166" y="29.376" style="fill: #ffffff; stroke: #808080; stroke-width: 0.5"/>
    </g>
   </g>
   <g id="line2d_33">
    <g clip-path="url(#p96542b3c53)">
     <use xlink:href="#m8b940c605c" x="133.706364" y="29.376" style="stroke: #808080; stroke-width: 0.5"/>
    </g>
   </g>
   <g id="patch_3">
    <path d="M 11.2 51.552 
L 11.2 7.2 
" style="fill: none; stroke: #000000; stroke-width: 0.8; stroke-linejoin: miter; stroke-linecap: square"/>
   </g>
   <g id="patch_4">
    <path d="M 11.2 51.552 
L 139.54 51.552 
" style="fill: none; stroke: #000000; stroke-width: 0.8; stroke-linejoin: miter; stroke-linecap: square"/>
   </g>
  </g>
 </g>
 <defs>
  <clipPath id="p96542b3c53">
   <rect x="11.2" y="7.2" width="128.34" height="44.352"/>
  </clipPath>
 </defs>
</svg>
