<?xml version="1.0" encoding="utf-8" standalone="no"?>
<!DOCTYPE svg PUBLIC "-//W3C//DTD SVG 1.1//EN"
  "http://www.w3.org/Graphics/SVG/1.1/DTD/svg11.dtd">
<svg xmlns:xlink="http://www.w3.org/1999/xlink" width="143.97125pt" height="122.439062pt" viewBox="0 0 143.97125 122.439062" xmlns="http://www.w3.org/2000/svg" version="1.1">
 <metadata>
  <rdf:RDF xmlns:dc="http://purl.org/dc/elements/1.1/" xmlns:cc="http://creativecommons.org/ns#" xmlns:rdf="http://www.w3.org/1999/02/22-rdf-syntax-ns#">
   <cc:Work>
    <dc:type rdf:resource="http://purl.org/dc/dcmitype/StillImage"/>
    <dc:date>2026-04-22T01:26:53.199225</dc:date>
    <dc:format>image/svg+xml</dc:format>
    <dc:creator>
     <cc:Agent>
      <dc:title>Matplotlib v3.8.2, https://matplotlib.org/</dc:title>
     </cc:Agent>
    </dc:creator>
   </cc:Work>
  </rdf:RDF>
 </metadata>
 <defs>
  <style type="text/css">*{stroke-linejoin: round; stroke-linecap: butt}</style>
 </defs>
 <g id="figure_1">
  <g id="patch_1">
   <path d="M 0 122.439062 
L 143.97125 122.439062 
L 143.97125 0 
L 0 0 
z
" style="fill: #ffffff"/>
  </g>
  <g id="axes_1">
   <g id="patch_2">
    <path d="M 15.88125 104.9 
L 136.77125 104.9 
L 136.77125 7.2 
L 15.88125 7.2 
z
" style="fill: #ffffff"/>
   </g>
   <g id="matplotlib.axis_1">
    <g id="xtick_1">
     <g id="line2d_1">
      <defs>
       <path id="m1b61053c34" d="M 0 0 
L 0 2 
" style="stroke: #000000; stroke-width: 0.5"/>
      </defs>
      <g>
       <use xlink:href="#m1b61053c34" x="21.376072" y="104.9" style="stroke: #000000; stroke-width: 0.5"/>
      </g>
     </g>
     <g id="text_1">
      <!-- 0.0 -->
      <g transform="translate(17.40029 114.199219) scale(0.05 -0.05)">
       <defs>
        <path id="DejaVuSans-30" d="M 2034 4250 
Q 1547 4250 1301 3770 
Q 1056 3291 1056 2328 
Q 1056 1369 1301 889 
Q 1547 409 2034 409 
Q 2525 409 2770 889 
Q 3016 1369 3016 2328 
Q 3016 3291 2770 3770 
Q 2525 4250 2034 4250 
z
M 2034 4750 
Q 2819 4750 3233 4129 
Q 3647 3509 3647 2328 
Q 3647 1150 3233 529 
Q 2819 -91 2034 -91 
Q 1250 -91 836 529 
Q 422 1150 422 2328 
Q 422 3509 836 4129 
Q 1250 4750 2034 4750 
z
" transform="scale(0.015625)"/>
        <path id="DejaVuSans-2e" d="M 684 794 
L 1344 794 
L 1344 0 
L 684 0 
L 684 794 
z
" transform="scale(0.015625)"/>
       </defs>
       <use xlink:href="#DejaVuSans-30"/>
       <use xlink:href="#DejaVuSans-2e" x="63.623047"/>
       <use xlink:href="#DejaVuSans-30" x="95.410156"/>
      </g>
     </g>
    </g>
    <g id="xtick_2">
     <g id="line2d_2">
      <g>
       <use xlink:href="#m1b61053c34" x="43.370446" y="104.9" style="stroke: #000000; stroke-width: 0.5"/>
      </g>
     </g>
     <g id="text_2">
      <!-- 0.2 -->
      <g transform="translate(39.394665 114.199219) scale(0.05 -0.05)">
       <defs>
        <path id="DejaVuSans-32" d="M 1228 531 
L 3431 531 
L 3431 0 
L 469 0 
L 469 531 
Q 828 903 1448 1529 
Q 2069 2156 2228 2338 
Q 2531 2678 2651 2914 
Q 2772 3150 2772 3378 
Q 2772 3750 2511 3984 
Q 2250 4219 1831 4219 
Q 1534 4219 1204 4116 
Q 875 4013 500 3803 
L 500 4441 
Q 881 4594 1212 4672 
Q 1544 4750 1819 4750 
Q 2544 4750 2975 4387 
Q 3406 4025 3406 3419 
Q 3406 3131 3298 2873 
Q 3191 2616 2906 2266 
Q 2828 2175 2409 1742 
Q 1991 1309 1228 531 
z
" transform="scale(0.015625)"/>
       </defs>
       <use xlink:href="#DejaVuSans-30"/>
       <use xlink:href="#DejaVuSans-2e" x="63.623047"/>
       <use xlink:href="#DejaVuSans-32" x="95.410156"/>
      </g>
     </g>
    </g>
    <g id="xtick_3">
     <g id="line2d_3">
      <g>
       <use xlink:href="#m1b61053c34" x="65.36482" y="104.9" style="stroke: #000000; stroke-width: 0.5"/>
      </g>
     </g>
     <g id="text_3">
      <!-- 0.4 -->
      <g transform="translate(61.389039 114.199219) scale(0.05 -0.05)">
       <defs>
        <path id="DejaVuSans-34" d="M 2419 4116 
L 825 1625 
L 2419 1625 
L 2419 4116 
z
M 2253 4666 
L 3047 4666 
L 3047 1625 
L 3713 1625 
L 3713 1100 
L 3047 1100 
L 3047 0 
L 2419 0 
L 2419 1100 
L 313 1100 
L 313 1709 
L 2253 4666 
z
" transform="scale(0.015625)"/>
       </defs>
       <use xlink:href="#DejaVuSans-30"/>
       <use xlink:href="#DejaVuSans-2e" x="63.623047"/>
       <use xlink:href="#DejaVuSans-34" x="95.410156"/>
      </g>
     </g>
    </g>
    <g id="xtick_4">
     <g id="line2d_4">
      <g>
       <use xlink:href="#m1b61053c34" x="87.359194" y="104.9" style="stroke: #000000; stroke-width: 0.5"/>
      </g>
     </g>
     <g id="text_4">
      <!-- 0.6 -->
      <g transform="translate(83.383413 114.199219) scale(0.05 -0.05)">
       <defs>
        <path id="DejaVuSans-36" d="M 2113 2584 
Q 1688 2584 1439 2293 
Q 1191 2003 1191 1497 
Q 1191 994 1439 701 
Q 1688 409 2113 409 
Q 2538 409 2786 701 
Q 3034 994 3034 1497 
Q 3034 2003 2786 2293 
Q 2538 2584 2113 2584 
z
M 3366 4563 
L 3366 3988 
Q 3128 4100 2886 4159 
Q 2644 4219 2406 4219 
Q 1781 4219 1451 3797 
Q 1122 3375 1075 2522 
Q 1259 2794 1537 2939 
Q 1816 3084 2150 3084 
Q 2853 3084 3261 2657 
Q 3669 2231 3669 1497 
Q 3669 778 3244 343 
Q 2819 -91 2113 -91 
Q 1303 -91 875 529 
Q 447 1150 447 2328 
Q 447 3434 972 4092 
Q 1497 4750 2381 4750 
Q 2619 4750 2861 4703 
Q 3103 4656 3366 4563 
z
" transform="scale(0.015625)"/>
       </defs>
       <use xlink:href="#DejaVuSans-30"/>
       <use xlink:href="#DejaVuSans-2e" x="63.623047"/>
       <use xlink:href="#DejaVuSans-36" x="95.410156"/>
      </g>
     </g>
    </g>
    <g id="xtick_5">
     <g id="line2d_5">
      <g>
       <use xlink:href="#m1b61053c34" x="109.353568" y="104.9" style="stroke: #000000; stroke-width: 0.5"/>
      </g>
     </g>
     <g id="text_5">
      <!-- 0.8 -->
      <g transform="translate(105.377787 114.199219) scale(0.05 -0.05)">
       <defs>
        <path id="DejaVuSans-38" d="M 2034 2216 
Q 1584 2216 1326 1975 
Q 1069 1734 1069 1313 
Q 1069 891 1326 650 
Q 1584 409 2034 409 
Q 2484 409 2743 651 
Q 3003 894 3003 1313 
Q 3003 1734 2745 1975 
Q 2488 2216 2034 2216 
z
M 1403 2484 
Q 997 2584 770 2862 
Q 544 3141 544 3541 
Q 544 4100 942 4425 
Q 1341 4750 2034 4750 
Q 2731 4750 3128 4425 
Q 3525 4100 3525 3541 
Q 3525 3141 3298 2862 
Q 3072 2584 2669 2484 
Q 3125 2378 3379 2068 
Q 3634 1759 3634 1313 
Q 3634 634 3220 271 
Q 2806 -91 2034 -91 
Q 1263 -91 848 271 
Q 434 634 434 1313 
Q 434 1759 690 2068 
Q 947 2378 1403 2484 
z
M 1172 3481 
Q 1172 3119 1398 2916 
Q 1625 2713 2034 2713 
Q 2441 2713 2670 2916 
Q 2900 3119 2900 3481 
Q 2900 3844 2670 4047 
Q 2441 4250 2034 4250 
Q 1625 4250 1398 4047 
Q 1172 3844 1172 3481 
z
" transform="scale(0.015625)"/>
       </defs>
       <use xlink:href="#DejaVuSans-30"/>
       <use xlink:href="#DejaVuSans-2e" x="63.623047"/>
       <use xlink:href="#DejaVuSans-38" x="95.410156"/>
      </g>
     </g>
    </g>
    <g id="xtick_6">
     <g id="line2d_6">
      <g>
       <use xlink:href="#m1b61053c34" x="131.347942" y="104.9" style="stroke: #000000; stroke-width: 0.5"/>
      </g>
     </g>
     <g id="text_6">
      <!-- 1.0 -->
      <g transform="translate(127.372161 114.199219) scale(0.05 -0.05)">
       <defs>
        <path id="DejaVuSans-31" d="M 794 531 
L 1825 531 
L 1825 4091 
L 703 3866 
L 703 4441 
L 1819 4666 
L 2450 4666 
L 2450 531 
L 3481 531 
L 3481 0 
L 794 0 
L 794 531 
z
" transform="scale(0.015625)"/>
       </defs>
       <use xlink:href="#DejaVuSans-31"/>
       <use xlink:href="#DejaVuSans-2e" x="63.623047"/>
       <use xlink:href="#DejaVuSans-30" x="95.410156"/>
      </g>
     </g>
    </g>
   </g>
   <g id="matplotlib.axis_2">
    <g id="ytick_1">
     <g id="line2d_7">
      <defs>
       <path id="mfbbc119bb5" d="M 0 0 
L -2 0 
" style="stroke: #000000; stroke-width: 0.5"/>
      </defs>
      <g>
       <use xlink:href="#mfbbc119bb5" x="15.88125" y="99.757895" style="stroke: #000000; stroke-width: 0.5"/>
      </g>
     </g>
     <g id="text_7">
      <!-- 0 -->
      <g transform="translate(7.2 101.657504) scale(0.05 -0.05)">
       <use xlink:href="#DejaVuSans-30"/>
      </g>
     </g>
    </g>
    <g id="ytick_2">
     <g id="line2d_8">
      <g>
       <use xlink:href="#mfbbc119bb5" x="15.88125" y="79.189474" style="stroke: #000000; stroke-width: 0.5"/>
      </g>
     </g>
     <g id="text_8">
      <!-- 2 -->
      <g transform="translate(7.2 81.089083) scale(0.05 -0.05)">
       <use xlink:href="#DejaVuSans-32"/>
      </g>
     </g>
    </g>
    <g id="ytick_3">
     <g id="line2d_9">
      <g>
       <use xlink:href="#mfbbc119bb5" x="15.88125" y="58.621053" style="stroke: #000000; stroke-width: 0.5"/>
      </g>
     </g>
     <g id="text_9">
      <!-- 4 -->
      <g transform="translate(7.2 60.520662) scale(0.05 -0.05)">
       <use xlink:href="#DejaVuSans-34"/>
      </g>
     </g>
    </g>
    <g id="ytick_4">
     <g id="line2d_10">
      <g>
       <use xlink:href="#mfbbc119bb5" x="15.88125" y="38.052632" style="stroke: #000000; stroke-width: 0.5"/>
      </g>
     </g>
     <g id="text_10">
      <!-- 6 -->
      <g transform="translate(7.2 39.952241) scale(0.05 -0.05)">
       <use xlink:href="#DejaVuSans-36"/>
      </g>
     </g>
    </g>
    <g id="ytick_5">
     <g id="line2d_11">
      <g>
       <use xlink:href="#mfbbc119bb5" x="15.88125" y="17.484211" style="stroke: #000000; stroke-width: 0.5"/>
      </g>
     </g>
     <g id="text_11">
      <!-- 8 -->
      <g transform="translate(7.2 19.38382) scale(0.05 -0.05)">
       <use xlink:href="#DejaVuSans-38"/>
      </g>
     </g>
    </g>
   </g>
   <g id="line2d_12">
    <path d="M 21.376477 99.706474 
L 21.507365 98.832316 
L 21.871226 97.958158 
L 22.506496 97.032579 
L 23.448583 96.055579 
L 24.801037 94.975737 
L 26.722892 93.741632 
L 29.323352 92.353263 
L 32.811002 90.759211 
L 37.550796 88.856632 
L 44.082333 86.491263 
L 55.349667 82.686105 
L 70.287944 77.595421 
L 78.346512 74.613 
L 84.81891 71.990526 
L 90.33477 69.522316 
L 95.088235 67.156947 
L 99.246814 64.843 
L 102.867107 62.580474 
L 106.07727 60.317947 
L 108.911508 58.055421 
L 111.458307 55.741474 
L 113.732718 53.376105 
L 115.752562 50.959316 
L 117.571846 48.439684 
L 119.225597 45.765789 
L 120.709598 42.937632 
L 122.046277 39.903789 
L 123.248618 36.612842 
L 124.323633 33.013368 
L 125.286411 29.002526 
L 126.150576 24.426053 
L 126.917236 19.129684 
L 127.5928 12.856316 
L 128.184967 5.194579 
L 128.537231 -1 
L 128.537231 -1 
" clip-path="url(#p4a2094aaec)" style="fill: none; stroke: #000000; stroke-width: 0.8; stroke-linecap: square"/>
   </g>
   <g id="line2d_13">
    <path d="M 21.37625 99.706474 
L 21.496529 98.420947 
L 21.838546 97.135421 
L 22.426361 95.798474 
L 23.281641 94.410105 
L 24.468827 92.918895 
L 26.031064 91.324842 
L 28.070584 89.576526 
L 30.644571 87.673947 
L 33.879089 85.565684 
L 38.004725 83.148895 
L 43.474827 80.217895 
L 51.182584 76.361316 
L 75.554446 64.328789 
L 82.374508 60.626474 
L 88.077308 57.284105 
L 93.002774 54.147421 
L 97.362914 51.113579 
L 101.264365 48.131158 
L 104.737512 45.200158 
L 107.869034 42.269158 
L 110.678961 39.338158 
L 113.231149 36.355737 
L 115.534948 33.321895 
L 117.602284 30.236632 
L 119.503369 26.997105 
L 121.206449 23.654737 
L 122.740276 20.158105 
L 124.140962 16.404368 
L 125.395739 12.393526 
L 126.51084 8.074158 
L 127.499032 3.343421 
L 128.230134 -1 
L 128.230134 -1 
" clip-path="url(#p4a2094aaec)" style="fill: none; stroke-dasharray: 2.96,1.28; stroke-dashoffset: 0; stroke: #000000; stroke-width: 0.8"/>
   </g>
   <g id="line2d_14">
    <defs>
     <path id="mdf5eb3280a" d="M 0 1.5 
C 0.397805 1.5 0.77937 1.341951 1.06066 1.06066 
C 1.341951 0.77937 1.5 0.397805 1.5 0 
C 1.5 -0.397805 1.341951 -0.77937 1.06066 -1.06066 
C 0.77937 -1.341951 0.397805 -1.5 0 -1.5 
C -0.397805 -1.5 -0.77937 -1.341951 -1.06066 -1.06066 
C -1.341951 -0.77937 -1.5 -0.397805 -1.5 0 
C -1.5 0.397805 -1.341951 0.77937 -1.06066 1.06066 
C -0.77937 1.341951 -0.397805 1.5 0 1.5 
z
"/>
    </defs>
    <g clip-path="url(#p4a2094aaec)">
     <use xlink:href="#mdf5eb3280a" x="107.530491" y="58.907319" style="fill: #298c8c; fill-opacity: 0.7"/>
    </g>
   </g>
   <g id="line2d_15">
    <g clip-path="url(#p4a2094aaec)">
     <use xlink:href="#mdf5eb3280a" x="117.990177" y="50.422898" style="fill: #298c8c; fill-opacity: 0.7"/>
    </g>
   </g>
   <g id="line2d_16">
    <g clip-path="url(#p4a2094aaec)">
     <use xlink:href="#mdf5eb3280a" x="110.403325" y="42.664507" style="fill: #298c8c; fill-opacity: 0.7"/>
    </g>
   </g>
   <g id="line2d_17">
    <defs>
     <path id="mcb375e3275" d="M 0 1.5 
C 0.397805 1.5 0.77937 1.341951 1.06066 1.06066 
C 1.341951 0.77937 1.5 0.397805 1.5 0 
C 1.5 -0.397805 1.341951 -0.77937 1.06066 -1.06066 
C 0.77937 -1.341951 0.397805 -1.5 0 -1.5 
C -0.397805 -1.5 -0.77937 -1.341951 -1.06066 -1.06066 
C -1.341951 -0.77937 -1.5 -0.397805 -1.5 0 
C -1.5 0.397805 -1.341951 0.77937 -1.06066 1.06066 
C -0.77937 1.341951 -0.397805 1.5 0 1.5 
z
"/>
    </defs>
    <g clip-path="url(#p4a2094aaec)">
     <use xlink:href="#mcb375e3275" x="60.606804" y="70.116544" style="fill: #a00000; fill-opacity: 0.7"/>
    </g>
   </g>
   <g id="line2d_18">
    <defs>
     <path id="m3219c34005" d="M 0 1.5 
C 0.397805 1.5 0.77937 1.341951 1.06066 1.06066 
C 1.341951 0.77937 1.5 0.397805 1.5 0 
C 1.5 -0.397805 1.341951 -0.77937 1.06066 -1.06066 
C 0.77937 -1.341951 0.397805 -1.5 0 -1.5 
C -0.397805 -1.5 -0.77937 -1.341951 -1.06066 -1.06066 
C -1.341951 -0.77937 -1.5 -0.397805 -1.5 0 
C -1.5 0.397805 -1.341951 0.77937 -1.06066 1.06066 
C -0.77937 1.341951 -0.397805 1.5 0 1.5 
z
"/>
    </defs>
    <g clip-path="url(#p4a2094aaec)">
     <use xlink:href="#m3219c34005" x="100.184521" y="39.177905" style="fill: #ffa500; fill-opacity: 0.7"/>
    </g>
   </g>
   <g id="line2d_19">
    <g clip-path="url(#p4a2094aaec)">
     <use xlink:href="#mdf5eb3280a" x="112.071557" y="51.453009" style="fill: #298c8c; fill-opacity: 0.7"/>
    </g>
   </g>
   <g id="line2d_20">
    <g clip-path="url(#p4a2094aaec)">
     <use xlink:href="#mdf5eb3280a" x="59.215034" y="82.002703" style="fill: #298c8c; fill-opacity: 0.7"/>
    </g>
   </g>
   <g id="line2d_21">
    <g clip-path="url(#p4a2094aaec)">
     <use xlink:href="#m3219c34005" x="29.285422" y="91.168848" style="fill: #ffa500; fill-opacity: 0.7"/>
    </g>
   </g>
   <g id="line2d_22">
    <g clip-path="url(#p4a2094aaec)">
     <use xlink:href="#mdf5eb3280a" x="83.03603" y="61.923911" style="fill: #298c8c; fill-opacity: 0.7"/>
    </g>
   </g>
   <g id="line2d_23">
    <g clip-path="url(#p4a2094aaec)"/>
   </g>
   <g id="line2d_24">
    <g clip-path="url(#p4a2094aaec)">
     <use xlink:href="#mcb375e3275" x="50.823701" y="75.203056" style="fill: #a00000; fill-opacity: 0.7"/>
    </g>
   </g>
   <g id="line2d_25">
    <g clip-path="url(#p4a2094aaec)">
     <use xlink:href="#mdf5eb3280a" x="89.140092" y="62.169546" style="fill: #298c8c; fill-opacity: 0.7"/>
    </g>
   </g>
   <g id="line2d_26">
    <g clip-path="url(#p4a2094aaec)">
     <use xlink:href="#mdf5eb3280a" x="105.666729" y="65.977829" style="fill: #298c8c; fill-opacity: 0.7"/>
    </g>
   </g>
   <g id="line2d_27">
    <g clip-path="url(#p4a2094aaec)">
     <use xlink:href="#mdf5eb3280a" x="113.29857" y="45.940419" style="fill: #298c8c; fill-opacity: 0.7"/>
    </g>
   </g>
   <g id="line2d_28">
    <g clip-path="url(#p4a2094aaec)">
     <use xlink:href="#mcb375e3275" x="99.37659" y="51.967851" style="fill: #a00000; fill-opacity: 0.7"/>
    </g>
   </g>
   <g id="line2d_29">
    <g clip-path="url(#p4a2094aaec)">
     <use xlink:href="#mdf5eb3280a" x="81.933156" y="67.631537" style="fill: #298c8c; fill-opacity: 0.7"/>
    </g>
   </g>
   <g id="line2d_30">
    <g clip-path="url(#p4a2094aaec)">
     <use xlink:href="#mdf5eb3280a" x="107.429258" y="62.355642" style="fill: #298c8c; fill-opacity: 0.7"/>
    </g>
   </g>
   <g id="line2d_31">
    <g clip-path="url(#p4a2094aaec)">
     <use xlink:href="#mcb375e3275" x="97.11444" y="52.017042" style="fill: #a00000; fill-opacity: 0.7"/>
    </g>
   </g>
   <g id="line2d_32">
    <g clip-path="url(#p4a2094aaec)">
     <use xlink:href="#mdf5eb3280a" x="108.257622" y="41.577398" style="fill: #298c8c; fill-opacity: 0.7"/>
    </g>
   </g>
   <g id="line2d_33">
    <g clip-path="url(#p4a2094aaec)">
     <use xlink:href="#mdf5eb3280a" x="96.249855" y="67.328866" style="fill: #298c8c; fill-opacity: 0.7"/>
    </g>
   </g>
   <g id="line2d_34">
    <g clip-path="url(#p4a2094aaec)">
     <use xlink:href="#mdf5eb3280a" x="80.241429" y="67.909977" style="fill: #298c8c; fill-opacity: 0.7"/>
    </g>
   </g>
   <g id="line2d_35">
    <g clip-path="url(#p4a2094aaec)">
     <use xlink:href="#mdf5eb3280a" x="119.836265" y="49.308879" style="fill: #298c8c; fill-opacity: 0.7"/>
    </g>
   </g>
   <g id="line2d_36">
    <g clip-path="url(#p4a2094aaec)">
     <use xlink:href="#m3219c34005" x="98.394122" y="37.66647" style="fill: #ffa500; fill-opacity: 0.7"/>
    </g>
   </g>
   <g id="line2d_37">
    <g clip-path="url(#p4a2094aaec)">
     <use xlink:href="#mdf5eb3280a" x="112.099713" y="51.173362" style="fill: #298c8c; fill-opacity: 0.7"/>
    </g>
   </g>
   <g id="line2d_38">
    <g clip-path="url(#p4a2094aaec)">
     <use xlink:href="#mdf5eb3280a" x="78.439684" y="75.382387" style="fill: #298c8c; fill-opacity: 0.7"/>
    </g>
   </g>
   <g id="line2d_39">
    <g clip-path="url(#p4a2094aaec)">
     <use xlink:href="#mdf5eb3280a" x="109.215653" y="61.335714" style="fill: #298c8c; fill-opacity: 0.7"/>
    </g>
   </g>
   <g id="line2d_40">
    <g clip-path="url(#p4a2094aaec)">
     <use xlink:href="#mdf5eb3280a" x="99.781357" y="56.832986" style="fill: #298c8c; fill-opacity: 0.7"/>
    </g>
   </g>
   <g id="line2d_41">
    <g clip-path="url(#p4a2094aaec)">
     <use xlink:href="#mdf5eb3280a" x="111.126274" y="58.217777" style="fill: #298c8c; fill-opacity: 0.7"/>
    </g>
   </g>
   <g id="line2d_42">
    <g clip-path="url(#p4a2094aaec)">
     <use xlink:href="#mdf5eb3280a" x="44.39388" y="85.378073" style="fill: #298c8c; fill-opacity: 0.7"/>
    </g>
   </g>
   <g id="line2d_43">
    <g clip-path="url(#p4a2094aaec)"/>
   </g>
   <g id="line2d_44">
    <g clip-path="url(#p4a2094aaec)">
     <use xlink:href="#m3219c34005" x="88.396611" y="67.869724" style="fill: #ffa500; fill-opacity: 0.7"/>
    </g>
   </g>
   <g id="line2d_45">
    <g clip-path="url(#p4a2094aaec)">
     <use xlink:href="#mdf5eb3280a" x="118.900048" y="43.831674" style="fill: #298c8c; fill-opacity: 0.7"/>
    </g>
   </g>
   <g id="line2d_46">
    <g clip-path="url(#p4a2094aaec)">
     <use xlink:href="#m3219c34005" x="91.953816" y="54.18576" style="fill: #ffa500; fill-opacity: 0.7"/>
    </g>
   </g>
   <g id="line2d_47">
    <g clip-path="url(#p4a2094aaec)">
     <use xlink:href="#mdf5eb3280a" x="120.041273" y="43.030048" style="fill: #298c8c; fill-opacity: 0.7"/>
    </g>
   </g>
   <g id="line2d_48">
    <g clip-path="url(#p4a2094aaec)">
     <use xlink:href="#mdf5eb3280a" x="110.086581" y="56.839298" style="fill: #298c8c; fill-opacity: 0.7"/>
    </g>
   </g>
   <g id="line2d_49">
    <g clip-path="url(#p4a2094aaec)">
     <use xlink:href="#mdf5eb3280a" x="112.200859" y="56.803543" style="fill: #298c8c; fill-opacity: 0.7"/>
    </g>
   </g>
   <g id="line2d_50">
    <g clip-path="url(#p4a2094aaec)">
     <use xlink:href="#mdf5eb3280a" x="93.104526" y="68.849547" style="fill: #298c8c; fill-opacity: 0.7"/>
    </g>
   </g>
   <g id="line2d_51">
    <g clip-path="url(#p4a2094aaec)">
     <use xlink:href="#mcb375e3275" x="99.114306" y="43.171269" style="fill: #a00000; fill-opacity: 0.7"/>
    </g>
   </g>
   <g id="line2d_52">
    <g clip-path="url(#p4a2094aaec)">
     <use xlink:href="#mdf5eb3280a" x="115.758938" y="30.584854" style="fill: #298c8c; fill-opacity: 0.7"/>
    </g>
   </g>
   <g id="line2d_53">
    <g clip-path="url(#p4a2094aaec)">
     <use xlink:href="#mdf5eb3280a" x="96.170293" y="59.661506" style="fill: #298c8c; fill-opacity: 0.7"/>
    </g>
   </g>
   <g id="line2d_54">
    <g clip-path="url(#p4a2094aaec)"/>
   </g>
   <g id="line2d_55">
    <g clip-path="url(#p4a2094aaec)">
     <use xlink:href="#mdf5eb3280a" x="115.997196" y="52.533428" style="fill: #298c8c; fill-opacity: 0.7"/>
    </g>
   </g>
   <g id="line2d_56">
    <g clip-path="url(#p4a2094aaec)">
     <use xlink:href="#mdf5eb3280a" x="118.867324" y="39.834934" style="fill: #298c8c; fill-opacity: 0.7"/>
    </g>
   </g>
   <g id="line2d_57">
    <g clip-path="url(#p4a2094aaec)">
     <use xlink:href="#m3219c34005" x="74.929299" y="64.057859" style="fill: #ffa500; fill-opacity: 0.7"/>
    </g>
   </g>
   <g id="line2d_58">
    <g clip-path="url(#p4a2094aaec)">
     <use xlink:href="#mdf5eb3280a" x="114.630817" y="52.283929" style="fill: #298c8c; fill-opacity: 0.7"/>
    </g>
   </g>
   <g id="line2d_59">
    <g clip-path="url(#p4a2094aaec)">
     <use xlink:href="#mdf5eb3280a" x="116.728233" y="55.660579" style="fill: #298c8c; fill-opacity: 0.7"/>
    </g>
   </g>
   <g id="line2d_60">
    <g clip-path="url(#p4a2094aaec)">
     <use xlink:href="#m3219c34005" x="82.30482" y="62.565892" style="fill: #ffa500; fill-opacity: 0.7"/>
    </g>
   </g>
   <g id="line2d_61">
    <g clip-path="url(#p4a2094aaec)">
     <use xlink:href="#mdf5eb3280a" x="110.016109" y="47.962493" style="fill: #298c8c; fill-opacity: 0.7"/>
    </g>
   </g>
   <g id="line2d_62">
    <g clip-path="url(#p4a2094aaec)">
     <use xlink:href="#mdf5eb3280a" x="101.427286" y="61.598945" style="fill: #298c8c; fill-opacity: 0.7"/>
    </g>
   </g>
   <g id="line2d_63">
    <g clip-path="url(#p4a2094aaec)">
     <use xlink:href="#mdf5eb3280a" x="119.147031" y="47.343884" style="fill: #298c8c; fill-opacity: 0.7"/>
    </g>
   </g>
   <g id="line2d_64">
    <g clip-path="url(#p4a2094aaec)">
     <use xlink:href="#mcb375e3275" x="110.783632" y="34.966536" style="fill: #a00000; fill-opacity: 0.7"/>
    </g>
   </g>
   <g id="line2d_65">
    <g clip-path="url(#p4a2094aaec)">
     <use xlink:href="#mdf5eb3280a" x="115.260723" y="51.917014" style="fill: #298c8c; fill-opacity: 0.7"/>
    </g>
   </g>
   <g id="line2d_66">
    <g clip-path="url(#p4a2094aaec)">
     <use xlink:href="#mdf5eb3280a" x="115.810368" y="36.916146" style="fill: #298c8c; fill-opacity: 0.7"/>
    </g>
   </g>
   <g id="line2d_67">
    <g clip-path="url(#p4a2094aaec)">
     <use xlink:href="#mdf5eb3280a" x="62.006017" y="83.591647" style="fill: #298c8c; fill-opacity: 0.7"/>
    </g>
   </g>
   <g id="line2d_68">
    <g clip-path="url(#p4a2094aaec)">
     <use xlink:href="#mdf5eb3280a" x="104.405567" y="58.684431" style="fill: #298c8c; fill-opacity: 0.7"/>
    </g>
   </g>
   <g id="line2d_69">
    <g clip-path="url(#p4a2094aaec)">
     <use xlink:href="#mcb375e3275" x="103.394245" y="45.946627" style="fill: #a00000; fill-opacity: 0.7"/>
    </g>
   </g>
   <g id="line2d_70">
    <g clip-path="url(#p4a2094aaec)">
     <use xlink:href="#mdf5eb3280a" x="116.636768" y="19.653913" style="fill: #298c8c; fill-opacity: 0.7"/>
    </g>
   </g>
   <g id="line2d_71">
    <g clip-path="url(#p4a2094aaec)">
     <use xlink:href="#mdf5eb3280a" x="117.887572" y="47.036781" style="fill: #298c8c; fill-opacity: 0.7"/>
    </g>
   </g>
   <g id="line2d_72">
    <g clip-path="url(#p4a2094aaec)">
     <use xlink:href="#mcb375e3275" x="96.56135" y="50.252574" style="fill: #a00000; fill-opacity: 0.7"/>
    </g>
   </g>
   <g id="line2d_73">
    <g clip-path="url(#p4a2094aaec)">
     <use xlink:href="#mdf5eb3280a" x="115.832168" y="53.526031" style="fill: #298c8c; fill-opacity: 0.7"/>
    </g>
   </g>
   <g id="line2d_74">
    <g clip-path="url(#p4a2094aaec)">
     <use xlink:href="#mdf5eb3280a" x="85.545096" y="64.097201" style="fill: #298c8c; fill-opacity: 0.7"/>
    </g>
   </g>
   <g id="line2d_75">
    <g clip-path="url(#p4a2094aaec)">
     <use xlink:href="#mdf5eb3280a" x="116.549417" y="49.798995" style="fill: #298c8c; fill-opacity: 0.7"/>
    </g>
   </g>
   <g id="line2d_76">
    <g clip-path="url(#p4a2094aaec)">
     <use xlink:href="#mdf5eb3280a" x="114.790646" y="50.717556" style="fill: #298c8c; fill-opacity: 0.7"/>
    </g>
   </g>
   <g id="line2d_77">
    <g clip-path="url(#p4a2094aaec)">
     <use xlink:href="#m3219c34005" x="63.955654" y="74.637665" style="fill: #ffa500; fill-opacity: 0.7"/>
    </g>
   </g>
   <g id="patch_3">
    <path d="M 15.88125 104.9 
L 15.88125 7.2 
" style="fill: none; stroke: #000000; stroke-width: 0.5; stroke-linejoin: miter; stroke-linecap: square"/>
   </g>
   <g id="patch_4">
    <path d="M 15.88125 104.9 
L 136.77125 104.9 
" style="fill: none; stroke: #000000; stroke-width: 0.5; stroke-linejoin: miter; stroke-linecap: square"/>
   </g>
   <g id="legend_1">
    <g id="line2d_78">
     <g>
      <use xlink:href="#mdf5eb3280a" x="25.38125" y="13.749219" style="fill: #298c8c; fill-opacity: 0.7"/>
     </g>
    </g>
    <g id="text_12">
     <!-- On full bound -->
     <g transform="translate(34.38125 15.499219) scale(0.05 -0.05)">
      <defs>
       <path id="DejaVuSans-4f" d="M 2522 4238 
Q 1834 4238 1429 3725 
Q 1025 3213 1025 2328 
Q 1025 1447 1429 934 
Q 1834 422 2522 422 
Q 3209 422 3611 934 
Q 4013 1447 4013 2328 
Q 4013 3213 3611 3725 
Q 3209 4238 2522 4238 
z
M 2522 4750 
Q 3503 4750 4090 4092 
Q 4678 3434 4678 2328 
Q 4678 1225 4090 567 
Q 3503 -91 2522 -91 
Q 1538 -91 948 565 
Q 359 1222 359 2328 
Q 359 3434 948 4092 
Q 1538 4750 2522 4750 
z
" transform="scale(0.015625)"/>
       <path id="DejaVuSans-6e" d="M 3513 2113 
L 3513 0 
L 2938 0 
L 2938 2094 
Q 2938 2591 2744 2837 
Q 2550 3084 2163 3084 
Q 1697 3084 1428 2787 
Q 1159 2491 1159 1978 
L 1159 0 
L 581 0 
L 581 3500 
L 1159 3500 
L 1159 2956 
Q 1366 3272 1645 3428 
Q 1925 3584 2291 3584 
Q 2894 3584 3203 3211 
Q 3513 2838 3513 2113 
z
" transform="scale(0.015625)"/>
       <path id="DejaVuSans-20" transform="scale(0.015625)"/>
       <path id="DejaVuSans-66" d="M 2375 4863 
L 2375 4384 
L 1825 4384 
Q 1516 4384 1395 4259 
Q 1275 4134 1275 3809 
L 1275 3500 
L 2222 3500 
L 2222 3053 
L 1275 3053 
L 1275 0 
L 697 0 
L 697 3053 
L 147 3053 
L 147 3500 
L 697 3500 
L 697 3744 
Q 697 4328 969 4595 
Q 1241 4863 1831 4863 
L 2375 4863 
z
" transform="scale(0.015625)"/>
       <path id="DejaVuSans-75" d="M 544 1381 
L 544 3500 
L 1119 3500 
L 1119 1403 
Q 1119 906 1312 657 
Q 1506 409 1894 409 
Q 2359 409 2629 706 
Q 2900 1003 2900 1516 
L 2900 3500 
L 3475 3500 
L 3475 0 
L 2900 0 
L 2900 538 
Q 2691 219 2414 64 
Q 2138 -91 1772 -91 
Q 1169 -91 856 284 
Q 544 659 544 1381 
z
M 1991 3584 
L 1991 3584 
z
" transform="scale(0.015625)"/>
       <path id="DejaVuSans-6c" d="M 603 4863 
L 1178 4863 
L 1178 0 
L 603 0 
L 603 4863 
z
" transform="scale(0.015625)"/>
       <path id="DejaVuSans-62" d="M 3116 1747 
Q 3116 2381 2855 2742 
Q 2594 3103 2138 3103 
Q 1681 3103 1420 2742 
Q 1159 2381 1159 1747 
Q 1159 1113 1420 752 
Q 1681 391 2138 391 
Q 2594 391 2855 752 
Q 3116 1113 3116 1747 
z
M 1159 2969 
Q 1341 3281 1617 3432 
Q 1894 3584 2278 3584 
Q 2916 3584 3314 3078 
Q 3713 2572 3713 1747 
Q 3713 922 3314 415 
Q 2916 -91 2278 -91 
Q 1894 -91 1617 61 
Q 1341 213 1159 525 
L 1159 0 
L 581 0 
L 581 4863 
L 1159 4863 
L 1159 2969 
z
" transform="scale(0.015625)"/>
       <path id="DejaVuSans-6f" d="M 1959 3097 
Q 1497 3097 1228 2736 
Q 959 2375 959 1747 
Q 959 1119 1226 758 
Q 1494 397 1959 397 
Q 2419 397 2687 759 
Q 2956 1122 2956 1747 
Q 2956 2369 2687 2733 
Q 2419 3097 1959 3097 
z
M 1959 3584 
Q 2709 3584 3137 3096 
Q 3566 2609 3566 1747 
Q 3566 888 3137 398 
Q 2709 -91 1959 -91 
Q 1206 -91 779 398 
Q 353 888 353 1747 
Q 353 2609 779 3096 
Q 1206 3584 1959 3584 
z
" transform="scale(0.015625)"/>
       <path id="DejaVuSans-64" d="M 2906 2969 
L 2906 4863 
L 3481 4863 
L 3481 0 
L 2906 0 
L 2906 525 
Q 2725 213 2448 61 
Q 2172 -91 1784 -91 
Q 1150 -91 751 415 
Q 353 922 353 1747 
Q 353 2572 751 3078 
Q 1150 3584 1784 3584 
Q 2172 3584 2448 3432 
Q 2725 3281 2906 2969 
z
M 947 1747 
Q 947 1113 1208 752 
Q 1469 391 1925 391 
Q 2381 391 2643 752 
Q 2906 1113 2906 1747 
Q 2906 2381 2643 2742 
Q 2381 3103 1925 3103 
Q 1469 3103 1208 2742 
Q 947 2381 947 1747 
z
" transform="scale(0.015625)"/>
      </defs>
      <use xlink:href="#DejaVuSans-4f"/>
      <use xlink:href="#DejaVuSans-6e" x="78.710938"/>
      <use xlink:href="#DejaVuSans-20" x="142.089844"/>
      <use xlink:href="#DejaVuSans-66" x="173.876953"/>
      <use xlink:href="#DejaVuSans-75" x="209.082031"/>
      <use xlink:href="#DejaVuSans-6c" x="272.460938"/>
      <use xlink:href="#DejaVuSans-6c" x="300.244141"/>
      <use xlink:href="#DejaVuSans-20" x="328.027344"/>
      <use xlink:href="#DejaVuSans-62" x="359.814453"/>
      <use xlink:href="#DejaVuSans-6f" x="423.291016"/>
      <use xlink:href="#DejaVuSans-75" x="484.472656"/>
      <use xlink:href="#DejaVuSans-6e" x="547.851562"/>
      <use xlink:href="#DejaVuSans-64" x="611.230469"/>
     </g>
    </g>
    <g id="line2d_79">
     <g>
      <use xlink:href="#mcb375e3275" x="25.38125" y="21.088281" style="fill: #a00000; fill-opacity: 0.7"/>
     </g>
    </g>
    <g id="text_13">
     <!-- On heuristic bound -->
     <g transform="translate(34.38125 22.838281) scale(0.05 -0.05)">
      <defs>
       <path id="DejaVuSans-68" d="M 3513 2113 
L 3513 0 
L 2938 0 
L 2938 2094 
Q 2938 2591 2744 2837 
Q 2550 3084 2163 3084 
Q 1697 3084 1428 2787 
Q 1159 2491 1159 1978 
L 1159 0 
L 581 0 
L 581 4863 
L 1159 4863 
L 1159 2956 
Q 1366 3272 1645 3428 
Q 1925 3584 2291 3584 
Q 2894 3584 3203 3211 
Q 3513 2838 3513 2113 
z
" transform="scale(0.015625)"/>
       <path id="DejaVuSans-65" d="M 3597 1894 
L 3597 1613 
L 953 1613 
Q 991 1019 1311 708 
Q 1631 397 2203 397 
Q 2534 397 2845 478 
Q 3156 559 3463 722 
L 3463 178 
Q 3153 47 2828 -22 
Q 2503 -91 2169 -91 
Q 1331 -91 842 396 
Q 353 884 353 1716 
Q 353 2575 817 3079 
Q 1281 3584 2069 3584 
Q 2775 3584 3186 3129 
Q 3597 2675 3597 1894 
z
M 3022 2063 
Q 3016 2534 2758 2815 
Q 2500 3097 2075 3097 
Q 1594 3097 1305 2825 
Q 1016 2553 972 2059 
L 3022 2063 
z
" transform="scale(0.015625)"/>
       <path id="DejaVuSans-72" d="M 2631 2963 
Q 2534 3019 2420 3045 
Q 2306 3072 2169 3072 
Q 1681 3072 1420 2755 
Q 1159 2438 1159 1844 
L 1159 0 
L 581 0 
L 581 3500 
L 1159 3500 
L 1159 2956 
Q 1341 3275 1631 3429 
Q 1922 3584 2338 3584 
Q 2397 3584 2469 3576 
Q 2541 3569 2628 3553 
L 2631 2963 
z
" transform="scale(0.015625)"/>
       <path id="DejaVuSans-69" d="M 603 3500 
L 1178 3500 
L 1178 0 
L 603 0 
L 603 3500 
z
M 603 4863 
L 1178 4863 
L 1178 4134 
L 603 4134 
L 603 4863 
z
" transform="scale(0.015625)"/>
       <path id="DejaVuSans-73" d="M 2834 3397 
L 2834 2853 
Q 2591 2978 2328 3040 
Q 2066 3103 1784 3103 
Q 1356 3103 1142 2972 
Q 928 2841 928 2578 
Q 928 2378 1081 2264 
Q 1234 2150 1697 2047 
L 1894 2003 
Q 2506 1872 2764 1633 
Q 3022 1394 3022 966 
Q 3022 478 2636 193 
Q 2250 -91 1575 -91 
Q 1294 -91 989 -36 
Q 684 19 347 128 
L 347 722 
Q 666 556 975 473 
Q 1284 391 1588 391 
Q 1994 391 2212 530 
Q 2431 669 2431 922 
Q 2431 1156 2273 1281 
Q 2116 1406 1581 1522 
L 1381 1569 
Q 847 1681 609 1914 
Q 372 2147 372 2553 
Q 372 3047 722 3315 
Q 1072 3584 1716 3584 
Q 2034 3584 2315 3537 
Q 2597 3491 2834 3397 
z
" transform="scale(0.015625)"/>
       <path id="DejaVuSans-74" d="M 1172 4494 
L 1172 3500 
L 2356 3500 
L 2356 3053 
L 1172 3053 
L 1172 1153 
Q 1172 725 1289 603 
Q 1406 481 1766 481 
L 2356 481 
L 2356 0 
L 1766 0 
Q 1100 0 847 248 
Q 594 497 594 1153 
L 594 3053 
L 172 3053 
L 172 3500 
L 594 3500 
L 594 4494 
L 1172 4494 
z
" transform="scale(0.015625)"/>
       <path id="DejaVuSans-63" d="M 3122 3366 
L 3122 2828 
Q 2878 2963 2633 3030 
Q 2388 3097 2138 3097 
Q 1578 3097 1268 2742 
Q 959 2388 959 1747 
Q 959 1106 1268 751 
Q 1578 397 2138 397 
Q 2388 397 2633 464 
Q 2878 531 3122 666 
L 3122 134 
Q 2881 22 2623 -34 
Q 2366 -91 2075 -91 
Q 1284 -91 818 406 
Q 353 903 353 1747 
Q 353 2603 823 3093 
Q 1294 3584 2113 3584 
Q 2378 3584 2631 3529 
Q 2884 3475 3122 3366 
z
" transform="scale(0.015625)"/>
      </defs>
      <use xlink:href="#DejaVuSans-4f"/>
      <use xlink:href="#DejaVuSans-6e" x="78.710938"/>
      <use xlink:href="#DejaVuSans-20" x="142.089844"/>
      <use xlink:href="#DejaVuSans-68" x="173.876953"/>
      <use xlink:href="#DejaVuSans-65" x="237.255859"/>
      <use xlink:href="#DejaVuSans-75" x="298.779297"/>
      <use xlink:href="#DejaVuSans-72" x="362.158203"/>
      <use xlink:href="#DejaVuSans-69" x="403.271484"/>
      <use xlink:href="#DejaVuSans-73" x="431.054688"/>
      <use xlink:href="#DejaVuSans-74" x="483.154297"/>
      <use xlink:href="#DejaVuSans-69" x="522.363281"/>
      <use xlink:href="#DejaVuSans-63" x="550.146484"/>
      <use xlink:href="#DejaVuSans-20" x="605.126953"/>
      <use xlink:href="#DejaVuSans-62" x="636.914062"/>
      <use xlink:href="#DejaVuSans-6f" x="700.390625"/>
      <use xlink:href="#DejaVuSans-75" x="761.572266"/>
      <use xlink:href="#DejaVuSans-6e" x="824.951172"/>
      <use xlink:href="#DejaVuSans-64" x="888.330078"/>
     </g>
    </g>
    <g id="line2d_80">
     <g>
      <use xlink:href="#m3219c34005" x="25.38125" y="28.427344" style="fill: #ffa500; fill-opacity: 0.7"/>
     </g>
    </g>
    <g id="text_14">
     <!-- Neither -->
     <g transform="translate(34.38125 30.177344) scale(0.05 -0.05)">
      <defs>
       <path id="DejaVuSans-4e" d="M 628 4666 
L 1478 4666 
L 3547 763 
L 3547 4666 
L 4159 4666 
L 4159 0 
L 3309 0 
L 1241 3903 
L 1241 0 
L 628 0 
L 628 4666 
z
" transform="scale(0.015625)"/>
      </defs>
      <use xlink:href="#DejaVuSans-4e"/>
      <use xlink:href="#DejaVuSans-65" x="74.804688"/>
      <use xlink:href="#DejaVuSans-69" x="136.328125"/>
      <use xlink:href="#DejaVuSans-74" x="164.111328"/>
      <use xlink:href="#DejaVuSans-68" x="203.320312"/>
      <use xlink:href="#DejaVuSans-65" x="266.699219"/>
      <use xlink:href="#DejaVuSans-72" x="328.222656"/>
     </g>
    </g>
   </g>
   <g id="legend_2">
    <g id="line2d_81">
     <path d="M 60.915 90.271094 
L 65.915 90.271094 
L 70.915 90.271094 
" style="fill: none; stroke: #000000; stroke-width: 0.8; stroke-linecap: square"/>
    </g>
    <g id="text_15">
     <!-- Full bound theory -->
     <g transform="translate(74.915 92.021094) scale(0.05 -0.05)">
      <defs>
       <path id="DejaVuSans-46" d="M 628 4666 
L 3309 4666 
L 3309 4134 
L 1259 4134 
L 1259 2759 
L 3109 2759 
L 3109 2228 
L 1259 2228 
L 1259 0 
L 628 0 
L 628 4666 
z
" transform="scale(0.015625)"/>
       <path id="DejaVuSans-79" d="M 2059 -325 
Q 1816 -950 1584 -1140 
Q 1353 -1331 966 -1331 
L 506 -1331 
L 506 -850 
L 844 -850 
Q 1081 -850 1212 -737 
Q 1344 -625 1503 -206 
L 1606 56 
L 191 3500 
L 800 3500 
L 1894 763 
L 2988 3500 
L 3597 3500 
L 2059 -325 
z
" transform="scale(0.015625)"/>
      </defs>
      <use xlink:href="#DejaVuSans-46"/>
      <use xlink:href="#DejaVuSans-75" x="52.019531"/>
      <use xlink:href="#DejaVuSans-6c" x="115.398438"/>
      <use xlink:href="#DejaVuSans-6c" x="143.181641"/>
      <use xlink:href="#DejaVuSans-20" x="170.964844"/>
      <use xlink:href="#DejaVuSans-62" x="202.751953"/>
      <use xlink:href="#DejaVuSans-6f" x="266.228516"/>
      <use xlink:href="#DejaVuSans-75" x="327.410156"/>
      <use xlink:href="#DejaVuSans-6e" x="390.789062"/>
      <use xlink:href="#DejaVuSans-64" x="454.167969"/>
      <use xlink:href="#DejaVuSans-20" x="517.644531"/>
      <use xlink:href="#DejaVuSans-74" x="549.431641"/>
      <use xlink:href="#DejaVuSans-68" x="588.640625"/>
      <use xlink:href="#DejaVuSans-65" x="652.019531"/>
      <use xlink:href="#DejaVuSans-6f" x="713.542969"/>
      <use xlink:href="#DejaVuSans-72" x="774.724609"/>
      <use xlink:href="#DejaVuSans-79" x="815.837891"/>
     </g>
    </g>
    <g id="line2d_82">
     <path d="M 60.915 97.610156 
L 65.915 97.610156 
L 70.915 97.610156 
" style="fill: none; stroke-dasharray: 2.96,1.28; stroke-dashoffset: 0; stroke: #000000; stroke-width: 0.8"/>
    </g>
    <g id="text_16">
     <!-- Heuristic bound theory -->
     <g transform="translate(74.915 99.360156) scale(0.05 -0.05)">
      <defs>
       <path id="DejaVuSans-48" d="M 628 4666 
L 1259 4666 
L 1259 2753 
L 3553 2753 
L 3553 4666 
L 4184 4666 
L 4184 0 
L 3553 0 
L 3553 2222 
L 1259 2222 
L 1259 0 
L 628 0 
L 628 4666 
z
" transform="scale(0.015625)"/>
      </defs>
      <use xlink:href="#DejaVuSans-48"/>
      <use xlink:href="#DejaVuSans-65" x="75.195312"/>
      <use xlink:href="#DejaVuSans-75" x="136.71875"/>
      <use xlink:href="#DejaVuSans-72" x="200.097656"/>
      <use xlink:href="#DejaVuSans-69" x="241.210938"/>
      <use xlink:href="#DejaVuSans-73" x="268.994141"/>
      <use xlink:href="#DejaVuSans-74" x="321.09375"/>
      <use xlink:href="#DejaVuSans-69" x="360.302734"/>
      <use xlink:href="#DejaVuSans-63" x="388.085938"/>
      <use xlink:href="#DejaVuSans-20" x="443.066406"/>
      <use xlink:href="#DejaVuSans-62" x="474.853516"/>
      <use xlink:href="#DejaVuSans-6f" x="538.330078"/>
      <use xlink:href="#DejaVuSans-75" x="599.511719"/>
      <use xlink:href="#DejaVuSans-6e" x="662.890625"/>
      <use xlink:href="#DejaVuSans-64" x="726.269531"/>
      <use xlink:href="#DejaVuSans-20" x="789.746094"/>
      <use xlink:href="#DejaVuSans-74" x="821.533203"/>
      <use xlink:href="#DejaVuSans-68" x="860.742188"/>
      <use xlink:href="#DejaVuSans-65" x="924.121094"/>
      <use xlink:href="#DejaVuSans-6f" x="985.644531"/>
      <use xlink:href="#DejaVuSans-72" x="1046.826172"/>
      <use xlink:href="#DejaVuSans-79" x="1087.939453"/>
     </g>
    </g>
   </g>
  </g>
 </g>
 <defs>
  <clipPath id="p4a2094aaec">
   <rect x="15.88125" y="7.2" width="120.89" height="97.7"/>
  </clipPath>
 </defs>
</svg>
