<?xml version="1.0" encoding="utf-8" standalone="no"?>
<!DOCTYPE svg PUBLIC "-//W3C//DTD SVG 1.1//EN"
  "http://www.w3.org/Graphics/SVG/1.1/DTD/svg11.dtd">
<svg xmlns:xlink="http://www.w3.org/1999/xlink" width="158.37125pt" height="129.639062pt" viewBox="0 0 158.37125 129.639062" xmlns="http://www.w3.org/2000/svg" version="1.1">
 <metadata>
  <rdf:RDF xmlns:dc="http://purl.org/dc/elements/1.1/" xmlns:cc="http://creativecommons.org/ns#" xmlns:rdf="http://www.w3.org/1999/02/22-rdf-syntax-ns#">
   <cc:Work>
    <dc:type rdf:resource="http://purl.org/dc/dcmitype/StillImage"/>
    <dc:date>2026-04-16T18:34:32.519596</dc:date>
    <dc:format>image/svg+xml</dc:format>
    <dc:creator>
     <cc:Agent>
      <dc:title>Matplotlib v3.8.2, https://matplotlib.org/</dc:title>
     </cc:Agent>
    </dc:creator>
   </cc:Work>
  </rdf:RDF>
 </metadata>
 <defs>
  <style type="text/css">*{stroke-linejoin: round; stroke-linecap: butt}</style>
 </defs>
 <g id="figure_1">
  <g id="patch_1">
   <path d="M 0 129.639062 
L 158.37125 129.639062 
L 158.37125 0 
L 0 0 
z
" style="fill: #ffffff"/>
  </g>
  <g id="axes_1">
   <g id="patch_2">
    <path d="M 15.88125 112.1 
L 151.17125 112.1 
L 151.17125 7.2 
L 15.88125 7.2 
z
" style="fill: #ffffff"/>
   </g>
   <g id="matplotlib.axis_1">
    <g id="xtick_1">
     <g id="line2d_1">
      <defs>
       <path id="m7aa6caaa86" d="M 0 0 
L 0 2 
" style="stroke: #000000; stroke-width: 0.5"/>
      </defs>
      <g>
       <use xlink:href="#m7aa6caaa86" x="22.030596" y="112.1" style="stroke: #000000; stroke-width: 0.5"/>
      </g>
     </g>
     <g id="text_1">
      <!-- 0.0 -->
      <g transform="translate(18.054815 121.399219) scale(0.05 -0.05)">
       <defs>
        <path id="DejaVuSans-30" d="M 2034 4250 
Q 1547 4250 1301 3770 
Q 1056 3291 1056 2328 
Q 1056 1369 1301 889 
Q 1547 409 2034 409 
Q 2525 409 2770 889 
Q 3016 1369 3016 2328 
Q 3016 3291 2770 3770 
Q 2525 4250 2034 4250 
z
M 2034 4750 
Q 2819 4750 3233 4129 
Q 3647 3509 3647 2328 
Q 3647 1150 3233 529 
Q 2819 -91 2034 -91 
Q 1250 -91 836 529 
Q 422 1150 422 2328 
Q 422 3509 836 4129 
Q 1250 4750 2034 4750 
z
" transform="scale(0.015625)"/>
        <path id="DejaVuSans-2e" d="M 684 794 
L 1344 794 
L 1344 0 
L 684 0 
L 684 794 
z
" transform="scale(0.015625)"/>
       </defs>
       <use xlink:href="#DejaVuSans-30"/>
       <use xlink:href="#DejaVuSans-2e" x="63.623047"/>
       <use xlink:href="#DejaVuSans-30" x="95.410156"/>
      </g>
     </g>
    </g>
    <g id="xtick_2">
     <g id="line2d_2">
      <g>
       <use xlink:href="#m7aa6caaa86" x="46.644864" y="112.1" style="stroke: #000000; stroke-width: 0.5"/>
      </g>
     </g>
     <g id="text_2">
      <!-- 0.2 -->
      <g transform="translate(42.669083 121.399219) scale(0.05 -0.05)">
       <defs>
        <path id="DejaVuSans-32" d="M 1228 531 
L 3431 531 
L 3431 0 
L 469 0 
L 469 531 
Q 828 903 1448 1529 
Q 2069 2156 2228 2338 
Q 2531 2678 2651 2914 
Q 2772 3150 2772 3378 
Q 2772 3750 2511 3984 
Q 2250 4219 1831 4219 
Q 1534 4219 1204 4116 
Q 875 4013 500 3803 
L 500 4441 
Q 881 4594 1212 4672 
Q 1544 4750 1819 4750 
Q 2544 4750 2975 4387 
Q 3406 4025 3406 3419 
Q 3406 3131 3298 2873 
Q 3191 2616 2906 2266 
Q 2828 2175 2409 1742 
Q 1991 1309 1228 531 
z
" transform="scale(0.015625)"/>
       </defs>
       <use xlink:href="#DejaVuSans-30"/>
       <use xlink:href="#DejaVuSans-2e" x="63.623047"/>
       <use xlink:href="#DejaVuSans-32" x="95.410156"/>
      </g>
     </g>
    </g>
    <g id="xtick_3">
     <g id="line2d_3">
      <g>
       <use xlink:href="#m7aa6caaa86" x="71.259132" y="112.1" style="stroke: #000000; stroke-width: 0.5"/>
      </g>
     </g>
     <g id="text_3">
      <!-- 0.4 -->
      <g transform="translate(67.283351 121.399219) scale(0.05 -0.05)">
       <defs>
        <path id="DejaVuSans-34" d="M 2419 4116 
L 825 1625 
L 2419 1625 
L 2419 4116 
z
M 2253 4666 
L 3047 4666 
L 3047 1625 
L 3713 1625 
L 3713 1100 
L 3047 1100 
L 3047 0 
L 2419 0 
L 2419 1100 
L 313 1100 
L 313 1709 
L 2253 4666 
z
" transform="scale(0.015625)"/>
       </defs>
       <use xlink:href="#DejaVuSans-30"/>
       <use xlink:href="#DejaVuSans-2e" x="63.623047"/>
       <use xlink:href="#DejaVuSans-34" x="95.410156"/>
      </g>
     </g>
    </g>
    <g id="xtick_4">
     <g id="line2d_4">
      <g>
       <use xlink:href="#m7aa6caaa86" x="95.8734" y="112.1" style="stroke: #000000; stroke-width: 0.5"/>
      </g>
     </g>
     <g id="text_4">
      <!-- 0.6 -->
      <g transform="translate(91.897619 121.399219) scale(0.05 -0.05)">
       <defs>
        <path id="DejaVuSans-36" d="M 2113 2584 
Q 1688 2584 1439 2293 
Q 1191 2003 1191 1497 
Q 1191 994 1439 701 
Q 1688 409 2113 409 
Q 2538 409 2786 701 
Q 3034 994 3034 1497 
Q 3034 2003 2786 2293 
Q 2538 2584 2113 2584 
z
M 3366 4563 
L 3366 3988 
Q 3128 4100 2886 4159 
Q 2644 4219 2406 4219 
Q 1781 4219 1451 3797 
Q 1122 3375 1075 2522 
Q 1259 2794 1537 2939 
Q 1816 3084 2150 3084 
Q 2853 3084 3261 2657 
Q 3669 2231 3669 1497 
Q 3669 778 3244 343 
Q 2819 -91 2113 -91 
Q 1303 -91 875 529 
Q 447 1150 447 2328 
Q 447 3434 972 4092 
Q 1497 4750 2381 4750 
Q 2619 4750 2861 4703 
Q 3103 4656 3366 4563 
z
" transform="scale(0.015625)"/>
       </defs>
       <use xlink:href="#DejaVuSans-30"/>
       <use xlink:href="#DejaVuSans-2e" x="63.623047"/>
       <use xlink:href="#DejaVuSans-36" x="95.410156"/>
      </g>
     </g>
    </g>
    <g id="xtick_5">
     <g id="line2d_5">
      <g>
       <use xlink:href="#m7aa6caaa86" x="120.487669" y="112.1" style="stroke: #000000; stroke-width: 0.5"/>
      </g>
     </g>
     <g id="text_5">
      <!-- 0.8 -->
      <g transform="translate(116.511887 121.399219) scale(0.05 -0.05)">
       <defs>
        <path id="DejaVuSans-38" d="M 2034 2216 
Q 1584 2216 1326 1975 
Q 1069 1734 1069 1313 
Q 1069 891 1326 650 
Q 1584 409 2034 409 
Q 2484 409 2743 651 
Q 3003 894 3003 1313 
Q 3003 1734 2745 1975 
Q 2488 2216 2034 2216 
z
M 1403 2484 
Q 997 2584 770 2862 
Q 544 3141 544 3541 
Q 544 4100 942 4425 
Q 1341 4750 2034 4750 
Q 2731 4750 3128 4425 
Q 3525 4100 3525 3541 
Q 3525 3141 3298 2862 
Q 3072 2584 2669 2484 
Q 3125 2378 3379 2068 
Q 3634 1759 3634 1313 
Q 3634 634 3220 271 
Q 2806 -91 2034 -91 
Q 1263 -91 848 271 
Q 434 634 434 1313 
Q 434 1759 690 2068 
Q 947 2378 1403 2484 
z
M 1172 3481 
Q 1172 3119 1398 2916 
Q 1625 2713 2034 2713 
Q 2441 2713 2670 2916 
Q 2900 3119 2900 3481 
Q 2900 3844 2670 4047 
Q 2441 4250 2034 4250 
Q 1625 4250 1398 4047 
Q 1172 3844 1172 3481 
z
" transform="scale(0.015625)"/>
       </defs>
       <use xlink:href="#DejaVuSans-30"/>
       <use xlink:href="#DejaVuSans-2e" x="63.623047"/>
       <use xlink:href="#DejaVuSans-38" x="95.410156"/>
      </g>
     </g>
    </g>
    <g id="xtick_6">
     <g id="line2d_6">
      <g>
       <use xlink:href="#m7aa6caaa86" x="145.101937" y="112.1" style="stroke: #000000; stroke-width: 0.5"/>
      </g>
     </g>
     <g id="text_6">
      <!-- 1.0 -->
      <g transform="translate(141.126155 121.399219) scale(0.05 -0.05)">
       <defs>
        <path id="DejaVuSans-31" d="M 794 531 
L 1825 531 
L 1825 4091 
L 703 3866 
L 703 4441 
L 1819 4666 
L 2450 4666 
L 2450 531 
L 3481 531 
L 3481 0 
L 794 0 
L 794 531 
z
" transform="scale(0.015625)"/>
       </defs>
       <use xlink:href="#DejaVuSans-31"/>
       <use xlink:href="#DejaVuSans-2e" x="63.623047"/>
       <use xlink:href="#DejaVuSans-30" x="95.410156"/>
      </g>
     </g>
    </g>
   </g>
   <g id="matplotlib.axis_2">
    <g id="ytick_1">
     <g id="line2d_7">
      <defs>
       <path id="ma832bcb1ca" d="M 0 0 
L -2 0 
" style="stroke: #000000; stroke-width: 0.5"/>
      </defs>
      <g>
       <use xlink:href="#ma832bcb1ca" x="15.88125" y="106.578947" style="stroke: #000000; stroke-width: 0.5"/>
      </g>
     </g>
     <g id="text_7">
      <!-- 0 -->
      <g transform="translate(7.2 108.478557) scale(0.05 -0.05)">
       <use xlink:href="#DejaVuSans-30"/>
      </g>
     </g>
    </g>
    <g id="ytick_2">
     <g id="line2d_8">
      <g>
       <use xlink:href="#ma832bcb1ca" x="15.88125" y="84.494737" style="stroke: #000000; stroke-width: 0.5"/>
      </g>
     </g>
     <g id="text_8">
      <!-- 2 -->
      <g transform="translate(7.2 86.394346) scale(0.05 -0.05)">
       <use xlink:href="#DejaVuSans-32"/>
      </g>
     </g>
    </g>
    <g id="ytick_3">
     <g id="line2d_9">
      <g>
       <use xlink:href="#ma832bcb1ca" x="15.88125" y="62.410526" style="stroke: #000000; stroke-width: 0.5"/>
      </g>
     </g>
     <g id="text_9">
      <!-- 4 -->
      <g transform="translate(7.2 64.310136) scale(0.05 -0.05)">
       <use xlink:href="#DejaVuSans-34"/>
      </g>
     </g>
    </g>
    <g id="ytick_4">
     <g id="line2d_10">
      <g>
       <use xlink:href="#ma832bcb1ca" x="15.88125" y="40.326316" style="stroke: #000000; stroke-width: 0.5"/>
      </g>
     </g>
     <g id="text_10">
      <!-- 6 -->
      <g transform="translate(7.2 42.225925) scale(0.05 -0.05)">
       <use xlink:href="#DejaVuSans-36"/>
      </g>
     </g>
    </g>
    <g id="ytick_5">
     <g id="line2d_11">
      <g>
       <use xlink:href="#ma832bcb1ca" x="15.88125" y="18.242105" style="stroke: #000000; stroke-width: 0.5"/>
      </g>
     </g>
     <g id="text_11">
      <!-- 8 -->
      <g transform="translate(7.2 20.141715) scale(0.05 -0.05)">
       <use xlink:href="#DejaVuSans-38"/>
      </g>
     </g>
    </g>
   </g>
   <g id="line2d_12">
    <path d="M 22.03105 106.523737 
L 22.161669 105.640368 
L 22.523398 104.757 
L 23.157477 103.818421 
L 24.102633 102.824632 
L 25.471001 101.720421 
L 27.342599 100.505789 
L 29.900225 99.125526 
L 33.251502 97.579632 
L 37.762565 95.757684 
L 43.866367 93.549263 
L 52.822854 90.567895 
L 80.278533 81.568579 
L 88.277602 78.642421 
L 94.896611 75.992316 
L 100.647121 73.452632 
L 105.603495 71.023368 
L 109.949433 68.649316 
L 113.744657 66.330474 
L 117.126249 64.011632 
L 120.19489 61.637579 
L 122.902251 59.263526 
L 125.336771 56.834263 
L 127.514051 54.349789 
L 129.490844 51.754895 
L 131.26979 49.049579 
L 132.88631 46.178632 
L 134.337187 43.142053 
L 135.645048 39.884632 
L 136.823139 36.351158 
L 137.8923 32.431211 
L 138.848614 28.069579 
L 139.706861 23.100632 
L 140.475792 17.303526 
L 141.153111 10.457421 
L 141.751633 2.065421 
L 141.924639 -1 
L 141.924639 -1 
" clip-path="url(#p70c33b6aab)" style="fill: none; stroke: #000000; stroke-width: 0.8; stroke-linecap: square"/>
   </g>
   <g id="line2d_13">
    <path d="M 22.030795 106.523737 
L 22.155238 105.198684 
L 22.508468 103.873632 
L 23.116738 102.493368 
L 24.004056 101.057895 
L 25.19197 99.567211 
L 26.757522 97.966105 
L 28.744121 96.254579 
L 31.267277 94.377421 
L 34.471495 92.279421 
L 38.52158 89.905368 
L 43.693662 87.144842 
L 50.612597 83.721789 
L 61.674974 78.532 
L 77.974074 70.857737 
L 86.229209 66.716947 
L 93.007805 63.073053 
L 98.810807 59.705211 
L 103.893204 56.503 
L 108.392305 53.411211 
L 112.426066 50.374632 
L 116.090633 47.338053 
L 119.346132 44.356684 
L 122.33351 41.320105 
L 125.01203 38.283526 
L 127.446376 35.191737 
L 129.682767 31.989526 
L 131.688144 28.732105 
L 133.532527 25.309053 
L 135.209008 21.720368 
L 136.715273 17.966053 
L 138.070455 13.990895 
L 139.300242 9.684474 
L 140.390982 5.046789 
L 141.365102 -0.087789 
L 141.516071 -1 
L 141.516071 -1 
" clip-path="url(#p70c33b6aab)" style="fill: none; stroke-dasharray: 2.96,1.28; stroke-dashoffset: 0; stroke: #000000; stroke-width: 0.8"/>
   </g>
   <g id="line2d_14">
    <defs>
     <path id="m673395161f" d="M 0 1.5 
C 0.397805 1.5 0.77937 1.341951 1.06066 1.06066 
C 1.341951 0.77937 1.5 0.397805 1.5 0 
C 1.5 -0.397805 1.341951 -0.77937 1.06066 -1.06066 
C 0.77937 -1.341951 0.397805 -1.5 0 -1.5 
C -0.397805 -1.5 -0.77937 -1.341951 -1.06066 -1.06066 
C -1.341951 -0.77937 -1.5 -0.397805 -1.5 0 
C -1.5 0.397805 -1.341951 0.77937 -1.06066 1.06066 
C -0.77937 1.341951 -0.397805 1.5 0 1.5 
z
"/>
    </defs>
    <g clip-path="url(#p70c33b6aab)">
     <use xlink:href="#m673395161f" x="118.447433" y="62.717889" style="fill: #298c8c; fill-opacity: 0.7"/>
    </g>
   </g>
   <g id="line2d_15">
    <g clip-path="url(#p70c33b6aab)">
     <use xlink:href="#m673395161f" x="130.153041" y="53.608209" style="fill: #298c8c; fill-opacity: 0.7"/>
    </g>
   </g>
   <g id="line2d_16">
    <g clip-path="url(#p70c33b6aab)">
     <use xlink:href="#m673395161f" x="121.662469" y="45.278063" style="fill: #298c8c; fill-opacity: 0.7"/>
    </g>
   </g>
   <g id="line2d_17">
    <defs>
     <path id="mc970ba35e6" d="M 0 1.5 
C 0.397805 1.5 0.77937 1.341951 1.06066 1.06066 
C 1.341951 0.77937 1.5 0.397805 1.5 0 
C 1.5 -0.397805 1.341951 -0.77937 1.06066 -1.06066 
C 0.77937 -1.341951 0.397805 -1.5 0 -1.5 
C -0.397805 -1.5 -0.77937 -1.341951 -1.06066 -1.06066 
C -1.341951 -0.77937 -1.5 -0.397805 -1.5 0 
C -1.5 0.397805 -1.341951 0.77937 -1.06066 1.06066 
C -0.77937 1.341951 -0.397805 1.5 0 1.5 
z
"/>
    </defs>
    <g clip-path="url(#p70c33b6aab)">
     <use xlink:href="#mc970ba35e6" x="65.934358" y="74.753178" style="fill: #a00000; fill-opacity: 0.7"/>
    </g>
   </g>
   <g id="line2d_18">
    <defs>
     <path id="m980489c46f" d="M 0 1.5 
C 0.397805 1.5 0.77937 1.341951 1.06066 1.06066 
C 1.341951 0.77937 1.5 0.397805 1.5 0 
C 1.5 -0.397805 1.341951 -0.77937 1.06066 -1.06066 
C 0.77937 -1.341951 0.397805 -1.5 0 -1.5 
C -0.397805 -1.5 -0.77937 -1.341951 -1.06066 -1.06066 
C -1.341951 -0.77937 -1.5 -0.397805 -1.5 0 
C -1.5 0.397805 -1.341951 0.77937 -1.06066 1.06066 
C -0.77937 1.341951 -0.397805 1.5 0 1.5 
z
"/>
    </defs>
    <g clip-path="url(#p70c33b6aab)">
     <use xlink:href="#m980489c46f" x="110.226436" y="41.534516" style="fill: #ffa500; fill-opacity: 0.7"/>
    </g>
   </g>
   <g id="line2d_19">
    <g clip-path="url(#p70c33b6aab)">
     <use xlink:href="#m673395161f" x="123.529414" y="54.714234" style="fill: #298c8c; fill-opacity: 0.7"/>
    </g>
   </g>
   <g id="line2d_20">
    <g clip-path="url(#p70c33b6aab)">
     <use xlink:href="#m673395161f" x="64.376805" y="87.515287" style="fill: #298c8c; fill-opacity: 0.7"/>
    </g>
   </g>
   <g id="line2d_21">
    <g clip-path="url(#p70c33b6aab)">
     <use xlink:href="#m980489c46f" x="30.88208" y="97.356931" style="fill: #ffa500; fill-opacity: 0.7"/>
    </g>
   </g>
   <g id="line2d_22">
    <g clip-path="url(#p70c33b6aab)">
     <use xlink:href="#m673395161f" x="91.035276" y="65.956789" style="fill: #298c8c; fill-opacity: 0.7"/>
    </g>
   </g>
   <g id="line2d_23">
    <g clip-path="url(#p70c33b6aab)"/>
   </g>
   <g id="line2d_24">
    <g clip-path="url(#p70c33b6aab)">
     <use xlink:href="#mc970ba35e6" x="54.985925" y="80.21454" style="fill: #a00000; fill-opacity: 0.7"/>
    </g>
   </g>
   <g id="line2d_25">
    <g clip-path="url(#p70c33b6aab)">
     <use xlink:href="#m673395161f" x="97.866433" y="66.220526" style="fill: #298c8c; fill-opacity: 0.7"/>
    </g>
   </g>
   <g id="line2d_26">
    <g clip-path="url(#p70c33b6aab)">
     <use xlink:href="#m673395161f" x="116.361666" y="70.309461" style="fill: #298c8c; fill-opacity: 0.7"/>
    </g>
   </g>
   <g id="line2d_27">
    <g clip-path="url(#p70c33b6aab)">
     <use xlink:href="#m673395161f" x="124.902585" y="48.795394" style="fill: #298c8c; fill-opacity: 0.7"/>
    </g>
   </g>
   <g id="line2d_28">
    <g clip-path="url(#p70c33b6aab)">
     <use xlink:href="#mc970ba35e6" x="109.322266" y="55.267017" style="fill: #a00000; fill-opacity: 0.7"/>
    </g>
   </g>
   <g id="line2d_29">
    <g clip-path="url(#p70c33b6aab)">
     <use xlink:href="#m673395161f" x="89.801031" y="72.085038" style="fill: #298c8c; fill-opacity: 0.7"/>
    </g>
   </g>
   <g id="line2d_30">
    <g clip-path="url(#p70c33b6aab)">
     <use xlink:href="#m673395161f" x="118.334142" y="66.420336" style="fill: #298c8c; fill-opacity: 0.7"/>
    </g>
   </g>
   <g id="line2d_31">
    <g clip-path="url(#p70c33b6aab)">
     <use xlink:href="#mc970ba35e6" x="106.790658" y="55.319833" style="fill: #a00000; fill-opacity: 0.7"/>
    </g>
   </g>
   <g id="line2d_32">
    <g clip-path="url(#p70c33b6aab)">
     <use xlink:href="#m673395161f" x="119.261177" y="44.11084" style="fill: #298c8c; fill-opacity: 0.7"/>
    </g>
   </g>
   <g id="line2d_33">
    <g clip-path="url(#p70c33b6aab)">
     <use xlink:href="#m673395161f" x="105.823086" y="71.760062" style="fill: #298c8c; fill-opacity: 0.7"/>
    </g>
   </g>
   <g id="line2d_34">
    <g clip-path="url(#p70c33b6aab)">
     <use xlink:href="#m673395161f" x="87.907792" y="72.383997" style="fill: #298c8c; fill-opacity: 0.7"/>
    </g>
   </g>
   <g id="line2d_35">
    <g clip-path="url(#p70c33b6aab)">
     <use xlink:href="#m673395161f" x="132.219028" y="52.412092" style="fill: #298c8c; fill-opacity: 0.7"/>
    </g>
   </g>
   <g id="line2d_36">
    <g clip-path="url(#p70c33b6aab)">
     <use xlink:href="#m980489c46f" x="108.222771" y="39.911696" style="fill: #ffa500; fill-opacity: 0.7"/>
    </g>
   </g>
   <g id="line2d_37">
    <g clip-path="url(#p70c33b6aab)">
     <use xlink:href="#m673395161f" x="123.560925" y="54.413979" style="fill: #298c8c; fill-opacity: 0.7"/>
    </g>
   </g>
   <g id="line2d_38">
    <g clip-path="url(#p70c33b6aab)">
     <use xlink:href="#m673395161f" x="85.891429" y="80.407087" style="fill: #298c8c; fill-opacity: 0.7"/>
    </g>
   </g>
   <g id="line2d_39">
    <g clip-path="url(#p70c33b6aab)">
     <use xlink:href="#m673395161f" x="120.333325" y="65.325245" style="fill: #298c8c; fill-opacity: 0.7"/>
    </g>
   </g>
   <g id="line2d_40">
    <g clip-path="url(#p70c33b6aab)">
     <use xlink:href="#m673395161f" x="109.775248" y="60.490688" style="fill: #298c8c; fill-opacity: 0.7"/>
    </g>
   </g>
   <g id="line2d_41">
    <g clip-path="url(#p70c33b6aab)">
     <use xlink:href="#m673395161f" x="122.471533" y="61.977532" style="fill: #298c8c; fill-opacity: 0.7"/>
    </g>
   </g>
   <g id="line2d_42">
    <g clip-path="url(#p70c33b6aab)">
     <use xlink:href="#m673395161f" x="47.790206" y="91.139405" style="fill: #298c8c; fill-opacity: 0.7"/>
    </g>
   </g>
   <g id="line2d_43">
    <g clip-path="url(#p70c33b6aab)"/>
   </g>
   <g id="line2d_44">
    <g clip-path="url(#p70c33b6aab)">
     <use xlink:href="#m980489c46f" x="97.034391" y="72.340778" style="fill: #ffa500; fill-opacity: 0.7"/>
    </g>
   </g>
   <g id="line2d_45">
    <g clip-path="url(#p70c33b6aab)">
     <use xlink:href="#m673395161f" x="131.171292" y="46.531245" style="fill: #298c8c; fill-opacity: 0.7"/>
    </g>
   </g>
   <g id="line2d_46">
    <g clip-path="url(#p70c33b6aab)">
     <use xlink:href="#m980489c46f" x="101.015318" y="57.648375" style="fill: #ffa500; fill-opacity: 0.7"/>
    </g>
   </g>
   <g id="line2d_47">
    <g clip-path="url(#p70c33b6aab)">
     <use xlink:href="#m673395161f" x="132.448456" y="45.670543" style="fill: #298c8c; fill-opacity: 0.7"/>
    </g>
   </g>
   <g id="line2d_48">
    <g clip-path="url(#p70c33b6aab)">
     <use xlink:href="#m673395161f" x="121.307995" y="60.497466" style="fill: #298c8c; fill-opacity: 0.7"/>
    </g>
   </g>
   <g id="line2d_49">
    <g clip-path="url(#p70c33b6aab)">
     <use xlink:href="#m673395161f" x="123.674119" y="60.459076" style="fill: #298c8c; fill-opacity: 0.7"/>
    </g>
   </g>
   <g id="line2d_50">
    <g clip-path="url(#p70c33b6aab)">
     <use xlink:href="#m673395161f" x="102.303096" y="73.392809" style="fill: #298c8c; fill-opacity: 0.7"/>
    </g>
   </g>
   <g id="line2d_51">
    <g clip-path="url(#p70c33b6aab)">
     <use xlink:href="#mc970ba35e6" x="109.028741" y="45.822171" style="fill: #a00000; fill-opacity: 0.7"/>
    </g>
   </g>
   <g id="line2d_52">
    <g clip-path="url(#p70c33b6aab)">
     <use xlink:href="#m673395161f" x="127.656024" y="32.3082" style="fill: #298c8c; fill-opacity: 0.7"/>
    </g>
   </g>
   <g id="line2d_53">
    <g clip-path="url(#p70c33b6aab)">
     <use xlink:href="#m673395161f" x="105.734047" y="63.527655" style="fill: #298c8c; fill-opacity: 0.7"/>
    </g>
   </g>
   <g id="line2d_54">
    <g clip-path="url(#p70c33b6aab)"/>
   </g>
   <g id="line2d_55">
    <g clip-path="url(#p70c33b6aab)">
     <use xlink:href="#m673395161f" x="127.922662" y="55.874274" style="fill: #298c8c; fill-opacity: 0.7"/>
    </g>
   </g>
   <g id="line2d_56">
    <g clip-path="url(#p70c33b6aab)">
     <use xlink:href="#m673395161f" x="131.13467" y="42.239965" style="fill: #298c8c; fill-opacity: 0.7"/>
    </g>
   </g>
   <g id="line2d_57">
    <g clip-path="url(#p70c33b6aab)">
     <use xlink:href="#m980489c46f" x="81.962899" y="68.247998" style="fill: #ffa500; fill-opacity: 0.7"/>
    </g>
   </g>
   <g id="line2d_58">
    <g clip-path="url(#p70c33b6aab)">
     <use xlink:href="#m673395161f" x="126.393525" y="55.606389" style="fill: #298c8c; fill-opacity: 0.7"/>
    </g>
   </g>
   <g id="line2d_59">
    <g clip-path="url(#p70c33b6aab)">
     <use xlink:href="#m673395161f" x="128.740778" y="59.231881" style="fill: #298c8c; fill-opacity: 0.7"/>
    </g>
   </g>
   <g id="line2d_60">
    <g clip-path="url(#p70c33b6aab)">
     <use xlink:href="#m980489c46f" x="90.216967" y="66.64608" style="fill: #ffa500; fill-opacity: 0.7"/>
    </g>
   </g>
   <g id="line2d_61">
    <g clip-path="url(#p70c33b6aab)">
     <use xlink:href="#m673395161f" x="121.229129" y="50.966484" style="fill: #298c8c; fill-opacity: 0.7"/>
    </g>
   </g>
   <g id="line2d_62">
    <g clip-path="url(#p70c33b6aab)">
     <use xlink:href="#m673395161f" x="111.617235" y="65.607874" style="fill: #298c8c; fill-opacity: 0.7"/>
    </g>
   </g>
   <g id="line2d_63">
    <g clip-path="url(#p70c33b6aab)">
     <use xlink:href="#m673395161f" x="131.447695" y="50.302287" style="fill: #298c8c; fill-opacity: 0.7"/>
    </g>
   </g>
   <g id="line2d_64">
    <g clip-path="url(#p70c33b6aab)">
     <use xlink:href="#mc970ba35e6" x="122.088077" y="37.012791" style="fill: #a00000; fill-opacity: 0.7"/>
    </g>
   </g>
   <g id="line2d_65">
    <g clip-path="url(#p70c33b6aab)">
     <use xlink:href="#m673395161f" x="127.098463" y="55.212434" style="fill: #298c8c; fill-opacity: 0.7"/>
    </g>
   </g>
   <g id="line2d_66">
    <g clip-path="url(#p70c33b6aab)">
     <use xlink:href="#m673395161f" x="127.71358" y="39.106077" style="fill: #298c8c; fill-opacity: 0.7"/>
    </g>
   </g>
   <g id="line2d_67">
    <g clip-path="url(#p70c33b6aab)">
     <use xlink:href="#m673395161f" x="67.50024" y="89.221329" style="fill: #298c8c; fill-opacity: 0.7"/>
    </g>
   </g>
   <g id="line2d_68">
    <g clip-path="url(#p70c33b6aab)">
     <use xlink:href="#m673395161f" x="114.950278" y="62.478575" style="fill: #298c8c; fill-opacity: 0.7"/>
    </g>
   </g>
   <g id="line2d_69">
    <g clip-path="url(#p70c33b6aab)">
     <use xlink:href="#mc970ba35e6" x="113.818491" y="48.802059" style="fill: #a00000; fill-opacity: 0.7"/>
    </g>
   </g>
   <g id="line2d_70">
    <g clip-path="url(#p70c33b6aab)">
     <use xlink:href="#m673395161f" x="128.638418" y="20.571704" style="fill: #298c8c; fill-opacity: 0.7"/>
    </g>
   </g>
   <g id="line2d_71">
    <g clip-path="url(#p70c33b6aab)">
     <use xlink:href="#m673395161f" x="130.038214" y="49.972552" style="fill: #298c8c; fill-opacity: 0.7"/>
    </g>
   </g>
   <g id="line2d_72">
    <g clip-path="url(#p70c33b6aab)">
     <use xlink:href="#mc970ba35e6" x="106.171685" y="53.425333" style="fill: #a00000; fill-opacity: 0.7"/>
    </g>
   </g>
   <g id="line2d_73">
    <g clip-path="url(#p70c33b6aab)">
     <use xlink:href="#m673395161f" x="127.737976" y="56.940027" style="fill: #298c8c; fill-opacity: 0.7"/>
    </g>
   </g>
   <g id="line2d_74">
    <g clip-path="url(#p70c33b6aab)">
     <use xlink:href="#m673395161f" x="93.843213" y="68.29024" style="fill: #298c8c; fill-opacity: 0.7"/>
    </g>
   </g>
   <g id="line2d_75">
    <g clip-path="url(#p70c33b6aab)">
     <use xlink:href="#m673395161f" x="128.540662" y="52.938327" style="fill: #298c8c; fill-opacity: 0.7"/>
    </g>
   </g>
   <g id="line2d_76">
    <g clip-path="url(#p70c33b6aab)">
     <use xlink:href="#m673395161f" x="126.572393" y="53.924582" style="fill: #298c8c; fill-opacity: 0.7"/>
    </g>
   </g>
   <g id="line2d_77">
    <g clip-path="url(#p70c33b6aab)">
     <use xlink:href="#m980489c46f" x="69.682111" y="79.607483" style="fill: #ffa500; fill-opacity: 0.7"/>
    </g>
   </g>
   <g id="patch_3">
    <path d="M 15.88125 112.1 
L 15.88125 7.2 
" style="fill: none; stroke: #000000; stroke-width: 0.5; stroke-linejoin: miter; stroke-linecap: square"/>
   </g>
   <g id="patch_4">
    <path d="M 15.88125 112.1 
L 151.17125 112.1 
" style="fill: none; stroke: #000000; stroke-width: 0.5; stroke-linejoin: miter; stroke-linecap: square"/>
   </g>
   <g id="legend_1">
    <g id="line2d_78">
     <g>
      <use xlink:href="#m673395161f" x="25.38125" y="13.749219" style="fill: #298c8c; fill-opacity: 0.7"/>
     </g>
    </g>
    <g id="text_12">
     <!-- On full bound -->
     <g transform="translate(34.38125 15.499219) scale(0.05 -0.05)">
      <defs>
       <path id="DejaVuSans-4f" d="M 2522 4238 
Q 1834 4238 1429 3725 
Q 1025 3213 1025 2328 
Q 1025 1447 1429 934 
Q 1834 422 2522 422 
Q 3209 422 3611 934 
Q 4013 1447 4013 2328 
Q 4013 3213 3611 3725 
Q 3209 4238 2522 4238 
z
M 2522 4750 
Q 3503 4750 4090 4092 
Q 4678 3434 4678 2328 
Q 4678 1225 4090 567 
Q 3503 -91 2522 -91 
Q 1538 -91 948 565 
Q 359 1222 359 2328 
Q 359 3434 948 4092 
Q 1538 4750 2522 4750 
z
" transform="scale(0.015625)"/>
       <path id="DejaVuSans-6e" d="M 3513 2113 
L 3513 0 
L 2938 0 
L 2938 2094 
Q 2938 2591 2744 2837 
Q 2550 3084 2163 3084 
Q 1697 3084 1428 2787 
Q 1159 2491 1159 1978 
L 1159 0 
L 581 0 
L 581 3500 
L 1159 3500 
L 1159 2956 
Q 1366 3272 1645 3428 
Q 1925 3584 2291 3584 
Q 2894 3584 3203 3211 
Q 3513 2838 3513 2113 
z
" transform="scale(0.015625)"/>
       <path id="DejaVuSans-20" transform="scale(0.015625)"/>
       <path id="DejaVuSans-66" d="M 2375 4863 
L 2375 4384 
L 1825 4384 
Q 1516 4384 1395 4259 
Q 1275 4134 1275 3809 
L 1275 3500 
L 2222 3500 
L 2222 3053 
L 1275 3053 
L 1275 0 
L 697 0 
L 697 3053 
L 147 3053 
L 147 3500 
L 697 3500 
L 697 3744 
Q 697 4328 969 4595 
Q 1241 4863 1831 4863 
L 2375 4863 
z
" transform="scale(0.015625)"/>
       <path id="DejaVuSans-75" d="M 544 1381 
L 544 3500 
L 1119 3500 
L 1119 1403 
Q 1119 906 1312 657 
Q 1506 409 1894 409 
Q 2359 409 2629 706 
Q 2900 1003 2900 1516 
L 2900 3500 
L 3475 3500 
L 3475 0 
L 2900 0 
L 2900 538 
Q 2691 219 2414 64 
Q 2138 -91 1772 -91 
Q 1169 -91 856 284 
Q 544 659 544 1381 
z
M 1991 3584 
L 1991 3584 
z
" transform="scale(0.015625)"/>
       <path id="DejaVuSans-6c" d="M 603 4863 
L 1178 4863 
L 1178 0 
L 603 0 
L 603 4863 
z
" transform="scale(0.015625)"/>
       <path id="DejaVuSans-62" d="M 3116 1747 
Q 3116 2381 2855 2742 
Q 2594 3103 2138 3103 
Q 1681 3103 1420 2742 
Q 1159 2381 1159 1747 
Q 1159 1113 1420 752 
Q 1681 391 2138 391 
Q 2594 391 2855 752 
Q 3116 1113 3116 1747 
z
M 1159 2969 
Q 1341 3281 1617 3432 
Q 1894 3584 2278 3584 
Q 2916 3584 3314 3078 
Q 3713 2572 3713 1747 
Q 3713 922 3314 415 
Q 2916 -91 2278 -91 
Q 1894 -91 1617 61 
Q 1341 213 1159 525 
L 1159 0 
L 581 0 
L 581 4863 
L 1159 4863 
L 1159 2969 
z
" transform="scale(0.015625)"/>
       <path id="DejaVuSans-6f" d="M 1959 3097 
Q 1497 3097 1228 2736 
Q 959 2375 959 1747 
Q 959 1119 1226 758 
Q 1494 397 1959 397 
Q 2419 397 2687 759 
Q 2956 1122 2956 1747 
Q 2956 2369 2687 2733 
Q 2419 3097 1959 3097 
z
M 1959 3584 
Q 2709 3584 3137 3096 
Q 3566 2609 3566 1747 
Q 3566 888 3137 398 
Q 2709 -91 1959 -91 
Q 1206 -91 779 398 
Q 353 888 353 1747 
Q 353 2609 779 3096 
Q 1206 3584 1959 3584 
z
" transform="scale(0.015625)"/>
       <path id="DejaVuSans-64" d="M 2906 2969 
L 2906 4863 
L 3481 4863 
L 3481 0 
L 2906 0 
L 2906 525 
Q 2725 213 2448 61 
Q 2172 -91 1784 -91 
Q 1150 -91 751 415 
Q 353 922 353 1747 
Q 353 2572 751 3078 
Q 1150 3584 1784 3584 
Q 2172 3584 2448 3432 
Q 2725 3281 2906 2969 
z
M 947 1747 
Q 947 1113 1208 752 
Q 1469 391 1925 391 
Q 2381 391 2643 752 
Q 2906 1113 2906 1747 
Q 2906 2381 2643 2742 
Q 2381 3103 1925 3103 
Q 1469 3103 1208 2742 
Q 947 2381 947 1747 
z
" transform="scale(0.015625)"/>
      </defs>
      <use xlink:href="#DejaVuSans-4f"/>
      <use xlink:href="#DejaVuSans-6e" x="78.710938"/>
      <use xlink:href="#DejaVuSans-20" x="142.089844"/>
      <use xlink:href="#DejaVuSans-66" x="173.876953"/>
      <use xlink:href="#DejaVuSans-75" x="209.082031"/>
      <use xlink:href="#DejaVuSans-6c" x="272.460938"/>
      <use xlink:href="#DejaVuSans-6c" x="300.244141"/>
      <use xlink:href="#DejaVuSans-20" x="328.027344"/>
      <use xlink:href="#DejaVuSans-62" x="359.814453"/>
      <use xlink:href="#DejaVuSans-6f" x="423.291016"/>
      <use xlink:href="#DejaVuSans-75" x="484.472656"/>
      <use xlink:href="#DejaVuSans-6e" x="547.851562"/>
      <use xlink:href="#DejaVuSans-64" x="611.230469"/>
     </g>
    </g>
    <g id="line2d_79">
     <g>
      <use xlink:href="#mc970ba35e6" x="25.38125" y="21.088281" style="fill: #a00000; fill-opacity: 0.7"/>
     </g>
    </g>
    <g id="text_13">
     <!-- On heuristic bound -->
     <g transform="translate(34.38125 22.838281) scale(0.05 -0.05)">
      <defs>
       <path id="DejaVuSans-68" d="M 3513 2113 
L 3513 0 
L 2938 0 
L 2938 2094 
Q 2938 2591 2744 2837 
Q 2550 3084 2163 3084 
Q 1697 3084 1428 2787 
Q 1159 2491 1159 1978 
L 1159 0 
L 581 0 
L 581 4863 
L 1159 4863 
L 1159 2956 
Q 1366 3272 1645 3428 
Q 1925 3584 2291 3584 
Q 2894 3584 3203 3211 
Q 3513 2838 3513 2113 
z
" transform="scale(0.015625)"/>
       <path id="DejaVuSans-65" d="M 3597 1894 
L 3597 1613 
L 953 1613 
Q 991 1019 1311 708 
Q 1631 397 2203 397 
Q 2534 397 2845 478 
Q 3156 559 3463 722 
L 3463 178 
Q 3153 47 2828 -22 
Q 2503 -91 2169 -91 
Q 1331 -91 842 396 
Q 353 884 353 1716 
Q 353 2575 817 3079 
Q 1281 3584 2069 3584 
Q 2775 3584 3186 3129 
Q 3597 2675 3597 1894 
z
M 3022 2063 
Q 3016 2534 2758 2815 
Q 2500 3097 2075 3097 
Q 1594 3097 1305 2825 
Q 1016 2553 972 2059 
L 3022 2063 
z
" transform="scale(0.015625)"/>
       <path id="DejaVuSans-72" d="M 2631 2963 
Q 2534 3019 2420 3045 
Q 2306 3072 2169 3072 
Q 1681 3072 1420 2755 
Q 1159 2438 1159 1844 
L 1159 0 
L 581 0 
L 581 3500 
L 1159 3500 
L 1159 2956 
Q 1341 3275 1631 3429 
Q 1922 3584 2338 3584 
Q 2397 3584 2469 3576 
Q 2541 3569 2628 3553 
L 2631 2963 
z
" transform="scale(0.015625)"/>
       <path id="DejaVuSans-69" d="M 603 3500 
L 1178 3500 
L 1178 0 
L 603 0 
L 603 3500 
z
M 603 4863 
L 1178 4863 
L 1178 4134 
L 603 4134 
L 603 4863 
z
" transform="scale(0.015625)"/>
       <path id="DejaVuSans-73" d="M 2834 3397 
L 2834 2853 
Q 2591 2978 2328 3040 
Q 2066 3103 1784 3103 
Q 1356 3103 1142 2972 
Q 928 2841 928 2578 
Q 928 2378 1081 2264 
Q 1234 2150 1697 2047 
L 1894 2003 
Q 2506 1872 2764 1633 
Q 3022 1394 3022 966 
Q 3022 478 2636 193 
Q 2250 -91 1575 -91 
Q 1294 -91 989 -36 
Q 684 19 347 128 
L 347 722 
Q 666 556 975 473 
Q 1284 391 1588 391 
Q 1994 391 2212 530 
Q 2431 669 2431 922 
Q 2431 1156 2273 1281 
Q 2116 1406 1581 1522 
L 1381 1569 
Q 847 1681 609 1914 
Q 372 2147 372 2553 
Q 372 3047 722 3315 
Q 1072 3584 1716 3584 
Q 2034 3584 2315 3537 
Q 2597 3491 2834 3397 
z
" transform="scale(0.015625)"/>
       <path id="DejaVuSans-74" d="M 1172 4494 
L 1172 3500 
L 2356 3500 
L 2356 3053 
L 1172 3053 
L 1172 1153 
Q 1172 725 1289 603 
Q 1406 481 1766 481 
L 2356 481 
L 2356 0 
L 1766 0 
Q 1100 0 847 248 
Q 594 497 594 1153 
L 594 3053 
L 172 3053 
L 172 3500 
L 594 3500 
L 594 4494 
L 1172 4494 
z
" transform="scale(0.015625)"/>
       <path id="DejaVuSans-63" d="M 3122 3366 
L 3122 2828 
Q 2878 2963 2633 3030 
Q 2388 3097 2138 3097 
Q 1578 3097 1268 2742 
Q 959 2388 959 1747 
Q 959 1106 1268 751 
Q 1578 397 2138 397 
Q 2388 397 2633 464 
Q 2878 531 3122 666 
L 3122 134 
Q 2881 22 2623 -34 
Q 2366 -91 2075 -91 
Q 1284 -91 818 406 
Q 353 903 353 1747 
Q 353 2603 823 3093 
Q 1294 3584 2113 3584 
Q 2378 3584 2631 3529 
Q 2884 3475 3122 3366 
z
" transform="scale(0.015625)"/>
      </defs>
      <use xlink:href="#DejaVuSans-4f"/>
      <use xlink:href="#DejaVuSans-6e" x="78.710938"/>
      <use xlink:href="#DejaVuSans-20" x="142.089844"/>
      <use xlink:href="#DejaVuSans-68" x="173.876953"/>
      <use xlink:href="#DejaVuSans-65" x="237.255859"/>
      <use xlink:href="#DejaVuSans-75" x="298.779297"/>
      <use xlink:href="#DejaVuSans-72" x="362.158203"/>
      <use xlink:href="#DejaVuSans-69" x="403.271484"/>
      <use xlink:href="#DejaVuSans-73" x="431.054688"/>
      <use xlink:href="#DejaVuSans-74" x="483.154297"/>
      <use xlink:href="#DejaVuSans-69" x="522.363281"/>
      <use xlink:href="#DejaVuSans-63" x="550.146484"/>
      <use xlink:href="#DejaVuSans-20" x="605.126953"/>
      <use xlink:href="#DejaVuSans-62" x="636.914062"/>
      <use xlink:href="#DejaVuSans-6f" x="700.390625"/>
      <use xlink:href="#DejaVuSans-75" x="761.572266"/>
      <use xlink:href="#DejaVuSans-6e" x="824.951172"/>
      <use xlink:href="#DejaVuSans-64" x="888.330078"/>
     </g>
    </g>
    <g id="line2d_80">
     <g>
      <use xlink:href="#m980489c46f" x="25.38125" y="28.427344" style="fill: #ffa500; fill-opacity: 0.7"/>
     </g>
    </g>
    <g id="text_14">
     <!-- Neither -->
     <g transform="translate(34.38125 30.177344) scale(0.05 -0.05)">
      <defs>
       <path id="DejaVuSans-4e" d="M 628 4666 
L 1478 4666 
L 3547 763 
L 3547 4666 
L 4159 4666 
L 4159 0 
L 3309 0 
L 1241 3903 
L 1241 0 
L 628 0 
L 628 4666 
z
" transform="scale(0.015625)"/>
      </defs>
      <use xlink:href="#DejaVuSans-4e"/>
      <use xlink:href="#DejaVuSans-65" x="74.804688"/>
      <use xlink:href="#DejaVuSans-69" x="136.328125"/>
      <use xlink:href="#DejaVuSans-74" x="164.111328"/>
      <use xlink:href="#DejaVuSans-68" x="203.320312"/>
      <use xlink:href="#DejaVuSans-65" x="266.699219"/>
      <use xlink:href="#DejaVuSans-72" x="328.222656"/>
     </g>
    </g>
   </g>
   <g id="legend_2">
    <g id="line2d_81">
     <path d="M 75.315 97.471094 
L 80.315 97.471094 
L 85.315 97.471094 
" style="fill: none; stroke: #000000; stroke-width: 0.8; stroke-linecap: square"/>
    </g>
    <g id="text_15">
     <!-- Full bound theory -->
     <g transform="translate(89.315 99.221094) scale(0.05 -0.05)">
      <defs>
       <path id="DejaVuSans-46" d="M 628 4666 
L 3309 4666 
L 3309 4134 
L 1259 4134 
L 1259 2759 
L 3109 2759 
L 3109 2228 
L 1259 2228 
L 1259 0 
L 628 0 
L 628 4666 
z
" transform="scale(0.015625)"/>
       <path id="DejaVuSans-79" d="M 2059 -325 
Q 1816 -950 1584 -1140 
Q 1353 -1331 966 -1331 
L 506 -1331 
L 506 -850 
L 844 -850 
Q 1081 -850 1212 -737 
Q 1344 -625 1503 -206 
L 1606 56 
L 191 3500 
L 800 3500 
L 1894 763 
L 2988 3500 
L 3597 3500 
L 2059 -325 
z
" transform="scale(0.015625)"/>
      </defs>
      <use xlink:href="#DejaVuSans-46"/>
      <use xlink:href="#DejaVuSans-75" x="52.019531"/>
      <use xlink:href="#DejaVuSans-6c" x="115.398438"/>
      <use xlink:href="#DejaVuSans-6c" x="143.181641"/>
      <use xlink:href="#DejaVuSans-20" x="170.964844"/>
      <use xlink:href="#DejaVuSans-62" x="202.751953"/>
      <use xlink:href="#DejaVuSans-6f" x="266.228516"/>
      <use xlink:href="#DejaVuSans-75" x="327.410156"/>
      <use xlink:href="#DejaVuSans-6e" x="390.789062"/>
      <use xlink:href="#DejaVuSans-64" x="454.167969"/>
      <use xlink:href="#DejaVuSans-20" x="517.644531"/>
      <use xlink:href="#DejaVuSans-74" x="549.431641"/>
      <use xlink:href="#DejaVuSans-68" x="588.640625"/>
      <use xlink:href="#DejaVuSans-65" x="652.019531"/>
      <use xlink:href="#DejaVuSans-6f" x="713.542969"/>
      <use xlink:href="#DejaVuSans-72" x="774.724609"/>
      <use xlink:href="#DejaVuSans-79" x="815.837891"/>
     </g>
    </g>
    <g id="line2d_82">
     <path d="M 75.315 104.810156 
L 80.315 104.810156 
L 85.315 104.810156 
" style="fill: none; stroke-dasharray: 2.96,1.28; stroke-dashoffset: 0; stroke: #000000; stroke-width: 0.8"/>
    </g>
    <g id="text_16">
     <!-- Heuristic bound theory -->
     <g transform="translate(89.315 106.560156) scale(0.05 -0.05)">
      <defs>
       <path id="DejaVuSans-48" d="M 628 4666 
L 1259 4666 
L 1259 2753 
L 3553 2753 
L 3553 4666 
L 4184 4666 
L 4184 0 
L 3553 0 
L 3553 2222 
L 1259 2222 
L 1259 0 
L 628 0 
L 628 4666 
z
" transform="scale(0.015625)"/>
      </defs>
      <use xlink:href="#DejaVuSans-48"/>
      <use xlink:href="#DejaVuSans-65" x="75.195312"/>
      <use xlink:href="#DejaVuSans-75" x="136.71875"/>
      <use xlink:href="#DejaVuSans-72" x="200.097656"/>
      <use xlink:href="#DejaVuSans-69" x="241.210938"/>
      <use xlink:href="#DejaVuSans-73" x="268.994141"/>
      <use xlink:href="#DejaVuSans-74" x="321.09375"/>
      <use xlink:href="#DejaVuSans-69" x="360.302734"/>
      <use xlink:href="#DejaVuSans-63" x="388.085938"/>
      <use xlink:href="#DejaVuSans-20" x="443.066406"/>
      <use xlink:href="#DejaVuSans-62" x="474.853516"/>
      <use xlink:href="#DejaVuSans-6f" x="538.330078"/>
      <use xlink:href="#DejaVuSans-75" x="599.511719"/>
      <use xlink:href="#DejaVuSans-6e" x="662.890625"/>
      <use xlink:href="#DejaVuSans-64" x="726.269531"/>
      <use xlink:href="#DejaVuSans-20" x="789.746094"/>
      <use xlink:href="#DejaVuSans-74" x="821.533203"/>
      <use xlink:href="#DejaVuSans-68" x="860.742188"/>
      <use xlink:href="#DejaVuSans-65" x="924.121094"/>
      <use xlink:href="#DejaVuSans-6f" x="985.644531"/>
      <use xlink:href="#DejaVuSans-72" x="1046.826172"/>
      <use xlink:href="#DejaVuSans-79" x="1087.939453"/>
     </g>
    </g>
   </g>
  </g>
 </g>
 <defs>
  <clipPath id="p70c33b6aab">
   <rect x="15.88125" y="7.2" width="135.29" height="104.9"/>
  </clipPath>
 </defs>
</svg>
