<?xml version="1.0" encoding="utf-8" standalone="no"?>
<!DOCTYPE svg PUBLIC "-//W3C//DTD SVG 1.1//EN"
  "http://www.w3.org/Graphics/SVG/1.1/DTD/svg11.dtd">
<svg xmlns:xlink="http://www.w3.org/1999/xlink" width="208.818437pt" height="172.885937pt" viewBox="0 0 208.818437 172.885937" xmlns="http://www.w3.org/2000/svg" version="1.1">
 <metadata>
  <rdf:RDF xmlns:dc="http://purl.org/dc/elements/1.1/" xmlns:cc="http://creativecommons.org/ns#" xmlns:rdf="http://www.w3.org/1999/02/22-rdf-syntax-ns#">
   <cc:Work>
    <dc:type rdf:resource="http://purl.org/dc/dcmitype/StillImage"/>
    <dc:date>2026-04-22T22:08:10.698092</dc:date>
    <dc:format>image/svg+xml</dc:format>
    <dc:creator>
     <cc:Agent>
      <dc:title>Matplotlib v3.8.2, https://matplotlib.org/</dc:title>
     </cc:Agent>
    </dc:creator>
   </cc:Work>
  </rdf:RDF>
 </metadata>
 <defs>
  <style type="text/css">*{stroke-linejoin: round; stroke-linecap: butt}</style>
 </defs>
 <g id="figure_1">
  <g id="patch_1">
   <path d="M 0 172.885937 
L 208.818437 172.885937 
L 208.818437 0 
L 0 0 
z
" style="fill: #ffffff"/>
  </g>
  <g id="axes_1">
   <g id="patch_2">
    <path d="M 30.458438 145.54 
L 201.618437 145.54 
L 201.618437 7.2 
L 30.458438 7.2 
z
" style="fill: #ffffff"/>
   </g>
   <g id="matplotlib.axis_1">
    <g id="xtick_1">
     <g id="line2d_1">
      <defs>
       <path id="m6a4f4ff778" d="M 0 0 
L 0 2 
" style="stroke: #000000; stroke-width: 0.5"/>
      </defs>
      <g>
       <use xlink:href="#m6a4f4ff778" x="38.23722" y="145.54" style="stroke: #000000; stroke-width: 0.5"/>
      </g>
     </g>
     <g id="text_1">
      <!-- 0.0 -->
      <g transform="translate(34.261439 154.839219) scale(0.05 -0.05)">
       <defs>
        <path id="DejaVuSans-30" d="M 2034 4250 
Q 1547 4250 1301 3770 
Q 1056 3291 1056 2328 
Q 1056 1369 1301 889 
Q 1547 409 2034 409 
Q 2525 409 2770 889 
Q 3016 1369 3016 2328 
Q 3016 3291 2770 3770 
Q 2525 4250 2034 4250 
z
M 2034 4750 
Q 2819 4750 3233 4129 
Q 3647 3509 3647 2328 
Q 3647 1150 3233 529 
Q 2819 -91 2034 -91 
Q 1250 -91 836 529 
Q 422 1150 422 2328 
Q 422 3509 836 4129 
Q 1250 4750 2034 4750 
z
" transform="scale(0.015625)"/>
        <path id="DejaVuSans-2e" d="M 684 794 
L 1344 794 
L 1344 0 
L 684 0 
L 684 794 
z
" transform="scale(0.015625)"/>
       </defs>
       <use xlink:href="#DejaVuSans-30"/>
       <use xlink:href="#DejaVuSans-2e" x="63.623047"/>
       <use xlink:href="#DejaVuSans-30" x="95.410156"/>
      </g>
     </g>
    </g>
    <g id="xtick_2">
     <g id="line2d_2">
      <g>
       <use xlink:href="#m6a4f4ff778" x="69.357935" y="145.54" style="stroke: #000000; stroke-width: 0.5"/>
      </g>
     </g>
     <g id="text_2">
      <!-- 0.2 -->
      <g transform="translate(65.382153 154.839219) scale(0.05 -0.05)">
       <defs>
        <path id="DejaVuSans-32" d="M 1228 531 
L 3431 531 
L 3431 0 
L 469 0 
L 469 531 
Q 828 903 1448 1529 
Q 2069 2156 2228 2338 
Q 2531 2678 2651 2914 
Q 2772 3150 2772 3378 
Q 2772 3750 2511 3984 
Q 2250 4219 1831 4219 
Q 1534 4219 1204 4116 
Q 875 4013 500 3803 
L 500 4441 
Q 881 4594 1212 4672 
Q 1544 4750 1819 4750 
Q 2544 4750 2975 4387 
Q 3406 4025 3406 3419 
Q 3406 3131 3298 2873 
Q 3191 2616 2906 2266 
Q 2828 2175 2409 1742 
Q 1991 1309 1228 531 
z
" transform="scale(0.015625)"/>
       </defs>
       <use xlink:href="#DejaVuSans-30"/>
       <use xlink:href="#DejaVuSans-2e" x="63.623047"/>
       <use xlink:href="#DejaVuSans-32" x="95.410156"/>
      </g>
     </g>
    </g>
    <g id="xtick_3">
     <g id="line2d_3">
      <g>
       <use xlink:href="#m6a4f4ff778" x="100.478649" y="145.54" style="stroke: #000000; stroke-width: 0.5"/>
      </g>
     </g>
     <g id="text_3">
      <!-- 0.4 -->
      <g transform="translate(96.502868 154.839219) scale(0.05 -0.05)">
       <defs>
        <path id="DejaVuSans-34" d="M 2419 4116 
L 825 1625 
L 2419 1625 
L 2419 4116 
z
M 2253 4666 
L 3047 4666 
L 3047 1625 
L 3713 1625 
L 3713 1100 
L 3047 1100 
L 3047 0 
L 2419 0 
L 2419 1100 
L 313 1100 
L 313 1709 
L 2253 4666 
z
" transform="scale(0.015625)"/>
       </defs>
       <use xlink:href="#DejaVuSans-30"/>
       <use xlink:href="#DejaVuSans-2e" x="63.623047"/>
       <use xlink:href="#DejaVuSans-34" x="95.410156"/>
      </g>
     </g>
    </g>
    <g id="xtick_4">
     <g id="line2d_4">
      <g>
       <use xlink:href="#m6a4f4ff778" x="131.599363" y="145.54" style="stroke: #000000; stroke-width: 0.5"/>
      </g>
     </g>
     <g id="text_4">
      <!-- 0.6 -->
      <g transform="translate(127.623582 154.839219) scale(0.05 -0.05)">
       <defs>
        <path id="DejaVuSans-36" d="M 2113 2584 
Q 1688 2584 1439 2293 
Q 1191 2003 1191 1497 
Q 1191 994 1439 701 
Q 1688 409 2113 409 
Q 2538 409 2786 701 
Q 3034 994 3034 1497 
Q 3034 2003 2786 2293 
Q 2538 2584 2113 2584 
z
M 3366 4563 
L 3366 3988 
Q 3128 4100 2886 4159 
Q 2644 4219 2406 4219 
Q 1781 4219 1451 3797 
Q 1122 3375 1075 2522 
Q 1259 2794 1537 2939 
Q 1816 3084 2150 3084 
Q 2853 3084 3261 2657 
Q 3669 2231 3669 1497 
Q 3669 778 3244 343 
Q 2819 -91 2113 -91 
Q 1303 -91 875 529 
Q 447 1150 447 2328 
Q 447 3434 972 4092 
Q 1497 4750 2381 4750 
Q 2619 4750 2861 4703 
Q 3103 4656 3366 4563 
z
" transform="scale(0.015625)"/>
       </defs>
       <use xlink:href="#DejaVuSans-30"/>
       <use xlink:href="#DejaVuSans-2e" x="63.623047"/>
       <use xlink:href="#DejaVuSans-36" x="95.410156"/>
      </g>
     </g>
    </g>
    <g id="xtick_5">
     <g id="line2d_5">
      <g>
       <use xlink:href="#m6a4f4ff778" x="162.720078" y="145.54" style="stroke: #000000; stroke-width: 0.5"/>
      </g>
     </g>
     <g id="text_5">
      <!-- 0.8 -->
      <g transform="translate(158.744296 154.839219) scale(0.05 -0.05)">
       <defs>
        <path id="DejaVuSans-38" d="M 2034 2216 
Q 1584 2216 1326 1975 
Q 1069 1734 1069 1313 
Q 1069 891 1326 650 
Q 1584 409 2034 409 
Q 2484 409 2743 651 
Q 3003 894 3003 1313 
Q 3003 1734 2745 1975 
Q 2488 2216 2034 2216 
z
M 1403 2484 
Q 997 2584 770 2862 
Q 544 3141 544 3541 
Q 544 4100 942 4425 
Q 1341 4750 2034 4750 
Q 2731 4750 3128 4425 
Q 3525 4100 3525 3541 
Q 3525 3141 3298 2862 
Q 3072 2584 2669 2484 
Q 3125 2378 3379 2068 
Q 3634 1759 3634 1313 
Q 3634 634 3220 271 
Q 2806 -91 2034 -91 
Q 1263 -91 848 271 
Q 434 634 434 1313 
Q 434 1759 690 2068 
Q 947 2378 1403 2484 
z
M 1172 3481 
Q 1172 3119 1398 2916 
Q 1625 2713 2034 2713 
Q 2441 2713 2670 2916 
Q 2900 3119 2900 3481 
Q 2900 3844 2670 4047 
Q 2441 4250 2034 4250 
Q 1625 4250 1398 4047 
Q 1172 3844 1172 3481 
z
" transform="scale(0.015625)"/>
       </defs>
       <use xlink:href="#DejaVuSans-30"/>
       <use xlink:href="#DejaVuSans-2e" x="63.623047"/>
       <use xlink:href="#DejaVuSans-38" x="95.410156"/>
      </g>
     </g>
    </g>
    <g id="xtick_6">
     <g id="line2d_6">
      <g>
       <use xlink:href="#m6a4f4ff778" x="193.840792" y="145.54" style="stroke: #000000; stroke-width: 0.5"/>
      </g>
     </g>
     <g id="text_6">
      <!-- 1.0 -->
      <g transform="translate(189.865011 154.839219) scale(0.05 -0.05)">
       <defs>
        <path id="DejaVuSans-31" d="M 794 531 
L 1825 531 
L 1825 4091 
L 703 3866 
L 703 4441 
L 1819 4666 
L 2450 4666 
L 2450 531 
L 3481 531 
L 3481 0 
L 794 0 
L 794 531 
z
" transform="scale(0.015625)"/>
       </defs>
       <use xlink:href="#DejaVuSans-31"/>
       <use xlink:href="#DejaVuSans-2e" x="63.623047"/>
       <use xlink:href="#DejaVuSans-30" x="95.410156"/>
      </g>
     </g>
    </g>
    <g id="text_7">
     <!-- Information Capacity (bits) -->
     <g transform="translate(75.837031 164.438125) scale(0.06 -0.06)">
      <defs>
       <path id="DejaVuSans-49" d="M 628 4666 
L 1259 4666 
L 1259 0 
L 628 0 
L 628 4666 
z
" transform="scale(0.015625)"/>
       <path id="DejaVuSans-6e" d="M 3513 2113 
L 3513 0 
L 2938 0 
L 2938 2094 
Q 2938 2591 2744 2837 
Q 2550 3084 2163 3084 
Q 1697 3084 1428 2787 
Q 1159 2491 1159 1978 
L 1159 0 
L 581 0 
L 581 3500 
L 1159 3500 
L 1159 2956 
Q 1366 3272 1645 3428 
Q 1925 3584 2291 3584 
Q 2894 3584 3203 3211 
Q 3513 2838 3513 2113 
z
" transform="scale(0.015625)"/>
       <path id="DejaVuSans-66" d="M 2375 4863 
L 2375 4384 
L 1825 4384 
Q 1516 4384 1395 4259 
Q 1275 4134 1275 3809 
L 1275 3500 
L 2222 3500 
L 2222 3053 
L 1275 3053 
L 1275 0 
L 697 0 
L 697 3053 
L 147 3053 
L 147 3500 
L 697 3500 
L 697 3744 
Q 697 4328 969 4595 
Q 1241 4863 1831 4863 
L 2375 4863 
z
" transform="scale(0.015625)"/>
       <path id="DejaVuSans-6f" d="M 1959 3097 
Q 1497 3097 1228 2736 
Q 959 2375 959 1747 
Q 959 1119 1226 758 
Q 1494 397 1959 397 
Q 2419 397 2687 759 
Q 2956 1122 2956 1747 
Q 2956 2369 2687 2733 
Q 2419 3097 1959 3097 
z
M 1959 3584 
Q 2709 3584 3137 3096 
Q 3566 2609 3566 1747 
Q 3566 888 3137 398 
Q 2709 -91 1959 -91 
Q 1206 -91 779 398 
Q 353 888 353 1747 
Q 353 2609 779 3096 
Q 1206 3584 1959 3584 
z
" transform="scale(0.015625)"/>
       <path id="DejaVuSans-72" d="M 2631 2963 
Q 2534 3019 2420 3045 
Q 2306 3072 2169 3072 
Q 1681 3072 1420 2755 
Q 1159 2438 1159 1844 
L 1159 0 
L 581 0 
L 581 3500 
L 1159 3500 
L 1159 2956 
Q 1341 3275 1631 3429 
Q 1922 3584 2338 3584 
Q 2397 3584 2469 3576 
Q 2541 3569 2628 3553 
L 2631 2963 
z
" transform="scale(0.015625)"/>
       <path id="DejaVuSans-6d" d="M 3328 2828 
Q 3544 3216 3844 3400 
Q 4144 3584 4550 3584 
Q 5097 3584 5394 3201 
Q 5691 2819 5691 2113 
L 5691 0 
L 5113 0 
L 5113 2094 
Q 5113 2597 4934 2840 
Q 4756 3084 4391 3084 
Q 3944 3084 3684 2787 
Q 3425 2491 3425 1978 
L 3425 0 
L 2847 0 
L 2847 2094 
Q 2847 2600 2669 2842 
Q 2491 3084 2119 3084 
Q 1678 3084 1418 2786 
Q 1159 2488 1159 1978 
L 1159 0 
L 581 0 
L 581 3500 
L 1159 3500 
L 1159 2956 
Q 1356 3278 1631 3431 
Q 1906 3584 2284 3584 
Q 2666 3584 2933 3390 
Q 3200 3197 3328 2828 
z
" transform="scale(0.015625)"/>
       <path id="DejaVuSans-61" d="M 2194 1759 
Q 1497 1759 1228 1600 
Q 959 1441 959 1056 
Q 959 750 1161 570 
Q 1363 391 1709 391 
Q 2188 391 2477 730 
Q 2766 1069 2766 1631 
L 2766 1759 
L 2194 1759 
z
M 3341 1997 
L 3341 0 
L 2766 0 
L 2766 531 
Q 2569 213 2275 61 
Q 1981 -91 1556 -91 
Q 1019 -91 701 211 
Q 384 513 384 1019 
Q 384 1609 779 1909 
Q 1175 2209 1959 2209 
L 2766 2209 
L 2766 2266 
Q 2766 2663 2505 2880 
Q 2244 3097 1772 3097 
Q 1472 3097 1187 3025 
Q 903 2953 641 2809 
L 641 3341 
Q 956 3463 1253 3523 
Q 1550 3584 1831 3584 
Q 2591 3584 2966 3190 
Q 3341 2797 3341 1997 
z
" transform="scale(0.015625)"/>
       <path id="DejaVuSans-74" d="M 1172 4494 
L 1172 3500 
L 2356 3500 
L 2356 3053 
L 1172 3053 
L 1172 1153 
Q 1172 725 1289 603 
Q 1406 481 1766 481 
L 2356 481 
L 2356 0 
L 1766 0 
Q 1100 0 847 248 
Q 594 497 594 1153 
L 594 3053 
L 172 3053 
L 172 3500 
L 594 3500 
L 594 4494 
L 1172 4494 
z
" transform="scale(0.015625)"/>
       <path id="DejaVuSans-69" d="M 603 3500 
L 1178 3500 
L 1178 0 
L 603 0 
L 603 3500 
z
M 603 4863 
L 1178 4863 
L 1178 4134 
L 603 4134 
L 603 4863 
z
" transform="scale(0.015625)"/>
       <path id="DejaVuSans-20" transform="scale(0.015625)"/>
       <path id="DejaVuSans-43" d="M 4122 4306 
L 4122 3641 
Q 3803 3938 3442 4084 
Q 3081 4231 2675 4231 
Q 1875 4231 1450 3742 
Q 1025 3253 1025 2328 
Q 1025 1406 1450 917 
Q 1875 428 2675 428 
Q 3081 428 3442 575 
Q 3803 722 4122 1019 
L 4122 359 
Q 3791 134 3420 21 
Q 3050 -91 2638 -91 
Q 1578 -91 968 557 
Q 359 1206 359 2328 
Q 359 3453 968 4101 
Q 1578 4750 2638 4750 
Q 3056 4750 3426 4639 
Q 3797 4528 4122 4306 
z
" transform="scale(0.015625)"/>
       <path id="DejaVuSans-70" d="M 1159 525 
L 1159 -1331 
L 581 -1331 
L 581 3500 
L 1159 3500 
L 1159 2969 
Q 1341 3281 1617 3432 
Q 1894 3584 2278 3584 
Q 2916 3584 3314 3078 
Q 3713 2572 3713 1747 
Q 3713 922 3314 415 
Q 2916 -91 2278 -91 
Q 1894 -91 1617 61 
Q 1341 213 1159 525 
z
M 3116 1747 
Q 3116 2381 2855 2742 
Q 2594 3103 2138 3103 
Q 1681 3103 1420 2742 
Q 1159 2381 1159 1747 
Q 1159 1113 1420 752 
Q 1681 391 2138 391 
Q 2594 391 2855 752 
Q 3116 1113 3116 1747 
z
" transform="scale(0.015625)"/>
       <path id="DejaVuSans-63" d="M 3122 3366 
L 3122 2828 
Q 2878 2963 2633 3030 
Q 2388 3097 2138 3097 
Q 1578 3097 1268 2742 
Q 959 2388 959 1747 
Q 959 1106 1268 751 
Q 1578 397 2138 397 
Q 2388 397 2633 464 
Q 2878 531 3122 666 
L 3122 134 
Q 2881 22 2623 -34 
Q 2366 -91 2075 -91 
Q 1284 -91 818 406 
Q 353 903 353 1747 
Q 353 2603 823 3093 
Q 1294 3584 2113 3584 
Q 2378 3584 2631 3529 
Q 2884 3475 3122 3366 
z
" transform="scale(0.015625)"/>
       <path id="DejaVuSans-79" d="M 2059 -325 
Q 1816 -950 1584 -1140 
Q 1353 -1331 966 -1331 
L 506 -1331 
L 506 -850 
L 844 -850 
Q 1081 -850 1212 -737 
Q 1344 -625 1503 -206 
L 1606 56 
L 191 3500 
L 800 3500 
L 1894 763 
L 2988 3500 
L 3597 3500 
L 2059 -325 
z
" transform="scale(0.015625)"/>
       <path id="DejaVuSans-28" d="M 1984 4856 
Q 1566 4138 1362 3434 
Q 1159 2731 1159 2009 
Q 1159 1288 1364 580 
Q 1569 -128 1984 -844 
L 1484 -844 
Q 1016 -109 783 600 
Q 550 1309 550 2009 
Q 550 2706 781 3412 
Q 1013 4119 1484 4856 
L 1984 4856 
z
" transform="scale(0.015625)"/>
       <path id="DejaVuSans-62" d="M 3116 1747 
Q 3116 2381 2855 2742 
Q 2594 3103 2138 3103 
Q 1681 3103 1420 2742 
Q 1159 2381 1159 1747 
Q 1159 1113 1420 752 
Q 1681 391 2138 391 
Q 2594 391 2855 752 
Q 3116 1113 3116 1747 
z
M 1159 2969 
Q 1341 3281 1617 3432 
Q 1894 3584 2278 3584 
Q 2916 3584 3314 3078 
Q 3713 2572 3713 1747 
Q 3713 922 3314 415 
Q 2916 -91 2278 -91 
Q 1894 -91 1617 61 
Q 1341 213 1159 525 
L 1159 0 
L 581 0 
L 581 4863 
L 1159 4863 
L 1159 2969 
z
" transform="scale(0.015625)"/>
       <path id="DejaVuSans-73" d="M 2834 3397 
L 2834 2853 
Q 2591 2978 2328 3040 
Q 2066 3103 1784 3103 
Q 1356 3103 1142 2972 
Q 928 2841 928 2578 
Q 928 2378 1081 2264 
Q 1234 2150 1697 2047 
L 1894 2003 
Q 2506 1872 2764 1633 
Q 3022 1394 3022 966 
Q 3022 478 2636 193 
Q 2250 -91 1575 -91 
Q 1294 -91 989 -36 
Q 684 19 347 128 
L 347 722 
Q 666 556 975 473 
Q 1284 391 1588 391 
Q 1994 391 2212 530 
Q 2431 669 2431 922 
Q 2431 1156 2273 1281 
Q 2116 1406 1581 1522 
L 1381 1569 
Q 847 1681 609 1914 
Q 372 2147 372 2553 
Q 372 3047 722 3315 
Q 1072 3584 1716 3584 
Q 2034 3584 2315 3537 
Q 2597 3491 2834 3397 
z
" transform="scale(0.015625)"/>
       <path id="DejaVuSans-29" d="M 513 4856 
L 1013 4856 
Q 1481 4119 1714 3412 
Q 1947 2706 1947 2009 
Q 1947 1309 1714 600 
Q 1481 -109 1013 -844 
L 513 -844 
Q 928 -128 1133 580 
Q 1338 1288 1338 2009 
Q 1338 2731 1133 3434 
Q 928 4138 513 4856 
z
" transform="scale(0.015625)"/>
      </defs>
      <use xlink:href="#DejaVuSans-49"/>
      <use xlink:href="#DejaVuSans-6e" x="29.492188"/>
      <use xlink:href="#DejaVuSans-66" x="92.871094"/>
      <use xlink:href="#DejaVuSans-6f" x="128.076172"/>
      <use xlink:href="#DejaVuSans-72" x="189.257812"/>
      <use xlink:href="#DejaVuSans-6d" x="228.621094"/>
      <use xlink:href="#DejaVuSans-61" x="326.033203"/>
      <use xlink:href="#DejaVuSans-74" x="387.3125"/>
      <use xlink:href="#DejaVuSans-69" x="426.521484"/>
      <use xlink:href="#DejaVuSans-6f" x="454.304688"/>
      <use xlink:href="#DejaVuSans-6e" x="515.486328"/>
      <use xlink:href="#DejaVuSans-20" x="578.865234"/>
      <use xlink:href="#DejaVuSans-43" x="610.652344"/>
      <use xlink:href="#DejaVuSans-61" x="680.476562"/>
      <use xlink:href="#DejaVuSans-70" x="741.755859"/>
      <use xlink:href="#DejaVuSans-61" x="805.232422"/>
      <use xlink:href="#DejaVuSans-63" x="866.511719"/>
      <use xlink:href="#DejaVuSans-69" x="921.492188"/>
      <use xlink:href="#DejaVuSans-74" x="949.275391"/>
      <use xlink:href="#DejaVuSans-79" x="988.484375"/>
      <use xlink:href="#DejaVuSans-20" x="1047.664062"/>
      <use xlink:href="#DejaVuSans-28" x="1079.451172"/>
      <use xlink:href="#DejaVuSans-62" x="1118.464844"/>
      <use xlink:href="#DejaVuSans-69" x="1181.941406"/>
      <use xlink:href="#DejaVuSans-74" x="1209.724609"/>
      <use xlink:href="#DejaVuSans-73" x="1248.933594"/>
      <use xlink:href="#DejaVuSans-29" x="1301.033203"/>
     </g>
    </g>
   </g>
   <g id="matplotlib.axis_2">
    <g id="ytick_1">
     <g id="line2d_7">
      <defs>
       <path id="m0e6ee4476d" d="M 0 0 
L -2 0 
" style="stroke: #000000; stroke-width: 0.5"/>
      </defs>
      <g>
       <use xlink:href="#m0e6ee4476d" x="30.458438" y="129.476098" style="stroke: #000000; stroke-width: 0.5"/>
      </g>
     </g>
     <g id="text_8">
      <!-- 0.2 -->
      <g transform="translate(17.006875 131.375707) scale(0.05 -0.05)">
       <use xlink:href="#DejaVuSans-30"/>
       <use xlink:href="#DejaVuSans-2e" x="63.623047"/>
       <use xlink:href="#DejaVuSans-32" x="95.410156"/>
      </g>
     </g>
    </g>
    <g id="ytick_2">
     <g id="line2d_8">
      <g>
       <use xlink:href="#m0e6ee4476d" x="30.458438" y="111.774065" style="stroke: #000000; stroke-width: 0.5"/>
      </g>
     </g>
     <g id="text_9">
      <!-- 0.3 -->
      <g transform="translate(17.006875 113.673675) scale(0.05 -0.05)">
       <defs>
        <path id="DejaVuSans-33" d="M 2597 2516 
Q 3050 2419 3304 2112 
Q 3559 1806 3559 1356 
Q 3559 666 3084 287 
Q 2609 -91 1734 -91 
Q 1441 -91 1130 -33 
Q 819 25 488 141 
L 488 750 
Q 750 597 1062 519 
Q 1375 441 1716 441 
Q 2309 441 2620 675 
Q 2931 909 2931 1356 
Q 2931 1769 2642 2001 
Q 2353 2234 1838 2234 
L 1294 2234 
L 1294 2753 
L 1863 2753 
Q 2328 2753 2575 2939 
Q 2822 3125 2822 3475 
Q 2822 3834 2567 4026 
Q 2313 4219 1838 4219 
Q 1578 4219 1281 4162 
Q 984 4106 628 3988 
L 628 4550 
Q 988 4650 1302 4700 
Q 1616 4750 1894 4750 
Q 2613 4750 3031 4423 
Q 3450 4097 3450 3541 
Q 3450 3153 3228 2886 
Q 3006 2619 2597 2516 
z
" transform="scale(0.015625)"/>
       </defs>
       <use xlink:href="#DejaVuSans-30"/>
       <use xlink:href="#DejaVuSans-2e" x="63.623047"/>
       <use xlink:href="#DejaVuSans-33" x="95.410156"/>
      </g>
     </g>
    </g>
    <g id="ytick_3">
     <g id="line2d_9">
      <g>
       <use xlink:href="#m0e6ee4476d" x="30.458438" y="94.072033" style="stroke: #000000; stroke-width: 0.5"/>
      </g>
     </g>
     <g id="text_10">
      <!-- 0.4 -->
      <g transform="translate(17.006875 95.971642) scale(0.05 -0.05)">
       <use xlink:href="#DejaVuSans-30"/>
       <use xlink:href="#DejaVuSans-2e" x="63.623047"/>
       <use xlink:href="#DejaVuSans-34" x="95.410156"/>
      </g>
     </g>
    </g>
    <g id="ytick_4">
     <g id="line2d_10">
      <g>
       <use xlink:href="#m0e6ee4476d" x="30.458438" y="76.37" style="stroke: #000000; stroke-width: 0.5"/>
      </g>
     </g>
     <g id="text_11">
      <!-- 0.5 -->
      <g transform="translate(17.006875 78.269609) scale(0.05 -0.05)">
       <defs>
        <path id="DejaVuSans-35" d="M 691 4666 
L 3169 4666 
L 3169 4134 
L 1269 4134 
L 1269 2991 
Q 1406 3038 1543 3061 
Q 1681 3084 1819 3084 
Q 2600 3084 3056 2656 
Q 3513 2228 3513 1497 
Q 3513 744 3044 326 
Q 2575 -91 1722 -91 
Q 1428 -91 1123 -41 
Q 819 9 494 109 
L 494 744 
Q 775 591 1075 516 
Q 1375 441 1709 441 
Q 2250 441 2565 725 
Q 2881 1009 2881 1497 
Q 2881 1984 2565 2268 
Q 2250 2553 1709 2553 
Q 1456 2553 1204 2497 
Q 953 2441 691 2322 
L 691 4666 
z
" transform="scale(0.015625)"/>
       </defs>
       <use xlink:href="#DejaVuSans-30"/>
       <use xlink:href="#DejaVuSans-2e" x="63.623047"/>
       <use xlink:href="#DejaVuSans-35" x="95.410156"/>
      </g>
     </g>
    </g>
    <g id="ytick_5">
     <g id="line2d_11">
      <g>
       <use xlink:href="#m0e6ee4476d" x="30.458438" y="58.667967" style="stroke: #000000; stroke-width: 0.5"/>
      </g>
     </g>
     <g id="text_12">
      <!-- 0.6 -->
      <g transform="translate(17.006875 60.567577) scale(0.05 -0.05)">
       <use xlink:href="#DejaVuSans-30"/>
       <use xlink:href="#DejaVuSans-2e" x="63.623047"/>
       <use xlink:href="#DejaVuSans-36" x="95.410156"/>
      </g>
     </g>
    </g>
    <g id="ytick_6">
     <g id="line2d_12">
      <g>
       <use xlink:href="#m0e6ee4476d" x="30.458438" y="40.965935" style="stroke: #000000; stroke-width: 0.5"/>
      </g>
     </g>
     <g id="text_13">
      <!-- 0.7 -->
      <g transform="translate(17.006875 42.865544) scale(0.05 -0.05)">
       <defs>
        <path id="DejaVuSans-37" d="M 525 4666 
L 3525 4666 
L 3525 4397 
L 1831 0 
L 1172 0 
L 2766 4134 
L 525 4134 
L 525 4666 
z
" transform="scale(0.015625)"/>
       </defs>
       <use xlink:href="#DejaVuSans-30"/>
       <use xlink:href="#DejaVuSans-2e" x="63.623047"/>
       <use xlink:href="#DejaVuSans-37" x="95.410156"/>
      </g>
     </g>
    </g>
    <g id="ytick_7">
     <g id="line2d_13">
      <g>
       <use xlink:href="#m0e6ee4476d" x="30.458438" y="23.263902" style="stroke: #000000; stroke-width: 0.5"/>
      </g>
     </g>
     <g id="text_14">
      <!-- 0.8 -->
      <g transform="translate(17.006875 25.163511) scale(0.05 -0.05)">
       <use xlink:href="#DejaVuSans-30"/>
       <use xlink:href="#DejaVuSans-2e" x="63.623047"/>
       <use xlink:href="#DejaVuSans-38" x="95.410156"/>
      </g>
     </g>
    </g>
    <g id="text_15">
     <!-- Marginal probability choose Jar 0 -->
     <g transform="translate(11.759063 125.604219) rotate(-90) scale(0.06 -0.06)">
      <defs>
       <path id="DejaVuSans-4d" d="M 628 4666 
L 1569 4666 
L 2759 1491 
L 3956 4666 
L 4897 4666 
L 4897 0 
L 4281 0 
L 4281 4097 
L 3078 897 
L 2444 897 
L 1241 4097 
L 1241 0 
L 628 0 
L 628 4666 
z
" transform="scale(0.015625)"/>
       <path id="DejaVuSans-67" d="M 2906 1791 
Q 2906 2416 2648 2759 
Q 2391 3103 1925 3103 
Q 1463 3103 1205 2759 
Q 947 2416 947 1791 
Q 947 1169 1205 825 
Q 1463 481 1925 481 
Q 2391 481 2648 825 
Q 2906 1169 2906 1791 
z
M 3481 434 
Q 3481 -459 3084 -895 
Q 2688 -1331 1869 -1331 
Q 1566 -1331 1297 -1286 
Q 1028 -1241 775 -1147 
L 775 -588 
Q 1028 -725 1275 -790 
Q 1522 -856 1778 -856 
Q 2344 -856 2625 -561 
Q 2906 -266 2906 331 
L 2906 616 
Q 2728 306 2450 153 
Q 2172 0 1784 0 
Q 1141 0 747 490 
Q 353 981 353 1791 
Q 353 2603 747 3093 
Q 1141 3584 1784 3584 
Q 2172 3584 2450 3431 
Q 2728 3278 2906 2969 
L 2906 3500 
L 3481 3500 
L 3481 434 
z
" transform="scale(0.015625)"/>
       <path id="DejaVuSans-6c" d="M 603 4863 
L 1178 4863 
L 1178 0 
L 603 0 
L 603 4863 
z
" transform="scale(0.015625)"/>
       <path id="DejaVuSans-68" d="M 3513 2113 
L 3513 0 
L 2938 0 
L 2938 2094 
Q 2938 2591 2744 2837 
Q 2550 3084 2163 3084 
Q 1697 3084 1428 2787 
Q 1159 2491 1159 1978 
L 1159 0 
L 581 0 
L 581 4863 
L 1159 4863 
L 1159 2956 
Q 1366 3272 1645 3428 
Q 1925 3584 2291 3584 
Q 2894 3584 3203 3211 
Q 3513 2838 3513 2113 
z
" transform="scale(0.015625)"/>
       <path id="DejaVuSans-65" d="M 3597 1894 
L 3597 1613 
L 953 1613 
Q 991 1019 1311 708 
Q 1631 397 2203 397 
Q 2534 397 2845 478 
Q 3156 559 3463 722 
L 3463 178 
Q 3153 47 2828 -22 
Q 2503 -91 2169 -91 
Q 1331 -91 842 396 
Q 353 884 353 1716 
Q 353 2575 817 3079 
Q 1281 3584 2069 3584 
Q 2775 3584 3186 3129 
Q 3597 2675 3597 1894 
z
M 3022 2063 
Q 3016 2534 2758 2815 
Q 2500 3097 2075 3097 
Q 1594 3097 1305 2825 
Q 1016 2553 972 2059 
L 3022 2063 
z
" transform="scale(0.015625)"/>
       <path id="DejaVuSans-4a" d="M 628 4666 
L 1259 4666 
L 1259 325 
Q 1259 -519 939 -900 
Q 619 -1281 -91 -1281 
L -331 -1281 
L -331 -750 
L -134 -750 
Q 284 -750 456 -515 
Q 628 -281 628 325 
L 628 4666 
z
" transform="scale(0.015625)"/>
      </defs>
      <use xlink:href="#DejaVuSans-4d"/>
      <use xlink:href="#DejaVuSans-61" x="86.279297"/>
      <use xlink:href="#DejaVuSans-72" x="147.558594"/>
      <use xlink:href="#DejaVuSans-67" x="186.921875"/>
      <use xlink:href="#DejaVuSans-69" x="250.398438"/>
      <use xlink:href="#DejaVuSans-6e" x="278.181641"/>
      <use xlink:href="#DejaVuSans-61" x="341.560547"/>
      <use xlink:href="#DejaVuSans-6c" x="402.839844"/>
      <use xlink:href="#DejaVuSans-20" x="430.623047"/>
      <use xlink:href="#DejaVuSans-70" x="462.410156"/>
      <use xlink:href="#DejaVuSans-72" x="525.886719"/>
      <use xlink:href="#DejaVuSans-6f" x="564.75"/>
      <use xlink:href="#DejaVuSans-62" x="625.931641"/>
      <use xlink:href="#DejaVuSans-61" x="689.408203"/>
      <use xlink:href="#DejaVuSans-62" x="750.6875"/>
      <use xlink:href="#DejaVuSans-69" x="814.164062"/>
      <use xlink:href="#DejaVuSans-6c" x="841.947266"/>
      <use xlink:href="#DejaVuSans-69" x="869.730469"/>
      <use xlink:href="#DejaVuSans-74" x="897.513672"/>
      <use xlink:href="#DejaVuSans-79" x="936.722656"/>
      <use xlink:href="#DejaVuSans-20" x="995.902344"/>
      <use xlink:href="#DejaVuSans-63" x="1027.689453"/>
      <use xlink:href="#DejaVuSans-68" x="1082.669922"/>
      <use xlink:href="#DejaVuSans-6f" x="1146.048828"/>
      <use xlink:href="#DejaVuSans-6f" x="1207.230469"/>
      <use xlink:href="#DejaVuSans-73" x="1268.412109"/>
      <use xlink:href="#DejaVuSans-65" x="1320.511719"/>
      <use xlink:href="#DejaVuSans-20" x="1382.035156"/>
      <use xlink:href="#DejaVuSans-4a" x="1413.822266"/>
      <use xlink:href="#DejaVuSans-61" x="1443.314453"/>
      <use xlink:href="#DejaVuSans-72" x="1504.59375"/>
      <use xlink:href="#DejaVuSans-20" x="1545.707031"/>
      <use xlink:href="#DejaVuSans-30" x="1577.494141"/>
     </g>
    </g>
   </g>
   <g id="line2d_14">
    <path d="M 38.238438 76.37 
L 193.838437 76.37 
L 193.838437 76.37 
" clip-path="url(#p4b73e33ec6)" style="fill: none; stroke: #000000; stroke-width: 0.7; stroke-linecap: square"/>
   </g>
   <g id="line2d_15">
    <path d="M 38.238438 76.281491 
L 38.384329 75.397703 
L 38.7718 74.5204 
L 39.396608 73.655322 
L 40.349887 72.724354 
L 41.693532 71.740982 
L 43.484139 70.722211 
L 45.768531 69.688204 
L 48.579229 68.661465 
L 52.150496 67.606849 
L 56.290639 66.620771 
L 61.209599 65.681781 
L 66.867702 64.83061 
L 73.437324 64.073874 
L 80.770917 63.456115 
L 89.148649 62.980469 
L 98.435655 62.680977 
L 108.934954 62.571595 
L 120.757317 62.676566 
L 134.631104 63.029372 
L 152.991823 63.7363 
L 175.231536 64.800616 
L 177.84977 65.150973 
L 180.19545 65.694423 
L 183.04584 66.601962 
L 188.270695 68.296337 
L 188.270695 68.296337 
" clip-path="url(#p4b73e33ec6)" style="fill: none; stroke: #1f77b4; stroke-width: 0.7; stroke-linecap: square"/>
   </g>
   <g id="line2d_16">
    <path d="M 38.238438 76.458509 
L 38.384329 77.342297 
L 38.7718 78.2196 
L 39.396608 79.084678 
L 40.349887 80.015646 
L 41.693532 80.999018 
L 43.484139 82.017789 
L 45.768531 83.051796 
L 48.579229 84.078535 
L 52.150496 85.133151 
L 56.290639 86.119229 
L 61.209599 87.058219 
L 66.867702 87.90939 
L 73.437324 88.666126 
L 80.770917 89.283885 
L 89.148649 89.759531 
L 98.435655 90.059023 
L 108.934954 90.168405 
L 120.757317 90.063434 
L 134.631104 89.710628 
L 152.991823 89.0037 
L 175.231536 87.939384 
L 177.84977 87.589027 
L 180.19545 87.045577 
L 183.04584 86.138038 
L 188.270695 84.443663 
L 188.270695 84.443663 
" clip-path="url(#p4b73e33ec6)" style="fill: none; stroke: #aec7e8; stroke-width: 0.7; stroke-linecap: square"/>
   </g>
   <g id="line2d_17">
    <path d="M 38.238438 76.192982 
L 38.384276 74.42564 
L 38.771098 72.672407 
L 39.393317 70.945693 
L 40.242106 69.257155 
L 41.30574 67.6174 
L 42.706893 65.881097 
L 44.329216 64.225446 
L 46.323491 62.520743 
L 48.520672 60.929105 
L 51.092085 59.337458 
L 54.038233 57.779643 
L 57.345346 56.288244 
L 60.985608 54.892593 
L 64.918726 53.617032 
L 69.325908 52.422441 
L 74.138523 51.353816 
L 79.268338 50.443647 
L 84.824154 49.685573 
L 90.859736 49.093104 
L 97.361746 48.686998 
L 104.248874 48.481742 
L 111.936506 48.481324 
L 120.687507 48.713306 
L 131.610302 49.240332 
L 177.280689 51.91945 
L 184.840868 52.610717 
L 185.272593 52.689222 
L 185.272593 52.689222 
" clip-path="url(#p4b73e33ec6)" style="fill: none; stroke: #ff7f0e; stroke-width: 0.7; stroke-linecap: square"/>
   </g>
   <g id="line2d_18">
    <path d="M 38.238438 76.547018 
L 38.384276 78.31436 
L 38.771098 80.067593 
L 39.393317 81.794307 
L 40.242106 83.482845 
L 41.30574 85.1226 
L 42.706893 86.858903 
L 44.329216 88.514554 
L 46.323491 90.219257 
L 48.520672 91.810895 
L 51.092085 93.402542 
L 54.038233 94.960357 
L 57.345346 96.451756 
L 60.985608 97.847407 
L 64.918726 99.122968 
L 69.325908 100.317559 
L 74.138523 101.386184 
L 79.268338 102.296353 
L 84.824154 103.054427 
L 90.859736 103.646896 
L 97.361746 104.053002 
L 104.248874 104.258258 
L 111.936506 104.258676 
L 120.687507 104.026694 
L 131.610302 103.499668 
L 177.280689 100.82055 
L 184.840868 100.129283 
L 185.272593 100.050778 
L 185.272593 100.050778 
" clip-path="url(#p4b73e33ec6)" style="fill: none; stroke: #ffbb78; stroke-width: 0.7; stroke-linecap: square"/>
   </g>
   <g id="line2d_19">
    <path d="M 38.238438 76.104473 
L 38.384187 73.454046 
L 38.769931 70.827623 
L 39.387859 68.246126 
L 40.225762 65.728867 
L 41.267661 63.292949 
L 42.494593 60.952829 
L 44.032733 58.503063 
L 45.7395 56.194405 
L 47.758238 53.84501 
L 50.086724 51.503314 
L 52.518077 49.372194 
L 55.204701 47.305685 
L 58.113283 45.340872 
L 61.393278 43.402145 
L 64.795553 41.649767 
L 68.443028 40.020052 
L 72.255782 38.556259 
L 76.31051 37.238292 
L 80.49817 36.110755 
L 84.853455 35.169274 
L 89.381708 34.421724 
L 94.070189 33.876799 
L 98.9909 33.531095 
L 104.331659 33.382121 
L 110.434235 33.442051 
L 117.914291 33.749419 
L 129.881995 34.49906 
L 141.101406 35.128846 
L 146.634381 35.222508 
L 150.64613 35.076628 
L 153.930936 34.739021 
L 157.036504 34.193156 
L 160.417954 33.372771 
L 160.430689 33.348406 
L 160.430689 33.348406 
" clip-path="url(#p4b73e33ec6)" style="fill: none; stroke: #2ca02c; stroke-width: 0.7; stroke-linecap: square"/>
   </g>
   <g id="line2d_20">
    <path d="M 38.238438 76.635527 
L 38.384187 79.285954 
L 38.769931 81.912377 
L 39.387859 84.493874 
L 40.225762 87.011133 
L 41.267661 89.447051 
L 42.494593 91.787171 
L 44.032733 94.236937 
L 45.7395 96.545595 
L 47.758238 98.89499 
L 50.086724 101.236686 
L 52.518077 103.367806 
L 55.204701 105.434315 
L 58.113283 107.399128 
L 61.393278 109.337855 
L 64.795553 111.090233 
L 68.443028 112.719948 
L 72.255782 114.183741 
L 76.31051 115.501708 
L 80.49817 116.629245 
L 84.853455 117.570726 
L 89.381708 118.318276 
L 94.070189 118.863201 
L 98.9909 119.208905 
L 104.331659 119.357879 
L 110.434235 119.297949 
L 117.914291 118.990581 
L 129.881995 118.24094 
L 141.101406 117.611154 
L 146.634381 117.517492 
L 150.64613 117.663372 
L 153.930936 118.000979 
L 157.036504 118.546844 
L 160.417954 119.367229 
L 160.430689 119.391594 
L 160.430689 119.391594 
" clip-path="url(#p4b73e33ec6)" style="fill: none; stroke: #98df8a; stroke-width: 0.7; stroke-linecap: square"/>
   </g>
   <g id="line2d_21">
    <path d="M 38.238438 76.015965 
L 38.384063 72.483154 
L 38.768301 68.987637 
L 39.380275 65.56156 
L 40.203174 62.233956 
L 41.215382 59.029671 
L 42.517459 55.67107 
L 43.982066 52.505113 
L 45.721771 49.284961 
L 47.721304 46.078499 
L 49.948002 42.950573 
L 52.354001 39.958215 
L 55.035947 36.9834 
L 57.906064 34.127852 
L 61.128568 31.240467 
L 64.623235 28.412809 
L 68.42485 25.624483 
L 72.514843 22.900564 
L 76.525535 20.48854 
L 79.91417 18.696853 
L 82.698512 17.467702 
L 85.222006 16.593216 
L 87.754586 15.950972 
L 90.506654 15.486036 
L 93.670794 15.182796 
L 97.504266 15.046719 
L 102.490214 15.104634 
L 119.324507 15.486172 
L 121.753266 15.22088 
L 123.376772 14.833238 
L 124.537447 14.334157 
L 125.959625 13.488182 
L 125.959625 13.488182 
" clip-path="url(#p4b73e33ec6)" style="fill: none; stroke: #d62728; stroke-width: 0.7; stroke-linecap: square"/>
   </g>
   <g id="line2d_22">
    <path d="M 38.238438 76.724035 
L 38.384063 80.256846 
L 38.768301 83.752363 
L 39.380275 87.17844 
L 40.203174 90.506044 
L 41.215382 93.710329 
L 42.517459 97.06893 
L 43.982066 100.234887 
L 45.721771 103.455039 
L 47.721304 106.661501 
L 49.948002 109.789427 
L 52.354001 112.781785 
L 55.035947 115.7566 
L 57.906064 118.612148 
L 61.128568 121.499533 
L 64.623235 124.327191 
L 68.42485 127.115517 
L 72.514843 129.839436 
L 76.525535 132.25146 
L 79.91417 134.043147 
L 82.698512 135.272298 
L 85.222006 136.146784 
L 87.754586 136.789028 
L 90.506654 137.253964 
L 93.670794 137.557204 
L 97.504266 137.693281 
L 102.490214 137.635366 
L 119.324507 137.253828 
L 121.753266 137.51912 
L 123.376772 137.906762 
L 124.537447 138.405843 
L 125.959625 139.251818 
L 125.959625 139.251818 
" clip-path="url(#p4b73e33ec6)" style="fill: none; stroke: #ff9896; stroke-width: 0.7; stroke-linecap: square"/>
   </g>
   <g id="line2d_23">
    <defs>
     <path id="m2b4383c721" d="M -1.5 1.5 
L 1.5 -1.5 
M -1.5 -1.5 
L 1.5 1.5 
" style="stroke: #000000; stroke-width: 0.4"/>
    </defs>
    <g clip-path="url(#p4b73e33ec6)">
     <use xlink:href="#m2b4383c721" x="57.919657" y="93.481965" style="stroke: #000000; stroke-width: 0.4"/>
     <use xlink:href="#m2b4383c721" x="77.401438" y="76.074966" style="stroke: #000000; stroke-width: 0.4"/>
     <use xlink:href="#m2b4383c721" x="118.460353" y="71.05939" style="stroke: #000000; stroke-width: 0.4"/>
     <use xlink:href="#m2b4383c721" x="149.314473" y="81.090542" style="stroke: #000000; stroke-width: 0.4"/>
     <use xlink:href="#m2b4383c721" x="167.58809" y="79.320339" style="stroke: #000000; stroke-width: 0.4"/>
     <use xlink:href="#m2b4383c721" x="116.091819" y="68.109051" style="stroke: #000000; stroke-width: 0.4"/>
     <use xlink:href="#m2b4383c721" x="77.729805" y="66.338848" style="stroke: #000000; stroke-width: 0.4"/>
     <use xlink:href="#m2b4383c721" x="162.647049" y="75.031191" style="stroke: #000000; stroke-width: 0.4"/>
     <use xlink:href="#m2b4383c721" x="68.126146" y="76.37" style="stroke: #000000; stroke-width: 0.4"/>
     <use xlink:href="#m2b4383c721" x="63.410997" y="70.174289" style="stroke: #000000; stroke-width: 0.4"/>
     <use xlink:href="#m2b4383c721" x="142.743859" y="72.53456" style="stroke: #000000; stroke-width: 0.4"/>
     <use xlink:href="#m2b4383c721" x="104.846391" y="70.764356" style="stroke: #000000; stroke-width: 0.4"/>
     <use xlink:href="#m2b4383c721" x="138.244233" y="74.009729" style="stroke: #000000; stroke-width: 0.4"/>
     <use xlink:href="#m2b4383c721" x="153.747526" y="76.074966" style="stroke: #000000; stroke-width: 0.4"/>
     <use xlink:href="#m2b4383c721" x="55.71559" y="103.808151" style="stroke: #000000; stroke-width: 0.4"/>
     <use xlink:href="#m2b4383c721" x="87.986104" y="76.960068" style="stroke: #000000; stroke-width: 0.4"/>
     <use xlink:href="#m2b4383c721" x="101.23563" y="90.82666" style="stroke: #000000; stroke-width: 0.4"/>
     <use xlink:href="#m2b4383c721" x="89.909341" y="56.307696" style="stroke: #000000; stroke-width: 0.4"/>
     <use xlink:href="#m2b4383c721" x="109.334003" y="92.47619" style="stroke: #000000; stroke-width: 0.4"/>
     <use xlink:href="#m2b4383c721" x="123.912999" y="74.599797" style="stroke: #000000; stroke-width: 0.4"/>
     <use xlink:href="#m2b4383c721" x="92.147528" y="74.009729" style="stroke: #000000; stroke-width: 0.4"/>
     <use xlink:href="#m2b4383c721" x="133.973824" y="68.109051" style="stroke: #000000; stroke-width: 0.4"/>
     <use xlink:href="#m2b4383c721" x="118.722568" y="73.419661" style="stroke: #000000; stroke-width: 0.4"/>
     <use xlink:href="#m2b4383c721" x="117.999927" y="80.500474" style="stroke: #000000; stroke-width: 0.4"/>
     <use xlink:href="#m2b4383c721" x="72.804278" y="77.255102" style="stroke: #000000; stroke-width: 0.4"/>
     <use xlink:href="#m2b4383c721" x="111.351177" y="69.289187" style="stroke: #000000; stroke-width: 0.4"/>
     <use xlink:href="#m2b4383c721" x="161.573398" y="72.829593" style="stroke: #000000; stroke-width: 0.4"/>
     <use xlink:href="#m2b4383c721" x="131.276711" y="77.845169" style="stroke: #000000; stroke-width: 0.4"/>
     <use xlink:href="#m2b4383c721" x="131.061983" y="77.995395" style="stroke: #000000; stroke-width: 0.4"/>
     <use xlink:href="#m2b4383c721" x="142.598763" y="72.239526" style="stroke: #000000; stroke-width: 0.4"/>
     <use xlink:href="#m2b4383c721" x="91.429282" y="83.450813" style="stroke: #000000; stroke-width: 0.4"/>
     <use xlink:href="#m2b4383c721" x="150.607154" y="74.599797" style="stroke: #000000; stroke-width: 0.4"/>
     <use xlink:href="#m2b4383c721" x="96.077899" y="73.714695" style="stroke: #000000; stroke-width: 0.4"/>
     <use xlink:href="#m2b4383c721" x="118.176186" y="66.928916" style="stroke: #000000; stroke-width: 0.4"/>
     <use xlink:href="#m2b4383c721" x="97.49715" y="86.99122" style="stroke: #000000; stroke-width: 0.4"/>
     <use xlink:href="#m2b4383c721" x="132.663302" y="76.81329" style="stroke: #000000; stroke-width: 0.4"/>
     <use xlink:href="#m2b4383c721" x="106.79632" y="78.435237" style="stroke: #000000; stroke-width: 0.4"/>
     <use xlink:href="#m2b4383c721" x="140.065824" y="71.649458" style="stroke: #000000; stroke-width: 0.4"/>
     <use xlink:href="#m2b4383c721" x="137.494622" y="86.106118" style="stroke: #000000; stroke-width: 0.4"/>
     <use xlink:href="#m2b4383c721" x="142.058512" y="76.665034" style="stroke: #000000; stroke-width: 0.4"/>
     <use xlink:href="#m2b4383c721" x="112.476736" y="81.385576" style="stroke: #000000; stroke-width: 0.4"/>
     <use xlink:href="#m2b4383c721" x="118.381598" y="66.043814" style="stroke: #000000; stroke-width: 0.4"/>
     <use xlink:href="#m2b4383c721" x="115.281271" y="74.009729" style="stroke: #000000; stroke-width: 0.4"/>
     <use xlink:href="#m2b4383c721" x="133.202801" y="62.208374" style="stroke: #000000; stroke-width: 0.4"/>
     <use xlink:href="#m2b4383c721" x="137.236763" y="78.140203" style="stroke: #000000; stroke-width: 0.4"/>
     <use xlink:href="#m2b4383c721" x="132.197406" y="81.385576" style="stroke: #000000; stroke-width: 0.4"/>
     <use xlink:href="#m2b4383c721" x="120.850458" y="70.764356" style="stroke: #000000; stroke-width: 0.4"/>
     <use xlink:href="#m2b4383c721" x="100.103673" y="75.779932" style="stroke: #000000; stroke-width: 0.4"/>
     <use xlink:href="#m2b4383c721" x="60.952098" y="91.416728" style="stroke: #000000; stroke-width: 0.4"/>
     <use xlink:href="#m2b4383c721" x="60.201205" y="81.090542" style="stroke: #000000; stroke-width: 0.4"/>
     <use xlink:href="#m2b4383c721" x="106.193834" y="68.404085" style="stroke: #000000; stroke-width: 0.4"/>
     <use xlink:href="#m2b4383c721" x="130.718837" y="77.258062" style="stroke: #000000; stroke-width: 0.4"/>
     <use xlink:href="#m2b4383c721" x="104.859981" y="54.242459" style="stroke: #000000; stroke-width: 0.4"/>
    </g>
   </g>
   <g id="line2d_24">
    <defs>
     <path id="mad70109d36" d="M -1.5 1.5 
L 1.5 -1.5 
M -1.5 -1.5 
L 1.5 1.5 
" style="stroke: #ff0000; stroke-width: 0.8"/>
    </defs>
    <g clip-path="url(#p4b73e33ec6)">
     <use xlink:href="#mad70109d36" x="55.71559" y="103.808151" style="fill: #ff0000; stroke: #ff0000; stroke-width: 0.8"/>
    </g>
   </g>
   <g id="patch_3">
    <path d="M 30.458438 145.54 
L 30.458438 7.2 
" style="fill: none; stroke: #000000; stroke-width: 0.5; stroke-linejoin: miter; stroke-linecap: square"/>
   </g>
   <g id="patch_4">
    <path d="M 30.458438 145.54 
L 201.618437 145.54 
" style="fill: none; stroke: #000000; stroke-width: 0.5; stroke-linejoin: miter; stroke-linecap: square"/>
   </g>
  </g>
 </g>
 <defs>
  <clipPath id="p4b73e33ec6">
   <rect x="30.458438" y="7.2" width="171.16" height="138.34"/>
  </clipPath>
 </defs>
</svg>
