<?xml version="1.0" encoding="utf-8" standalone="no"?>
<!DOCTYPE svg PUBLIC "-//W3C//DTD SVG 1.1//EN"
  "http://www.w3.org/Graphics/SVG/1.1/DTD/svg11.dtd">
<svg xmlns:xlink="http://www.w3.org/1999/xlink" width="93.025406pt" height="85.723062pt" viewBox="0 0 93.025406 85.723062" xmlns="http://www.w3.org/2000/svg" version="1.1">
 <metadata>
  <rdf:RDF xmlns:dc="http://purl.org/dc/elements/1.1/" xmlns:cc="http://creativecommons.org/ns#" xmlns:rdf="http://www.w3.org/1999/02/22-rdf-syntax-ns#">
   <cc:Work>
    <dc:type rdf:resource="http://purl.org/dc/dcmitype/StillImage"/>
    <dc:date>2026-04-22T02:35:48.164376</dc:date>
    <dc:format>image/svg+xml</dc:format>
    <dc:creator>
     <cc:Agent>
      <dc:title>Matplotlib v3.8.2, https://matplotlib.org/</dc:title>
     </cc:Agent>
    </dc:creator>
   </cc:Work>
  </rdf:RDF>
 </metadata>
 <defs>
  <style type="text/css">*{stroke-linejoin: round; stroke-linecap: butt}</style>
 </defs>
 <g id="figure_1">
  <g id="patch_1">
   <path d="M -0 85.723062 
L 93.025406 85.723062 
L 93.025406 0 
L -0 0 
z
" style="fill: #ffffff"/>
  </g>
  <g id="axes_1">
   <g id="patch_2">
    <path d="M 24.841406 68.184 
L 85.825406 68.184 
L 85.825406 7.2 
L 24.841406 7.2 
z
" style="fill: #ffffff"/>
   </g>
   <g id="line2d_1">
    <path d="M 24.841406 37.692 
L 85.825406 37.692 
" clip-path="url(#p5ed84559bf)" style="fill: none; stroke-dasharray: 1.11,0.48; stroke-dashoffset: 0; stroke: #000000; stroke-width: 0.3"/>
   </g>
   <g id="line2d_2">
    <path d="M 55.333406 68.184 
L 55.333406 7.2 
" clip-path="url(#p5ed84559bf)" style="fill: none; stroke-dasharray: 1.11,0.48; stroke-dashoffset: 0; stroke: #000000; stroke-width: 0.3"/>
   </g>
   <g id="matplotlib.axis_1">
    <g id="xtick_1">
     <g id="line2d_3">
      <defs>
       <path id="mbbc89a7134" d="M 0 0 
L 0 2 
" style="stroke: #000000; stroke-width: 0.5"/>
      </defs>
      <g>
       <use xlink:href="#mbbc89a7134" x="38.393406" y="68.184" style="stroke: #000000; stroke-width: 0.5"/>
      </g>
     </g>
     <g id="text_1">
      <!-- −0.25 -->
      <g transform="translate(30.732078 77.483219) scale(0.05 -0.05)">
       <defs>
        <path id="DejaVuSans-2212" d="M 678 2272 
L 4684 2272 
L 4684 1741 
L 678 1741 
L 678 2272 
z
" transform="scale(0.015625)"/>
        <path id="DejaVuSans-30" d="M 2034 4250 
Q 1547 4250 1301 3770 
Q 1056 3291 1056 2328 
Q 1056 1369 1301 889 
Q 1547 409 2034 409 
Q 2525 409 2770 889 
Q 3016 1369 3016 2328 
Q 3016 3291 2770 3770 
Q 2525 4250 2034 4250 
z
M 2034 4750 
Q 2819 4750 3233 4129 
Q 3647 3509 3647 2328 
Q 3647 1150 3233 529 
Q 2819 -91 2034 -91 
Q 1250 -91 836 529 
Q 422 1150 422 2328 
Q 422 3509 836 4129 
Q 1250 4750 2034 4750 
z
" transform="scale(0.015625)"/>
        <path id="DejaVuSans-2e" d="M 684 794 
L 1344 794 
L 1344 0 
L 684 0 
L 684 794 
z
" transform="scale(0.015625)"/>
        <path id="DejaVuSans-32" d="M 1228 531 
L 3431 531 
L 3431 0 
L 469 0 
L 469 531 
Q 828 903 1448 1529 
Q 2069 2156 2228 2338 
Q 2531 2678 2651 2914 
Q 2772 3150 2772 3378 
Q 2772 3750 2511 3984 
Q 2250 4219 1831 4219 
Q 1534 4219 1204 4116 
Q 875 4013 500 3803 
L 500 4441 
Q 881 4594 1212 4672 
Q 1544 4750 1819 4750 
Q 2544 4750 2975 4387 
Q 3406 4025 3406 3419 
Q 3406 3131 3298 2873 
Q 3191 2616 2906 2266 
Q 2828 2175 2409 1742 
Q 1991 1309 1228 531 
z
" transform="scale(0.015625)"/>
        <path id="DejaVuSans-35" d="M 691 4666 
L 3169 4666 
L 3169 4134 
L 1269 4134 
L 1269 2991 
Q 1406 3038 1543 3061 
Q 1681 3084 1819 3084 
Q 2600 3084 3056 2656 
Q 3513 2228 3513 1497 
Q 3513 744 3044 326 
Q 2575 -91 1722 -91 
Q 1428 -91 1123 -41 
Q 819 9 494 109 
L 494 744 
Q 775 591 1075 516 
Q 1375 441 1709 441 
Q 2250 441 2565 725 
Q 2881 1009 2881 1497 
Q 2881 1984 2565 2268 
Q 2250 2553 1709 2553 
Q 1456 2553 1204 2497 
Q 953 2441 691 2322 
L 691 4666 
z
" transform="scale(0.015625)"/>
       </defs>
       <use xlink:href="#DejaVuSans-2212"/>
       <use xlink:href="#DejaVuSans-30" x="83.789062"/>
       <use xlink:href="#DejaVuSans-2e" x="147.412109"/>
       <use xlink:href="#DejaVuSans-32" x="179.199219"/>
       <use xlink:href="#DejaVuSans-35" x="242.822266"/>
      </g>
     </g>
    </g>
    <g id="xtick_2">
     <g id="line2d_4">
      <g>
       <use xlink:href="#mbbc89a7134" x="55.333406" y="68.184" style="stroke: #000000; stroke-width: 0.5"/>
      </g>
     </g>
     <g id="text_2">
      <!-- 0.00 -->
      <g transform="translate(49.767 77.483219) scale(0.05 -0.05)">
       <use xlink:href="#DejaVuSans-30"/>
       <use xlink:href="#DejaVuSans-2e" x="63.623047"/>
       <use xlink:href="#DejaVuSans-30" x="95.410156"/>
       <use xlink:href="#DejaVuSans-30" x="159.033203"/>
      </g>
     </g>
    </g>
    <g id="xtick_3">
     <g id="line2d_5">
      <g>
       <use xlink:href="#mbbc89a7134" x="72.273406" y="68.184" style="stroke: #000000; stroke-width: 0.5"/>
      </g>
     </g>
     <g id="text_3">
      <!-- 0.25 -->
      <g transform="translate(66.707 77.483219) scale(0.05 -0.05)">
       <use xlink:href="#DejaVuSans-30"/>
       <use xlink:href="#DejaVuSans-2e" x="63.623047"/>
       <use xlink:href="#DejaVuSans-32" x="95.410156"/>
       <use xlink:href="#DejaVuSans-35" x="159.033203"/>
      </g>
     </g>
    </g>
   </g>
   <g id="matplotlib.axis_2">
    <g id="ytick_1">
     <g id="line2d_6">
      <defs>
       <path id="mb73c941dc0" d="M 0 0 
L -2 0 
" style="stroke: #000000; stroke-width: 0.5"/>
      </defs>
      <g>
       <use xlink:href="#mb73c941dc0" x="24.841406" y="64.796" style="stroke: #000000; stroke-width: 0.5"/>
      </g>
     </g>
     <g id="text_4">
      <!-- −0.4 -->
      <g transform="translate(7.2 66.695609) scale(0.05 -0.05)">
       <defs>
        <path id="DejaVuSans-34" d="M 2419 4116 
L 825 1625 
L 2419 1625 
L 2419 4116 
z
M 2253 4666 
L 3047 4666 
L 3047 1625 
L 3713 1625 
L 3713 1100 
L 3047 1100 
L 3047 0 
L 2419 0 
L 2419 1100 
L 313 1100 
L 313 1709 
L 2253 4666 
z
" transform="scale(0.015625)"/>
       </defs>
       <use xlink:href="#DejaVuSans-2212"/>
       <use xlink:href="#DejaVuSans-30" x="83.789062"/>
       <use xlink:href="#DejaVuSans-2e" x="147.412109"/>
       <use xlink:href="#DejaVuSans-34" x="179.199219"/>
      </g>
     </g>
    </g>
    <g id="ytick_2">
     <g id="line2d_7">
      <g>
       <use xlink:href="#mb73c941dc0" x="24.841406" y="51.244" style="stroke: #000000; stroke-width: 0.5"/>
      </g>
     </g>
     <g id="text_5">
      <!-- −0.2 -->
      <g transform="translate(7.2 53.143609) scale(0.05 -0.05)">
       <use xlink:href="#DejaVuSans-2212"/>
       <use xlink:href="#DejaVuSans-30" x="83.789062"/>
       <use xlink:href="#DejaVuSans-2e" x="147.412109"/>
       <use xlink:href="#DejaVuSans-32" x="179.199219"/>
      </g>
     </g>
    </g>
    <g id="ytick_3">
     <g id="line2d_8">
      <g>
       <use xlink:href="#mb73c941dc0" x="24.841406" y="37.692" style="stroke: #000000; stroke-width: 0.5"/>
      </g>
     </g>
     <g id="text_6">
      <!-- 0.0 -->
      <g transform="translate(11.389844 39.591609) scale(0.05 -0.05)">
       <use xlink:href="#DejaVuSans-30"/>
       <use xlink:href="#DejaVuSans-2e" x="63.623047"/>
       <use xlink:href="#DejaVuSans-30" x="95.410156"/>
      </g>
     </g>
    </g>
    <g id="ytick_4">
     <g id="line2d_9">
      <g>
       <use xlink:href="#mb73c941dc0" x="24.841406" y="24.14" style="stroke: #000000; stroke-width: 0.5"/>
      </g>
     </g>
     <g id="text_7">
      <!-- 0.2 -->
      <g transform="translate(11.389844 26.039609) scale(0.05 -0.05)">
       <use xlink:href="#DejaVuSans-30"/>
       <use xlink:href="#DejaVuSans-2e" x="63.623047"/>
       <use xlink:href="#DejaVuSans-32" x="95.410156"/>
      </g>
     </g>
    </g>
    <g id="ytick_5">
     <g id="line2d_10">
      <g>
       <use xlink:href="#mb73c941dc0" x="24.841406" y="10.588" style="stroke: #000000; stroke-width: 0.5"/>
      </g>
     </g>
     <g id="text_8">
      <!-- 0.4 -->
      <g transform="translate(11.389844 12.487609) scale(0.05 -0.05)">
       <use xlink:href="#DejaVuSans-30"/>
       <use xlink:href="#DejaVuSans-2e" x="63.623047"/>
       <use xlink:href="#DejaVuSans-34" x="95.410156"/>
      </g>
     </g>
    </g>
   </g>
   <g id="PathCollection_1">
    <defs>
     <path id="m16109f4461" d="M 0 1.224745 
C 0.324806 1.224745 0.636353 1.095698 0.866025 0.866025 
C 1.095698 0.636353 1.224745 0.324806 1.224745 0 
C 1.224745 -0.324806 1.095698 -0.636353 0.866025 -0.866025 
C 0.636353 -1.095698 0.324806 -1.224745 0 -1.224745 
C -0.324806 -1.224745 -0.636353 -1.095698 -0.866025 -0.866025 
C -1.095698 -0.636353 -1.224745 -0.324806 -1.224745 0 
C -1.224745 0.324806 -1.095698 0.636353 -0.866025 0.866025 
C -0.636353 1.095698 -0.324806 1.224745 0 1.224745 
z
" style="stroke: #000000; stroke-opacity: 0.7; stroke-width: 0.1"/>
    </defs>
    <g clip-path="url(#p5ed84559bf)">
     <use xlink:href="#m16109f4461" x="43.527863" y="41.974866" style="fill: #f47f16; fill-opacity: 0.7; stroke: #000000; stroke-opacity: 0.7; stroke-width: 0.1"/>
    </g>
   </g>
   <g id="PathCollection_2">
    <defs>
     <path id="m888f918a02" d="M 0 1.224745 
C 0.324806 1.224745 0.636353 1.095698 0.866025 0.866025 
C 1.095698 0.636353 1.224745 0.324806 1.224745 0 
C 1.224745 -0.324806 1.095698 -0.636353 0.866025 -0.866025 
C 0.636353 -1.095698 0.324806 -1.224745 0 -1.224745 
C -0.324806 -1.224745 -0.636353 -1.095698 -0.866025 -0.866025 
C -1.095698 -0.636353 -1.224745 -0.324806 -1.224745 0 
C -1.224745 0.324806 -1.095698 0.636353 -0.866025 0.866025 
C -0.636353 1.095698 -0.324806 1.224745 0 1.224745 
z
" style="stroke: #000000; stroke-opacity: 0.7; stroke-width: 0.1"/>
    </defs>
    <g clip-path="url(#p5ed84559bf)">
     <use xlink:href="#m888f918a02" x="37.867347" y="46.38261" style="fill: #fa7f12; fill-opacity: 0.7; stroke: #000000; stroke-opacity: 0.7; stroke-width: 0.1"/>
    </g>
   </g>
   <g id="PathCollection_3">
    <defs>
     <path id="m1fca41f6e1" d="M 0 1.224745 
C 0.324806 1.224745 0.636353 1.095698 0.866025 0.866025 
C 1.095698 0.636353 1.224745 0.324806 1.224745 0 
C 1.224745 -0.324806 1.095698 -0.636353 0.866025 -0.866025 
C 0.636353 -1.095698 0.324806 -1.224745 0 -1.224745 
C -0.324806 -1.224745 -0.636353 -1.095698 -0.866025 -0.866025 
C -1.095698 -0.636353 -1.224745 -0.324806 -1.224745 0 
C -1.224745 0.324806 -1.095698 0.636353 -0.866025 0.866025 
C -0.636353 1.095698 -0.324806 1.224745 0 1.224745 
z
" style="stroke: #000000; stroke-opacity: 0.7; stroke-width: 0.1"/>
    </defs>
    <g clip-path="url(#p5ed84559bf)">
     <use xlink:href="#m1fca41f6e1" x="38.227272" y="37.109511" style="fill: #dc7e28; fill-opacity: 0.7; stroke: #000000; stroke-opacity: 0.7; stroke-width: 0.1"/>
    </g>
   </g>
   <g id="PathCollection_4">
    <defs>
     <path id="m17bbd65862" d="M 0 1.224745 
C 0.324806 1.224745 0.636353 1.095698 0.866025 0.866025 
C 1.095698 0.636353 1.224745 0.324806 1.224745 0 
C 1.224745 -0.324806 1.095698 -0.636353 0.866025 -0.866025 
C 0.636353 -1.095698 0.324806 -1.224745 0 -1.224745 
C -0.324806 -1.224745 -0.636353 -1.095698 -0.866025 -0.866025 
C -1.095698 -0.636353 -1.224745 -0.324806 -1.224745 0 
C -1.224745 0.324806 -1.095698 0.636353 -0.866025 0.866025 
C -0.636353 1.095698 -0.324806 1.224745 0 1.224745 
z
" style="stroke: #000000; stroke-opacity: 0.7; stroke-width: 0.1"/>
    </defs>
    <g clip-path="url(#p5ed84559bf)">
     <use xlink:href="#m17bbd65862" x="36.605605" y="50.196606" style="fill: #fd7f0f; fill-opacity: 0.7; stroke: #000000; stroke-opacity: 0.7; stroke-width: 0.1"/>
    </g>
   </g>
   <g id="PathCollection_5">
    <defs>
     <path id="m959f128561" d="M 0 1.224745 
C 0.324806 1.224745 0.636353 1.095698 0.866025 0.866025 
C 1.095698 0.636353 1.224745 0.324806 1.224745 0 
C 1.224745 -0.324806 1.095698 -0.636353 0.866025 -0.866025 
C 0.636353 -1.095698 0.324806 -1.224745 0 -1.224745 
C -0.324806 -1.224745 -0.636353 -1.095698 -0.866025 -0.866025 
C -1.095698 -0.636353 -1.224745 -0.324806 -1.224745 0 
C -1.224745 0.324806 -1.095698 0.636353 -0.866025 0.866025 
C -0.636353 1.095698 -0.324806 1.224745 0 1.224745 
z
" style="stroke: #000000; stroke-opacity: 0.7; stroke-width: 0.1"/>
    </defs>
    <g clip-path="url(#p5ed84559bf)">
     <use xlink:href="#m959f128561" x="40.461513" y="44.116264" style="fill: #f77f14; fill-opacity: 0.7; stroke: #000000; stroke-opacity: 0.7; stroke-width: 0.1"/>
    </g>
   </g>
   <g id="PathCollection_6">
    <defs>
     <path id="m9b94965cc8" d="M 0 1.224745 
C 0.324806 1.224745 0.636353 1.095698 0.866025 0.866025 
C 1.095698 0.636353 1.224745 0.324806 1.224745 0 
C 1.224745 -0.324806 1.095698 -0.636353 0.866025 -0.866025 
C 0.636353 -1.095698 0.324806 -1.224745 0 -1.224745 
C -0.324806 -1.224745 -0.636353 -1.095698 -0.866025 -0.866025 
C -1.095698 -0.636353 -1.224745 -0.324806 -1.224745 0 
C -1.224745 0.324806 -1.095698 0.636353 -0.866025 0.866025 
C -0.636353 1.095698 -0.324806 1.224745 0 1.224745 
z
" style="stroke: #000000; stroke-opacity: 0.7; stroke-width: 0.1"/>
    </defs>
    <g clip-path="url(#p5ed84559bf)">
     <use xlink:href="#m9b94965cc8" x="36.941741" y="37.439756" style="fill: #de7e27; fill-opacity: 0.7; stroke: #000000; stroke-opacity: 0.7; stroke-width: 0.1"/>
    </g>
   </g>
   <g id="PathCollection_7">
    <defs>
     <path id="maf146391c5" d="M 0 1.224745 
C 0.324806 1.224745 0.636353 1.095698 0.866025 0.866025 
C 1.095698 0.636353 1.224745 0.324806 1.224745 0 
C 1.224745 -0.324806 1.095698 -0.636353 0.866025 -0.866025 
C 0.636353 -1.095698 0.324806 -1.224745 0 -1.224745 
C -0.324806 -1.224745 -0.636353 -1.095698 -0.866025 -0.866025 
C -1.095698 -0.636353 -1.224745 -0.324806 -1.224745 0 
C -1.224745 0.324806 -1.095698 0.636353 -0.866025 0.866025 
C -0.636353 1.095698 -0.324806 1.224745 0 1.224745 
z
" style="stroke: #000000; stroke-opacity: 0.7; stroke-width: 0.1"/>
    </defs>
    <g clip-path="url(#p5ed84559bf)">
     <use xlink:href="#maf146391c5" x="28.647522" y="40.35279" style="fill: #e67e20; fill-opacity: 0.7; stroke: #000000; stroke-opacity: 0.7; stroke-width: 0.1"/>
    </g>
   </g>
   <g id="PathCollection_8">
    <defs>
     <path id="ma99bacc602" d="M 0 1.224745 
C 0.324806 1.224745 0.636353 1.095698 0.866025 0.866025 
C 1.095698 0.636353 1.224745 0.324806 1.224745 0 
C 1.224745 -0.324806 1.095698 -0.636353 0.866025 -0.866025 
C 0.636353 -1.095698 0.324806 -1.224745 0 -1.224745 
C -0.324806 -1.224745 -0.636353 -1.095698 -0.866025 -0.866025 
C -1.095698 -0.636353 -1.224745 -0.324806 -1.224745 0 
C -1.224745 0.324806 -1.095698 0.636353 -0.866025 0.866025 
C -0.636353 1.095698 -0.324806 1.224745 0 1.224745 
z
" style="stroke: #000000; stroke-opacity: 0.7; stroke-width: 0.1"/>
    </defs>
    <g clip-path="url(#p5ed84559bf)">
     <use xlink:href="#ma99bacc602" x="33.945093" y="38.387783" style="fill: #e17e24; fill-opacity: 0.7; stroke: #000000; stroke-opacity: 0.7; stroke-width: 0.1"/>
    </g>
   </g>
   <g id="PathCollection_9">
    <defs>
     <path id="m029f9deee5" d="M 0 1.224745 
C 0.324806 1.224745 0.636353 1.095698 0.866025 0.866025 
C 1.095698 0.636353 1.224745 0.324806 1.224745 0 
C 1.224745 -0.324806 1.095698 -0.636353 0.866025 -0.866025 
C 0.636353 -1.095698 0.324806 -1.224745 0 -1.224745 
C -0.324806 -1.224745 -0.636353 -1.095698 -0.866025 -0.866025 
C -1.095698 -0.636353 -1.224745 -0.324806 -1.224745 0 
C -1.224745 0.324806 -1.095698 0.636353 -0.866025 0.866025 
C -0.636353 1.095698 -0.324806 1.224745 0 1.224745 
z
" style="stroke: #000000; stroke-opacity: 0.7; stroke-width: 0.1"/>
    </defs>
    <g clip-path="url(#p5ed84559bf)">
     <use xlink:href="#m029f9deee5" x="40.17226" y="45.820586" style="fill: #fb7f11; fill-opacity: 0.7; stroke: #000000; stroke-opacity: 0.7; stroke-width: 0.1"/>
    </g>
   </g>
   <g id="PathCollection_10">
    <defs>
     <path id="mde2f8b6d25" d="M 0 1.224745 
C 0.324806 1.224745 0.636353 1.095698 0.866025 0.866025 
C 1.095698 0.636353 1.224745 0.324806 1.224745 0 
C 1.224745 -0.324806 1.095698 -0.636353 0.866025 -0.866025 
C 0.636353 -1.095698 0.324806 -1.224745 0 -1.224745 
C -0.324806 -1.224745 -0.636353 -1.095698 -0.866025 -0.866025 
C -1.095698 -0.636353 -1.224745 -0.324806 -1.224745 0 
C -1.224745 0.324806 -1.095698 0.636353 -0.866025 0.866025 
C -0.636353 1.095698 -0.324806 1.224745 0 1.224745 
z
" style="stroke: #000000; stroke-opacity: 0.7; stroke-width: 0.1"/>
    </defs>
    <g clip-path="url(#p5ed84559bf)">
     <use xlink:href="#mde2f8b6d25" x="42.015324" y="43.658373" style="fill: #f87f13; fill-opacity: 0.7; stroke: #000000; stroke-opacity: 0.7; stroke-width: 0.1"/>
    </g>
   </g>
   <g id="PathCollection_11">
    <g clip-path="url(#p5ed84559bf)">
     <use xlink:href="#m959f128561" x="38.336772" y="44.765562" style="fill: #f77f14; fill-opacity: 0.7; stroke: #000000; stroke-opacity: 0.7; stroke-width: 0.1"/>
    </g>
   </g>
   <g id="PathCollection_12">
    <defs>
     <path id="m62e4e00117" d="M 0 1.224745 
C 0.324806 1.224745 0.636353 1.095698 0.866025 0.866025 
C 1.095698 0.636353 1.224745 0.324806 1.224745 0 
C 1.224745 -0.324806 1.095698 -0.636353 0.866025 -0.866025 
C 0.636353 -1.095698 0.324806 -1.224745 0 -1.224745 
C -0.324806 -1.224745 -0.636353 -1.095698 -0.866025 -0.866025 
C -1.095698 -0.636353 -1.224745 -0.324806 -1.224745 0 
C -1.224745 0.324806 -1.095698 0.636353 -0.866025 0.866025 
C -0.636353 1.095698 -0.324806 1.224745 0 1.224745 
z
" style="stroke: #000000; stroke-opacity: 0.7; stroke-width: 0.1"/>
    </defs>
    <g clip-path="url(#p5ed84559bf)">
     <use xlink:href="#m62e4e00117" x="51.769709" y="33.423" style="fill: #857b68; fill-opacity: 0.7; stroke: #000000; stroke-opacity: 0.7; stroke-width: 0.1"/>
    </g>
   </g>
   <g id="PathCollection_13">
    <defs>
     <path id="m86c15542ed" d="M 0 1.224745 
C 0.324806 1.224745 0.636353 1.095698 0.866025 0.866025 
C 1.095698 0.636353 1.224745 0.324806 1.224745 0 
C 1.224745 -0.324806 1.095698 -0.636353 0.866025 -0.866025 
C 0.636353 -1.095698 0.324806 -1.224745 0 -1.224745 
C -0.324806 -1.224745 -0.636353 -1.095698 -0.866025 -0.866025 
C -1.095698 -0.636353 -1.224745 -0.324806 -1.224745 0 
C -1.224745 0.324806 -1.095698 0.636353 -0.866025 0.866025 
C -0.636353 1.095698 -0.324806 1.224745 0 1.224745 
z
" style="stroke: #000000; stroke-opacity: 0.7; stroke-width: 0.1"/>
    </defs>
    <g clip-path="url(#p5ed84559bf)">
     <use xlink:href="#m86c15542ed" x="32.130128" y="44.536649" style="fill: #f27f18; fill-opacity: 0.7; stroke: #000000; stroke-opacity: 0.7; stroke-width: 0.1"/>
    </g>
   </g>
   <g id="PathCollection_14">
    <defs>
     <path id="m57339c4ece" d="M 0 1.224745 
C 0.324806 1.224745 0.636353 1.095698 0.866025 0.866025 
C 1.095698 0.636353 1.224745 0.324806 1.224745 0 
C 1.224745 -0.324806 1.095698 -0.636353 0.866025 -0.866025 
C 0.636353 -1.095698 0.324806 -1.224745 0 -1.224745 
C -0.324806 -1.224745 -0.636353 -1.095698 -0.866025 -0.866025 
C -1.095698 -0.636353 -1.224745 -0.324806 -1.224745 0 
C -1.224745 0.324806 -1.095698 0.636353 -0.866025 0.866025 
C -0.636353 1.095698 -0.324806 1.224745 0 1.224745 
z
" style="stroke: #000000; stroke-opacity: 0.7; stroke-width: 0.1"/>
    </defs>
    <g clip-path="url(#p5ed84559bf)">
     <use xlink:href="#m57339c4ece" x="45.815959" y="43.645656" style="fill: #fc7f10; fill-opacity: 0.7; stroke: #000000; stroke-opacity: 0.7; stroke-width: 0.1"/>
    </g>
   </g>
   <g id="PathCollection_15">
    <defs>
     <path id="m38dd313577" d="M 0 1.224745 
C 0.324806 1.224745 0.636353 1.095698 0.866025 0.866025 
C 1.095698 0.636353 1.224745 0.324806 1.224745 0 
C 1.224745 -0.324806 1.095698 -0.636353 0.866025 -0.866025 
C 0.636353 -1.095698 0.324806 -1.224745 0 -1.224745 
C -0.324806 -1.224745 -0.636353 -1.095698 -0.866025 -0.866025 
C -1.095698 -0.636353 -1.224745 -0.324806 -1.224745 0 
C -1.224745 0.324806 -1.095698 0.636353 -0.866025 0.866025 
C -0.636353 1.095698 -0.324806 1.224745 0 1.224745 
z
" style="stroke: #000000; stroke-opacity: 0.7; stroke-width: 0.1"/>
    </defs>
    <g clip-path="url(#p5ed84559bf)">
     <use xlink:href="#m38dd313577" x="31.79945" y="44.965361" style="fill: #f37f17; fill-opacity: 0.7; stroke: #000000; stroke-opacity: 0.7; stroke-width: 0.1"/>
    </g>
   </g>
   <g id="PathCollection_16">
    <defs>
     <path id="md315e4d4ca" d="M 0 1.224745 
C 0.324806 1.224745 0.636353 1.095698 0.866025 0.866025 
C 1.095698 0.636353 1.224745 0.324806 1.224745 0 
C 1.224745 -0.324806 1.095698 -0.636353 0.866025 -0.866025 
C 0.636353 -1.095698 0.324806 -1.224745 0 -1.224745 
C -0.324806 -1.224745 -0.636353 -1.095698 -0.866025 -0.866025 
C -1.095698 -0.636353 -1.224745 -0.324806 -1.224745 0 
C -1.224745 0.324806 -1.095698 0.636353 -0.866025 0.866025 
C -0.636353 1.095698 -0.324806 1.224745 0 1.224745 
z
" style="stroke: #000000; stroke-opacity: 0.7; stroke-width: 0.1"/>
    </defs>
    <g clip-path="url(#p5ed84559bf)">
     <use xlink:href="#md315e4d4ca" x="50.214676" y="38.140715" style="fill: #e67e21; fill-opacity: 0.7; stroke: #000000; stroke-opacity: 0.7; stroke-width: 0.1"/>
    </g>
   </g>
   <g id="PathCollection_17">
    <g clip-path="url(#p5ed84559bf)">
     <use xlink:href="#ma99bacc602" x="48.729324" y="37.890957" style="fill: #e17e24; fill-opacity: 0.7; stroke: #000000; stroke-opacity: 0.7; stroke-width: 0.1"/>
    </g>
   </g>
   <g id="PathCollection_18">
    <defs>
     <path id="m1009ae05cb" d="M 0 1.224745 
C 0.324806 1.224745 0.636353 1.095698 0.866025 0.866025 
C 1.095698 0.636353 1.224745 0.324806 1.224745 0 
C 1.224745 -0.324806 1.095698 -0.636353 0.866025 -0.866025 
C 0.636353 -1.095698 0.324806 -1.224745 0 -1.224745 
C -0.324806 -1.224745 -0.636353 -1.095698 -0.866025 -0.866025 
C -1.095698 -0.636353 -1.224745 -0.324806 -1.224745 0 
C -1.224745 0.324806 -1.095698 0.636353 -0.866025 0.866025 
C -0.636353 1.095698 -0.324806 1.224745 0 1.224745 
z
" style="stroke: #000000; stroke-opacity: 0.7; stroke-width: 0.1"/>
    </defs>
    <g clip-path="url(#p5ed84559bf)">
     <use xlink:href="#m1009ae05cb" x="52.350631" y="39.100573" style="fill: #f97f13; fill-opacity: 0.7; stroke: #000000; stroke-opacity: 0.7; stroke-width: 0.1"/>
    </g>
   </g>
   <g id="PathCollection_19">
    <g clip-path="url(#p5ed84559bf)">
     <use xlink:href="#m9b94965cc8" x="36.88657" y="37.493951" style="fill: #de7e27; fill-opacity: 0.7; stroke: #000000; stroke-opacity: 0.7; stroke-width: 0.1"/>
    </g>
   </g>
   <g id="PathCollection_20">
    <defs>
     <path id="mf96f36d363" d="M 0 1.224745 
C 0.324806 1.224745 0.636353 1.095698 0.866025 0.866025 
C 1.095698 0.636353 1.224745 0.324806 1.224745 0 
C 1.224745 -0.324806 1.095698 -0.636353 0.866025 -0.866025 
C 0.636353 -1.095698 0.324806 -1.224745 0 -1.224745 
C -0.324806 -1.224745 -0.636353 -1.095698 -0.866025 -0.866025 
C -1.095698 -0.636353 -1.224745 -0.324806 -1.224745 0 
C -1.224745 0.324806 -1.095698 0.636353 -0.866025 0.866025 
C -0.636353 1.095698 -0.324806 1.224745 0 1.224745 
z
" style="stroke: #000000; stroke-opacity: 0.7; stroke-width: 0.1"/>
    </defs>
    <g clip-path="url(#p5ed84559bf)">
     <use xlink:href="#mf96f36d363" x="41.938901" y="41.078819" style="fill: #ef7e1a; fill-opacity: 0.7; stroke: #000000; stroke-opacity: 0.7; stroke-width: 0.1"/>
    </g>
   </g>
   <g id="PathCollection_21">
    <defs>
     <path id="mfe52a5faf2" d="M 0 1.224745 
C 0.324806 1.224745 0.636353 1.095698 0.866025 0.866025 
C 1.095698 0.636353 1.224745 0.324806 1.224745 0 
C 1.224745 -0.324806 1.095698 -0.636353 0.866025 -0.866025 
C 0.636353 -1.095698 0.324806 -1.224745 0 -1.224745 
C -0.324806 -1.224745 -0.636353 -1.095698 -0.866025 -0.866025 
C -1.095698 -0.636353 -1.224745 -0.324806 -1.224745 0 
C -1.224745 0.324806 -1.095698 0.636353 -0.866025 0.866025 
C -0.636353 1.095698 -0.324806 1.224745 0 1.224745 
z
" style="stroke: #000000; stroke-opacity: 0.7; stroke-width: 0.1"/>
    </defs>
    <g clip-path="url(#p5ed84559bf)">
     <use xlink:href="#mfe52a5faf2" x="62.18152" y="33.087555" style="fill: #2177b3; fill-opacity: 0.7; stroke: #000000; stroke-opacity: 0.7; stroke-width: 0.1"/>
    </g>
   </g>
   <g id="PathCollection_22">
    <defs>
     <path id="mf290d736b7" d="M 0 1.224745 
C 0.324806 1.224745 0.636353 1.095698 0.866025 0.866025 
C 1.095698 0.636353 1.224745 0.324806 1.224745 0 
C 1.224745 -0.324806 1.095698 -0.636353 0.866025 -0.866025 
C 0.636353 -1.095698 0.324806 -1.224745 0 -1.224745 
C -0.324806 -1.224745 -0.636353 -1.095698 -0.866025 -0.866025 
C -1.095698 -0.636353 -1.224745 -0.324806 -1.224745 0 
C -1.224745 0.324806 -1.095698 0.636353 -0.866025 0.866025 
C -0.636353 1.095698 -0.324806 1.224745 0 1.224745 
z
" style="stroke: #000000; stroke-opacity: 0.7; stroke-width: 0.1"/>
    </defs>
    <g clip-path="url(#p5ed84559bf)">
     <use xlink:href="#mf290d736b7" x="49.731031" y="37.945908" style="fill: #e27e23; fill-opacity: 0.7; stroke: #000000; stroke-opacity: 0.7; stroke-width: 0.1"/>
    </g>
   </g>
   <g id="PathCollection_23">
    <g clip-path="url(#p5ed84559bf)">
     <use xlink:href="#m9b94965cc8" x="47.317163" y="37.566366" style="fill: #de7e27; fill-opacity: 0.7; stroke: #000000; stroke-opacity: 0.7; stroke-width: 0.1"/>
    </g>
   </g>
   <g id="PathCollection_24">
    <defs>
     <path id="m56a21b77e0" d="M 0 1.224745 
C 0.324806 1.224745 0.636353 1.095698 0.866025 0.866025 
C 1.095698 0.636353 1.224745 0.324806 1.224745 0 
C 1.224745 -0.324806 1.095698 -0.636353 0.866025 -0.866025 
C 0.636353 -1.095698 0.324806 -1.224745 0 -1.224745 
C -0.324806 -1.224745 -0.636353 -1.095698 -0.866025 -0.866025 
C -1.095698 -0.636353 -1.224745 -0.324806 -1.224745 0 
C -1.224745 0.324806 -1.095698 0.636353 -0.866025 0.866025 
C -0.636353 1.095698 -0.324806 1.224745 0 1.224745 
z
" style="stroke: #000000; stroke-opacity: 0.7; stroke-width: 0.1"/>
    </defs>
    <g clip-path="url(#p5ed84559bf)">
     <use xlink:href="#m56a21b77e0" x="34.53779" y="40.36141" style="fill: #e87e1f; fill-opacity: 0.7; stroke: #000000; stroke-opacity: 0.7; stroke-width: 0.1"/>
    </g>
   </g>
   <g id="PathCollection_25">
    <defs>
     <path id="mbc073b8d5d" d="M 0 1.224745 
C 0.324806 1.224745 0.636353 1.095698 0.866025 0.866025 
C 1.095698 0.636353 1.224745 0.324806 1.224745 0 
C 1.224745 -0.324806 1.095698 -0.636353 0.866025 -0.866025 
C 0.636353 -1.095698 0.324806 -1.224745 0 -1.224745 
C -0.324806 -1.224745 -0.636353 -1.095698 -0.866025 -0.866025 
C -1.095698 -0.636353 -1.224745 -0.324806 -1.224745 0 
C -1.224745 0.324806 -1.095698 0.636353 -0.866025 0.866025 
C -0.636353 1.095698 -0.324806 1.224745 0 1.224745 
z
" style="stroke: #000000; stroke-opacity: 0.7; stroke-width: 0.1"/>
    </defs>
    <g clip-path="url(#p5ed84559bf)">
     <use xlink:href="#mbc073b8d5d" x="45.584083" y="37.951316" style="fill: #e07e25; fill-opacity: 0.7; stroke: #000000; stroke-opacity: 0.7; stroke-width: 0.1"/>
    </g>
   </g>
   <g id="PathCollection_26">
    <defs>
     <path id="me1579dbcc8" d="M 0 1.224745 
C 0.324806 1.224745 0.636353 1.095698 0.866025 0.866025 
C 1.095698 0.636353 1.224745 0.324806 1.224745 0 
C 1.224745 -0.324806 1.095698 -0.636353 0.866025 -0.866025 
C 0.636353 -1.095698 0.324806 -1.224745 0 -1.224745 
C -0.324806 -1.224745 -0.636353 -1.095698 -0.866025 -0.866025 
C -1.095698 -0.636353 -1.224745 -0.324806 -1.224745 0 
C -1.224745 0.324806 -1.095698 0.636353 -0.866025 0.866025 
C -0.636353 1.095698 -0.324806 1.224745 0 1.224745 
z
" style="stroke: #000000; stroke-opacity: 0.7; stroke-width: 0.1"/>
    </defs>
    <g clip-path="url(#p5ed84559bf)">
     <use xlink:href="#me1579dbcc8" x="41.214158" y="40.344678" style="fill: #ec7e1c; fill-opacity: 0.7; stroke: #000000; stroke-opacity: 0.7; stroke-width: 0.1"/>
    </g>
   </g>
   <g id="PathCollection_27">
    <g clip-path="url(#p5ed84559bf)">
     <use xlink:href="#m56a21b77e0" x="49.903681" y="38.423046" style="fill: #e87e1f; fill-opacity: 0.7; stroke: #000000; stroke-opacity: 0.7; stroke-width: 0.1"/>
    </g>
   </g>
   <g id="PathCollection_28">
    <g clip-path="url(#p5ed84559bf)">
     <use xlink:href="#m1009ae05cb" x="47.134497" y="41.454498" style="fill: #f97f13; fill-opacity: 0.7; stroke: #000000; stroke-opacity: 0.7; stroke-width: 0.1"/>
    </g>
   </g>
   <g id="PathCollection_29">
    <g clip-path="url(#p5ed84559bf)">
     <use xlink:href="#m56a21b77e0" x="46.949744" y="38.748674" style="fill: #e87e1f; fill-opacity: 0.7; stroke: #000000; stroke-opacity: 0.7; stroke-width: 0.1"/>
    </g>
   </g>
   <g id="PathCollection_30">
    <g clip-path="url(#p5ed84559bf)">
     <use xlink:href="#m56a21b77e0" x="40.438055" y="39.591314" style="fill: #e87e1f; fill-opacity: 0.7; stroke: #000000; stroke-opacity: 0.7; stroke-width: 0.1"/>
    </g>
   </g>
   <g id="PathCollection_31">
    <defs>
     <path id="maa4c1610b9" d="M 0 1.224745 
C 0.324806 1.224745 0.636353 1.095698 0.866025 0.866025 
C 1.095698 0.636353 1.224745 0.324806 1.224745 0 
C 1.224745 -0.324806 1.095698 -0.636353 0.866025 -0.866025 
C 0.636353 -1.095698 0.324806 -1.224745 0 -1.224745 
C -0.324806 -1.224745 -0.636353 -1.095698 -0.866025 -0.866025 
C -1.095698 -0.636353 -1.224745 -0.324806 -1.224745 0 
C -1.224745 0.324806 -1.095698 0.636353 -0.866025 0.866025 
C -0.636353 1.095698 -0.324806 1.224745 0 1.224745 
z
" style="stroke: #000000; stroke-opacity: 0.7; stroke-width: 0.1"/>
    </defs>
    <g clip-path="url(#p5ed84559bf)">
     <use xlink:href="#maa4c1610b9" x="36.367662" y="37.683802" style="fill: #de7e26; fill-opacity: 0.7; stroke: #000000; stroke-opacity: 0.7; stroke-width: 0.1"/>
    </g>
   </g>
   <g id="PathCollection_32">
    <defs>
     <path id="m47fa5345ca" d="M 0 1.224745 
C 0.324806 1.224745 0.636353 1.095698 0.866025 0.866025 
C 1.095698 0.636353 1.224745 0.324806 1.224745 0 
C 1.224745 -0.324806 1.095698 -0.636353 0.866025 -0.866025 
C 0.636353 -1.095698 0.324806 -1.224745 0 -1.224745 
C -0.324806 -1.224745 -0.636353 -1.095698 -0.866025 -0.866025 
C -1.095698 -0.636353 -1.224745 -0.324806 -1.224745 0 
C -1.224745 0.324806 -1.095698 0.636353 -0.866025 0.866025 
C -0.636353 1.095698 -0.324806 1.224745 0 1.224745 
z
" style="stroke: #000000; stroke-opacity: 0.7; stroke-width: 0.1"/>
    </defs>
    <g clip-path="url(#p5ed84559bf)">
     <use xlink:href="#m47fa5345ca" x="60.872115" y="34.938091" style="fill: #2477b0; fill-opacity: 0.7; stroke: #000000; stroke-opacity: 0.7; stroke-width: 0.1"/>
    </g>
   </g>
   <g id="PathCollection_33">
    <defs>
     <path id="mfdc0169608" d="M 0 1.224745 
C 0.324806 1.224745 0.636353 1.095698 0.866025 0.866025 
C 1.095698 0.636353 1.224745 0.324806 1.224745 0 
C 1.224745 -0.324806 1.095698 -0.636353 0.866025 -0.866025 
C 0.636353 -1.095698 0.324806 -1.224745 0 -1.224745 
C -0.324806 -1.224745 -0.636353 -1.095698 -0.866025 -0.866025 
C -1.095698 -0.636353 -1.224745 -0.324806 -1.224745 0 
C -1.224745 0.324806 -1.095698 0.636353 -0.866025 0.866025 
C -0.636353 1.095698 -0.324806 1.224745 0 1.224745 
z
" style="stroke: #000000; stroke-opacity: 0.7; stroke-width: 0.1"/>
    </defs>
    <g clip-path="url(#p5ed84559bf)">
     <use xlink:href="#mfdc0169608" x="46.441571" y="38.146869" style="fill: #e37e23; fill-opacity: 0.7; stroke: #000000; stroke-opacity: 0.7; stroke-width: 0.1"/>
    </g>
   </g>
   <g id="PathCollection_34">
    <g clip-path="url(#p5ed84559bf)">
     <use xlink:href="#mde2f8b6d25" x="37.761992" y="45.313998" style="fill: #f87f13; fill-opacity: 0.7; stroke: #000000; stroke-opacity: 0.7; stroke-width: 0.1"/>
    </g>
   </g>
   <g id="PathCollection_35">
    <g clip-path="url(#p5ed84559bf)">
     <use xlink:href="#m56a21b77e0" x="40.802465" y="39.537252" style="fill: #e87e1f; fill-opacity: 0.7; stroke: #000000; stroke-opacity: 0.7; stroke-width: 0.1"/>
    </g>
   </g>
   <g id="PathCollection_36">
    <g clip-path="url(#p5ed84559bf)">
     <use xlink:href="#m888f918a02" x="44.976713" y="42.902689" style="fill: #fa7f12; fill-opacity: 0.7; stroke: #000000; stroke-opacity: 0.7; stroke-width: 0.1"/>
    </g>
   </g>
   <g id="PathCollection_37">
    <defs>
     <path id="m4b52235e27" d="M 0 1.224745 
C 0.324806 1.224745 0.636353 1.095698 0.866025 0.866025 
C 1.095698 0.636353 1.224745 0.324806 1.224745 0 
C 1.224745 -0.324806 1.095698 -0.636353 0.866025 -0.866025 
C 0.636353 -1.095698 0.324806 -1.224745 0 -1.224745 
C -0.324806 -1.224745 -0.636353 -1.095698 -0.866025 -0.866025 
C -1.095698 -0.636353 -1.224745 -0.324806 -1.224745 0 
C -1.224745 0.324806 -1.095698 0.636353 -0.866025 0.866025 
C -0.636353 1.095698 -0.324806 1.224745 0 1.224745 
z
" style="stroke: #000000; stroke-opacity: 0.7; stroke-width: 0.1"/>
    </defs>
    <g clip-path="url(#p5ed84559bf)">
     <use xlink:href="#m4b52235e27" x="36.113934" y="41.819973" style="fill: #ed7e1b; fill-opacity: 0.7; stroke: #000000; stroke-opacity: 0.7; stroke-width: 0.1"/>
    </g>
   </g>
   <g id="PathCollection_38">
    <defs>
     <path id="mb2f4b2c301" d="M 0 1.224745 
C 0.324806 1.224745 0.636353 1.095698 0.866025 0.866025 
C 1.095698 0.636353 1.224745 0.324806 1.224745 0 
C 1.224745 -0.324806 1.095698 -0.636353 0.866025 -0.866025 
C 0.636353 -1.095698 0.324806 -1.224745 0 -1.224745 
C -0.324806 -1.224745 -0.636353 -1.095698 -0.866025 -0.866025 
C -1.095698 -0.636353 -1.224745 -0.324806 -1.224745 0 
C -1.224745 0.324806 -1.095698 0.636353 -0.866025 0.866025 
C -0.636353 1.095698 -0.324806 1.224745 0 1.224745 
z
" style="stroke: #000000; stroke-opacity: 0.7; stroke-width: 0.1"/>
    </defs>
    <g clip-path="url(#p5ed84559bf)">
     <use xlink:href="#mb2f4b2c301" x="40.463444" y="36.924719" style="fill: #da7e29; fill-opacity: 0.7; stroke: #000000; stroke-opacity: 0.7; stroke-width: 0.1"/>
    </g>
   </g>
   <g id="PathCollection_39">
    <g clip-path="url(#p5ed84559bf)">
     <use xlink:href="#m959f128561" x="46.179266" y="41.608586" style="fill: #f77f14; fill-opacity: 0.7; stroke: #000000; stroke-opacity: 0.7; stroke-width: 0.1"/>
    </g>
   </g>
   <g id="PathCollection_40">
    <defs>
     <path id="md9cf168408" d="M 0 1.224745 
C 0.324806 1.224745 0.636353 1.095698 0.866025 0.866025 
C 1.095698 0.636353 1.224745 0.324806 1.224745 0 
C 1.224745 -0.324806 1.095698 -0.636353 0.866025 -0.866025 
C 0.636353 -1.095698 0.324806 -1.224745 0 -1.224745 
C -0.324806 -1.224745 -0.636353 -1.095698 -0.866025 -0.866025 
C -1.095698 -0.636353 -1.224745 -0.324806 -1.224745 0 
C -1.224745 0.324806 -1.095698 0.636353 -0.866025 0.866025 
C -0.636353 1.095698 -0.324806 1.224745 0 1.224745 
z
" style="stroke: #000000; stroke-opacity: 0.7; stroke-width: 0.1"/>
    </defs>
    <g clip-path="url(#p5ed84559bf)">
     <use xlink:href="#md9cf168408" x="39.7111" y="41.227774" style="fill: #ee7e1a; fill-opacity: 0.7; stroke: #000000; stroke-opacity: 0.7; stroke-width: 0.1"/>
    </g>
   </g>
   <g id="PathCollection_41">
    <g clip-path="url(#p5ed84559bf)">
     <use xlink:href="#m1009ae05cb" x="40.034601" y="44.928741" style="fill: #f97f13; fill-opacity: 0.7; stroke: #000000; stroke-opacity: 0.7; stroke-width: 0.1"/>
    </g>
   </g>
   <g id="PathCollection_42">
    <defs>
     <path id="m0b4c985b2f" d="M 0 1.224745 
C 0.324806 1.224745 0.636353 1.095698 0.866025 0.866025 
C 1.095698 0.636353 1.224745 0.324806 1.224745 0 
C 1.224745 -0.324806 1.095698 -0.636353 0.866025 -0.866025 
C 0.636353 -1.095698 0.324806 -1.224745 0 -1.224745 
C -0.324806 -1.224745 -0.636353 -1.095698 -0.866025 -0.866025 
C -1.095698 -0.636353 -1.224745 -0.324806 -1.224745 0 
C -1.224745 0.324806 -1.095698 0.636353 -0.866025 0.866025 
C -0.636353 1.095698 -0.324806 1.224745 0 1.224745 
z
" style="stroke: #000000; stroke-opacity: 0.7; stroke-width: 0.1"/>
    </defs>
    <g clip-path="url(#p5ed84559bf)">
     <use xlink:href="#m0b4c985b2f" x="32.057339" y="43.765368" style="fill: #f07e19; fill-opacity: 0.7; stroke: #000000; stroke-opacity: 0.7; stroke-width: 0.1"/>
    </g>
   </g>
   <g id="PathCollection_43">
    <defs>
     <path id="md4510d1c28" d="M 0 1.224745 
C 0.324806 1.224745 0.636353 1.095698 0.866025 0.866025 
C 1.095698 0.636353 1.224745 0.324806 1.224745 0 
C 1.224745 -0.324806 1.095698 -0.636353 0.866025 -0.866025 
C 0.636353 -1.095698 0.324806 -1.224745 0 -1.224745 
C -0.324806 -1.224745 -0.636353 -1.095698 -0.866025 -0.866025 
C -1.095698 -0.636353 -1.224745 -0.324806 -1.224745 0 
C -1.224745 0.324806 -1.095698 0.636353 -0.866025 0.866025 
C -0.636353 1.095698 -0.324806 1.224745 0 1.224745 
z
" style="stroke: #000000; stroke-opacity: 0.7; stroke-width: 0.1"/>
    </defs>
    <g clip-path="url(#p5ed84559bf)">
     <use xlink:href="#md4510d1c28" x="51.532094" y="40.551345" style="fill: #fe7f0f; fill-opacity: 0.7; stroke: #000000; stroke-opacity: 0.7; stroke-width: 0.1"/>
    </g>
   </g>
   <g id="PathCollection_44">
    <g clip-path="url(#p5ed84559bf)">
     <use xlink:href="#m86c15542ed" x="31.265032" y="44.65156" style="fill: #f27f18; fill-opacity: 0.7; stroke: #000000; stroke-opacity: 0.7; stroke-width: 0.1"/>
    </g>
   </g>
   <g id="PathCollection_45">
    <defs>
     <path id="m8ae9178174" d="M 0 1.224745 
C 0.324806 1.224745 0.636353 1.095698 0.866025 0.866025 
C 1.095698 0.636353 1.224745 0.324806 1.224745 0 
C 1.224745 -0.324806 1.095698 -0.636353 0.866025 -0.866025 
C 0.636353 -1.095698 0.324806 -1.224745 0 -1.224745 
C -0.324806 -1.224745 -0.636353 -1.095698 -0.866025 -0.866025 
C -1.095698 -0.636353 -1.224745 -0.324806 -1.224745 0 
C -1.224745 0.324806 -1.095698 0.636353 -0.866025 0.866025 
C -0.636353 1.095698 -0.324806 1.224745 0 1.224745 
z
" style="stroke: #000000; stroke-opacity: 0.7; stroke-width: 0.1"/>
    </defs>
    <g clip-path="url(#p5ed84559bf)">
     <use xlink:href="#m8ae9178174" x="38.577714" y="37.96515" style="fill: #df7e25; fill-opacity: 0.7; stroke: #000000; stroke-opacity: 0.7; stroke-width: 0.1"/>
    </g>
   </g>
   <g id="PathCollection_46">
    <g clip-path="url(#p5ed84559bf)">
     <use xlink:href="#m16109f4461" x="48.99922" y="39.757003" style="fill: #f47f16; fill-opacity: 0.7; stroke: #000000; stroke-opacity: 0.7; stroke-width: 0.1"/>
    </g>
   </g>
   <g id="PathCollection_47">
    <defs>
     <path id="m35496f6534" d="M 0 1.224745 
C 0.324806 1.224745 0.636353 1.095698 0.866025 0.866025 
C 1.095698 0.636353 1.224745 0.324806 1.224745 0 
C 1.224745 -0.324806 1.095698 -0.636353 0.866025 -0.866025 
C 0.636353 -1.095698 0.324806 -1.224745 0 -1.224745 
C -0.324806 -1.224745 -0.636353 -1.095698 -0.866025 -0.866025 
C -1.095698 -0.636353 -1.224745 -0.324806 -1.224745 0 
C -1.224745 0.324806 -1.095698 0.636353 -0.866025 0.866025 
C -0.636353 1.095698 -0.324806 1.224745 0 1.224745 
z
" style="stroke: #000000; stroke-opacity: 0.7; stroke-width: 0.1"/>
    </defs>
    <g clip-path="url(#p5ed84559bf)">
     <use xlink:href="#m35496f6534" x="53.158866" y="40.328305" style="fill: #ff7f0e; fill-opacity: 0.7; stroke: #000000; stroke-opacity: 0.7; stroke-width: 0.1"/>
    </g>
   </g>
   <g id="PathCollection_48">
    <g clip-path="url(#p5ed84559bf)">
     <use xlink:href="#md9cf168408" x="41.551083" y="40.963189" style="fill: #ee7e1a; fill-opacity: 0.7; stroke: #000000; stroke-opacity: 0.7; stroke-width: 0.1"/>
    </g>
   </g>
   <g id="PathCollection_49">
    <g clip-path="url(#p5ed84559bf)">
     <use xlink:href="#mbc073b8d5d" x="39.492129" y="38.004287" style="fill: #e07e25; fill-opacity: 0.7; stroke: #000000; stroke-opacity: 0.7; stroke-width: 0.1"/>
    </g>
   </g>
   <g id="PathCollection_50">
    <defs>
     <path id="m811cf07a6b" d="M 0 1.224745 
C 0.324806 1.224745 0.636353 1.095698 0.866025 0.866025 
C 1.095698 0.636353 1.224745 0.324806 1.224745 0 
C 1.224745 -0.324806 1.095698 -0.636353 0.866025 -0.866025 
C 0.636353 -1.095698 0.324806 -1.224745 0 -1.224745 
C -0.324806 -1.224745 -0.636353 -1.095698 -0.866025 -0.866025 
C -1.095698 -0.636353 -1.224745 -0.324806 -1.224745 0 
C -1.224745 0.324806 -1.095698 0.636353 -0.866025 0.866025 
C -0.636353 1.095698 -0.324806 1.224745 0 1.224745 
z
" style="stroke: #000000; stroke-opacity: 0.7; stroke-width: 0.1"/>
    </defs>
    <g clip-path="url(#p5ed84559bf)">
     <use xlink:href="#m811cf07a6b" x="35.256" y="43.30956" style="fill: #f17e18; fill-opacity: 0.7; stroke: #000000; stroke-opacity: 0.7; stroke-width: 0.1"/>
    </g>
   </g>
   <g id="PathCollection_51">
    <defs>
     <path id="mcb9176b8f7" d="M 0 1.224745 
C 0.324806 1.224745 0.636353 1.095698 0.866025 0.866025 
C 1.095698 0.636353 1.224745 0.324806 1.224745 0 
C 1.224745 -0.324806 1.095698 -0.636353 0.866025 -0.866025 
C 0.636353 -1.095698 0.324806 -1.224745 0 -1.224745 
C -0.324806 -1.224745 -0.636353 -1.095698 -0.866025 -0.866025 
C -1.095698 -0.636353 -1.224745 -0.324806 -1.224745 0 
C -1.224745 0.324806 -1.095698 0.636353 -0.866025 0.866025 
C -0.636353 1.095698 -0.324806 1.224745 0 1.224745 
z
" style="stroke: #000000; stroke-opacity: 0.7; stroke-width: 0.1"/>
    </defs>
    <g clip-path="url(#p5ed84559bf)">
     <use xlink:href="#mcb9176b8f7" x="48.898428" y="38.098542" style="fill: #e47e22; fill-opacity: 0.7; stroke: #000000; stroke-opacity: 0.7; stroke-width: 0.1"/>
    </g>
   </g>
   <g id="PathCollection_52">
    <g clip-path="url(#p5ed84559bf)">
     <use xlink:href="#md4510d1c28" x="39.817661" y="49.333015" style="fill: #fe7f0f; fill-opacity: 0.7; stroke: #000000; stroke-opacity: 0.7; stroke-width: 0.1"/>
    </g>
   </g>
   <g id="PathCollection_53">
    <g clip-path="url(#p5ed84559bf)">
     <use xlink:href="#m959f128561" x="41.291196" y="43.569879" style="fill: #f77f14; fill-opacity: 0.7; stroke: #000000; stroke-opacity: 0.7; stroke-width: 0.1"/>
    </g>
   </g>
   <g id="PathCollection_54">
    <g clip-path="url(#p5ed84559bf)">
     <use xlink:href="#md315e4d4ca" x="27.525611" y="40.241899" style="fill: #e67e21; fill-opacity: 0.7; stroke: #000000; stroke-opacity: 0.7; stroke-width: 0.1"/>
    </g>
   </g>
   <g id="PathCollection_55">
    <defs>
     <path id="mfda09c8bbe" d="M 0 1.224745 
C 0.324806 1.224745 0.636353 1.095698 0.866025 0.866025 
C 1.095698 0.636353 1.224745 0.324806 1.224745 0 
C 1.224745 -0.324806 1.095698 -0.636353 0.866025 -0.866025 
C 0.636353 -1.095698 0.324806 -1.224745 0 -1.224745 
C -0.324806 -1.224745 -0.636353 -1.095698 -0.866025 -0.866025 
C -1.095698 -0.636353 -1.224745 -0.324806 -1.224745 0 
C -1.224745 0.324806 -1.095698 0.636353 -0.866025 0.866025 
C -0.636353 1.095698 -0.324806 1.224745 0 1.224745 
z
" style="stroke: #000000; stroke-opacity: 0.7; stroke-width: 0.1"/>
    </defs>
    <g clip-path="url(#p5ed84559bf)">
     <use xlink:href="#mfda09c8bbe" x="47.956915" y="37.227439" style="fill: #d97e2a; fill-opacity: 0.7; stroke: #000000; stroke-opacity: 0.7; stroke-width: 0.1"/>
    </g>
   </g>
   <g id="PathCollection_56">
    <g clip-path="url(#p5ed84559bf)">
     <use xlink:href="#m57339c4ece" x="44.183073" y="44.388804" style="fill: #fc7f10; fill-opacity: 0.7; stroke: #000000; stroke-opacity: 0.7; stroke-width: 0.1"/>
    </g>
   </g>
   <g id="PathCollection_57">
    <g clip-path="url(#p5ed84559bf)">
     <use xlink:href="#mfdc0169608" x="35.056657" y="38.808003" style="fill: #e37e23; fill-opacity: 0.7; stroke: #000000; stroke-opacity: 0.7; stroke-width: 0.1"/>
    </g>
   </g>
   <g id="PathCollection_58">
    <g clip-path="url(#p5ed84559bf)">
     <use xlink:href="#m1fca41f6e1" x="47.717132" y="37.464242" style="fill: #dc7e28; fill-opacity: 0.7; stroke: #000000; stroke-opacity: 0.7; stroke-width: 0.1"/>
    </g>
   </g>
   <g id="PathCollection_59">
    <g clip-path="url(#p5ed84559bf)">
     <use xlink:href="#m1fca41f6e1" x="37.4248" y="37.021842" style="fill: #dc7e28; fill-opacity: 0.7; stroke: #000000; stroke-opacity: 0.7; stroke-width: 0.1"/>
    </g>
   </g>
   <g id="PathCollection_60">
    <defs>
     <path id="m2ff3cae1d4" d="M 0 1.224745 
C 0.324806 1.224745 0.636353 1.095698 0.866025 0.866025 
C 1.095698 0.636353 1.224745 0.324806 1.224745 0 
C 1.224745 -0.324806 1.095698 -0.636353 0.866025 -0.866025 
C 0.636353 -1.095698 0.324806 -1.224745 0 -1.224745 
C -0.324806 -1.224745 -0.636353 -1.095698 -0.866025 -0.866025 
C -1.095698 -0.636353 -1.224745 -0.324806 -1.224745 0 
C -1.224745 0.324806 -1.095698 0.636353 -0.866025 0.866025 
C -0.636353 1.095698 -0.324806 1.224745 0 1.224745 
z
" style="stroke: #000000; stroke-opacity: 0.7; stroke-width: 0.1"/>
    </defs>
    <g clip-path="url(#p5ed84559bf)">
     <use xlink:href="#m2ff3cae1d4" x="39.510435" y="40.841691" style="fill: #ed7e1c; fill-opacity: 0.7; stroke: #000000; stroke-opacity: 0.7; stroke-width: 0.1"/>
    </g>
   </g>
   <g id="patch_3">
    <path d="M 24.841406 68.184 
L 24.841406 7.2 
" style="fill: none; stroke: #000000; stroke-width: 0.5; stroke-linejoin: miter; stroke-linecap: square"/>
   </g>
   <g id="patch_4">
    <path d="M 24.841406 68.184 
L 85.825406 68.184 
" style="fill: none; stroke: #000000; stroke-width: 0.5; stroke-linejoin: miter; stroke-linecap: square"/>
   </g>
   <g id="PathCollection_61">
    <defs>
     <path id="me83be52fa1" d="M 0 -1.581139 
L -1.581139 1.581139 
L 1.581139 1.581139 
z
" style="stroke: #000000; stroke-width: 0.4"/>
    </defs>
    <g>
     <use xlink:href="#me83be52fa1" x="40.632955" y="40.336492" style="fill: #ffffff; stroke: #000000; stroke-width: 0.4"/>
    </g>
   </g>
   <g id="legend_1">
    <g id="PathCollection_62">
     <g>
      <use xlink:href="#me83be52fa1" x="34.341406" y="14.186719" style="fill: #ffffff; stroke: #000000; stroke-width: 0.4"/>
     </g>
    </g>
    <g id="text_9">
     <!-- Median -->
     <g transform="translate(43.341406 15.499219) scale(0.05 -0.05)">
      <defs>
       <path id="DejaVuSans-4d" d="M 628 4666 
L 1569 4666 
L 2759 1491 
L 3956 4666 
L 4897 4666 
L 4897 0 
L 4281 0 
L 4281 4097 
L 3078 897 
L 2444 897 
L 1241 4097 
L 1241 0 
L 628 0 
L 628 4666 
z
" transform="scale(0.015625)"/>
       <path id="DejaVuSans-65" d="M 3597 1894 
L 3597 1613 
L 953 1613 
Q 991 1019 1311 708 
Q 1631 397 2203 397 
Q 2534 397 2845 478 
Q 3156 559 3463 722 
L 3463 178 
Q 3153 47 2828 -22 
Q 2503 -91 2169 -91 
Q 1331 -91 842 396 
Q 353 884 353 1716 
Q 353 2575 817 3079 
Q 1281 3584 2069 3584 
Q 2775 3584 3186 3129 
Q 3597 2675 3597 1894 
z
M 3022 2063 
Q 3016 2534 2758 2815 
Q 2500 3097 2075 3097 
Q 1594 3097 1305 2825 
Q 1016 2553 972 2059 
L 3022 2063 
z
" transform="scale(0.015625)"/>
       <path id="DejaVuSans-64" d="M 2906 2969 
L 2906 4863 
L 3481 4863 
L 3481 0 
L 2906 0 
L 2906 525 
Q 2725 213 2448 61 
Q 2172 -91 1784 -91 
Q 1150 -91 751 415 
Q 353 922 353 1747 
Q 353 2572 751 3078 
Q 1150 3584 1784 3584 
Q 2172 3584 2448 3432 
Q 2725 3281 2906 2969 
z
M 947 1747 
Q 947 1113 1208 752 
Q 1469 391 1925 391 
Q 2381 391 2643 752 
Q 2906 1113 2906 1747 
Q 2906 2381 2643 2742 
Q 2381 3103 1925 3103 
Q 1469 3103 1208 2742 
Q 947 2381 947 1747 
z
" transform="scale(0.015625)"/>
       <path id="DejaVuSans-69" d="M 603 3500 
L 1178 3500 
L 1178 0 
L 603 0 
L 603 3500 
z
M 603 4863 
L 1178 4863 
L 1178 4134 
L 603 4134 
L 603 4863 
z
" transform="scale(0.015625)"/>
       <path id="DejaVuSans-61" d="M 2194 1759 
Q 1497 1759 1228 1600 
Q 959 1441 959 1056 
Q 959 750 1161 570 
Q 1363 391 1709 391 
Q 2188 391 2477 730 
Q 2766 1069 2766 1631 
L 2766 1759 
L 2194 1759 
z
M 3341 1997 
L 3341 0 
L 2766 0 
L 2766 531 
Q 2569 213 2275 61 
Q 1981 -91 1556 -91 
Q 1019 -91 701 211 
Q 384 513 384 1019 
Q 384 1609 779 1909 
Q 1175 2209 1959 2209 
L 2766 2209 
L 2766 2266 
Q 2766 2663 2505 2880 
Q 2244 3097 1772 3097 
Q 1472 3097 1187 3025 
Q 903 2953 641 2809 
L 641 3341 
Q 956 3463 1253 3523 
Q 1550 3584 1831 3584 
Q 2591 3584 2966 3190 
Q 3341 2797 3341 1997 
z
" transform="scale(0.015625)"/>
       <path id="DejaVuSans-6e" d="M 3513 2113 
L 3513 0 
L 2938 0 
L 2938 2094 
Q 2938 2591 2744 2837 
Q 2550 3084 2163 3084 
Q 1697 3084 1428 2787 
Q 1159 2491 1159 1978 
L 1159 0 
L 581 0 
L 581 3500 
L 1159 3500 
L 1159 2956 
Q 1366 3272 1645 3428 
Q 1925 3584 2291 3584 
Q 2894 3584 3203 3211 
Q 3513 2838 3513 2113 
z
" transform="scale(0.015625)"/>
      </defs>
      <use xlink:href="#DejaVuSans-4d"/>
      <use xlink:href="#DejaVuSans-65" x="86.279297"/>
      <use xlink:href="#DejaVuSans-64" x="147.802734"/>
      <use xlink:href="#DejaVuSans-69" x="211.279297"/>
      <use xlink:href="#DejaVuSans-61" x="239.0625"/>
      <use xlink:href="#DejaVuSans-6e" x="300.341797"/>
     </g>
    </g>
   </g>
  </g>
 </g>
 <defs>
  <clipPath id="p5ed84559bf">
   <rect x="24.841406" y="7.2" width="60.984" height="60.984"/>
  </clipPath>
 </defs>
</svg>
