<?xml version="1.0" encoding="utf-8" standalone="no"?>
<!DOCTYPE svg PUBLIC "-//W3C//DTD SVG 1.1//EN"
  "http://www.w3.org/Graphics/SVG/1.1/DTD/svg11.dtd">
<svg xmlns:xlink="http://www.w3.org/1999/xlink" width="93.025406pt" height="85.723062pt" viewBox="0 0 93.025406 85.723062" xmlns="http://www.w3.org/2000/svg" version="1.1">
 <metadata>
  <rdf:RDF xmlns:dc="http://purl.org/dc/elements/1.1/" xmlns:cc="http://creativecommons.org/ns#" xmlns:rdf="http://www.w3.org/1999/02/22-rdf-syntax-ns#">
   <cc:Work>
    <dc:type rdf:resource="http://purl.org/dc/dcmitype/StillImage"/>
    <dc:date>2026-01-06T22:40:00.895199</dc:date>
    <dc:format>image/svg+xml</dc:format>
    <dc:creator>
     <cc:Agent>
      <dc:title>Matplotlib v3.8.2, https://matplotlib.org/</dc:title>
     </cc:Agent>
    </dc:creator>
   </cc:Work>
  </rdf:RDF>
 </metadata>
 <defs>
  <style type="text/css">*{stroke-linejoin: round; stroke-linecap: butt}</style>
 </defs>
 <g id="figure_1">
  <g id="patch_1">
   <path d="M -0 85.723062 
L 93.025406 85.723062 
L 93.025406 0 
L -0 0 
z
" style="fill: #ffffff"/>
  </g>
  <g id="axes_1">
   <g id="patch_2">
    <path d="M 24.841406 68.184 
L 85.825406 68.184 
L 85.825406 7.2 
L 24.841406 7.2 
z
" style="fill: #ffffff"/>
   </g>
   <g id="line2d_1">
    <path d="M 24.841406 37.692 
L 85.825406 37.692 
" clip-path="url(#p99cf5607bb)" style="fill: none; stroke-dasharray: 1.11,0.48; stroke-dashoffset: 0; stroke: #000000; stroke-width: 0.3"/>
   </g>
   <g id="line2d_2">
    <path d="M 55.333406 68.184 
L 55.333406 7.2 
" clip-path="url(#p99cf5607bb)" style="fill: none; stroke-dasharray: 1.11,0.48; stroke-dashoffset: 0; stroke: #000000; stroke-width: 0.3"/>
   </g>
   <g id="matplotlib.axis_1">
    <g id="xtick_1">
     <g id="line2d_3">
      <defs>
       <path id="mf974cf06d9" d="M 0 0 
L 0 2 
" style="stroke: #000000; stroke-width: 0.5"/>
      </defs>
      <g>
       <use xlink:href="#mf974cf06d9" x="38.393406" y="68.184" style="stroke: #000000; stroke-width: 0.5"/>
      </g>
     </g>
     <g id="text_1">
      <!-- −0.25 -->
      <g transform="translate(30.732078 77.483219) scale(0.05 -0.05)">
       <defs>
        <path id="DejaVuSans-2212" d="M 678 2272 
L 4684 2272 
L 4684 1741 
L 678 1741 
L 678 2272 
z
" transform="scale(0.015625)"/>
        <path id="DejaVuSans-30" d="M 2034 4250 
Q 1547 4250 1301 3770 
Q 1056 3291 1056 2328 
Q 1056 1369 1301 889 
Q 1547 409 2034 409 
Q 2525 409 2770 889 
Q 3016 1369 3016 2328 
Q 3016 3291 2770 3770 
Q 2525 4250 2034 4250 
z
M 2034 4750 
Q 2819 4750 3233 4129 
Q 3647 3509 3647 2328 
Q 3647 1150 3233 529 
Q 2819 -91 2034 -91 
Q 1250 -91 836 529 
Q 422 1150 422 2328 
Q 422 3509 836 4129 
Q 1250 4750 2034 4750 
z
" transform="scale(0.015625)"/>
        <path id="DejaVuSans-2e" d="M 684 794 
L 1344 794 
L 1344 0 
L 684 0 
L 684 794 
z
" transform="scale(0.015625)"/>
        <path id="DejaVuSans-32" d="M 1228 531 
L 3431 531 
L 3431 0 
L 469 0 
L 469 531 
Q 828 903 1448 1529 
Q 2069 2156 2228 2338 
Q 2531 2678 2651 2914 
Q 2772 3150 2772 3378 
Q 2772 3750 2511 3984 
Q 2250 4219 1831 4219 
Q 1534 4219 1204 4116 
Q 875 4013 500 3803 
L 500 4441 
Q 881 4594 1212 4672 
Q 1544 4750 1819 4750 
Q 2544 4750 2975 4387 
Q 3406 4025 3406 3419 
Q 3406 3131 3298 2873 
Q 3191 2616 2906 2266 
Q 2828 2175 2409 1742 
Q 1991 1309 1228 531 
z
" transform="scale(0.015625)"/>
        <path id="DejaVuSans-35" d="M 691 4666 
L 3169 4666 
L 3169 4134 
L 1269 4134 
L 1269 2991 
Q 1406 3038 1543 3061 
Q 1681 3084 1819 3084 
Q 2600 3084 3056 2656 
Q 3513 2228 3513 1497 
Q 3513 744 3044 326 
Q 2575 -91 1722 -91 
Q 1428 -91 1123 -41 
Q 819 9 494 109 
L 494 744 
Q 775 591 1075 516 
Q 1375 441 1709 441 
Q 2250 441 2565 725 
Q 2881 1009 2881 1497 
Q 2881 1984 2565 2268 
Q 2250 2553 1709 2553 
Q 1456 2553 1204 2497 
Q 953 2441 691 2322 
L 691 4666 
z
" transform="scale(0.015625)"/>
       </defs>
       <use xlink:href="#DejaVuSans-2212"/>
       <use xlink:href="#DejaVuSans-30" x="83.789062"/>
       <use xlink:href="#DejaVuSans-2e" x="147.412109"/>
       <use xlink:href="#DejaVuSans-32" x="179.199219"/>
       <use xlink:href="#DejaVuSans-35" x="242.822266"/>
      </g>
     </g>
    </g>
    <g id="xtick_2">
     <g id="line2d_4">
      <g>
       <use xlink:href="#mf974cf06d9" x="55.333406" y="68.184" style="stroke: #000000; stroke-width: 0.5"/>
      </g>
     </g>
     <g id="text_2">
      <!-- 0.00 -->
      <g transform="translate(49.767 77.483219) scale(0.05 -0.05)">
       <use xlink:href="#DejaVuSans-30"/>
       <use xlink:href="#DejaVuSans-2e" x="63.623047"/>
       <use xlink:href="#DejaVuSans-30" x="95.410156"/>
       <use xlink:href="#DejaVuSans-30" x="159.033203"/>
      </g>
     </g>
    </g>
    <g id="xtick_3">
     <g id="line2d_5">
      <g>
       <use xlink:href="#mf974cf06d9" x="72.273406" y="68.184" style="stroke: #000000; stroke-width: 0.5"/>
      </g>
     </g>
     <g id="text_3">
      <!-- 0.25 -->
      <g transform="translate(66.707 77.483219) scale(0.05 -0.05)">
       <use xlink:href="#DejaVuSans-30"/>
       <use xlink:href="#DejaVuSans-2e" x="63.623047"/>
       <use xlink:href="#DejaVuSans-32" x="95.410156"/>
       <use xlink:href="#DejaVuSans-35" x="159.033203"/>
      </g>
     </g>
    </g>
   </g>
   <g id="matplotlib.axis_2">
    <g id="ytick_1">
     <g id="line2d_6">
      <defs>
       <path id="mff342c4124" d="M 0 0 
L -2 0 
" style="stroke: #000000; stroke-width: 0.5"/>
      </defs>
      <g>
       <use xlink:href="#mff342c4124" x="24.841406" y="64.796" style="stroke: #000000; stroke-width: 0.5"/>
      </g>
     </g>
     <g id="text_4">
      <!-- −0.4 -->
      <g transform="translate(7.2 66.695609) scale(0.05 -0.05)">
       <defs>
        <path id="DejaVuSans-34" d="M 2419 4116 
L 825 1625 
L 2419 1625 
L 2419 4116 
z
M 2253 4666 
L 3047 4666 
L 3047 1625 
L 3713 1625 
L 3713 1100 
L 3047 1100 
L 3047 0 
L 2419 0 
L 2419 1100 
L 313 1100 
L 313 1709 
L 2253 4666 
z
" transform="scale(0.015625)"/>
       </defs>
       <use xlink:href="#DejaVuSans-2212"/>
       <use xlink:href="#DejaVuSans-30" x="83.789062"/>
       <use xlink:href="#DejaVuSans-2e" x="147.412109"/>
       <use xlink:href="#DejaVuSans-34" x="179.199219"/>
      </g>
     </g>
    </g>
    <g id="ytick_2">
     <g id="line2d_7">
      <g>
       <use xlink:href="#mff342c4124" x="24.841406" y="51.244" style="stroke: #000000; stroke-width: 0.5"/>
      </g>
     </g>
     <g id="text_5">
      <!-- −0.2 -->
      <g transform="translate(7.2 53.143609) scale(0.05 -0.05)">
       <use xlink:href="#DejaVuSans-2212"/>
       <use xlink:href="#DejaVuSans-30" x="83.789062"/>
       <use xlink:href="#DejaVuSans-2e" x="147.412109"/>
       <use xlink:href="#DejaVuSans-32" x="179.199219"/>
      </g>
     </g>
    </g>
    <g id="ytick_3">
     <g id="line2d_8">
      <g>
       <use xlink:href="#mff342c4124" x="24.841406" y="37.692" style="stroke: #000000; stroke-width: 0.5"/>
      </g>
     </g>
     <g id="text_6">
      <!-- 0.0 -->
      <g transform="translate(11.389844 39.591609) scale(0.05 -0.05)">
       <use xlink:href="#DejaVuSans-30"/>
       <use xlink:href="#DejaVuSans-2e" x="63.623047"/>
       <use xlink:href="#DejaVuSans-30" x="95.410156"/>
      </g>
     </g>
    </g>
    <g id="ytick_4">
     <g id="line2d_9">
      <g>
       <use xlink:href="#mff342c4124" x="24.841406" y="24.14" style="stroke: #000000; stroke-width: 0.5"/>
      </g>
     </g>
     <g id="text_7">
      <!-- 0.2 -->
      <g transform="translate(11.389844 26.039609) scale(0.05 -0.05)">
       <use xlink:href="#DejaVuSans-30"/>
       <use xlink:href="#DejaVuSans-2e" x="63.623047"/>
       <use xlink:href="#DejaVuSans-32" x="95.410156"/>
      </g>
     </g>
    </g>
    <g id="ytick_5">
     <g id="line2d_10">
      <g>
       <use xlink:href="#mff342c4124" x="24.841406" y="10.588" style="stroke: #000000; stroke-width: 0.5"/>
      </g>
     </g>
     <g id="text_8">
      <!-- 0.4 -->
      <g transform="translate(11.389844 12.487609) scale(0.05 -0.05)">
       <use xlink:href="#DejaVuSans-30"/>
       <use xlink:href="#DejaVuSans-2e" x="63.623047"/>
       <use xlink:href="#DejaVuSans-34" x="95.410156"/>
      </g>
     </g>
    </g>
   </g>
   <g id="PathCollection_1">
    <defs>
     <path id="m41c1805e65" d="M 0 1.224745 
C 0.324806 1.224745 0.636353 1.095698 0.866025 0.866025 
C 1.095698 0.636353 1.224745 0.324806 1.224745 0 
C 1.224745 -0.324806 1.095698 -0.636353 0.866025 -0.866025 
C 0.636353 -1.095698 0.324806 -1.224745 0 -1.224745 
C -0.324806 -1.224745 -0.636353 -1.095698 -0.866025 -0.866025 
C -1.095698 -0.636353 -1.224745 -0.324806 -1.224745 0 
C -1.224745 0.324806 -1.095698 0.636353 -0.866025 0.866025 
C -0.636353 1.095698 -0.324806 1.224745 0 1.224745 
z
" style="stroke: #000000; stroke-opacity: 0.7; stroke-width: 0.1"/>
    </defs>
    <g clip-path="url(#p99cf5607bb)">
     <use xlink:href="#m41c1805e65" x="54.225075" y="34.47422" style="fill: #5d7986; fill-opacity: 0.7; stroke: #000000; stroke-opacity: 0.7; stroke-width: 0.1"/>
    </g>
   </g>
   <g id="PathCollection_2">
    <defs>
     <path id="m6d8aaf4768" d="M 0 1.224745 
C 0.324806 1.224745 0.636353 1.095698 0.866025 0.866025 
C 1.095698 0.636353 1.224745 0.324806 1.224745 0 
C 1.224745 -0.324806 1.095698 -0.636353 0.866025 -0.866025 
C 0.636353 -1.095698 0.324806 -1.224745 0 -1.224745 
C -0.324806 -1.224745 -0.636353 -1.095698 -0.866025 -0.866025 
C -1.095698 -0.636353 -1.224745 -0.324806 -1.224745 0 
C -1.224745 0.324806 -1.095698 0.636353 -0.866025 0.866025 
C -0.636353 1.095698 -0.324806 1.224745 0 1.224745 
z
" style="stroke: #000000; stroke-opacity: 0.7; stroke-width: 0.1"/>
    </defs>
    <g clip-path="url(#p99cf5607bb)">
     <use xlink:href="#m6d8aaf4768" x="61.945241" y="30.599506" style="fill: #1f77b4; fill-opacity: 0.7; stroke: #000000; stroke-opacity: 0.7; stroke-width: 0.1"/>
    </g>
   </g>
   <g id="PathCollection_3">
    <defs>
     <path id="ma75ddeb9cc" d="M 0 1.224745 
C 0.324806 1.224745 0.636353 1.095698 0.866025 0.866025 
C 1.095698 0.636353 1.224745 0.324806 1.224745 0 
C 1.224745 -0.324806 1.095698 -0.636353 0.866025 -0.866025 
C 0.636353 -1.095698 0.324806 -1.224745 0 -1.224745 
C -0.324806 -1.224745 -0.636353 -1.095698 -0.866025 -0.866025 
C -1.095698 -0.636353 -1.224745 -0.324806 -1.224745 0 
C -1.224745 0.324806 -1.095698 0.636353 -0.866025 0.866025 
C -0.636353 1.095698 -0.324806 1.224745 0 1.224745 
z
" style="stroke: #000000; stroke-opacity: 0.7; stroke-width: 0.1"/>
    </defs>
    <g clip-path="url(#p99cf5607bb)">
     <use xlink:href="#ma75ddeb9cc" x="68.32239" y="34.431478" style="fill: #2f78a8; fill-opacity: 0.7; stroke: #000000; stroke-opacity: 0.7; stroke-width: 0.1"/>
    </g>
   </g>
   <g id="PathCollection_4">
    <defs>
     <path id="mc69ff9f10a" d="M 0 1.224745 
C 0.324806 1.224745 0.636353 1.095698 0.866025 0.866025 
C 1.095698 0.636353 1.224745 0.324806 1.224745 0 
C 1.224745 -0.324806 1.095698 -0.636353 0.866025 -0.866025 
C 0.636353 -1.095698 0.324806 -1.224745 0 -1.224745 
C -0.324806 -1.224745 -0.636353 -1.095698 -0.866025 -0.866025 
C -1.095698 -0.636353 -1.224745 -0.324806 -1.224745 0 
C -1.224745 0.324806 -1.095698 0.636353 -0.866025 0.866025 
C -0.636353 1.095698 -0.324806 1.224745 0 1.224745 
z
" style="stroke: #000000; stroke-opacity: 0.7; stroke-width: 0.1"/>
    </defs>
    <g clip-path="url(#p99cf5607bb)">
     <use xlink:href="#mc69ff9f10a" x="54.585656" y="36.930644" style="fill: #8e7b62; fill-opacity: 0.7; stroke: #000000; stroke-opacity: 0.7; stroke-width: 0.1"/>
    </g>
   </g>
   <g id="PathCollection_5">
    <defs>
     <path id="md1fb44caca" d="M 0 1.224745 
C 0.324806 1.224745 0.636353 1.095698 0.866025 0.866025 
C 1.095698 0.636353 1.224745 0.324806 1.224745 0 
C 1.224745 -0.324806 1.095698 -0.636353 0.866025 -0.866025 
C 0.636353 -1.095698 0.324806 -1.224745 0 -1.224745 
C -0.324806 -1.224745 -0.636353 -1.095698 -0.866025 -0.866025 
C -1.095698 -0.636353 -1.224745 -0.324806 -1.224745 0 
C -1.224745 0.324806 -1.095698 0.636353 -0.866025 0.866025 
C -0.636353 1.095698 -0.324806 1.224745 0 1.224745 
z
" style="stroke: #000000; stroke-opacity: 0.7; stroke-width: 0.1"/>
    </defs>
    <g clip-path="url(#p99cf5607bb)">
     <use xlink:href="#md1fb44caca" x="58.215111" y="37.016503" style="fill: #3078a8; fill-opacity: 0.7; stroke: #000000; stroke-opacity: 0.7; stroke-width: 0.1"/>
    </g>
   </g>
   <g id="PathCollection_6">
    <defs>
     <path id="m73a1b9c95b" d="M 0 1.224745 
C 0.324806 1.224745 0.636353 1.095698 0.866025 0.866025 
C 1.095698 0.636353 1.224745 0.324806 1.224745 0 
C 1.224745 -0.324806 1.095698 -0.636353 0.866025 -0.866025 
C 0.636353 -1.095698 0.324806 -1.224745 0 -1.224745 
C -0.324806 -1.224745 -0.636353 -1.095698 -0.866025 -0.866025 
C -1.095698 -0.636353 -1.224745 -0.324806 -1.224745 0 
C -1.224745 0.324806 -1.095698 0.636353 -0.866025 0.866025 
C -0.636353 1.095698 -0.324806 1.224745 0 1.224745 
z
" style="stroke: #000000; stroke-opacity: 0.7; stroke-width: 0.1"/>
    </defs>
    <g clip-path="url(#p99cf5607bb)">
     <use xlink:href="#m73a1b9c95b" x="58.269142" y="38.511467" style="fill: #58798a; fill-opacity: 0.7; stroke: #000000; stroke-opacity: 0.7; stroke-width: 0.1"/>
    </g>
   </g>
   <g id="PathCollection_7">
    <defs>
     <path id="meb60ffbce8" d="M 0 1.224745 
C 0.324806 1.224745 0.636353 1.095698 0.866025 0.866025 
C 1.095698 0.636353 1.224745 0.324806 1.224745 0 
C 1.224745 -0.324806 1.095698 -0.636353 0.866025 -0.866025 
C 0.636353 -1.095698 0.324806 -1.224745 0 -1.224745 
C -0.324806 -1.224745 -0.636353 -1.095698 -0.866025 -0.866025 
C -1.095698 -0.636353 -1.224745 -0.324806 -1.224745 0 
C -1.224745 0.324806 -1.095698 0.636353 -0.866025 0.866025 
C -0.636353 1.095698 -0.324806 1.224745 0 1.224745 
z
" style="stroke: #000000; stroke-opacity: 0.7; stroke-width: 0.1"/>
    </defs>
    <g clip-path="url(#p99cf5607bb)">
     <use xlink:href="#meb60ffbce8" x="59.408938" y="38.097836" style="fill: #477896; fill-opacity: 0.7; stroke: #000000; stroke-opacity: 0.7; stroke-width: 0.1"/>
    </g>
   </g>
   <g id="PathCollection_8">
    <defs>
     <path id="md28847aafd" d="M 0 1.224745 
C 0.324806 1.224745 0.636353 1.095698 0.866025 0.866025 
C 1.095698 0.636353 1.224745 0.324806 1.224745 0 
C 1.224745 -0.324806 1.095698 -0.636353 0.866025 -0.866025 
C 0.636353 -1.095698 0.324806 -1.224745 0 -1.224745 
C -0.324806 -1.224745 -0.636353 -1.095698 -0.866025 -0.866025 
C -1.095698 -0.636353 -1.224745 -0.324806 -1.224745 0 
C -1.224745 0.324806 -1.095698 0.636353 -0.866025 0.866025 
C -0.636353 1.095698 -0.324806 1.224745 0 1.224745 
z
" style="stroke: #000000; stroke-opacity: 0.7; stroke-width: 0.1"/>
    </defs>
    <g clip-path="url(#p99cf5607bb)">
     <use xlink:href="#md28847aafd" x="66.417574" y="34.080252" style="fill: #2a77ac; fill-opacity: 0.7; stroke: #000000; stroke-opacity: 0.7; stroke-width: 0.1"/>
    </g>
   </g>
   <g id="PathCollection_9">
    <defs>
     <path id="me174a0c22a" d="M 0 1.224745 
C 0.324806 1.224745 0.636353 1.095698 0.866025 0.866025 
C 1.095698 0.636353 1.224745 0.324806 1.224745 0 
C 1.224745 -0.324806 1.095698 -0.636353 0.866025 -0.866025 
C 0.636353 -1.095698 0.324806 -1.224745 0 -1.224745 
C -0.324806 -1.224745 -0.636353 -1.095698 -0.866025 -0.866025 
C -1.095698 -0.636353 -1.224745 -0.324806 -1.224745 0 
C -1.224745 0.324806 -1.095698 0.636353 -0.866025 0.866025 
C -0.636353 1.095698 -0.324806 1.224745 0 1.224745 
z
" style="stroke: #000000; stroke-opacity: 0.7; stroke-width: 0.1"/>
    </defs>
    <g clip-path="url(#p99cf5607bb)">
     <use xlink:href="#me174a0c22a" x="54.66247" y="32.923846" style="fill: #4b7993; fill-opacity: 0.7; stroke: #000000; stroke-opacity: 0.7; stroke-width: 0.1"/>
    </g>
   </g>
   <g id="PathCollection_10">
    <defs>
     <path id="m46a3fb2148" d="M 0 1.224745 
C 0.324806 1.224745 0.636353 1.095698 0.866025 0.866025 
C 1.095698 0.636353 1.224745 0.324806 1.224745 0 
C 1.224745 -0.324806 1.095698 -0.636353 0.866025 -0.866025 
C 0.636353 -1.095698 0.324806 -1.224745 0 -1.224745 
C -0.324806 -1.224745 -0.636353 -1.095698 -0.866025 -0.866025 
C -1.095698 -0.636353 -1.224745 -0.324806 -1.224745 0 
C -1.224745 0.324806 -1.095698 0.636353 -0.866025 0.866025 
C -0.636353 1.095698 -0.324806 1.224745 0 1.224745 
z
" style="stroke: #000000; stroke-opacity: 0.7; stroke-width: 0.1"/>
    </defs>
    <g clip-path="url(#p99cf5607bb)">
     <use xlink:href="#m46a3fb2148" x="43.803326" y="39.171152" style="fill: #e87e1f; fill-opacity: 0.7; stroke: #000000; stroke-opacity: 0.7; stroke-width: 0.1"/>
    </g>
   </g>
   <g id="PathCollection_11">
    <g clip-path="url(#p99cf5607bb)">
     <use xlink:href="#md28847aafd" x="57.583336" y="36.898946" style="fill: #2a77ac; fill-opacity: 0.7; stroke: #000000; stroke-opacity: 0.7; stroke-width: 0.1"/>
    </g>
   </g>
   <g id="PathCollection_12">
    <defs>
     <path id="m8a3765ea35" d="M 0 1.224745 
C 0.324806 1.224745 0.636353 1.095698 0.866025 0.866025 
C 1.095698 0.636353 1.224745 0.324806 1.224745 0 
C 1.224745 -0.324806 1.095698 -0.636353 0.866025 -0.866025 
C 0.636353 -1.095698 0.324806 -1.224745 0 -1.224745 
C -0.324806 -1.224745 -0.636353 -1.095698 -0.866025 -0.866025 
C -1.095698 -0.636353 -1.224745 -0.324806 -1.224745 0 
C -1.224745 0.324806 -1.095698 0.636353 -0.866025 0.866025 
C -0.636353 1.095698 -0.324806 1.224745 0 1.224745 
z
" style="stroke: #000000; stroke-opacity: 0.7; stroke-width: 0.1"/>
    </defs>
    <g clip-path="url(#p99cf5607bb)">
     <use xlink:href="#m8a3765ea35" x="71.355724" y="31.43313" style="fill: #2877ad; fill-opacity: 0.7; stroke: #000000; stroke-opacity: 0.7; stroke-width: 0.1"/>
    </g>
   </g>
   <g id="PathCollection_13">
    <g clip-path="url(#p99cf5607bb)">
     <use xlink:href="#m6d8aaf4768" x="58.758819" y="33.941072" style="fill: #1f77b4; fill-opacity: 0.7; stroke: #000000; stroke-opacity: 0.7; stroke-width: 0.1"/>
    </g>
   </g>
   <g id="PathCollection_14">
    <defs>
     <path id="m70f5a4a463" d="M 0 1.224745 
C 0.324806 1.224745 0.636353 1.095698 0.866025 0.866025 
C 1.095698 0.636353 1.224745 0.324806 1.224745 0 
C 1.224745 -0.324806 1.095698 -0.636353 0.866025 -0.866025 
C 0.636353 -1.095698 0.324806 -1.224745 0 -1.224745 
C -0.324806 -1.224745 -0.636353 -1.095698 -0.866025 -0.866025 
C -1.095698 -0.636353 -1.224745 -0.324806 -1.224745 0 
C -1.224745 0.324806 -1.095698 0.636353 -0.866025 0.866025 
C -0.636353 1.095698 -0.324806 1.224745 0 1.224745 
z
" style="stroke: #000000; stroke-opacity: 0.7; stroke-width: 0.1"/>
    </defs>
    <g clip-path="url(#p99cf5607bb)">
     <use xlink:href="#m70f5a4a463" x="52.855359" y="38.309069" style="fill: #ef7e1a; fill-opacity: 0.7; stroke: #000000; stroke-opacity: 0.7; stroke-width: 0.1"/>
    </g>
   </g>
   <g id="PathCollection_15">
    <defs>
     <path id="m0c04d983df" d="M 0 1.224745 
C 0.324806 1.224745 0.636353 1.095698 0.866025 0.866025 
C 1.095698 0.636353 1.224745 0.324806 1.224745 0 
C 1.224745 -0.324806 1.095698 -0.636353 0.866025 -0.866025 
C 0.636353 -1.095698 0.324806 -1.224745 0 -1.224745 
C -0.324806 -1.224745 -0.636353 -1.095698 -0.866025 -0.866025 
C -1.095698 -0.636353 -1.224745 -0.324806 -1.224745 0 
C -1.224745 0.324806 -1.095698 0.636353 -0.866025 0.866025 
C -0.636353 1.095698 -0.324806 1.224745 0 1.224745 
z
" style="stroke: #000000; stroke-opacity: 0.7; stroke-width: 0.1"/>
    </defs>
    <g clip-path="url(#p99cf5607bb)">
     <use xlink:href="#m0c04d983df" x="70.71682" y="29.499975" style="fill: #2377b1; fill-opacity: 0.7; stroke: #000000; stroke-opacity: 0.7; stroke-width: 0.1"/>
    </g>
   </g>
   <g id="PathCollection_16">
    <defs>
     <path id="m0783b68588" d="M 0 1.224745 
C 0.324806 1.224745 0.636353 1.095698 0.866025 0.866025 
C 1.095698 0.636353 1.224745 0.324806 1.224745 0 
C 1.224745 -0.324806 1.095698 -0.636353 0.866025 -0.866025 
C 0.636353 -1.095698 0.324806 -1.224745 0 -1.224745 
C -0.324806 -1.224745 -0.636353 -1.095698 -0.866025 -0.866025 
C -1.095698 -0.636353 -1.224745 -0.324806 -1.224745 0 
C -1.224745 0.324806 -1.095698 0.636353 -0.866025 0.866025 
C -0.636353 1.095698 -0.324806 1.224745 0 1.224745 
z
" style="stroke: #000000; stroke-opacity: 0.7; stroke-width: 0.1"/>
    </defs>
    <g clip-path="url(#p99cf5607bb)">
     <use xlink:href="#m0783b68588" x="62.880333" y="36.469995" style="fill: #3478a4; fill-opacity: 0.7; stroke: #000000; stroke-opacity: 0.7; stroke-width: 0.1"/>
    </g>
   </g>
   <g id="PathCollection_17">
    <defs>
     <path id="m3315d4f760" d="M 0 1.224745 
C 0.324806 1.224745 0.636353 1.095698 0.866025 0.866025 
C 1.095698 0.636353 1.224745 0.324806 1.224745 0 
C 1.224745 -0.324806 1.095698 -0.636353 0.866025 -0.866025 
C 0.636353 -1.095698 0.324806 -1.224745 0 -1.224745 
C -0.324806 -1.224745 -0.636353 -1.095698 -0.866025 -0.866025 
C -1.095698 -0.636353 -1.224745 -0.324806 -1.224745 0 
C -1.224745 0.324806 -1.095698 0.636353 -0.866025 0.866025 
C -0.636353 1.095698 -0.324806 1.224745 0 1.224745 
z
" style="stroke: #000000; stroke-opacity: 0.7; stroke-width: 0.1"/>
    </defs>
    <g clip-path="url(#p99cf5607bb)">
     <use xlink:href="#m3315d4f760" x="64.419154" y="36.837193" style="fill: #3878a1; fill-opacity: 0.7; stroke: #000000; stroke-opacity: 0.7; stroke-width: 0.1"/>
    </g>
   </g>
   <g id="PathCollection_18">
    <g clip-path="url(#p99cf5607bb)">
     <use xlink:href="#m6d8aaf4768" x="58.836623" y="33.375896" style="fill: #1f77b4; fill-opacity: 0.7; stroke: #000000; stroke-opacity: 0.7; stroke-width: 0.1"/>
    </g>
   </g>
   <g id="PathCollection_19">
    <defs>
     <path id="m38b335e263" d="M 0 1.224745 
C 0.324806 1.224745 0.636353 1.095698 0.866025 0.866025 
C 1.095698 0.636353 1.224745 0.324806 1.224745 0 
C 1.224745 -0.324806 1.095698 -0.636353 0.866025 -0.866025 
C 0.636353 -1.095698 0.324806 -1.224745 0 -1.224745 
C -0.324806 -1.224745 -0.636353 -1.095698 -0.866025 -0.866025 
C -1.095698 -0.636353 -1.224745 -0.324806 -1.224745 0 
C -1.224745 0.324806 -1.095698 0.636353 -0.866025 0.866025 
C -0.636353 1.095698 -0.324806 1.224745 0 1.224745 
z
" style="stroke: #000000; stroke-opacity: 0.7; stroke-width: 0.1"/>
    </defs>
    <g clip-path="url(#p99cf5607bb)">
     <use xlink:href="#m38b335e263" x="49.966165" y="38.898935" style="fill: #ee7e1a; fill-opacity: 0.7; stroke: #000000; stroke-opacity: 0.7; stroke-width: 0.1"/>
    </g>
   </g>
   <g id="PathCollection_20">
    <defs>
     <path id="md9d1cbc46b" d="M 0 1.224745 
C 0.324806 1.224745 0.636353 1.095698 0.866025 0.866025 
C 1.095698 0.636353 1.224745 0.324806 1.224745 0 
C 1.224745 -0.324806 1.095698 -0.636353 0.866025 -0.866025 
C 0.636353 -1.095698 0.324806 -1.224745 0 -1.224745 
C -0.324806 -1.224745 -0.636353 -1.095698 -0.866025 -0.866025 
C -1.095698 -0.636353 -1.224745 -0.324806 -1.224745 0 
C -1.224745 0.324806 -1.095698 0.636353 -0.866025 0.866025 
C -0.636353 1.095698 -0.324806 1.224745 0 1.224745 
z
" style="stroke: #000000; stroke-opacity: 0.7; stroke-width: 0.1"/>
    </defs>
    <g clip-path="url(#p99cf5607bb)">
     <use xlink:href="#md9d1cbc46b" x="58.216346" y="35.708267" style="fill: #2177b3; fill-opacity: 0.7; stroke: #000000; stroke-opacity: 0.7; stroke-width: 0.1"/>
    </g>
   </g>
   <g id="PathCollection_21">
    <defs>
     <path id="m104d6c078b" d="M 0 1.224745 
C 0.324806 1.224745 0.636353 1.095698 0.866025 0.866025 
C 1.095698 0.636353 1.224745 0.324806 1.224745 0 
C 1.224745 -0.324806 1.095698 -0.636353 0.866025 -0.866025 
C 0.636353 -1.095698 0.324806 -1.224745 0 -1.224745 
C -0.324806 -1.224745 -0.636353 -1.095698 -0.866025 -0.866025 
C -1.095698 -0.636353 -1.224745 -0.324806 -1.224745 0 
C -1.224745 0.324806 -1.095698 0.636353 -0.866025 0.866025 
C -0.636353 1.095698 -0.324806 1.224745 0 1.224745 
z
" style="stroke: #000000; stroke-opacity: 0.7; stroke-width: 0.1"/>
    </defs>
    <g clip-path="url(#p99cf5607bb)">
     <use xlink:href="#m104d6c078b" x="50.639546" y="39.486836" style="fill: #f57f15; fill-opacity: 0.7; stroke: #000000; stroke-opacity: 0.7; stroke-width: 0.1"/>
    </g>
   </g>
   <g id="PathCollection_22">
    <defs>
     <path id="m0098bd4f6e" d="M 0 1.224745 
C 0.324806 1.224745 0.636353 1.095698 0.866025 0.866025 
C 1.095698 0.636353 1.224745 0.324806 1.224745 0 
C 1.224745 -0.324806 1.095698 -0.636353 0.866025 -0.866025 
C 0.636353 -1.095698 0.324806 -1.224745 0 -1.224745 
C -0.324806 -1.224745 -0.636353 -1.095698 -0.866025 -0.866025 
C -1.095698 -0.636353 -1.224745 -0.324806 -1.224745 0 
C -1.224745 0.324806 -1.095698 0.636353 -0.866025 0.866025 
C -0.636353 1.095698 -0.324806 1.224745 0 1.224745 
z
" style="stroke: #000000; stroke-opacity: 0.7; stroke-width: 0.1"/>
    </defs>
    <g clip-path="url(#p99cf5607bb)">
     <use xlink:href="#m0098bd4f6e" x="56.825712" y="37.90442" style="fill: #4c7993; fill-opacity: 0.7; stroke: #000000; stroke-opacity: 0.7; stroke-width: 0.1"/>
    </g>
   </g>
   <g id="PathCollection_23">
    <defs>
     <path id="mca2eed319e" d="M 0 1.224745 
C 0.324806 1.224745 0.636353 1.095698 0.866025 0.866025 
C 1.095698 0.636353 1.224745 0.324806 1.224745 0 
C 1.224745 -0.324806 1.095698 -0.636353 0.866025 -0.866025 
C 0.636353 -1.095698 0.324806 -1.224745 0 -1.224745 
C -0.324806 -1.224745 -0.636353 -1.095698 -0.866025 -0.866025 
C -1.095698 -0.636353 -1.224745 -0.324806 -1.224745 0 
C -1.224745 0.324806 -1.095698 0.636353 -0.866025 0.866025 
C -0.636353 1.095698 -0.324806 1.224745 0 1.224745 
z
" style="stroke: #000000; stroke-opacity: 0.7; stroke-width: 0.1"/>
    </defs>
    <g clip-path="url(#p99cf5607bb)">
     <use xlink:href="#mca2eed319e" x="46.769194" y="40.097115" style="fill: #f17e18; fill-opacity: 0.7; stroke: #000000; stroke-opacity: 0.7; stroke-width: 0.1"/>
    </g>
   </g>
   <g id="PathCollection_24">
    <g clip-path="url(#p99cf5607bb)">
     <use xlink:href="#m8a3765ea35" x="69.180343" y="32.124758" style="fill: #2877ad; fill-opacity: 0.7; stroke: #000000; stroke-opacity: 0.7; stroke-width: 0.1"/>
    </g>
   </g>
   <g id="PathCollection_25">
    <defs>
     <path id="md087213a20" d="M 0 1.224745 
C 0.324806 1.224745 0.636353 1.095698 0.866025 0.866025 
C 1.095698 0.636353 1.224745 0.324806 1.224745 0 
C 1.224745 -0.324806 1.095698 -0.636353 0.866025 -0.866025 
C 0.636353 -1.095698 0.324806 -1.224745 0 -1.224745 
C -0.324806 -1.224745 -0.636353 -1.095698 -0.866025 -0.866025 
C -1.095698 -0.636353 -1.224745 -0.324806 -1.224745 0 
C -1.224745 0.324806 -1.095698 0.636353 -0.866025 0.866025 
C -0.636353 1.095698 -0.324806 1.224745 0 1.224745 
z
" style="stroke: #000000; stroke-opacity: 0.7; stroke-width: 0.1"/>
    </defs>
    <g clip-path="url(#p99cf5607bb)">
     <use xlink:href="#md087213a20" x="70.517529" y="30.896132" style="fill: #2677af; fill-opacity: 0.7; stroke: #000000; stroke-opacity: 0.7; stroke-width: 0.1"/>
    </g>
   </g>
   <g id="PathCollection_26">
    <defs>
     <path id="mf15c60baa4" d="M 0 1.224745 
C 0.324806 1.224745 0.636353 1.095698 0.866025 0.866025 
C 1.095698 0.636353 1.224745 0.324806 1.224745 0 
C 1.224745 -0.324806 1.095698 -0.636353 0.866025 -0.866025 
C 0.636353 -1.095698 0.324806 -1.224745 0 -1.224745 
C -0.324806 -1.224745 -0.636353 -1.095698 -0.866025 -0.866025 
C -1.095698 -0.636353 -1.224745 -0.324806 -1.224745 0 
C -1.224745 0.324806 -1.095698 0.636353 -0.866025 0.866025 
C -0.636353 1.095698 -0.324806 1.224745 0 1.224745 
z
" style="stroke: #000000; stroke-opacity: 0.7; stroke-width: 0.1"/>
    </defs>
    <g clip-path="url(#p99cf5607bb)">
     <use xlink:href="#mf15c60baa4" x="62.455226" y="36.927818" style="fill: #3878a2; fill-opacity: 0.7; stroke: #000000; stroke-opacity: 0.7; stroke-width: 0.1"/>
    </g>
   </g>
   <g id="PathCollection_27">
    <defs>
     <path id="m25be8e8f8b" d="M 0 1.224745 
C 0.324806 1.224745 0.636353 1.095698 0.866025 0.866025 
C 1.095698 0.636353 1.224745 0.324806 1.224745 0 
C 1.224745 -0.324806 1.095698 -0.636353 0.866025 -0.866025 
C 0.636353 -1.095698 0.324806 -1.224745 0 -1.224745 
C -0.324806 -1.224745 -0.636353 -1.095698 -0.866025 -0.866025 
C -1.095698 -0.636353 -1.224745 -0.324806 -1.224745 0 
C -1.224745 0.324806 -1.095698 0.636353 -0.866025 0.866025 
C -0.636353 1.095698 -0.324806 1.224745 0 1.224745 
z
" style="stroke: #000000; stroke-opacity: 0.7; stroke-width: 0.1"/>
    </defs>
    <g clip-path="url(#p99cf5607bb)">
     <use xlink:href="#m25be8e8f8b" x="55.796921" y="40.732118" style="fill: #d17d30; fill-opacity: 0.7; stroke: #000000; stroke-opacity: 0.7; stroke-width: 0.1"/>
    </g>
   </g>
   <g id="PathCollection_28">
    <defs>
     <path id="m9120d1206d" d="M 0 1.224745 
C 0.324806 1.224745 0.636353 1.095698 0.866025 0.866025 
C 1.095698 0.636353 1.224745 0.324806 1.224745 0 
C 1.224745 -0.324806 1.095698 -0.636353 0.866025 -0.866025 
C 0.636353 -1.095698 0.324806 -1.224745 0 -1.224745 
C -0.324806 -1.224745 -0.636353 -1.095698 -0.866025 -0.866025 
C -1.095698 -0.636353 -1.224745 -0.324806 -1.224745 0 
C -1.224745 0.324806 -1.095698 0.636353 -0.866025 0.866025 
C -0.636353 1.095698 -0.324806 1.224745 0 1.224745 
z
" style="stroke: #000000; stroke-opacity: 0.7; stroke-width: 0.1"/>
    </defs>
    <g clip-path="url(#p99cf5607bb)">
     <use xlink:href="#m9120d1206d" x="62.216536" y="38.44674" style="fill: #487895; fill-opacity: 0.7; stroke: #000000; stroke-opacity: 0.7; stroke-width: 0.1"/>
    </g>
   </g>
   <g id="PathCollection_29">
    <g clip-path="url(#p99cf5607bb)">
     <use xlink:href="#md9d1cbc46b" x="62.48043" y="33.105817" style="fill: #2177b3; fill-opacity: 0.7; stroke: #000000; stroke-opacity: 0.7; stroke-width: 0.1"/>
    </g>
   </g>
   <g id="PathCollection_30">
    <g clip-path="url(#p99cf5607bb)">
     <use xlink:href="#mc69ff9f10a" x="58.595832" y="40.899363" style="fill: #8e7b62; fill-opacity: 0.7; stroke: #000000; stroke-opacity: 0.7; stroke-width: 0.1"/>
    </g>
   </g>
   <g id="PathCollection_31">
    <defs>
     <path id="m623bffbd5f" d="M 0 1.224745 
C 0.324806 1.224745 0.636353 1.095698 0.866025 0.866025 
C 1.095698 0.636353 1.224745 0.324806 1.224745 0 
C 1.224745 -0.324806 1.095698 -0.636353 0.866025 -0.866025 
C 0.636353 -1.095698 0.324806 -1.224745 0 -1.224745 
C -0.324806 -1.224745 -0.636353 -1.095698 -0.866025 -0.866025 
C -1.095698 -0.636353 -1.224745 -0.324806 -1.224745 0 
C -1.224745 0.324806 -1.095698 0.636353 -0.866025 0.866025 
C -0.636353 1.095698 -0.324806 1.224745 0 1.224745 
z
" style="stroke: #000000; stroke-opacity: 0.7; stroke-width: 0.1"/>
    </defs>
    <g clip-path="url(#p99cf5607bb)">
     <use xlink:href="#m623bffbd5f" x="55.813295" y="40.257407" style="fill: #cf7d32; fill-opacity: 0.7; stroke: #000000; stroke-opacity: 0.7; stroke-width: 0.1"/>
    </g>
   </g>
   <g id="PathCollection_32">
    <g clip-path="url(#p99cf5607bb)">
     <use xlink:href="#m73a1b9c95b" x="63.399951" y="39.973921" style="fill: #58798a; fill-opacity: 0.7; stroke: #000000; stroke-opacity: 0.7; stroke-width: 0.1"/>
    </g>
   </g>
   <g id="PathCollection_33">
    <defs>
     <path id="mb29798d4a7" d="M 0 1.224745 
C 0.324806 1.224745 0.636353 1.095698 0.866025 0.866025 
C 1.095698 0.636353 1.224745 0.324806 1.224745 0 
C 1.224745 -0.324806 1.095698 -0.636353 0.866025 -0.866025 
C 0.636353 -1.095698 0.324806 -1.224745 0 -1.224745 
C -0.324806 -1.224745 -0.636353 -1.095698 -0.866025 -0.866025 
C -1.095698 -0.636353 -1.224745 -0.324806 -1.224745 0 
C -1.224745 0.324806 -1.095698 0.636353 -0.866025 0.866025 
C -0.636353 1.095698 -0.324806 1.224745 0 1.224745 
z
" style="stroke: #000000; stroke-opacity: 0.7; stroke-width: 0.1"/>
    </defs>
    <g clip-path="url(#p99cf5607bb)">
     <use xlink:href="#mb29798d4a7" x="62.67388" y="35.701927" style="fill: #2d78aa; fill-opacity: 0.7; stroke: #000000; stroke-opacity: 0.7; stroke-width: 0.1"/>
    </g>
   </g>
   <g id="PathCollection_34">
    <defs>
     <path id="m0345af70aa" d="M 0 1.224745 
C 0.324806 1.224745 0.636353 1.095698 0.866025 0.866025 
C 1.095698 0.636353 1.224745 0.324806 1.224745 0 
C 1.224745 -0.324806 1.095698 -0.636353 0.866025 -0.866025 
C 0.636353 -1.095698 0.324806 -1.224745 0 -1.224745 
C -0.324806 -1.224745 -0.636353 -1.095698 -0.866025 -0.866025 
C -1.095698 -0.636353 -1.224745 -0.324806 -1.224745 0 
C -1.224745 0.324806 -1.095698 0.636353 -0.866025 0.866025 
C -0.636353 1.095698 -0.324806 1.224745 0 1.224745 
z
" style="stroke: #000000; stroke-opacity: 0.7; stroke-width: 0.1"/>
    </defs>
    <g clip-path="url(#p99cf5607bb)">
     <use xlink:href="#m0345af70aa" x="54.809782" y="36.206756" style="fill: #5e7985; fill-opacity: 0.7; stroke: #000000; stroke-opacity: 0.7; stroke-width: 0.1"/>
    </g>
   </g>
   <g id="PathCollection_35">
    <defs>
     <path id="mf591470c13" d="M 0 1.224745 
C 0.324806 1.224745 0.636353 1.095698 0.866025 0.866025 
C 1.095698 0.636353 1.224745 0.324806 1.224745 0 
C 1.224745 -0.324806 1.095698 -0.636353 0.866025 -0.866025 
C 0.636353 -1.095698 0.324806 -1.224745 0 -1.224745 
C -0.324806 -1.224745 -0.636353 -1.095698 -0.866025 -0.866025 
C -1.095698 -0.636353 -1.224745 -0.324806 -1.224745 0 
C -1.224745 0.324806 -1.095698 0.636353 -0.866025 0.866025 
C -0.636353 1.095698 -0.324806 1.224745 0 1.224745 
z
" style="stroke: #000000; stroke-opacity: 0.7; stroke-width: 0.1"/>
    </defs>
    <g clip-path="url(#p99cf5607bb)">
     <use xlink:href="#mf591470c13" x="56.01104" y="37.344622" style="fill: #2477b0; fill-opacity: 0.7; stroke: #000000; stroke-opacity: 0.7; stroke-width: 0.1"/>
    </g>
   </g>
   <g id="PathCollection_36">
    <defs>
     <path id="m7061af7611" d="M 0 1.224745 
C 0.324806 1.224745 0.636353 1.095698 0.866025 0.866025 
C 1.095698 0.636353 1.224745 0.324806 1.224745 0 
C 1.224745 -0.324806 1.095698 -0.636353 0.866025 -0.866025 
C 0.636353 -1.095698 0.324806 -1.224745 0 -1.224745 
C -0.324806 -1.224745 -0.636353 -1.095698 -0.866025 -0.866025 
C -1.095698 -0.636353 -1.224745 -0.324806 -1.224745 0 
C -1.224745 0.324806 -1.095698 0.636353 -0.866025 0.866025 
C -0.636353 1.095698 -0.324806 1.224745 0 1.224745 
z
" style="stroke: #000000; stroke-opacity: 0.7; stroke-width: 0.1"/>
    </defs>
    <g clip-path="url(#p99cf5607bb)">
     <use xlink:href="#m7061af7611" x="61.989099" y="37.754585" style="fill: #40789b; fill-opacity: 0.7; stroke: #000000; stroke-opacity: 0.7; stroke-width: 0.1"/>
    </g>
   </g>
   <g id="PathCollection_37">
    <defs>
     <path id="mcf70c839d5" d="M 0 1.224745 
C 0.324806 1.224745 0.636353 1.095698 0.866025 0.866025 
C 1.095698 0.636353 1.224745 0.324806 1.224745 0 
C 1.224745 -0.324806 1.095698 -0.636353 0.866025 -0.866025 
C 0.636353 -1.095698 0.324806 -1.224745 0 -1.224745 
C -0.324806 -1.224745 -0.636353 -1.095698 -0.866025 -0.866025 
C -1.095698 -0.636353 -1.224745 -0.324806 -1.224745 0 
C -1.224745 0.324806 -1.095698 0.636353 -0.866025 0.866025 
C -0.636353 1.095698 -0.324806 1.224745 0 1.224745 
z
" style="stroke: #000000; stroke-opacity: 0.7; stroke-width: 0.1"/>
    </defs>
    <g clip-path="url(#p99cf5607bb)">
     <use xlink:href="#mcf70c839d5" x="51.363321" y="36.027465" style="fill: #ba7d41; fill-opacity: 0.7; stroke: #000000; stroke-opacity: 0.7; stroke-width: 0.1"/>
    </g>
   </g>
   <g id="PathCollection_38">
    <defs>
     <path id="mab623beb66" d="M 0 1.224745 
C 0.324806 1.224745 0.636353 1.095698 0.866025 0.866025 
C 1.095698 0.636353 1.224745 0.324806 1.224745 0 
C 1.224745 -0.324806 1.095698 -0.636353 0.866025 -0.866025 
C 0.636353 -1.095698 0.324806 -1.224745 0 -1.224745 
C -0.324806 -1.224745 -0.636353 -1.095698 -0.866025 -0.866025 
C -1.095698 -0.636353 -1.224745 -0.324806 -1.224745 0 
C -1.224745 0.324806 -1.095698 0.636353 -0.866025 0.866025 
C -0.636353 1.095698 -0.324806 1.224745 0 1.224745 
z
" style="stroke: #000000; stroke-opacity: 0.7; stroke-width: 0.1"/>
    </defs>
    <g clip-path="url(#p99cf5607bb)">
     <use xlink:href="#mab623beb66" x="47.837695" y="40.0981" style="fill: #f37f17; fill-opacity: 0.7; stroke: #000000; stroke-opacity: 0.7; stroke-width: 0.1"/>
    </g>
   </g>
   <g id="PathCollection_39">
    <defs>
     <path id="m3eedeba8e3" d="M 0 1.224745 
C 0.324806 1.224745 0.636353 1.095698 0.866025 0.866025 
C 1.095698 0.636353 1.224745 0.324806 1.224745 0 
C 1.224745 -0.324806 1.095698 -0.636353 0.866025 -0.866025 
C 0.636353 -1.095698 0.324806 -1.224745 0 -1.224745 
C -0.324806 -1.224745 -0.636353 -1.095698 -0.866025 -0.866025 
C -1.095698 -0.636353 -1.224745 -0.324806 -1.224745 0 
C -1.224745 0.324806 -1.095698 0.636353 -0.866025 0.866025 
C -0.636353 1.095698 -0.324806 1.224745 0 1.224745 
z
" style="stroke: #000000; stroke-opacity: 0.7; stroke-width: 0.1"/>
    </defs>
    <g clip-path="url(#p99cf5607bb)">
     <use xlink:href="#m3eedeba8e3" x="54.517358" y="37.617675" style="fill: #d77e2c; fill-opacity: 0.7; stroke: #000000; stroke-opacity: 0.7; stroke-width: 0.1"/>
    </g>
   </g>
   <g id="PathCollection_40">
    <defs>
     <path id="ma4473341aa" d="M 0 1.224745 
C 0.324806 1.224745 0.636353 1.095698 0.866025 0.866025 
C 1.095698 0.636353 1.224745 0.324806 1.224745 0 
C 1.224745 -0.324806 1.095698 -0.636353 0.866025 -0.866025 
C 0.636353 -1.095698 0.324806 -1.224745 0 -1.224745 
C -0.324806 -1.224745 -0.636353 -1.095698 -0.866025 -0.866025 
C -1.095698 -0.636353 -1.224745 -0.324806 -1.224745 0 
C -1.224745 0.324806 -1.095698 0.636353 -0.866025 0.866025 
C -0.636353 1.095698 -0.324806 1.224745 0 1.224745 
z
" style="stroke: #000000; stroke-opacity: 0.7; stroke-width: 0.1"/>
    </defs>
    <g clip-path="url(#p99cf5607bb)">
     <use xlink:href="#ma4473341aa" x="57.124049" y="40.071548" style="fill: #9e7c56; fill-opacity: 0.7; stroke: #000000; stroke-opacity: 0.7; stroke-width: 0.1"/>
    </g>
   </g>
   <g id="PathCollection_41">
    <defs>
     <path id="mc24d467910" d="M 0 1.224745 
C 0.324806 1.224745 0.636353 1.095698 0.866025 0.866025 
C 1.095698 0.636353 1.224745 0.324806 1.224745 0 
C 1.224745 -0.324806 1.095698 -0.636353 0.866025 -0.866025 
C 0.636353 -1.095698 0.324806 -1.224745 0 -1.224745 
C -0.324806 -1.224745 -0.636353 -1.095698 -0.866025 -0.866025 
C -1.095698 -0.636353 -1.224745 -0.324806 -1.224745 0 
C -1.224745 0.324806 -1.095698 0.636353 -0.866025 0.866025 
C -0.636353 1.095698 -0.324806 1.224745 0 1.224745 
z
" style="stroke: #000000; stroke-opacity: 0.7; stroke-width: 0.1"/>
    </defs>
    <g clip-path="url(#p99cf5607bb)">
     <use xlink:href="#mc24d467910" x="58.380907" y="35.417964" style="fill: #2077b3; fill-opacity: 0.7; stroke: #000000; stroke-opacity: 0.7; stroke-width: 0.1"/>
    </g>
   </g>
   <g id="PathCollection_42">
    <g clip-path="url(#p99cf5607bb)">
     <use xlink:href="#m6d8aaf4768" x="57.54444" y="35.734883" style="fill: #1f77b4; fill-opacity: 0.7; stroke: #000000; stroke-opacity: 0.7; stroke-width: 0.1"/>
    </g>
   </g>
   <g id="PathCollection_43">
    <g clip-path="url(#p99cf5607bb)">
     <use xlink:href="#m6d8aaf4768" x="60.50301" y="33.025016" style="fill: #1f77b4; fill-opacity: 0.7; stroke: #000000; stroke-opacity: 0.7; stroke-width: 0.1"/>
    </g>
   </g>
   <g id="PathCollection_44">
    <defs>
     <path id="m51747338aa" d="M 0 1.224745 
C 0.324806 1.224745 0.636353 1.095698 0.866025 0.866025 
C 1.095698 0.636353 1.224745 0.324806 1.224745 0 
C 1.224745 -0.324806 1.095698 -0.636353 0.866025 -0.866025 
C 0.636353 -1.095698 0.324806 -1.224745 0 -1.224745 
C -0.324806 -1.224745 -0.636353 -1.095698 -0.866025 -0.866025 
C -1.095698 -0.636353 -1.224745 -0.324806 -1.224745 0 
C -1.224745 0.324806 -1.095698 0.636353 -0.866025 0.866025 
C -0.636353 1.095698 -0.324806 1.224745 0 1.224745 
z
" style="stroke: #000000; stroke-opacity: 0.7; stroke-width: 0.1"/>
    </defs>
    <g clip-path="url(#p99cf5607bb)">
     <use xlink:href="#m51747338aa" x="43.910371" y="40.633299" style="fill: #f07e19; fill-opacity: 0.7; stroke: #000000; stroke-opacity: 0.7; stroke-width: 0.1"/>
    </g>
   </g>
   <g id="PathCollection_45">
    <g clip-path="url(#p99cf5607bb)">
     <use xlink:href="#mb29798d4a7" x="67.035996" y="34.360752" style="fill: #2d78aa; fill-opacity: 0.7; stroke: #000000; stroke-opacity: 0.7; stroke-width: 0.1"/>
    </g>
   </g>
   <g id="PathCollection_46">
    <defs>
     <path id="m81079c00c8" d="M 0 1.224745 
C 0.324806 1.224745 0.636353 1.095698 0.866025 0.866025 
C 1.095698 0.636353 1.224745 0.324806 1.224745 0 
C 1.224745 -0.324806 1.095698 -0.636353 0.866025 -0.866025 
C 0.636353 -1.095698 0.324806 -1.224745 0 -1.224745 
C -0.324806 -1.224745 -0.636353 -1.095698 -0.866025 -0.866025 
C -1.095698 -0.636353 -1.224745 -0.324806 -1.224745 0 
C -1.224745 0.324806 -1.095698 0.636353 -0.866025 0.866025 
C -0.636353 1.095698 -0.324806 1.224745 0 1.224745 
z
" style="stroke: #000000; stroke-opacity: 0.7; stroke-width: 0.1"/>
    </defs>
    <g clip-path="url(#p99cf5607bb)">
     <use xlink:href="#m81079c00c8" x="87.427905" y="27.830417" style="fill: #2b77ab; fill-opacity: 0.7; stroke: #000000; stroke-opacity: 0.7; stroke-width: 0.1"/>
    </g>
   </g>
   <g id="PathCollection_47">
    <defs>
     <path id="mb4ce67e48b" d="M 0 1.224745 
C 0.324806 1.224745 0.636353 1.095698 0.866025 0.866025 
C 1.095698 0.636353 1.224745 0.324806 1.224745 0 
C 1.224745 -0.324806 1.095698 -0.636353 0.866025 -0.866025 
C 0.636353 -1.095698 0.324806 -1.224745 0 -1.224745 
C -0.324806 -1.224745 -0.636353 -1.095698 -0.866025 -0.866025 
C -1.095698 -0.636353 -1.224745 -0.324806 -1.224745 0 
C -1.224745 0.324806 -1.095698 0.636353 -0.866025 0.866025 
C -0.636353 1.095698 -0.324806 1.224745 0 1.224745 
z
" style="stroke: #000000; stroke-opacity: 0.7; stroke-width: 0.1"/>
    </defs>
    <g clip-path="url(#p99cf5607bb)">
     <use xlink:href="#mb4ce67e48b" x="49.990355" y="42.447107" style="fill: #ff7f0e; fill-opacity: 0.7; stroke: #000000; stroke-opacity: 0.7; stroke-width: 0.1"/>
    </g>
   </g>
   <g id="PathCollection_48">
    <g clip-path="url(#p99cf5607bb)">
     <use xlink:href="#md087213a20" x="57.175702" y="33.526035" style="fill: #2677af; fill-opacity: 0.7; stroke: #000000; stroke-opacity: 0.7; stroke-width: 0.1"/>
    </g>
   </g>
   <g id="PathCollection_49">
    <defs>
     <path id="mc776309d40" d="M 0 1.224745 
C 0.324806 1.224745 0.636353 1.095698 0.866025 0.866025 
C 1.095698 0.636353 1.224745 0.324806 1.224745 0 
C 1.224745 -0.324806 1.095698 -0.636353 0.866025 -0.866025 
C 0.636353 -1.095698 0.324806 -1.224745 0 -1.224745 
C -0.324806 -1.224745 -0.636353 -1.095698 -0.866025 -0.866025 
C -1.095698 -0.636353 -1.224745 -0.324806 -1.224745 0 
C -1.224745 0.324806 -1.095698 0.636353 -0.866025 0.866025 
C -0.636353 1.095698 -0.324806 1.224745 0 1.224745 
z
" style="stroke: #000000; stroke-opacity: 0.7; stroke-width: 0.1"/>
    </defs>
    <g clip-path="url(#p99cf5607bb)">
     <use xlink:href="#mc776309d40" x="70.215907" y="34.917209" style="fill: #3278a6; fill-opacity: 0.7; stroke: #000000; stroke-opacity: 0.7; stroke-width: 0.1"/>
    </g>
   </g>
   <g id="PathCollection_50">
    <defs>
     <path id="m8620fa2d7a" d="M 0 1.224745 
C 0.324806 1.224745 0.636353 1.095698 0.866025 0.866025 
C 1.095698 0.636353 1.224745 0.324806 1.224745 0 
C 1.224745 -0.324806 1.095698 -0.636353 0.866025 -0.866025 
C 0.636353 -1.095698 0.324806 -1.224745 0 -1.224745 
C -0.324806 -1.224745 -0.636353 -1.095698 -0.866025 -0.866025 
C -1.095698 -0.636353 -1.224745 -0.324806 -1.224745 0 
C -1.224745 0.324806 -1.095698 0.636353 -0.866025 0.866025 
C -0.636353 1.095698 -0.324806 1.224745 0 1.224745 
z
" style="stroke: #000000; stroke-opacity: 0.7; stroke-width: 0.1"/>
    </defs>
    <g clip-path="url(#p99cf5607bb)">
     <use xlink:href="#m8620fa2d7a" x="62.402546" y="35.55233" style="fill: #2c77aa; fill-opacity: 0.7; stroke: #000000; stroke-opacity: 0.7; stroke-width: 0.1"/>
    </g>
   </g>
   <g id="PathCollection_51">
    <g clip-path="url(#p99cf5607bb)">
     <use xlink:href="#mc24d467910" x="55.591964" y="37.325019" style="fill: #2077b3; fill-opacity: 0.7; stroke: #000000; stroke-opacity: 0.7; stroke-width: 0.1"/>
    </g>
   </g>
   <g id="PathCollection_52">
    <g clip-path="url(#p99cf5607bb)">
     <use xlink:href="#md28847aafd" x="64.072718" y="34.62836" style="fill: #2a77ac; fill-opacity: 0.7; stroke: #000000; stroke-opacity: 0.7; stroke-width: 0.1"/>
    </g>
   </g>
   <g id="PathCollection_53">
    <g clip-path="url(#p99cf5607bb)">
     <use xlink:href="#mc24d467910" x="61.286933" y="33.452919" style="fill: #2077b3; fill-opacity: 0.7; stroke: #000000; stroke-opacity: 0.7; stroke-width: 0.1"/>
    </g>
   </g>
   <g id="PathCollection_54">
    <defs>
     <path id="mc02259f79a" d="M 0 1.224745 
C 0.324806 1.224745 0.636353 1.095698 0.866025 0.866025 
C 1.095698 0.636353 1.224745 0.324806 1.224745 0 
C 1.224745 -0.324806 1.095698 -0.636353 0.866025 -0.866025 
C 0.636353 -1.095698 0.324806 -1.224745 0 -1.224745 
C -0.324806 -1.224745 -0.636353 -1.095698 -0.866025 -0.866025 
C -1.095698 -0.636353 -1.224745 -0.324806 -1.224745 0 
C -1.224745 0.324806 -1.095698 0.636353 -0.866025 0.866025 
C -0.636353 1.095698 -0.324806 1.224745 0 1.224745 
z
" style="stroke: #000000; stroke-opacity: 0.7; stroke-width: 0.1"/>
    </defs>
    <g clip-path="url(#p99cf5607bb)">
     <use xlink:href="#mc02259f79a" x="74.791587" y="34.792225" style="fill: #3578a4; fill-opacity: 0.7; stroke: #000000; stroke-opacity: 0.7; stroke-width: 0.1"/>
    </g>
   </g>
   <g id="PathCollection_55">
    <defs>
     <path id="m80205117e9" d="M 0 1.224745 
C 0.324806 1.224745 0.636353 1.095698 0.866025 0.866025 
C 1.095698 0.636353 1.224745 0.324806 1.224745 0 
C 1.224745 -0.324806 1.095698 -0.636353 0.866025 -0.866025 
C 0.636353 -1.095698 0.324806 -1.224745 0 -1.224745 
C -0.324806 -1.224745 -0.636353 -1.095698 -0.866025 -0.866025 
C -1.095698 -0.636353 -1.224745 -0.324806 -1.224745 0 
C -1.224745 0.324806 -1.095698 0.636353 -0.866025 0.866025 
C -0.636353 1.095698 -0.324806 1.224745 0 1.224745 
z
" style="stroke: #000000; stroke-opacity: 0.7; stroke-width: 0.1"/>
    </defs>
    <g clip-path="url(#p99cf5607bb)">
     <use xlink:href="#m80205117e9" x="49.885025" y="35.314193" style="fill: #b87c43; fill-opacity: 0.7; stroke: #000000; stroke-opacity: 0.7; stroke-width: 0.1"/>
    </g>
   </g>
   <g id="PathCollection_56">
    <defs>
     <path id="m43b58f7d35" d="M 0 1.224745 
C 0.324806 1.224745 0.636353 1.095698 0.866025 0.866025 
C 1.095698 0.636353 1.224745 0.324806 1.224745 0 
C 1.224745 -0.324806 1.095698 -0.636353 0.866025 -0.866025 
C 0.636353 -1.095698 0.324806 -1.224745 0 -1.224745 
C -0.324806 -1.224745 -0.636353 -1.095698 -0.866025 -0.866025 
C -1.095698 -0.636353 -1.224745 -0.324806 -1.224745 0 
C -1.224745 0.324806 -1.095698 0.636353 -0.866025 0.866025 
C -0.636353 1.095698 -0.324806 1.224745 0 1.224745 
z
" style="stroke: #000000; stroke-opacity: 0.7; stroke-width: 0.1"/>
    </defs>
    <g clip-path="url(#p99cf5607bb)">
     <use xlink:href="#m43b58f7d35" x="70.080845" y="34.432107" style="fill: #3178a7; fill-opacity: 0.7; stroke: #000000; stroke-opacity: 0.7; stroke-width: 0.1"/>
    </g>
   </g>
   <g id="PathCollection_57">
    <defs>
     <path id="m6fd1e4a293" d="M 0 1.224745 
C 0.324806 1.224745 0.636353 1.095698 0.866025 0.866025 
C 1.095698 0.636353 1.224745 0.324806 1.224745 0 
C 1.224745 -0.324806 1.095698 -0.636353 0.866025 -0.866025 
C 0.636353 -1.095698 0.324806 -1.224745 0 -1.224745 
C -0.324806 -1.224745 -0.636353 -1.095698 -0.866025 -0.866025 
C -1.095698 -0.636353 -1.224745 -0.324806 -1.224745 0 
C -1.224745 0.324806 -1.095698 0.636353 -0.866025 0.866025 
C -0.636353 1.095698 -0.324806 1.224745 0 1.224745 
z
" style="stroke: #000000; stroke-opacity: 0.7; stroke-width: 0.1"/>
    </defs>
    <g clip-path="url(#p99cf5607bb)">
     <use xlink:href="#m6fd1e4a293" x="58.888223" y="39.574945" style="fill: #6e7a79; fill-opacity: 0.7; stroke: #000000; stroke-opacity: 0.7; stroke-width: 0.1"/>
    </g>
   </g>
   <g id="PathCollection_58">
    <defs>
     <path id="maa060e5e5f" d="M 0 1.224745 
C 0.324806 1.224745 0.636353 1.095698 0.866025 0.866025 
C 1.095698 0.636353 1.224745 0.324806 1.224745 0 
C 1.224745 -0.324806 1.095698 -0.636353 0.866025 -0.866025 
C 0.636353 -1.095698 0.324806 -1.224745 0 -1.224745 
C -0.324806 -1.224745 -0.636353 -1.095698 -0.866025 -0.866025 
C -1.095698 -0.636353 -1.224745 -0.324806 -1.224745 0 
C -1.224745 0.324806 -1.095698 0.636353 -0.866025 0.866025 
C -0.636353 1.095698 -0.324806 1.224745 0 1.224745 
z
" style="stroke: #000000; stroke-opacity: 0.7; stroke-width: 0.1"/>
    </defs>
    <g clip-path="url(#p99cf5607bb)">
     <use xlink:href="#maa060e5e5f" x="50.915803" y="36.851019" style="fill: #ce7d32; fill-opacity: 0.7; stroke: #000000; stroke-opacity: 0.7; stroke-width: 0.1"/>
    </g>
   </g>
   <g id="PathCollection_59">
    <g clip-path="url(#p99cf5607bb)">
     <use xlink:href="#md28847aafd" x="69.389503" y="32.636746" style="fill: #2a77ac; fill-opacity: 0.7; stroke: #000000; stroke-opacity: 0.7; stroke-width: 0.1"/>
    </g>
   </g>
   <g id="PathCollection_60">
    <defs>
     <path id="mff6f0333eb" d="M 0 1.224745 
C 0.324806 1.224745 0.636353 1.095698 0.866025 0.866025 
C 1.095698 0.636353 1.224745 0.324806 1.224745 0 
C 1.224745 -0.324806 1.095698 -0.636353 0.866025 -0.866025 
C 0.636353 -1.095698 0.324806 -1.224745 0 -1.224745 
C -0.324806 -1.224745 -0.636353 -1.095698 -0.866025 -0.866025 
C -1.095698 -0.636353 -1.224745 -0.324806 -1.224745 0 
C -1.224745 0.324806 -1.095698 0.636353 -0.866025 0.866025 
C -0.636353 1.095698 -0.324806 1.224745 0 1.224745 
z
" style="stroke: #000000; stroke-opacity: 0.7; stroke-width: 0.1"/>
    </defs>
    <g clip-path="url(#p99cf5607bb)">
     <use xlink:href="#mff6f0333eb" x="40.18371" y="42.615658" style="fill: #f47f16; fill-opacity: 0.7; stroke: #000000; stroke-opacity: 0.7; stroke-width: 0.1"/>
    </g>
   </g>
   <g id="patch_3">
    <path d="M 24.841406 68.184 
L 24.841406 7.2 
" style="fill: none; stroke: #000000; stroke-width: 0.5; stroke-linejoin: miter; stroke-linecap: square"/>
   </g>
   <g id="patch_4">
    <path d="M 24.841406 68.184 
L 85.825406 68.184 
" style="fill: none; stroke: #000000; stroke-width: 0.5; stroke-linejoin: miter; stroke-linecap: square"/>
   </g>
   <g id="PathCollection_61">
    <defs>
     <path id="m7be2bdbe7f" d="M 0 -1.581139 
L -1.581139 1.581139 
L 1.581139 1.581139 
z
" style="stroke: #000000; stroke-width: 0.4"/>
    </defs>
    <g>
     <use xlink:href="#m7be2bdbe7f" x="58.488369" y="36.338375" style="fill: #ffffff; stroke: #000000; stroke-width: 0.4"/>
    </g>
   </g>
   <g id="legend_1">
    <g id="PathCollection_62">
     <g>
      <use xlink:href="#m7be2bdbe7f" x="34.341406" y="14.186719" style="fill: #ffffff; stroke: #000000; stroke-width: 0.4"/>
     </g>
    </g>
    <g id="text_9">
     <!-- Median -->
     <g transform="translate(43.341406 15.499219) scale(0.05 -0.05)">
      <defs>
       <path id="DejaVuSans-4d" d="M 628 4666 
L 1569 4666 
L 2759 1491 
L 3956 4666 
L 4897 4666 
L 4897 0 
L 4281 0 
L 4281 4097 
L 3078 897 
L 2444 897 
L 1241 4097 
L 1241 0 
L 628 0 
L 628 4666 
z
" transform="scale(0.015625)"/>
       <path id="DejaVuSans-65" d="M 3597 1894 
L 3597 1613 
L 953 1613 
Q 991 1019 1311 708 
Q 1631 397 2203 397 
Q 2534 397 2845 478 
Q 3156 559 3463 722 
L 3463 178 
Q 3153 47 2828 -22 
Q 2503 -91 2169 -91 
Q 1331 -91 842 396 
Q 353 884 353 1716 
Q 353 2575 817 3079 
Q 1281 3584 2069 3584 
Q 2775 3584 3186 3129 
Q 3597 2675 3597 1894 
z
M 3022 2063 
Q 3016 2534 2758 2815 
Q 2500 3097 2075 3097 
Q 1594 3097 1305 2825 
Q 1016 2553 972 2059 
L 3022 2063 
z
" transform="scale(0.015625)"/>
       <path id="DejaVuSans-64" d="M 2906 2969 
L 2906 4863 
L 3481 4863 
L 3481 0 
L 2906 0 
L 2906 525 
Q 2725 213 2448 61 
Q 2172 -91 1784 -91 
Q 1150 -91 751 415 
Q 353 922 353 1747 
Q 353 2572 751 3078 
Q 1150 3584 1784 3584 
Q 2172 3584 2448 3432 
Q 2725 3281 2906 2969 
z
M 947 1747 
Q 947 1113 1208 752 
Q 1469 391 1925 391 
Q 2381 391 2643 752 
Q 2906 1113 2906 1747 
Q 2906 2381 2643 2742 
Q 2381 3103 1925 3103 
Q 1469 3103 1208 2742 
Q 947 2381 947 1747 
z
" transform="scale(0.015625)"/>
       <path id="DejaVuSans-69" d="M 603 3500 
L 1178 3500 
L 1178 0 
L 603 0 
L 603 3500 
z
M 603 4863 
L 1178 4863 
L 1178 4134 
L 603 4134 
L 603 4863 
z
" transform="scale(0.015625)"/>
       <path id="DejaVuSans-61" d="M 2194 1759 
Q 1497 1759 1228 1600 
Q 959 1441 959 1056 
Q 959 750 1161 570 
Q 1363 391 1709 391 
Q 2188 391 2477 730 
Q 2766 1069 2766 1631 
L 2766 1759 
L 2194 1759 
z
M 3341 1997 
L 3341 0 
L 2766 0 
L 2766 531 
Q 2569 213 2275 61 
Q 1981 -91 1556 -91 
Q 1019 -91 701 211 
Q 384 513 384 1019 
Q 384 1609 779 1909 
Q 1175 2209 1959 2209 
L 2766 2209 
L 2766 2266 
Q 2766 2663 2505 2880 
Q 2244 3097 1772 3097 
Q 1472 3097 1187 3025 
Q 903 2953 641 2809 
L 641 3341 
Q 956 3463 1253 3523 
Q 1550 3584 1831 3584 
Q 2591 3584 2966 3190 
Q 3341 2797 3341 1997 
z
" transform="scale(0.015625)"/>
       <path id="DejaVuSans-6e" d="M 3513 2113 
L 3513 0 
L 2938 0 
L 2938 2094 
Q 2938 2591 2744 2837 
Q 2550 3084 2163 3084 
Q 1697 3084 1428 2787 
Q 1159 2491 1159 1978 
L 1159 0 
L 581 0 
L 581 3500 
L 1159 3500 
L 1159 2956 
Q 1366 3272 1645 3428 
Q 1925 3584 2291 3584 
Q 2894 3584 3203 3211 
Q 3513 2838 3513 2113 
z
" transform="scale(0.015625)"/>
      </defs>
      <use xlink:href="#DejaVuSans-4d"/>
      <use xlink:href="#DejaVuSans-65" x="86.279297"/>
      <use xlink:href="#DejaVuSans-64" x="147.802734"/>
      <use xlink:href="#DejaVuSans-69" x="211.279297"/>
      <use xlink:href="#DejaVuSans-61" x="239.0625"/>
      <use xlink:href="#DejaVuSans-6e" x="300.341797"/>
     </g>
    </g>
   </g>
  </g>
 </g>
 <defs>
  <clipPath id="p99cf5607bb">
   <rect x="24.841406" y="7.2" width="60.984" height="60.984"/>
  </clipPath>
 </defs>
</svg>
