<?xml version="1.0" encoding="utf-8" standalone="no"?>
<!DOCTYPE svg PUBLIC "-//W3C//DTD SVG 1.1//EN"
  "http://www.w3.org/Graphics/SVG/1.1/DTD/svg11.dtd">
<svg xmlns:xlink="http://www.w3.org/1999/xlink" width="93.025406pt" height="85.723062pt" viewBox="0 0 93.025406 85.723062" xmlns="http://www.w3.org/2000/svg" version="1.1">
 <metadata>
  <rdf:RDF xmlns:dc="http://purl.org/dc/elements/1.1/" xmlns:cc="http://creativecommons.org/ns#" xmlns:rdf="http://www.w3.org/1999/02/22-rdf-syntax-ns#">
   <cc:Work>
    <dc:type rdf:resource="http://purl.org/dc/dcmitype/StillImage"/>
    <dc:date>2026-04-17T17:49:37.777713</dc:date>
    <dc:format>image/svg+xml</dc:format>
    <dc:creator>
     <cc:Agent>
      <dc:title>Matplotlib v3.6.2, https://matplotlib.org/</dc:title>
     </cc:Agent>
    </dc:creator>
   </cc:Work>
  </rdf:RDF>
 </metadata>
 <defs>
  <style type="text/css">*{stroke-linejoin: round; stroke-linecap: butt}</style>
 </defs>
 <g id="figure_1">
  <g id="patch_1">
   <path d="M -0 85.723062 
L 93.025406 85.723062 
L 93.025406 0 
L -0 0 
z
" style="fill: #ffffff"/>
  </g>
  <g id="axes_1">
   <g id="patch_2">
    <path d="M 24.841406 68.184 
L 85.825406 68.184 
L 85.825406 7.2 
L 24.841406 7.2 
z
" style="fill: #ffffff"/>
   </g>
   <g id="line2d_1">
    <path d="M 24.841406 37.692 
L 85.825406 37.692 
" clip-path="url(#p094ac83156)" style="fill: none; stroke-dasharray: 1.11,0.48; stroke-dashoffset: 0; stroke: #000000; stroke-width: 0.3"/>
   </g>
   <g id="line2d_2">
    <path d="M 55.333406 68.184 
L 55.333406 7.2 
" clip-path="url(#p094ac83156)" style="fill: none; stroke-dasharray: 1.11,0.48; stroke-dashoffset: 0; stroke: #000000; stroke-width: 0.3"/>
   </g>
   <g id="matplotlib.axis_1">
    <g id="xtick_1">
     <g id="line2d_3">
      <defs>
       <path id="m29539ced17" d="M 0 0 
L 0 2 
" style="stroke: #000000; stroke-width: 0.5"/>
      </defs>
      <g>
       <use xlink:href="#m29539ced17" x="38.393406" y="68.184" style="stroke: #000000; stroke-width: 0.5"/>
      </g>
     </g>
     <g id="text_1">
      <!-- −0.25 -->
      <g transform="translate(30.732078 77.483219) scale(0.05 -0.05)">
       <defs>
        <path id="DejaVuSans-2212" d="M 678 2272 
L 4684 2272 
L 4684 1741 
L 678 1741 
L 678 2272 
z
" transform="scale(0.015625)"/>
        <path id="DejaVuSans-30" d="M 2034 4250 
Q 1547 4250 1301 3770 
Q 1056 3291 1056 2328 
Q 1056 1369 1301 889 
Q 1547 409 2034 409 
Q 2525 409 2770 889 
Q 3016 1369 3016 2328 
Q 3016 3291 2770 3770 
Q 2525 4250 2034 4250 
z
M 2034 4750 
Q 2819 4750 3233 4129 
Q 3647 3509 3647 2328 
Q 3647 1150 3233 529 
Q 2819 -91 2034 -91 
Q 1250 -91 836 529 
Q 422 1150 422 2328 
Q 422 3509 836 4129 
Q 1250 4750 2034 4750 
z
" transform="scale(0.015625)"/>
        <path id="DejaVuSans-2e" d="M 684 794 
L 1344 794 
L 1344 0 
L 684 0 
L 684 794 
z
" transform="scale(0.015625)"/>
        <path id="DejaVuSans-32" d="M 1228 531 
L 3431 531 
L 3431 0 
L 469 0 
L 469 531 
Q 828 903 1448 1529 
Q 2069 2156 2228 2338 
Q 2531 2678 2651 2914 
Q 2772 3150 2772 3378 
Q 2772 3750 2511 3984 
Q 2250 4219 1831 4219 
Q 1534 4219 1204 4116 
Q 875 4013 500 3803 
L 500 4441 
Q 881 4594 1212 4672 
Q 1544 4750 1819 4750 
Q 2544 4750 2975 4387 
Q 3406 4025 3406 3419 
Q 3406 3131 3298 2873 
Q 3191 2616 2906 2266 
Q 2828 2175 2409 1742 
Q 1991 1309 1228 531 
z
" transform="scale(0.015625)"/>
        <path id="DejaVuSans-35" d="M 691 4666 
L 3169 4666 
L 3169 4134 
L 1269 4134 
L 1269 2991 
Q 1406 3038 1543 3061 
Q 1681 3084 1819 3084 
Q 2600 3084 3056 2656 
Q 3513 2228 3513 1497 
Q 3513 744 3044 326 
Q 2575 -91 1722 -91 
Q 1428 -91 1123 -41 
Q 819 9 494 109 
L 494 744 
Q 775 591 1075 516 
Q 1375 441 1709 441 
Q 2250 441 2565 725 
Q 2881 1009 2881 1497 
Q 2881 1984 2565 2268 
Q 2250 2553 1709 2553 
Q 1456 2553 1204 2497 
Q 953 2441 691 2322 
L 691 4666 
z
" transform="scale(0.015625)"/>
       </defs>
       <use xlink:href="#DejaVuSans-2212"/>
       <use xlink:href="#DejaVuSans-30" x="83.789062"/>
       <use xlink:href="#DejaVuSans-2e" x="147.412109"/>
       <use xlink:href="#DejaVuSans-32" x="179.199219"/>
       <use xlink:href="#DejaVuSans-35" x="242.822266"/>
      </g>
     </g>
    </g>
    <g id="xtick_2">
     <g id="line2d_4">
      <g>
       <use xlink:href="#m29539ced17" x="55.333406" y="68.184" style="stroke: #000000; stroke-width: 0.5"/>
      </g>
     </g>
     <g id="text_2">
      <!-- 0.00 -->
      <g transform="translate(49.767 77.483219) scale(0.05 -0.05)">
       <use xlink:href="#DejaVuSans-30"/>
       <use xlink:href="#DejaVuSans-2e" x="63.623047"/>
       <use xlink:href="#DejaVuSans-30" x="95.410156"/>
       <use xlink:href="#DejaVuSans-30" x="159.033203"/>
      </g>
     </g>
    </g>
    <g id="xtick_3">
     <g id="line2d_5">
      <g>
       <use xlink:href="#m29539ced17" x="72.273406" y="68.184" style="stroke: #000000; stroke-width: 0.5"/>
      </g>
     </g>
     <g id="text_3">
      <!-- 0.25 -->
      <g transform="translate(66.707 77.483219) scale(0.05 -0.05)">
       <use xlink:href="#DejaVuSans-30"/>
       <use xlink:href="#DejaVuSans-2e" x="63.623047"/>
       <use xlink:href="#DejaVuSans-32" x="95.410156"/>
       <use xlink:href="#DejaVuSans-35" x="159.033203"/>
      </g>
     </g>
    </g>
   </g>
   <g id="matplotlib.axis_2">
    <g id="ytick_1">
     <g id="line2d_6">
      <defs>
       <path id="m9a1059d158" d="M 0 0 
L -2 0 
" style="stroke: #000000; stroke-width: 0.5"/>
      </defs>
      <g>
       <use xlink:href="#m9a1059d158" x="24.841406" y="64.796" style="stroke: #000000; stroke-width: 0.5"/>
      </g>
     </g>
     <g id="text_4">
      <!-- −0.4 -->
      <g transform="translate(7.2 66.695609) scale(0.05 -0.05)">
       <defs>
        <path id="DejaVuSans-34" d="M 2419 4116 
L 825 1625 
L 2419 1625 
L 2419 4116 
z
M 2253 4666 
L 3047 4666 
L 3047 1625 
L 3713 1625 
L 3713 1100 
L 3047 1100 
L 3047 0 
L 2419 0 
L 2419 1100 
L 313 1100 
L 313 1709 
L 2253 4666 
z
" transform="scale(0.015625)"/>
       </defs>
       <use xlink:href="#DejaVuSans-2212"/>
       <use xlink:href="#DejaVuSans-30" x="83.789062"/>
       <use xlink:href="#DejaVuSans-2e" x="147.412109"/>
       <use xlink:href="#DejaVuSans-34" x="179.199219"/>
      </g>
     </g>
    </g>
    <g id="ytick_2">
     <g id="line2d_7">
      <g>
       <use xlink:href="#m9a1059d158" x="24.841406" y="51.244" style="stroke: #000000; stroke-width: 0.5"/>
      </g>
     </g>
     <g id="text_5">
      <!-- −0.2 -->
      <g transform="translate(7.2 53.143609) scale(0.05 -0.05)">
       <use xlink:href="#DejaVuSans-2212"/>
       <use xlink:href="#DejaVuSans-30" x="83.789062"/>
       <use xlink:href="#DejaVuSans-2e" x="147.412109"/>
       <use xlink:href="#DejaVuSans-32" x="179.199219"/>
      </g>
     </g>
    </g>
    <g id="ytick_3">
     <g id="line2d_8">
      <g>
       <use xlink:href="#m9a1059d158" x="24.841406" y="37.692" style="stroke: #000000; stroke-width: 0.5"/>
      </g>
     </g>
     <g id="text_6">
      <!-- 0.0 -->
      <g transform="translate(11.389844 39.591609) scale(0.05 -0.05)">
       <use xlink:href="#DejaVuSans-30"/>
       <use xlink:href="#DejaVuSans-2e" x="63.623047"/>
       <use xlink:href="#DejaVuSans-30" x="95.410156"/>
      </g>
     </g>
    </g>
    <g id="ytick_4">
     <g id="line2d_9">
      <g>
       <use xlink:href="#m9a1059d158" x="24.841406" y="24.14" style="stroke: #000000; stroke-width: 0.5"/>
      </g>
     </g>
     <g id="text_7">
      <!-- 0.2 -->
      <g transform="translate(11.389844 26.039609) scale(0.05 -0.05)">
       <use xlink:href="#DejaVuSans-30"/>
       <use xlink:href="#DejaVuSans-2e" x="63.623047"/>
       <use xlink:href="#DejaVuSans-32" x="95.410156"/>
      </g>
     </g>
    </g>
    <g id="ytick_5">
     <g id="line2d_10">
      <g>
       <use xlink:href="#m9a1059d158" x="24.841406" y="10.588" style="stroke: #000000; stroke-width: 0.5"/>
      </g>
     </g>
     <g id="text_8">
      <!-- 0.4 -->
      <g transform="translate(11.389844 12.487609) scale(0.05 -0.05)">
       <use xlink:href="#DejaVuSans-30"/>
       <use xlink:href="#DejaVuSans-2e" x="63.623047"/>
       <use xlink:href="#DejaVuSans-34" x="95.410156"/>
      </g>
     </g>
    </g>
   </g>
   <g id="PathCollection_1">
    <defs>
     <path id="m83e631ec52" d="M 0 1.224745 
C 0.324806 1.224745 0.636353 1.095698 0.866025 0.866025 
C 1.095698 0.636353 1.224745 0.324806 1.224745 0 
C 1.224745 -0.324806 1.095698 -0.636353 0.866025 -0.866025 
C 0.636353 -1.095698 0.324806 -1.224745 0 -1.224745 
C -0.324806 -1.224745 -0.636353 -1.095698 -0.866025 -0.866025 
C -1.095698 -0.636353 -1.224745 -0.324806 -1.224745 0 
C -1.224745 0.324806 -1.095698 0.636353 -0.866025 0.866025 
C -0.636353 1.095698 -0.324806 1.224745 0 1.224745 
z
" style="stroke: #000000; stroke-opacity: 0.7; stroke-width: 0.1"/>
    </defs>
    <g clip-path="url(#p094ac83156)">
     <use xlink:href="#m83e631ec52" x="68.945948" y="30.875093" style="fill: #2477b0; fill-opacity: 0.7; stroke: #000000; stroke-opacity: 0.7; stroke-width: 0.1"/>
    </g>
   </g>
   <g id="PathCollection_2">
    <defs>
     <path id="mba7f681358" d="M 0 1.224745 
C 0.324806 1.224745 0.636353 1.095698 0.866025 0.866025 
C 1.095698 0.636353 1.224745 0.324806 1.224745 0 
C 1.224745 -0.324806 1.095698 -0.636353 0.866025 -0.866025 
C 0.636353 -1.095698 0.324806 -1.224745 0 -1.224745 
C -0.324806 -1.224745 -0.636353 -1.095698 -0.866025 -0.866025 
C -1.095698 -0.636353 -1.224745 -0.324806 -1.224745 0 
C -1.224745 0.324806 -1.095698 0.636353 -0.866025 0.866025 
C -0.636353 1.095698 -0.324806 1.224745 0 1.224745 
z
" style="stroke: #000000; stroke-opacity: 0.7; stroke-width: 0.1"/>
    </defs>
    <g clip-path="url(#p094ac83156)">
     <use xlink:href="#mba7f681358" x="37.917567" y="44.500996" style="fill: #f67f15; fill-opacity: 0.7; stroke: #000000; stroke-opacity: 0.7; stroke-width: 0.1"/>
    </g>
   </g>
   <g id="PathCollection_3">
    <defs>
     <path id="m506a104db9" d="M 0 1.224745 
C 0.324806 1.224745 0.636353 1.095698 0.866025 0.866025 
C 1.095698 0.636353 1.224745 0.324806 1.224745 0 
C 1.224745 -0.324806 1.095698 -0.636353 0.866025 -0.866025 
C 0.636353 -1.095698 0.324806 -1.224745 0 -1.224745 
C -0.324806 -1.224745 -0.636353 -1.095698 -0.866025 -0.866025 
C -1.095698 -0.636353 -1.224745 -0.324806 -1.224745 0 
C -1.224745 0.324806 -1.095698 0.636353 -0.866025 0.866025 
C -0.636353 1.095698 -0.324806 1.224745 0 1.224745 
z
" style="stroke: #000000; stroke-opacity: 0.7; stroke-width: 0.1"/>
    </defs>
    <g clip-path="url(#p094ac83156)">
     <use xlink:href="#m506a104db9" x="56.060831" y="36.957718" style="fill: #1f77b4; fill-opacity: 0.7; stroke: #000000; stroke-opacity: 0.7; stroke-width: 0.1"/>
    </g>
   </g>
   <g id="PathCollection_4">
    <g clip-path="url(#p094ac83156)">
     <use xlink:href="#m83e631ec52" x="62.799223" y="34.016507" style="fill: #2477b0; fill-opacity: 0.7; stroke: #000000; stroke-opacity: 0.7; stroke-width: 0.1"/>
    </g>
   </g>
   <g id="PathCollection_5">
    <defs>
     <path id="mee0a033fbe" d="M 0 1.224745 
C 0.324806 1.224745 0.636353 1.095698 0.866025 0.866025 
C 1.095698 0.636353 1.224745 0.324806 1.224745 0 
C 1.224745 -0.324806 1.095698 -0.636353 0.866025 -0.866025 
C 0.636353 -1.095698 0.324806 -1.224745 0 -1.224745 
C -0.324806 -1.224745 -0.636353 -1.095698 -0.866025 -0.866025 
C -1.095698 -0.636353 -1.224745 -0.324806 -1.224745 0 
C -1.224745 0.324806 -1.095698 0.636353 -0.866025 0.866025 
C -0.636353 1.095698 -0.324806 1.224745 0 1.224745 
z
" style="stroke: #000000; stroke-opacity: 0.7; stroke-width: 0.1"/>
    </defs>
    <g clip-path="url(#p094ac83156)">
     <use xlink:href="#mee0a033fbe" x="54.671896" y="38.469797" style="fill: #ff7f0e; fill-opacity: 0.7; stroke: #000000; stroke-opacity: 0.7; stroke-width: 0.1"/>
    </g>
   </g>
   <g id="PathCollection_6">
    <defs>
     <path id="m7a7c92ad11" d="M 0 1.224745 
C 0.324806 1.224745 0.636353 1.095698 0.866025 0.866025 
C 1.095698 0.636353 1.224745 0.324806 1.224745 0 
C 1.224745 -0.324806 1.095698 -0.636353 0.866025 -0.866025 
C 0.636353 -1.095698 0.324806 -1.224745 0 -1.224745 
C -0.324806 -1.224745 -0.636353 -1.095698 -0.866025 -0.866025 
C -1.095698 -0.636353 -1.224745 -0.324806 -1.224745 0 
C -1.224745 0.324806 -1.095698 0.636353 -0.866025 0.866025 
C -0.636353 1.095698 -0.324806 1.224745 0 1.224745 
z
" style="stroke: #000000; stroke-opacity: 0.7; stroke-width: 0.1"/>
    </defs>
    <g clip-path="url(#p094ac83156)">
     <use xlink:href="#m7a7c92ad11" x="44.785363" y="31.969292" style="fill: #af7c49; fill-opacity: 0.7; stroke: #000000; stroke-opacity: 0.7; stroke-width: 0.1"/>
    </g>
   </g>
   <g id="PathCollection_7">
    <defs>
     <path id="m773e9eb9aa" d="M 0 1.224745 
C 0.324806 1.224745 0.636353 1.095698 0.866025 0.866025 
C 1.095698 0.636353 1.224745 0.324806 1.224745 0 
C 1.224745 -0.324806 1.095698 -0.636353 0.866025 -0.866025 
C 0.636353 -1.095698 0.324806 -1.224745 0 -1.224745 
C -0.324806 -1.224745 -0.636353 -1.095698 -0.866025 -0.866025 
C -1.095698 -0.636353 -1.224745 -0.324806 -1.224745 0 
C -1.224745 0.324806 -1.095698 0.636353 -0.866025 0.866025 
C -0.636353 1.095698 -0.324806 1.224745 0 1.224745 
z
" style="stroke: #000000; stroke-opacity: 0.7; stroke-width: 0.1"/>
    </defs>
    <g clip-path="url(#p094ac83156)">
     <use xlink:href="#m773e9eb9aa" x="51.375308" y="39.380772" style="fill: #f77f14; fill-opacity: 0.7; stroke: #000000; stroke-opacity: 0.7; stroke-width: 0.1"/>
    </g>
   </g>
   <g id="PathCollection_8">
    <defs>
     <path id="m06a46ef0dc" d="M 0 1.224745 
C 0.324806 1.224745 0.636353 1.095698 0.866025 0.866025 
C 1.095698 0.636353 1.224745 0.324806 1.224745 0 
C 1.224745 -0.324806 1.095698 -0.636353 0.866025 -0.866025 
C 0.636353 -1.095698 0.324806 -1.224745 0 -1.224745 
C -0.324806 -1.224745 -0.636353 -1.095698 -0.866025 -0.866025 
C -1.095698 -0.636353 -1.224745 -0.324806 -1.224745 0 
C -1.224745 0.324806 -1.095698 0.636353 -0.866025 0.866025 
C -0.636353 1.095698 -0.324806 1.224745 0 1.224745 
z
" style="stroke: #000000; stroke-opacity: 0.7; stroke-width: 0.1"/>
    </defs>
    <g clip-path="url(#p094ac83156)">
     <use xlink:href="#m06a46ef0dc" x="50.744249" y="37.788404" style="fill: #e07e25; fill-opacity: 0.7; stroke: #000000; stroke-opacity: 0.7; stroke-width: 0.1"/>
    </g>
   </g>
   <g id="PathCollection_9">
    <defs>
     <path id="m912189ca08" d="M 0 1.224745 
C 0.324806 1.224745 0.636353 1.095698 0.866025 0.866025 
C 1.095698 0.636353 1.224745 0.324806 1.224745 0 
C 1.224745 -0.324806 1.095698 -0.636353 0.866025 -0.866025 
C 0.636353 -1.095698 0.324806 -1.224745 0 -1.224745 
C -0.324806 -1.224745 -0.636353 -1.095698 -0.866025 -0.866025 
C -1.095698 -0.636353 -1.224745 -0.324806 -1.224745 0 
C -1.224745 0.324806 -1.095698 0.636353 -0.866025 0.866025 
C -0.636353 1.095698 -0.324806 1.224745 0 1.224745 
z
" style="stroke: #000000; stroke-opacity: 0.7; stroke-width: 0.1"/>
    </defs>
    <g clip-path="url(#p094ac83156)">
     <use xlink:href="#m912189ca08" x="61.546495" y="38.094992" style="fill: #457898; fill-opacity: 0.7; stroke: #000000; stroke-opacity: 0.7; stroke-width: 0.1"/>
    </g>
   </g>
   <g id="PathCollection_10">
    <g clip-path="url(#p094ac83156)">
     <use xlink:href="#m506a104db9" x="66.224081" y="28.768314" style="fill: #1f77b4; fill-opacity: 0.7; stroke: #000000; stroke-opacity: 0.7; stroke-width: 0.1"/>
    </g>
   </g>
   <g id="PathCollection_11">
    <defs>
     <path id="m91092fbd57" d="M 0 1.224745 
C 0.324806 1.224745 0.636353 1.095698 0.866025 0.866025 
C 1.095698 0.636353 1.224745 0.324806 1.224745 0 
C 1.224745 -0.324806 1.095698 -0.636353 0.866025 -0.866025 
C 0.636353 -1.095698 0.324806 -1.224745 0 -1.224745 
C -0.324806 -1.224745 -0.636353 -1.095698 -0.866025 -0.866025 
C -1.095698 -0.636353 -1.224745 -0.324806 -1.224745 0 
C -1.224745 0.324806 -1.095698 0.636353 -0.866025 0.866025 
C -0.636353 1.095698 -0.324806 1.224745 0 1.224745 
z
" style="stroke: #000000; stroke-opacity: 0.7; stroke-width: 0.1"/>
    </defs>
    <g clip-path="url(#p094ac83156)">
     <use xlink:href="#m91092fbd57" x="54.729711" y="37.461886" style="fill: #bd7d3f; fill-opacity: 0.7; stroke: #000000; stroke-opacity: 0.7; stroke-width: 0.1"/>
    </g>
   </g>
   <g id="PathCollection_12">
    <defs>
     <path id="m397e001fa1" d="M 0 1.224745 
C 0.324806 1.224745 0.636353 1.095698 0.866025 0.866025 
C 1.095698 0.636353 1.224745 0.324806 1.224745 0 
C 1.224745 -0.324806 1.095698 -0.636353 0.866025 -0.866025 
C 0.636353 -1.095698 0.324806 -1.224745 0 -1.224745 
C -0.324806 -1.224745 -0.636353 -1.095698 -0.866025 -0.866025 
C -1.095698 -0.636353 -1.224745 -0.324806 -1.224745 0 
C -1.224745 0.324806 -1.095698 0.636353 -0.866025 0.866025 
C -0.636353 1.095698 -0.324806 1.224745 0 1.224745 
z
" style="stroke: #000000; stroke-opacity: 0.7; stroke-width: 0.1"/>
    </defs>
    <g clip-path="url(#p094ac83156)">
     <use xlink:href="#m397e001fa1" x="61.378323" y="35.378042" style="fill: #2977ad; fill-opacity: 0.7; stroke: #000000; stroke-opacity: 0.7; stroke-width: 0.1"/>
    </g>
   </g>
   <g id="PathCollection_13">
    <g clip-path="url(#p094ac83156)">
     <use xlink:href="#m506a104db9" x="58.89241" y="33.427332" style="fill: #1f77b4; fill-opacity: 0.7; stroke: #000000; stroke-opacity: 0.7; stroke-width: 0.1"/>
    </g>
   </g>
   <g id="PathCollection_14">
    <defs>
     <path id="m6777728c90" d="M 0 1.224745 
C 0.324806 1.224745 0.636353 1.095698 0.866025 0.866025 
C 1.095698 0.636353 1.224745 0.324806 1.224745 0 
C 1.224745 -0.324806 1.095698 -0.636353 0.866025 -0.866025 
C 0.636353 -1.095698 0.324806 -1.224745 0 -1.224745 
C -0.324806 -1.224745 -0.636353 -1.095698 -0.866025 -0.866025 
C -1.095698 -0.636353 -1.224745 -0.324806 -1.224745 0 
C -1.224745 0.324806 -1.095698 0.636353 -0.866025 0.866025 
C -0.636353 1.095698 -0.324806 1.224745 0 1.224745 
z
" style="stroke: #000000; stroke-opacity: 0.7; stroke-width: 0.1"/>
    </defs>
    <g clip-path="url(#p094ac83156)">
     <use xlink:href="#m6777728c90" x="60.114022" y="36.666752" style="fill: #3178a7; fill-opacity: 0.7; stroke: #000000; stroke-opacity: 0.7; stroke-width: 0.1"/>
    </g>
   </g>
   <g id="PathCollection_15">
    <g clip-path="url(#p094ac83156)">
     <use xlink:href="#m506a104db9" x="62.409601" y="30.640878" style="fill: #1f77b4; fill-opacity: 0.7; stroke: #000000; stroke-opacity: 0.7; stroke-width: 0.1"/>
    </g>
   </g>
   <g id="PathCollection_16">
    <defs>
     <path id="ma6a6709e28" d="M 0 1.224745 
C 0.324806 1.224745 0.636353 1.095698 0.866025 0.866025 
C 1.095698 0.636353 1.224745 0.324806 1.224745 0 
C 1.224745 -0.324806 1.095698 -0.636353 0.866025 -0.866025 
C 0.636353 -1.095698 0.324806 -1.224745 0 -1.224745 
C -0.324806 -1.224745 -0.636353 -1.095698 -0.866025 -0.866025 
C -1.095698 -0.636353 -1.224745 -0.324806 -1.224745 0 
C -1.224745 0.324806 -1.095698 0.636353 -0.866025 0.866025 
C -0.636353 1.095698 -0.324806 1.224745 0 1.224745 
z
" style="stroke: #000000; stroke-opacity: 0.7; stroke-width: 0.1"/>
    </defs>
    <g clip-path="url(#p094ac83156)">
     <use xlink:href="#ma6a6709e28" x="75.768454" y="31.548397" style="fill: #2c77aa; fill-opacity: 0.7; stroke: #000000; stroke-opacity: 0.7; stroke-width: 0.1"/>
    </g>
   </g>
   <g id="PathCollection_17">
    <defs>
     <path id="m11663258af" d="M 0 1.224745 
C 0.324806 1.224745 0.636353 1.095698 0.866025 0.866025 
C 1.095698 0.636353 1.224745 0.324806 1.224745 0 
C 1.224745 -0.324806 1.095698 -0.636353 0.866025 -0.866025 
C 0.636353 -1.095698 0.324806 -1.224745 0 -1.224745 
C -0.324806 -1.224745 -0.636353 -1.095698 -0.866025 -0.866025 
C -1.095698 -0.636353 -1.224745 -0.324806 -1.224745 0 
C -1.224745 0.324806 -1.095698 0.636353 -0.866025 0.866025 
C -0.636353 1.095698 -0.324806 1.224745 0 1.224745 
z
" style="stroke: #000000; stroke-opacity: 0.7; stroke-width: 0.1"/>
    </defs>
    <g clip-path="url(#p094ac83156)">
     <use xlink:href="#m11663258af" x="60.087286" y="31.517316" style="fill: #2077b3; fill-opacity: 0.7; stroke: #000000; stroke-opacity: 0.7; stroke-width: 0.1"/>
    </g>
   </g>
   <g id="PathCollection_18">
    <g clip-path="url(#p094ac83156)">
     <use xlink:href="#mee0a033fbe" x="51.306326" y="41.955737" style="fill: #ff7f0e; fill-opacity: 0.7; stroke: #000000; stroke-opacity: 0.7; stroke-width: 0.1"/>
    </g>
   </g>
   <g id="PathCollection_19">
    <g clip-path="url(#p094ac83156)">
     <use xlink:href="#m6777728c90" x="64.546293" y="35.661757" style="fill: #3178a7; fill-opacity: 0.7; stroke: #000000; stroke-opacity: 0.7; stroke-width: 0.1"/>
    </g>
   </g>
   <g id="PathCollection_20">
    <defs>
     <path id="m88e4332ecc" d="M 0 1.224745 
C 0.324806 1.224745 0.636353 1.095698 0.866025 0.866025 
C 1.095698 0.636353 1.224745 0.324806 1.224745 0 
C 1.224745 -0.324806 1.095698 -0.636353 0.866025 -0.866025 
C 0.636353 -1.095698 0.324806 -1.224745 0 -1.224745 
C -0.324806 -1.224745 -0.636353 -1.095698 -0.866025 -0.866025 
C -1.095698 -0.636353 -1.224745 -0.324806 -1.224745 0 
C -1.224745 0.324806 -1.095698 0.636353 -0.866025 0.866025 
C -0.636353 1.095698 -0.324806 1.224745 0 1.224745 
z
" style="stroke: #000000; stroke-opacity: 0.7; stroke-width: 0.1"/>
    </defs>
    <g clip-path="url(#p094ac83156)">
     <use xlink:href="#m88e4332ecc" x="57.044393" y="38.659569" style="fill: #717a77; fill-opacity: 0.7; stroke: #000000; stroke-opacity: 0.7; stroke-width: 0.1"/>
    </g>
   </g>
   <g id="PathCollection_21">
    <defs>
     <path id="mbd9598dd3d" d="M 0 1.224745 
C 0.324806 1.224745 0.636353 1.095698 0.866025 0.866025 
C 1.095698 0.636353 1.224745 0.324806 1.224745 0 
C 1.224745 -0.324806 1.095698 -0.636353 0.866025 -0.866025 
C 0.636353 -1.095698 0.324806 -1.224745 0 -1.224745 
C -0.324806 -1.224745 -0.636353 -1.095698 -0.866025 -0.866025 
C -1.095698 -0.636353 -1.224745 -0.324806 -1.224745 0 
C -1.224745 0.324806 -1.095698 0.636353 -0.866025 0.866025 
C -0.636353 1.095698 -0.324806 1.224745 0 1.224745 
z
" style="stroke: #000000; stroke-opacity: 0.7; stroke-width: 0.1"/>
    </defs>
    <g clip-path="url(#p094ac83156)">
     <use xlink:href="#mbd9598dd3d" x="71.279915" y="26.768563" style="fill: #2177b3; fill-opacity: 0.7; stroke: #000000; stroke-opacity: 0.7; stroke-width: 0.1"/>
    </g>
   </g>
   <g id="PathCollection_22">
    <g clip-path="url(#p094ac83156)">
     <use xlink:href="#m11663258af" x="77.700771" y="20.523291" style="fill: #2077b3; fill-opacity: 0.7; stroke: #000000; stroke-opacity: 0.7; stroke-width: 0.1"/>
    </g>
   </g>
   <g id="PathCollection_23">
    <defs>
     <path id="m84dc007eb8" d="M 0 1.224745 
C 0.324806 1.224745 0.636353 1.095698 0.866025 0.866025 
C 1.095698 0.636353 1.224745 0.324806 1.224745 0 
C 1.224745 -0.324806 1.095698 -0.636353 0.866025 -0.866025 
C 0.636353 -1.095698 0.324806 -1.224745 0 -1.224745 
C -0.324806 -1.224745 -0.636353 -1.095698 -0.866025 -0.866025 
C -1.095698 -0.636353 -1.224745 -0.324806 -1.224745 0 
C -1.224745 0.324806 -1.095698 0.636353 -0.866025 0.866025 
C -0.636353 1.095698 -0.324806 1.224745 0 1.224745 
z
" style="stroke: #000000; stroke-opacity: 0.7; stroke-width: 0.1"/>
    </defs>
    <g clip-path="url(#p094ac83156)">
     <use xlink:href="#m84dc007eb8" x="55.456418" y="39.474368" style="fill: #d97e2a; fill-opacity: 0.7; stroke: #000000; stroke-opacity: 0.7; stroke-width: 0.1"/>
    </g>
   </g>
   <g id="PathCollection_24">
    <defs>
     <path id="maeb8278878" d="M 0 1.224745 
C 0.324806 1.224745 0.636353 1.095698 0.866025 0.866025 
C 1.095698 0.636353 1.224745 0.324806 1.224745 0 
C 1.224745 -0.324806 1.095698 -0.636353 0.866025 -0.866025 
C 0.636353 -1.095698 0.324806 -1.224745 0 -1.224745 
C -0.324806 -1.224745 -0.636353 -1.095698 -0.866025 -0.866025 
C -1.095698 -0.636353 -1.224745 -0.324806 -1.224745 0 
C -1.224745 0.324806 -1.095698 0.636353 -0.866025 0.866025 
C -0.636353 1.095698 -0.324806 1.224745 0 1.224745 
z
" style="stroke: #000000; stroke-opacity: 0.7; stroke-width: 0.1"/>
    </defs>
    <g clip-path="url(#p094ac83156)">
     <use xlink:href="#maeb8278878" x="59.292358" y="36.252519" style="fill: #2a77ac; fill-opacity: 0.7; stroke: #000000; stroke-opacity: 0.7; stroke-width: 0.1"/>
    </g>
   </g>
   <g id="PathCollection_25">
    <g clip-path="url(#p094ac83156)">
     <use xlink:href="#m11663258af" x="68.388226" y="20.225514" style="fill: #2077b3; fill-opacity: 0.7; stroke: #000000; stroke-opacity: 0.7; stroke-width: 0.1"/>
    </g>
   </g>
   <g id="PathCollection_26">
    <defs>
     <path id="m5ae62b7f21" d="M 0 1.224745 
C 0.324806 1.224745 0.636353 1.095698 0.866025 0.866025 
C 1.095698 0.636353 1.224745 0.324806 1.224745 0 
C 1.224745 -0.324806 1.095698 -0.636353 0.866025 -0.866025 
C 0.636353 -1.095698 0.324806 -1.224745 0 -1.224745 
C -0.324806 -1.224745 -0.636353 -1.095698 -0.866025 -0.866025 
C -1.095698 -0.636353 -1.224745 -0.324806 -1.224745 0 
C -1.224745 0.324806 -1.095698 0.636353 -0.866025 0.866025 
C -0.636353 1.095698 -0.324806 1.224745 0 1.224745 
z
" style="stroke: #000000; stroke-opacity: 0.7; stroke-width: 0.1"/>
    </defs>
    <g clip-path="url(#p094ac83156)">
     <use xlink:href="#m5ae62b7f21" x="53.722527" y="37.976079" style="fill: #eb7e1d; fill-opacity: 0.7; stroke: #000000; stroke-opacity: 0.7; stroke-width: 0.1"/>
    </g>
   </g>
   <g id="PathCollection_27">
    <defs>
     <path id="me929a296be" d="M 0 1.224745 
C 0.324806 1.224745 0.636353 1.095698 0.866025 0.866025 
C 1.095698 0.636353 1.224745 0.324806 1.224745 0 
C 1.224745 -0.324806 1.095698 -0.636353 0.866025 -0.866025 
C 0.636353 -1.095698 0.324806 -1.224745 0 -1.224745 
C -0.324806 -1.224745 -0.636353 -1.095698 -0.866025 -0.866025 
C -1.095698 -0.636353 -1.224745 -0.324806 -1.224745 0 
C -1.224745 0.324806 -1.095698 0.636353 -0.866025 0.866025 
C -0.636353 1.095698 -0.324806 1.224745 0 1.224745 
z
" style="stroke: #000000; stroke-opacity: 0.7; stroke-width: 0.1"/>
    </defs>
    <g clip-path="url(#p094ac83156)">
     <use xlink:href="#me929a296be" x="63.695206" y="34.393707" style="fill: #2877ad; fill-opacity: 0.7; stroke: #000000; stroke-opacity: 0.7; stroke-width: 0.1"/>
    </g>
   </g>
   <g id="PathCollection_28">
    <defs>
     <path id="mb2d8f3cb3b" d="M 0 1.224745 
C 0.324806 1.224745 0.636353 1.095698 0.866025 0.866025 
C 1.095698 0.636353 1.224745 0.324806 1.224745 0 
C 1.224745 -0.324806 1.095698 -0.636353 0.866025 -0.866025 
C 0.636353 -1.095698 0.324806 -1.224745 0 -1.224745 
C -0.324806 -1.224745 -0.636353 -1.095698 -0.866025 -0.866025 
C -1.095698 -0.636353 -1.224745 -0.324806 -1.224745 0 
C -1.224745 0.324806 -1.095698 0.636353 -0.866025 0.866025 
C -0.636353 1.095698 -0.324806 1.224745 0 1.224745 
z
" style="stroke: #000000; stroke-opacity: 0.7; stroke-width: 0.1"/>
    </defs>
    <g clip-path="url(#p094ac83156)">
     <use xlink:href="#mb2d8f3cb3b" x="61.316514" y="35.155031" style="fill: #2777ae; fill-opacity: 0.7; stroke: #000000; stroke-opacity: 0.7; stroke-width: 0.1"/>
    </g>
   </g>
   <g id="PathCollection_29">
    <defs>
     <path id="maaa9334b5f" d="M 0 1.224745 
C 0.324806 1.224745 0.636353 1.095698 0.866025 0.866025 
C 1.095698 0.636353 1.224745 0.324806 1.224745 0 
C 1.224745 -0.324806 1.095698 -0.636353 0.866025 -0.866025 
C 0.636353 -1.095698 0.324806 -1.224745 0 -1.224745 
C -0.324806 -1.224745 -0.636353 -1.095698 -0.866025 -0.866025 
C -1.095698 -0.636353 -1.224745 -0.324806 -1.224745 0 
C -1.224745 0.324806 -1.095698 0.636353 -0.866025 0.866025 
C -0.636353 1.095698 -0.324806 1.224745 0 1.224745 
z
" style="stroke: #000000; stroke-opacity: 0.7; stroke-width: 0.1"/>
    </defs>
    <g clip-path="url(#p094ac83156)">
     <use xlink:href="#maaa9334b5f" x="53.512742" y="36.775466" style="fill: #b37c47; fill-opacity: 0.7; stroke: #000000; stroke-opacity: 0.7; stroke-width: 0.1"/>
    </g>
   </g>
   <g id="PathCollection_30">
    <g clip-path="url(#p094ac83156)">
     <use xlink:href="#m506a104db9" x="59.836052" y="32.267603" style="fill: #1f77b4; fill-opacity: 0.7; stroke: #000000; stroke-opacity: 0.7; stroke-width: 0.1"/>
    </g>
   </g>
   <g id="PathCollection_31">
    <g clip-path="url(#p094ac83156)">
     <use xlink:href="#maeb8278878" x="56.243505" y="37.370443" style="fill: #2a77ac; fill-opacity: 0.7; stroke: #000000; stroke-opacity: 0.7; stroke-width: 0.1"/>
    </g>
   </g>
   <g id="PathCollection_32">
    <g clip-path="url(#p094ac83156)">
     <use xlink:href="#m506a104db9" x="62.045123" y="29.947651" style="fill: #1f77b4; fill-opacity: 0.7; stroke: #000000; stroke-opacity: 0.7; stroke-width: 0.1"/>
    </g>
   </g>
   <g id="PathCollection_33">
    <defs>
     <path id="mf3b07074ce" d="M 0 1.224745 
C 0.324806 1.224745 0.636353 1.095698 0.866025 0.866025 
C 1.095698 0.636353 1.224745 0.324806 1.224745 0 
C 1.224745 -0.324806 1.095698 -0.636353 0.866025 -0.866025 
C 0.636353 -1.095698 0.324806 -1.224745 0 -1.224745 
C -0.324806 -1.224745 -0.636353 -1.095698 -0.866025 -0.866025 
C -1.095698 -0.636353 -1.224745 -0.324806 -1.224745 0 
C -1.224745 0.324806 -1.095698 0.636353 -0.866025 0.866025 
C -0.636353 1.095698 -0.324806 1.224745 0 1.224745 
z
" style="stroke: #000000; stroke-opacity: 0.7; stroke-width: 0.1"/>
    </defs>
    <g clip-path="url(#p094ac83156)">
     <use xlink:href="#mf3b07074ce" x="31.873038" y="41.917363" style="fill: #ec7e1c; fill-opacity: 0.7; stroke: #000000; stroke-opacity: 0.7; stroke-width: 0.1"/>
    </g>
   </g>
   <g id="PathCollection_34">
    <defs>
     <path id="m70dece572f" d="M 0 1.224745 
C 0.324806 1.224745 0.636353 1.095698 0.866025 0.866025 
C 1.095698 0.636353 1.224745 0.324806 1.224745 0 
C 1.224745 -0.324806 1.095698 -0.636353 0.866025 -0.866025 
C 0.636353 -1.095698 0.324806 -1.224745 0 -1.224745 
C -0.324806 -1.224745 -0.636353 -1.095698 -0.866025 -0.866025 
C -1.095698 -0.636353 -1.224745 -0.324806 -1.224745 0 
C -1.224745 0.324806 -1.095698 0.636353 -0.866025 0.866025 
C -0.636353 1.095698 -0.324806 1.224745 0 1.224745 
z
" style="stroke: #000000; stroke-opacity: 0.7; stroke-width: 0.1"/>
    </defs>
    <g clip-path="url(#p094ac83156)">
     <use xlink:href="#m70dece572f" x="55.89403" y="43.161791" style="fill: #d67e2d; fill-opacity: 0.7; stroke: #000000; stroke-opacity: 0.7; stroke-width: 0.1"/>
    </g>
   </g>
   <g id="PathCollection_35">
    <g clip-path="url(#p094ac83156)">
     <use xlink:href="#m506a104db9" x="61.208125" y="31.449289" style="fill: #1f77b4; fill-opacity: 0.7; stroke: #000000; stroke-opacity: 0.7; stroke-width: 0.1"/>
    </g>
   </g>
   <g id="PathCollection_36">
    <g clip-path="url(#p094ac83156)">
     <use xlink:href="#m11663258af" x="59.138697" y="32.599447" style="fill: #2077b3; fill-opacity: 0.7; stroke: #000000; stroke-opacity: 0.7; stroke-width: 0.1"/>
    </g>
   </g>
   <g id="PathCollection_37">
    <defs>
     <path id="m41aa3aca17" d="M 0 1.224745 
C 0.324806 1.224745 0.636353 1.095698 0.866025 0.866025 
C 1.095698 0.636353 1.224745 0.324806 1.224745 0 
C 1.224745 -0.324806 1.095698 -0.636353 0.866025 -0.866025 
C 0.636353 -1.095698 0.324806 -1.224745 0 -1.224745 
C -0.324806 -1.224745 -0.636353 -1.095698 -0.866025 -0.866025 
C -1.095698 -0.636353 -1.224745 -0.324806 -1.224745 0 
C -1.224745 0.324806 -1.095698 0.636353 -0.866025 0.866025 
C -0.636353 1.095698 -0.324806 1.224745 0 1.224745 
z
" style="stroke: #000000; stroke-opacity: 0.7; stroke-width: 0.1"/>
    </defs>
    <g clip-path="url(#p094ac83156)">
     <use xlink:href="#m41aa3aca17" x="51.37795" y="40.166174" style="fill: #fc7f10; fill-opacity: 0.7; stroke: #000000; stroke-opacity: 0.7; stroke-width: 0.1"/>
    </g>
   </g>
   <g id="PathCollection_38">
    <defs>
     <path id="mf4745a4404" d="M 0 1.224745 
C 0.324806 1.224745 0.636353 1.095698 0.866025 0.866025 
C 1.095698 0.636353 1.224745 0.324806 1.224745 0 
C 1.224745 -0.324806 1.095698 -0.636353 0.866025 -0.866025 
C 0.636353 -1.095698 0.324806 -1.224745 0 -1.224745 
C -0.324806 -1.224745 -0.636353 -1.095698 -0.866025 -0.866025 
C -1.095698 -0.636353 -1.224745 -0.324806 -1.224745 0 
C -1.224745 0.324806 -1.095698 0.636353 -0.866025 0.866025 
C -0.636353 1.095698 -0.324806 1.224745 0 1.224745 
z
" style="stroke: #000000; stroke-opacity: 0.7; stroke-width: 0.1"/>
    </defs>
    <g clip-path="url(#p094ac83156)">
     <use xlink:href="#mf4745a4404" x="56.942247" y="43.661179" style="fill: #c77d38; fill-opacity: 0.7; stroke: #000000; stroke-opacity: 0.7; stroke-width: 0.1"/>
    </g>
   </g>
   <g id="PathCollection_39">
    <g clip-path="url(#p094ac83156)">
     <use xlink:href="#m506a104db9" x="79.983933" y="17.755328" style="fill: #1f77b4; fill-opacity: 0.7; stroke: #000000; stroke-opacity: 0.7; stroke-width: 0.1"/>
    </g>
   </g>
   <g id="PathCollection_40">
    <defs>
     <path id="m9d34508798" d="M 0 1.224745 
C 0.324806 1.224745 0.636353 1.095698 0.866025 0.866025 
C 1.095698 0.636353 1.224745 0.324806 1.224745 0 
C 1.224745 -0.324806 1.095698 -0.636353 0.866025 -0.866025 
C 0.636353 -1.095698 0.324806 -1.224745 0 -1.224745 
C -0.324806 -1.224745 -0.636353 -1.095698 -0.866025 -0.866025 
C -1.095698 -0.636353 -1.224745 -0.324806 -1.224745 0 
C -1.224745 0.324806 -1.095698 0.636353 -0.866025 0.866025 
C -0.636353 1.095698 -0.324806 1.224745 0 1.224745 
z
" style="stroke: #000000; stroke-opacity: 0.7; stroke-width: 0.1"/>
    </defs>
    <g clip-path="url(#p094ac83156)">
     <use xlink:href="#m9d34508798" x="59.12919" y="35.698056" style="fill: #2377b1; fill-opacity: 0.7; stroke: #000000; stroke-opacity: 0.7; stroke-width: 0.1"/>
    </g>
   </g>
   <g id="PathCollection_41">
    <defs>
     <path id="m5cdbdb0dea" d="M 0 1.224745 
C 0.324806 1.224745 0.636353 1.095698 0.866025 0.866025 
C 1.095698 0.636353 1.224745 0.324806 1.224745 0 
C 1.224745 -0.324806 1.095698 -0.636353 0.866025 -0.866025 
C 0.636353 -1.095698 0.324806 -1.224745 0 -1.224745 
C -0.324806 -1.224745 -0.636353 -1.095698 -0.866025 -0.866025 
C -1.095698 -0.636353 -1.224745 -0.324806 -1.224745 0 
C -1.224745 0.324806 -1.095698 0.636353 -0.866025 0.866025 
C -0.636353 1.095698 -0.324806 1.224745 0 1.224745 
z
" style="stroke: #000000; stroke-opacity: 0.7; stroke-width: 0.1"/>
    </defs>
    <g clip-path="url(#p094ac83156)">
     <use xlink:href="#m5cdbdb0dea" x="54.616614" y="36.910131" style="fill: #8a7b65; fill-opacity: 0.7; stroke: #000000; stroke-opacity: 0.7; stroke-width: 0.1"/>
    </g>
   </g>
   <g id="PathCollection_42">
    <defs>
     <path id="ma496ac4a08" d="M 0 1.224745 
C 0.324806 1.224745 0.636353 1.095698 0.866025 0.866025 
C 1.095698 0.636353 1.224745 0.324806 1.224745 0 
C 1.224745 -0.324806 1.095698 -0.636353 0.866025 -0.866025 
C 0.636353 -1.095698 0.324806 -1.224745 0 -1.224745 
C -0.324806 -1.224745 -0.636353 -1.095698 -0.866025 -0.866025 
C -1.095698 -0.636353 -1.224745 -0.324806 -1.224745 0 
C -1.224745 0.324806 -1.095698 0.636353 -0.866025 0.866025 
C -0.636353 1.095698 -0.324806 1.224745 0 1.224745 
z
" style="stroke: #000000; stroke-opacity: 0.7; stroke-width: 0.1"/>
    </defs>
    <g clip-path="url(#p094ac83156)">
     <use xlink:href="#ma496ac4a08" x="59.81503" y="17.904885" style="fill: #3078a8; fill-opacity: 0.7; stroke: #000000; stroke-opacity: 0.7; stroke-width: 0.1"/>
    </g>
   </g>
   <g id="PathCollection_43">
    <defs>
     <path id="m54d0acf3b2" d="M 0 1.224745 
C 0.324806 1.224745 0.636353 1.095698 0.866025 0.866025 
C 1.095698 0.636353 1.224745 0.324806 1.224745 0 
C 1.224745 -0.324806 1.095698 -0.636353 0.866025 -0.866025 
C 0.636353 -1.095698 0.324806 -1.224745 0 -1.224745 
C -0.324806 -1.224745 -0.636353 -1.095698 -0.866025 -0.866025 
C -1.095698 -0.636353 -1.224745 -0.324806 -1.224745 0 
C -1.224745 0.324806 -1.095698 0.636353 -0.866025 0.866025 
C -0.636353 1.095698 -0.324806 1.224745 0 1.224745 
z
" style="stroke: #000000; stroke-opacity: 0.7; stroke-width: 0.1"/>
    </defs>
    <g clip-path="url(#p094ac83156)">
     <use xlink:href="#m54d0acf3b2" x="13.353597" y="61.37479" style="fill: #fb7f11; fill-opacity: 0.7; stroke: #000000; stroke-opacity: 0.7; stroke-width: 0.1"/>
    </g>
   </g>
   <g id="PathCollection_44">
    <defs>
     <path id="meaef50eec6" d="M 0 1.224745 
C 0.324806 1.224745 0.636353 1.095698 0.866025 0.866025 
C 1.095698 0.636353 1.224745 0.324806 1.224745 0 
C 1.224745 -0.324806 1.095698 -0.636353 0.866025 -0.866025 
C 0.636353 -1.095698 0.324806 -1.224745 0 -1.224745 
C -0.324806 -1.224745 -0.636353 -1.095698 -0.866025 -0.866025 
C -1.095698 -0.636353 -1.224745 -0.324806 -1.224745 0 
C -1.224745 0.324806 -1.095698 0.636353 -0.866025 0.866025 
C -0.636353 1.095698 -0.324806 1.224745 0 1.224745 
z
" style="stroke: #000000; stroke-opacity: 0.7; stroke-width: 0.1"/>
    </defs>
    <g clip-path="url(#p094ac83156)">
     <use xlink:href="#meaef50eec6" x="54.870572" y="37.919664" style="fill: #fa7f12; fill-opacity: 0.7; stroke: #000000; stroke-opacity: 0.7; stroke-width: 0.1"/>
    </g>
   </g>
   <g id="PathCollection_45">
    <g clip-path="url(#p094ac83156)">
     <use xlink:href="#m506a104db9" x="68.625588" y="26.776265" style="fill: #1f77b4; fill-opacity: 0.7; stroke: #000000; stroke-opacity: 0.7; stroke-width: 0.1"/>
    </g>
   </g>
   <g id="PathCollection_46">
    <defs>
     <path id="m85846c9316" d="M 0 1.224745 
C 0.324806 1.224745 0.636353 1.095698 0.866025 0.866025 
C 1.095698 0.636353 1.224745 0.324806 1.224745 0 
C 1.224745 -0.324806 1.095698 -0.636353 0.866025 -0.866025 
C 0.636353 -1.095698 0.324806 -1.224745 0 -1.224745 
C -0.324806 -1.224745 -0.636353 -1.095698 -0.866025 -0.866025 
C -1.095698 -0.636353 -1.224745 -0.324806 -1.224745 0 
C -1.224745 0.324806 -1.095698 0.636353 -0.866025 0.866025 
C -0.636353 1.095698 -0.324806 1.224745 0 1.224745 
z
" style="stroke: #000000; stroke-opacity: 0.7; stroke-width: 0.1"/>
    </defs>
    <g clip-path="url(#p094ac83156)">
     <use xlink:href="#m85846c9316" x="54.523604" y="34.747788" style="fill: #57798a; fill-opacity: 0.7; stroke: #000000; stroke-opacity: 0.7; stroke-width: 0.1"/>
    </g>
   </g>
   <g id="PathCollection_47">
    <g clip-path="url(#p094ac83156)">
     <use xlink:href="#mbd9598dd3d" x="59.793793" y="30.945108" style="fill: #2177b3; fill-opacity: 0.7; stroke: #000000; stroke-opacity: 0.7; stroke-width: 0.1"/>
    </g>
   </g>
   <g id="PathCollection_48">
    <defs>
     <path id="m2d34530d2e" d="M 0 1.224745 
C 0.324806 1.224745 0.636353 1.095698 0.866025 0.866025 
C 1.095698 0.636353 1.224745 0.324806 1.224745 0 
C 1.224745 -0.324806 1.095698 -0.636353 0.866025 -0.866025 
C 0.636353 -1.095698 0.324806 -1.224745 0 -1.224745 
C -0.324806 -1.224745 -0.636353 -1.095698 -0.866025 -0.866025 
C -1.095698 -0.636353 -1.224745 -0.324806 -1.224745 0 
C -1.224745 0.324806 -1.095698 0.636353 -0.866025 0.866025 
C -0.636353 1.095698 -0.324806 1.224745 0 1.224745 
z
" style="stroke: #000000; stroke-opacity: 0.7; stroke-width: 0.1"/>
    </defs>
    <g clip-path="url(#p094ac83156)">
     <use xlink:href="#m2d34530d2e" x="55.009695" y="34.176152" style="fill: #477896; fill-opacity: 0.7; stroke: #000000; stroke-opacity: 0.7; stroke-width: 0.1"/>
    </g>
   </g>
   <g id="PathCollection_49">
    <g clip-path="url(#p094ac83156)">
     <use xlink:href="#m9d34508798" x="60.404043" y="28.217538" style="fill: #2377b1; fill-opacity: 0.7; stroke: #000000; stroke-opacity: 0.7; stroke-width: 0.1"/>
    </g>
   </g>
   <g id="PathCollection_50">
    <defs>
     <path id="mccb6f22c1b" d="M 0 1.224745 
C 0.324806 1.224745 0.636353 1.095698 0.866025 0.866025 
C 1.095698 0.636353 1.224745 0.324806 1.224745 0 
C 1.224745 -0.324806 1.095698 -0.636353 0.866025 -0.866025 
C 0.636353 -1.095698 0.324806 -1.224745 0 -1.224745 
C -0.324806 -1.224745 -0.636353 -1.095698 -0.866025 -0.866025 
C -1.095698 -0.636353 -1.224745 -0.324806 -1.224745 0 
C -1.224745 0.324806 -1.095698 0.636353 -0.866025 0.866025 
C -0.636353 1.095698 -0.324806 1.224745 0 1.224745 
z
" style="stroke: #000000; stroke-opacity: 0.7; stroke-width: 0.1"/>
    </defs>
    <g clip-path="url(#p094ac83156)">
     <use xlink:href="#mccb6f22c1b" x="53.218691" y="32.249862" style="fill: #627983; fill-opacity: 0.7; stroke: #000000; stroke-opacity: 0.7; stroke-width: 0.1"/>
    </g>
   </g>
   <g id="PathCollection_51">
    <g clip-path="url(#p094ac83156)">
     <use xlink:href="#m11663258af" x="66.101958" y="29.647602" style="fill: #2077b3; fill-opacity: 0.7; stroke: #000000; stroke-opacity: 0.7; stroke-width: 0.1"/>
    </g>
   </g>
   <g id="PathCollection_52">
    <defs>
     <path id="mef6db1fdfa" d="M 0 1.224745 
C 0.324806 1.224745 0.636353 1.095698 0.866025 0.866025 
C 1.095698 0.636353 1.224745 0.324806 1.224745 0 
C 1.224745 -0.324806 1.095698 -0.636353 0.866025 -0.866025 
C 0.636353 -1.095698 0.324806 -1.224745 0 -1.224745 
C -0.324806 -1.224745 -0.636353 -1.095698 -0.866025 -0.866025 
C -1.095698 -0.636353 -1.224745 -0.324806 -1.224745 0 
C -1.224745 0.324806 -1.095698 0.636353 -0.866025 0.866025 
C -0.636353 1.095698 -0.324806 1.224745 0 1.224745 
z
" style="stroke: #000000; stroke-opacity: 0.7; stroke-width: 0.1"/>
    </defs>
    <g clip-path="url(#p094ac83156)">
     <use xlink:href="#mef6db1fdfa" x="60.112179" y="38.489581" style="fill: #4e7991; fill-opacity: 0.7; stroke: #000000; stroke-opacity: 0.7; stroke-width: 0.1"/>
    </g>
   </g>
   <g id="PathCollection_53">
    <g clip-path="url(#p094ac83156)">
     <use xlink:href="#m9d34508798" x="59.556086" y="35.260289" style="fill: #2377b1; fill-opacity: 0.7; stroke: #000000; stroke-opacity: 0.7; stroke-width: 0.1"/>
    </g>
   </g>
   <g id="PathCollection_54">
    <defs>
     <path id="md352c0e21b" d="M 0 1.224745 
C 0.324806 1.224745 0.636353 1.095698 0.866025 0.866025 
C 1.095698 0.636353 1.224745 0.324806 1.224745 0 
C 1.224745 -0.324806 1.095698 -0.636353 0.866025 -0.866025 
C 0.636353 -1.095698 0.324806 -1.224745 0 -1.224745 
C -0.324806 -1.224745 -0.636353 -1.095698 -0.866025 -0.866025 
C -1.095698 -0.636353 -1.224745 -0.324806 -1.224745 0 
C -1.224745 0.324806 -1.095698 0.636353 -0.866025 0.866025 
C -0.636353 1.095698 -0.324806 1.224745 0 1.224745 
z
" style="stroke: #000000; stroke-opacity: 0.7; stroke-width: 0.1"/>
    </defs>
    <g clip-path="url(#p094ac83156)">
     <use xlink:href="#md352c0e21b" x="52.880725" y="37.692" style="fill: #de7e26; fill-opacity: 0.7; stroke: #000000; stroke-opacity: 0.7; stroke-width: 0.1"/>
    </g>
   </g>
   <g id="PathCollection_55">
    <g clip-path="url(#p094ac83156)">
     <use xlink:href="#mbd9598dd3d" x="59.177827" y="32.039946" style="fill: #2177b3; fill-opacity: 0.7; stroke: #000000; stroke-opacity: 0.7; stroke-width: 0.1"/>
    </g>
   </g>
   <g id="PathCollection_56">
    <g clip-path="url(#p094ac83156)">
     <use xlink:href="#m11663258af" x="61.246642" y="33.405384" style="fill: #2077b3; fill-opacity: 0.7; stroke: #000000; stroke-opacity: 0.7; stroke-width: 0.1"/>
    </g>
   </g>
   <g id="PathCollection_57">
    <g clip-path="url(#p094ac83156)">
     <use xlink:href="#m773e9eb9aa" x="45.128076" y="42.085586" style="fill: #f77f14; fill-opacity: 0.7; stroke: #000000; stroke-opacity: 0.7; stroke-width: 0.1"/>
    </g>
   </g>
   <g id="PathCollection_58">
    <g clip-path="url(#p094ac83156)">
     <use xlink:href="#m9d34508798" x="68.122126" y="30.240247" style="fill: #2377b1; fill-opacity: 0.7; stroke: #000000; stroke-opacity: 0.7; stroke-width: 0.1"/>
    </g>
   </g>
   <g id="PathCollection_59">
    <defs>
     <path id="m969b27dad5" d="M 0 1.224745 
C 0.324806 1.224745 0.636353 1.095698 0.866025 0.866025 
C 1.095698 0.636353 1.224745 0.324806 1.224745 0 
C 1.224745 -0.324806 1.095698 -0.636353 0.866025 -0.866025 
C 0.636353 -1.095698 0.324806 -1.224745 0 -1.224745 
C -0.324806 -1.224745 -0.636353 -1.095698 -0.866025 -0.866025 
C -1.095698 -0.636353 -1.224745 -0.324806 -1.224745 0 
C -1.224745 0.324806 -1.095698 0.636353 -0.866025 0.866025 
C -0.636353 1.095698 -0.324806 1.224745 0 1.224745 
z
" style="stroke: #000000; stroke-opacity: 0.7; stroke-width: 0.1"/>
    </defs>
    <g clip-path="url(#p094ac83156)">
     <use xlink:href="#m969b27dad5" x="61.831793" y="35.975169" style="fill: #2e78a9; fill-opacity: 0.7; stroke: #000000; stroke-opacity: 0.7; stroke-width: 0.1"/>
    </g>
   </g>
   <g id="PathCollection_60">
    <g clip-path="url(#p094ac83156)">
     <use xlink:href="#m397e001fa1" x="95.659331" y="22.783763" style="fill: #2977ad; fill-opacity: 0.7; stroke: #000000; stroke-opacity: 0.7; stroke-width: 0.1"/>
    </g>
   </g>
   <g id="PathCollection_61">
    <defs>
     <path id="mcc81b4bbb7" d="M 0 1.224745 
C 0.324806 1.224745 0.636353 1.095698 0.866025 0.866025 
C 1.095698 0.636353 1.224745 0.324806 1.224745 0 
C 1.224745 -0.324806 1.095698 -0.636353 0.866025 -0.866025 
C 0.636353 -1.095698 0.324806 -1.224745 0 -1.224745 
C -0.324806 -1.224745 -0.636353 -1.095698 -0.866025 -0.866025 
C -1.095698 -0.636353 -1.224745 -0.324806 -1.224745 0 
C -1.224745 0.324806 -1.095698 0.636353 -0.866025 0.866025 
C -0.636353 1.095698 -0.324806 1.224745 0 1.224745 
z
" style="stroke: #000000; stroke-opacity: 0.7; stroke-width: 0.1"/>
    </defs>
    <g clip-path="url(#p094ac83156)">
     <use xlink:href="#mcc81b4bbb7" x="56.12151" y="32.439859" style="fill: #3578a4; fill-opacity: 0.7; stroke: #000000; stroke-opacity: 0.7; stroke-width: 0.1"/>
    </g>
   </g>
   <g id="PathCollection_62">
    <g clip-path="url(#p094ac83156)">
     <use xlink:href="#maeb8278878" x="61.403885" y="35.522409" style="fill: #2a77ac; fill-opacity: 0.7; stroke: #000000; stroke-opacity: 0.7; stroke-width: 0.1"/>
    </g>
   </g>
   <g id="PathCollection_63">
    <defs>
     <path id="m29097cb268" d="M 0 1.224745 
C 0.324806 1.224745 0.636353 1.095698 0.866025 0.866025 
C 1.095698 0.636353 1.224745 0.324806 1.224745 0 
C 1.224745 -0.324806 1.095698 -0.636353 0.866025 -0.866025 
C 0.636353 -1.095698 0.324806 -1.224745 0 -1.224745 
C -0.324806 -1.224745 -0.636353 -1.095698 -0.866025 -0.866025 
C -1.095698 -0.636353 -1.224745 -0.324806 -1.224745 0 
C -1.224745 0.324806 -1.095698 0.636353 -0.866025 0.866025 
C -0.636353 1.095698 -0.324806 1.224745 0 1.224745 
z
" style="stroke: #000000; stroke-opacity: 0.7; stroke-width: 0.1"/>
    </defs>
    <g clip-path="url(#p094ac83156)">
     <use xlink:href="#m29097cb268" x="62.732168" y="33.013649" style="fill: #2277b2; fill-opacity: 0.7; stroke: #000000; stroke-opacity: 0.7; stroke-width: 0.1"/>
    </g>
   </g>
   <g id="PathCollection_64">
    <g clip-path="url(#p094ac83156)">
     <use xlink:href="#m9d34508798" x="68.763967" y="30.726898" style="fill: #2377b1; fill-opacity: 0.7; stroke: #000000; stroke-opacity: 0.7; stroke-width: 0.1"/>
    </g>
   </g>
   <g id="PathCollection_65">
    <g clip-path="url(#p094ac83156)">
     <use xlink:href="#m506a104db9" x="69.457298" y="23.630036" style="fill: #1f77b4; fill-opacity: 0.7; stroke: #000000; stroke-opacity: 0.7; stroke-width: 0.1"/>
    </g>
   </g>
   <g id="PathCollection_66">
    <defs>
     <path id="m3275400717" d="M 0 1.224745 
C 0.324806 1.224745 0.636353 1.095698 0.866025 0.866025 
C 1.095698 0.636353 1.224745 0.324806 1.224745 0 
C 1.224745 -0.324806 1.095698 -0.636353 0.866025 -0.866025 
C 0.636353 -1.095698 0.324806 -1.224745 0 -1.224745 
C -0.324806 -1.224745 -0.636353 -1.095698 -0.866025 -0.866025 
C -1.095698 -0.636353 -1.224745 -0.324806 -1.224745 0 
C -1.224745 0.324806 -1.095698 0.636353 -0.866025 0.866025 
C -0.636353 1.095698 -0.324806 1.224745 0 1.224745 
z
" style="stroke: #000000; stroke-opacity: 0.7; stroke-width: 0.1"/>
    </defs>
    <g clip-path="url(#p094ac83156)">
     <use xlink:href="#m3275400717" x="55.215419" y="38.123456" style="fill: #f17e18; fill-opacity: 0.7; stroke: #000000; stroke-opacity: 0.7; stroke-width: 0.1"/>
    </g>
   </g>
   <g id="PathCollection_67">
    <defs>
     <path id="mc7a562cfc3" d="M 0 1.224745 
C 0.324806 1.224745 0.636353 1.095698 0.866025 0.866025 
C 1.095698 0.636353 1.224745 0.324806 1.224745 0 
C 1.224745 -0.324806 1.095698 -0.636353 0.866025 -0.866025 
C 0.636353 -1.095698 0.324806 -1.224745 0 -1.224745 
C -0.324806 -1.224745 -0.636353 -1.095698 -0.866025 -0.866025 
C -1.095698 -0.636353 -1.224745 -0.324806 -1.224745 0 
C -1.224745 0.324806 -1.095698 0.636353 -0.866025 0.866025 
C -0.636353 1.095698 -0.324806 1.224745 0 1.224745 
z
" style="stroke: #000000; stroke-opacity: 0.7; stroke-width: 0.1"/>
    </defs>
    <g clip-path="url(#p094ac83156)">
     <use xlink:href="#mc7a562cfc3" x="56.31817" y="39.360866" style="fill: #ab7c4c; fill-opacity: 0.7; stroke: #000000; stroke-opacity: 0.7; stroke-width: 0.1"/>
    </g>
   </g>
   <g id="PathCollection_68">
    <defs>
     <path id="m957917a4da" d="M 0 1.224745 
C 0.324806 1.224745 0.636353 1.095698 0.866025 0.866025 
C 1.095698 0.636353 1.224745 0.324806 1.224745 0 
C 1.224745 -0.324806 1.095698 -0.636353 0.866025 -0.866025 
C 0.636353 -1.095698 0.324806 -1.224745 0 -1.224745 
C -0.324806 -1.224745 -0.636353 -1.095698 -0.866025 -0.866025 
C -1.095698 -0.636353 -1.224745 -0.324806 -1.224745 0 
C -1.224745 0.324806 -1.095698 0.636353 -0.866025 0.866025 
C -0.636353 1.095698 -0.324806 1.224745 0 1.224745 
z
" style="stroke: #000000; stroke-opacity: 0.7; stroke-width: 0.1"/>
    </defs>
    <g clip-path="url(#p094ac83156)">
     <use xlink:href="#m957917a4da" x="55.968661" y="39.241249" style="fill: #ba7d41; fill-opacity: 0.7; stroke: #000000; stroke-opacity: 0.7; stroke-width: 0.1"/>
    </g>
   </g>
   <g id="patch_3">
    <path d="M 24.841406 68.184 
L 24.841406 7.2 
" style="fill: none; stroke: #000000; stroke-width: 0.5; stroke-linejoin: miter; stroke-linecap: square"/>
   </g>
   <g id="patch_4">
    <path d="M 24.841406 68.184 
L 85.825406 68.184 
" style="fill: none; stroke: #000000; stroke-width: 0.5; stroke-linejoin: miter; stroke-linecap: square"/>
   </g>
   <g id="PathCollection_69">
    <defs>
     <path id="mfe095dc3a5" d="M 0 -1.581139 
L -1.581139 1.581139 
L 1.581139 1.581139 
z
" style="stroke: #000000; stroke-width: 0.4"/>
    </defs>
    <g>
     <use xlink:href="#mfe095dc3a5" x="59.424222" y="35.20766" style="fill: #ffffff; stroke: #000000; stroke-width: 0.4"/>
    </g>
   </g>
   <g id="legend_1">
    <g id="PathCollection_70">
     <g>
      <use xlink:href="#mfe095dc3a5" x="34.341406" y="14.186719" style="fill: #ffffff; stroke: #000000; stroke-width: 0.4"/>
     </g>
    </g>
    <g id="text_9">
     <!-- Median -->
     <g transform="translate(43.341406 15.499219) scale(0.05 -0.05)">
      <defs>
       <path id="DejaVuSans-4d" d="M 628 4666 
L 1569 4666 
L 2759 1491 
L 3956 4666 
L 4897 4666 
L 4897 0 
L 4281 0 
L 4281 4097 
L 3078 897 
L 2444 897 
L 1241 4097 
L 1241 0 
L 628 0 
L 628 4666 
z
" transform="scale(0.015625)"/>
       <path id="DejaVuSans-65" d="M 3597 1894 
L 3597 1613 
L 953 1613 
Q 991 1019 1311 708 
Q 1631 397 2203 397 
Q 2534 397 2845 478 
Q 3156 559 3463 722 
L 3463 178 
Q 3153 47 2828 -22 
Q 2503 -91 2169 -91 
Q 1331 -91 842 396 
Q 353 884 353 1716 
Q 353 2575 817 3079 
Q 1281 3584 2069 3584 
Q 2775 3584 3186 3129 
Q 3597 2675 3597 1894 
z
M 3022 2063 
Q 3016 2534 2758 2815 
Q 2500 3097 2075 3097 
Q 1594 3097 1305 2825 
Q 1016 2553 972 2059 
L 3022 2063 
z
" transform="scale(0.015625)"/>
       <path id="DejaVuSans-64" d="M 2906 2969 
L 2906 4863 
L 3481 4863 
L 3481 0 
L 2906 0 
L 2906 525 
Q 2725 213 2448 61 
Q 2172 -91 1784 -91 
Q 1150 -91 751 415 
Q 353 922 353 1747 
Q 353 2572 751 3078 
Q 1150 3584 1784 3584 
Q 2172 3584 2448 3432 
Q 2725 3281 2906 2969 
z
M 947 1747 
Q 947 1113 1208 752 
Q 1469 391 1925 391 
Q 2381 391 2643 752 
Q 2906 1113 2906 1747 
Q 2906 2381 2643 2742 
Q 2381 3103 1925 3103 
Q 1469 3103 1208 2742 
Q 947 2381 947 1747 
z
" transform="scale(0.015625)"/>
       <path id="DejaVuSans-69" d="M 603 3500 
L 1178 3500 
L 1178 0 
L 603 0 
L 603 3500 
z
M 603 4863 
L 1178 4863 
L 1178 4134 
L 603 4134 
L 603 4863 
z
" transform="scale(0.015625)"/>
       <path id="DejaVuSans-61" d="M 2194 1759 
Q 1497 1759 1228 1600 
Q 959 1441 959 1056 
Q 959 750 1161 570 
Q 1363 391 1709 391 
Q 2188 391 2477 730 
Q 2766 1069 2766 1631 
L 2766 1759 
L 2194 1759 
z
M 3341 1997 
L 3341 0 
L 2766 0 
L 2766 531 
Q 2569 213 2275 61 
Q 1981 -91 1556 -91 
Q 1019 -91 701 211 
Q 384 513 384 1019 
Q 384 1609 779 1909 
Q 1175 2209 1959 2209 
L 2766 2209 
L 2766 2266 
Q 2766 2663 2505 2880 
Q 2244 3097 1772 3097 
Q 1472 3097 1187 3025 
Q 903 2953 641 2809 
L 641 3341 
Q 956 3463 1253 3523 
Q 1550 3584 1831 3584 
Q 2591 3584 2966 3190 
Q 3341 2797 3341 1997 
z
" transform="scale(0.015625)"/>
       <path id="DejaVuSans-6e" d="M 3513 2113 
L 3513 0 
L 2938 0 
L 2938 2094 
Q 2938 2591 2744 2837 
Q 2550 3084 2163 3084 
Q 1697 3084 1428 2787 
Q 1159 2491 1159 1978 
L 1159 0 
L 581 0 
L 581 3500 
L 1159 3500 
L 1159 2956 
Q 1366 3272 1645 3428 
Q 1925 3584 2291 3584 
Q 2894 3584 3203 3211 
Q 3513 2838 3513 2113 
z
" transform="scale(0.015625)"/>
      </defs>
      <use xlink:href="#DejaVuSans-4d"/>
      <use xlink:href="#DejaVuSans-65" x="86.279297"/>
      <use xlink:href="#DejaVuSans-64" x="147.802734"/>
      <use xlink:href="#DejaVuSans-69" x="211.279297"/>
      <use xlink:href="#DejaVuSans-61" x="239.0625"/>
      <use xlink:href="#DejaVuSans-6e" x="300.341797"/>
     </g>
    </g>
   </g>
  </g>
 </g>
 <defs>
  <clipPath id="p094ac83156">
   <rect x="24.841406" y="7.2" width="60.984" height="60.984"/>
  </clipPath>
 </defs>
</svg>
