<?xml version="1.0" encoding="utf-8" standalone="no"?>
<!DOCTYPE svg PUBLIC "-//W3C//DTD SVG 1.1//EN"
  "http://www.w3.org/Graphics/SVG/1.1/DTD/svg11.dtd">
<svg xmlns:xlink="http://www.w3.org/1999/xlink" width="93.025406pt" height="85.723062pt" viewBox="0 0 93.025406 85.723062" xmlns="http://www.w3.org/2000/svg" version="1.1">
 <metadata>
  <rdf:RDF xmlns:dc="http://purl.org/dc/elements/1.1/" xmlns:cc="http://creativecommons.org/ns#" xmlns:rdf="http://www.w3.org/1999/02/22-rdf-syntax-ns#">
   <cc:Work>
    <dc:type rdf:resource="http://purl.org/dc/dcmitype/StillImage"/>
    <dc:date>2026-01-06T21:58:02.918773</dc:date>
    <dc:format>image/svg+xml</dc:format>
    <dc:creator>
     <cc:Agent>
      <dc:title>Matplotlib v3.8.2, https://matplotlib.org/</dc:title>
     </cc:Agent>
    </dc:creator>
   </cc:Work>
  </rdf:RDF>
 </metadata>
 <defs>
  <style type="text/css">*{stroke-linejoin: round; stroke-linecap: butt}</style>
 </defs>
 <g id="figure_1">
  <g id="patch_1">
   <path d="M -0 85.723062 
L 93.025406 85.723062 
L 93.025406 0 
L -0 0 
z
" style="fill: #ffffff"/>
  </g>
  <g id="axes_1">
   <g id="patch_2">
    <path d="M 24.841406 68.184 
L 85.825406 68.184 
L 85.825406 7.2 
L 24.841406 7.2 
z
" style="fill: #ffffff"/>
   </g>
   <g id="line2d_1">
    <path d="M 24.841406 37.692 
L 85.825406 37.692 
" clip-path="url(#pe6e2046c87)" style="fill: none; stroke-dasharray: 1.11,0.48; stroke-dashoffset: 0; stroke: #000000; stroke-width: 0.3"/>
   </g>
   <g id="line2d_2">
    <path d="M 55.333406 68.184 
L 55.333406 7.2 
" clip-path="url(#pe6e2046c87)" style="fill: none; stroke-dasharray: 1.11,0.48; stroke-dashoffset: 0; stroke: #000000; stroke-width: 0.3"/>
   </g>
   <g id="matplotlib.axis_1">
    <g id="xtick_1">
     <g id="line2d_3">
      <defs>
       <path id="m46f364e9a5" d="M 0 0 
L 0 2 
" style="stroke: #000000; stroke-width: 0.5"/>
      </defs>
      <g>
       <use xlink:href="#m46f364e9a5" x="38.393406" y="68.184" style="stroke: #000000; stroke-width: 0.5"/>
      </g>
     </g>
     <g id="text_1">
      <!-- −0.25 -->
      <g transform="translate(30.732078 77.483219) scale(0.05 -0.05)">
       <defs>
        <path id="DejaVuSans-2212" d="M 678 2272 
L 4684 2272 
L 4684 1741 
L 678 1741 
L 678 2272 
z
" transform="scale(0.015625)"/>
        <path id="DejaVuSans-30" d="M 2034 4250 
Q 1547 4250 1301 3770 
Q 1056 3291 1056 2328 
Q 1056 1369 1301 889 
Q 1547 409 2034 409 
Q 2525 409 2770 889 
Q 3016 1369 3016 2328 
Q 3016 3291 2770 3770 
Q 2525 4250 2034 4250 
z
M 2034 4750 
Q 2819 4750 3233 4129 
Q 3647 3509 3647 2328 
Q 3647 1150 3233 529 
Q 2819 -91 2034 -91 
Q 1250 -91 836 529 
Q 422 1150 422 2328 
Q 422 3509 836 4129 
Q 1250 4750 2034 4750 
z
" transform="scale(0.015625)"/>
        <path id="DejaVuSans-2e" d="M 684 794 
L 1344 794 
L 1344 0 
L 684 0 
L 684 794 
z
" transform="scale(0.015625)"/>
        <path id="DejaVuSans-32" d="M 1228 531 
L 3431 531 
L 3431 0 
L 469 0 
L 469 531 
Q 828 903 1448 1529 
Q 2069 2156 2228 2338 
Q 2531 2678 2651 2914 
Q 2772 3150 2772 3378 
Q 2772 3750 2511 3984 
Q 2250 4219 1831 4219 
Q 1534 4219 1204 4116 
Q 875 4013 500 3803 
L 500 4441 
Q 881 4594 1212 4672 
Q 1544 4750 1819 4750 
Q 2544 4750 2975 4387 
Q 3406 4025 3406 3419 
Q 3406 3131 3298 2873 
Q 3191 2616 2906 2266 
Q 2828 2175 2409 1742 
Q 1991 1309 1228 531 
z
" transform="scale(0.015625)"/>
        <path id="DejaVuSans-35" d="M 691 4666 
L 3169 4666 
L 3169 4134 
L 1269 4134 
L 1269 2991 
Q 1406 3038 1543 3061 
Q 1681 3084 1819 3084 
Q 2600 3084 3056 2656 
Q 3513 2228 3513 1497 
Q 3513 744 3044 326 
Q 2575 -91 1722 -91 
Q 1428 -91 1123 -41 
Q 819 9 494 109 
L 494 744 
Q 775 591 1075 516 
Q 1375 441 1709 441 
Q 2250 441 2565 725 
Q 2881 1009 2881 1497 
Q 2881 1984 2565 2268 
Q 2250 2553 1709 2553 
Q 1456 2553 1204 2497 
Q 953 2441 691 2322 
L 691 4666 
z
" transform="scale(0.015625)"/>
       </defs>
       <use xlink:href="#DejaVuSans-2212"/>
       <use xlink:href="#DejaVuSans-30" x="83.789062"/>
       <use xlink:href="#DejaVuSans-2e" x="147.412109"/>
       <use xlink:href="#DejaVuSans-32" x="179.199219"/>
       <use xlink:href="#DejaVuSans-35" x="242.822266"/>
      </g>
     </g>
    </g>
    <g id="xtick_2">
     <g id="line2d_4">
      <g>
       <use xlink:href="#m46f364e9a5" x="55.333406" y="68.184" style="stroke: #000000; stroke-width: 0.5"/>
      </g>
     </g>
     <g id="text_2">
      <!-- 0.00 -->
      <g transform="translate(49.767 77.483219) scale(0.05 -0.05)">
       <use xlink:href="#DejaVuSans-30"/>
       <use xlink:href="#DejaVuSans-2e" x="63.623047"/>
       <use xlink:href="#DejaVuSans-30" x="95.410156"/>
       <use xlink:href="#DejaVuSans-30" x="159.033203"/>
      </g>
     </g>
    </g>
    <g id="xtick_3">
     <g id="line2d_5">
      <g>
       <use xlink:href="#m46f364e9a5" x="72.273406" y="68.184" style="stroke: #000000; stroke-width: 0.5"/>
      </g>
     </g>
     <g id="text_3">
      <!-- 0.25 -->
      <g transform="translate(66.707 77.483219) scale(0.05 -0.05)">
       <use xlink:href="#DejaVuSans-30"/>
       <use xlink:href="#DejaVuSans-2e" x="63.623047"/>
       <use xlink:href="#DejaVuSans-32" x="95.410156"/>
       <use xlink:href="#DejaVuSans-35" x="159.033203"/>
      </g>
     </g>
    </g>
   </g>
   <g id="matplotlib.axis_2">
    <g id="ytick_1">
     <g id="line2d_6">
      <defs>
       <path id="m7dbc8d3268" d="M 0 0 
L -2 0 
" style="stroke: #000000; stroke-width: 0.5"/>
      </defs>
      <g>
       <use xlink:href="#m7dbc8d3268" x="24.841406" y="64.796" style="stroke: #000000; stroke-width: 0.5"/>
      </g>
     </g>
     <g id="text_4">
      <!-- −0.4 -->
      <g transform="translate(7.2 66.695609) scale(0.05 -0.05)">
       <defs>
        <path id="DejaVuSans-34" d="M 2419 4116 
L 825 1625 
L 2419 1625 
L 2419 4116 
z
M 2253 4666 
L 3047 4666 
L 3047 1625 
L 3713 1625 
L 3713 1100 
L 3047 1100 
L 3047 0 
L 2419 0 
L 2419 1100 
L 313 1100 
L 313 1709 
L 2253 4666 
z
" transform="scale(0.015625)"/>
       </defs>
       <use xlink:href="#DejaVuSans-2212"/>
       <use xlink:href="#DejaVuSans-30" x="83.789062"/>
       <use xlink:href="#DejaVuSans-2e" x="147.412109"/>
       <use xlink:href="#DejaVuSans-34" x="179.199219"/>
      </g>
     </g>
    </g>
    <g id="ytick_2">
     <g id="line2d_7">
      <g>
       <use xlink:href="#m7dbc8d3268" x="24.841406" y="51.244" style="stroke: #000000; stroke-width: 0.5"/>
      </g>
     </g>
     <g id="text_5">
      <!-- −0.2 -->
      <g transform="translate(7.2 53.143609) scale(0.05 -0.05)">
       <use xlink:href="#DejaVuSans-2212"/>
       <use xlink:href="#DejaVuSans-30" x="83.789062"/>
       <use xlink:href="#DejaVuSans-2e" x="147.412109"/>
       <use xlink:href="#DejaVuSans-32" x="179.199219"/>
      </g>
     </g>
    </g>
    <g id="ytick_3">
     <g id="line2d_8">
      <g>
       <use xlink:href="#m7dbc8d3268" x="24.841406" y="37.692" style="stroke: #000000; stroke-width: 0.5"/>
      </g>
     </g>
     <g id="text_6">
      <!-- 0.0 -->
      <g transform="translate(11.389844 39.591609) scale(0.05 -0.05)">
       <use xlink:href="#DejaVuSans-30"/>
       <use xlink:href="#DejaVuSans-2e" x="63.623047"/>
       <use xlink:href="#DejaVuSans-30" x="95.410156"/>
      </g>
     </g>
    </g>
    <g id="ytick_4">
     <g id="line2d_9">
      <g>
       <use xlink:href="#m7dbc8d3268" x="24.841406" y="24.14" style="stroke: #000000; stroke-width: 0.5"/>
      </g>
     </g>
     <g id="text_7">
      <!-- 0.2 -->
      <g transform="translate(11.389844 26.039609) scale(0.05 -0.05)">
       <use xlink:href="#DejaVuSans-30"/>
       <use xlink:href="#DejaVuSans-2e" x="63.623047"/>
       <use xlink:href="#DejaVuSans-32" x="95.410156"/>
      </g>
     </g>
    </g>
    <g id="ytick_5">
     <g id="line2d_10">
      <g>
       <use xlink:href="#m7dbc8d3268" x="24.841406" y="10.588" style="stroke: #000000; stroke-width: 0.5"/>
      </g>
     </g>
     <g id="text_8">
      <!-- 0.4 -->
      <g transform="translate(11.389844 12.487609) scale(0.05 -0.05)">
       <use xlink:href="#DejaVuSans-30"/>
       <use xlink:href="#DejaVuSans-2e" x="63.623047"/>
       <use xlink:href="#DejaVuSans-34" x="95.410156"/>
      </g>
     </g>
    </g>
   </g>
   <g id="PathCollection_1">
    <defs>
     <path id="md3650d60ad" d="M 0 1.224745 
C 0.324806 1.224745 0.636353 1.095698 0.866025 0.866025 
C 1.095698 0.636353 1.224745 0.324806 1.224745 0 
C 1.224745 -0.324806 1.095698 -0.636353 0.866025 -0.866025 
C 0.636353 -1.095698 0.324806 -1.224745 0 -1.224745 
C -0.324806 -1.224745 -0.636353 -1.095698 -0.866025 -0.866025 
C -1.095698 -0.636353 -1.224745 -0.324806 -1.224745 0 
C -1.224745 0.324806 -1.095698 0.636353 -0.866025 0.866025 
C -0.636353 1.095698 -0.324806 1.224745 0 1.224745 
z
" style="stroke: #000000; stroke-opacity: 0.7; stroke-width: 0.1"/>
    </defs>
    <g clip-path="url(#pe6e2046c87)">
     <use xlink:href="#md3650d60ad" x="49.13189" y="37.288115" style="fill: #d97e2a; fill-opacity: 0.7; stroke: #000000; stroke-opacity: 0.7; stroke-width: 0.1"/>
    </g>
   </g>
   <g id="PathCollection_2">
    <defs>
     <path id="m1d78327d8c" d="M 0 1.224745 
C 0.324806 1.224745 0.636353 1.095698 0.866025 0.866025 
C 1.095698 0.636353 1.224745 0.324806 1.224745 0 
C 1.224745 -0.324806 1.095698 -0.636353 0.866025 -0.866025 
C 0.636353 -1.095698 0.324806 -1.224745 0 -1.224745 
C -0.324806 -1.224745 -0.636353 -1.095698 -0.866025 -0.866025 
C -1.095698 -0.636353 -1.224745 -0.324806 -1.224745 0 
C -1.224745 0.324806 -1.095698 0.636353 -0.866025 0.866025 
C -0.636353 1.095698 -0.324806 1.224745 0 1.224745 
z
" style="stroke: #000000; stroke-opacity: 0.7; stroke-width: 0.1"/>
    </defs>
    <g clip-path="url(#pe6e2046c87)">
     <use xlink:href="#m1d78327d8c" x="64.629722" y="34.383783" style="fill: #2a77ac; fill-opacity: 0.7; stroke: #000000; stroke-opacity: 0.7; stroke-width: 0.1"/>
    </g>
   </g>
   <g id="PathCollection_3">
    <defs>
     <path id="mca2dc2e058" d="M 0 1.224745 
C 0.324806 1.224745 0.636353 1.095698 0.866025 0.866025 
C 1.095698 0.636353 1.224745 0.324806 1.224745 0 
C 1.224745 -0.324806 1.095698 -0.636353 0.866025 -0.866025 
C 0.636353 -1.095698 0.324806 -1.224745 0 -1.224745 
C -0.324806 -1.224745 -0.636353 -1.095698 -0.866025 -0.866025 
C -1.095698 -0.636353 -1.224745 -0.324806 -1.224745 0 
C -1.224745 0.324806 -1.095698 0.636353 -0.866025 0.866025 
C -0.636353 1.095698 -0.324806 1.224745 0 1.224745 
z
" style="stroke: #000000; stroke-opacity: 0.7; stroke-width: 0.1"/>
    </defs>
    <g clip-path="url(#pe6e2046c87)">
     <use xlink:href="#mca2dc2e058" x="58.774254" y="41.156879" style="fill: #8f7b61; fill-opacity: 0.7; stroke: #000000; stroke-opacity: 0.7; stroke-width: 0.1"/>
    </g>
   </g>
   <g id="PathCollection_4">
    <defs>
     <path id="mef86f1c0cb" d="M 0 1.224745 
C 0.324806 1.224745 0.636353 1.095698 0.866025 0.866025 
C 1.095698 0.636353 1.224745 0.324806 1.224745 0 
C 1.224745 -0.324806 1.095698 -0.636353 0.866025 -0.866025 
C 0.636353 -1.095698 0.324806 -1.224745 0 -1.224745 
C -0.324806 -1.224745 -0.636353 -1.095698 -0.866025 -0.866025 
C -1.095698 -0.636353 -1.224745 -0.324806 -1.224745 0 
C -1.224745 0.324806 -1.095698 0.636353 -0.866025 0.866025 
C -0.636353 1.095698 -0.324806 1.224745 0 1.224745 
z
" style="stroke: #000000; stroke-opacity: 0.7; stroke-width: 0.1"/>
    </defs>
    <g clip-path="url(#pe6e2046c87)">
     <use xlink:href="#mef86f1c0cb" x="65.677017" y="36.299675" style="fill: #3678a3; fill-opacity: 0.7; stroke: #000000; stroke-opacity: 0.7; stroke-width: 0.1"/>
    </g>
   </g>
   <g id="PathCollection_5">
    <defs>
     <path id="md432c28d18" d="M 0 1.224745 
C 0.324806 1.224745 0.636353 1.095698 0.866025 0.866025 
C 1.095698 0.636353 1.224745 0.324806 1.224745 0 
C 1.224745 -0.324806 1.095698 -0.636353 0.866025 -0.866025 
C 0.636353 -1.095698 0.324806 -1.224745 0 -1.224745 
C -0.324806 -1.224745 -0.636353 -1.095698 -0.866025 -0.866025 
C -1.095698 -0.636353 -1.224745 -0.324806 -1.224745 0 
C -1.224745 0.324806 -1.095698 0.636353 -0.866025 0.866025 
C -0.636353 1.095698 -0.324806 1.224745 0 1.224745 
z
" style="stroke: #000000; stroke-opacity: 0.7; stroke-width: 0.1"/>
    </defs>
    <g clip-path="url(#pe6e2046c87)">
     <use xlink:href="#md432c28d18" x="55.330818" y="38.45061" style="fill: #de7e26; fill-opacity: 0.7; stroke: #000000; stroke-opacity: 0.7; stroke-width: 0.1"/>
    </g>
   </g>
   <g id="PathCollection_6">
    <defs>
     <path id="m274815b74d" d="M 0 1.224745 
C 0.324806 1.224745 0.636353 1.095698 0.866025 0.866025 
C 1.095698 0.636353 1.224745 0.324806 1.224745 0 
C 1.224745 -0.324806 1.095698 -0.636353 0.866025 -0.866025 
C 0.636353 -1.095698 0.324806 -1.224745 0 -1.224745 
C -0.324806 -1.224745 -0.636353 -1.095698 -0.866025 -0.866025 
C -1.095698 -0.636353 -1.224745 -0.324806 -1.224745 0 
C -1.224745 0.324806 -1.095698 0.636353 -0.866025 0.866025 
C -0.636353 1.095698 -0.324806 1.224745 0 1.224745 
z
" style="stroke: #000000; stroke-opacity: 0.7; stroke-width: 0.1"/>
    </defs>
    <g clip-path="url(#pe6e2046c87)">
     <use xlink:href="#m274815b74d" x="57.918007" y="37.052664" style="fill: #2f78a8; fill-opacity: 0.7; stroke: #000000; stroke-opacity: 0.7; stroke-width: 0.1"/>
    </g>
   </g>
   <g id="PathCollection_7">
    <defs>
     <path id="md8f29fc8bf" d="M 0 1.224745 
C 0.324806 1.224745 0.636353 1.095698 0.866025 0.866025 
C 1.095698 0.636353 1.224745 0.324806 1.224745 0 
C 1.224745 -0.324806 1.095698 -0.636353 0.866025 -0.866025 
C 0.636353 -1.095698 0.324806 -1.224745 0 -1.224745 
C -0.324806 -1.224745 -0.636353 -1.095698 -0.866025 -0.866025 
C -1.095698 -0.636353 -1.224745 -0.324806 -1.224745 0 
C -1.224745 0.324806 -1.095698 0.636353 -0.866025 0.866025 
C -0.636353 1.095698 -0.324806 1.224745 0 1.224745 
z
" style="stroke: #000000; stroke-opacity: 0.7; stroke-width: 0.1"/>
    </defs>
    <g clip-path="url(#pe6e2046c87)">
     <use xlink:href="#md8f29fc8bf" x="57.048616" y="39.8004" style="fill: #9b7b58; fill-opacity: 0.7; stroke: #000000; stroke-opacity: 0.7; stroke-width: 0.1"/>
    </g>
   </g>
   <g id="PathCollection_8">
    <defs>
     <path id="mc0094825b2" d="M 0 1.224745 
C 0.324806 1.224745 0.636353 1.095698 0.866025 0.866025 
C 1.095698 0.636353 1.224745 0.324806 1.224745 0 
C 1.224745 -0.324806 1.095698 -0.636353 0.866025 -0.866025 
C 0.636353 -1.095698 0.324806 -1.224745 0 -1.224745 
C -0.324806 -1.224745 -0.636353 -1.095698 -0.866025 -0.866025 
C -1.095698 -0.636353 -1.224745 -0.324806 -1.224745 0 
C -1.224745 0.324806 -1.095698 0.636353 -0.866025 0.866025 
C -0.636353 1.095698 -0.324806 1.224745 0 1.224745 
z
" style="stroke: #000000; stroke-opacity: 0.7; stroke-width: 0.1"/>
    </defs>
    <g clip-path="url(#pe6e2046c87)">
     <use xlink:href="#mc0094825b2" x="59.296132" y="37.100361" style="fill: #3578a4; fill-opacity: 0.7; stroke: #000000; stroke-opacity: 0.7; stroke-width: 0.1"/>
    </g>
   </g>
   <g id="PathCollection_9">
    <defs>
     <path id="me16acd923a" d="M 0 1.224745 
C 0.324806 1.224745 0.636353 1.095698 0.866025 0.866025 
C 1.095698 0.636353 1.224745 0.324806 1.224745 0 
C 1.224745 -0.324806 1.095698 -0.636353 0.866025 -0.866025 
C 0.636353 -1.095698 0.324806 -1.224745 0 -1.224745 
C -0.324806 -1.224745 -0.636353 -1.095698 -0.866025 -0.866025 
C -1.095698 -0.636353 -1.224745 -0.324806 -1.224745 0 
C -1.224745 0.324806 -1.095698 0.636353 -0.866025 0.866025 
C -0.636353 1.095698 -0.324806 1.224745 0 1.224745 
z
" style="stroke: #000000; stroke-opacity: 0.7; stroke-width: 0.1"/>
    </defs>
    <g clip-path="url(#pe6e2046c87)">
     <use xlink:href="#me16acd923a" x="49.877133" y="38.67973" style="fill: #ec7e1c; fill-opacity: 0.7; stroke: #000000; stroke-opacity: 0.7; stroke-width: 0.1"/>
    </g>
   </g>
   <g id="PathCollection_10">
    <defs>
     <path id="m8a1ababbcc" d="M 0 1.224745 
C 0.324806 1.224745 0.636353 1.095698 0.866025 0.866025 
C 1.095698 0.636353 1.224745 0.324806 1.224745 0 
C 1.224745 -0.324806 1.095698 -0.636353 0.866025 -0.866025 
C 0.636353 -1.095698 0.324806 -1.224745 0 -1.224745 
C -0.324806 -1.224745 -0.636353 -1.095698 -0.866025 -0.866025 
C -1.095698 -0.636353 -1.224745 -0.324806 -1.224745 0 
C -1.224745 0.324806 -1.095698 0.636353 -0.866025 0.866025 
C -0.636353 1.095698 -0.324806 1.224745 0 1.224745 
z
" style="stroke: #000000; stroke-opacity: 0.7; stroke-width: 0.1"/>
    </defs>
    <g clip-path="url(#pe6e2046c87)">
     <use xlink:href="#m8a1ababbcc" x="58.517517" y="38.327616" style="fill: #507990; fill-opacity: 0.7; stroke: #000000; stroke-opacity: 0.7; stroke-width: 0.1"/>
    </g>
   </g>
   <g id="PathCollection_11">
    <g clip-path="url(#pe6e2046c87)">
     <use xlink:href="#md8f29fc8bf" x="58.208832" y="41.276763" style="fill: #9b7b58; fill-opacity: 0.7; stroke: #000000; stroke-opacity: 0.7; stroke-width: 0.1"/>
    </g>
   </g>
   <g id="PathCollection_12">
    <defs>
     <path id="m1ff525da9e" d="M 0 1.224745 
C 0.324806 1.224745 0.636353 1.095698 0.866025 0.866025 
C 1.095698 0.636353 1.224745 0.324806 1.224745 0 
C 1.224745 -0.324806 1.095698 -0.636353 0.866025 -0.866025 
C 0.636353 -1.095698 0.324806 -1.224745 0 -1.224745 
C -0.324806 -1.224745 -0.636353 -1.095698 -0.866025 -0.866025 
C -1.095698 -0.636353 -1.224745 -0.324806 -1.224745 0 
C -1.224745 0.324806 -1.095698 0.636353 -0.866025 0.866025 
C -0.636353 1.095698 -0.324806 1.224745 0 1.224745 
z
" style="stroke: #000000; stroke-opacity: 0.7; stroke-width: 0.1"/>
    </defs>
    <g clip-path="url(#pe6e2046c87)">
     <use xlink:href="#m1ff525da9e" x="61.19466" y="38.055456" style="fill: #457898; fill-opacity: 0.7; stroke: #000000; stroke-opacity: 0.7; stroke-width: 0.1"/>
    </g>
   </g>
   <g id="PathCollection_13">
    <defs>
     <path id="m7288c5dba9" d="M 0 1.224745 
C 0.324806 1.224745 0.636353 1.095698 0.866025 0.866025 
C 1.095698 0.636353 1.224745 0.324806 1.224745 0 
C 1.224745 -0.324806 1.095698 -0.636353 0.866025 -0.866025 
C 0.636353 -1.095698 0.324806 -1.224745 0 -1.224745 
C -0.324806 -1.224745 -0.636353 -1.095698 -0.866025 -0.866025 
C -1.095698 -0.636353 -1.224745 -0.324806 -1.224745 0 
C -1.224745 0.324806 -1.095698 0.636353 -0.866025 0.866025 
C -0.636353 1.095698 -0.324806 1.224745 0 1.224745 
z
" style="stroke: #000000; stroke-opacity: 0.7; stroke-width: 0.1"/>
    </defs>
    <g clip-path="url(#pe6e2046c87)">
     <use xlink:href="#m7288c5dba9" x="52.4281" y="36.141564" style="fill: #b07c49; fill-opacity: 0.7; stroke: #000000; stroke-opacity: 0.7; stroke-width: 0.1"/>
    </g>
   </g>
   <g id="PathCollection_14">
    <defs>
     <path id="m466f746b96" d="M 0 1.224745 
C 0.324806 1.224745 0.636353 1.095698 0.866025 0.866025 
C 1.095698 0.636353 1.224745 0.324806 1.224745 0 
C 1.224745 -0.324806 1.095698 -0.636353 0.866025 -0.866025 
C 0.636353 -1.095698 0.324806 -1.224745 0 -1.224745 
C -0.324806 -1.224745 -0.636353 -1.095698 -0.866025 -0.866025 
C -1.095698 -0.636353 -1.224745 -0.324806 -1.224745 0 
C -1.224745 0.324806 -1.095698 0.636353 -0.866025 0.866025 
C -0.636353 1.095698 -0.324806 1.224745 0 1.224745 
z
" style="stroke: #000000; stroke-opacity: 0.7; stroke-width: 0.1"/>
    </defs>
    <g clip-path="url(#pe6e2046c87)">
     <use xlink:href="#m466f746b96" x="46.264405" y="41.69464" style="fill: #f87f13; fill-opacity: 0.7; stroke: #000000; stroke-opacity: 0.7; stroke-width: 0.1"/>
    </g>
   </g>
   <g id="PathCollection_15">
    <defs>
     <path id="mb5baaa1209" d="M 0 1.224745 
C 0.324806 1.224745 0.636353 1.095698 0.866025 0.866025 
C 1.095698 0.636353 1.224745 0.324806 1.224745 0 
C 1.224745 -0.324806 1.095698 -0.636353 0.866025 -0.866025 
C 0.636353 -1.095698 0.324806 -1.224745 0 -1.224745 
C -0.324806 -1.224745 -0.636353 -1.095698 -0.866025 -0.866025 
C -1.095698 -0.636353 -1.224745 -0.324806 -1.224745 0 
C -1.224745 0.324806 -1.095698 0.636353 -0.866025 0.866025 
C -0.636353 1.095698 -0.324806 1.224745 0 1.224745 
z
" style="stroke: #000000; stroke-opacity: 0.7; stroke-width: 0.1"/>
    </defs>
    <g clip-path="url(#pe6e2046c87)">
     <use xlink:href="#mb5baaa1209" x="54.745953" y="38.77014" style="fill: #fb7f11; fill-opacity: 0.7; stroke: #000000; stroke-opacity: 0.7; stroke-width: 0.1"/>
    </g>
   </g>
   <g id="PathCollection_16">
    <defs>
     <path id="m233e014cf8" d="M 0 1.224745 
C 0.324806 1.224745 0.636353 1.095698 0.866025 0.866025 
C 1.095698 0.636353 1.224745 0.324806 1.224745 0 
C 1.224745 -0.324806 1.095698 -0.636353 0.866025 -0.866025 
C 0.636353 -1.095698 0.324806 -1.224745 0 -1.224745 
C -0.324806 -1.224745 -0.636353 -1.095698 -0.866025 -0.866025 
C -1.095698 -0.636353 -1.224745 -0.324806 -1.224745 0 
C -1.224745 0.324806 -1.095698 0.636353 -0.866025 0.866025 
C -0.636353 1.095698 -0.324806 1.224745 0 1.224745 
z
" style="stroke: #000000; stroke-opacity: 0.7; stroke-width: 0.1"/>
    </defs>
    <g clip-path="url(#pe6e2046c87)">
     <use xlink:href="#m233e014cf8" x="59.401019" y="33.747481" style="fill: #1f77b4; fill-opacity: 0.7; stroke: #000000; stroke-opacity: 0.7; stroke-width: 0.1"/>
    </g>
   </g>
   <g id="PathCollection_17">
    <defs>
     <path id="m6354ca9c89" d="M 0 1.224745 
C 0.324806 1.224745 0.636353 1.095698 0.866025 0.866025 
C 1.095698 0.636353 1.224745 0.324806 1.224745 0 
C 1.224745 -0.324806 1.095698 -0.636353 0.866025 -0.866025 
C 0.636353 -1.095698 0.324806 -1.224745 0 -1.224745 
C -0.324806 -1.224745 -0.636353 -1.095698 -0.866025 -0.866025 
C -1.095698 -0.636353 -1.224745 -0.324806 -1.224745 0 
C -1.224745 0.324806 -1.095698 0.636353 -0.866025 0.866025 
C -0.636353 1.095698 -0.324806 1.224745 0 1.224745 
z
" style="stroke: #000000; stroke-opacity: 0.7; stroke-width: 0.1"/>
    </defs>
    <g clip-path="url(#pe6e2046c87)">
     <use xlink:href="#m6354ca9c89" x="53.190854" y="39.90348" style="fill: #ff7f0e; fill-opacity: 0.7; stroke: #000000; stroke-opacity: 0.7; stroke-width: 0.1"/>
    </g>
   </g>
   <g id="PathCollection_18">
    <defs>
     <path id="mdae037dc2d" d="M 0 1.224745 
C 0.324806 1.224745 0.636353 1.095698 0.866025 0.866025 
C 1.095698 0.636353 1.224745 0.324806 1.224745 0 
C 1.224745 -0.324806 1.095698 -0.636353 0.866025 -0.866025 
C 0.636353 -1.095698 0.324806 -1.224745 0 -1.224745 
C -0.324806 -1.224745 -0.636353 -1.095698 -0.866025 -0.866025 
C -1.095698 -0.636353 -1.224745 -0.324806 -1.224745 0 
C -1.224745 0.324806 -1.095698 0.636353 -0.866025 0.866025 
C -0.636353 1.095698 -0.324806 1.224745 0 1.224745 
z
" style="stroke: #000000; stroke-opacity: 0.7; stroke-width: 0.1"/>
    </defs>
    <g clip-path="url(#pe6e2046c87)">
     <use xlink:href="#mdae037dc2d" x="63.877394" y="36.23856" style="fill: #3378a5; fill-opacity: 0.7; stroke: #000000; stroke-opacity: 0.7; stroke-width: 0.1"/>
    </g>
   </g>
   <g id="PathCollection_19">
    <defs>
     <path id="m110353535a" d="M 0 1.224745 
C 0.324806 1.224745 0.636353 1.095698 0.866025 0.866025 
C 1.095698 0.636353 1.224745 0.324806 1.224745 0 
C 1.224745 -0.324806 1.095698 -0.636353 0.866025 -0.866025 
C 0.636353 -1.095698 0.324806 -1.224745 0 -1.224745 
C -0.324806 -1.224745 -0.636353 -1.095698 -0.866025 -0.866025 
C -1.095698 -0.636353 -1.224745 -0.324806 -1.224745 0 
C -1.224745 0.324806 -1.095698 0.636353 -0.866025 0.866025 
C -0.636353 1.095698 -0.324806 1.224745 0 1.224745 
z
" style="stroke: #000000; stroke-opacity: 0.7; stroke-width: 0.1"/>
    </defs>
    <g clip-path="url(#pe6e2046c87)">
     <use xlink:href="#m110353535a" x="44.815007" y="41.3606" style="fill: #f47f16; fill-opacity: 0.7; stroke: #000000; stroke-opacity: 0.7; stroke-width: 0.1"/>
    </g>
   </g>
   <g id="PathCollection_20">
    <defs>
     <path id="mdefc2b5625" d="M 0 1.224745 
C 0.324806 1.224745 0.636353 1.095698 0.866025 0.866025 
C 1.095698 0.636353 1.224745 0.324806 1.224745 0 
C 1.224745 -0.324806 1.095698 -0.636353 0.866025 -0.866025 
C 0.636353 -1.095698 0.324806 -1.224745 0 -1.224745 
C -0.324806 -1.224745 -0.636353 -1.095698 -0.866025 -0.866025 
C -1.095698 -0.636353 -1.224745 -0.324806 -1.224745 0 
C -1.224745 0.324806 -1.095698 0.636353 -0.866025 0.866025 
C -0.636353 1.095698 -0.324806 1.224745 0 1.224745 
z
" style="stroke: #000000; stroke-opacity: 0.7; stroke-width: 0.1"/>
    </defs>
    <g clip-path="url(#pe6e2046c87)">
     <use xlink:href="#mdefc2b5625" x="53.840861" y="35.835908" style="fill: #837b6a; fill-opacity: 0.7; stroke: #000000; stroke-opacity: 0.7; stroke-width: 0.1"/>
    </g>
   </g>
   <g id="PathCollection_21">
    <defs>
     <path id="mb4bf5f385a" d="M 0 1.224745 
C 0.324806 1.224745 0.636353 1.095698 0.866025 0.866025 
C 1.095698 0.636353 1.224745 0.324806 1.224745 0 
C 1.224745 -0.324806 1.095698 -0.636353 0.866025 -0.866025 
C 0.636353 -1.095698 0.324806 -1.224745 0 -1.224745 
C -0.324806 -1.224745 -0.636353 -1.095698 -0.866025 -0.866025 
C -1.095698 -0.636353 -1.224745 -0.324806 -1.224745 0 
C -1.224745 0.324806 -1.095698 0.636353 -0.866025 0.866025 
C -0.636353 1.095698 -0.324806 1.224745 0 1.224745 
z
" style="stroke: #000000; stroke-opacity: 0.7; stroke-width: 0.1"/>
    </defs>
    <g clip-path="url(#pe6e2046c87)">
     <use xlink:href="#mb4bf5f385a" x="54.361385" y="39.605171" style="fill: #fa7f12; fill-opacity: 0.7; stroke: #000000; stroke-opacity: 0.7; stroke-width: 0.1"/>
    </g>
   </g>
   <g id="PathCollection_22">
    <g clip-path="url(#pe6e2046c87)">
     <use xlink:href="#m274815b74d" x="67.213324" y="34.729331" style="fill: #2f78a8; fill-opacity: 0.7; stroke: #000000; stroke-opacity: 0.7; stroke-width: 0.1"/>
    </g>
   </g>
   <g id="PathCollection_23">
    <defs>
     <path id="mbe5c0d0912" d="M 0 1.224745 
C 0.324806 1.224745 0.636353 1.095698 0.866025 0.866025 
C 1.095698 0.636353 1.224745 0.324806 1.224745 0 
C 1.224745 -0.324806 1.095698 -0.636353 0.866025 -0.866025 
C 0.636353 -1.095698 0.324806 -1.224745 0 -1.224745 
C -0.324806 -1.224745 -0.636353 -1.095698 -0.866025 -0.866025 
C -1.095698 -0.636353 -1.224745 -0.324806 -1.224745 0 
C -1.224745 0.324806 -1.095698 0.636353 -0.866025 0.866025 
C -0.636353 1.095698 -0.324806 1.224745 0 1.224745 
z
" style="stroke: #000000; stroke-opacity: 0.7; stroke-width: 0.1"/>
    </defs>
    <g clip-path="url(#pe6e2046c87)">
     <use xlink:href="#mbe5c0d0912" x="64.154952" y="37.944149" style="fill: #42789a; fill-opacity: 0.7; stroke: #000000; stroke-opacity: 0.7; stroke-width: 0.1"/>
    </g>
   </g>
   <g id="PathCollection_24">
    <defs>
     <path id="m5d468a0186" d="M 0 1.224745 
C 0.324806 1.224745 0.636353 1.095698 0.866025 0.866025 
C 1.095698 0.636353 1.224745 0.324806 1.224745 0 
C 1.224745 -0.324806 1.095698 -0.636353 0.866025 -0.866025 
C 0.636353 -1.095698 0.324806 -1.224745 0 -1.224745 
C -0.324806 -1.224745 -0.636353 -1.095698 -0.866025 -0.866025 
C -1.095698 -0.636353 -1.224745 -0.324806 -1.224745 0 
C -1.224745 0.324806 -1.095698 0.636353 -0.866025 0.866025 
C -0.636353 1.095698 -0.324806 1.224745 0 1.224745 
z
" style="stroke: #000000; stroke-opacity: 0.7; stroke-width: 0.1"/>
    </defs>
    <g clip-path="url(#pe6e2046c87)">
     <use xlink:href="#m5d468a0186" x="64.487544" y="37.006901" style="fill: #3978a0; fill-opacity: 0.7; stroke: #000000; stroke-opacity: 0.7; stroke-width: 0.1"/>
    </g>
   </g>
   <g id="PathCollection_25">
    <defs>
     <path id="mdbfb3aca0b" d="M 0 1.224745 
C 0.324806 1.224745 0.636353 1.095698 0.866025 0.866025 
C 1.095698 0.636353 1.224745 0.324806 1.224745 0 
C 1.224745 -0.324806 1.095698 -0.636353 0.866025 -0.866025 
C 0.636353 -1.095698 0.324806 -1.224745 0 -1.224745 
C -0.324806 -1.224745 -0.636353 -1.095698 -0.866025 -0.866025 
C -1.095698 -0.636353 -1.224745 -0.324806 -1.224745 0 
C -1.224745 0.324806 -1.095698 0.636353 -0.866025 0.866025 
C -0.636353 1.095698 -0.324806 1.224745 0 1.224745 
z
" style="stroke: #000000; stroke-opacity: 0.7; stroke-width: 0.1"/>
    </defs>
    <g clip-path="url(#pe6e2046c87)">
     <use xlink:href="#mdbfb3aca0b" x="60.027318" y="34.282562" style="fill: #2077b3; fill-opacity: 0.7; stroke: #000000; stroke-opacity: 0.7; stroke-width: 0.1"/>
    </g>
   </g>
   <g id="PathCollection_26">
    <g clip-path="url(#pe6e2046c87)">
     <use xlink:href="#mb5baaa1209" x="48.571066" y="41.570225" style="fill: #fb7f11; fill-opacity: 0.7; stroke: #000000; stroke-opacity: 0.7; stroke-width: 0.1"/>
    </g>
   </g>
   <g id="PathCollection_27">
    <defs>
     <path id="m938739d99d" d="M 0 1.224745 
C 0.324806 1.224745 0.636353 1.095698 0.866025 0.866025 
C 1.095698 0.636353 1.224745 0.324806 1.224745 0 
C 1.224745 -0.324806 1.095698 -0.636353 0.866025 -0.866025 
C 0.636353 -1.095698 0.324806 -1.224745 0 -1.224745 
C -0.324806 -1.224745 -0.636353 -1.095698 -0.866025 -0.866025 
C -1.095698 -0.636353 -1.224745 -0.324806 -1.224745 0 
C -1.224745 0.324806 -1.095698 0.636353 -0.866025 0.866025 
C -0.636353 1.095698 -0.324806 1.224745 0 1.224745 
z
" style="stroke: #000000; stroke-opacity: 0.7; stroke-width: 0.1"/>
    </defs>
    <g clip-path="url(#pe6e2046c87)">
     <use xlink:href="#m938739d99d" x="52.690365" y="38.080988" style="fill: #e97e1e; fill-opacity: 0.7; stroke: #000000; stroke-opacity: 0.7; stroke-width: 0.1"/>
    </g>
   </g>
   <g id="PathCollection_28">
    <defs>
     <path id="m0024acb79d" d="M 0 1.224745 
C 0.324806 1.224745 0.636353 1.095698 0.866025 0.866025 
C 1.095698 0.636353 1.224745 0.324806 1.224745 0 
C 1.224745 -0.324806 1.095698 -0.636353 0.866025 -0.866025 
C 0.636353 -1.095698 0.324806 -1.224745 0 -1.224745 
C -0.324806 -1.224745 -0.636353 -1.095698 -0.866025 -0.866025 
C -1.095698 -0.636353 -1.224745 -0.324806 -1.224745 0 
C -1.224745 0.324806 -1.095698 0.636353 -0.866025 0.866025 
C -0.636353 1.095698 -0.324806 1.224745 0 1.224745 
z
" style="stroke: #000000; stroke-opacity: 0.7; stroke-width: 0.1"/>
    </defs>
    <g clip-path="url(#pe6e2046c87)">
     <use xlink:href="#m0024acb79d" x="46.154384" y="38.706749" style="fill: #e67e20; fill-opacity: 0.7; stroke: #000000; stroke-opacity: 0.7; stroke-width: 0.1"/>
    </g>
   </g>
   <g id="PathCollection_29">
    <defs>
     <path id="mcd56020cab" d="M 0 1.224745 
C 0.324806 1.224745 0.636353 1.095698 0.866025 0.866025 
C 1.095698 0.636353 1.224745 0.324806 1.224745 0 
C 1.224745 -0.324806 1.095698 -0.636353 0.866025 -0.866025 
C 0.636353 -1.095698 0.324806 -1.224745 0 -1.224745 
C -0.324806 -1.224745 -0.636353 -1.095698 -0.866025 -0.866025 
C -1.095698 -0.636353 -1.224745 -0.324806 -1.224745 0 
C -1.224745 0.324806 -1.095698 0.636353 -0.866025 0.866025 
C -0.636353 1.095698 -0.324806 1.224745 0 1.224745 
z
" style="stroke: #000000; stroke-opacity: 0.7; stroke-width: 0.1"/>
    </defs>
    <g clip-path="url(#pe6e2046c87)">
     <use xlink:href="#mcd56020cab" x="52.106643" y="38.649776" style="fill: #f27f18; fill-opacity: 0.7; stroke: #000000; stroke-opacity: 0.7; stroke-width: 0.1"/>
    </g>
   </g>
   <g id="PathCollection_30">
    <defs>
     <path id="ma8533f8e30" d="M 0 1.224745 
C 0.324806 1.224745 0.636353 1.095698 0.866025 0.866025 
C 1.095698 0.636353 1.224745 0.324806 1.224745 0 
C 1.224745 -0.324806 1.095698 -0.636353 0.866025 -0.866025 
C 0.636353 -1.095698 0.324806 -1.224745 0 -1.224745 
C -0.324806 -1.224745 -0.636353 -1.095698 -0.866025 -0.866025 
C -1.095698 -0.636353 -1.224745 -0.324806 -1.224745 0 
C -1.224745 0.324806 -1.095698 0.636353 -0.866025 0.866025 
C -0.636353 1.095698 -0.324806 1.224745 0 1.224745 
z
" style="stroke: #000000; stroke-opacity: 0.7; stroke-width: 0.1"/>
    </defs>
    <g clip-path="url(#pe6e2046c87)">
     <use xlink:href="#ma8533f8e30" x="58.012421" y="40.195461" style="fill: #8b7b64; fill-opacity: 0.7; stroke: #000000; stroke-opacity: 0.7; stroke-width: 0.1"/>
    </g>
   </g>
   <g id="PathCollection_31">
    <defs>
     <path id="mbc8bacac1b" d="M 0 1.224745 
C 0.324806 1.224745 0.636353 1.095698 0.866025 0.866025 
C 1.095698 0.636353 1.224745 0.324806 1.224745 0 
C 1.224745 -0.324806 1.095698 -0.636353 0.866025 -0.866025 
C 0.636353 -1.095698 0.324806 -1.224745 0 -1.224745 
C -0.324806 -1.224745 -0.636353 -1.095698 -0.866025 -0.866025 
C -1.095698 -0.636353 -1.224745 -0.324806 -1.224745 0 
C -1.224745 0.324806 -1.095698 0.636353 -0.866025 0.866025 
C -0.636353 1.095698 -0.324806 1.224745 0 1.224745 
z
" style="stroke: #000000; stroke-opacity: 0.7; stroke-width: 0.1"/>
    </defs>
    <g clip-path="url(#pe6e2046c87)">
     <use xlink:href="#mbc8bacac1b" x="60.103543" y="40.788062" style="fill: #787a72; fill-opacity: 0.7; stroke: #000000; stroke-opacity: 0.7; stroke-width: 0.1"/>
    </g>
   </g>
   <g id="PathCollection_32">
    <g clip-path="url(#pe6e2046c87)">
     <use xlink:href="#m233e014cf8" x="55.588344" y="37.36388" style="fill: #1f77b4; fill-opacity: 0.7; stroke: #000000; stroke-opacity: 0.7; stroke-width: 0.1"/>
    </g>
   </g>
   <g id="PathCollection_33">
    <g clip-path="url(#pe6e2046c87)">
     <use xlink:href="#mdbfb3aca0b" x="60.899902" y="33.751714" style="fill: #2077b3; fill-opacity: 0.7; stroke: #000000; stroke-opacity: 0.7; stroke-width: 0.1"/>
    </g>
   </g>
   <g id="PathCollection_34">
    <defs>
     <path id="m44ebb4fbbe" d="M 0 1.224745 
C 0.324806 1.224745 0.636353 1.095698 0.866025 0.866025 
C 1.095698 0.636353 1.224745 0.324806 1.224745 0 
C 1.224745 -0.324806 1.095698 -0.636353 0.866025 -0.866025 
C 0.636353 -1.095698 0.324806 -1.224745 0 -1.224745 
C -0.324806 -1.224745 -0.636353 -1.095698 -0.866025 -0.866025 
C -1.095698 -0.636353 -1.224745 -0.324806 -1.224745 0 
C -1.224745 0.324806 -1.095698 0.636353 -0.866025 0.866025 
C -0.636353 1.095698 -0.324806 1.224745 0 1.224745 
z
" style="stroke: #000000; stroke-opacity: 0.7; stroke-width: 0.1"/>
    </defs>
    <g clip-path="url(#pe6e2046c87)">
     <use xlink:href="#m44ebb4fbbe" x="66.990416" y="34.164319" style="fill: #2c77aa; fill-opacity: 0.7; stroke: #000000; stroke-opacity: 0.7; stroke-width: 0.1"/>
    </g>
   </g>
   <g id="PathCollection_35">
    <defs>
     <path id="mfa4cd20a46" d="M 0 1.224745 
C 0.324806 1.224745 0.636353 1.095698 0.866025 0.866025 
C 1.095698 0.636353 1.224745 0.324806 1.224745 0 
C 1.224745 -0.324806 1.095698 -0.636353 0.866025 -0.866025 
C 0.636353 -1.095698 0.324806 -1.224745 0 -1.224745 
C -0.324806 -1.224745 -0.636353 -1.095698 -0.866025 -0.866025 
C -1.095698 -0.636353 -1.224745 -0.324806 -1.224745 0 
C -1.224745 0.324806 -1.095698 0.636353 -0.866025 0.866025 
C -0.636353 1.095698 -0.324806 1.224745 0 1.224745 
z
" style="stroke: #000000; stroke-opacity: 0.7; stroke-width: 0.1"/>
    </defs>
    <g clip-path="url(#pe6e2046c87)">
     <use xlink:href="#mfa4cd20a46" x="60.883565" y="37.744511" style="fill: #40789b; fill-opacity: 0.7; stroke: #000000; stroke-opacity: 0.7; stroke-width: 0.1"/>
    </g>
   </g>
   <g id="PathCollection_36">
    <g clip-path="url(#pe6e2046c87)">
     <use xlink:href="#mb5baaa1209" x="54.835184" y="38.562734" style="fill: #fb7f11; fill-opacity: 0.7; stroke: #000000; stroke-opacity: 0.7; stroke-width: 0.1"/>
    </g>
   </g>
   <g id="PathCollection_37">
    <defs>
     <path id="mb274b67004" d="M 0 1.224745 
C 0.324806 1.224745 0.636353 1.095698 0.866025 0.866025 
C 1.095698 0.636353 1.224745 0.324806 1.224745 0 
C 1.224745 -0.324806 1.095698 -0.636353 0.866025 -0.866025 
C 0.636353 -1.095698 0.324806 -1.224745 0 -1.224745 
C -0.324806 -1.224745 -0.636353 -1.095698 -0.866025 -0.866025 
C -1.095698 -0.636353 -1.224745 -0.324806 -1.224745 0 
C -1.224745 0.324806 -1.095698 0.636353 -0.866025 0.866025 
C -0.636353 1.095698 -0.324806 1.224745 0 1.224745 
z
" style="stroke: #000000; stroke-opacity: 0.7; stroke-width: 0.1"/>
    </defs>
    <g clip-path="url(#pe6e2046c87)">
     <use xlink:href="#mb274b67004" x="54.548401" y="41.737951" style="fill: #ed7e1c; fill-opacity: 0.7; stroke: #000000; stroke-opacity: 0.7; stroke-width: 0.1"/>
    </g>
   </g>
   <g id="PathCollection_38">
    <defs>
     <path id="mf22faf9fbf" d="M 0 1.224745 
C 0.324806 1.224745 0.636353 1.095698 0.866025 0.866025 
C 1.095698 0.636353 1.224745 0.324806 1.224745 0 
C 1.224745 -0.324806 1.095698 -0.636353 0.866025 -0.866025 
C 0.636353 -1.095698 0.324806 -1.224745 0 -1.224745 
C -0.324806 -1.224745 -0.636353 -1.095698 -0.866025 -0.866025 
C -1.095698 -0.636353 -1.224745 -0.324806 -1.224745 0 
C -1.224745 0.324806 -1.095698 0.636353 -0.866025 0.866025 
C -0.636353 1.095698 -0.324806 1.224745 0 1.224745 
z
" style="stroke: #000000; stroke-opacity: 0.7; stroke-width: 0.1"/>
    </defs>
    <g clip-path="url(#pe6e2046c87)">
     <use xlink:href="#mf22faf9fbf" x="59.935911" y="40.493881" style="fill: #747a75; fill-opacity: 0.7; stroke: #000000; stroke-opacity: 0.7; stroke-width: 0.1"/>
    </g>
   </g>
   <g id="PathCollection_39">
    <defs>
     <path id="m301963ca04" d="M 0 1.224745 
C 0.324806 1.224745 0.636353 1.095698 0.866025 0.866025 
C 1.095698 0.636353 1.224745 0.324806 1.224745 0 
C 1.224745 -0.324806 1.095698 -0.636353 0.866025 -0.866025 
C 0.636353 -1.095698 0.324806 -1.224745 0 -1.224745 
C -0.324806 -1.224745 -0.636353 -1.095698 -0.866025 -0.866025 
C -1.095698 -0.636353 -1.224745 -0.324806 -1.224745 0 
C -1.224745 0.324806 -1.095698 0.636353 -0.866025 0.866025 
C -0.636353 1.095698 -0.324806 1.224745 0 1.224745 
z
" style="stroke: #000000; stroke-opacity: 0.7; stroke-width: 0.1"/>
    </defs>
    <g clip-path="url(#pe6e2046c87)">
     <use xlink:href="#m301963ca04" x="48.216072" y="39.525391" style="fill: #f07e19; fill-opacity: 0.7; stroke: #000000; stroke-opacity: 0.7; stroke-width: 0.1"/>
    </g>
   </g>
   <g id="PathCollection_40">
    <defs>
     <path id="md345ea299e" d="M 0 1.224745 
C 0.324806 1.224745 0.636353 1.095698 0.866025 0.866025 
C 1.095698 0.636353 1.224745 0.324806 1.224745 0 
C 1.224745 -0.324806 1.095698 -0.636353 0.866025 -0.866025 
C 0.636353 -1.095698 0.324806 -1.224745 0 -1.224745 
C -0.324806 -1.224745 -0.636353 -1.095698 -0.866025 -0.866025 
C -1.095698 -0.636353 -1.224745 -0.324806 -1.224745 0 
C -1.224745 0.324806 -1.095698 0.636353 -0.866025 0.866025 
C -0.636353 1.095698 -0.324806 1.224745 0 1.224745 
z
" style="stroke: #000000; stroke-opacity: 0.7; stroke-width: 0.1"/>
    </defs>
    <g clip-path="url(#pe6e2046c87)">
     <use xlink:href="#md345ea299e" x="64.512999" y="36.848186" style="fill: #3878a1; fill-opacity: 0.7; stroke: #000000; stroke-opacity: 0.7; stroke-width: 0.1"/>
    </g>
   </g>
   <g id="PathCollection_41">
    <defs>
     <path id="m50f3a758ae" d="M 0 1.224745 
C 0.324806 1.224745 0.636353 1.095698 0.866025 0.866025 
C 1.095698 0.636353 1.224745 0.324806 1.224745 0 
C 1.224745 -0.324806 1.095698 -0.636353 0.866025 -0.866025 
C 0.636353 -1.095698 0.324806 -1.224745 0 -1.224745 
C -0.324806 -1.224745 -0.636353 -1.095698 -0.866025 -0.866025 
C -1.095698 -0.636353 -1.224745 -0.324806 -1.224745 0 
C -1.224745 0.324806 -1.095698 0.636353 -0.866025 0.866025 
C -0.636353 1.095698 -0.324806 1.224745 0 1.224745 
z
" style="stroke: #000000; stroke-opacity: 0.7; stroke-width: 0.1"/>
    </defs>
    <g clip-path="url(#pe6e2046c87)">
     <use xlink:href="#m50f3a758ae" x="46.484437" y="41.19908" style="fill: #f67f15; fill-opacity: 0.7; stroke: #000000; stroke-opacity: 0.7; stroke-width: 0.1"/>
    </g>
   </g>
   <g id="PathCollection_42">
    <g clip-path="url(#pe6e2046c87)">
     <use xlink:href="#m233e014cf8" x="56.961344" y="35.884367" style="fill: #1f77b4; fill-opacity: 0.7; stroke: #000000; stroke-opacity: 0.7; stroke-width: 0.1"/>
    </g>
   </g>
   <g id="PathCollection_43">
    <g clip-path="url(#pe6e2046c87)">
     <use xlink:href="#m233e014cf8" x="59.66391" y="32.809478" style="fill: #1f77b4; fill-opacity: 0.7; stroke: #000000; stroke-opacity: 0.7; stroke-width: 0.1"/>
    </g>
   </g>
   <g id="PathCollection_44">
    <defs>
     <path id="m3aac362333" d="M 0 1.224745 
C 0.324806 1.224745 0.636353 1.095698 0.866025 0.866025 
C 1.095698 0.636353 1.224745 0.324806 1.224745 0 
C 1.224745 -0.324806 1.095698 -0.636353 0.866025 -0.866025 
C 0.636353 -1.095698 0.324806 -1.224745 0 -1.224745 
C -0.324806 -1.224745 -0.636353 -1.095698 -0.866025 -0.866025 
C -1.095698 -0.636353 -1.224745 -0.324806 -1.224745 0 
C -1.224745 0.324806 -1.095698 0.636353 -0.866025 0.866025 
C -0.636353 1.095698 -0.324806 1.224745 0 1.224745 
z
" style="stroke: #000000; stroke-opacity: 0.7; stroke-width: 0.1"/>
    </defs>
    <g clip-path="url(#pe6e2046c87)">
     <use xlink:href="#m3aac362333" x="56.299649" y="35.6234" style="fill: #2577af; fill-opacity: 0.7; stroke: #000000; stroke-opacity: 0.7; stroke-width: 0.1"/>
    </g>
   </g>
   <g id="PathCollection_45">
    <g clip-path="url(#pe6e2046c87)">
     <use xlink:href="#m3aac362333" x="58.978168" y="36.011827" style="fill: #2577af; fill-opacity: 0.7; stroke: #000000; stroke-opacity: 0.7; stroke-width: 0.1"/>
    </g>
   </g>
   <g id="PathCollection_46">
    <defs>
     <path id="m4aa2767cb3" d="M 0 1.224745 
C 0.324806 1.224745 0.636353 1.095698 0.866025 0.866025 
C 1.095698 0.636353 1.224745 0.324806 1.224745 0 
C 1.224745 -0.324806 1.095698 -0.636353 0.866025 -0.866025 
C 0.636353 -1.095698 0.324806 -1.224745 0 -1.224745 
C -0.324806 -1.224745 -0.636353 -1.095698 -0.866025 -0.866025 
C -1.095698 -0.636353 -1.224745 -0.324806 -1.224745 0 
C -1.224745 0.324806 -1.095698 0.636353 -0.866025 0.866025 
C -0.636353 1.095698 -0.324806 1.224745 0 1.224745 
z
" style="stroke: #000000; stroke-opacity: 0.7; stroke-width: 0.1"/>
    </defs>
    <g clip-path="url(#pe6e2046c87)">
     <use xlink:href="#m4aa2767cb3" x="58.563182" y="39.589555" style="fill: #727a76; fill-opacity: 0.7; stroke: #000000; stroke-opacity: 0.7; stroke-width: 0.1"/>
    </g>
   </g>
   <g id="PathCollection_47">
    <g clip-path="url(#pe6e2046c87)">
     <use xlink:href="#m44ebb4fbbe" x="68.080186" y="33.954586" style="fill: #2c77aa; fill-opacity: 0.7; stroke: #000000; stroke-opacity: 0.7; stroke-width: 0.1"/>
    </g>
   </g>
   <g id="PathCollection_48">
    <defs>
     <path id="m976b8bbfc8" d="M 0 1.224745 
C 0.324806 1.224745 0.636353 1.095698 0.866025 0.866025 
C 1.095698 0.636353 1.224745 0.324806 1.224745 0 
C 1.224745 -0.324806 1.095698 -0.636353 0.866025 -0.866025 
C 0.636353 -1.095698 0.324806 -1.224745 0 -1.224745 
C -0.324806 -1.224745 -0.636353 -1.095698 -0.866025 -0.866025 
C -1.095698 -0.636353 -1.224745 -0.324806 -1.224745 0 
C -1.224745 0.324806 -1.095698 0.636353 -0.866025 0.866025 
C -0.636353 1.095698 -0.324806 1.224745 0 1.224745 
z
" style="stroke: #000000; stroke-opacity: 0.7; stroke-width: 0.1"/>
    </defs>
    <g clip-path="url(#pe6e2046c87)">
     <use xlink:href="#m976b8bbfc8" x="63.651819" y="34.38369" style="fill: #2877ad; fill-opacity: 0.7; stroke: #000000; stroke-opacity: 0.7; stroke-width: 0.1"/>
    </g>
   </g>
   <g id="PathCollection_49">
    <defs>
     <path id="m13e0c1234f" d="M 0 1.224745 
C 0.324806 1.224745 0.636353 1.095698 0.866025 0.866025 
C 1.095698 0.636353 1.224745 0.324806 1.224745 0 
C 1.224745 -0.324806 1.095698 -0.636353 0.866025 -0.866025 
C 0.636353 -1.095698 0.324806 -1.224745 0 -1.224745 
C -0.324806 -1.224745 -0.636353 -1.095698 -0.866025 -0.866025 
C -1.095698 -0.636353 -1.224745 -0.324806 -1.224745 0 
C -1.224745 0.324806 -1.095698 0.636353 -0.866025 0.866025 
C -0.636353 1.095698 -0.324806 1.224745 0 1.224745 
z
" style="stroke: #000000; stroke-opacity: 0.7; stroke-width: 0.1"/>
    </defs>
    <g clip-path="url(#pe6e2046c87)">
     <use xlink:href="#m13e0c1234f" x="52.222926" y="37.751406" style="fill: #e07e25; fill-opacity: 0.7; stroke: #000000; stroke-opacity: 0.7; stroke-width: 0.1"/>
    </g>
   </g>
   <g id="PathCollection_50">
    <defs>
     <path id="m30a29d3fd9" d="M 0 1.224745 
C 0.324806 1.224745 0.636353 1.095698 0.866025 0.866025 
C 1.095698 0.636353 1.224745 0.324806 1.224745 0 
C 1.224745 -0.324806 1.095698 -0.636353 0.866025 -0.866025 
C 0.636353 -1.095698 0.324806 -1.224745 0 -1.224745 
C -0.324806 -1.224745 -0.636353 -1.095698 -0.866025 -0.866025 
C -1.095698 -0.636353 -1.224745 -0.324806 -1.224745 0 
C -1.224745 0.324806 -1.095698 0.636353 -0.866025 0.866025 
C -0.636353 1.095698 -0.324806 1.224745 0 1.224745 
z
" style="stroke: #000000; stroke-opacity: 0.7; stroke-width: 0.1"/>
    </defs>
    <g clip-path="url(#pe6e2046c87)">
     <use xlink:href="#m30a29d3fd9" x="55.717833" y="40.113902" style="fill: #d17d30; fill-opacity: 0.7; stroke: #000000; stroke-opacity: 0.7; stroke-width: 0.1"/>
    </g>
   </g>
   <g id="PathCollection_51">
    <defs>
     <path id="m04eb075c8e" d="M 0 1.224745 
C 0.324806 1.224745 0.636353 1.095698 0.866025 0.866025 
C 1.095698 0.636353 1.224745 0.324806 1.224745 0 
C 1.224745 -0.324806 1.095698 -0.636353 0.866025 -0.866025 
C 0.636353 -1.095698 0.324806 -1.224745 0 -1.224745 
C -0.324806 -1.224745 -0.636353 -1.095698 -0.866025 -0.866025 
C -1.095698 -0.636353 -1.224745 -0.324806 -1.224745 0 
C -1.224745 0.324806 -1.095698 0.636353 -0.866025 0.866025 
C -0.636353 1.095698 -0.324806 1.224745 0 1.224745 
z
" style="stroke: #000000; stroke-opacity: 0.7; stroke-width: 0.1"/>
    </defs>
    <g clip-path="url(#pe6e2046c87)">
     <use xlink:href="#m04eb075c8e" x="61.039929" y="36.242854" style="fill: #2e78a9; fill-opacity: 0.7; stroke: #000000; stroke-opacity: 0.7; stroke-width: 0.1"/>
    </g>
   </g>
   <g id="PathCollection_52">
    <g clip-path="url(#pe6e2046c87)">
     <use xlink:href="#mb5baaa1209" x="49.414245" y="41.156665" style="fill: #fb7f11; fill-opacity: 0.7; stroke: #000000; stroke-opacity: 0.7; stroke-width: 0.1"/>
    </g>
   </g>
   <g id="PathCollection_53">
    <g clip-path="url(#pe6e2046c87)">
     <use xlink:href="#m1d78327d8c" x="66.559442" y="33.79888" style="fill: #2a77ac; fill-opacity: 0.7; stroke: #000000; stroke-opacity: 0.7; stroke-width: 0.1"/>
    </g>
   </g>
   <g id="PathCollection_54">
    <defs>
     <path id="m2e75d2e6f9" d="M 0 1.224745 
C 0.324806 1.224745 0.636353 1.095698 0.866025 0.866025 
C 1.095698 0.636353 1.224745 0.324806 1.224745 0 
C 1.224745 -0.324806 1.095698 -0.636353 0.866025 -0.866025 
C 0.636353 -1.095698 0.324806 -1.224745 0 -1.224745 
C -0.324806 -1.224745 -0.636353 -1.095698 -0.866025 -0.866025 
C -1.095698 -0.636353 -1.224745 -0.324806 -1.224745 0 
C -1.224745 0.324806 -1.095698 0.636353 -0.866025 0.866025 
C -0.636353 1.095698 -0.324806 1.224745 0 1.224745 
z
" style="stroke: #000000; stroke-opacity: 0.7; stroke-width: 0.1"/>
    </defs>
    <g clip-path="url(#pe6e2046c87)">
     <use xlink:href="#m2e75d2e6f9" x="39.365192" y="37.372663" style="fill: #dd7e27; fill-opacity: 0.7; stroke: #000000; stroke-opacity: 0.7; stroke-width: 0.1"/>
    </g>
   </g>
   <g id="PathCollection_55">
    <defs>
     <path id="m2d62441d53" d="M 0 1.224745 
C 0.324806 1.224745 0.636353 1.095698 0.866025 0.866025 
C 1.095698 0.636353 1.224745 0.324806 1.224745 0 
C 1.224745 -0.324806 1.095698 -0.636353 0.866025 -0.866025 
C 0.636353 -1.095698 0.324806 -1.224745 0 -1.224745 
C -0.324806 -1.224745 -0.636353 -1.095698 -0.866025 -0.866025 
C -1.095698 -0.636353 -1.224745 -0.324806 -1.224745 0 
C -1.224745 0.324806 -1.095698 0.636353 -0.866025 0.866025 
C -0.636353 1.095698 -0.324806 1.224745 0 1.224745 
z
" style="stroke: #000000; stroke-opacity: 0.7; stroke-width: 0.1"/>
    </defs>
    <g clip-path="url(#pe6e2046c87)">
     <use xlink:href="#m2d62441d53" x="57.943252" y="40.688216" style="fill: #967b5b; fill-opacity: 0.7; stroke: #000000; stroke-opacity: 0.7; stroke-width: 0.1"/>
    </g>
   </g>
   <g id="PathCollection_56">
    <g clip-path="url(#pe6e2046c87)">
     <use xlink:href="#m1d78327d8c" x="66.386245" y="33.781794" style="fill: #2a77ac; fill-opacity: 0.7; stroke: #000000; stroke-opacity: 0.7; stroke-width: 0.1"/>
    </g>
   </g>
   <g id="PathCollection_57">
    <defs>
     <path id="m64c8b3fa69" d="M 0 1.224745 
C 0.324806 1.224745 0.636353 1.095698 0.866025 0.866025 
C 1.095698 0.636353 1.224745 0.324806 1.224745 0 
C 1.224745 -0.324806 1.095698 -0.636353 0.866025 -0.866025 
C 0.636353 -1.095698 0.324806 -1.224745 0 -1.224745 
C -0.324806 -1.224745 -0.636353 -1.095698 -0.866025 -0.866025 
C -1.095698 -0.636353 -1.224745 -0.324806 -1.224745 0 
C -1.224745 0.324806 -1.095698 0.636353 -0.866025 0.866025 
C -0.636353 1.095698 -0.324806 1.224745 0 1.224745 
z
" style="stroke: #000000; stroke-opacity: 0.7; stroke-width: 0.1"/>
    </defs>
    <g clip-path="url(#pe6e2046c87)">
     <use xlink:href="#m64c8b3fa69" x="55.772695" y="35.686607" style="fill: #3178a7; fill-opacity: 0.7; stroke: #000000; stroke-opacity: 0.7; stroke-width: 0.1"/>
    </g>
   </g>
   <g id="PathCollection_58">
    <defs>
     <path id="md2779acb60" d="M 0 1.224745 
C 0.324806 1.224745 0.636353 1.095698 0.866025 0.866025 
C 1.095698 0.636353 1.224745 0.324806 1.224745 0 
C 1.224745 -0.324806 1.095698 -0.636353 0.866025 -0.866025 
C 0.636353 -1.095698 0.324806 -1.224745 0 -1.224745 
C -0.324806 -1.224745 -0.636353 -1.095698 -0.866025 -0.866025 
C -1.095698 -0.636353 -1.224745 -0.324806 -1.224745 0 
C -1.224745 0.324806 -1.095698 0.636353 -0.866025 0.866025 
C -0.636353 1.095698 -0.324806 1.224745 0 1.224745 
z
" style="stroke: #000000; stroke-opacity: 0.7; stroke-width: 0.1"/>
    </defs>
    <g clip-path="url(#pe6e2046c87)">
     <use xlink:href="#md2779acb60" x="53.867431" y="39.727061" style="fill: #fe7f0f; fill-opacity: 0.7; stroke: #000000; stroke-opacity: 0.7; stroke-width: 0.1"/>
    </g>
   </g>
   <g id="PathCollection_59">
    <g clip-path="url(#pe6e2046c87)">
     <use xlink:href="#m0024acb79d" x="46.107829" y="38.652218" style="fill: #e67e20; fill-opacity: 0.7; stroke: #000000; stroke-opacity: 0.7; stroke-width: 0.1"/>
    </g>
   </g>
   <g id="PathCollection_60">
    <defs>
     <path id="m3b11f8213a" d="M 0 1.224745 
C 0.324806 1.224745 0.636353 1.095698 0.866025 0.866025 
C 1.095698 0.636353 1.224745 0.324806 1.224745 0 
C 1.224745 -0.324806 1.095698 -0.636353 0.866025 -0.866025 
C 0.636353 -1.095698 0.324806 -1.224745 0 -1.224745 
C -0.324806 -1.224745 -0.636353 -1.095698 -0.866025 -0.866025 
C -1.095698 -0.636353 -1.224745 -0.324806 -1.224745 0 
C -1.224745 0.324806 -1.095698 0.636353 -0.866025 0.866025 
C -0.636353 1.095698 -0.324806 1.224745 0 1.224745 
z
" style="stroke: #000000; stroke-opacity: 0.7; stroke-width: 0.1"/>
    </defs>
    <g clip-path="url(#pe6e2046c87)">
     <use xlink:href="#m3b11f8213a" x="54.741983" y="44.169824" style="fill: #e67e21; fill-opacity: 0.7; stroke: #000000; stroke-opacity: 0.7; stroke-width: 0.1"/>
    </g>
   </g>
   <g id="patch_3">
    <path d="M 24.841406 68.184 
L 24.841406 7.2 
" style="fill: none; stroke: #000000; stroke-width: 0.5; stroke-linejoin: miter; stroke-linecap: square"/>
   </g>
   <g id="patch_4">
    <path d="M 24.841406 68.184 
L 85.825406 68.184 
" style="fill: none; stroke: #000000; stroke-width: 0.5; stroke-linejoin: miter; stroke-linecap: square"/>
   </g>
   <g id="PathCollection_61">
    <defs>
     <path id="m1eeb521754" d="M 0 -1.581139 
L -1.581139 1.581139 
L 1.581139 1.581139 
z
" style="stroke: #000000; stroke-width: 0.4"/>
    </defs>
    <g>
     <use xlink:href="#m1eeb521754" x="57.483311" y="37.999803" style="fill: #ffffff; stroke: #000000; stroke-width: 0.4"/>
    </g>
   </g>
   <g id="legend_1">
    <g id="PathCollection_62">
     <g>
      <use xlink:href="#m1eeb521754" x="34.341406" y="14.186719" style="fill: #ffffff; stroke: #000000; stroke-width: 0.4"/>
     </g>
    </g>
    <g id="text_9">
     <!-- Median -->
     <g transform="translate(43.341406 15.499219) scale(0.05 -0.05)">
      <defs>
       <path id="DejaVuSans-4d" d="M 628 4666 
L 1569 4666 
L 2759 1491 
L 3956 4666 
L 4897 4666 
L 4897 0 
L 4281 0 
L 4281 4097 
L 3078 897 
L 2444 897 
L 1241 4097 
L 1241 0 
L 628 0 
L 628 4666 
z
" transform="scale(0.015625)"/>
       <path id="DejaVuSans-65" d="M 3597 1894 
L 3597 1613 
L 953 1613 
Q 991 1019 1311 708 
Q 1631 397 2203 397 
Q 2534 397 2845 478 
Q 3156 559 3463 722 
L 3463 178 
Q 3153 47 2828 -22 
Q 2503 -91 2169 -91 
Q 1331 -91 842 396 
Q 353 884 353 1716 
Q 353 2575 817 3079 
Q 1281 3584 2069 3584 
Q 2775 3584 3186 3129 
Q 3597 2675 3597 1894 
z
M 3022 2063 
Q 3016 2534 2758 2815 
Q 2500 3097 2075 3097 
Q 1594 3097 1305 2825 
Q 1016 2553 972 2059 
L 3022 2063 
z
" transform="scale(0.015625)"/>
       <path id="DejaVuSans-64" d="M 2906 2969 
L 2906 4863 
L 3481 4863 
L 3481 0 
L 2906 0 
L 2906 525 
Q 2725 213 2448 61 
Q 2172 -91 1784 -91 
Q 1150 -91 751 415 
Q 353 922 353 1747 
Q 353 2572 751 3078 
Q 1150 3584 1784 3584 
Q 2172 3584 2448 3432 
Q 2725 3281 2906 2969 
z
M 947 1747 
Q 947 1113 1208 752 
Q 1469 391 1925 391 
Q 2381 391 2643 752 
Q 2906 1113 2906 1747 
Q 2906 2381 2643 2742 
Q 2381 3103 1925 3103 
Q 1469 3103 1208 2742 
Q 947 2381 947 1747 
z
" transform="scale(0.015625)"/>
       <path id="DejaVuSans-69" d="M 603 3500 
L 1178 3500 
L 1178 0 
L 603 0 
L 603 3500 
z
M 603 4863 
L 1178 4863 
L 1178 4134 
L 603 4134 
L 603 4863 
z
" transform="scale(0.015625)"/>
       <path id="DejaVuSans-61" d="M 2194 1759 
Q 1497 1759 1228 1600 
Q 959 1441 959 1056 
Q 959 750 1161 570 
Q 1363 391 1709 391 
Q 2188 391 2477 730 
Q 2766 1069 2766 1631 
L 2766 1759 
L 2194 1759 
z
M 3341 1997 
L 3341 0 
L 2766 0 
L 2766 531 
Q 2569 213 2275 61 
Q 1981 -91 1556 -91 
Q 1019 -91 701 211 
Q 384 513 384 1019 
Q 384 1609 779 1909 
Q 1175 2209 1959 2209 
L 2766 2209 
L 2766 2266 
Q 2766 2663 2505 2880 
Q 2244 3097 1772 3097 
Q 1472 3097 1187 3025 
Q 903 2953 641 2809 
L 641 3341 
Q 956 3463 1253 3523 
Q 1550 3584 1831 3584 
Q 2591 3584 2966 3190 
Q 3341 2797 3341 1997 
z
" transform="scale(0.015625)"/>
       <path id="DejaVuSans-6e" d="M 3513 2113 
L 3513 0 
L 2938 0 
L 2938 2094 
Q 2938 2591 2744 2837 
Q 2550 3084 2163 3084 
Q 1697 3084 1428 2787 
Q 1159 2491 1159 1978 
L 1159 0 
L 581 0 
L 581 3500 
L 1159 3500 
L 1159 2956 
Q 1366 3272 1645 3428 
Q 1925 3584 2291 3584 
Q 2894 3584 3203 3211 
Q 3513 2838 3513 2113 
z
" transform="scale(0.015625)"/>
      </defs>
      <use xlink:href="#DejaVuSans-4d"/>
      <use xlink:href="#DejaVuSans-65" x="86.279297"/>
      <use xlink:href="#DejaVuSans-64" x="147.802734"/>
      <use xlink:href="#DejaVuSans-69" x="211.279297"/>
      <use xlink:href="#DejaVuSans-61" x="239.0625"/>
      <use xlink:href="#DejaVuSans-6e" x="300.341797"/>
     </g>
    </g>
   </g>
  </g>
 </g>
 <defs>
  <clipPath id="pe6e2046c87">
   <rect x="24.841406" y="7.2" width="60.984" height="60.984"/>
  </clipPath>
 </defs>
</svg>
