<?xml version="1.0" encoding="utf-8" standalone="no"?>
<!DOCTYPE svg PUBLIC "-//W3C//DTD SVG 1.1//EN"
  "http://www.w3.org/Graphics/SVG/1.1/DTD/svg11.dtd">
<svg xmlns:xlink="http://www.w3.org/1999/xlink" width="208.818437pt" height="172.885937pt" viewBox="0 0 208.818437 172.885937" xmlns="http://www.w3.org/2000/svg" version="1.1">
 <metadata>
  <rdf:RDF xmlns:dc="http://purl.org/dc/elements/1.1/" xmlns:cc="http://creativecommons.org/ns#" xmlns:rdf="http://www.w3.org/1999/02/22-rdf-syntax-ns#">
   <cc:Work>
    <dc:type rdf:resource="http://purl.org/dc/dcmitype/StillImage"/>
    <dc:date>2026-04-22T02:57:32.148399</dc:date>
    <dc:format>image/svg+xml</dc:format>
    <dc:creator>
     <cc:Agent>
      <dc:title>Matplotlib v3.8.2, https://matplotlib.org/</dc:title>
     </cc:Agent>
    </dc:creator>
   </cc:Work>
  </rdf:RDF>
 </metadata>
 <defs>
  <style type="text/css">*{stroke-linejoin: round; stroke-linecap: butt}</style>
 </defs>
 <g id="figure_1">
  <g id="patch_1">
   <path d="M 0 172.885937 
L 208.818437 172.885937 
L 208.818437 0 
L 0 0 
z
" style="fill: #ffffff"/>
  </g>
  <g id="axes_1">
   <g id="patch_2">
    <path d="M 30.458438 145.54 
L 201.618437 145.54 
L 201.618437 7.2 
L 30.458438 7.2 
z
" style="fill: #ffffff"/>
   </g>
   <g id="matplotlib.axis_1">
    <g id="xtick_1">
     <g id="line2d_1">
      <defs>
       <path id="m1c6822bd63" d="M 0 0 
L 0 2 
" style="stroke: #000000; stroke-width: 0.5"/>
      </defs>
      <g>
       <use xlink:href="#m1c6822bd63" x="38.236421" y="145.54" style="stroke: #000000; stroke-width: 0.5"/>
      </g>
     </g>
     <g id="text_1">
      <!-- 0.0 -->
      <g transform="translate(34.26064 154.839219) scale(0.05 -0.05)">
       <defs>
        <path id="DejaVuSans-30" d="M 2034 4250 
Q 1547 4250 1301 3770 
Q 1056 3291 1056 2328 
Q 1056 1369 1301 889 
Q 1547 409 2034 409 
Q 2525 409 2770 889 
Q 3016 1369 3016 2328 
Q 3016 3291 2770 3770 
Q 2525 4250 2034 4250 
z
M 2034 4750 
Q 2819 4750 3233 4129 
Q 3647 3509 3647 2328 
Q 3647 1150 3233 529 
Q 2819 -91 2034 -91 
Q 1250 -91 836 529 
Q 422 1150 422 2328 
Q 422 3509 836 4129 
Q 1250 4750 2034 4750 
z
" transform="scale(0.015625)"/>
        <path id="DejaVuSans-2e" d="M 684 794 
L 1344 794 
L 1344 0 
L 684 0 
L 684 794 
z
" transform="scale(0.015625)"/>
       </defs>
       <use xlink:href="#DejaVuSans-30"/>
       <use xlink:href="#DejaVuSans-2e" x="63.623047"/>
       <use xlink:href="#DejaVuSans-30" x="95.410156"/>
      </g>
     </g>
    </g>
    <g id="xtick_2">
     <g id="line2d_2">
      <g>
       <use xlink:href="#m1c6822bd63" x="69.356824" y="145.54" style="stroke: #000000; stroke-width: 0.5"/>
      </g>
     </g>
     <g id="text_2">
      <!-- 0.2 -->
      <g transform="translate(65.381043 154.839219) scale(0.05 -0.05)">
       <defs>
        <path id="DejaVuSans-32" d="M 1228 531 
L 3431 531 
L 3431 0 
L 469 0 
L 469 531 
Q 828 903 1448 1529 
Q 2069 2156 2228 2338 
Q 2531 2678 2651 2914 
Q 2772 3150 2772 3378 
Q 2772 3750 2511 3984 
Q 2250 4219 1831 4219 
Q 1534 4219 1204 4116 
Q 875 4013 500 3803 
L 500 4441 
Q 881 4594 1212 4672 
Q 1544 4750 1819 4750 
Q 2544 4750 2975 4387 
Q 3406 4025 3406 3419 
Q 3406 3131 3298 2873 
Q 3191 2616 2906 2266 
Q 2828 2175 2409 1742 
Q 1991 1309 1228 531 
z
" transform="scale(0.015625)"/>
       </defs>
       <use xlink:href="#DejaVuSans-30"/>
       <use xlink:href="#DejaVuSans-2e" x="63.623047"/>
       <use xlink:href="#DejaVuSans-32" x="95.410156"/>
      </g>
     </g>
    </g>
    <g id="xtick_3">
     <g id="line2d_3">
      <g>
       <use xlink:href="#m1c6822bd63" x="100.477228" y="145.54" style="stroke: #000000; stroke-width: 0.5"/>
      </g>
     </g>
     <g id="text_3">
      <!-- 0.4 -->
      <g transform="translate(96.501447 154.839219) scale(0.05 -0.05)">
       <defs>
        <path id="DejaVuSans-34" d="M 2419 4116 
L 825 1625 
L 2419 1625 
L 2419 4116 
z
M 2253 4666 
L 3047 4666 
L 3047 1625 
L 3713 1625 
L 3713 1100 
L 3047 1100 
L 3047 0 
L 2419 0 
L 2419 1100 
L 313 1100 
L 313 1709 
L 2253 4666 
z
" transform="scale(0.015625)"/>
       </defs>
       <use xlink:href="#DejaVuSans-30"/>
       <use xlink:href="#DejaVuSans-2e" x="63.623047"/>
       <use xlink:href="#DejaVuSans-34" x="95.410156"/>
      </g>
     </g>
    </g>
    <g id="xtick_4">
     <g id="line2d_4">
      <g>
       <use xlink:href="#m1c6822bd63" x="131.597631" y="145.54" style="stroke: #000000; stroke-width: 0.5"/>
      </g>
     </g>
     <g id="text_4">
      <!-- 0.6 -->
      <g transform="translate(127.62185 154.839219) scale(0.05 -0.05)">
       <defs>
        <path id="DejaVuSans-36" d="M 2113 2584 
Q 1688 2584 1439 2293 
Q 1191 2003 1191 1497 
Q 1191 994 1439 701 
Q 1688 409 2113 409 
Q 2538 409 2786 701 
Q 3034 994 3034 1497 
Q 3034 2003 2786 2293 
Q 2538 2584 2113 2584 
z
M 3366 4563 
L 3366 3988 
Q 3128 4100 2886 4159 
Q 2644 4219 2406 4219 
Q 1781 4219 1451 3797 
Q 1122 3375 1075 2522 
Q 1259 2794 1537 2939 
Q 1816 3084 2150 3084 
Q 2853 3084 3261 2657 
Q 3669 2231 3669 1497 
Q 3669 778 3244 343 
Q 2819 -91 2113 -91 
Q 1303 -91 875 529 
Q 447 1150 447 2328 
Q 447 3434 972 4092 
Q 1497 4750 2381 4750 
Q 2619 4750 2861 4703 
Q 3103 4656 3366 4563 
z
" transform="scale(0.015625)"/>
       </defs>
       <use xlink:href="#DejaVuSans-30"/>
       <use xlink:href="#DejaVuSans-2e" x="63.623047"/>
       <use xlink:href="#DejaVuSans-36" x="95.410156"/>
      </g>
     </g>
    </g>
    <g id="xtick_5">
     <g id="line2d_5">
      <g>
       <use xlink:href="#m1c6822bd63" x="162.718035" y="145.54" style="stroke: #000000; stroke-width: 0.5"/>
      </g>
     </g>
     <g id="text_5">
      <!-- 0.8 -->
      <g transform="translate(158.742254 154.839219) scale(0.05 -0.05)">
       <defs>
        <path id="DejaVuSans-38" d="M 2034 2216 
Q 1584 2216 1326 1975 
Q 1069 1734 1069 1313 
Q 1069 891 1326 650 
Q 1584 409 2034 409 
Q 2484 409 2743 651 
Q 3003 894 3003 1313 
Q 3003 1734 2745 1975 
Q 2488 2216 2034 2216 
z
M 1403 2484 
Q 997 2584 770 2862 
Q 544 3141 544 3541 
Q 544 4100 942 4425 
Q 1341 4750 2034 4750 
Q 2731 4750 3128 4425 
Q 3525 4100 3525 3541 
Q 3525 3141 3298 2862 
Q 3072 2584 2669 2484 
Q 3125 2378 3379 2068 
Q 3634 1759 3634 1313 
Q 3634 634 3220 271 
Q 2806 -91 2034 -91 
Q 1263 -91 848 271 
Q 434 634 434 1313 
Q 434 1759 690 2068 
Q 947 2378 1403 2484 
z
M 1172 3481 
Q 1172 3119 1398 2916 
Q 1625 2713 2034 2713 
Q 2441 2713 2670 2916 
Q 2900 3119 2900 3481 
Q 2900 3844 2670 4047 
Q 2441 4250 2034 4250 
Q 1625 4250 1398 4047 
Q 1172 3844 1172 3481 
z
" transform="scale(0.015625)"/>
       </defs>
       <use xlink:href="#DejaVuSans-30"/>
       <use xlink:href="#DejaVuSans-2e" x="63.623047"/>
       <use xlink:href="#DejaVuSans-38" x="95.410156"/>
      </g>
     </g>
    </g>
    <g id="xtick_6">
     <g id="line2d_6">
      <g>
       <use xlink:href="#m1c6822bd63" x="193.838438" y="145.54" style="stroke: #000000; stroke-width: 0.5"/>
      </g>
     </g>
     <g id="text_6">
      <!-- 1.0 -->
      <g transform="translate(189.862657 154.839219) scale(0.05 -0.05)">
       <defs>
        <path id="DejaVuSans-31" d="M 794 531 
L 1825 531 
L 1825 4091 
L 703 3866 
L 703 4441 
L 1819 4666 
L 2450 4666 
L 2450 531 
L 3481 531 
L 3481 0 
L 794 0 
L 794 531 
z
" transform="scale(0.015625)"/>
       </defs>
       <use xlink:href="#DejaVuSans-31"/>
       <use xlink:href="#DejaVuSans-2e" x="63.623047"/>
       <use xlink:href="#DejaVuSans-30" x="95.410156"/>
      </g>
     </g>
    </g>
    <g id="text_7">
     <!-- Information Capacity (bits) -->
     <g transform="translate(75.837031 164.438125) scale(0.06 -0.06)">
      <defs>
       <path id="DejaVuSans-49" d="M 628 4666 
L 1259 4666 
L 1259 0 
L 628 0 
L 628 4666 
z
" transform="scale(0.015625)"/>
       <path id="DejaVuSans-6e" d="M 3513 2113 
L 3513 0 
L 2938 0 
L 2938 2094 
Q 2938 2591 2744 2837 
Q 2550 3084 2163 3084 
Q 1697 3084 1428 2787 
Q 1159 2491 1159 1978 
L 1159 0 
L 581 0 
L 581 3500 
L 1159 3500 
L 1159 2956 
Q 1366 3272 1645 3428 
Q 1925 3584 2291 3584 
Q 2894 3584 3203 3211 
Q 3513 2838 3513 2113 
z
" transform="scale(0.015625)"/>
       <path id="DejaVuSans-66" d="M 2375 4863 
L 2375 4384 
L 1825 4384 
Q 1516 4384 1395 4259 
Q 1275 4134 1275 3809 
L 1275 3500 
L 2222 3500 
L 2222 3053 
L 1275 3053 
L 1275 0 
L 697 0 
L 697 3053 
L 147 3053 
L 147 3500 
L 697 3500 
L 697 3744 
Q 697 4328 969 4595 
Q 1241 4863 1831 4863 
L 2375 4863 
z
" transform="scale(0.015625)"/>
       <path id="DejaVuSans-6f" d="M 1959 3097 
Q 1497 3097 1228 2736 
Q 959 2375 959 1747 
Q 959 1119 1226 758 
Q 1494 397 1959 397 
Q 2419 397 2687 759 
Q 2956 1122 2956 1747 
Q 2956 2369 2687 2733 
Q 2419 3097 1959 3097 
z
M 1959 3584 
Q 2709 3584 3137 3096 
Q 3566 2609 3566 1747 
Q 3566 888 3137 398 
Q 2709 -91 1959 -91 
Q 1206 -91 779 398 
Q 353 888 353 1747 
Q 353 2609 779 3096 
Q 1206 3584 1959 3584 
z
" transform="scale(0.015625)"/>
       <path id="DejaVuSans-72" d="M 2631 2963 
Q 2534 3019 2420 3045 
Q 2306 3072 2169 3072 
Q 1681 3072 1420 2755 
Q 1159 2438 1159 1844 
L 1159 0 
L 581 0 
L 581 3500 
L 1159 3500 
L 1159 2956 
Q 1341 3275 1631 3429 
Q 1922 3584 2338 3584 
Q 2397 3584 2469 3576 
Q 2541 3569 2628 3553 
L 2631 2963 
z
" transform="scale(0.015625)"/>
       <path id="DejaVuSans-6d" d="M 3328 2828 
Q 3544 3216 3844 3400 
Q 4144 3584 4550 3584 
Q 5097 3584 5394 3201 
Q 5691 2819 5691 2113 
L 5691 0 
L 5113 0 
L 5113 2094 
Q 5113 2597 4934 2840 
Q 4756 3084 4391 3084 
Q 3944 3084 3684 2787 
Q 3425 2491 3425 1978 
L 3425 0 
L 2847 0 
L 2847 2094 
Q 2847 2600 2669 2842 
Q 2491 3084 2119 3084 
Q 1678 3084 1418 2786 
Q 1159 2488 1159 1978 
L 1159 0 
L 581 0 
L 581 3500 
L 1159 3500 
L 1159 2956 
Q 1356 3278 1631 3431 
Q 1906 3584 2284 3584 
Q 2666 3584 2933 3390 
Q 3200 3197 3328 2828 
z
" transform="scale(0.015625)"/>
       <path id="DejaVuSans-61" d="M 2194 1759 
Q 1497 1759 1228 1600 
Q 959 1441 959 1056 
Q 959 750 1161 570 
Q 1363 391 1709 391 
Q 2188 391 2477 730 
Q 2766 1069 2766 1631 
L 2766 1759 
L 2194 1759 
z
M 3341 1997 
L 3341 0 
L 2766 0 
L 2766 531 
Q 2569 213 2275 61 
Q 1981 -91 1556 -91 
Q 1019 -91 701 211 
Q 384 513 384 1019 
Q 384 1609 779 1909 
Q 1175 2209 1959 2209 
L 2766 2209 
L 2766 2266 
Q 2766 2663 2505 2880 
Q 2244 3097 1772 3097 
Q 1472 3097 1187 3025 
Q 903 2953 641 2809 
L 641 3341 
Q 956 3463 1253 3523 
Q 1550 3584 1831 3584 
Q 2591 3584 2966 3190 
Q 3341 2797 3341 1997 
z
" transform="scale(0.015625)"/>
       <path id="DejaVuSans-74" d="M 1172 4494 
L 1172 3500 
L 2356 3500 
L 2356 3053 
L 1172 3053 
L 1172 1153 
Q 1172 725 1289 603 
Q 1406 481 1766 481 
L 2356 481 
L 2356 0 
L 1766 0 
Q 1100 0 847 248 
Q 594 497 594 1153 
L 594 3053 
L 172 3053 
L 172 3500 
L 594 3500 
L 594 4494 
L 1172 4494 
z
" transform="scale(0.015625)"/>
       <path id="DejaVuSans-69" d="M 603 3500 
L 1178 3500 
L 1178 0 
L 603 0 
L 603 3500 
z
M 603 4863 
L 1178 4863 
L 1178 4134 
L 603 4134 
L 603 4863 
z
" transform="scale(0.015625)"/>
       <path id="DejaVuSans-20" transform="scale(0.015625)"/>
       <path id="DejaVuSans-43" d="M 4122 4306 
L 4122 3641 
Q 3803 3938 3442 4084 
Q 3081 4231 2675 4231 
Q 1875 4231 1450 3742 
Q 1025 3253 1025 2328 
Q 1025 1406 1450 917 
Q 1875 428 2675 428 
Q 3081 428 3442 575 
Q 3803 722 4122 1019 
L 4122 359 
Q 3791 134 3420 21 
Q 3050 -91 2638 -91 
Q 1578 -91 968 557 
Q 359 1206 359 2328 
Q 359 3453 968 4101 
Q 1578 4750 2638 4750 
Q 3056 4750 3426 4639 
Q 3797 4528 4122 4306 
z
" transform="scale(0.015625)"/>
       <path id="DejaVuSans-70" d="M 1159 525 
L 1159 -1331 
L 581 -1331 
L 581 3500 
L 1159 3500 
L 1159 2969 
Q 1341 3281 1617 3432 
Q 1894 3584 2278 3584 
Q 2916 3584 3314 3078 
Q 3713 2572 3713 1747 
Q 3713 922 3314 415 
Q 2916 -91 2278 -91 
Q 1894 -91 1617 61 
Q 1341 213 1159 525 
z
M 3116 1747 
Q 3116 2381 2855 2742 
Q 2594 3103 2138 3103 
Q 1681 3103 1420 2742 
Q 1159 2381 1159 1747 
Q 1159 1113 1420 752 
Q 1681 391 2138 391 
Q 2594 391 2855 752 
Q 3116 1113 3116 1747 
z
" transform="scale(0.015625)"/>
       <path id="DejaVuSans-63" d="M 3122 3366 
L 3122 2828 
Q 2878 2963 2633 3030 
Q 2388 3097 2138 3097 
Q 1578 3097 1268 2742 
Q 959 2388 959 1747 
Q 959 1106 1268 751 
Q 1578 397 2138 397 
Q 2388 397 2633 464 
Q 2878 531 3122 666 
L 3122 134 
Q 2881 22 2623 -34 
Q 2366 -91 2075 -91 
Q 1284 -91 818 406 
Q 353 903 353 1747 
Q 353 2603 823 3093 
Q 1294 3584 2113 3584 
Q 2378 3584 2631 3529 
Q 2884 3475 3122 3366 
z
" transform="scale(0.015625)"/>
       <path id="DejaVuSans-79" d="M 2059 -325 
Q 1816 -950 1584 -1140 
Q 1353 -1331 966 -1331 
L 506 -1331 
L 506 -850 
L 844 -850 
Q 1081 -850 1212 -737 
Q 1344 -625 1503 -206 
L 1606 56 
L 191 3500 
L 800 3500 
L 1894 763 
L 2988 3500 
L 3597 3500 
L 2059 -325 
z
" transform="scale(0.015625)"/>
       <path id="DejaVuSans-28" d="M 1984 4856 
Q 1566 4138 1362 3434 
Q 1159 2731 1159 2009 
Q 1159 1288 1364 580 
Q 1569 -128 1984 -844 
L 1484 -844 
Q 1016 -109 783 600 
Q 550 1309 550 2009 
Q 550 2706 781 3412 
Q 1013 4119 1484 4856 
L 1984 4856 
z
" transform="scale(0.015625)"/>
       <path id="DejaVuSans-62" d="M 3116 1747 
Q 3116 2381 2855 2742 
Q 2594 3103 2138 3103 
Q 1681 3103 1420 2742 
Q 1159 2381 1159 1747 
Q 1159 1113 1420 752 
Q 1681 391 2138 391 
Q 2594 391 2855 752 
Q 3116 1113 3116 1747 
z
M 1159 2969 
Q 1341 3281 1617 3432 
Q 1894 3584 2278 3584 
Q 2916 3584 3314 3078 
Q 3713 2572 3713 1747 
Q 3713 922 3314 415 
Q 2916 -91 2278 -91 
Q 1894 -91 1617 61 
Q 1341 213 1159 525 
L 1159 0 
L 581 0 
L 581 4863 
L 1159 4863 
L 1159 2969 
z
" transform="scale(0.015625)"/>
       <path id="DejaVuSans-73" d="M 2834 3397 
L 2834 2853 
Q 2591 2978 2328 3040 
Q 2066 3103 1784 3103 
Q 1356 3103 1142 2972 
Q 928 2841 928 2578 
Q 928 2378 1081 2264 
Q 1234 2150 1697 2047 
L 1894 2003 
Q 2506 1872 2764 1633 
Q 3022 1394 3022 966 
Q 3022 478 2636 193 
Q 2250 -91 1575 -91 
Q 1294 -91 989 -36 
Q 684 19 347 128 
L 347 722 
Q 666 556 975 473 
Q 1284 391 1588 391 
Q 1994 391 2212 530 
Q 2431 669 2431 922 
Q 2431 1156 2273 1281 
Q 2116 1406 1581 1522 
L 1381 1569 
Q 847 1681 609 1914 
Q 372 2147 372 2553 
Q 372 3047 722 3315 
Q 1072 3584 1716 3584 
Q 2034 3584 2315 3537 
Q 2597 3491 2834 3397 
z
" transform="scale(0.015625)"/>
       <path id="DejaVuSans-29" d="M 513 4856 
L 1013 4856 
Q 1481 4119 1714 3412 
Q 1947 2706 1947 2009 
Q 1947 1309 1714 600 
Q 1481 -109 1013 -844 
L 513 -844 
Q 928 -128 1133 580 
Q 1338 1288 1338 2009 
Q 1338 2731 1133 3434 
Q 928 4138 513 4856 
z
" transform="scale(0.015625)"/>
      </defs>
      <use xlink:href="#DejaVuSans-49"/>
      <use xlink:href="#DejaVuSans-6e" x="29.492188"/>
      <use xlink:href="#DejaVuSans-66" x="92.871094"/>
      <use xlink:href="#DejaVuSans-6f" x="128.076172"/>
      <use xlink:href="#DejaVuSans-72" x="189.257812"/>
      <use xlink:href="#DejaVuSans-6d" x="228.621094"/>
      <use xlink:href="#DejaVuSans-61" x="326.033203"/>
      <use xlink:href="#DejaVuSans-74" x="387.3125"/>
      <use xlink:href="#DejaVuSans-69" x="426.521484"/>
      <use xlink:href="#DejaVuSans-6f" x="454.304688"/>
      <use xlink:href="#DejaVuSans-6e" x="515.486328"/>
      <use xlink:href="#DejaVuSans-20" x="578.865234"/>
      <use xlink:href="#DejaVuSans-43" x="610.652344"/>
      <use xlink:href="#DejaVuSans-61" x="680.476562"/>
      <use xlink:href="#DejaVuSans-70" x="741.755859"/>
      <use xlink:href="#DejaVuSans-61" x="805.232422"/>
      <use xlink:href="#DejaVuSans-63" x="866.511719"/>
      <use xlink:href="#DejaVuSans-69" x="921.492188"/>
      <use xlink:href="#DejaVuSans-74" x="949.275391"/>
      <use xlink:href="#DejaVuSans-79" x="988.484375"/>
      <use xlink:href="#DejaVuSans-20" x="1047.664062"/>
      <use xlink:href="#DejaVuSans-28" x="1079.451172"/>
      <use xlink:href="#DejaVuSans-62" x="1118.464844"/>
      <use xlink:href="#DejaVuSans-69" x="1181.941406"/>
      <use xlink:href="#DejaVuSans-74" x="1209.724609"/>
      <use xlink:href="#DejaVuSans-73" x="1248.933594"/>
      <use xlink:href="#DejaVuSans-29" x="1301.033203"/>
     </g>
    </g>
   </g>
   <g id="matplotlib.axis_2">
    <g id="ytick_1">
     <g id="line2d_7">
      <defs>
       <path id="m35d43816f2" d="M 0 0 
L -2 0 
" style="stroke: #000000; stroke-width: 0.5"/>
      </defs>
      <g>
       <use xlink:href="#m35d43816f2" x="30.458438" y="129.389534" style="stroke: #000000; stroke-width: 0.5"/>
      </g>
     </g>
     <g id="text_8">
      <!-- 0.3 -->
      <g transform="translate(17.006875 131.289143) scale(0.05 -0.05)">
       <defs>
        <path id="DejaVuSans-33" d="M 2597 2516 
Q 3050 2419 3304 2112 
Q 3559 1806 3559 1356 
Q 3559 666 3084 287 
Q 2609 -91 1734 -91 
Q 1441 -91 1130 -33 
Q 819 25 488 141 
L 488 750 
Q 750 597 1062 519 
Q 1375 441 1716 441 
Q 2309 441 2620 675 
Q 2931 909 2931 1356 
Q 2931 1769 2642 2001 
Q 2353 2234 1838 2234 
L 1294 2234 
L 1294 2753 
L 1863 2753 
Q 2328 2753 2575 2939 
Q 2822 3125 2822 3475 
Q 2822 3834 2567 4026 
Q 2313 4219 1838 4219 
Q 1578 4219 1281 4162 
Q 984 4106 628 3988 
L 628 4550 
Q 988 4650 1302 4700 
Q 1616 4750 1894 4750 
Q 2613 4750 3031 4423 
Q 3450 4097 3450 3541 
Q 3450 3153 3228 2886 
Q 3006 2619 2597 2516 
z
" transform="scale(0.015625)"/>
       </defs>
       <use xlink:href="#DejaVuSans-30"/>
       <use xlink:href="#DejaVuSans-2e" x="63.623047"/>
       <use xlink:href="#DejaVuSans-33" x="95.410156"/>
      </g>
     </g>
    </g>
    <g id="ytick_2">
     <g id="line2d_8">
      <g>
       <use xlink:href="#m35d43816f2" x="30.458438" y="102.879767" style="stroke: #000000; stroke-width: 0.5"/>
      </g>
     </g>
     <g id="text_9">
      <!-- 0.4 -->
      <g transform="translate(17.006875 104.779376) scale(0.05 -0.05)">
       <use xlink:href="#DejaVuSans-30"/>
       <use xlink:href="#DejaVuSans-2e" x="63.623047"/>
       <use xlink:href="#DejaVuSans-34" x="95.410156"/>
      </g>
     </g>
    </g>
    <g id="ytick_3">
     <g id="line2d_9">
      <g>
       <use xlink:href="#m35d43816f2" x="30.458438" y="76.37" style="stroke: #000000; stroke-width: 0.5"/>
      </g>
     </g>
     <g id="text_10">
      <!-- 0.5 -->
      <g transform="translate(17.006875 78.269609) scale(0.05 -0.05)">
       <defs>
        <path id="DejaVuSans-35" d="M 691 4666 
L 3169 4666 
L 3169 4134 
L 1269 4134 
L 1269 2991 
Q 1406 3038 1543 3061 
Q 1681 3084 1819 3084 
Q 2600 3084 3056 2656 
Q 3513 2228 3513 1497 
Q 3513 744 3044 326 
Q 2575 -91 1722 -91 
Q 1428 -91 1123 -41 
Q 819 9 494 109 
L 494 744 
Q 775 591 1075 516 
Q 1375 441 1709 441 
Q 2250 441 2565 725 
Q 2881 1009 2881 1497 
Q 2881 1984 2565 2268 
Q 2250 2553 1709 2553 
Q 1456 2553 1204 2497 
Q 953 2441 691 2322 
L 691 4666 
z
" transform="scale(0.015625)"/>
       </defs>
       <use xlink:href="#DejaVuSans-30"/>
       <use xlink:href="#DejaVuSans-2e" x="63.623047"/>
       <use xlink:href="#DejaVuSans-35" x="95.410156"/>
      </g>
     </g>
    </g>
    <g id="ytick_4">
     <g id="line2d_10">
      <g>
       <use xlink:href="#m35d43816f2" x="30.458438" y="49.860233" style="stroke: #000000; stroke-width: 0.5"/>
      </g>
     </g>
     <g id="text_11">
      <!-- 0.6 -->
      <g transform="translate(17.006875 51.759843) scale(0.05 -0.05)">
       <use xlink:href="#DejaVuSans-30"/>
       <use xlink:href="#DejaVuSans-2e" x="63.623047"/>
       <use xlink:href="#DejaVuSans-36" x="95.410156"/>
      </g>
     </g>
    </g>
    <g id="ytick_5">
     <g id="line2d_11">
      <g>
       <use xlink:href="#m35d43816f2" x="30.458438" y="23.350466" style="stroke: #000000; stroke-width: 0.5"/>
      </g>
     </g>
     <g id="text_12">
      <!-- 0.7 -->
      <g transform="translate(17.006875 25.250076) scale(0.05 -0.05)">
       <defs>
        <path id="DejaVuSans-37" d="M 525 4666 
L 3525 4666 
L 3525 4397 
L 1831 0 
L 1172 0 
L 2766 4134 
L 525 4134 
L 525 4666 
z
" transform="scale(0.015625)"/>
       </defs>
       <use xlink:href="#DejaVuSans-30"/>
       <use xlink:href="#DejaVuSans-2e" x="63.623047"/>
       <use xlink:href="#DejaVuSans-37" x="95.410156"/>
      </g>
     </g>
    </g>
    <g id="text_13">
     <!-- Marginal probability choose Jar 0 -->
     <g transform="translate(11.759063 125.604219) rotate(-90) scale(0.06 -0.06)">
      <defs>
       <path id="DejaVuSans-4d" d="M 628 4666 
L 1569 4666 
L 2759 1491 
L 3956 4666 
L 4897 4666 
L 4897 0 
L 4281 0 
L 4281 4097 
L 3078 897 
L 2444 897 
L 1241 4097 
L 1241 0 
L 628 0 
L 628 4666 
z
" transform="scale(0.015625)"/>
       <path id="DejaVuSans-67" d="M 2906 1791 
Q 2906 2416 2648 2759 
Q 2391 3103 1925 3103 
Q 1463 3103 1205 2759 
Q 947 2416 947 1791 
Q 947 1169 1205 825 
Q 1463 481 1925 481 
Q 2391 481 2648 825 
Q 2906 1169 2906 1791 
z
M 3481 434 
Q 3481 -459 3084 -895 
Q 2688 -1331 1869 -1331 
Q 1566 -1331 1297 -1286 
Q 1028 -1241 775 -1147 
L 775 -588 
Q 1028 -725 1275 -790 
Q 1522 -856 1778 -856 
Q 2344 -856 2625 -561 
Q 2906 -266 2906 331 
L 2906 616 
Q 2728 306 2450 153 
Q 2172 0 1784 0 
Q 1141 0 747 490 
Q 353 981 353 1791 
Q 353 2603 747 3093 
Q 1141 3584 1784 3584 
Q 2172 3584 2450 3431 
Q 2728 3278 2906 2969 
L 2906 3500 
L 3481 3500 
L 3481 434 
z
" transform="scale(0.015625)"/>
       <path id="DejaVuSans-6c" d="M 603 4863 
L 1178 4863 
L 1178 0 
L 603 0 
L 603 4863 
z
" transform="scale(0.015625)"/>
       <path id="DejaVuSans-68" d="M 3513 2113 
L 3513 0 
L 2938 0 
L 2938 2094 
Q 2938 2591 2744 2837 
Q 2550 3084 2163 3084 
Q 1697 3084 1428 2787 
Q 1159 2491 1159 1978 
L 1159 0 
L 581 0 
L 581 4863 
L 1159 4863 
L 1159 2956 
Q 1366 3272 1645 3428 
Q 1925 3584 2291 3584 
Q 2894 3584 3203 3211 
Q 3513 2838 3513 2113 
z
" transform="scale(0.015625)"/>
       <path id="DejaVuSans-65" d="M 3597 1894 
L 3597 1613 
L 953 1613 
Q 991 1019 1311 708 
Q 1631 397 2203 397 
Q 2534 397 2845 478 
Q 3156 559 3463 722 
L 3463 178 
Q 3153 47 2828 -22 
Q 2503 -91 2169 -91 
Q 1331 -91 842 396 
Q 353 884 353 1716 
Q 353 2575 817 3079 
Q 1281 3584 2069 3584 
Q 2775 3584 3186 3129 
Q 3597 2675 3597 1894 
z
M 3022 2063 
Q 3016 2534 2758 2815 
Q 2500 3097 2075 3097 
Q 1594 3097 1305 2825 
Q 1016 2553 972 2059 
L 3022 2063 
z
" transform="scale(0.015625)"/>
       <path id="DejaVuSans-4a" d="M 628 4666 
L 1259 4666 
L 1259 325 
Q 1259 -519 939 -900 
Q 619 -1281 -91 -1281 
L -331 -1281 
L -331 -750 
L -134 -750 
Q 284 -750 456 -515 
Q 628 -281 628 325 
L 628 4666 
z
" transform="scale(0.015625)"/>
      </defs>
      <use xlink:href="#DejaVuSans-4d"/>
      <use xlink:href="#DejaVuSans-61" x="86.279297"/>
      <use xlink:href="#DejaVuSans-72" x="147.558594"/>
      <use xlink:href="#DejaVuSans-67" x="186.921875"/>
      <use xlink:href="#DejaVuSans-69" x="250.398438"/>
      <use xlink:href="#DejaVuSans-6e" x="278.181641"/>
      <use xlink:href="#DejaVuSans-61" x="341.560547"/>
      <use xlink:href="#DejaVuSans-6c" x="402.839844"/>
      <use xlink:href="#DejaVuSans-20" x="430.623047"/>
      <use xlink:href="#DejaVuSans-70" x="462.410156"/>
      <use xlink:href="#DejaVuSans-72" x="525.886719"/>
      <use xlink:href="#DejaVuSans-6f" x="564.75"/>
      <use xlink:href="#DejaVuSans-62" x="625.931641"/>
      <use xlink:href="#DejaVuSans-61" x="689.408203"/>
      <use xlink:href="#DejaVuSans-62" x="750.6875"/>
      <use xlink:href="#DejaVuSans-69" x="814.164062"/>
      <use xlink:href="#DejaVuSans-6c" x="841.947266"/>
      <use xlink:href="#DejaVuSans-69" x="869.730469"/>
      <use xlink:href="#DejaVuSans-74" x="897.513672"/>
      <use xlink:href="#DejaVuSans-79" x="936.722656"/>
      <use xlink:href="#DejaVuSans-20" x="995.902344"/>
      <use xlink:href="#DejaVuSans-63" x="1027.689453"/>
      <use xlink:href="#DejaVuSans-68" x="1082.669922"/>
      <use xlink:href="#DejaVuSans-6f" x="1146.048828"/>
      <use xlink:href="#DejaVuSans-6f" x="1207.230469"/>
      <use xlink:href="#DejaVuSans-73" x="1268.412109"/>
      <use xlink:href="#DejaVuSans-65" x="1320.511719"/>
      <use xlink:href="#DejaVuSans-20" x="1382.035156"/>
      <use xlink:href="#DejaVuSans-4a" x="1413.822266"/>
      <use xlink:href="#DejaVuSans-61" x="1443.314453"/>
      <use xlink:href="#DejaVuSans-72" x="1504.59375"/>
      <use xlink:href="#DejaVuSans-20" x="1545.707031"/>
      <use xlink:href="#DejaVuSans-30" x="1577.494141"/>
     </g>
    </g>
   </g>
   <g id="line2d_12">
    <path d="M 38.238438 76.37 
L 193.838437 76.37 
L 193.838437 76.37 
" clip-path="url(#p20c532428e)" style="fill: none; stroke: #000000; stroke-width: 0.7; stroke-linecap: square"/>
   </g>
   <g id="line2d_13">
    <path d="M 38.238438 76.237454 
L 38.365384 75.31085 
L 38.751096 74.259114 
L 39.390054 73.22206 
L 40.2765 72.206667 
L 41.559686 71.09839 
L 43.131896 70.034341 
L 45.19709 68.913023 
L 47.824878 67.763539 
L 50.787565 66.71054 
L 54.352139 65.678886 
L 58.541588 64.703639 
L 63.354113 63.819457 
L 68.76005 63.057862 
L 74.701196 62.444485 
L 81.469064 61.976392 
L 88.940955 61.694189 
L 96.938818 61.619441 
L 105.579228 61.761119 
L 115.151753 62.14586 
L 125.628847 62.796384 
L 137.460936 63.76317 
L 151.973126 65.186241 
L 177.242909 67.700406 
L 183.389433 68.3098 
L 183.606828 68.515349 
L 184.027862 69.759297 
L 184.027862 69.759297 
" clip-path="url(#p20c532428e)" style="fill: none; stroke: #1f77b4; stroke-width: 0.7; stroke-linecap: square"/>
   </g>
   <g id="line2d_14">
    <path d="M 38.238438 76.502546 
L 38.365384 77.42915 
L 38.751096 78.480886 
L 39.390054 79.51794 
L 40.2765 80.533333 
L 41.559686 81.64161 
L 43.131896 82.705659 
L 45.19709 83.826977 
L 47.824878 84.976461 
L 50.787565 86.02946 
L 54.352139 87.061114 
L 58.541588 88.036361 
L 63.354113 88.920543 
L 68.76005 89.682138 
L 74.701196 90.295515 
L 81.469064 90.763608 
L 88.940955 91.045811 
L 96.938818 91.120559 
L 105.579228 90.978881 
L 115.151753 90.59414 
L 125.628847 89.943616 
L 137.460936 88.97683 
L 151.973126 87.553759 
L 177.242909 85.039594 
L 183.389433 84.4302 
L 183.606828 84.224651 
L 184.027862 82.980703 
L 184.027862 82.980703 
" clip-path="url(#p20c532428e)" style="fill: none; stroke: #aec7e8; stroke-width: 0.7; stroke-linecap: square"/>
   </g>
   <g id="line2d_15">
    <path d="M 38.238438 76.104907 
L 38.365359 74.251835 
L 38.688635 72.41073 
L 39.294843 70.334396 
L 40.146975 68.301711 
L 41.235615 66.326321 
L 42.548997 64.420602 
L 44.073321 62.595439 
L 45.793101 60.860072 
L 47.940536 59.024402 
L 50.288788 57.319872 
L 52.811777 55.751765 
L 55.788121 54.172619 
L 58.912409 52.765457 
L 62.479541 51.41277 
L 66.142413 50.25738 
L 70.202411 49.209863 
L 74.62681 48.30747 
L 79.368944 47.580341 
L 84.370591 47.049604 
L 89.565508 46.726262 
L 95.189306 46.610566 
L 100.834879 46.715227 
L 106.972015 47.055202 
L 113.416821 47.639618 
L 120.430401 48.508364 
L 128.08055 49.68952 
L 137.044469 51.311083 
L 151.216015 54.143413 
L 163.095241 56.427954 
L 170.230232 57.577685 
L 175.885566 58.269294 
L 180.789016 58.646871 
L 191.217847 59.318167 
L 191.926059 59.558058 
L 191.926059 59.558058 
" clip-path="url(#p20c532428e)" style="fill: none; stroke: #ff7f0e; stroke-width: 0.7; stroke-linecap: square"/>
   </g>
   <g id="line2d_16">
    <path d="M 38.238438 76.635093 
L 38.365359 78.488165 
L 38.688635 80.32927 
L 39.294843 82.405604 
L 40.146975 84.438289 
L 41.235615 86.413679 
L 42.548997 88.319398 
L 44.073321 90.144561 
L 45.793101 91.879928 
L 47.940536 93.715598 
L 50.288788 95.420128 
L 52.811777 96.988235 
L 55.788121 98.567381 
L 58.912409 99.974543 
L 62.479541 101.32723 
L 66.142413 102.48262 
L 70.202411 103.530137 
L 74.62681 104.43253 
L 79.368944 105.159659 
L 84.370591 105.690396 
L 89.565508 106.013738 
L 95.189306 106.129434 
L 100.834879 106.024773 
L 106.972015 105.684798 
L 113.416821 105.100382 
L 120.430401 104.231636 
L 128.08055 103.05048 
L 137.044469 101.428917 
L 151.216015 98.596587 
L 163.095241 96.312046 
L 170.230232 95.162315 
L 175.885566 94.470706 
L 180.789016 94.093129 
L 191.217847 93.421833 
L 191.926059 93.181942 
L 191.926059 93.181942 
" clip-path="url(#p20c532428e)" style="fill: none; stroke: #ffbb78; stroke-width: 0.7; stroke-linecap: square"/>
   </g>
   <g id="line2d_17">
    <path d="M 38.238438 75.972362 
L 38.365318 73.19309 
L 38.688128 70.433294 
L 39.292072 67.324335 
L 40.137964 64.285901 
L 41.213462 61.339451 
L 42.503329 58.503951 
L 43.989951 55.79551 
L 45.653908 53.227167 
L 47.474565 50.808814 
L 49.430648 48.547264 
L 51.766519 46.195202 
L 54.216954 44.048032 
L 56.753512 42.103648 
L 59.640762 40.174696 
L 62.56876 38.479145 
L 65.80226 36.867819 
L 69.017598 35.502972 
L 72.473528 34.270157 
L 76.126836 33.204577 
L 79.929015 32.332259 
L 83.829711 31.669281 
L 87.780297 31.221891 
L 91.962189 30.980261 
L 96.083795 30.963682 
L 100.312479 31.16351 
L 104.766036 31.597234 
L 109.516682 32.292135 
L 114.599036 33.269943 
L 120.283527 34.599411 
L 127.283485 36.480728 
L 138.881641 39.871664 
L 152.509534 43.786926 
L 161.522692 46.142229 
L 169.1836 47.920783 
L 175.283857 49.120257 
L 179.334992 49.70921 
L 181.777027 49.857101 
L 183.457926 49.745014 
L 184.903376 49.425188 
L 186.595478 48.802362 
L 188.319358 48.174606 
L 188.319358 48.174606 
" clip-path="url(#p20c532428e)" style="fill: none; stroke: #2ca02c; stroke-width: 0.7; stroke-linecap: square"/>
   </g>
   <g id="line2d_18">
    <path d="M 38.238438 76.767638 
L 38.365318 79.54691 
L 38.688128 82.306706 
L 39.292072 85.415665 
L 40.137964 88.454099 
L 41.213462 91.400549 
L 42.503329 94.236049 
L 43.989951 96.94449 
L 45.653908 99.512833 
L 47.474565 101.931186 
L 49.430648 104.192736 
L 51.766519 106.544798 
L 54.216954 108.691968 
L 56.753512 110.636352 
L 59.640762 112.565304 
L 62.56876 114.260855 
L 65.80226 115.872181 
L 69.017598 117.237028 
L 72.473528 118.469843 
L 76.126836 119.535423 
L 79.929015 120.407741 
L 83.829711 121.070719 
L 87.780297 121.518109 
L 91.962189 121.759739 
L 96.083795 121.776318 
L 100.312479 121.57649 
L 104.766036 121.142766 
L 109.516682 120.447865 
L 114.599036 119.470057 
L 120.283527 118.140589 
L 127.283485 116.259272 
L 138.881641 112.868336 
L 152.509534 108.953074 
L 161.522692 106.597771 
L 169.1836 104.819217 
L 175.283857 103.619743 
L 179.334992 103.03079 
L 181.777027 102.882899 
L 183.457926 102.994986 
L 184.903376 103.314812 
L 186.595478 103.937638 
L 188.319358 104.565394 
L 188.319358 104.565394 
" clip-path="url(#p20c532428e)" style="fill: none; stroke: #98df8a; stroke-width: 0.7; stroke-linecap: square"/>
   </g>
   <g id="line2d_19">
    <path d="M 38.238438 75.839817 
L 38.36526 72.13475 
L 38.68742 68.458491 
L 39.288209 64.32353 
L 40.125441 60.29195 
L 41.182808 56.394128 
L 42.440453 52.65602 
L 43.875821 49.098636 
L 45.464562 45.737816 
L 47.181419 42.584302 
L 49.234502 39.291621 
L 51.382679 36.270685 
L 53.593064 33.517622 
L 56.085684 30.762309 
L 58.830769 28.081043 
L 61.540567 25.739557 
L 64.419479 23.537494 
L 67.413556 21.521656 
L 70.46486 19.725499 
L 73.711638 18.076858 
L 76.873805 16.716178 
L 80.069024 15.579011 
L 83.218325 14.691272 
L 86.264964 14.057668 
L 89.287071 13.656785 
L 92.239103 13.493261 
L 95.109292 13.555031 
L 98.063241 13.840692 
L 101.227163 14.374303 
L 104.772494 15.203362 
L 109.077831 16.447747 
L 114.973961 18.401265 
L 129.640632 23.594711 
L 139.798775 27.029885 
L 148.335483 29.684509 
L 156.262239 31.91896 
L 163.740891 33.79816 
L 170.883511 35.365261 
L 177.657942 36.627985 
L 181.658121 37.18108 
L 183.129072 37.205815 
L 183.129072 37.205815 
" clip-path="url(#p20c532428e)" style="fill: none; stroke: #d62728; stroke-width: 0.7; stroke-linecap: square"/>
   </g>
   <g id="line2d_20">
    <path d="M 38.238438 76.900183 
L 38.36526 80.60525 
L 38.68742 84.281509 
L 39.288209 88.41647 
L 40.125441 92.44805 
L 41.182808 96.345872 
L 42.440453 100.08398 
L 43.875821 103.641364 
L 45.464562 107.002184 
L 47.181419 110.155698 
L 49.234502 113.448379 
L 51.382679 116.469315 
L 53.593064 119.222378 
L 56.085684 121.977691 
L 58.830769 124.658957 
L 61.540567 127.000443 
L 64.419479 129.202506 
L 67.413556 131.218344 
L 70.46486 133.014501 
L 73.711638 134.663142 
L 76.873805 136.023822 
L 80.069024 137.160989 
L 83.218325 138.048728 
L 86.264964 138.682332 
L 89.287071 139.083215 
L 92.239103 139.246739 
L 95.109292 139.184969 
L 98.063241 138.899308 
L 101.227163 138.365697 
L 104.772494 137.536638 
L 109.077831 136.292253 
L 114.973961 134.338735 
L 129.640632 129.145289 
L 139.798775 125.710115 
L 148.335483 123.055491 
L 156.262239 120.82104 
L 163.740891 118.94184 
L 170.883511 117.374739 
L 177.657942 116.112015 
L 181.658121 115.55892 
L 183.129072 115.534185 
L 183.129072 115.534185 
" clip-path="url(#p20c532428e)" style="fill: none; stroke: #ff9896; stroke-width: 0.7; stroke-linecap: square"/>
   </g>
   <g id="line2d_21">
    <defs>
     <path id="m3b9b931811" d="M -1.5 1.5 
L 1.5 -1.5 
M -1.5 -1.5 
L 1.5 1.5 
" style="stroke: #000000; stroke-width: 0.4"/>
    </defs>
    <g clip-path="url(#p20c532428e)">
     <use xlink:href="#m3b9b931811" x="154.633477" y="77.695488" style="stroke: #000000; stroke-width: 0.4"/>
     <use xlink:href="#m3b9b931811" x="149.109233" y="78.137318" style="stroke: #000000; stroke-width: 0.4"/>
     <use xlink:href="#m3b9b931811" x="154.662262" y="79.904636" style="stroke: #000000; stroke-width: 0.4"/>
     <use xlink:href="#m3b9b931811" x="171.226083" y="72.835364" style="stroke: #000000; stroke-width: 0.4"/>
     <use xlink:href="#m3b9b931811" x="105.087931" y="71.068047" style="stroke: #000000; stroke-width: 0.4"/>
     <use xlink:href="#m3b9b931811" x="160.27739" y="75.044512" style="stroke: #000000; stroke-width: 0.4"/>
     <use xlink:href="#m3b9b931811" x="139.885213" y="81.230124" style="stroke: #000000; stroke-width: 0.4"/>
     <use xlink:href="#m3b9b931811" x="122.522759" y="83.439271" style="stroke: #000000; stroke-width: 0.4"/>
     <use xlink:href="#m3b9b931811" x="139.790334" y="78.137318" style="stroke: #000000; stroke-width: 0.4"/>
     <use xlink:href="#m3b9b931811" x="174.159128" y="72.835364" style="stroke: #000000; stroke-width: 0.4"/>
     <use xlink:href="#m3b9b931811" x="126.106988" y="124.52941" style="stroke: #000000; stroke-width: 0.4"/>
     <use xlink:href="#m3b9b931811" x="171.134121" y="77.695488" style="stroke: #000000; stroke-width: 0.4"/>
     <use xlink:href="#m3b9b931811" x="132.953123" y="74.602682" style="stroke: #000000; stroke-width: 0.4"/>
     <use xlink:href="#m3b9b931811" x="151.790206" y="78.579147" style="stroke: #000000; stroke-width: 0.4"/>
     <use xlink:href="#m3b9b931811" x="153.415694" y="69.742558" style="stroke: #000000; stroke-width: 0.4"/>
     <use xlink:href="#m3b9b931811" x="118.134441" y="69.742558" style="stroke: #000000; stroke-width: 0.4"/>
     <use xlink:href="#m3b9b931811" x="154.567221" y="50.743892" style="stroke: #000000; stroke-width: 0.4"/>
     <use xlink:href="#m3b9b931811" x="164.967709" y="76.37" style="stroke: #000000; stroke-width: 0.4"/>
     <use xlink:href="#m3b9b931811" x="158.698657" y="75.044512" style="stroke: #000000; stroke-width: 0.4"/>
     <use xlink:href="#m3b9b931811" x="154.7772" y="72.60818" style="stroke: #000000; stroke-width: 0.4"/>
     <use xlink:href="#m3b9b931811" x="85.656819" y="78.137318" style="stroke: #000000; stroke-width: 0.4"/>
     <use xlink:href="#m3b9b931811" x="148.324166" y="71.723046" style="stroke: #000000; stroke-width: 0.4"/>
     <use xlink:href="#m3b9b931811" x="167.432573" y="82.997442" style="stroke: #000000; stroke-width: 0.4"/>
     <use xlink:href="#m3b9b931811" x="147.248485" y="72.835364" style="stroke: #000000; stroke-width: 0.4"/>
     <use xlink:href="#m3b9b931811" x="131.60974" y="68.858899" style="stroke: #000000; stroke-width: 0.4"/>
     <use xlink:href="#m3b9b931811" x="160.49493" y="76.811829" style="stroke: #000000; stroke-width: 0.4"/>
     <use xlink:href="#m3b9b931811" x="140.383952" y="79.904636" style="stroke: #000000; stroke-width: 0.4"/>
     <use xlink:href="#m3b9b931811" x="129.712844" y="74.160853" style="stroke: #000000; stroke-width: 0.4"/>
     <use xlink:href="#m3b9b931811" x="169.603336" y="85.648418" style="stroke: #000000; stroke-width: 0.4"/>
     <use xlink:href="#m3b9b931811" x="113.777046" y="65.287322" style="stroke: #000000; stroke-width: 0.4"/>
    </g>
   </g>
   <g id="line2d_22">
    <defs>
     <path id="mb62c64b801" d="M -1.5 1.5 
L 1.5 -1.5 
M -1.5 -1.5 
L 1.5 1.5 
" style="stroke: #ff0000; stroke-width: 0.8"/>
    </defs>
    <g clip-path="url(#p20c532428e)">
     <use xlink:href="#mb62c64b801" x="126.106988" y="124.52941" style="fill: #ff0000; stroke: #ff0000; stroke-width: 0.8"/>
    </g>
   </g>
   <g id="patch_3">
    <path d="M 30.458438 145.54 
L 30.458438 7.2 
" style="fill: none; stroke: #000000; stroke-width: 0.5; stroke-linejoin: miter; stroke-linecap: square"/>
   </g>
   <g id="patch_4">
    <path d="M 30.458438 145.54 
L 201.618437 145.54 
" style="fill: none; stroke: #000000; stroke-width: 0.5; stroke-linejoin: miter; stroke-linecap: square"/>
   </g>
  </g>
 </g>
 <defs>
  <clipPath id="p20c532428e">
   <rect x="30.458438" y="7.2" width="171.16" height="138.34"/>
  </clipPath>
 </defs>
</svg>
