<?xml version="1.0" encoding="utf-8" standalone="no"?>
<!DOCTYPE svg PUBLIC "-//W3C//DTD SVG 1.1//EN"
  "http://www.w3.org/Graphics/SVG/1.1/DTD/svg11.dtd">
<svg xmlns:xlink="http://www.w3.org/1999/xlink" width="139.451562pt" height="107.899063pt" viewBox="0 0 139.451562 107.899063" xmlns="http://www.w3.org/2000/svg" version="1.1">
 <metadata>
  <rdf:RDF xmlns:dc="http://purl.org/dc/elements/1.1/" xmlns:cc="http://creativecommons.org/ns#" xmlns:rdf="http://www.w3.org/1999/02/22-rdf-syntax-ns#">
   <cc:Work>
    <dc:type rdf:resource="http://purl.org/dc/dcmitype/StillImage"/>
    <dc:date>2026-04-19T16:16:10.141318</dc:date>
    <dc:format>image/svg+xml</dc:format>
    <dc:creator>
     <cc:Agent>
      <dc:title>Matplotlib v3.8.2, https://matplotlib.org/</dc:title>
     </cc:Agent>
    </dc:creator>
   </cc:Work>
  </rdf:RDF>
 </metadata>
 <defs>
  <style type="text/css">*{stroke-linejoin: round; stroke-linecap: butt}</style>
 </defs>
 <g id="figure_1">
  <g id="patch_1">
   <path d="M 0 107.899063 
L 139.451562 107.899063 
L 139.451562 0 
L 0 0 
z
" style="fill: #ffffff"/>
  </g>
  <g id="axes_1">
   <g id="patch_2">
    <path d="M 20.651563 90.36 
L 132.251563 90.36 
L 132.251563 7.2 
L 20.651563 7.2 
z
" style="fill: #ffffff"/>
   </g>
   <g id="matplotlib.axis_1">
    <g id="xtick_1">
     <g id="line2d_1">
      <defs>
       <path id="m278bcbb091" d="M 0 0 
L 0 2 
" style="stroke: #000000; stroke-width: 0.5"/>
      </defs>
      <g>
       <use xlink:href="#m278bcbb091" x="25.72429" y="90.36" style="stroke: #000000; stroke-width: 0.5"/>
      </g>
     </g>
     <g id="text_1">
      <!-- 0.0 -->
      <g transform="translate(21.748509 99.659219) scale(0.05 -0.05)">
       <defs>
        <path id="DejaVuSans-30" d="M 2034 4250 
Q 1547 4250 1301 3770 
Q 1056 3291 1056 2328 
Q 1056 1369 1301 889 
Q 1547 409 2034 409 
Q 2525 409 2770 889 
Q 3016 1369 3016 2328 
Q 3016 3291 2770 3770 
Q 2525 4250 2034 4250 
z
M 2034 4750 
Q 2819 4750 3233 4129 
Q 3647 3509 3647 2328 
Q 3647 1150 3233 529 
Q 2819 -91 2034 -91 
Q 1250 -91 836 529 
Q 422 1150 422 2328 
Q 422 3509 836 4129 
Q 1250 4750 2034 4750 
z
" transform="scale(0.015625)"/>
        <path id="DejaVuSans-2e" d="M 684 794 
L 1344 794 
L 1344 0 
L 684 0 
L 684 794 
z
" transform="scale(0.015625)"/>
       </defs>
       <use xlink:href="#DejaVuSans-30"/>
       <use xlink:href="#DejaVuSans-2e" x="63.623047"/>
       <use xlink:href="#DejaVuSans-30" x="95.410156"/>
      </g>
     </g>
    </g>
    <g id="xtick_2">
     <g id="line2d_2">
      <g>
       <use xlink:href="#m278bcbb091" x="46.015199" y="90.36" style="stroke: #000000; stroke-width: 0.5"/>
      </g>
     </g>
     <g id="text_2">
      <!-- 0.2 -->
      <g transform="translate(42.039418 99.659219) scale(0.05 -0.05)">
       <defs>
        <path id="DejaVuSans-32" d="M 1228 531 
L 3431 531 
L 3431 0 
L 469 0 
L 469 531 
Q 828 903 1448 1529 
Q 2069 2156 2228 2338 
Q 2531 2678 2651 2914 
Q 2772 3150 2772 3378 
Q 2772 3750 2511 3984 
Q 2250 4219 1831 4219 
Q 1534 4219 1204 4116 
Q 875 4013 500 3803 
L 500 4441 
Q 881 4594 1212 4672 
Q 1544 4750 1819 4750 
Q 2544 4750 2975 4387 
Q 3406 4025 3406 3419 
Q 3406 3131 3298 2873 
Q 3191 2616 2906 2266 
Q 2828 2175 2409 1742 
Q 1991 1309 1228 531 
z
" transform="scale(0.015625)"/>
       </defs>
       <use xlink:href="#DejaVuSans-30"/>
       <use xlink:href="#DejaVuSans-2e" x="63.623047"/>
       <use xlink:href="#DejaVuSans-32" x="95.410156"/>
      </g>
     </g>
    </g>
    <g id="xtick_3">
     <g id="line2d_3">
      <g>
       <use xlink:href="#m278bcbb091" x="66.306108" y="90.36" style="stroke: #000000; stroke-width: 0.5"/>
      </g>
     </g>
     <g id="text_3">
      <!-- 0.4 -->
      <g transform="translate(62.330327 99.659219) scale(0.05 -0.05)">
       <defs>
        <path id="DejaVuSans-34" d="M 2419 4116 
L 825 1625 
L 2419 1625 
L 2419 4116 
z
M 2253 4666 
L 3047 4666 
L 3047 1625 
L 3713 1625 
L 3713 1100 
L 3047 1100 
L 3047 0 
L 2419 0 
L 2419 1100 
L 313 1100 
L 313 1709 
L 2253 4666 
z
" transform="scale(0.015625)"/>
       </defs>
       <use xlink:href="#DejaVuSans-30"/>
       <use xlink:href="#DejaVuSans-2e" x="63.623047"/>
       <use xlink:href="#DejaVuSans-34" x="95.410156"/>
      </g>
     </g>
    </g>
    <g id="xtick_4">
     <g id="line2d_4">
      <g>
       <use xlink:href="#m278bcbb091" x="86.597017" y="90.36" style="stroke: #000000; stroke-width: 0.5"/>
      </g>
     </g>
     <g id="text_4">
      <!-- 0.6 -->
      <g transform="translate(82.621236 99.659219) scale(0.05 -0.05)">
       <defs>
        <path id="DejaVuSans-36" d="M 2113 2584 
Q 1688 2584 1439 2293 
Q 1191 2003 1191 1497 
Q 1191 994 1439 701 
Q 1688 409 2113 409 
Q 2538 409 2786 701 
Q 3034 994 3034 1497 
Q 3034 2003 2786 2293 
Q 2538 2584 2113 2584 
z
M 3366 4563 
L 3366 3988 
Q 3128 4100 2886 4159 
Q 2644 4219 2406 4219 
Q 1781 4219 1451 3797 
Q 1122 3375 1075 2522 
Q 1259 2794 1537 2939 
Q 1816 3084 2150 3084 
Q 2853 3084 3261 2657 
Q 3669 2231 3669 1497 
Q 3669 778 3244 343 
Q 2819 -91 2113 -91 
Q 1303 -91 875 529 
Q 447 1150 447 2328 
Q 447 3434 972 4092 
Q 1497 4750 2381 4750 
Q 2619 4750 2861 4703 
Q 3103 4656 3366 4563 
z
" transform="scale(0.015625)"/>
       </defs>
       <use xlink:href="#DejaVuSans-30"/>
       <use xlink:href="#DejaVuSans-2e" x="63.623047"/>
       <use xlink:href="#DejaVuSans-36" x="95.410156"/>
      </g>
     </g>
    </g>
    <g id="xtick_5">
     <g id="line2d_5">
      <g>
       <use xlink:href="#m278bcbb091" x="106.887926" y="90.36" style="stroke: #000000; stroke-width: 0.5"/>
      </g>
     </g>
     <g id="text_5">
      <!-- 0.8 -->
      <g transform="translate(102.912145 99.659219) scale(0.05 -0.05)">
       <defs>
        <path id="DejaVuSans-38" d="M 2034 2216 
Q 1584 2216 1326 1975 
Q 1069 1734 1069 1313 
Q 1069 891 1326 650 
Q 1584 409 2034 409 
Q 2484 409 2743 651 
Q 3003 894 3003 1313 
Q 3003 1734 2745 1975 
Q 2488 2216 2034 2216 
z
M 1403 2484 
Q 997 2584 770 2862 
Q 544 3141 544 3541 
Q 544 4100 942 4425 
Q 1341 4750 2034 4750 
Q 2731 4750 3128 4425 
Q 3525 4100 3525 3541 
Q 3525 3141 3298 2862 
Q 3072 2584 2669 2484 
Q 3125 2378 3379 2068 
Q 3634 1759 3634 1313 
Q 3634 634 3220 271 
Q 2806 -91 2034 -91 
Q 1263 -91 848 271 
Q 434 634 434 1313 
Q 434 1759 690 2068 
Q 947 2378 1403 2484 
z
M 1172 3481 
Q 1172 3119 1398 2916 
Q 1625 2713 2034 2713 
Q 2441 2713 2670 2916 
Q 2900 3119 2900 3481 
Q 2900 3844 2670 4047 
Q 2441 4250 2034 4250 
Q 1625 4250 1398 4047 
Q 1172 3844 1172 3481 
z
" transform="scale(0.015625)"/>
       </defs>
       <use xlink:href="#DejaVuSans-30"/>
       <use xlink:href="#DejaVuSans-2e" x="63.623047"/>
       <use xlink:href="#DejaVuSans-38" x="95.410156"/>
      </g>
     </g>
    </g>
    <g id="xtick_6">
     <g id="line2d_6">
      <g>
       <use xlink:href="#m278bcbb091" x="127.178835" y="90.36" style="stroke: #000000; stroke-width: 0.5"/>
      </g>
     </g>
     <g id="text_6">
      <!-- 1.0 -->
      <g transform="translate(123.203054 99.659219) scale(0.05 -0.05)">
       <defs>
        <path id="DejaVuSans-31" d="M 794 531 
L 1825 531 
L 1825 4091 
L 703 3866 
L 703 4441 
L 1819 4666 
L 2450 4666 
L 2450 531 
L 3481 531 
L 3481 0 
L 794 0 
L 794 531 
z
" transform="scale(0.015625)"/>
       </defs>
       <use xlink:href="#DejaVuSans-31"/>
       <use xlink:href="#DejaVuSans-2e" x="63.623047"/>
       <use xlink:href="#DejaVuSans-30" x="95.410156"/>
      </g>
     </g>
    </g>
   </g>
   <g id="matplotlib.axis_2">
    <g id="ytick_1">
     <g id="line2d_7">
      <defs>
       <path id="ma1191d19c7" d="M 0 0 
L -2 0 
" style="stroke: #000000; stroke-width: 0.5"/>
      </defs>
      <g>
       <use xlink:href="#ma1191d19c7" x="20.651563" y="87.965715" style="stroke: #000000; stroke-width: 0.5"/>
      </g>
     </g>
     <g id="text_7">
      <!-- 0.0 -->
      <g transform="translate(7.2 89.865324) scale(0.05 -0.05)">
       <use xlink:href="#DejaVuSans-30"/>
       <use xlink:href="#DejaVuSans-2e" x="63.623047"/>
       <use xlink:href="#DejaVuSans-30" x="95.410156"/>
      </g>
     </g>
    </g>
    <g id="ytick_2">
     <g id="line2d_8">
      <g>
       <use xlink:href="#ma1191d19c7" x="20.651563" y="72.557077" style="stroke: #000000; stroke-width: 0.5"/>
      </g>
     </g>
     <g id="text_8">
      <!-- 0.2 -->
      <g transform="translate(7.2 74.456686) scale(0.05 -0.05)">
       <use xlink:href="#DejaVuSans-30"/>
       <use xlink:href="#DejaVuSans-2e" x="63.623047"/>
       <use xlink:href="#DejaVuSans-32" x="95.410156"/>
      </g>
     </g>
    </g>
    <g id="ytick_3">
     <g id="line2d_9">
      <g>
       <use xlink:href="#ma1191d19c7" x="20.651563" y="57.148438" style="stroke: #000000; stroke-width: 0.5"/>
      </g>
     </g>
     <g id="text_9">
      <!-- 0.4 -->
      <g transform="translate(7.2 59.048048) scale(0.05 -0.05)">
       <use xlink:href="#DejaVuSans-30"/>
       <use xlink:href="#DejaVuSans-2e" x="63.623047"/>
       <use xlink:href="#DejaVuSans-34" x="95.410156"/>
      </g>
     </g>
    </g>
    <g id="ytick_4">
     <g id="line2d_10">
      <g>
       <use xlink:href="#ma1191d19c7" x="20.651563" y="41.7398" style="stroke: #000000; stroke-width: 0.5"/>
      </g>
     </g>
     <g id="text_10">
      <!-- 0.6 -->
      <g transform="translate(7.2 43.63941) scale(0.05 -0.05)">
       <use xlink:href="#DejaVuSans-30"/>
       <use xlink:href="#DejaVuSans-2e" x="63.623047"/>
       <use xlink:href="#DejaVuSans-36" x="95.410156"/>
      </g>
     </g>
    </g>
    <g id="ytick_5">
     <g id="line2d_11">
      <g>
       <use xlink:href="#ma1191d19c7" x="20.651563" y="26.331162" style="stroke: #000000; stroke-width: 0.5"/>
      </g>
     </g>
     <g id="text_11">
      <!-- 0.8 -->
      <g transform="translate(7.2 28.230771) scale(0.05 -0.05)">
       <use xlink:href="#DejaVuSans-30"/>
       <use xlink:href="#DejaVuSans-2e" x="63.623047"/>
       <use xlink:href="#DejaVuSans-38" x="95.410156"/>
      </g>
     </g>
    </g>
    <g id="ytick_6">
     <g id="line2d_12">
      <g>
       <use xlink:href="#ma1191d19c7" x="20.651563" y="10.922524" style="stroke: #000000; stroke-width: 0.5"/>
      </g>
     </g>
     <g id="text_12">
      <!-- 1.0 -->
      <g transform="translate(7.2 12.822133) scale(0.05 -0.05)">
       <use xlink:href="#DejaVuSans-31"/>
       <use xlink:href="#DejaVuSans-2e" x="63.623047"/>
       <use xlink:href="#DejaVuSans-30" x="95.410156"/>
      </g>
     </g>
    </g>
   </g>
   <g id="line2d_13">
    <path d="M 25.72429 86.58 
L 26.738835 86.466833 
L 27.753381 86.344622 
L 28.767926 86.212679 
L 29.782472 86.070265 
L 30.797017 85.916598 
L 31.811563 85.750839 
L 32.826108 85.5721 
L 33.840653 85.379435 
L 34.855199 85.171843 
L 35.869744 84.948263 
L 36.88429 84.707576 
L 37.898835 84.448603 
L 38.913381 84.170105 
L 39.927926 83.870782 
L 40.942472 83.549278 
L 41.957017 83.204179 
L 42.971563 82.834019 
L 43.986108 82.437285 
L 45.000653 82.012418 
L 46.015199 81.557825 
L 47.029744 81.071886 
L 48.04429 80.552963 
L 49.058835 79.999414 
L 50.073381 79.409609 
L 51.087926 78.781941 
L 52.102472 78.114852 
L 53.117017 77.406846 
L 54.131563 76.656519 
L 55.146108 75.862579 
L 56.160653 75.023875 
L 57.175199 74.139427 
L 58.189744 73.20845 
L 59.20429 72.23039 
L 60.218835 71.204951 
L 61.233381 70.132126 
L 62.247926 69.012221 
L 63.262472 67.845886 
L 64.277017 66.634135 
L 65.291562 65.378363 
L 66.306108 64.08036 
L 67.320653 62.742315 
L 68.335199 61.36682 
L 69.349744 59.956858 
L 70.36429 58.515791 
L 71.378835 57.047332 
L 72.393381 55.555513 
L 73.407926 54.044649 
L 74.422472 52.519289 
L 75.437017 50.984162 
L 76.451562 49.444119 
L 77.466108 47.904077 
L 78.480653 46.368949 
L 79.495199 44.843589 
L 80.509744 43.332726 
L 81.52429 41.840907 
L 82.538835 40.372447 
L 83.553381 38.93138 
L 84.567926 37.521419 
L 85.582472 36.145924 
L 86.597017 34.807879 
L 87.611562 33.509875 
L 88.626108 32.254103 
L 89.640653 31.042353 
L 90.655199 29.876018 
L 91.669744 28.756113 
L 92.68429 27.683287 
L 93.698835 26.657848 
L 94.713381 25.679789 
L 95.727926 24.748812 
L 96.742472 23.864363 
L 97.757017 23.02566 
L 98.771563 22.23172 
L 99.786108 21.481393 
L 100.800653 20.773387 
L 101.815199 20.106297 
L 102.829744 19.47863 
L 103.84429 18.888824 
L 104.858835 18.335276 
L 105.873381 17.816353 
L 106.887926 17.330414 
L 107.902472 16.875821 
L 108.917017 16.450954 
L 109.931563 16.054219 
L 110.946108 15.68406 
L 111.960653 15.338961 
L 112.975199 15.017457 
L 113.989744 14.718134 
L 115.00429 14.439635 
L 116.018835 14.180663 
L 117.033381 13.939976 
L 118.047926 13.716396 
L 119.062472 13.508804 
L 120.077017 13.316139 
L 121.091563 13.137399 
L 122.106108 12.971641 
L 123.120653 12.817973 
L 124.135199 12.67556 
L 125.149744 12.543616 
L 126.16429 12.421405 
L 127.178835 12.308239 
" clip-path="url(#p6eaac52cc0)" style="fill: none; stroke: #1f77b4; stroke-width: 0.5; stroke-linecap: square"/>
   </g>
   <g id="line2d_14">
    <path d="M 25.72429 84.948263 
L 26.738835 84.707576 
L 27.753381 84.448603 
L 28.767926 84.170105 
L 29.782472 83.870782 
L 30.797017 83.549278 
L 31.811563 83.204179 
L 32.826108 82.834019 
L 33.840653 82.437285 
L 34.855199 82.012418 
L 35.869744 81.557825 
L 36.88429 81.071886 
L 37.898835 80.552963 
L 38.913381 79.999414 
L 39.927926 79.409609 
L 40.942472 78.781941 
L 41.957017 78.114852 
L 42.971563 77.406846 
L 43.986108 76.656519 
L 45.000653 75.862579 
L 46.015199 75.023875 
L 47.029744 74.139427 
L 48.04429 73.20845 
L 49.058835 72.23039 
L 50.073381 71.204951 
L 51.087926 70.132126 
L 52.102472 69.012221 
L 53.117017 67.845886 
L 54.131563 66.634135 
L 55.146108 65.378363 
L 56.160653 64.08036 
L 57.175199 62.742315 
L 58.189744 61.36682 
L 59.20429 59.956858 
L 60.218835 58.515791 
L 61.233381 57.047332 
L 62.247926 55.555513 
L 63.262472 54.044649 
L 64.277017 52.519289 
L 65.291562 50.984162 
L 66.306108 49.444119 
L 67.320653 47.904077 
L 68.335199 46.368949 
L 69.349744 44.843589 
L 70.36429 43.332726 
L 71.378835 41.840907 
L 72.393381 40.372447 
L 73.407926 38.93138 
L 74.422472 37.521419 
L 75.437017 36.145924 
L 76.451562 34.807879 
L 77.466108 33.509875 
L 78.480653 32.254103 
L 79.495199 31.042353 
L 80.509744 29.876018 
L 81.52429 28.756113 
L 82.538835 27.683287 
L 83.553381 26.657848 
L 84.567926 25.679789 
L 85.582472 24.748812 
L 86.597017 23.864363 
L 87.611562 23.02566 
L 88.626108 22.23172 
L 89.640653 21.481393 
L 90.655199 20.773387 
L 91.669744 20.106297 
L 92.68429 19.47863 
L 93.698835 18.888824 
L 94.713381 18.335276 
L 95.727926 17.816353 
L 96.742472 17.330414 
L 97.757017 16.875821 
L 98.771563 16.450954 
L 99.786108 16.054219 
L 100.800653 15.68406 
L 101.815199 15.338961 
L 102.829744 15.017457 
L 103.84429 14.718134 
L 104.858835 14.439635 
L 105.873381 14.180663 
L 106.887926 13.939976 
L 107.902472 13.716396 
L 108.917017 13.508804 
L 109.931563 13.316139 
L 110.946108 13.137399 
L 111.960653 12.971641 
L 112.975199 12.817973 
L 113.989744 12.67556 
L 115.00429 12.543616 
L 116.018835 12.421405 
L 117.033381 12.308239 
L 118.047926 12.203471 
L 119.062472 12.106501 
L 120.077017 12.016765 
L 121.091563 11.93374 
L 122.106108 11.856937 
L 123.120653 11.785901 
L 124.135199 11.720209 
L 125.149744 11.659466 
L 126.16429 11.603308 
L 127.178835 11.551394 
" clip-path="url(#p6eaac52cc0)" style="fill: none; stroke: #ff7f0e; stroke-width: 0.5; stroke-linecap: square"/>
   </g>
   <g id="line2d_15">
    <path d="M 25.72429 81.557825 
L 26.738835 81.071886 
L 27.753381 80.552963 
L 28.767926 79.999414 
L 29.782472 79.409609 
L 30.797017 78.781941 
L 31.811563 78.114852 
L 32.826108 77.406846 
L 33.840653 76.656519 
L 34.855199 75.862579 
L 35.869744 75.023875 
L 36.88429 74.139427 
L 37.898835 73.20845 
L 38.913381 72.23039 
L 39.927926 71.204951 
L 40.942472 70.132126 
L 41.957017 69.012221 
L 42.971563 67.845886 
L 43.986108 66.634135 
L 45.000653 65.378363 
L 46.015199 64.08036 
L 47.029744 62.742315 
L 48.04429 61.36682 
L 49.058835 59.956858 
L 50.073381 58.515791 
L 51.087926 57.047332 
L 52.102472 55.555513 
L 53.117017 54.044649 
L 54.131563 52.519289 
L 55.146108 50.984162 
L 56.160653 49.444119 
L 57.175199 47.904077 
L 58.189744 46.368949 
L 59.20429 44.843589 
L 60.218835 43.332726 
L 61.233381 41.840907 
L 62.247926 40.372447 
L 63.262472 38.93138 
L 64.277017 37.521419 
L 65.291562 36.145924 
L 66.306108 34.807879 
L 67.320653 33.509875 
L 68.335199 32.254103 
L 69.349744 31.042353 
L 70.36429 29.876018 
L 71.378835 28.756113 
L 72.393381 27.683287 
L 73.407926 26.657848 
L 74.422472 25.679789 
L 75.437017 24.748812 
L 76.451562 23.864363 
L 77.466108 23.02566 
L 78.480653 22.23172 
L 79.495199 21.481393 
L 80.509744 20.773387 
L 81.52429 20.106297 
L 82.538835 19.47863 
L 83.553381 18.888824 
L 84.567926 18.335276 
L 85.582472 17.816353 
L 86.597017 17.330414 
L 87.611562 16.875821 
L 88.626108 16.450954 
L 89.640653 16.054219 
L 90.655199 15.68406 
L 91.669744 15.338961 
L 92.68429 15.017457 
L 93.698835 14.718134 
L 94.713381 14.439635 
L 95.727926 14.180663 
L 96.742472 13.939976 
L 97.757017 13.716396 
L 98.771563 13.508804 
L 99.786108 13.316139 
L 100.800653 13.137399 
L 101.815199 12.971641 
L 102.829744 12.817973 
L 103.84429 12.67556 
L 104.858835 12.543616 
L 105.873381 12.421405 
L 106.887926 12.308239 
L 107.902472 12.203471 
L 108.917017 12.106501 
L 109.931563 12.016765 
L 110.946108 11.93374 
L 111.960653 11.856937 
L 112.975199 11.785901 
L 113.989744 11.720209 
L 115.00429 11.659466 
L 116.018835 11.603308 
L 117.033381 11.551394 
L 118.047926 11.503409 
L 119.062472 11.459059 
L 120.077017 11.418074 
L 121.091563 11.3802 
L 122.106108 11.345206 
L 123.120653 11.312873 
L 124.135199 11.283002 
L 125.149744 11.255407 
L 126.16429 11.229916 
L 127.178835 11.206369 
" clip-path="url(#p6eaac52cc0)" style="fill: none; stroke: #2ca02c; stroke-width: 0.5; stroke-linecap: square"/>
   </g>
   <g id="line2d_16">
    <path d="M 25.72429 75.023875 
L 26.738835 74.139427 
L 27.753381 73.20845 
L 28.767926 72.23039 
L 29.782472 71.204951 
L 30.797017 70.132126 
L 31.811563 69.012221 
L 32.826108 67.845886 
L 33.840653 66.634135 
L 34.855199 65.378363 
L 35.869744 64.08036 
L 36.88429 62.742315 
L 37.898835 61.36682 
L 38.913381 59.956858 
L 39.927926 58.515791 
L 40.942472 57.047332 
L 41.957017 55.555513 
L 42.971563 54.044649 
L 43.986108 52.519289 
L 45.000653 50.984162 
L 46.015199 49.444119 
L 47.029744 47.904077 
L 48.04429 46.368949 
L 49.058835 44.843589 
L 50.073381 43.332726 
L 51.087926 41.840907 
L 52.102472 40.372447 
L 53.117017 38.93138 
L 54.131563 37.521419 
L 55.146108 36.145924 
L 56.160653 34.807879 
L 57.175199 33.509875 
L 58.189744 32.254103 
L 59.20429 31.042353 
L 60.218835 29.876018 
L 61.233381 28.756113 
L 62.247926 27.683287 
L 63.262472 26.657848 
L 64.277017 25.679789 
L 65.291562 24.748812 
L 66.306108 23.864363 
L 67.320653 23.02566 
L 68.335199 22.23172 
L 69.349744 21.481393 
L 70.36429 20.773387 
L 71.378835 20.106297 
L 72.393381 19.47863 
L 73.407926 18.888824 
L 74.422472 18.335276 
L 75.437017 17.816353 
L 76.451562 17.330414 
L 77.466108 16.875821 
L 78.480653 16.450954 
L 79.495199 16.054219 
L 80.509744 15.68406 
L 81.52429 15.338961 
L 82.538835 15.017457 
L 83.553381 14.718134 
L 84.567926 14.439635 
L 85.582472 14.180663 
L 86.597017 13.939976 
L 87.611562 13.716396 
L 88.626108 13.508804 
L 89.640653 13.316139 
L 90.655199 13.137399 
L 91.669744 12.971641 
L 92.68429 12.817973 
L 93.698835 12.67556 
L 94.713381 12.543616 
L 95.727926 12.421405 
L 96.742472 12.308239 
L 97.757017 12.203471 
L 98.771563 12.106501 
L 99.786108 12.016765 
L 100.800653 11.93374 
L 101.815199 11.856937 
L 102.829744 11.785901 
L 103.84429 11.720209 
L 104.858835 11.659466 
L 105.873381 11.603308 
L 106.887926 11.551394 
L 107.902472 11.503409 
L 108.917017 11.459059 
L 109.931563 11.418074 
L 110.946108 11.3802 
L 111.960653 11.345206 
L 112.975199 11.312873 
L 113.989744 11.283002 
L 115.00429 11.255407 
L 116.018835 11.229916 
L 117.033381 11.206369 
L 118.047926 11.18462 
L 119.062472 11.164533 
L 120.077017 11.14598 
L 121.091563 11.128846 
L 122.106108 11.113022 
L 123.120653 11.09841 
L 124.135199 11.084915 
L 125.149744 11.072454 
L 126.16429 11.060948 
L 127.178835 11.050323 
" clip-path="url(#p6eaac52cc0)" style="fill: none; stroke: #d62728; stroke-width: 0.5; stroke-linecap: square"/>
   </g>
   <g id="line2d_17">
    <path d="M 25.72429 64.08036 
L 26.738835 62.742315 
L 27.753381 61.36682 
L 28.767926 59.956858 
L 29.782472 58.515791 
L 30.797017 57.047332 
L 31.811563 55.555513 
L 32.826108 54.044649 
L 33.840653 52.519289 
L 34.855199 50.984162 
L 35.869744 49.444119 
L 36.88429 47.904077 
L 37.898835 46.368949 
L 38.913381 44.843589 
L 39.927926 43.332726 
L 40.942472 41.840907 
L 41.957017 40.372447 
L 42.971563 38.93138 
L 43.986108 37.521419 
L 45.000653 36.145924 
L 46.015199 34.807879 
L 47.029744 33.509875 
L 48.04429 32.254103 
L 49.058835 31.042353 
L 50.073381 29.876018 
L 51.087926 28.756113 
L 52.102472 27.683287 
L 53.117017 26.657848 
L 54.131563 25.679789 
L 55.146108 24.748812 
L 56.160653 23.864363 
L 57.175199 23.02566 
L 58.189744 22.23172 
L 59.20429 21.481393 
L 60.218835 20.773387 
L 61.233381 20.106297 
L 62.247926 19.47863 
L 63.262472 18.888824 
L 64.277017 18.335276 
L 65.291562 17.816353 
L 66.306108 17.330414 
L 67.320653 16.875821 
L 68.335199 16.450954 
L 69.349744 16.054219 
L 70.36429 15.68406 
L 71.378835 15.338961 
L 72.393381 15.017457 
L 73.407926 14.718134 
L 74.422472 14.439635 
L 75.437017 14.180663 
L 76.451562 13.939976 
L 77.466108 13.716396 
L 78.480653 13.508804 
L 79.495199 13.316139 
L 80.509744 13.137399 
L 81.52429 12.971641 
L 82.538835 12.817973 
L 83.553381 12.67556 
L 84.567926 12.543616 
L 85.582472 12.421405 
L 86.597017 12.308239 
L 87.611562 12.203471 
L 88.626108 12.106501 
L 89.640653 12.016765 
L 90.655199 11.93374 
L 91.669744 11.856937 
L 92.68429 11.785901 
L 93.698835 11.720209 
L 94.713381 11.659466 
L 95.727926 11.603308 
L 96.742472 11.551394 
L 97.757017 11.503409 
L 98.771563 11.459059 
L 99.786108 11.418074 
L 100.800653 11.3802 
L 101.815199 11.345206 
L 102.829744 11.312873 
L 103.84429 11.283002 
L 104.858835 11.255407 
L 105.873381 11.229916 
L 106.887926 11.206369 
L 107.902472 11.18462 
L 108.917017 11.164533 
L 109.931563 11.14598 
L 110.946108 11.128846 
L 111.960653 11.113022 
L 112.975199 11.09841 
L 113.989744 11.084915 
L 115.00429 11.072454 
L 116.018835 11.060948 
L 117.033381 11.050323 
L 118.047926 11.040512 
L 119.062472 11.031454 
L 120.077017 11.02309 
L 121.091563 11.015367 
L 122.106108 11.008237 
L 123.120653 11.001654 
L 124.135199 10.995576 
L 125.149744 10.989964 
L 126.16429 10.984783 
L 127.178835 10.98 
" clip-path="url(#p6eaac52cc0)" style="fill: none; stroke: #9467bd; stroke-width: 0.5; stroke-linecap: square"/>
   </g>
   <g id="patch_3">
    <path d="M 20.651563 90.36 
L 20.651563 7.2 
" style="fill: none; stroke: #000000; stroke-width: 0.5; stroke-linejoin: miter; stroke-linecap: square"/>
   </g>
   <g id="patch_4">
    <path d="M 20.651563 90.36 
L 132.251563 90.36 
" style="fill: none; stroke: #000000; stroke-width: 0.5; stroke-linejoin: miter; stroke-linecap: square"/>
   </g>
   <g id="legend_1">
    <g id="text_13">
     <!-- Bias -->
     <g transform="translate(104.082422 48.124844) scale(0.05 -0.05)">
      <defs>
       <path id="DejaVuSans-42" d="M 1259 2228 
L 1259 519 
L 2272 519 
Q 2781 519 3026 730 
Q 3272 941 3272 1375 
Q 3272 1813 3026 2020 
Q 2781 2228 2272 2228 
L 1259 2228 
z
M 1259 4147 
L 1259 2741 
L 2194 2741 
Q 2656 2741 2882 2914 
Q 3109 3088 3109 3444 
Q 3109 3797 2882 3972 
Q 2656 4147 2194 4147 
L 1259 4147 
z
M 628 4666 
L 2241 4666 
Q 2963 4666 3353 4366 
Q 3744 4066 3744 3513 
Q 3744 3084 3544 2831 
Q 3344 2578 2956 2516 
Q 3422 2416 3680 2098 
Q 3938 1781 3938 1306 
Q 3938 681 3513 340 
Q 3088 0 2303 0 
L 628 0 
L 628 4666 
z
" transform="scale(0.015625)"/>
       <path id="DejaVuSans-69" d="M 603 3500 
L 1178 3500 
L 1178 0 
L 603 0 
L 603 3500 
z
M 603 4863 
L 1178 4863 
L 1178 4134 
L 603 4134 
L 603 4863 
z
" transform="scale(0.015625)"/>
       <path id="DejaVuSans-61" d="M 2194 1759 
Q 1497 1759 1228 1600 
Q 959 1441 959 1056 
Q 959 750 1161 570 
Q 1363 391 1709 391 
Q 2188 391 2477 730 
Q 2766 1069 2766 1631 
L 2766 1759 
L 2194 1759 
z
M 3341 1997 
L 3341 0 
L 2766 0 
L 2766 531 
Q 2569 213 2275 61 
Q 1981 -91 1556 -91 
Q 1019 -91 701 211 
Q 384 513 384 1019 
Q 384 1609 779 1909 
Q 1175 2209 1959 2209 
L 2766 2209 
L 2766 2266 
Q 2766 2663 2505 2880 
Q 2244 3097 1772 3097 
Q 1472 3097 1187 3025 
Q 903 2953 641 2809 
L 641 3341 
Q 956 3463 1253 3523 
Q 1550 3584 1831 3584 
Q 2591 3584 2966 3190 
Q 3341 2797 3341 1997 
z
" transform="scale(0.015625)"/>
       <path id="DejaVuSans-73" d="M 2834 3397 
L 2834 2853 
Q 2591 2978 2328 3040 
Q 2066 3103 1784 3103 
Q 1356 3103 1142 2972 
Q 928 2841 928 2578 
Q 928 2378 1081 2264 
Q 1234 2150 1697 2047 
L 1894 2003 
Q 2506 1872 2764 1633 
Q 3022 1394 3022 966 
Q 3022 478 2636 193 
Q 2250 -91 1575 -91 
Q 1294 -91 989 -36 
Q 684 19 347 128 
L 347 722 
Q 666 556 975 473 
Q 1284 391 1588 391 
Q 1994 391 2212 530 
Q 2431 669 2431 922 
Q 2431 1156 2273 1281 
Q 2116 1406 1581 1522 
L 1381 1569 
Q 847 1681 609 1914 
Q 372 2147 372 2553 
Q 372 3047 722 3315 
Q 1072 3584 1716 3584 
Q 2034 3584 2315 3537 
Q 2597 3491 2834 3397 
z
" transform="scale(0.015625)"/>
      </defs>
      <use xlink:href="#DejaVuSans-42"/>
      <use xlink:href="#DejaVuSans-69" x="68.603516"/>
      <use xlink:href="#DejaVuSans-61" x="96.386719"/>
      <use xlink:href="#DejaVuSans-73" x="157.666016"/>
     </g>
    </g>
    <g id="line2d_18">
     <path d="M 90.901562 53.713906 
L 95.901562 53.713906 
L 100.901562 53.713906 
" style="fill: none; stroke: #1f77b4; stroke-width: 0.5; stroke-linecap: square"/>
    </g>
    <g id="text_14">
     <!-- $P_{0.5}=0.5$ -->
     <g transform="translate(104.901562 55.463906) scale(0.05 -0.05)">
      <defs>
       <path id="DejaVuSans-Oblique-50" d="M 1081 4666 
L 2541 4666 
Q 3178 4666 3512 4369 
Q 3847 4072 3847 3500 
Q 3847 2731 3353 2303 
Q 2859 1875 1966 1875 
L 1172 1875 
L 806 0 
L 172 0 
L 1081 4666 
z
M 1613 4147 
L 1275 2394 
L 2069 2394 
Q 2606 2394 2893 2669 
Q 3181 2944 3181 3456 
Q 3181 3784 2986 3965 
Q 2791 4147 2438 4147 
L 1613 4147 
z
" transform="scale(0.015625)"/>
       <path id="DejaVuSans-35" d="M 691 4666 
L 3169 4666 
L 3169 4134 
L 1269 4134 
L 1269 2991 
Q 1406 3038 1543 3061 
Q 1681 3084 1819 3084 
Q 2600 3084 3056 2656 
Q 3513 2228 3513 1497 
Q 3513 744 3044 326 
Q 2575 -91 1722 -91 
Q 1428 -91 1123 -41 
Q 819 9 494 109 
L 494 744 
Q 775 591 1075 516 
Q 1375 441 1709 441 
Q 2250 441 2565 725 
Q 2881 1009 2881 1497 
Q 2881 1984 2565 2268 
Q 2250 2553 1709 2553 
Q 1456 2553 1204 2497 
Q 953 2441 691 2322 
L 691 4666 
z
" transform="scale(0.015625)"/>
       <path id="DejaVuSans-3d" d="M 678 2906 
L 4684 2906 
L 4684 2381 
L 678 2381 
L 678 2906 
z
M 678 1631 
L 4684 1631 
L 4684 1100 
L 678 1100 
L 678 1631 
z
" transform="scale(0.015625)"/>
      </defs>
      <use xlink:href="#DejaVuSans-Oblique-50" transform="translate(0 0.78125)"/>
      <use xlink:href="#DejaVuSans-30" transform="translate(60.302734 -15.625) scale(0.7)"/>
      <use xlink:href="#DejaVuSans-2e" transform="translate(104.838867 -15.625) scale(0.7)"/>
      <use xlink:href="#DejaVuSans-35" transform="translate(127.089844 -15.625) scale(0.7)"/>
      <use xlink:href="#DejaVuSans-3d" transform="translate(193.842773 0.78125)"/>
      <use xlink:href="#DejaVuSans-30" transform="translate(297.114258 0.78125)"/>
      <use xlink:href="#DejaVuSans-2e" transform="translate(360.737305 0.78125)"/>
      <use xlink:href="#DejaVuSans-35" transform="translate(392.524414 0.78125)"/>
     </g>
    </g>
    <g id="line2d_19">
     <path d="M 90.901562 61.052969 
L 95.901562 61.052969 
L 100.901562 61.052969 
" style="fill: none; stroke: #ff7f0e; stroke-width: 0.5; stroke-linecap: square"/>
    </g>
    <g id="text_15">
     <!-- $P_{0.5}=0.4$ -->
     <g transform="translate(104.901562 62.802969) scale(0.05 -0.05)">
      <use xlink:href="#DejaVuSans-Oblique-50" transform="translate(0 0.78125)"/>
      <use xlink:href="#DejaVuSans-30" transform="translate(60.302734 -15.625) scale(0.7)"/>
      <use xlink:href="#DejaVuSans-2e" transform="translate(104.838867 -15.625) scale(0.7)"/>
      <use xlink:href="#DejaVuSans-35" transform="translate(127.089844 -15.625) scale(0.7)"/>
      <use xlink:href="#DejaVuSans-3d" transform="translate(193.842773 0.78125)"/>
      <use xlink:href="#DejaVuSans-30" transform="translate(297.114258 0.78125)"/>
      <use xlink:href="#DejaVuSans-2e" transform="translate(360.737305 0.78125)"/>
      <use xlink:href="#DejaVuSans-34" transform="translate(392.524414 0.78125)"/>
     </g>
    </g>
    <g id="line2d_20">
     <path d="M 90.901562 68.392031 
L 95.901562 68.392031 
L 100.901562 68.392031 
" style="fill: none; stroke: #2ca02c; stroke-width: 0.5; stroke-linecap: square"/>
    </g>
    <g id="text_16">
     <!-- $P_{0.5}=0.3$ -->
     <g transform="translate(104.901562 70.142031) scale(0.05 -0.05)">
      <defs>
       <path id="DejaVuSans-33" d="M 2597 2516 
Q 3050 2419 3304 2112 
Q 3559 1806 3559 1356 
Q 3559 666 3084 287 
Q 2609 -91 1734 -91 
Q 1441 -91 1130 -33 
Q 819 25 488 141 
L 488 750 
Q 750 597 1062 519 
Q 1375 441 1716 441 
Q 2309 441 2620 675 
Q 2931 909 2931 1356 
Q 2931 1769 2642 2001 
Q 2353 2234 1838 2234 
L 1294 2234 
L 1294 2753 
L 1863 2753 
Q 2328 2753 2575 2939 
Q 2822 3125 2822 3475 
Q 2822 3834 2567 4026 
Q 2313 4219 1838 4219 
Q 1578 4219 1281 4162 
Q 984 4106 628 3988 
L 628 4550 
Q 988 4650 1302 4700 
Q 1616 4750 1894 4750 
Q 2613 4750 3031 4423 
Q 3450 4097 3450 3541 
Q 3450 3153 3228 2886 
Q 3006 2619 2597 2516 
z
" transform="scale(0.015625)"/>
      </defs>
      <use xlink:href="#DejaVuSans-Oblique-50" transform="translate(0 0.78125)"/>
      <use xlink:href="#DejaVuSans-30" transform="translate(60.302734 -15.625) scale(0.7)"/>
      <use xlink:href="#DejaVuSans-2e" transform="translate(104.838867 -15.625) scale(0.7)"/>
      <use xlink:href="#DejaVuSans-35" transform="translate(127.089844 -15.625) scale(0.7)"/>
      <use xlink:href="#DejaVuSans-3d" transform="translate(193.842773 0.78125)"/>
      <use xlink:href="#DejaVuSans-30" transform="translate(297.114258 0.78125)"/>
      <use xlink:href="#DejaVuSans-2e" transform="translate(360.737305 0.78125)"/>
      <use xlink:href="#DejaVuSans-33" transform="translate(392.524414 0.78125)"/>
     </g>
    </g>
    <g id="line2d_21">
     <path d="M 90.901562 75.731094 
L 95.901562 75.731094 
L 100.901562 75.731094 
" style="fill: none; stroke: #d62728; stroke-width: 0.5; stroke-linecap: square"/>
    </g>
    <g id="text_17">
     <!-- $P_{0.5}=0.2$ -->
     <g transform="translate(104.901562 77.481094) scale(0.05 -0.05)">
      <use xlink:href="#DejaVuSans-Oblique-50" transform="translate(0 0.78125)"/>
      <use xlink:href="#DejaVuSans-30" transform="translate(60.302734 -15.625) scale(0.7)"/>
      <use xlink:href="#DejaVuSans-2e" transform="translate(104.838867 -15.625) scale(0.7)"/>
      <use xlink:href="#DejaVuSans-35" transform="translate(127.089844 -15.625) scale(0.7)"/>
      <use xlink:href="#DejaVuSans-3d" transform="translate(193.842773 0.78125)"/>
      <use xlink:href="#DejaVuSans-30" transform="translate(297.114258 0.78125)"/>
      <use xlink:href="#DejaVuSans-2e" transform="translate(360.737305 0.78125)"/>
      <use xlink:href="#DejaVuSans-32" transform="translate(387.024414 0.78125)"/>
     </g>
    </g>
    <g id="line2d_22">
     <path d="M 90.901562 83.070156 
L 95.901562 83.070156 
L 100.901562 83.070156 
" style="fill: none; stroke: #9467bd; stroke-width: 0.5; stroke-linecap: square"/>
    </g>
    <g id="text_18">
     <!-- $P_{0.5}=0.1$ -->
     <g transform="translate(104.901562 84.820156) scale(0.05 -0.05)">
      <use xlink:href="#DejaVuSans-Oblique-50" transform="translate(0 0.78125)"/>
      <use xlink:href="#DejaVuSans-30" transform="translate(60.302734 -15.625) scale(0.7)"/>
      <use xlink:href="#DejaVuSans-2e" transform="translate(104.838867 -15.625) scale(0.7)"/>
      <use xlink:href="#DejaVuSans-35" transform="translate(127.089844 -15.625) scale(0.7)"/>
      <use xlink:href="#DejaVuSans-3d" transform="translate(193.842773 0.78125)"/>
      <use xlink:href="#DejaVuSans-30" transform="translate(297.114258 0.78125)"/>
      <use xlink:href="#DejaVuSans-2e" transform="translate(360.737305 0.78125)"/>
      <use xlink:href="#DejaVuSans-31" transform="translate(392.524414 0.78125)"/>
     </g>
    </g>
   </g>
  </g>
 </g>
 <defs>
  <clipPath id="p6eaac52cc0">
   <rect x="20.651563" y="7.2" width="111.6" height="83.16"/>
  </clipPath>
 </defs>
</svg>
