<?xml version="1.0" encoding="utf-8" standalone="no"?>
<!DOCTYPE svg PUBLIC "-//W3C//DTD SVG 1.1//EN"
  "http://www.w3.org/Graphics/SVG/1.1/DTD/svg11.dtd">
<svg xmlns:xlink="http://www.w3.org/1999/xlink" width="208.849687pt" height="122.445156pt" viewBox="0 0 208.849687 122.445156" xmlns="http://www.w3.org/2000/svg" version="1.1">
 <metadata>
  <rdf:RDF xmlns:dc="http://purl.org/dc/elements/1.1/" xmlns:cc="http://creativecommons.org/ns#" xmlns:rdf="http://www.w3.org/1999/02/22-rdf-syntax-ns#">
   <cc:Work>
    <dc:type rdf:resource="http://purl.org/dc/dcmitype/StillImage"/>
    <dc:date>2026-04-22T14:53:55.522803</dc:date>
    <dc:format>image/svg+xml</dc:format>
    <dc:creator>
     <cc:Agent>
      <dc:title>Matplotlib v3.6.2, https://matplotlib.org/</dc:title>
     </cc:Agent>
    </dc:creator>
   </cc:Work>
  </rdf:RDF>
 </metadata>
 <defs>
  <style type="text/css">*{stroke-linejoin: round; stroke-linecap: butt}</style>
 </defs>
 <g id="figure_1">
  <g id="patch_1">
   <path d="M -0 122.445156 
L 208.849687 122.445156 
L 208.849687 0 
L -0 0 
z
" style="fill: #ffffff"/>
  </g>
  <g id="axes_1">
   <g id="patch_2">
    <path d="M 33.639688 95.099219 
L 201.649687 95.099219 
L 201.649687 13.999219 
L 33.639688 13.999219 
z
" style="fill: #ffffff"/>
   </g>
   <g id="matplotlib.axis_1">
    <g id="xtick_1">
     <g id="line2d_1">
      <defs>
       <path id="mbb694c108c" d="M 0 0 
L 0 2 
" style="stroke: #000000; stroke-width: 0.5"/>
      </defs>
      <g>
       <use xlink:href="#mbb694c108c" x="41.276506" y="95.099219" style="stroke: #000000; stroke-width: 0.5"/>
      </g>
     </g>
     <g id="text_1">
      <!-- 0.0 -->
      <g transform="translate(37.300724 104.398437) scale(0.05 -0.05)">
       <defs>
        <path id="DejaVuSans-30" d="M 2034 4250 
Q 1547 4250 1301 3770 
Q 1056 3291 1056 2328 
Q 1056 1369 1301 889 
Q 1547 409 2034 409 
Q 2525 409 2770 889 
Q 3016 1369 3016 2328 
Q 3016 3291 2770 3770 
Q 2525 4250 2034 4250 
z
M 2034 4750 
Q 2819 4750 3233 4129 
Q 3647 3509 3647 2328 
Q 3647 1150 3233 529 
Q 2819 -91 2034 -91 
Q 1250 -91 836 529 
Q 422 1150 422 2328 
Q 422 3509 836 4129 
Q 1250 4750 2034 4750 
z
" transform="scale(0.015625)"/>
        <path id="DejaVuSans-2e" d="M 684 794 
L 1344 794 
L 1344 0 
L 684 0 
L 684 794 
z
" transform="scale(0.015625)"/>
       </defs>
       <use xlink:href="#DejaVuSans-30"/>
       <use xlink:href="#DejaVuSans-2e" x="63.623047"/>
       <use xlink:href="#DejaVuSans-30" x="95.410156"/>
      </g>
     </g>
    </g>
    <g id="xtick_2">
     <g id="line2d_2">
      <g>
       <use xlink:href="#mbb694c108c" x="71.823778" y="95.099219" style="stroke: #000000; stroke-width: 0.5"/>
      </g>
     </g>
     <g id="text_2">
      <!-- 0.2 -->
      <g transform="translate(67.847997 104.398437) scale(0.05 -0.05)">
       <defs>
        <path id="DejaVuSans-32" d="M 1228 531 
L 3431 531 
L 3431 0 
L 469 0 
L 469 531 
Q 828 903 1448 1529 
Q 2069 2156 2228 2338 
Q 2531 2678 2651 2914 
Q 2772 3150 2772 3378 
Q 2772 3750 2511 3984 
Q 2250 4219 1831 4219 
Q 1534 4219 1204 4116 
Q 875 4013 500 3803 
L 500 4441 
Q 881 4594 1212 4672 
Q 1544 4750 1819 4750 
Q 2544 4750 2975 4387 
Q 3406 4025 3406 3419 
Q 3406 3131 3298 2873 
Q 3191 2616 2906 2266 
Q 2828 2175 2409 1742 
Q 1991 1309 1228 531 
z
" transform="scale(0.015625)"/>
       </defs>
       <use xlink:href="#DejaVuSans-30"/>
       <use xlink:href="#DejaVuSans-2e" x="63.623047"/>
       <use xlink:href="#DejaVuSans-32" x="95.410156"/>
      </g>
     </g>
    </g>
    <g id="xtick_3">
     <g id="line2d_3">
      <g>
       <use xlink:href="#mbb694c108c" x="102.371051" y="95.099219" style="stroke: #000000; stroke-width: 0.5"/>
      </g>
     </g>
     <g id="text_3">
      <!-- 0.4 -->
      <g transform="translate(98.39527 104.398437) scale(0.05 -0.05)">
       <defs>
        <path id="DejaVuSans-34" d="M 2419 4116 
L 825 1625 
L 2419 1625 
L 2419 4116 
z
M 2253 4666 
L 3047 4666 
L 3047 1625 
L 3713 1625 
L 3713 1100 
L 3047 1100 
L 3047 0 
L 2419 0 
L 2419 1100 
L 313 1100 
L 313 1709 
L 2253 4666 
z
" transform="scale(0.015625)"/>
       </defs>
       <use xlink:href="#DejaVuSans-30"/>
       <use xlink:href="#DejaVuSans-2e" x="63.623047"/>
       <use xlink:href="#DejaVuSans-34" x="95.410156"/>
      </g>
     </g>
    </g>
    <g id="xtick_4">
     <g id="line2d_4">
      <g>
       <use xlink:href="#mbb694c108c" x="132.918324" y="95.099219" style="stroke: #000000; stroke-width: 0.5"/>
      </g>
     </g>
     <g id="text_4">
      <!-- 0.6 -->
      <g transform="translate(128.942543 104.398437) scale(0.05 -0.05)">
       <defs>
        <path id="DejaVuSans-36" d="M 2113 2584 
Q 1688 2584 1439 2293 
Q 1191 2003 1191 1497 
Q 1191 994 1439 701 
Q 1688 409 2113 409 
Q 2538 409 2786 701 
Q 3034 994 3034 1497 
Q 3034 2003 2786 2293 
Q 2538 2584 2113 2584 
z
M 3366 4563 
L 3366 3988 
Q 3128 4100 2886 4159 
Q 2644 4219 2406 4219 
Q 1781 4219 1451 3797 
Q 1122 3375 1075 2522 
Q 1259 2794 1537 2939 
Q 1816 3084 2150 3084 
Q 2853 3084 3261 2657 
Q 3669 2231 3669 1497 
Q 3669 778 3244 343 
Q 2819 -91 2113 -91 
Q 1303 -91 875 529 
Q 447 1150 447 2328 
Q 447 3434 972 4092 
Q 1497 4750 2381 4750 
Q 2619 4750 2861 4703 
Q 3103 4656 3366 4563 
z
" transform="scale(0.015625)"/>
       </defs>
       <use xlink:href="#DejaVuSans-30"/>
       <use xlink:href="#DejaVuSans-2e" x="63.623047"/>
       <use xlink:href="#DejaVuSans-36" x="95.410156"/>
      </g>
     </g>
    </g>
    <g id="xtick_5">
     <g id="line2d_5">
      <g>
       <use xlink:href="#mbb694c108c" x="163.465597" y="95.099219" style="stroke: #000000; stroke-width: 0.5"/>
      </g>
     </g>
     <g id="text_5">
      <!-- 0.8 -->
      <g transform="translate(159.489815 104.398437) scale(0.05 -0.05)">
       <defs>
        <path id="DejaVuSans-38" d="M 2034 2216 
Q 1584 2216 1326 1975 
Q 1069 1734 1069 1313 
Q 1069 891 1326 650 
Q 1584 409 2034 409 
Q 2484 409 2743 651 
Q 3003 894 3003 1313 
Q 3003 1734 2745 1975 
Q 2488 2216 2034 2216 
z
M 1403 2484 
Q 997 2584 770 2862 
Q 544 3141 544 3541 
Q 544 4100 942 4425 
Q 1341 4750 2034 4750 
Q 2731 4750 3128 4425 
Q 3525 4100 3525 3541 
Q 3525 3141 3298 2862 
Q 3072 2584 2669 2484 
Q 3125 2378 3379 2068 
Q 3634 1759 3634 1313 
Q 3634 634 3220 271 
Q 2806 -91 2034 -91 
Q 1263 -91 848 271 
Q 434 634 434 1313 
Q 434 1759 690 2068 
Q 947 2378 1403 2484 
z
M 1172 3481 
Q 1172 3119 1398 2916 
Q 1625 2713 2034 2713 
Q 2441 2713 2670 2916 
Q 2900 3119 2900 3481 
Q 2900 3844 2670 4047 
Q 2441 4250 2034 4250 
Q 1625 4250 1398 4047 
Q 1172 3844 1172 3481 
z
" transform="scale(0.015625)"/>
       </defs>
       <use xlink:href="#DejaVuSans-30"/>
       <use xlink:href="#DejaVuSans-2e" x="63.623047"/>
       <use xlink:href="#DejaVuSans-38" x="95.410156"/>
      </g>
     </g>
    </g>
    <g id="xtick_6">
     <g id="line2d_6">
      <g>
       <use xlink:href="#mbb694c108c" x="194.012869" y="95.099219" style="stroke: #000000; stroke-width: 0.5"/>
      </g>
     </g>
     <g id="text_6">
      <!-- 1.0 -->
      <g transform="translate(190.037088 104.398437) scale(0.05 -0.05)">
       <defs>
        <path id="DejaVuSans-31" d="M 794 531 
L 1825 531 
L 1825 4091 
L 703 3866 
L 703 4441 
L 1819 4666 
L 2450 4666 
L 2450 531 
L 3481 531 
L 3481 0 
L 794 0 
L 794 531 
z
" transform="scale(0.015625)"/>
       </defs>
       <use xlink:href="#DejaVuSans-31"/>
       <use xlink:href="#DejaVuSans-2e" x="63.623047"/>
       <use xlink:href="#DejaVuSans-30" x="95.410156"/>
      </g>
     </g>
    </g>
    <g id="text_7">
     <!-- I(X;R) -->
     <g transform="translate(109.268594 113.997344) scale(0.06 -0.06)">
      <defs>
       <path id="DejaVuSans-49" d="M 628 4666 
L 1259 4666 
L 1259 0 
L 628 0 
L 628 4666 
z
" transform="scale(0.015625)"/>
       <path id="DejaVuSans-28" d="M 1984 4856 
Q 1566 4138 1362 3434 
Q 1159 2731 1159 2009 
Q 1159 1288 1364 580 
Q 1569 -128 1984 -844 
L 1484 -844 
Q 1016 -109 783 600 
Q 550 1309 550 2009 
Q 550 2706 781 3412 
Q 1013 4119 1484 4856 
L 1984 4856 
z
" transform="scale(0.015625)"/>
       <path id="DejaVuSans-58" d="M 403 4666 
L 1081 4666 
L 2241 2931 
L 3406 4666 
L 4084 4666 
L 2584 2425 
L 4184 0 
L 3506 0 
L 2194 1984 
L 872 0 
L 191 0 
L 1856 2491 
L 403 4666 
z
" transform="scale(0.015625)"/>
       <path id="DejaVuSans-3b" d="M 750 3309 
L 1409 3309 
L 1409 2516 
L 750 2516 
L 750 3309 
z
M 750 794 
L 1409 794 
L 1409 256 
L 897 -744 
L 494 -744 
L 750 256 
L 750 794 
z
" transform="scale(0.015625)"/>
       <path id="DejaVuSans-52" d="M 2841 2188 
Q 3044 2119 3236 1894 
Q 3428 1669 3622 1275 
L 4263 0 
L 3584 0 
L 2988 1197 
Q 2756 1666 2539 1819 
Q 2322 1972 1947 1972 
L 1259 1972 
L 1259 0 
L 628 0 
L 628 4666 
L 2053 4666 
Q 2853 4666 3247 4331 
Q 3641 3997 3641 3322 
Q 3641 2881 3436 2590 
Q 3231 2300 2841 2188 
z
M 1259 4147 
L 1259 2491 
L 2053 2491 
Q 2509 2491 2742 2702 
Q 2975 2913 2975 3322 
Q 2975 3731 2742 3939 
Q 2509 4147 2053 4147 
L 1259 4147 
z
" transform="scale(0.015625)"/>
       <path id="DejaVuSans-29" d="M 513 4856 
L 1013 4856 
Q 1481 4119 1714 3412 
Q 1947 2706 1947 2009 
Q 1947 1309 1714 600 
Q 1481 -109 1013 -844 
L 513 -844 
Q 928 -128 1133 580 
Q 1338 1288 1338 2009 
Q 1338 2731 1133 3434 
Q 928 4138 513 4856 
z
" transform="scale(0.015625)"/>
      </defs>
      <use xlink:href="#DejaVuSans-49"/>
      <use xlink:href="#DejaVuSans-28" x="29.492188"/>
      <use xlink:href="#DejaVuSans-58" x="68.505859"/>
      <use xlink:href="#DejaVuSans-3b" x="137.011719"/>
      <use xlink:href="#DejaVuSans-52" x="170.703125"/>
      <use xlink:href="#DejaVuSans-29" x="240.185547"/>
     </g>
    </g>
   </g>
   <g id="matplotlib.axis_2">
    <g id="ytick_1">
     <g id="line2d_7">
      <defs>
       <path id="mb4725c3c71" d="M 0 0 
L -2 0 
" style="stroke: #000000; stroke-width: 0.5"/>
      </defs>
      <g>
       <use xlink:href="#mb4725c3c71" x="33.639688" y="91.412855" style="stroke: #000000; stroke-width: 0.5"/>
      </g>
     </g>
     <g id="text_8">
      <!-- 0.00 -->
      <g transform="translate(17.006875 93.312464) scale(0.05 -0.05)">
       <use xlink:href="#DejaVuSans-30"/>
       <use xlink:href="#DejaVuSans-2e" x="63.623047"/>
       <use xlink:href="#DejaVuSans-30" x="95.410156"/>
       <use xlink:href="#DejaVuSans-30" x="159.033203"/>
      </g>
     </g>
    </g>
    <g id="ytick_2">
     <g id="line2d_8">
      <g>
       <use xlink:href="#mb4725c3c71" x="33.639688" y="80.90532" style="stroke: #000000; stroke-width: 0.5"/>
      </g>
     </g>
     <g id="text_9">
      <!-- 0.25 -->
      <g transform="translate(17.006875 82.804929) scale(0.05 -0.05)">
       <defs>
        <path id="DejaVuSans-35" d="M 691 4666 
L 3169 4666 
L 3169 4134 
L 1269 4134 
L 1269 2991 
Q 1406 3038 1543 3061 
Q 1681 3084 1819 3084 
Q 2600 3084 3056 2656 
Q 3513 2228 3513 1497 
Q 3513 744 3044 326 
Q 2575 -91 1722 -91 
Q 1428 -91 1123 -41 
Q 819 9 494 109 
L 494 744 
Q 775 591 1075 516 
Q 1375 441 1709 441 
Q 2250 441 2565 725 
Q 2881 1009 2881 1497 
Q 2881 1984 2565 2268 
Q 2250 2553 1709 2553 
Q 1456 2553 1204 2497 
Q 953 2441 691 2322 
L 691 4666 
z
" transform="scale(0.015625)"/>
       </defs>
       <use xlink:href="#DejaVuSans-30"/>
       <use xlink:href="#DejaVuSans-2e" x="63.623047"/>
       <use xlink:href="#DejaVuSans-32" x="95.410156"/>
       <use xlink:href="#DejaVuSans-35" x="159.033203"/>
      </g>
     </g>
    </g>
    <g id="ytick_3">
     <g id="line2d_9">
      <g>
       <use xlink:href="#mb4725c3c71" x="33.639688" y="70.397784" style="stroke: #000000; stroke-width: 0.5"/>
      </g>
     </g>
     <g id="text_10">
      <!-- 0.50 -->
      <g transform="translate(17.006875 72.297394) scale(0.05 -0.05)">
       <use xlink:href="#DejaVuSans-30"/>
       <use xlink:href="#DejaVuSans-2e" x="63.623047"/>
       <use xlink:href="#DejaVuSans-35" x="95.410156"/>
       <use xlink:href="#DejaVuSans-30" x="159.033203"/>
      </g>
     </g>
    </g>
    <g id="ytick_4">
     <g id="line2d_10">
      <g>
       <use xlink:href="#mb4725c3c71" x="33.639688" y="59.890249" style="stroke: #000000; stroke-width: 0.5"/>
      </g>
     </g>
     <g id="text_11">
      <!-- 0.75 -->
      <g transform="translate(17.006875 61.789858) scale(0.05 -0.05)">
       <defs>
        <path id="DejaVuSans-37" d="M 525 4666 
L 3525 4666 
L 3525 4397 
L 1831 0 
L 1172 0 
L 2766 4134 
L 525 4134 
L 525 4666 
z
" transform="scale(0.015625)"/>
       </defs>
       <use xlink:href="#DejaVuSans-30"/>
       <use xlink:href="#DejaVuSans-2e" x="63.623047"/>
       <use xlink:href="#DejaVuSans-37" x="95.410156"/>
       <use xlink:href="#DejaVuSans-35" x="159.033203"/>
      </g>
     </g>
    </g>
    <g id="ytick_5">
     <g id="line2d_11">
      <g>
       <use xlink:href="#mb4725c3c71" x="33.639688" y="49.382714" style="stroke: #000000; stroke-width: 0.5"/>
      </g>
     </g>
     <g id="text_12">
      <!-- 1.00 -->
      <g transform="translate(17.006875 51.282323) scale(0.05 -0.05)">
       <use xlink:href="#DejaVuSans-31"/>
       <use xlink:href="#DejaVuSans-2e" x="63.623047"/>
       <use xlink:href="#DejaVuSans-30" x="95.410156"/>
       <use xlink:href="#DejaVuSans-30" x="159.033203"/>
      </g>
     </g>
    </g>
    <g id="ytick_6">
     <g id="line2d_12">
      <g>
       <use xlink:href="#mb4725c3c71" x="33.639688" y="38.875178" style="stroke: #000000; stroke-width: 0.5"/>
      </g>
     </g>
     <g id="text_13">
      <!-- 1.25 -->
      <g transform="translate(17.006875 40.774788) scale(0.05 -0.05)">
       <use xlink:href="#DejaVuSans-31"/>
       <use xlink:href="#DejaVuSans-2e" x="63.623047"/>
       <use xlink:href="#DejaVuSans-32" x="95.410156"/>
       <use xlink:href="#DejaVuSans-35" x="159.033203"/>
      </g>
     </g>
    </g>
    <g id="ytick_7">
     <g id="line2d_13">
      <g>
       <use xlink:href="#mb4725c3c71" x="33.639688" y="28.367643" style="stroke: #000000; stroke-width: 0.5"/>
      </g>
     </g>
     <g id="text_14">
      <!-- 1.50 -->
      <g transform="translate(17.006875 30.267252) scale(0.05 -0.05)">
       <use xlink:href="#DejaVuSans-31"/>
       <use xlink:href="#DejaVuSans-2e" x="63.623047"/>
       <use xlink:href="#DejaVuSans-35" x="95.410156"/>
       <use xlink:href="#DejaVuSans-30" x="159.033203"/>
      </g>
     </g>
    </g>
    <g id="ytick_8">
     <g id="line2d_14">
      <g>
       <use xlink:href="#mb4725c3c71" x="33.639688" y="17.860107" style="stroke: #000000; stroke-width: 0.5"/>
      </g>
     </g>
     <g id="text_15">
      <!-- 1.75 -->
      <g transform="translate(17.006875 19.759717) scale(0.05 -0.05)">
       <use xlink:href="#DejaVuSans-31"/>
       <use xlink:href="#DejaVuSans-2e" x="63.623047"/>
       <use xlink:href="#DejaVuSans-37" x="95.410156"/>
       <use xlink:href="#DejaVuSans-35" x="159.033203"/>
      </g>
     </g>
    </g>
    <g id="text_16">
     <!-- Max difference -->
     <g transform="translate(11.759062 76.809687) rotate(-90) scale(0.06 -0.06)">
      <defs>
       <path id="DejaVuSans-4d" d="M 628 4666 
L 1569 4666 
L 2759 1491 
L 3956 4666 
L 4897 4666 
L 4897 0 
L 4281 0 
L 4281 4097 
L 3078 897 
L 2444 897 
L 1241 4097 
L 1241 0 
L 628 0 
L 628 4666 
z
" transform="scale(0.015625)"/>
       <path id="DejaVuSans-61" d="M 2194 1759 
Q 1497 1759 1228 1600 
Q 959 1441 959 1056 
Q 959 750 1161 570 
Q 1363 391 1709 391 
Q 2188 391 2477 730 
Q 2766 1069 2766 1631 
L 2766 1759 
L 2194 1759 
z
M 3341 1997 
L 3341 0 
L 2766 0 
L 2766 531 
Q 2569 213 2275 61 
Q 1981 -91 1556 -91 
Q 1019 -91 701 211 
Q 384 513 384 1019 
Q 384 1609 779 1909 
Q 1175 2209 1959 2209 
L 2766 2209 
L 2766 2266 
Q 2766 2663 2505 2880 
Q 2244 3097 1772 3097 
Q 1472 3097 1187 3025 
Q 903 2953 641 2809 
L 641 3341 
Q 956 3463 1253 3523 
Q 1550 3584 1831 3584 
Q 2591 3584 2966 3190 
Q 3341 2797 3341 1997 
z
" transform="scale(0.015625)"/>
       <path id="DejaVuSans-78" d="M 3513 3500 
L 2247 1797 
L 3578 0 
L 2900 0 
L 1881 1375 
L 863 0 
L 184 0 
L 1544 1831 
L 300 3500 
L 978 3500 
L 1906 2253 
L 2834 3500 
L 3513 3500 
z
" transform="scale(0.015625)"/>
       <path id="DejaVuSans-20" transform="scale(0.015625)"/>
       <path id="DejaVuSans-64" d="M 2906 2969 
L 2906 4863 
L 3481 4863 
L 3481 0 
L 2906 0 
L 2906 525 
Q 2725 213 2448 61 
Q 2172 -91 1784 -91 
Q 1150 -91 751 415 
Q 353 922 353 1747 
Q 353 2572 751 3078 
Q 1150 3584 1784 3584 
Q 2172 3584 2448 3432 
Q 2725 3281 2906 2969 
z
M 947 1747 
Q 947 1113 1208 752 
Q 1469 391 1925 391 
Q 2381 391 2643 752 
Q 2906 1113 2906 1747 
Q 2906 2381 2643 2742 
Q 2381 3103 1925 3103 
Q 1469 3103 1208 2742 
Q 947 2381 947 1747 
z
" transform="scale(0.015625)"/>
       <path id="DejaVuSans-69" d="M 603 3500 
L 1178 3500 
L 1178 0 
L 603 0 
L 603 3500 
z
M 603 4863 
L 1178 4863 
L 1178 4134 
L 603 4134 
L 603 4863 
z
" transform="scale(0.015625)"/>
       <path id="DejaVuSans-66" d="M 2375 4863 
L 2375 4384 
L 1825 4384 
Q 1516 4384 1395 4259 
Q 1275 4134 1275 3809 
L 1275 3500 
L 2222 3500 
L 2222 3053 
L 1275 3053 
L 1275 0 
L 697 0 
L 697 3053 
L 147 3053 
L 147 3500 
L 697 3500 
L 697 3744 
Q 697 4328 969 4595 
Q 1241 4863 1831 4863 
L 2375 4863 
z
" transform="scale(0.015625)"/>
       <path id="DejaVuSans-65" d="M 3597 1894 
L 3597 1613 
L 953 1613 
Q 991 1019 1311 708 
Q 1631 397 2203 397 
Q 2534 397 2845 478 
Q 3156 559 3463 722 
L 3463 178 
Q 3153 47 2828 -22 
Q 2503 -91 2169 -91 
Q 1331 -91 842 396 
Q 353 884 353 1716 
Q 353 2575 817 3079 
Q 1281 3584 2069 3584 
Q 2775 3584 3186 3129 
Q 3597 2675 3597 1894 
z
M 3022 2063 
Q 3016 2534 2758 2815 
Q 2500 3097 2075 3097 
Q 1594 3097 1305 2825 
Q 1016 2553 972 2059 
L 3022 2063 
z
" transform="scale(0.015625)"/>
       <path id="DejaVuSans-72" d="M 2631 2963 
Q 2534 3019 2420 3045 
Q 2306 3072 2169 3072 
Q 1681 3072 1420 2755 
Q 1159 2438 1159 1844 
L 1159 0 
L 581 0 
L 581 3500 
L 1159 3500 
L 1159 2956 
Q 1341 3275 1631 3429 
Q 1922 3584 2338 3584 
Q 2397 3584 2469 3576 
Q 2541 3569 2628 3553 
L 2631 2963 
z
" transform="scale(0.015625)"/>
       <path id="DejaVuSans-6e" d="M 3513 2113 
L 3513 0 
L 2938 0 
L 2938 2094 
Q 2938 2591 2744 2837 
Q 2550 3084 2163 3084 
Q 1697 3084 1428 2787 
Q 1159 2491 1159 1978 
L 1159 0 
L 581 0 
L 581 3500 
L 1159 3500 
L 1159 2956 
Q 1366 3272 1645 3428 
Q 1925 3584 2291 3584 
Q 2894 3584 3203 3211 
Q 3513 2838 3513 2113 
z
" transform="scale(0.015625)"/>
       <path id="DejaVuSans-63" d="M 3122 3366 
L 3122 2828 
Q 2878 2963 2633 3030 
Q 2388 3097 2138 3097 
Q 1578 3097 1268 2742 
Q 959 2388 959 1747 
Q 959 1106 1268 751 
Q 1578 397 2138 397 
Q 2388 397 2633 464 
Q 2878 531 3122 666 
L 3122 134 
Q 2881 22 2623 -34 
Q 2366 -91 2075 -91 
Q 1284 -91 818 406 
Q 353 903 353 1747 
Q 353 2603 823 3093 
Q 1294 3584 2113 3584 
Q 2378 3584 2631 3529 
Q 2884 3475 3122 3366 
z
" transform="scale(0.015625)"/>
      </defs>
      <use xlink:href="#DejaVuSans-4d"/>
      <use xlink:href="#DejaVuSans-61" x="86.279297"/>
      <use xlink:href="#DejaVuSans-78" x="147.558594"/>
      <use xlink:href="#DejaVuSans-20" x="206.738281"/>
      <use xlink:href="#DejaVuSans-64" x="238.525391"/>
      <use xlink:href="#DejaVuSans-69" x="302.001953"/>
      <use xlink:href="#DejaVuSans-66" x="329.785156"/>
      <use xlink:href="#DejaVuSans-66" x="364.990234"/>
      <use xlink:href="#DejaVuSans-65" x="400.195312"/>
      <use xlink:href="#DejaVuSans-72" x="461.71875"/>
      <use xlink:href="#DejaVuSans-65" x="500.582031"/>
      <use xlink:href="#DejaVuSans-6e" x="562.105469"/>
      <use xlink:href="#DejaVuSans-63" x="625.484375"/>
      <use xlink:href="#DejaVuSans-65" x="680.464844"/>
     </g>
    </g>
    <g id="text_17">
     <!-- 1e−14 -->
     <g transform="translate(33.639688 10.999219) scale(0.05 -0.05)">
      <defs>
       <path id="DejaVuSans-2212" d="M 678 2272 
L 4684 2272 
L 4684 1741 
L 678 1741 
L 678 2272 
z
" transform="scale(0.015625)"/>
      </defs>
      <use xlink:href="#DejaVuSans-31"/>
      <use xlink:href="#DejaVuSans-65" x="63.623047"/>
      <use xlink:href="#DejaVuSans-2212" x="125.146484"/>
      <use xlink:href="#DejaVuSans-31" x="208.935547"/>
      <use xlink:href="#DejaVuSans-34" x="272.558594"/>
     </g>
    </g>
   </g>
   <g id="line2d_15">
    <path d="M 41.306586 17.685582 
L 41.546785 63.881785 
L 41.756309 54.08259 
L 42.024809 69.481325 
L 42.351628 41.950254 
L 42.73597 51.282821 
L 43.176904 87.2132 
L 43.673376 89.546342 
L 44.224205 69.947953 
L 44.828101 65.748298 
L 45.483661 65.748298 
L 46.189388 79.747147 
L 46.943691 20.951981 
L 47.744895 70.88121 
L 48.591256 81.613661 
L 49.480959 88.146457 
L 50.412137 84.880059 
L 51.382874 67.148183 
L 52.391217 68.548068 
L 53.435181 81.147032 
L 54.512763 59.215502 
L 55.621945 83.013546 
L 56.760703 54.08259 
L 57.927019 70.414581 
L 59.11888 84.41343 
L 60.334293 70.88121 
L 61.571286 62.948528 
L 62.827915 83.946802 
L 64.102272 66.214926 
L 65.392484 69.947953 
L 66.696725 67.614811 
L 68.013212 86.746572 
L 69.340215 84.880059 
L 70.676057 90.479598 
L 72.019115 82.080289 
L 73.367826 89.546342 
L 74.720685 90.479598 
L 76.076249 71.814466 
L 77.433135 86.279944 
L 78.790024 91.412855 
L 80.145659 80.213776 
L 81.498846 82.546917 
L 82.848453 76.947378 
L 84.193409 55.015847 
L 85.532706 78.347262 
L 86.865394 79.280519 
L 88.190583 90.479598 
L 89.507441 80.680404 
L 90.81519 83.480174 
L 92.113111 89.079714 
L 93.400534 90.479598 
L 94.676842 83.480174 
L 95.941469 90.01297 
L 97.193895 91.412855 
L 98.433647 86.279944 
L 99.660296 85.346687 
L 100.873455 87.2132 
L 102.072778 85.813315 
L 103.257958 90.946227 
L 104.428724 90.01297 
L 105.584841 86.746572 
L 106.726105 86.279944 
L 107.852346 90.946227 
L 108.963422 87.679829 
L 110.05922 90.01297 
L 111.139653 88.613085 
L 112.204659 90.479598 
L 113.254199 87.2132 
L 114.288256 90.946227 
L 115.306834 85.346687 
L 116.309956 90.479598 
L 117.297661 89.546342 
L 118.270007 89.079714 
L 119.227065 90.946227 
L 120.168923 89.546342 
L 121.095679 91.412855 
L 122.007444 89.079714 
L 122.904341 90.01297 
L 123.786502 88.613085 
L 124.654069 90.479598 
L 125.507192 90.01297 
L 126.346027 90.946227 
L 127.17074 86.746572 
L 127.9815 87.679829 
L 128.778482 90.01297 
L 129.561867 90.946227 
L 130.33184 89.079714 
L 131.088588 90.946227 
L 131.832302 89.079714 
L 132.563176 89.079714 
L 133.281406 91.412855 
L 133.987188 91.412855 
L 134.680721 89.546342 
L 135.362206 89.546342 
L 136.031841 89.079714 
L 136.689828 89.546342 
L 137.336366 88.613085 
L 137.971655 90.946227 
L 138.595894 87.2132 
L 139.209282 90.479598 
L 139.812016 87.679829 
L 140.404292 90.01297 
L 140.986305 90.01297 
L 141.558248 90.479598 
L 142.120312 89.546342 
L 142.672687 90.01297 
L 143.215559 88.146457 
L 143.749115 90.479598 
L 144.273537 90.01297 
L 144.789006 90.479598 
L 145.2957 89.079714 
L 145.793795 90.946227 
L 146.283466 89.079714 
L 146.764881 90.01297 
L 147.238211 90.01297 
L 148.16127 84.41343 
L 148.611324 90.479598 
L 149.053937 90.01297 
L 149.489265 88.613085 
L 149.91746 90.479598 
L 150.33867 89.546342 
L 150.753043 90.479598 
L 151.56185 89.546342 
L 151.956563 90.946227 
L 152.344997 90.946227 
L 152.727286 88.613085 
L 153.10356 87.679829 
L 153.473947 90.01297 
L 153.838572 90.479598 
L 154.197556 87.679829 
L 154.551022 90.479598 
L 154.899085 89.546342 
L 155.241861 89.546342 
L 155.579463 91.412855 
L 156.23958 91.412855 
L 156.562309 88.146457 
L 157.193623 87.2132 
L 157.502407 90.946227 
L 157.806739 90.01297 
L 158.106712 88.146457 
L 158.402419 87.2132 
L 158.981391 90.946227 
L 159.26483 90.01297 
L 159.54435 91.412855 
L 159.820033 91.412855 
L 160.09196 89.079714 
L 160.360208 90.479598 
L 160.624854 88.613085 
L 160.885972 90.479598 
L 161.143636 90.946227 
L 161.648882 90.946227 
L 161.896602 89.546342 
L 162.141141 89.546342 
L 162.382565 91.412855 
L 162.620937 90.946227 
L 162.856318 88.613085 
L 163.088768 90.01297 
L 163.318346 90.01297 
L 163.54511 90.946227 
L 163.769115 88.613085 
L 163.990415 90.946227 
L 164.209065 85.346687 
L 164.849622 90.946227 
L 165.058175 88.613085 
L 165.264325 90.946227 
L 165.468118 90.01297 
L 165.669599 90.946227 
L 165.868811 90.946227 
L 166.065797 90.01297 
L 166.2606 91.412855 
L 166.453259 89.079714 
L 166.832307 91.412855 
L 167.203246 88.613085 
L 167.385768 90.946227 
L 167.566371 88.146457 
L 167.745089 91.412855 
L 167.921958 87.2132 
L 168.097008 90.01297 
L 168.270273 90.946227 
L 168.441783 90.946227 
L 168.61157 89.079714 
L 168.779661 88.613085 
L 169.274058 91.412855 
L 169.595698 90.479598 
L 169.754211 90.946227 
L 170.220816 89.546342 
L 170.524682 91.412855 
L 170.674522 90.946227 
L 170.970128 88.146457 
L 171.115935 90.946227 
L 171.260439 89.079714 
L 171.40366 90.946227 
L 171.545617 90.01297 
L 171.68633 88.146457 
L 171.825816 90.946227 
L 171.964095 90.946227 
L 172.101184 90.01297 
L 172.2371 90.946227 
L 172.37186 90.479598 
L 172.505481 89.079714 
L 172.637979 90.946227 
L 172.769371 88.613085 
L 172.899671 90.479598 
L 173.028895 89.079714 
L 173.284173 91.412855 
L 173.410256 88.146457 
L 173.65938 90.946227 
L 173.782448 90.946227 
L 173.904537 91.412855 
L 174.02566 90.479598 
L 174.14583 91.412855 
L 174.265059 89.079714 
L 174.500742 90.946227 
L 174.7328 90.946227 
L 174.847499 90.01297 
L 175.074289 91.412855 
L 175.186401 91.412855 
L 175.408112 90.01297 
L 175.517729 90.946227 
L 175.626534 89.079714 
L 175.734537 90.479598 
L 175.841746 90.01297 
L 175.948171 90.479598 
L 176.05382 88.146457 
L 176.262826 90.01297 
L 176.3662 90.01297 
L 176.468832 90.479598 
L 176.57073 89.079714 
L 176.772358 91.412855 
L 176.872103 90.479598 
L 177.069491 90.946227 
L 177.167149 88.146457 
L 177.360429 91.412855 
L 177.551039 90.01297 
L 177.645361 90.946227 
L 177.739035 90.479598 
L 177.832068 89.079714 
L 177.924466 91.412855 
L 178.107384 90.01297 
L 178.377152 90.946227 
L 178.465869 90.946227 
L 178.728483 90.01297 
L 178.900665 91.412855 
L 178.985904 89.546342 
L 179.070581 90.946227 
L 179.154702 88.146457 
L 179.321294 90.946227 
L 179.403775 88.613085 
L 179.648016 90.946227 
L 179.728377 90.479598 
L 179.80822 88.613085 
L 179.887549 90.479598 
L 179.966368 89.079714 
L 180.122493 90.479598 
L 180.199808 90.01297 
L 180.27663 90.946227 
L 180.352963 89.546342 
L 180.428811 90.479598 
L 180.504179 89.079714 
L 180.653486 90.479598 
L 180.800917 90.01297 
L 180.9465 90.946227 
L 181.018608 90.479598 
L 181.090265 91.412855 
L 181.161475 89.546342 
L 181.302567 90.946227 
L 181.372455 89.079714 
L 181.44191 90.946227 
L 181.510935 88.613085 
L 181.579533 90.946227 
L 181.647707 90.479598 
L 181.71546 91.412855 
L 181.782797 90.946227 
L 181.91623 90.479598 
L 181.982333 91.412855 
L 182.048031 90.01297 
L 182.178225 91.412855 
L 182.370553 90.479598 
L 182.433884 90.479598 
L 182.49683 90.946227 
L 182.621581 90.479598 
L 182.683391 90.946227 
L 182.744827 90.01297 
L 182.805893 90.479598 
L 182.86659 91.412855 
L 182.926922 90.946227 
L 182.986891 89.079714 
L 183.0465 90.479598 
L 183.105751 90.01297 
L 183.22319 90.946227 
L 183.453886 88.613085 
L 183.623324 91.412855 
L 183.679133 91.412855 
L 183.734611 90.01297 
L 183.78976 91.412855 
L 183.953258 90.946227 
L 184.007114 91.412855 
L 184.060652 90.946227 
L 184.113875 88.613085 
L 184.166785 90.946227 
L 184.219383 90.479598 
L 184.271672 91.412855 
L 184.323654 90.946227 
L 184.426704 90.946227 
L 184.528551 89.079714 
L 184.579028 90.479598 
L 184.728697 91.412855 
L 184.778006 89.079714 
L 184.827028 90.479598 
L 184.875765 90.946227 
L 185.020282 88.613085 
L 185.115236 91.412855 
L 185.1623 90.479598 
L 185.255614 89.546342 
L 185.393573 90.946227 
L 185.43903 90.946227 
L 185.573837 90.479598 
L 185.706334 90.946227 
L 185.836565 90.479598 
L 185.964573 91.412855 
L 186.131868 90.01297 
L 186.254855 90.946227 
L 186.335687 90.01297 
L 186.455223 90.946227 
L 186.533791 89.546342 
L 186.68828 91.412855 
L 186.876544 89.546342 
L 187.05958 91.412855 
L 187.166959 90.01297 
L 187.202352 90.479598 
L 187.237548 90.01297 
L 187.272548 91.412855 
L 187.341963 90.946227 
L 187.444642 89.079714 
L 187.478489 90.946227 
L 187.578905 90.479598 
L 187.644924 89.079714 
L 187.774785 90.946227 
L 187.838644 91.412855 
L 187.87031 89.079714 
L 187.933118 90.946227 
L 187.964263 90.946227 
L 187.995237 91.412855 
L 188.026041 90.479598 
L 188.056675 90.946227 
L 188.087141 90.946227 
L 188.17754 89.079714 
L 188.147572 91.412855 
L 188.207343 90.479598 
L 188.266461 91.412855 
L 188.324935 88.613085 
L 188.382771 90.479598 
L 188.411453 90.479598 
L 188.439979 91.412855 
L 188.524627 90.946227 
L 188.552536 89.079714 
L 188.635359 90.946227 
L 188.662667 91.412855 
L 188.689828 90.01297 
L 188.716841 89.079714 
L 188.743708 90.946227 
L 188.77043 90.479598 
L 188.82344 90.01297 
L 188.849731 91.412855 
L 188.927755 89.079714 
L 188.953483 91.412855 
L 189.004525 91.412855 
L 189.02984 90.01297 
L 189.104971 90.946227 
L 189.129747 90.946227 
L 189.227528 91.412855 
L 189.299499 88.613085 
L 189.416911 90.946227 
L 189.485867 90.479598 
L 189.508608 90.946227 
L 189.553729 90.946227 
L 189.57611 90.479598 
L 189.620517 91.412855 
L 189.642544 90.946227 
L 189.664454 91.412855 
L 189.707927 90.946227 
L 189.729491 88.613085 
L 189.814615 90.479598 
L 189.835617 90.01297 
L 189.856507 91.412855 
L 189.877287 91.412855 
L 189.897958 91.412855 
L 190.059464 90.01297 
L 190.137705 91.412855 
L 190.098789 89.079714 
L 190.15701 90.946227 
L 190.270742 89.546342 
L 190.307867 91.412855 
L 190.362834 90.479598 
L 190.380966 89.079714 
L 190.452557 91.412855 
L 190.574319 90.01297 
L 190.691745 91.412855 
L 190.708176 91.412855 
L 190.805004 90.01297 
L 190.820853 91.412855 
L 190.914256 90.946227 
L 190.929545 90.946227 
L 190.944757 91.412855 
L 191.004829 90.479598 
L 191.019656 90.946227 
L 191.034407 89.546342 
L 191.121349 90.946227 
L 191.135583 90.946227 
L 191.163833 91.412855 
L 191.205673 90.479598 
L 191.219478 90.479598 
L 191.246879 91.412855 
L 191.327433 89.079714 
L 191.456368 91.412855 
L 191.468906 91.412855 
L 191.481382 89.079714 
L 191.578955 90.479598 
L 191.637974 91.412855 
L 191.684134 90.01297 
L 191.827925 91.412855 
L 191.962679 88.613085 
L 192.050995 91.412855 
L 192.07009 90.479598 
L 192.117009 89.546342 
L 192.098381 91.412855 
L 192.171801 90.01297 
L 192.276628 91.412855 
L 192.216235 89.546342 
L 192.285087 90.946227 
L 192.367422 90.01297 
L 192.30188 91.412855 
L 192.383409 90.946227 
L 192.468581 91.412855 
L 192.430436 90.01297 
L 192.476099 90.01297 
L 192.483579 90.01297 
L 192.5915 91.412855 
L 192.549281 88.613085 
L 192.598417 90.946227 
L 192.652553 89.546342 
L 192.632499 91.412855 
L 192.704614 90.479598 
L 192.729893 90.01297 
L 192.814587 91.412855 
L 192.893703 89.546342 
L 192.925996 90.946227 
L 193.017417 89.546342 
L 193.031893 91.412855 
L 193.10564 89.546342 
L 193.140424 90.479598 
L 193.20212 89.546342 
L 193.259496 91.412855 
L 193.270479 89.546342 
L 193.368823 91.412855 
L 193.371974 91.412855 
L 193.459752 90.01297 
L 193.483693 90.946227 
L 193.486289 90.946227 
L 193.491444 91.412855 
L 193.599249 90.01297 
L 193.611325 91.412855 
L 193.613304 90.946227 
" clip-path="url(#p6a4dadba20)" style="fill: none; stroke: #1f77b4; stroke-width: 0.7; stroke-linecap: square"/>
   </g>
   <g id="line2d_16">
    <path d="M 41.306586 18.152211 
L 41.546785 64.815042 
L 41.756309 54.08259 
L 42.024809 67.148183 
L 42.351628 42.416883 
L 42.73597 49.649622 
L 43.176904 86.279944 
L 43.673376 89.779656 
L 44.224205 69.947953 
L 44.828101 66.681555 
L 45.483661 65.981612 
L 46.189388 80.213776 
L 46.943691 20.718666 
L 47.744895 71.814466 
L 48.591256 82.080289 
L 49.480959 88.146457 
L 50.412137 83.713488 
L 51.382874 66.681555 
L 52.391217 68.08144 
L 53.435181 80.913718 
L 54.512763 61.315329 
L 55.621945 83.013546 
L 56.760703 54.782533 
L 57.927019 71.114524 
L 59.11888 84.180116 
L 60.334293 69.947953 
L 61.571286 61.781958 
L 62.827915 82.780231 
L 64.102272 65.748298 
L 65.392484 70.181267 
L 66.696725 69.014696 
L 68.013212 86.279944 
L 69.340215 84.180116 
L 70.676057 90.246284 
L 72.019115 80.913718 
L 73.367826 90.946227 
L 74.720685 89.779656 
L 76.076249 72.981037 
L 77.433135 88.146457 
L 78.790024 90.712913 
L 80.145659 80.913718 
L 81.498846 83.013546 
L 82.848453 78.347262 
L 84.193409 56.182418 
L 85.532706 80.44709 
L 86.865394 78.813891 
L 88.190583 90.01297 
L 89.507441 80.213776 
L 90.81519 85.113373 
L 92.113111 88.846399 
L 93.400534 90.946227 
L 94.676842 84.180116 
L 95.941469 89.546342 
L 97.193895 89.546342 
L 98.433647 87.2132 
L 99.660296 86.513258 
L 100.873455 88.613085 
L 102.072778 86.979886 
L 103.257958 91.412855 
L 104.428724 90.246284 
L 105.584841 85.813315 
L 106.726105 86.746572 
L 107.852346 90.01297 
L 108.963422 89.313028 
L 110.05922 91.412855 
L 111.139653 87.913143 
L 112.204659 89.313028 
L 113.254199 87.2132 
L 114.288256 90.946227 
L 115.306834 85.346687 
L 116.309956 91.412855 
L 117.297661 88.846399 
L 118.270007 89.079714 
L 119.227065 91.062884 
L 120.168923 89.079714 
L 121.095679 90.946227 
L 122.007444 90.01297 
L 122.904341 91.296198 
L 123.786502 88.263114 
L 124.654069 90.479598 
L 125.507192 90.479598 
L 126.346027 91.062884 
L 127.17074 88.146457 
L 127.9815 88.613085 
L 128.778482 90.246284 
L 129.561867 90.596256 
L 130.33184 88.963056 
L 131.088588 90.246284 
L 131.832302 87.796486 
L 133.281406 91.062884 
L 133.987188 90.946227 
L 134.680721 88.613085 
L 135.362206 88.846399 
L 136.031841 90.01297 
L 136.689828 90.362941 
L 137.336366 88.0298 
L 137.971655 91.296198 
L 138.595894 86.513258 
L 139.209282 91.062884 
L 139.812016 89.546342 
L 140.986305 90.129627 
L 141.558248 90.82957 
L 142.120312 90.362941 
L 142.672687 90.246284 
L 143.215559 89.079714 
L 143.749115 90.946227 
L 144.273537 88.963056 
L 144.789006 90.946227 
L 145.2957 89.662999 
L 145.793795 90.946227 
L 146.283466 90.362941 
L 146.764881 90.596256 
L 147.238211 89.662999 
L 147.703619 87.679829 
L 148.16127 87.329857 
L 148.611324 91.062884 
L 149.053937 91.296198 
L 149.489265 89.546342 
L 149.91746 91.296198 
L 150.33867 89.662999 
L 150.753043 90.82957 
L 151.160723 90.479598 
L 151.56185 88.963056 
L 151.956563 90.596256 
L 152.344997 91.296198 
L 152.727286 89.313028 
L 153.10356 88.613085 
L 153.473947 89.429685 
L 153.838572 89.779656 
L 154.197556 89.546342 
L 154.551022 89.662999 
L 154.899085 90.82957 
L 155.241861 89.779656 
L 155.579463 90.946227 
L 155.912 91.296198 
L 156.23958 91.296198 
L 156.562309 88.846399 
L 157.193623 88.379771 
L 157.502407 90.946227 
L 157.806739 90.129627 
L 158.402419 87.563172 
L 158.693949 90.01297 
L 158.981391 91.296198 
L 159.26483 90.246284 
L 159.54435 90.946227 
L 159.820033 90.712913 
L 160.09196 88.146457 
L 160.360208 90.129627 
L 160.624854 89.662999 
L 160.885972 91.062884 
L 161.143636 91.179541 
L 161.397916 90.362941 
L 161.648882 91.062884 
L 162.141141 90.246284 
L 162.620937 90.946227 
L 162.856318 89.313028 
L 163.088768 91.179541 
L 163.318346 90.362941 
L 163.54511 90.946227 
L 163.769115 88.613085 
L 163.990415 91.412855 
L 164.209065 86.279944 
L 164.849622 90.362941 
L 165.058175 90.01297 
L 165.264325 91.296198 
L 165.468118 89.662999 
L 165.669599 90.946227 
L 165.868811 89.896313 
L 166.065797 90.129627 
L 166.2606 91.412855 
L 166.453259 89.662999 
L 166.643815 90.946227 
L 166.832307 91.412855 
L 167.018772 89.546342 
L 167.385768 91.296198 
L 167.566371 89.429685 
L 167.745089 91.412855 
L 167.921958 88.729742 
L 168.097008 91.179541 
L 168.270273 91.062884 
L 168.441783 90.596256 
L 168.61157 89.429685 
L 168.779661 89.896313 
L 168.946088 89.896313 
L 169.110878 90.129627 
L 169.435656 91.296198 
L 169.595698 90.82957 
L 169.754211 91.296198 
L 169.911218 90.946227 
L 170.220816 89.546342 
L 170.373454 90.946227 
L 170.524682 90.712913 
L 170.674522 90.82957 
L 170.970128 89.429685 
L 171.115935 91.296198 
L 171.260439 91.296198 
L 171.40366 91.179541 
L 171.68633 88.729742 
L 171.964095 90.82957 
L 172.101184 90.362941 
L 172.2371 90.596256 
L 172.505481 89.662999 
L 172.637979 91.296198 
L 172.769371 89.779656 
L 172.899671 91.296198 
L 173.028895 90.246284 
L 173.157057 90.479598 
L 173.284173 90.479598 
L 173.410256 90.362941 
L 173.53532 91.412855 
L 173.65938 90.712913 
L 174.02566 91.179541 
L 174.14583 91.179541 
L 174.265059 89.313028 
L 174.383359 90.362941 
L 174.500742 90.246284 
L 174.617218 91.412855 
L 174.847499 91.179541 
L 174.961325 90.479598 
L 175.186401 91.412855 
L 175.297672 89.429685 
L 175.517729 91.062884 
L 175.626534 90.82957 
L 175.734537 91.179541 
L 175.841746 90.246284 
L 175.948171 91.296198 
L 176.05382 88.963056 
L 176.262826 91.296198 
L 176.3662 90.01297 
L 176.468832 90.712913 
L 176.57073 90.129627 
L 176.671903 90.946227 
L 176.872103 90.479598 
L 176.971144 91.179541 
L 177.069491 90.712913 
L 177.167149 88.729742 
L 177.264126 91.412855 
L 177.360429 90.712913 
L 177.456064 91.296198 
L 177.551039 90.01297 
L 177.645361 90.946227 
L 177.832068 90.246284 
L 177.924466 91.296198 
L 178.016236 90.596256 
L 178.107384 91.062884 
L 178.197915 90.479598 
L 178.465869 91.296198 
L 178.641529 90.129627 
L 178.900665 91.412855 
L 179.154702 89.079714 
L 179.238271 91.296198 
L 179.321294 91.179541 
L 179.403775 90.362941 
L 179.48572 90.479598 
L 179.648016 91.296198 
L 179.80822 90.596256 
L 179.887549 91.296198 
L 179.966368 90.479598 
L 180.122493 91.296198 
L 180.199808 90.246284 
L 180.27663 90.946227 
L 180.352963 90.362941 
L 180.428811 91.062884 
L 180.504179 90.479598 
L 180.579069 90.712913 
L 180.653486 91.062884 
L 180.800917 89.546342 
L 180.873938 90.82957 
L 180.9465 90.596256 
L 181.018608 90.596256 
L 181.090265 91.179541 
L 181.161475 90.362941 
L 181.232241 91.179541 
L 181.302567 90.82957 
L 181.44191 91.412855 
L 181.510935 89.546342 
L 181.647707 91.296198 
L 181.782797 90.946227 
L 181.849719 91.412855 
L 181.91623 90.362941 
L 181.982333 90.82957 
L 182.048031 90.712913 
L 182.113327 91.179541 
L 182.178225 90.82957 
L 182.242726 91.062884 
L 182.306835 91.296198 
L 182.370553 90.82957 
L 182.433884 91.296198 
L 182.49683 91.062884 
L 182.559395 91.296198 
L 182.621581 90.479598 
L 182.683391 90.946227 
L 182.744827 90.82957 
L 182.805893 90.362941 
L 182.926922 91.296198 
L 182.986891 91.179541 
L 183.0465 90.712913 
L 183.105751 91.296198 
L 183.164647 90.946227 
L 183.22319 90.946227 
L 183.281383 91.296198 
L 183.339229 91.062884 
L 183.396729 91.296198 
L 183.453886 90.479598 
L 183.510703 90.82957 
L 183.567181 91.062884 
L 183.623324 90.129627 
L 183.679133 90.712913 
L 183.734611 90.596256 
L 183.899081 91.296198 
L 183.953258 90.946227 
L 184.007114 91.179541 
L 184.060652 91.179541 
L 184.113875 90.596256 
L 184.166785 91.179541 
L 184.219383 90.82957 
L 184.37533 91.296198 
L 184.426704 90.596256 
L 184.477777 91.179541 
L 184.528551 90.82957 
L 184.579028 91.062884 
L 184.62921 91.296198 
L 184.827028 90.129627 
L 184.875765 91.296198 
L 184.924218 90.362941 
L 184.97239 90.362941 
L 185.020282 90.479598 
L 185.1623 91.179541 
L 185.255614 91.296198 
L 185.301866 90.596256 
L 185.393573 91.412855 
L 185.43903 91.296198 
L 185.484225 91.296198 
L 185.618257 90.362941 
L 185.749994 91.412855 
L 185.793403 91.412855 
L 185.836565 89.779656 
L 185.879479 91.179541 
L 185.922148 91.179541 
L 185.964573 90.712913 
L 186.006756 91.412855 
L 186.048699 91.296198 
L 186.173098 90.362941 
L 186.295386 91.179541 
L 186.335687 90.596256 
L 186.375759 91.179541 
L 186.415604 91.179541 
L 186.494618 90.479598 
L 186.533791 90.712913 
L 186.68828 91.296198 
L 186.876544 90.479598 
L 186.913564 90.82957 
L 186.986982 91.179541 
L 187.023383 90.712913 
L 187.05958 91.062884 
L 187.166959 91.412855 
L 187.272548 90.479598 
L 187.307352 90.82957 
L 187.410606 91.296198 
L 187.444642 90.946227 
L 187.512147 91.062884 
L 187.545619 91.296198 
L 187.578905 90.596256 
L 187.644924 90.712913 
L 187.742589 91.412855 
L 187.774785 91.296198 
L 187.806803 90.946227 
L 187.87031 91.296198 
L 187.995237 90.82957 
L 188.056675 90.946227 
L 188.087141 91.412855 
L 188.11744 90.82957 
L 188.147572 90.82957 
L 188.17754 90.596256 
L 188.207343 91.412855 
L 188.295778 91.179541 
L 188.324935 90.712913 
L 188.353932 91.296198 
L 188.382771 91.179541 
L 188.411453 91.179541 
L 188.468349 91.296198 
L 188.496564 91.179541 
L 188.552536 90.479598 
L 188.607901 90.946227 
L 188.743708 91.412855 
L 188.797007 90.712913 
L 188.87588 91.179541 
L 188.901888 91.062884 
L 188.927755 90.01297 
L 189.004525 91.062884 
L 189.02984 91.062884 
L 189.055019 91.179541 
L 189.080062 90.946227 
L 189.104971 90.82957 
L 189.129747 91.412855 
L 189.227528 91.296198 
L 189.251647 91.412855 
L 189.275637 91.062884 
L 189.299499 91.179541 
L 189.370322 90.596256 
L 189.393679 91.062884 
L 189.463004 91.412855 
L 189.485867 91.179541 
L 189.57611 90.82957 
L 189.664454 91.412855 
L 189.707927 91.296198 
L 189.793503 90.82957 
L 189.814615 91.296198 
L 189.835617 91.296198 
L 189.877287 91.412855 
L 189.938975 90.946227 
L 189.999695 91.412855 
L 190.019722 90.82957 
L 190.039645 91.062884 
L 190.059464 90.946227 
L 190.098789 91.062884 
L 190.214322 91.412855 
L 190.270742 90.946227 
L 190.362834 91.179541 
L 190.399004 91.062884 
L 190.416948 91.412855 
L 190.434799 90.479598 
L 190.522676 91.179541 
L 190.625165 90.596256 
L 190.608304 91.412855 
L 190.641939 90.712913 
L 190.789073 91.296198 
L 190.820853 90.82957 
L 190.852308 91.412855 
L 190.898888 91.179541 
L 190.95989 91.412855 
L 190.944757 90.82957 
L 191.004829 91.296198 
L 191.107043 90.712913 
L 191.219478 91.296198 
L 191.300854 90.946227 
L 191.314177 91.296198 
L 191.366801 90.82957 
L 191.405575 91.412855 
L 191.53066 90.82957 
L 191.637974 91.412855 
L 191.649601 90.712913 
L 191.740548 90.946227 
L 191.849229 91.412855 
L 191.838603 90.712913 
L 191.859801 91.296198 
L 191.880789 90.596256 
L 191.962679 91.062884 
L 192.01223 91.412855 
L 191.992557 90.596256 
L 192.07009 91.296198 
L 192.117009 91.412855 
L 192.198593 90.82957 
L 192.310215 91.412855 
L 192.351278 90.946227 
L 192.422694 91.296198 
L 192.483579 90.82957 
L 192.468581 91.412855 
L 192.527701 91.296198 
L 192.61215 91.412855 
L 192.563492 90.946227 
L 192.632499 91.296198 
L 192.645901 90.712913 
L 192.685329 91.412855 
L 192.742348 91.179541 
L 192.748531 91.179541 
L 192.766898 90.82957 
L 192.760806 91.412855 
L 192.849154 91.062884 
L 192.957361 91.412855 
L 192.9625 91.179541 
L 192.987826 90.82957 
L 193.064862 91.412855 
L 193.10564 90.82957 
L 193.173886 91.179541 
L 193.270479 91.412855 
L 193.186104 90.82957 
L 193.284878 91.296198 
L 193.349593 90.946227 
L 193.31968 91.412855 
L 193.39361 91.179541 
L 193.408622 90.946227 
L 193.504115 91.412855 
L 193.542659 90.82957 
L 193.613304 91.296198 
" clip-path="url(#p6a4dadba20)" style="fill: none; stroke: #ff7f0e; stroke-width: 0.7; stroke-linecap: square"/>
   </g>
   <g id="line2d_17">
    <path d="M 41.276506 91.412855 
L 194.012869 91.412855 
" clip-path="url(#p6a4dadba20)" style="fill: none; stroke-dasharray: 2.59,1.12; stroke-dashoffset: 0; stroke: #000000; stroke-width: 0.7"/>
   </g>
   <g id="patch_3">
    <path d="M 33.639688 95.099219 
L 33.639688 13.999219 
" style="fill: none; stroke: #000000; stroke-width: 0.5; stroke-linejoin: miter; stroke-linecap: square"/>
   </g>
   <g id="patch_4">
    <path d="M 33.639688 95.099219 
L 201.649687 95.099219 
" style="fill: none; stroke: #000000; stroke-width: 0.5; stroke-linejoin: miter; stroke-linecap: square"/>
   </g>
   <g id="legend_1">
    <g id="line2d_18">
     <path d="M 120.899687 20.599219 
L 125.899687 20.599219 
L 130.899687 20.599219 
" style="fill: none; stroke: #1f77b4; stroke-width: 0.7; stroke-linecap: square"/>
    </g>
    <g id="text_18">
     <!-- max $p(r=y|y)$ difference -->
     <g transform="translate(134.899687 22.349219) scale(0.05 -0.05)">
      <defs>
       <path id="DejaVuSans-6d" d="M 3328 2828 
Q 3544 3216 3844 3400 
Q 4144 3584 4550 3584 
Q 5097 3584 5394 3201 
Q 5691 2819 5691 2113 
L 5691 0 
L 5113 0 
L 5113 2094 
Q 5113 2597 4934 2840 
Q 4756 3084 4391 3084 
Q 3944 3084 3684 2787 
Q 3425 2491 3425 1978 
L 3425 0 
L 2847 0 
L 2847 2094 
Q 2847 2600 2669 2842 
Q 2491 3084 2119 3084 
Q 1678 3084 1418 2786 
Q 1159 2488 1159 1978 
L 1159 0 
L 581 0 
L 581 3500 
L 1159 3500 
L 1159 2956 
Q 1356 3278 1631 3431 
Q 1906 3584 2284 3584 
Q 2666 3584 2933 3390 
Q 3200 3197 3328 2828 
z
" transform="scale(0.015625)"/>
       <path id="DejaVuSans-Oblique-70" d="M 3175 2156 
Q 3175 2616 2975 2859 
Q 2775 3103 2400 3103 
Q 2144 3103 1911 2972 
Q 1678 2841 1497 2591 
Q 1319 2344 1212 1994 
Q 1106 1644 1106 1300 
Q 1106 863 1306 627 
Q 1506 391 1875 391 
Q 2147 391 2380 519 
Q 2613 647 2778 891 
Q 2956 1147 3065 1494 
Q 3175 1841 3175 2156 
z
M 1394 2969 
Q 1625 3272 1939 3428 
Q 2253 3584 2638 3584 
Q 3175 3584 3472 3232 
Q 3769 2881 3769 2247 
Q 3769 1728 3584 1258 
Q 3400 788 3053 416 
Q 2822 169 2531 39 
Q 2241 -91 1919 -91 
Q 1547 -91 1294 64 
Q 1041 219 916 525 
L 556 -1331 
L -19 -1331 
L 922 3500 
L 1497 3500 
L 1394 2969 
z
" transform="scale(0.015625)"/>
       <path id="DejaVuSans-Oblique-72" d="M 2853 2969 
Q 2766 3016 2653 3041 
Q 2541 3066 2413 3066 
Q 1953 3066 1609 2717 
Q 1266 2369 1153 1784 
L 800 0 
L 225 0 
L 909 3500 
L 1484 3500 
L 1375 2956 
Q 1603 3259 1920 3421 
Q 2238 3584 2597 3584 
Q 2691 3584 2781 3573 
Q 2872 3563 2963 3538 
L 2853 2969 
z
" transform="scale(0.015625)"/>
       <path id="DejaVuSans-3d" d="M 678 2906 
L 4684 2906 
L 4684 2381 
L 678 2381 
L 678 2906 
z
M 678 1631 
L 4684 1631 
L 4684 1100 
L 678 1100 
L 678 1631 
z
" transform="scale(0.015625)"/>
       <path id="DejaVuSans-Oblique-79" d="M 1588 -325 
Q 1188 -997 936 -1164 
Q 684 -1331 294 -1331 
L -159 -1331 
L -63 -850 
L 269 -850 
Q 509 -850 678 -719 
Q 847 -588 1056 -206 
L 1234 128 
L 459 3500 
L 1069 3500 
L 1650 819 
L 3256 3500 
L 3859 3500 
L 1588 -325 
z
" transform="scale(0.015625)"/>
       <path id="DejaVuSans-7c" d="M 1344 4891 
L 1344 -1509 
L 813 -1509 
L 813 4891 
L 1344 4891 
z
" transform="scale(0.015625)"/>
      </defs>
      <use xlink:href="#DejaVuSans-6d" transform="translate(0 0.578125)"/>
      <use xlink:href="#DejaVuSans-61" transform="translate(97.412109 0.578125)"/>
      <use xlink:href="#DejaVuSans-78" transform="translate(158.691406 0.578125)"/>
      <use xlink:href="#DejaVuSans-20" transform="translate(217.871094 0.578125)"/>
      <use xlink:href="#DejaVuSans-Oblique-70" transform="translate(249.658203 0.578125)"/>
      <use xlink:href="#DejaVuSans-28" transform="translate(313.134766 0.578125)"/>
      <use xlink:href="#DejaVuSans-Oblique-72" transform="translate(352.148438 0.578125)"/>
      <use xlink:href="#DejaVuSans-3d" transform="translate(412.744141 0.578125)"/>
      <use xlink:href="#DejaVuSans-Oblique-79" transform="translate(516.015625 0.578125)"/>
      <use xlink:href="#DejaVuSans-7c" transform="translate(575.195312 0.578125)"/>
      <use xlink:href="#DejaVuSans-Oblique-79" transform="translate(608.886719 0.578125)"/>
      <use xlink:href="#DejaVuSans-29" transform="translate(668.066406 0.578125)"/>
      <use xlink:href="#DejaVuSans-20" transform="translate(707.080078 0.578125)"/>
      <use xlink:href="#DejaVuSans-64" transform="translate(738.867188 0.578125)"/>
      <use xlink:href="#DejaVuSans-69" transform="translate(802.34375 0.578125)"/>
      <use xlink:href="#DejaVuSans-66" transform="translate(830.126953 0.578125)"/>
      <use xlink:href="#DejaVuSans-66" transform="translate(865.332031 0.578125)"/>
      <use xlink:href="#DejaVuSans-65" transform="translate(900.537109 0.578125)"/>
      <use xlink:href="#DejaVuSans-72" transform="translate(962.060547 0.578125)"/>
      <use xlink:href="#DejaVuSans-65" transform="translate(1003.173828 0.578125)"/>
      <use xlink:href="#DejaVuSans-6e" transform="translate(1064.697266 0.578125)"/>
      <use xlink:href="#DejaVuSans-63" transform="translate(1128.076172 0.578125)"/>
      <use xlink:href="#DejaVuSans-65" transform="translate(1183.056641 0.578125)"/>
     </g>
    </g>
    <g id="line2d_19">
     <path d="M 120.899687 28.149219 
L 125.899687 28.149219 
L 130.899687 28.149219 
" style="fill: none; stroke: #ff7f0e; stroke-width: 0.7; stroke-linecap: square"/>
    </g>
    <g id="text_19">
     <!-- max $p(r\neq y|y)$ difference -->
     <g transform="translate(134.899687 29.899219) scale(0.05 -0.05)">
      <defs>
       <path id="DejaVuSans-2260" d="M 678 2906 
L 3091 2906 
L 3891 3891 
L 4281 3572 
L 3738 2906 
L 4684 2906 
L 4684 2381 
L 3309 2381 
L 2700 1631 
L 4684 1631 
L 4684 1100 
L 2266 1100 
L 1459 122 
L 1069 441 
L 1613 1100 
L 678 1100 
L 678 1631 
L 2047 1631 
L 2656 2381 
L 678 2381 
L 678 2906 
z
" transform="scale(0.015625)"/>
      </defs>
      <use xlink:href="#DejaVuSans-6d" transform="translate(0 0.578125)"/>
      <use xlink:href="#DejaVuSans-61" transform="translate(97.412109 0.578125)"/>
      <use xlink:href="#DejaVuSans-78" transform="translate(158.691406 0.578125)"/>
      <use xlink:href="#DejaVuSans-20" transform="translate(217.871094 0.578125)"/>
      <use xlink:href="#DejaVuSans-Oblique-70" transform="translate(249.658203 0.578125)"/>
      <use xlink:href="#DejaVuSans-28" transform="translate(313.134766 0.578125)"/>
      <use xlink:href="#DejaVuSans-Oblique-72" transform="translate(352.148438 0.578125)"/>
      <use xlink:href="#DejaVuSans-2260" transform="translate(412.744141 0.578125)"/>
      <use xlink:href="#DejaVuSans-Oblique-79" transform="translate(516.015625 0.578125)"/>
      <use xlink:href="#DejaVuSans-7c" transform="translate(575.195312 0.578125)"/>
      <use xlink:href="#DejaVuSans-Oblique-79" transform="translate(608.886719 0.578125)"/>
      <use xlink:href="#DejaVuSans-29" transform="translate(668.066406 0.578125)"/>
      <use xlink:href="#DejaVuSans-20" transform="translate(707.080078 0.578125)"/>
      <use xlink:href="#DejaVuSans-64" transform="translate(738.867188 0.578125)"/>
      <use xlink:href="#DejaVuSans-69" transform="translate(802.34375 0.578125)"/>
      <use xlink:href="#DejaVuSans-66" transform="translate(830.126953 0.578125)"/>
      <use xlink:href="#DejaVuSans-66" transform="translate(865.332031 0.578125)"/>
      <use xlink:href="#DejaVuSans-65" transform="translate(900.537109 0.578125)"/>
      <use xlink:href="#DejaVuSans-72" transform="translate(962.060547 0.578125)"/>
      <use xlink:href="#DejaVuSans-65" transform="translate(1003.173828 0.578125)"/>
      <use xlink:href="#DejaVuSans-6e" transform="translate(1064.697266 0.578125)"/>
      <use xlink:href="#DejaVuSans-63" transform="translate(1128.076172 0.578125)"/>
      <use xlink:href="#DejaVuSans-65" transform="translate(1183.056641 0.578125)"/>
     </g>
    </g>
   </g>
  </g>
 </g>
 <defs>
  <clipPath id="p6a4dadba20">
   <rect x="33.639688" y="13.999219" width="168.01" height="81.1"/>
  </clipPath>
 </defs>
</svg>
