<?xml version="1.0" encoding="utf-8" standalone="no"?>
<!DOCTYPE svg PUBLIC "-//W3C//DTD SVG 1.1//EN"
  "http://www.w3.org/Graphics/SVG/1.1/DTD/svg11.dtd">
<svg xmlns:xlink="http://www.w3.org/1999/xlink" width="208.382503pt" height="316.478125pt" viewBox="0 0 208.382503 316.478125" xmlns="http://www.w3.org/2000/svg" version="1.1">
 <metadata>
  <rdf:RDF xmlns:dc="http://purl.org/dc/elements/1.1/" xmlns:cc="http://creativecommons.org/ns#" xmlns:rdf="http://www.w3.org/1999/02/22-rdf-syntax-ns#">
   <cc:Work>
    <dc:type rdf:resource="http://purl.org/dc/dcmitype/StillImage"/>
    <dc:date>2026-04-22T21:54:16.009461</dc:date>
    <dc:format>image/svg+xml</dc:format>
    <dc:creator>
     <cc:Agent>
      <dc:title>Matplotlib v3.8.2, https://matplotlib.org/</dc:title>
     </cc:Agent>
    </dc:creator>
   </cc:Work>
  </rdf:RDF>
 </metadata>
 <defs>
  <style type="text/css">*{stroke-linejoin: round; stroke-linecap: butt}</style>
 </defs>
 <g id="figure_1">
  <g id="patch_1">
   <path d="M 0 316.478125 
L 208.382503 316.478125 
L 208.382503 0 
L 0 0 
z
" style="fill: #ffffff"/>
  </g>
  <g id="axes_1">
   <g id="patch_2">
    <path d="M 33.639688 95.592396 
L 200.413918 95.592396 
L 200.413918 17.759062 
L 33.639688 17.759062 
z
" style="fill: #ffffff"/>
   </g>
   <g id="matplotlib.axis_1">
    <g id="xtick_1">
     <g id="line2d_1">
      <defs>
       <path id="mf2f707fd55" d="M 0 0 
L 0 2 
" style="stroke: #000000; stroke-width: 0.5"/>
      </defs>
      <g>
       <use xlink:href="#mf2f707fd55" x="36.846884" y="95.592396" style="stroke: #000000; stroke-width: 0.5"/>
      </g>
     </g>
    </g>
    <g id="xtick_2">
     <g id="line2d_2">
      <g>
       <use xlink:href="#mf2f707fd55" x="68.918852" y="95.592396" style="stroke: #000000; stroke-width: 0.5"/>
      </g>
     </g>
    </g>
    <g id="xtick_3">
     <g id="line2d_3">
      <g>
       <use xlink:href="#mf2f707fd55" x="100.990819" y="95.592396" style="stroke: #000000; stroke-width: 0.5"/>
      </g>
     </g>
    </g>
    <g id="xtick_4">
     <g id="line2d_4">
      <g>
       <use xlink:href="#mf2f707fd55" x="133.062787" y="95.592396" style="stroke: #000000; stroke-width: 0.5"/>
      </g>
     </g>
    </g>
    <g id="xtick_5">
     <g id="line2d_5">
      <g>
       <use xlink:href="#mf2f707fd55" x="165.134754" y="95.592396" style="stroke: #000000; stroke-width: 0.5"/>
      </g>
     </g>
    </g>
    <g id="xtick_6">
     <g id="line2d_6">
      <g>
       <use xlink:href="#mf2f707fd55" x="197.206722" y="95.592396" style="stroke: #000000; stroke-width: 0.5"/>
      </g>
     </g>
    </g>
   </g>
   <g id="matplotlib.axis_2">
    <g id="ytick_1">
     <g id="line2d_7">
      <defs>
       <path id="mb463f5b6f6" d="M 0 0 
L -2 0 
" style="stroke: #000000; stroke-width: 0.5"/>
      </defs>
      <g>
       <use xlink:href="#mb463f5b6f6" x="33.639688" y="89.609331" style="stroke: #000000; stroke-width: 0.5"/>
      </g>
     </g>
     <g id="text_1">
      <!-- 0.00 -->
      <g transform="translate(17.006875 91.50894) scale(0.05 -0.05)">
       <defs>
        <path id="DejaVuSans-30" d="M 2034 4250 
Q 1547 4250 1301 3770 
Q 1056 3291 1056 2328 
Q 1056 1369 1301 889 
Q 1547 409 2034 409 
Q 2525 409 2770 889 
Q 3016 1369 3016 2328 
Q 3016 3291 2770 3770 
Q 2525 4250 2034 4250 
z
M 2034 4750 
Q 2819 4750 3233 4129 
Q 3647 3509 3647 2328 
Q 3647 1150 3233 529 
Q 2819 -91 2034 -91 
Q 1250 -91 836 529 
Q 422 1150 422 2328 
Q 422 3509 836 4129 
Q 1250 4750 2034 4750 
z
" transform="scale(0.015625)"/>
        <path id="DejaVuSans-2e" d="M 684 794 
L 1344 794 
L 1344 0 
L 684 0 
L 684 794 
z
" transform="scale(0.015625)"/>
       </defs>
       <use xlink:href="#DejaVuSans-30"/>
       <use xlink:href="#DejaVuSans-2e" x="63.623047"/>
       <use xlink:href="#DejaVuSans-30" x="95.410156"/>
       <use xlink:href="#DejaVuSans-30" x="159.033203"/>
      </g>
     </g>
    </g>
    <g id="ytick_2">
     <g id="line2d_8">
      <g>
       <use xlink:href="#mb463f5b6f6" x="33.639688" y="75.844156" style="stroke: #000000; stroke-width: 0.5"/>
      </g>
     </g>
     <g id="text_2">
      <!-- 0.25 -->
      <g transform="translate(17.006875 77.743766) scale(0.05 -0.05)">
       <defs>
        <path id="DejaVuSans-32" d="M 1228 531 
L 3431 531 
L 3431 0 
L 469 0 
L 469 531 
Q 828 903 1448 1529 
Q 2069 2156 2228 2338 
Q 2531 2678 2651 2914 
Q 2772 3150 2772 3378 
Q 2772 3750 2511 3984 
Q 2250 4219 1831 4219 
Q 1534 4219 1204 4116 
Q 875 4013 500 3803 
L 500 4441 
Q 881 4594 1212 4672 
Q 1544 4750 1819 4750 
Q 2544 4750 2975 4387 
Q 3406 4025 3406 3419 
Q 3406 3131 3298 2873 
Q 3191 2616 2906 2266 
Q 2828 2175 2409 1742 
Q 1991 1309 1228 531 
z
" transform="scale(0.015625)"/>
        <path id="DejaVuSans-35" d="M 691 4666 
L 3169 4666 
L 3169 4134 
L 1269 4134 
L 1269 2991 
Q 1406 3038 1543 3061 
Q 1681 3084 1819 3084 
Q 2600 3084 3056 2656 
Q 3513 2228 3513 1497 
Q 3513 744 3044 326 
Q 2575 -91 1722 -91 
Q 1428 -91 1123 -41 
Q 819 9 494 109 
L 494 744 
Q 775 591 1075 516 
Q 1375 441 1709 441 
Q 2250 441 2565 725 
Q 2881 1009 2881 1497 
Q 2881 1984 2565 2268 
Q 2250 2553 1709 2553 
Q 1456 2553 1204 2497 
Q 953 2441 691 2322 
L 691 4666 
z
" transform="scale(0.015625)"/>
       </defs>
       <use xlink:href="#DejaVuSans-30"/>
       <use xlink:href="#DejaVuSans-2e" x="63.623047"/>
       <use xlink:href="#DejaVuSans-32" x="95.410156"/>
       <use xlink:href="#DejaVuSans-35" x="159.033203"/>
      </g>
     </g>
    </g>
    <g id="ytick_3">
     <g id="line2d_9">
      <g>
       <use xlink:href="#mb463f5b6f6" x="33.639688" y="62.078982" style="stroke: #000000; stroke-width: 0.5"/>
      </g>
     </g>
     <g id="text_3">
      <!-- 0.50 -->
      <g transform="translate(17.006875 63.978591) scale(0.05 -0.05)">
       <use xlink:href="#DejaVuSans-30"/>
       <use xlink:href="#DejaVuSans-2e" x="63.623047"/>
       <use xlink:href="#DejaVuSans-35" x="95.410156"/>
       <use xlink:href="#DejaVuSans-30" x="159.033203"/>
      </g>
     </g>
    </g>
    <g id="ytick_4">
     <g id="line2d_10">
      <g>
       <use xlink:href="#mb463f5b6f6" x="33.639688" y="48.313807" style="stroke: #000000; stroke-width: 0.5"/>
      </g>
     </g>
     <g id="text_4">
      <!-- 0.75 -->
      <g transform="translate(17.006875 50.213416) scale(0.05 -0.05)">
       <defs>
        <path id="DejaVuSans-37" d="M 525 4666 
L 3525 4666 
L 3525 4397 
L 1831 0 
L 1172 0 
L 2766 4134 
L 525 4134 
L 525 4666 
z
" transform="scale(0.015625)"/>
       </defs>
       <use xlink:href="#DejaVuSans-30"/>
       <use xlink:href="#DejaVuSans-2e" x="63.623047"/>
       <use xlink:href="#DejaVuSans-37" x="95.410156"/>
       <use xlink:href="#DejaVuSans-35" x="159.033203"/>
      </g>
     </g>
    </g>
    <g id="ytick_5">
     <g id="line2d_11">
      <g>
       <use xlink:href="#mb463f5b6f6" x="33.639688" y="34.548632" style="stroke: #000000; stroke-width: 0.5"/>
      </g>
     </g>
     <g id="text_5">
      <!-- 1.00 -->
      <g transform="translate(17.006875 36.448242) scale(0.05 -0.05)">
       <defs>
        <path id="DejaVuSans-31" d="M 794 531 
L 1825 531 
L 1825 4091 
L 703 3866 
L 703 4441 
L 1819 4666 
L 2450 4666 
L 2450 531 
L 3481 531 
L 3481 0 
L 794 0 
L 794 531 
z
" transform="scale(0.015625)"/>
       </defs>
       <use xlink:href="#DejaVuSans-31"/>
       <use xlink:href="#DejaVuSans-2e" x="63.623047"/>
       <use xlink:href="#DejaVuSans-30" x="95.410156"/>
       <use xlink:href="#DejaVuSans-30" x="159.033203"/>
      </g>
     </g>
    </g>
    <g id="ytick_6">
     <g id="line2d_12">
      <g>
       <use xlink:href="#mb463f5b6f6" x="33.639688" y="20.783458" style="stroke: #000000; stroke-width: 0.5"/>
      </g>
     </g>
     <g id="text_6">
      <!-- 1.25 -->
      <g transform="translate(17.006875 22.683067) scale(0.05 -0.05)">
       <use xlink:href="#DejaVuSans-31"/>
       <use xlink:href="#DejaVuSans-2e" x="63.623047"/>
       <use xlink:href="#DejaVuSans-32" x="95.410156"/>
       <use xlink:href="#DejaVuSans-35" x="159.033203"/>
      </g>
     </g>
    </g>
    <g id="text_7">
     <!-- $\Delta I(X;R)$ (softmax-IB bound) -->
     <g transform="translate(11.759062 97.595729) rotate(-90) scale(0.06 -0.06)">
      <defs>
       <path id="DejaVuSans-394" d="M 2188 4044 
L 906 525 
L 3472 525 
L 2188 4044 
z
M 50 0 
L 1831 4666 
L 2547 4666 
L 4325 0 
L 50 0 
z
" transform="scale(0.015625)"/>
       <path id="DejaVuSans-Oblique-49" d="M 1081 4666 
L 1716 4666 
L 806 0 
L 172 0 
L 1081 4666 
z
" transform="scale(0.015625)"/>
       <path id="DejaVuSans-28" d="M 1984 4856 
Q 1566 4138 1362 3434 
Q 1159 2731 1159 2009 
Q 1159 1288 1364 580 
Q 1569 -128 1984 -844 
L 1484 -844 
Q 1016 -109 783 600 
Q 550 1309 550 2009 
Q 550 2706 781 3412 
Q 1013 4119 1484 4856 
L 1984 4856 
z
" transform="scale(0.015625)"/>
       <path id="DejaVuSans-Oblique-58" d="M 878 4666 
L 1516 4666 
L 2316 2981 
L 3763 4666 
L 4500 4666 
L 2578 2438 
L 3738 0 
L 3103 0 
L 2163 1966 
L 459 0 
L -275 0 
L 1906 2509 
L 878 4666 
z
" transform="scale(0.015625)"/>
       <path id="DejaVuSans-3b" d="M 750 3309 
L 1409 3309 
L 1409 2516 
L 750 2516 
L 750 3309 
z
M 750 794 
L 1409 794 
L 1409 256 
L 897 -744 
L 494 -744 
L 750 256 
L 750 794 
z
" transform="scale(0.015625)"/>
       <path id="DejaVuSans-Oblique-52" d="M 1613 4147 
L 1294 2491 
L 2106 2491 
Q 2584 2491 2879 2755 
Q 3175 3019 3175 3444 
Q 3175 3784 2976 3965 
Q 2778 4147 2406 4147 
L 1613 4147 
z
M 2772 2241 
Q 2972 2194 3105 2009 
Q 3238 1825 3413 1275 
L 3809 0 
L 3144 0 
L 2778 1197 
Q 2638 1659 2453 1815 
Q 2269 1972 1888 1972 
L 1191 1972 
L 806 0 
L 172 0 
L 1081 4666 
L 2503 4666 
Q 3150 4666 3495 4373 
Q 3841 4081 3841 3531 
Q 3841 3044 3547 2687 
Q 3253 2331 2772 2241 
z
" transform="scale(0.015625)"/>
       <path id="DejaVuSans-29" d="M 513 4856 
L 1013 4856 
Q 1481 4119 1714 3412 
Q 1947 2706 1947 2009 
Q 1947 1309 1714 600 
Q 1481 -109 1013 -844 
L 513 -844 
Q 928 -128 1133 580 
Q 1338 1288 1338 2009 
Q 1338 2731 1133 3434 
Q 928 4138 513 4856 
z
" transform="scale(0.015625)"/>
       <path id="DejaVuSans-20" transform="scale(0.015625)"/>
       <path id="DejaVuSans-73" d="M 2834 3397 
L 2834 2853 
Q 2591 2978 2328 3040 
Q 2066 3103 1784 3103 
Q 1356 3103 1142 2972 
Q 928 2841 928 2578 
Q 928 2378 1081 2264 
Q 1234 2150 1697 2047 
L 1894 2003 
Q 2506 1872 2764 1633 
Q 3022 1394 3022 966 
Q 3022 478 2636 193 
Q 2250 -91 1575 -91 
Q 1294 -91 989 -36 
Q 684 19 347 128 
L 347 722 
Q 666 556 975 473 
Q 1284 391 1588 391 
Q 1994 391 2212 530 
Q 2431 669 2431 922 
Q 2431 1156 2273 1281 
Q 2116 1406 1581 1522 
L 1381 1569 
Q 847 1681 609 1914 
Q 372 2147 372 2553 
Q 372 3047 722 3315 
Q 1072 3584 1716 3584 
Q 2034 3584 2315 3537 
Q 2597 3491 2834 3397 
z
" transform="scale(0.015625)"/>
       <path id="DejaVuSans-6f" d="M 1959 3097 
Q 1497 3097 1228 2736 
Q 959 2375 959 1747 
Q 959 1119 1226 758 
Q 1494 397 1959 397 
Q 2419 397 2687 759 
Q 2956 1122 2956 1747 
Q 2956 2369 2687 2733 
Q 2419 3097 1959 3097 
z
M 1959 3584 
Q 2709 3584 3137 3096 
Q 3566 2609 3566 1747 
Q 3566 888 3137 398 
Q 2709 -91 1959 -91 
Q 1206 -91 779 398 
Q 353 888 353 1747 
Q 353 2609 779 3096 
Q 1206 3584 1959 3584 
z
" transform="scale(0.015625)"/>
       <path id="DejaVuSans-66" d="M 2375 4863 
L 2375 4384 
L 1825 4384 
Q 1516 4384 1395 4259 
Q 1275 4134 1275 3809 
L 1275 3500 
L 2222 3500 
L 2222 3053 
L 1275 3053 
L 1275 0 
L 697 0 
L 697 3053 
L 147 3053 
L 147 3500 
L 697 3500 
L 697 3744 
Q 697 4328 969 4595 
Q 1241 4863 1831 4863 
L 2375 4863 
z
" transform="scale(0.015625)"/>
       <path id="DejaVuSans-74" d="M 1172 4494 
L 1172 3500 
L 2356 3500 
L 2356 3053 
L 1172 3053 
L 1172 1153 
Q 1172 725 1289 603 
Q 1406 481 1766 481 
L 2356 481 
L 2356 0 
L 1766 0 
Q 1100 0 847 248 
Q 594 497 594 1153 
L 594 3053 
L 172 3053 
L 172 3500 
L 594 3500 
L 594 4494 
L 1172 4494 
z
" transform="scale(0.015625)"/>
       <path id="DejaVuSans-6d" d="M 3328 2828 
Q 3544 3216 3844 3400 
Q 4144 3584 4550 3584 
Q 5097 3584 5394 3201 
Q 5691 2819 5691 2113 
L 5691 0 
L 5113 0 
L 5113 2094 
Q 5113 2597 4934 2840 
Q 4756 3084 4391 3084 
Q 3944 3084 3684 2787 
Q 3425 2491 3425 1978 
L 3425 0 
L 2847 0 
L 2847 2094 
Q 2847 2600 2669 2842 
Q 2491 3084 2119 3084 
Q 1678 3084 1418 2786 
Q 1159 2488 1159 1978 
L 1159 0 
L 581 0 
L 581 3500 
L 1159 3500 
L 1159 2956 
Q 1356 3278 1631 3431 
Q 1906 3584 2284 3584 
Q 2666 3584 2933 3390 
Q 3200 3197 3328 2828 
z
" transform="scale(0.015625)"/>
       <path id="DejaVuSans-61" d="M 2194 1759 
Q 1497 1759 1228 1600 
Q 959 1441 959 1056 
Q 959 750 1161 570 
Q 1363 391 1709 391 
Q 2188 391 2477 730 
Q 2766 1069 2766 1631 
L 2766 1759 
L 2194 1759 
z
M 3341 1997 
L 3341 0 
L 2766 0 
L 2766 531 
Q 2569 213 2275 61 
Q 1981 -91 1556 -91 
Q 1019 -91 701 211 
Q 384 513 384 1019 
Q 384 1609 779 1909 
Q 1175 2209 1959 2209 
L 2766 2209 
L 2766 2266 
Q 2766 2663 2505 2880 
Q 2244 3097 1772 3097 
Q 1472 3097 1187 3025 
Q 903 2953 641 2809 
L 641 3341 
Q 956 3463 1253 3523 
Q 1550 3584 1831 3584 
Q 2591 3584 2966 3190 
Q 3341 2797 3341 1997 
z
" transform="scale(0.015625)"/>
       <path id="DejaVuSans-78" d="M 3513 3500 
L 2247 1797 
L 3578 0 
L 2900 0 
L 1881 1375 
L 863 0 
L 184 0 
L 1544 1831 
L 300 3500 
L 978 3500 
L 1906 2253 
L 2834 3500 
L 3513 3500 
z
" transform="scale(0.015625)"/>
       <path id="DejaVuSans-2d" d="M 313 2009 
L 1997 2009 
L 1997 1497 
L 313 1497 
L 313 2009 
z
" transform="scale(0.015625)"/>
       <path id="DejaVuSans-49" d="M 628 4666 
L 1259 4666 
L 1259 0 
L 628 0 
L 628 4666 
z
" transform="scale(0.015625)"/>
       <path id="DejaVuSans-42" d="M 1259 2228 
L 1259 519 
L 2272 519 
Q 2781 519 3026 730 
Q 3272 941 3272 1375 
Q 3272 1813 3026 2020 
Q 2781 2228 2272 2228 
L 1259 2228 
z
M 1259 4147 
L 1259 2741 
L 2194 2741 
Q 2656 2741 2882 2914 
Q 3109 3088 3109 3444 
Q 3109 3797 2882 3972 
Q 2656 4147 2194 4147 
L 1259 4147 
z
M 628 4666 
L 2241 4666 
Q 2963 4666 3353 4366 
Q 3744 4066 3744 3513 
Q 3744 3084 3544 2831 
Q 3344 2578 2956 2516 
Q 3422 2416 3680 2098 
Q 3938 1781 3938 1306 
Q 3938 681 3513 340 
Q 3088 0 2303 0 
L 628 0 
L 628 4666 
z
" transform="scale(0.015625)"/>
       <path id="DejaVuSans-62" d="M 3116 1747 
Q 3116 2381 2855 2742 
Q 2594 3103 2138 3103 
Q 1681 3103 1420 2742 
Q 1159 2381 1159 1747 
Q 1159 1113 1420 752 
Q 1681 391 2138 391 
Q 2594 391 2855 752 
Q 3116 1113 3116 1747 
z
M 1159 2969 
Q 1341 3281 1617 3432 
Q 1894 3584 2278 3584 
Q 2916 3584 3314 3078 
Q 3713 2572 3713 1747 
Q 3713 922 3314 415 
Q 2916 -91 2278 -91 
Q 1894 -91 1617 61 
Q 1341 213 1159 525 
L 1159 0 
L 581 0 
L 581 4863 
L 1159 4863 
L 1159 2969 
z
" transform="scale(0.015625)"/>
       <path id="DejaVuSans-75" d="M 544 1381 
L 544 3500 
L 1119 3500 
L 1119 1403 
Q 1119 906 1312 657 
Q 1506 409 1894 409 
Q 2359 409 2629 706 
Q 2900 1003 2900 1516 
L 2900 3500 
L 3475 3500 
L 3475 0 
L 2900 0 
L 2900 538 
Q 2691 219 2414 64 
Q 2138 -91 1772 -91 
Q 1169 -91 856 284 
Q 544 659 544 1381 
z
M 1991 3584 
L 1991 3584 
z
" transform="scale(0.015625)"/>
       <path id="DejaVuSans-6e" d="M 3513 2113 
L 3513 0 
L 2938 0 
L 2938 2094 
Q 2938 2591 2744 2837 
Q 2550 3084 2163 3084 
Q 1697 3084 1428 2787 
Q 1159 2491 1159 1978 
L 1159 0 
L 581 0 
L 581 3500 
L 1159 3500 
L 1159 2956 
Q 1366 3272 1645 3428 
Q 1925 3584 2291 3584 
Q 2894 3584 3203 3211 
Q 3513 2838 3513 2113 
z
" transform="scale(0.015625)"/>
       <path id="DejaVuSans-64" d="M 2906 2969 
L 2906 4863 
L 3481 4863 
L 3481 0 
L 2906 0 
L 2906 525 
Q 2725 213 2448 61 
Q 2172 -91 1784 -91 
Q 1150 -91 751 415 
Q 353 922 353 1747 
Q 353 2572 751 3078 
Q 1150 3584 1784 3584 
Q 2172 3584 2448 3432 
Q 2725 3281 2906 2969 
z
M 947 1747 
Q 947 1113 1208 752 
Q 1469 391 1925 391 
Q 2381 391 2643 752 
Q 2906 1113 2906 1747 
Q 2906 2381 2643 2742 
Q 2381 3103 1925 3103 
Q 1469 3103 1208 2742 
Q 947 2381 947 1747 
z
" transform="scale(0.015625)"/>
      </defs>
      <use xlink:href="#DejaVuSans-394" transform="translate(0 0.015625)"/>
      <use xlink:href="#DejaVuSans-Oblique-49" transform="translate(68.408203 0.015625)"/>
      <use xlink:href="#DejaVuSans-28" transform="translate(97.900391 0.015625)"/>
      <use xlink:href="#DejaVuSans-Oblique-58" transform="translate(136.914062 0.015625)"/>
      <use xlink:href="#DejaVuSans-3b" transform="translate(205.419922 0.015625)"/>
      <use xlink:href="#DejaVuSans-Oblique-52" transform="translate(258.59375 0.015625)"/>
      <use xlink:href="#DejaVuSans-29" transform="translate(328.076172 0.015625)"/>
      <use xlink:href="#DejaVuSans-20" transform="translate(367.089844 0.015625)"/>
      <use xlink:href="#DejaVuSans-28" transform="translate(398.876953 0.015625)"/>
      <use xlink:href="#DejaVuSans-73" transform="translate(437.890625 0.015625)"/>
      <use xlink:href="#DejaVuSans-6f" transform="translate(489.990234 0.015625)"/>
      <use xlink:href="#DejaVuSans-66" transform="translate(551.171875 0.015625)"/>
      <use xlink:href="#DejaVuSans-74" transform="translate(586.376953 0.015625)"/>
      <use xlink:href="#DejaVuSans-6d" transform="translate(625.585938 0.015625)"/>
      <use xlink:href="#DejaVuSans-61" transform="translate(722.998047 0.015625)"/>
      <use xlink:href="#DejaVuSans-78" transform="translate(784.277344 0.015625)"/>
      <use xlink:href="#DejaVuSans-2d" transform="translate(843.457031 0.015625)"/>
      <use xlink:href="#DejaVuSans-49" transform="translate(879.541016 0.015625)"/>
      <use xlink:href="#DejaVuSans-42" transform="translate(909.033203 0.015625)"/>
      <use xlink:href="#DejaVuSans-20" transform="translate(977.636719 0.015625)"/>
      <use xlink:href="#DejaVuSans-62" transform="translate(1009.423828 0.015625)"/>
      <use xlink:href="#DejaVuSans-6f" transform="translate(1072.900391 0.015625)"/>
      <use xlink:href="#DejaVuSans-75" transform="translate(1134.082031 0.015625)"/>
      <use xlink:href="#DejaVuSans-6e" transform="translate(1197.460938 0.015625)"/>
      <use xlink:href="#DejaVuSans-64" transform="translate(1260.839844 0.015625)"/>
      <use xlink:href="#DejaVuSans-29" transform="translate(1324.316406 0.015625)"/>
     </g>
    </g>
    <g id="text_8">
     <!-- 1e−14 -->
     <g transform="translate(33.639688 14.759062) scale(0.05 -0.05)">
      <defs>
       <path id="DejaVuSans-65" d="M 3597 1894 
L 3597 1613 
L 953 1613 
Q 991 1019 1311 708 
Q 1631 397 2203 397 
Q 2534 397 2845 478 
Q 3156 559 3463 722 
L 3463 178 
Q 3153 47 2828 -22 
Q 2503 -91 2169 -91 
Q 1331 -91 842 396 
Q 353 884 353 1716 
Q 353 2575 817 3079 
Q 1281 3584 2069 3584 
Q 2775 3584 3186 3129 
Q 3597 2675 3597 1894 
z
M 3022 2063 
Q 3016 2534 2758 2815 
Q 2500 3097 2075 3097 
Q 1594 3097 1305 2825 
Q 1016 2553 972 2059 
L 3022 2063 
z
" transform="scale(0.015625)"/>
       <path id="DejaVuSans-2212" d="M 678 2272 
L 4684 2272 
L 4684 1741 
L 678 1741 
L 678 2272 
z
" transform="scale(0.015625)"/>
       <path id="DejaVuSans-34" d="M 2419 4116 
L 825 1625 
L 2419 1625 
L 2419 4116 
z
M 2253 4666 
L 3047 4666 
L 3047 1625 
L 3713 1625 
L 3713 1100 
L 3047 1100 
L 3047 0 
L 2419 0 
L 2419 1100 
L 313 1100 
L 313 1709 
L 2253 4666 
z
" transform="scale(0.015625)"/>
      </defs>
      <use xlink:href="#DejaVuSans-31"/>
      <use xlink:href="#DejaVuSans-65" x="63.623047"/>
      <use xlink:href="#DejaVuSans-2212" x="125.146484"/>
      <use xlink:href="#DejaVuSans-31" x="208.935547"/>
      <use xlink:href="#DejaVuSans-34" x="272.558594"/>
     </g>
    </g>
   </g>
   <g id="line2d_13">
    <path d="M 36.878466 84.262874 
L 37.350636 51.345987 
L 37.632538 86.963563 
L 37.975669 55.897281 
L 38.379194 71.862628 
L 38.842137 64.995093 
L 39.941711 21.296941 
L 40.575749 72.989706 
L 41.26403 81.681579 
L 42.004982 46.283688 
L 42.796933 53.504628 
L 44.526732 41.240491 
L 45.460843 58.586031 
L 46.438499 83.343541 
L 47.457688 69.283721 
L 48.51636 66.609298 
L 49.612431 68.290364 
L 50.743798 64.546172 
L 51.908342 55.071076 
L 53.103939 74.632565 
L 54.328468 62.712283 
L 55.579818 66.074414 
L 56.855896 50.257115 
L 58.15463 67.297007 
L 59.473981 68.213952 
L 60.811944 65.310293 
L 62.166555 72.9515 
L 63.535893 71.423258 
L 64.91809 63.629227 
L 66.311327 79.370114 
L 67.713845 81.051179 
L 69.123938 79.675762 
L 70.539967 75.54951 
L 71.960351 74.785389 
L 73.383574 67.755479 
L 74.808186 81.204003 
L 76.232801 77.689048 
L 77.656099 75.54951 
L 79.076828 71.270434 
L 80.493797 74.326917 
L 81.905884 71.270434 
L 83.312028 74.021269 
L 84.711234 79.828586 
L 86.102567 67.908303 
L 87.485152 75.54951 
L 88.858175 74.021269 
L 90.220878 81.356827 
L 91.572559 73.715621 
L 92.912572 81.051179 
L 94.24032 82.273772 
L 95.555257 82.273772 
L 96.856889 76.772103 
L 98.144763 85.330255 
L 99.418474 81.051179 
L 100.677659 77.689048 
L 101.921994 82.273772 
L 103.151196 77.994696 
L 104.365018 82.273772 
L 105.563245 80.134234 
L 106.7457 84.107662 
L 107.912232 84.718958 
L 109.062725 77.689048 
L 110.197085 77.689048 
L 111.315248 80.134234 
L 112.417173 78.911641 
L 113.502843 81.662476 
L 114.572261 81.662476 
L 115.625451 83.496365 
L 116.662455 86.858496 
L 117.683334 84.107662 
L 118.688162 79.217289 
L 119.67703 82.273772 
L 120.650042 82.273772 
L 121.607316 85.330255 
L 122.54898 81.662476 
L 123.475172 86.552848 
L 124.386041 81.051179 
L 125.281746 83.496365 
L 126.16245 85.330255 
L 127.028326 79.828586 
L 127.879553 82.273772 
L 128.716314 88.998034 
L 129.538801 83.496365 
L 130.347205 83.496365 
L 131.141724 84.718958 
L 131.922559 83.496365 
L 132.689912 84.718958 
L 133.443991 87.164145 
L 134.185 82.273772 
L 134.91315 81.662476 
L 135.628649 83.496365 
L 136.331708 83.496365 
L 137.022536 82.273772 
L 137.701344 85.330255 
L 138.368342 84.718958 
L 139.023739 81.662476 
L 139.667743 85.941552 
L 140.300561 85.941552 
L 140.922399 82.885069 
L 141.533462 87.164145 
L 142.133952 84.107662 
L 142.72407 87.164145 
L 143.304015 84.718958 
L 143.873984 85.941552 
L 144.434171 84.718958 
L 144.984768 82.885069 
L 145.525965 83.496365 
L 146.05795 81.051179 
L 146.580907 84.718958 
L 147.095018 87.164145 
L 147.600462 85.941552 
L 148.097417 84.107662 
L 148.586055 89.609331 
L 149.066549 85.330255 
L 149.539065 87.164145 
L 150.003771 86.552848 
L 150.460827 83.496365 
L 150.910394 87.775441 
L 151.352628 87.164145 
L 151.787684 85.941552 
L 152.215712 82.885069 
L 152.63686 85.941552 
L 153.051274 87.164145 
L 153.860466 85.941552 
L 154.255521 88.386738 
L 154.644395 87.775441 
L 155.027219 84.107662 
L 155.404122 85.941552 
L 155.775229 87.164145 
L 156.140665 87.775441 
L 156.50055 84.107662 
L 156.855002 87.164145 
L 157.204137 86.552848 
L 157.548068 88.386738 
L 157.886905 82.885069 
L 158.220757 85.941552 
L 158.54973 87.775441 
L 159.193448 84.718958 
L 159.508393 88.998034 
L 159.81886 88.386738 
L 160.124941 87.164145 
L 160.42673 86.552848 
L 160.724316 87.775441 
L 161.017787 87.164145 
L 161.307231 88.386738 
L 161.59273 86.552848 
L 161.874367 87.164145 
L 162.152222 86.552848 
L 162.426374 88.998034 
L 162.696898 88.386738 
L 162.96387 85.941552 
L 163.227362 86.552848 
L 163.487446 88.998034 
L 163.744192 87.775441 
L 163.997666 87.164145 
L 164.247935 87.775441 
L 164.495065 88.998034 
L 164.739117 87.164145 
L 164.980154 88.386738 
L 165.218236 87.775441 
L 165.453422 86.552848 
L 165.685768 85.941552 
L 165.915331 88.386738 
L 166.142165 87.775441 
L 166.58786 85.941552 
L 166.806822 87.164145 
L 167.023262 87.164145 
L 167.237227 87.775441 
L 167.448764 85.941552 
L 167.864738 88.998034 
L 168.069264 87.775441 
L 168.271539 88.386738 
L 168.669506 88.386738 
L 168.865277 87.164145 
L 169.05896 87.164145 
L 169.250591 88.998034 
L 169.440209 88.386738 
L 169.627848 87.164145 
L 169.813544 87.164145 
L 169.997332 85.941552 
L 170.179245 85.941552 
L 170.359315 89.609331 
L 170.888791 85.330255 
L 171.061806 89.609331 
L 171.233131 88.386738 
L 171.402795 88.386738 
L 171.570825 87.164145 
L 171.902093 89.609331 
L 172.065383 86.552848 
L 172.227144 87.164145 
L 172.387401 87.164145 
L 172.546177 88.386738 
L 172.703496 87.164145 
L 172.859382 90.220627 
L 173.013856 88.386738 
L 173.166941 88.386738 
L 173.318657 87.164145 
L 173.469027 87.775441 
L 173.618069 88.998034 
L 173.765805 85.330255 
L 173.912254 85.330255 
L 174.057435 88.386738 
L 174.344066 87.164145 
L 174.485552 90.831924 
L 174.625843 88.386738 
L 174.764955 88.998034 
L 174.902904 87.775441 
L 175.039708 89.609331 
L 175.309941 86.552848 
L 175.443401 88.998034 
L 175.575778 87.775441 
L 175.707084 88.386738 
L 175.837336 88.386738 
L 175.966546 85.941552 
L 176.094729 88.386738 
L 176.221898 86.552848 
L 176.348066 86.552848 
L 176.473246 90.220627 
L 176.597451 88.998034 
L 176.720692 90.220627 
L 176.842983 87.164145 
L 176.964334 87.775441 
L 177.084757 90.220627 
L 177.204265 86.552848 
L 177.440575 87.775441 
L 177.5574 87.164145 
L 177.673351 90.220627 
L 177.902676 87.775441 
L 178.01607 90.220627 
L 178.351289 87.164145 
L 178.570727 88.386738 
L 178.67926 86.552848 
L 178.894 87.775441 
L 179.000222 87.164145 
L 179.105691 88.998034 
L 179.314399 87.164145 
L 179.520187 88.386738 
L 179.723114 87.775441 
L 179.823523 89.609331 
L 179.923238 85.941552 
L 180.022267 88.998034 
L 180.120617 86.552848 
L 180.218293 90.220627 
L 180.411654 87.164145 
L 180.507351 87.164145 
L 180.602401 88.386738 
L 180.69681 86.552848 
L 180.790584 87.164145 
L 180.88373 89.609331 
L 181.068157 87.775441 
L 181.159451 88.386738 
L 181.250139 87.164145 
L 181.42972 88.386738 
L 181.518624 86.552848 
L 181.694684 88.386738 
L 181.781851 86.552848 
L 181.954483 87.775441 
L 182.039959 89.609331 
L 182.209253 87.775441 
L 182.293081 89.609331 
L 182.459122 87.775441 
L 182.541344 88.998034 
L 182.62304 87.775441 
L 182.78487 88.386738 
L 182.865013 87.775441 
L 182.944647 89.609331 
L 183.023777 87.775441 
L 183.102405 88.386738 
L 183.180537 87.775441 
L 183.258176 90.220627 
L 183.335326 87.775441 
L 183.411991 88.998034 
L 183.488175 87.164145 
L 183.639117 88.386738 
L 183.713881 88.998034 
L 183.788179 88.386738 
L 183.862014 88.998034 
L 184.008313 87.775441 
L 184.080783 89.609331 
L 184.224381 88.386738 
L 184.366214 88.386738 
L 184.436476 87.164145 
L 184.506307 87.775441 
L 184.575709 89.609331 
L 184.644687 88.998034 
L 184.713242 88.386738 
L 184.781379 90.220627 
L 184.8491 85.941552 
L 184.916408 88.998034 
L 184.983306 87.164145 
L 185.115887 87.164145 
L 185.181574 87.775441 
L 185.246864 89.609331 
L 185.311759 86.552848 
L 185.440375 89.609331 
L 185.630408 87.164145 
L 185.7552 89.609331 
L 185.817036 87.164145 
L 185.878501 87.775441 
L 185.939599 87.164145 
L 186.060702 90.220627 
L 186.180364 87.775441 
L 186.298606 89.609331 
L 186.357201 88.998034 
L 186.415449 87.775441 
L 186.47335 88.386738 
L 186.530909 88.386738 
L 186.588128 88.998034 
L 186.701552 87.164145 
L 186.757763 89.609331 
L 186.869193 87.164145 
L 186.924416 90.831924 
L 186.979315 87.775441 
L 187.088148 88.998034 
L 187.142086 87.775441 
L 187.195708 88.386738 
L 187.249016 88.386738 
L 187.302012 89.609331 
L 187.354699 88.386738 
L 187.407078 88.998034 
L 187.510922 87.775441 
L 187.61356 90.220627 
L 187.765291 87.164145 
L 187.963525 89.609331 
L 188.109211 87.775441 
L 188.204939 89.609331 
L 188.346475 87.775441 
L 188.393112 89.609331 
L 188.485585 88.998034 
L 188.577001 88.998034 
L 188.622316 87.164145 
L 188.667372 88.998034 
L 188.756714 88.386738 
L 188.888823 88.998034 
L 188.975646 87.775441 
L 189.018688 89.609331 
L 189.061485 88.386738 
L 189.104038 87.775441 
L 189.230257 90.220627 
L 189.395237 87.775441 
L 189.435901 90.220627 
L 189.476336 89.609331 
L 189.596277 88.386738 
L 189.714204 89.609331 
L 189.830154 88.386738 
L 189.944165 89.609331 
L 190.056274 87.775441 
L 190.166514 89.609331 
L 190.310657 88.386738 
L 190.346193 87.775441 
L 190.381531 89.609331 
L 190.416674 87.164145 
L 190.451621 86.552848 
L 190.589485 89.609331 
L 190.657278 89.609331 
L 190.790633 87.164145 
L 190.888734 89.609331 
L 190.921074 88.998034 
L 190.953238 90.220627 
L 190.985224 87.775441 
L 191.048672 88.386738 
L 191.080135 85.941552 
L 191.142546 89.609331 
L 191.173495 89.609331 
L 191.325724 88.386738 
L 191.355673 88.386738 
L 191.385459 90.220627 
L 191.444546 87.775441 
L 191.473849 88.998034 
L 191.531978 89.609331 
L 191.560805 88.998034 
L 191.646355 85.330255 
L 191.617993 89.609331 
L 191.674563 88.386738 
L 191.758274 90.220627 
L 191.785877 88.998034 
L 191.813331 88.998034 
L 191.867796 89.609331 
L 191.894808 88.386738 
L 191.974976 88.386738 
L 192.027705 87.775441 
L 192.157072 90.831924 
L 192.307799 87.164145 
L 192.356975 87.775441 
L 192.42976 90.220627 
L 192.477641 89.609331 
L 192.571886 87.775441 
L 192.641265 89.609331 
L 192.664147 88.386738 
L 192.709549 89.609331 
L 192.73207 87.775441 
L 192.776756 90.831924 
L 192.842904 90.220627 
L 192.864722 88.386738 
L 192.886425 90.831924 
L 192.95085 88.998034 
L 193.035183 89.609331 
L 193.097279 87.164145 
L 193.117762 90.220627 
L 193.158406 87.775441 
L 193.297355 89.609331 
L 193.39354 88.386738 
L 193.412478 88.998034 
L 193.45006 88.998034 
L 193.468705 88.386738 
L 193.487253 89.609331 
L 193.542324 89.609331 
L 193.560491 90.831924 
L 193.614431 87.164145 
L 193.649928 90.220627 
L 193.68506 87.164145 
L 193.754245 88.998034 
L 193.788305 91.44322 
L 193.838743 88.386738 
L 193.871938 89.609331 
L 193.969501 88.386738 
L 194.079596 90.831924 
L 194.20069 88.386738 
L 194.215483 88.386738 
L 194.259411 90.220627 
L 194.331152 88.998034 
L 194.345283 88.998034 
L 194.387248 88.386738 
L 194.46929 89.609331 
L 194.482723 89.609331 
L 194.496089 90.220627 
L 194.509387 87.775441 
L 194.587782 89.609331 
L 194.613391 89.609331 
L 194.725497 88.386738 
L 194.844262 90.220627 
L 194.878748 87.775441 
L 194.946188 88.998034 
L 194.957233 90.831924 
L 195.04364 87.775441 
L 195.054201 89.609331 
L 195.064709 89.609331 
L 195.075166 92.054517 
L 195.126676 88.386738 
L 195.166973 90.831924 
L 195.27376 87.775441 
L 195.283183 88.386738 
L 195.320412 90.831924 
L 195.347855 87.164145 
L 195.392701 88.998034 
L 195.436455 90.831924 
L 195.49593 89.609331 
L 195.5208 87.775441 
L 195.512551 90.220627 
L 195.601101 88.998034 
L 195.632134 90.220627 
L 195.692407 87.775441 
L 195.70711 89.609331 
L 195.721671 90.220627 
L 195.819702 88.386738 
L 195.930082 90.831924 
L 195.936295 87.775441 
L 196.043106 89.609331 
L 196.054407 89.609331 
L 196.09853 88.386738 
L 196.119957 90.831924 
L 196.161584 88.998034 
L 196.230656 91.44322 
L 196.191761 87.775441 
L 196.277201 89.609331 
L 196.35966 87.775441 
L 196.321545 90.831924 
L 196.388177 88.998034 
L 196.478933 90.831924 
L 196.404045 87.775441 
L 196.49655 89.609331 
L 196.510339 90.831924 
L 196.60862 88.386738 
L 196.656571 91.44322 
L 196.623135 87.775441 
L 196.717883 88.998034 
L 196.732128 87.775441 
L 196.743686 91.44322 
L 196.787213 89.609331 
" clip-path="url(#pa9c4e144ab)" style="fill: none; stroke: #1f77b4; stroke-width: 0.7; stroke-linecap: square"/>
   </g>
   <g id="line2d_14">
    <path d="M 36.846884 89.609331 
L 197.206722 89.609331 
" clip-path="url(#pa9c4e144ab)" style="fill: none; stroke-dasharray: 2.59,1.12; stroke-dashoffset: 0; stroke: #000000; stroke-width: 0.7"/>
   </g>
   <g id="patch_3">
    <path d="M 33.639688 95.592396 
L 33.639688 17.759062 
" style="fill: none; stroke: #000000; stroke-width: 0.5; stroke-linejoin: miter; stroke-linecap: square"/>
   </g>
   <g id="patch_4">
    <path d="M 33.639688 95.592396 
L 200.413918 95.592396 
" style="fill: none; stroke: #000000; stroke-width: 0.5; stroke-linejoin: miter; stroke-linecap: square"/>
   </g>
   <g id="text_9">
    <!-- $I(X;R)$ difference -->
    <g transform="translate(91.916803 11.759062) scale(0.06 -0.06)">
     <defs>
      <path id="DejaVuSans-69" d="M 603 3500 
L 1178 3500 
L 1178 0 
L 603 0 
L 603 3500 
z
M 603 4863 
L 1178 4863 
L 1178 4134 
L 603 4134 
L 603 4863 
z
" transform="scale(0.015625)"/>
      <path id="DejaVuSans-72" d="M 2631 2963 
Q 2534 3019 2420 3045 
Q 2306 3072 2169 3072 
Q 1681 3072 1420 2755 
Q 1159 2438 1159 1844 
L 1159 0 
L 581 0 
L 581 3500 
L 1159 3500 
L 1159 2956 
Q 1341 3275 1631 3429 
Q 1922 3584 2338 3584 
Q 2397 3584 2469 3576 
Q 2541 3569 2628 3553 
L 2631 2963 
z
" transform="scale(0.015625)"/>
      <path id="DejaVuSans-63" d="M 3122 3366 
L 3122 2828 
Q 2878 2963 2633 3030 
Q 2388 3097 2138 3097 
Q 1578 3097 1268 2742 
Q 959 2388 959 1747 
Q 959 1106 1268 751 
Q 1578 397 2138 397 
Q 2388 397 2633 464 
Q 2878 531 3122 666 
L 3122 134 
Q 2881 22 2623 -34 
Q 2366 -91 2075 -91 
Q 1284 -91 818 406 
Q 353 903 353 1747 
Q 353 2603 823 3093 
Q 1294 3584 2113 3584 
Q 2378 3584 2631 3529 
Q 2884 3475 3122 3366 
z
" transform="scale(0.015625)"/>
     </defs>
     <use xlink:href="#DejaVuSans-Oblique-49" transform="translate(0 0.015625)"/>
     <use xlink:href="#DejaVuSans-28" transform="translate(29.492188 0.015625)"/>
     <use xlink:href="#DejaVuSans-Oblique-58" transform="translate(68.505859 0.015625)"/>
     <use xlink:href="#DejaVuSans-3b" transform="translate(137.011719 0.015625)"/>
     <use xlink:href="#DejaVuSans-Oblique-52" transform="translate(190.185547 0.015625)"/>
     <use xlink:href="#DejaVuSans-29" transform="translate(259.667969 0.015625)"/>
     <use xlink:href="#DejaVuSans-20" transform="translate(298.681641 0.015625)"/>
     <use xlink:href="#DejaVuSans-64" transform="translate(330.46875 0.015625)"/>
     <use xlink:href="#DejaVuSans-69" transform="translate(393.945312 0.015625)"/>
     <use xlink:href="#DejaVuSans-66" transform="translate(421.728516 0.015625)"/>
     <use xlink:href="#DejaVuSans-66" transform="translate(456.933594 0.015625)"/>
     <use xlink:href="#DejaVuSans-65" transform="translate(492.138672 0.015625)"/>
     <use xlink:href="#DejaVuSans-72" transform="translate(553.662109 0.015625)"/>
     <use xlink:href="#DejaVuSans-65" transform="translate(594.775391 0.015625)"/>
     <use xlink:href="#DejaVuSans-6e" transform="translate(656.298828 0.015625)"/>
     <use xlink:href="#DejaVuSans-63" transform="translate(719.677734 0.015625)"/>
     <use xlink:href="#DejaVuSans-65" transform="translate(774.658203 0.015625)"/>
    </g>
   </g>
  </g>
  <g id="axes_2">
   <g id="patch_5">
    <path d="M 33.639688 197.265729 
L 200.413918 197.265729 
L 200.413918 119.432396 
L 33.639688 119.432396 
z
" style="fill: #ffffff"/>
   </g>
   <g id="matplotlib.axis_3">
    <g id="xtick_7">
     <g id="line2d_15">
      <g>
       <use xlink:href="#mf2f707fd55" x="36.846884" y="197.265729" style="stroke: #000000; stroke-width: 0.5"/>
      </g>
     </g>
    </g>
    <g id="xtick_8">
     <g id="line2d_16">
      <g>
       <use xlink:href="#mf2f707fd55" x="68.918852" y="197.265729" style="stroke: #000000; stroke-width: 0.5"/>
      </g>
     </g>
    </g>
    <g id="xtick_9">
     <g id="line2d_17">
      <g>
       <use xlink:href="#mf2f707fd55" x="100.990819" y="197.265729" style="stroke: #000000; stroke-width: 0.5"/>
      </g>
     </g>
    </g>
    <g id="xtick_10">
     <g id="line2d_18">
      <g>
       <use xlink:href="#mf2f707fd55" x="133.062787" y="197.265729" style="stroke: #000000; stroke-width: 0.5"/>
      </g>
     </g>
    </g>
    <g id="xtick_11">
     <g id="line2d_19">
      <g>
       <use xlink:href="#mf2f707fd55" x="165.134754" y="197.265729" style="stroke: #000000; stroke-width: 0.5"/>
      </g>
     </g>
    </g>
    <g id="xtick_12">
     <g id="line2d_20">
      <g>
       <use xlink:href="#mf2f707fd55" x="197.206722" y="197.265729" style="stroke: #000000; stroke-width: 0.5"/>
      </g>
     </g>
    </g>
   </g>
   <g id="matplotlib.axis_4">
    <g id="ytick_7">
     <g id="line2d_21">
      <g>
       <use xlink:href="#mb463f5b6f6" x="33.639688" y="186.470663" style="stroke: #000000; stroke-width: 0.5"/>
      </g>
     </g>
     <g id="text_10">
      <!-- 0 -->
      <g transform="translate(24.958438 188.370272) scale(0.05 -0.05)">
       <use xlink:href="#DejaVuSans-30"/>
      </g>
     </g>
    </g>
    <g id="ytick_8">
     <g id="line2d_22">
      <g>
       <use xlink:href="#mb463f5b6f6" x="33.639688" y="164.681686" style="stroke: #000000; stroke-width: 0.5"/>
      </g>
     </g>
     <g id="text_11">
      <!-- 2 -->
      <g transform="translate(24.958438 166.581295) scale(0.05 -0.05)">
       <use xlink:href="#DejaVuSans-32"/>
      </g>
     </g>
    </g>
    <g id="ytick_9">
     <g id="line2d_23">
      <g>
       <use xlink:href="#mb463f5b6f6" x="33.639688" y="142.892709" style="stroke: #000000; stroke-width: 0.5"/>
      </g>
     </g>
     <g id="text_12">
      <!-- 4 -->
      <g transform="translate(24.958438 144.792318) scale(0.05 -0.05)">
       <use xlink:href="#DejaVuSans-34"/>
      </g>
     </g>
    </g>
    <g id="ytick_10">
     <g id="line2d_24">
      <g>
       <use xlink:href="#mb463f5b6f6" x="33.639688" y="121.103731" style="stroke: #000000; stroke-width: 0.5"/>
      </g>
     </g>
     <g id="text_13">
      <!-- 6 -->
      <g transform="translate(24.958438 123.003341) scale(0.05 -0.05)">
       <defs>
        <path id="DejaVuSans-36" d="M 2113 2584 
Q 1688 2584 1439 2293 
Q 1191 2003 1191 1497 
Q 1191 994 1439 701 
Q 1688 409 2113 409 
Q 2538 409 2786 701 
Q 3034 994 3034 1497 
Q 3034 2003 2786 2293 
Q 2538 2584 2113 2584 
z
M 3366 4563 
L 3366 3988 
Q 3128 4100 2886 4159 
Q 2644 4219 2406 4219 
Q 1781 4219 1451 3797 
Q 1122 3375 1075 2522 
Q 1259 2794 1537 2939 
Q 1816 3084 2150 3084 
Q 2853 3084 3261 2657 
Q 3669 2231 3669 1497 
Q 3669 778 3244 343 
Q 2819 -91 2113 -91 
Q 1303 -91 875 529 
Q 447 1150 447 2328 
Q 447 3434 972 4092 
Q 1497 4750 2381 4750 
Q 2619 4750 2861 4703 
Q 3103 4656 3366 4563 
z
" transform="scale(0.015625)"/>
       </defs>
       <use xlink:href="#DejaVuSans-36"/>
      </g>
     </g>
    </g>
    <g id="text_14">
     <!-- $\Delta I(R;Y)$ (softmax-IB bound) -->
     <g transform="translate(19.710625 199.029062) rotate(-90) scale(0.06 -0.06)">
      <defs>
       <path id="DejaVuSans-Oblique-59" d="M 403 4666 
L 1081 4666 
L 1953 2747 
L 3616 4666 
L 4325 4666 
L 2209 2222 
L 1778 0 
L 1147 0 
L 1575 2222 
L 403 4666 
z
" transform="scale(0.015625)"/>
      </defs>
      <use xlink:href="#DejaVuSans-394" transform="translate(0 0.015625)"/>
      <use xlink:href="#DejaVuSans-Oblique-49" transform="translate(68.408203 0.015625)"/>
      <use xlink:href="#DejaVuSans-28" transform="translate(97.900391 0.015625)"/>
      <use xlink:href="#DejaVuSans-Oblique-52" transform="translate(136.914062 0.015625)"/>
      <use xlink:href="#DejaVuSans-3b" transform="translate(206.396484 0.015625)"/>
      <use xlink:href="#DejaVuSans-Oblique-59" transform="translate(259.570312 0.015625)"/>
      <use xlink:href="#DejaVuSans-29" transform="translate(320.654297 0.015625)"/>
      <use xlink:href="#DejaVuSans-20" transform="translate(359.667969 0.015625)"/>
      <use xlink:href="#DejaVuSans-28" transform="translate(391.455078 0.015625)"/>
      <use xlink:href="#DejaVuSans-73" transform="translate(430.46875 0.015625)"/>
      <use xlink:href="#DejaVuSans-6f" transform="translate(482.568359 0.015625)"/>
      <use xlink:href="#DejaVuSans-66" transform="translate(543.75 0.015625)"/>
      <use xlink:href="#DejaVuSans-74" transform="translate(578.955078 0.015625)"/>
      <use xlink:href="#DejaVuSans-6d" transform="translate(618.164062 0.015625)"/>
      <use xlink:href="#DejaVuSans-61" transform="translate(715.576172 0.015625)"/>
      <use xlink:href="#DejaVuSans-78" transform="translate(776.855469 0.015625)"/>
      <use xlink:href="#DejaVuSans-2d" transform="translate(836.035156 0.015625)"/>
      <use xlink:href="#DejaVuSans-49" transform="translate(872.119141 0.015625)"/>
      <use xlink:href="#DejaVuSans-42" transform="translate(901.611328 0.015625)"/>
      <use xlink:href="#DejaVuSans-20" transform="translate(970.214844 0.015625)"/>
      <use xlink:href="#DejaVuSans-62" transform="translate(1002.001953 0.015625)"/>
      <use xlink:href="#DejaVuSans-6f" transform="translate(1065.478516 0.015625)"/>
      <use xlink:href="#DejaVuSans-75" transform="translate(1126.660156 0.015625)"/>
      <use xlink:href="#DejaVuSans-6e" transform="translate(1190.039062 0.015625)"/>
      <use xlink:href="#DejaVuSans-64" transform="translate(1253.417969 0.015625)"/>
      <use xlink:href="#DejaVuSans-29" transform="translate(1316.894531 0.015625)"/>
     </g>
    </g>
    <g id="text_15">
     <!-- 1e−15 -->
     <g transform="translate(33.639688 116.432396) scale(0.05 -0.05)">
      <use xlink:href="#DejaVuSans-31"/>
      <use xlink:href="#DejaVuSans-65" x="63.623047"/>
      <use xlink:href="#DejaVuSans-2212" x="125.146484"/>
      <use xlink:href="#DejaVuSans-31" x="208.935547"/>
      <use xlink:href="#DejaVuSans-35" x="272.558594"/>
     </g>
    </g>
   </g>
   <g id="line2d_25">
    <path d="M 36.878466 182.445192 
L 36.973135 172.80674 
L 37.130654 173.222517 
L 37.350636 152.660486 
L 37.632538 184.958749 
L 37.975669 158.122275 
L 38.379194 175.131308 
L 38.842137 165.757441 
L 39.363388 151.923428 
L 39.941711 122.970275 
L 40.575749 170.973544 
L 41.26403 180.952177 
L 42.004982 151.318662 
L 42.796933 154.796065 
L 43.638128 152.679385 
L 44.526732 142.700752 
L 45.460843 158.424658 
L 46.438499 180.800986 
L 47.457688 170.293183 
L 48.51636 163.338379 
L 49.612431 163.791953 
L 50.743798 164.094336 
L 51.908342 156.837148 
L 53.103939 176.492031 
L 54.328468 166.362207 
L 55.579818 169.839609 
L 56.855896 152.754981 
L 58.15463 166.362207 
L 59.473981 164.396719 
L 60.811944 165.60625 
L 62.166555 171.04914 
L 63.535893 168.781269 
L 64.91809 161.221699 
L 66.311327 181.178964 
L 67.713845 178.306327 
L 69.123938 176.945605 
L 70.539967 178.759902 
L 71.960351 178.155136 
L 73.383574 164.699101 
L 74.808186 182.993261 
L 76.232801 178.457519 
L 77.656099 175.282499 
L 79.076828 174.22416 
L 80.493797 171.04914 
L 81.905884 171.04914 
L 83.312028 174.526542 
L 84.711234 179.213476 
L 86.102567 169.839609 
L 87.485152 168.932461 
L 88.858175 170.141992 
L 90.220878 180.423007 
L 91.572559 172.863437 
L 92.912572 181.027773 
L 94.24032 184.656366 
L 95.555257 183.144452 
L 96.856889 175.887265 
L 98.144763 184.051601 
L 99.418474 178.60871 
L 100.677659 177.399179 
L 101.921994 183.749218 
L 103.151196 174.375351 
L 104.365018 182.237304 
L 105.563245 182.842069 
L 106.7457 182.237304 
L 107.912232 184.051601 
L 109.062725 171.351523 
L 110.197085 180.423007 
L 111.315248 181.632538 
L 112.417173 179.818241 
L 113.502843 180.423007 
L 115.625451 182.842069 
L 116.662455 187.680194 
L 117.683334 185.563515 
L 118.688162 179.213476 
L 119.67703 182.539687 
L 120.650042 182.237304 
L 121.607316 186.16828 
L 122.54898 181.330155 
L 123.475172 190.704022 
L 124.386041 181.330155 
L 125.281746 184.051601 
L 126.16245 183.446835 
L 127.028326 177.701562 
L 127.879553 182.539687 
L 128.716314 192.215936 
L 129.538801 182.539687 
L 130.347205 184.353984 
L 131.141724 184.656366 
L 131.922559 183.749218 
L 132.689912 183.446835 
L 133.443991 188.28496 
L 134.185 179.213476 
L 134.91315 177.399179 
L 135.628649 183.749218 
L 136.331708 183.749218 
L 137.022536 179.213476 
L 137.701344 186.16828 
L 138.368342 182.842069 
L 139.023739 181.330155 
L 140.300561 181.330155 
L 140.922399 184.353984 
L 141.533462 186.773046 
L 142.133952 185.563515 
L 142.72407 184.656366 
L 143.304015 182.237304 
L 143.873984 186.773046 
L 144.434171 185.563515 
L 144.984768 181.027773 
L 145.525965 181.330155 
L 146.05795 179.818241 
L 146.580907 183.446835 
L 147.095018 186.16828 
L 147.600462 184.353984 
L 148.097417 183.144452 
L 148.586055 190.099257 
L 149.066549 180.120624 
L 149.539065 186.773046 
L 150.003771 186.16828 
L 150.460827 182.237304 
L 150.910394 184.958749 
L 151.352628 189.494491 
L 151.787684 182.237304 
L 152.215712 180.423007 
L 152.63686 185.261132 
L 153.051274 186.470663 
L 153.459096 184.353984 
L 153.860466 183.144452 
L 154.255521 188.889726 
L 155.027219 181.934921 
L 155.404122 185.563515 
L 155.775229 186.470663 
L 156.140665 186.470663 
L 156.50055 178.911093 
L 156.855002 186.470663 
L 157.204137 183.749218 
L 157.548068 186.16828 
L 157.886905 181.934921 
L 158.220757 188.889726 
L 158.54973 185.865898 
L 159.193448 185.865898 
L 159.508393 188.889726 
L 159.81886 185.261132 
L 160.124941 187.680194 
L 160.42673 183.446835 
L 160.724316 185.865898 
L 161.017787 185.865898 
L 161.307231 189.494491 
L 161.59273 185.261132 
L 161.874367 186.470663 
L 162.152222 182.842069 
L 162.426374 187.680194 
L 162.696898 188.28496 
L 162.96387 183.446835 
L 163.227362 185.261132 
L 163.487446 190.704022 
L 163.744192 184.051601 
L 164.247935 188.28496 
L 164.495065 188.28496 
L 164.739117 181.632538 
L 164.980154 187.680194 
L 165.218236 188.889726 
L 165.685768 182.842069 
L 165.915331 189.494491 
L 166.142165 182.237304 
L 166.366324 185.261132 
L 166.58786 184.656366 
L 166.806822 185.261132 
L 167.023262 186.470663 
L 167.237227 182.842069 
L 167.448764 185.865898 
L 167.657919 185.261132 
L 168.069264 188.28496 
L 168.271539 189.494491 
L 168.471606 182.842069 
L 168.669506 187.680194 
L 168.865277 183.446835 
L 169.250591 190.099257 
L 169.440209 188.28496 
L 169.627848 188.28496 
L 169.813544 187.680194 
L 169.997332 182.842069 
L 170.179245 182.842069 
L 170.359315 187.680194 
L 170.537576 182.842069 
L 170.714058 185.261132 
L 170.888791 182.237304 
L 171.061806 189.494491 
L 171.233131 188.28496 
L 171.402795 184.051601 
L 171.570825 186.470663 
L 171.737249 187.075429 
L 171.902093 188.889726 
L 172.065383 180.423007 
L 172.227144 185.261132 
L 172.387401 180.423007 
L 172.546177 186.470663 
L 172.703496 184.051601 
L 172.859382 187.680194 
L 173.013856 182.842069 
L 173.166941 186.470663 
L 173.469027 184.051601 
L 173.618069 187.075429 
L 173.765805 181.632538 
L 173.912254 182.842069 
L 174.057435 187.075429 
L 174.201366 186.470663 
L 174.344066 184.051601 
L 174.625843 189.494491 
L 174.902904 184.656366 
L 175.039708 191.308788 
L 175.309941 184.051601 
L 175.575778 187.075429 
L 175.707084 187.680194 
L 175.837336 188.889726 
L 175.966546 182.842069 
L 176.094729 185.261132 
L 176.348066 179.213476 
L 176.473246 193.72785 
L 176.597451 185.865898 
L 176.720692 190.704022 
L 176.842983 186.470663 
L 177.084757 190.099257 
L 177.204265 182.842069 
L 177.440575 188.28496 
L 177.5574 182.842069 
L 177.78844 190.099257 
L 177.902676 187.075429 
L 178.01607 187.075429 
L 178.12863 187.680194 
L 178.351289 183.446835 
L 178.461406 187.680194 
L 178.787015 184.051601 
L 178.894 187.680194 
L 179.000222 181.632538 
L 179.105691 190.099257 
L 179.314399 182.237304 
L 179.520187 190.704022 
L 179.723114 182.237304 
L 179.823523 190.099257 
L 179.923238 181.632538 
L 180.120617 187.680194 
L 180.315304 189.494491 
L 180.507351 184.656366 
L 180.602401 187.680194 
L 180.69681 181.632538 
L 180.88373 186.470663 
L 180.976252 184.051601 
L 181.068157 187.680194 
L 181.250139 184.051601 
L 181.42972 185.865898 
L 181.518624 180.423007 
L 181.694684 185.261132 
L 181.781851 184.656366 
L 181.868449 182.237304 
L 182.039959 187.075429 
L 182.124881 186.470663 
L 182.209253 187.075429 
L 182.459122 185.261132 
L 182.541344 187.680194 
L 182.62304 182.842069 
L 182.704214 184.051601 
L 182.78487 187.075429 
L 182.865013 185.261132 
L 182.944647 187.680194 
L 183.023777 181.632538 
L 183.180537 191.308788 
L 183.335326 184.656366 
L 183.411991 187.680194 
L 183.488175 182.842069 
L 183.639117 186.470663 
L 183.713881 187.680194 
L 183.788179 187.075429 
L 183.862014 188.28496 
L 184.008313 184.656366 
L 184.080783 187.680194 
L 184.152805 186.470663 
L 184.224381 187.075429 
L 184.295517 191.308788 
L 184.366214 189.494491 
L 184.436476 182.842069 
L 184.506307 187.680194 
L 184.575709 186.470663 
L 184.644687 186.470663 
L 184.781379 188.889726 
L 184.8491 182.842069 
L 184.916408 186.470663 
L 184.983306 185.261132 
L 185.049798 187.680194 
L 185.115887 187.075429 
L 185.181574 187.075429 
L 185.440375 191.308788 
L 185.504102 184.656366 
L 185.567446 187.075429 
L 185.630408 184.656366 
L 185.692992 188.889726 
L 185.7552 184.656366 
L 185.817036 186.470663 
L 185.878501 186.470663 
L 185.939599 184.051601 
L 186.000332 188.28496 
L 186.060702 185.261132 
L 186.180364 187.075429 
L 186.239662 185.261132 
L 186.298606 190.099257 
L 186.357201 187.680194 
L 186.415449 185.865898 
L 186.47335 188.889726 
L 186.530909 185.865898 
L 186.588128 186.470663 
L 186.645008 186.470663 
L 186.701552 182.842069 
L 186.757763 189.494491 
L 186.813643 185.261132 
L 186.869193 184.051601 
L 186.924416 190.099257 
L 186.979315 182.237304 
L 187.033892 186.470663 
L 187.088148 184.051601 
L 187.195708 188.889726 
L 187.354699 186.470663 
L 187.407078 186.470663 
L 187.510922 184.051601 
L 187.61356 191.308788 
L 187.664432 187.075429 
L 187.715008 186.470663 
L 187.765291 189.494491 
L 187.864983 181.632538 
L 188.06093 191.913554 
L 188.157213 184.656366 
L 188.204939 187.680194 
L 188.25239 188.28496 
L 188.299568 184.051601 
L 188.346475 186.470663 
L 188.393112 190.099257 
L 188.439482 184.051601 
L 188.531424 185.261132 
L 188.577001 188.889726 
L 188.622316 184.051601 
L 188.888823 188.28496 
L 188.932359 187.075429 
L 189.104038 184.051601 
L 189.230257 189.494491 
L 189.354342 185.261132 
L 189.395237 184.051601 
L 189.435901 188.28496 
L 189.516542 186.470663 
L 189.596277 184.656366 
L 189.675116 183.446835 
L 189.714204 187.680194 
L 189.791721 185.865898 
L 189.944165 189.494491 
L 190.129973 185.261132 
L 190.166514 188.28496 
L 190.202852 186.470663 
L 190.310657 182.842069 
L 190.381531 189.494491 
L 190.451621 185.865898 
L 190.520936 184.051601 
L 190.555305 185.865898 
L 190.623475 188.889726 
L 190.657278 186.470663 
L 190.690894 181.632538 
L 190.724325 190.704022 
L 190.757571 185.261132 
L 190.921074 191.913554 
L 190.953238 188.889726 
L 190.985224 181.027773 
L 191.080135 181.632538 
L 191.234887 190.099257 
L 191.29561 185.261132 
L 191.355673 187.680194 
L 191.385459 187.680194 
L 191.444546 185.261132 
L 191.473849 186.470663 
L 191.531978 189.494491 
L 191.560805 187.680194 
L 191.617993 190.099257 
L 191.646355 181.632538 
L 191.758274 191.308788 
L 191.948397 181.632538 
L 191.974976 189.494491 
L 192.07987 187.680194 
L 192.105742 185.261132 
L 192.157072 188.28496 
L 192.182531 188.889726 
L 192.207854 187.680194 
L 192.283013 188.28496 
L 192.332453 184.051601 
L 192.42976 186.470663 
L 192.453765 182.842069 
L 192.525014 187.075429 
L 192.548512 186.470663 
L 192.571886 182.237304 
L 192.641265 185.865898 
L 192.664147 189.494491 
L 192.73207 184.051601 
L 192.754472 186.470663 
L 192.842904 185.865898 
L 192.908013 190.704022 
L 193.014266 182.842069 
L 193.076689 187.075429 
L 193.097279 181.632538 
L 193.138137 185.261132 
L 193.178569 182.842069 
L 193.258173 188.28496 
L 193.297355 188.889726 
L 193.316793 185.865898 
L 193.33613 190.099257 
L 193.412478 184.051601 
L 193.431318 182.842069 
L 193.45006 187.680194 
L 193.468705 186.470663 
L 193.487253 186.470663 
L 193.560491 189.494491 
L 193.524062 185.261132 
L 193.578564 186.470663 
L 193.632225 190.099257 
L 193.68506 182.237304 
L 193.788305 189.494491 
L 193.805204 187.680194 
L 193.822017 189.494491 
L 193.838743 186.470663 
L 193.871938 188.28496 
L 193.888408 184.656366 
L 193.904793 191.308788 
L 193.985471 186.470663 
L 194.00136 186.470663 
L 194.017168 185.261132 
L 194.048542 187.680194 
L 194.064109 186.470663 
L 194.079596 190.099257 
L 194.155858 185.261132 
L 194.170878 187.680194 
L 194.273905 181.632538 
L 194.2302 190.704022 
L 194.288326 184.656366 
L 194.359342 187.075429 
L 194.401095 185.865898 
L 194.414873 185.261132 
L 194.46929 187.680194 
L 194.482723 187.680194 
L 194.496089 189.494491 
L 194.522618 182.842069 
L 194.561913 185.261132 
L 194.57488 183.446835 
L 194.600619 187.075429 
L 194.651325 186.470663 
L 194.713289 184.656366 
L 194.773718 191.308788 
L 194.878748 182.237304 
L 194.890129 186.470663 
L 194.901453 186.470663 
L 194.957233 189.494491 
L 195.02236 188.28496 
L 195.075166 191.308788 
L 195.136825 184.051601 
L 195.156974 190.099257 
L 195.186824 183.446835 
L 195.254774 186.470663 
L 195.264291 186.470663 
L 195.347855 181.632538 
L 195.320412 189.494491 
L 195.356913 186.470663 
L 195.419083 191.308788 
L 195.445078 185.261132 
L 195.462196 185.865898 
L 195.5208 184.051601 
L 195.487559 187.680194 
L 195.529008 185.865898 
L 195.561443 189.494491 
L 195.545305 183.446835 
L 195.632134 187.680194 
L 195.639798 180.423007 
L 195.655014 188.889726 
L 195.736089 186.470663 
L 195.785458 188.889726 
L 195.806105 185.261132 
L 195.846503 186.470663 
L 195.917565 183.446835 
L 195.911261 190.099257 
L 195.954752 186.470663 
L 195.990869 191.308788 
L 196.008536 185.261132 
L 196.065599 186.470663 
L 196.076683 182.842069 
L 196.082184 188.889726 
L 196.171741 185.865898 
L 196.191761 182.842069 
L 196.272647 190.704022 
L 196.351332 182.237304 
L 196.384162 186.470663 
L 196.396149 186.470663 
L 196.434872 184.656366 
L 196.449844 188.889726 
L 196.500022 186.470663 
L 196.59974 188.889726 
L 196.543668 183.446835 
L 196.611551 187.680194 
L 196.675196 181.632538 
L 196.661957 191.913554 
L 196.725057 185.261132 
L 196.770308 191.308788 
L 196.732128 182.842069 
L 196.787213 186.470663 
" clip-path="url(#p48f83a9001)" style="fill: none; stroke: #1f77b4; stroke-width: 0.7; stroke-linecap: square"/>
   </g>
   <g id="line2d_26">
    <path d="M 36.846884 186.470663 
L 197.206722 186.470663 
" clip-path="url(#p48f83a9001)" style="fill: none; stroke-dasharray: 2.59,1.12; stroke-dashoffset: 0; stroke: #000000; stroke-width: 0.7"/>
   </g>
   <g id="patch_6">
    <path d="M 33.639688 197.265729 
L 33.639688 119.432396 
" style="fill: none; stroke: #000000; stroke-width: 0.5; stroke-linejoin: miter; stroke-linecap: square"/>
   </g>
   <g id="patch_7">
    <path d="M 33.639688 197.265729 
L 200.413918 197.265729 
" style="fill: none; stroke: #000000; stroke-width: 0.5; stroke-linejoin: miter; stroke-linecap: square"/>
   </g>
   <g id="text_16">
    <!-- $I(R;Y)$ difference -->
    <g transform="translate(92.156803 113.432396) scale(0.06 -0.06)">
     <use xlink:href="#DejaVuSans-Oblique-49" transform="translate(0 0.015625)"/>
     <use xlink:href="#DejaVuSans-28" transform="translate(29.492188 0.015625)"/>
     <use xlink:href="#DejaVuSans-Oblique-52" transform="translate(68.505859 0.015625)"/>
     <use xlink:href="#DejaVuSans-3b" transform="translate(137.988281 0.015625)"/>
     <use xlink:href="#DejaVuSans-Oblique-59" transform="translate(191.162109 0.015625)"/>
     <use xlink:href="#DejaVuSans-29" transform="translate(252.246094 0.015625)"/>
     <use xlink:href="#DejaVuSans-20" transform="translate(291.259766 0.015625)"/>
     <use xlink:href="#DejaVuSans-64" transform="translate(323.046875 0.015625)"/>
     <use xlink:href="#DejaVuSans-69" transform="translate(386.523438 0.015625)"/>
     <use xlink:href="#DejaVuSans-66" transform="translate(414.306641 0.015625)"/>
     <use xlink:href="#DejaVuSans-66" transform="translate(449.511719 0.015625)"/>
     <use xlink:href="#DejaVuSans-65" transform="translate(484.716797 0.015625)"/>
     <use xlink:href="#DejaVuSans-72" transform="translate(546.240234 0.015625)"/>
     <use xlink:href="#DejaVuSans-65" transform="translate(587.353516 0.015625)"/>
     <use xlink:href="#DejaVuSans-6e" transform="translate(648.876953 0.015625)"/>
     <use xlink:href="#DejaVuSans-63" transform="translate(712.255859 0.015625)"/>
     <use xlink:href="#DejaVuSans-65" transform="translate(767.236328 0.015625)"/>
    </g>
   </g>
  </g>
  <g id="axes_3">
   <g id="patch_8">
    <path d="M 33.639688 298.939062 
L 200.413918 298.939062 
L 200.413918 221.105729 
L 33.639688 221.105729 
z
" style="fill: #ffffff"/>
   </g>
   <g id="matplotlib.axis_5">
    <g id="xtick_13">
     <g id="line2d_27">
      <g>
       <use xlink:href="#mf2f707fd55" x="36.846884" y="298.939062" style="stroke: #000000; stroke-width: 0.5"/>
      </g>
     </g>
     <g id="text_17">
      <!-- 0.0 -->
      <g transform="translate(32.871103 308.238281) scale(0.05 -0.05)">
       <use xlink:href="#DejaVuSans-30"/>
       <use xlink:href="#DejaVuSans-2e" x="63.623047"/>
       <use xlink:href="#DejaVuSans-30" x="95.410156"/>
      </g>
     </g>
    </g>
    <g id="xtick_14">
     <g id="line2d_28">
      <g>
       <use xlink:href="#mf2f707fd55" x="68.918852" y="298.939062" style="stroke: #000000; stroke-width: 0.5"/>
      </g>
     </g>
     <g id="text_18">
      <!-- 0.2 -->
      <g transform="translate(64.94307 308.238281) scale(0.05 -0.05)">
       <use xlink:href="#DejaVuSans-30"/>
       <use xlink:href="#DejaVuSans-2e" x="63.623047"/>
       <use xlink:href="#DejaVuSans-32" x="95.410156"/>
      </g>
     </g>
    </g>
    <g id="xtick_15">
     <g id="line2d_29">
      <g>
       <use xlink:href="#mf2f707fd55" x="100.990819" y="298.939062" style="stroke: #000000; stroke-width: 0.5"/>
      </g>
     </g>
     <g id="text_19">
      <!-- 0.4 -->
      <g transform="translate(97.015038 308.238281) scale(0.05 -0.05)">
       <use xlink:href="#DejaVuSans-30"/>
       <use xlink:href="#DejaVuSans-2e" x="63.623047"/>
       <use xlink:href="#DejaVuSans-34" x="95.410156"/>
      </g>
     </g>
    </g>
    <g id="xtick_16">
     <g id="line2d_30">
      <g>
       <use xlink:href="#mf2f707fd55" x="133.062787" y="298.939062" style="stroke: #000000; stroke-width: 0.5"/>
      </g>
     </g>
     <g id="text_20">
      <!-- 0.6 -->
      <g transform="translate(129.087005 308.238281) scale(0.05 -0.05)">
       <use xlink:href="#DejaVuSans-30"/>
       <use xlink:href="#DejaVuSans-2e" x="63.623047"/>
       <use xlink:href="#DejaVuSans-36" x="95.410156"/>
      </g>
     </g>
    </g>
    <g id="xtick_17">
     <g id="line2d_31">
      <g>
       <use xlink:href="#mf2f707fd55" x="165.134754" y="298.939062" style="stroke: #000000; stroke-width: 0.5"/>
      </g>
     </g>
     <g id="text_21">
      <!-- 0.8 -->
      <g transform="translate(161.158973 308.238281) scale(0.05 -0.05)">
       <defs>
        <path id="DejaVuSans-38" d="M 2034 2216 
Q 1584 2216 1326 1975 
Q 1069 1734 1069 1313 
Q 1069 891 1326 650 
Q 1584 409 2034 409 
Q 2484 409 2743 651 
Q 3003 894 3003 1313 
Q 3003 1734 2745 1975 
Q 2488 2216 2034 2216 
z
M 1403 2484 
Q 997 2584 770 2862 
Q 544 3141 544 3541 
Q 544 4100 942 4425 
Q 1341 4750 2034 4750 
Q 2731 4750 3128 4425 
Q 3525 4100 3525 3541 
Q 3525 3141 3298 2862 
Q 3072 2584 2669 2484 
Q 3125 2378 3379 2068 
Q 3634 1759 3634 1313 
Q 3634 634 3220 271 
Q 2806 -91 2034 -91 
Q 1263 -91 848 271 
Q 434 634 434 1313 
Q 434 1759 690 2068 
Q 947 2378 1403 2484 
z
M 1172 3481 
Q 1172 3119 1398 2916 
Q 1625 2713 2034 2713 
Q 2441 2713 2670 2916 
Q 2900 3119 2900 3481 
Q 2900 3844 2670 4047 
Q 2441 4250 2034 4250 
Q 1625 4250 1398 4047 
Q 1172 3844 1172 3481 
z
" transform="scale(0.015625)"/>
       </defs>
       <use xlink:href="#DejaVuSans-30"/>
       <use xlink:href="#DejaVuSans-2e" x="63.623047"/>
       <use xlink:href="#DejaVuSans-38" x="95.410156"/>
      </g>
     </g>
    </g>
    <g id="xtick_18">
     <g id="line2d_32">
      <g>
       <use xlink:href="#mf2f707fd55" x="197.206722" y="298.939062" style="stroke: #000000; stroke-width: 0.5"/>
      </g>
     </g>
     <g id="text_22">
      <!-- 1.0 -->
      <g transform="translate(193.23094 308.238281) scale(0.05 -0.05)">
       <use xlink:href="#DejaVuSans-31"/>
       <use xlink:href="#DejaVuSans-2e" x="63.623047"/>
       <use xlink:href="#DejaVuSans-30" x="95.410156"/>
      </g>
     </g>
    </g>
   </g>
   <g id="matplotlib.axis_6">
    <g id="ytick_11">
     <g id="line2d_33">
      <g>
       <use xlink:href="#mb463f5b6f6" x="33.639688" y="295.401184" style="stroke: #000000; stroke-width: 0.5"/>
      </g>
     </g>
     <g id="text_23">
      <!-- 0 -->
      <g transform="translate(24.958438 297.300793) scale(0.05 -0.05)">
       <use xlink:href="#DejaVuSans-30"/>
      </g>
     </g>
    </g>
    <g id="ytick_12">
     <g id="line2d_34">
      <g>
       <use xlink:href="#mb463f5b6f6" x="33.639688" y="282.551837" style="stroke: #000000; stroke-width: 0.5"/>
      </g>
     </g>
     <g id="text_24">
      <!-- 1 -->
      <g transform="translate(24.958438 284.451447) scale(0.05 -0.05)">
       <use xlink:href="#DejaVuSans-31"/>
      </g>
     </g>
    </g>
    <g id="ytick_13">
     <g id="line2d_35">
      <g>
       <use xlink:href="#mb463f5b6f6" x="33.639688" y="269.702491" style="stroke: #000000; stroke-width: 0.5"/>
      </g>
     </g>
     <g id="text_25">
      <!-- 2 -->
      <g transform="translate(24.958438 271.6021) scale(0.05 -0.05)">
       <use xlink:href="#DejaVuSans-32"/>
      </g>
     </g>
    </g>
    <g id="ytick_14">
     <g id="line2d_36">
      <g>
       <use xlink:href="#mb463f5b6f6" x="33.639688" y="256.853144" style="stroke: #000000; stroke-width: 0.5"/>
      </g>
     </g>
     <g id="text_26">
      <!-- 3 -->
      <g transform="translate(24.958438 258.752754) scale(0.05 -0.05)">
       <defs>
        <path id="DejaVuSans-33" d="M 2597 2516 
Q 3050 2419 3304 2112 
Q 3559 1806 3559 1356 
Q 3559 666 3084 287 
Q 2609 -91 1734 -91 
Q 1441 -91 1130 -33 
Q 819 25 488 141 
L 488 750 
Q 750 597 1062 519 
Q 1375 441 1716 441 
Q 2309 441 2620 675 
Q 2931 909 2931 1356 
Q 2931 1769 2642 2001 
Q 2353 2234 1838 2234 
L 1294 2234 
L 1294 2753 
L 1863 2753 
Q 2328 2753 2575 2939 
Q 2822 3125 2822 3475 
Q 2822 3834 2567 4026 
Q 2313 4219 1838 4219 
Q 1578 4219 1281 4162 
Q 984 4106 628 3988 
L 628 4550 
Q 988 4650 1302 4700 
Q 1616 4750 1894 4750 
Q 2613 4750 3031 4423 
Q 3450 4097 3450 3541 
Q 3450 3153 3228 2886 
Q 3006 2619 2597 2516 
z
" transform="scale(0.015625)"/>
       </defs>
       <use xlink:href="#DejaVuSans-33"/>
      </g>
     </g>
    </g>
    <g id="ytick_15">
     <g id="line2d_37">
      <g>
       <use xlink:href="#mb463f5b6f6" x="33.639688" y="244.003798" style="stroke: #000000; stroke-width: 0.5"/>
      </g>
     </g>
     <g id="text_27">
      <!-- 4 -->
      <g transform="translate(24.958438 245.903407) scale(0.05 -0.05)">
       <use xlink:href="#DejaVuSans-34"/>
      </g>
     </g>
    </g>
    <g id="ytick_16">
     <g id="line2d_38">
      <g>
       <use xlink:href="#mb463f5b6f6" x="33.639688" y="231.154451" style="stroke: #000000; stroke-width: 0.5"/>
      </g>
     </g>
     <g id="text_28">
      <!-- 5 -->
      <g transform="translate(24.958438 233.054061) scale(0.05 -0.05)">
       <use xlink:href="#DejaVuSans-35"/>
      </g>
     </g>
    </g>
    <g id="text_29">
     <!-- max $\Delta p(r|x)$ (softmax-IB bound) -->
     <g transform="translate(19.518438 307.722396) rotate(-90) scale(0.06 -0.06)">
      <defs>
       <path id="DejaVuSans-Oblique-70" d="M 3175 2156 
Q 3175 2616 2975 2859 
Q 2775 3103 2400 3103 
Q 2144 3103 1911 2972 
Q 1678 2841 1497 2591 
Q 1319 2344 1212 1994 
Q 1106 1644 1106 1300 
Q 1106 863 1306 627 
Q 1506 391 1875 391 
Q 2147 391 2380 519 
Q 2613 647 2778 891 
Q 2956 1147 3065 1494 
Q 3175 1841 3175 2156 
z
M 1394 2969 
Q 1625 3272 1939 3428 
Q 2253 3584 2638 3584 
Q 3175 3584 3472 3232 
Q 3769 2881 3769 2247 
Q 3769 1728 3584 1258 
Q 3400 788 3053 416 
Q 2822 169 2531 39 
Q 2241 -91 1919 -91 
Q 1547 -91 1294 64 
Q 1041 219 916 525 
L 556 -1331 
L -19 -1331 
L 922 3500 
L 1497 3500 
L 1394 2969 
z
" transform="scale(0.015625)"/>
       <path id="DejaVuSans-Oblique-72" d="M 2853 2969 
Q 2766 3016 2653 3041 
Q 2541 3066 2413 3066 
Q 1953 3066 1609 2717 
Q 1266 2369 1153 1784 
L 800 0 
L 225 0 
L 909 3500 
L 1484 3500 
L 1375 2956 
Q 1603 3259 1920 3421 
Q 2238 3584 2597 3584 
Q 2691 3584 2781 3573 
Q 2872 3563 2963 3538 
L 2853 2969 
z
" transform="scale(0.015625)"/>
       <path id="DejaVuSans-7c" d="M 1344 4891 
L 1344 -1509 
L 813 -1509 
L 813 4891 
L 1344 4891 
z
" transform="scale(0.015625)"/>
       <path id="DejaVuSans-Oblique-78" d="M 3841 3500 
L 2234 1784 
L 3219 0 
L 2559 0 
L 1819 1388 
L 531 0 
L -166 0 
L 1556 1844 
L 641 3500 
L 1300 3500 
L 1972 2234 
L 3144 3500 
L 3841 3500 
z
" transform="scale(0.015625)"/>
      </defs>
      <use xlink:href="#DejaVuSans-6d" transform="translate(0 0.578125)"/>
      <use xlink:href="#DejaVuSans-61" transform="translate(97.412109 0.578125)"/>
      <use xlink:href="#DejaVuSans-78" transform="translate(158.691406 0.578125)"/>
      <use xlink:href="#DejaVuSans-20" transform="translate(217.871094 0.578125)"/>
      <use xlink:href="#DejaVuSans-394" transform="translate(249.658203 0.578125)"/>
      <use xlink:href="#DejaVuSans-Oblique-70" transform="translate(318.066406 0.578125)"/>
      <use xlink:href="#DejaVuSans-28" transform="translate(381.542969 0.578125)"/>
      <use xlink:href="#DejaVuSans-Oblique-72" transform="translate(420.556641 0.578125)"/>
      <use xlink:href="#DejaVuSans-7c" transform="translate(461.669922 0.578125)"/>
      <use xlink:href="#DejaVuSans-Oblique-78" transform="translate(495.361328 0.578125)"/>
      <use xlink:href="#DejaVuSans-29" transform="translate(554.541016 0.578125)"/>
      <use xlink:href="#DejaVuSans-20" transform="translate(593.554688 0.578125)"/>
      <use xlink:href="#DejaVuSans-28" transform="translate(625.341797 0.578125)"/>
      <use xlink:href="#DejaVuSans-73" transform="translate(664.355469 0.578125)"/>
      <use xlink:href="#DejaVuSans-6f" transform="translate(716.455078 0.578125)"/>
      <use xlink:href="#DejaVuSans-66" transform="translate(777.636719 0.578125)"/>
      <use xlink:href="#DejaVuSans-74" transform="translate(812.841797 0.578125)"/>
      <use xlink:href="#DejaVuSans-6d" transform="translate(852.050781 0.578125)"/>
      <use xlink:href="#DejaVuSans-61" transform="translate(949.462891 0.578125)"/>
      <use xlink:href="#DejaVuSans-78" transform="translate(1010.742188 0.578125)"/>
      <use xlink:href="#DejaVuSans-2d" transform="translate(1069.921875 0.578125)"/>
      <use xlink:href="#DejaVuSans-49" transform="translate(1106.005859 0.578125)"/>
      <use xlink:href="#DejaVuSans-42" transform="translate(1135.498047 0.578125)"/>
      <use xlink:href="#DejaVuSans-20" transform="translate(1204.101562 0.578125)"/>
      <use xlink:href="#DejaVuSans-62" transform="translate(1235.888672 0.578125)"/>
      <use xlink:href="#DejaVuSans-6f" transform="translate(1299.365234 0.578125)"/>
      <use xlink:href="#DejaVuSans-75" transform="translate(1360.546875 0.578125)"/>
      <use xlink:href="#DejaVuSans-6e" transform="translate(1423.925781 0.578125)"/>
      <use xlink:href="#DejaVuSans-64" transform="translate(1487.304688 0.578125)"/>
      <use xlink:href="#DejaVuSans-29" transform="translate(1550.78125 0.578125)"/>
     </g>
    </g>
    <g id="text_30">
     <!-- 1e−14 -->
     <g transform="translate(33.639688 218.105729) scale(0.05 -0.05)">
      <use xlink:href="#DejaVuSans-31"/>
      <use xlink:href="#DejaVuSans-65" x="63.623047"/>
      <use xlink:href="#DejaVuSans-2212" x="125.146484"/>
      <use xlink:href="#DejaVuSans-31" x="208.935547"/>
      <use xlink:href="#DejaVuSans-34" x="272.558594"/>
     </g>
    </g>
   </g>
   <g id="line2d_39">
    <path d="M 36.878466 244.330192 
L 37.130654 231.348459 
L 37.350636 224.643608 
L 37.632538 293.118681 
L 37.975669 240.40714 
L 38.379194 261.306303 
L 38.842137 266.727247 
L 39.363388 255.88536 
L 39.941711 239.907843 
L 40.575749 283.846015 
L 41.26403 289.552271 
L 42.004982 263.874119 
L 42.796933 272.718816 
L 43.638128 272.718816 
L 44.526732 268.367795 
L 45.460843 275.286631 
L 46.438499 292.262743 
L 47.457688 286.057189 
L 48.51636 285.985861 
L 49.612431 287.840394 
L 51.908342 282.84742 
L 53.103939 288.838989 
L 54.328468 286.128518 
L 55.579818 286.556487 
L 56.855896 283.132733 
L 58.15463 289.552271 
L 59.473981 289.409615 
L 60.811944 288.125707 
L 62.166555 291.97743 
L 63.535893 291.549461 
L 64.91809 287.983051 
L 66.311327 292.833368 
L 67.713845 292.690712 
L 69.123938 290.336881 
L 70.539967 292.833368 
L 71.960351 290.693522 
L 73.383574 290.265553 
L 74.808186 291.264148 
L 76.232801 292.405399 
L 77.656099 291.478133 
L 79.076828 291.549461 
L 80.493797 292.690712 
L 81.905884 289.409615 
L 83.312028 290.265553 
L 84.711234 291.97743 
L 86.102567 291.549461 
L 87.485152 292.976025 
L 88.858175 293.261338 
L 90.220878 293.97462 
L 91.572559 291.834774 
L 92.912572 293.261338 
L 94.24032 294.259932 
L 95.555257 294.259932 
L 98.144763 293.118681 
L 99.418474 294.259932 
L 101.921994 293.403994 
L 103.151196 293.938956 
L 104.365018 294.259932 
L 105.563245 293.54665 
L 106.7457 293.831963 
L 107.912232 293.97462 
L 109.062725 293.831963 
L 111.315248 292.405399 
L 112.417173 293.97462 
L 113.502843 294.117276 
L 114.572261 294.402589 
L 115.625451 294.117276 
L 116.662455 294.830558 
L 117.683334 292.76204 
L 118.688162 292.548056 
L 119.67703 293.938956 
L 120.650042 294.402589 
L 121.607316 294.117276 
L 123.475172 294.117276 
L 124.386041 293.97462 
L 125.281746 294.616573 
L 126.16245 294.545245 
L 127.028326 293.54665 
L 127.879553 293.903291 
L 128.716314 294.794894 
L 129.538801 294.402589 
L 130.347205 294.259932 
L 131.141724 293.831963 
L 131.922559 293.190009 
L 132.689912 294.117276 
L 133.443991 294.794894 
L 134.185 294.259932 
L 134.91315 294.402589 
L 135.628649 294.117276 
L 136.331708 294.331261 
L 137.022536 294.259932 
L 138.368342 294.545245 
L 139.023739 293.97462 
L 139.667743 293.97462 
L 140.300561 293.689307 
L 140.922399 294.545245 
L 142.133952 294.366925 
L 142.72407 294.402589 
L 143.873984 294.010284 
L 144.434171 294.545245 
L 145.525965 293.261338 
L 146.05795 293.689307 
L 147.095018 293.118681 
L 147.600462 293.332666 
L 148.097417 294.545245 
L 148.586055 294.830558 
L 149.066549 293.403994 
L 149.539065 293.97462 
L 150.003771 293.617979 
L 150.460827 294.259932 
L 150.910394 294.259932 
L 151.352628 292.904697 
L 151.787684 294.545245 
L 152.215712 293.510986 
L 152.63686 295.044543 
L 153.051274 293.689307 
L 153.459096 294.580909 
L 153.860466 293.54665 
L 154.255521 293.831963 
L 154.644395 294.402589 
L 155.027219 294.545245 
L 155.404122 294.117276 
L 155.775229 294.259932 
L 156.140665 294.794894 
L 156.50055 293.97462 
L 156.855002 294.652238 
L 157.204137 294.259932 
L 157.548068 294.117276 
L 157.886905 294.331261 
L 158.220757 293.97462 
L 158.54973 294.973215 
L 158.873926 292.476727 
L 159.508393 294.830558 
L 159.81886 294.794894 
L 160.124941 293.689307 
L 160.42673 294.402589 
L 161.017787 294.295597 
L 161.307231 294.545245 
L 161.59273 293.118681 
L 161.874367 294.830558 
L 162.152222 294.402589 
L 162.426374 293.332666 
L 162.696898 294.402589 
L 162.96387 293.118681 
L 163.487446 294.687902 
L 163.744192 293.97462 
L 163.997666 294.75923 
L 164.247935 294.545245 
L 164.495065 295.115871 
L 164.739117 294.616573 
L 164.980154 294.545245 
L 165.218236 293.54665 
L 165.453422 294.545245 
L 165.685768 294.545245 
L 165.915331 294.75923 
L 166.142165 294.545245 
L 166.366324 294.616573 
L 166.58786 294.402589 
L 166.806822 293.97462 
L 167.023262 294.188604 
L 167.237227 294.652238 
L 167.448764 294.830558 
L 167.657919 294.259932 
L 167.864738 293.261338 
L 168.069264 294.830558 
L 168.271539 293.118681 
L 168.471606 294.687902 
L 168.669506 294.830558 
L 168.865277 293.190009 
L 169.05896 294.473917 
L 169.250591 294.901886 
L 169.440209 294.259932 
L 169.627848 294.687902 
L 169.813544 293.118681 
L 170.179245 294.259932 
L 170.359315 294.259932 
L 170.537576 294.509581 
L 170.888791 292.976025 
L 171.233131 294.687902 
L 171.402795 294.812726 
L 171.570825 294.259932 
L 171.737249 294.259932 
L 172.065383 294.634406 
L 172.227144 293.796299 
L 172.546177 294.812726 
L 172.703496 294.830558 
L 172.859382 294.687902 
L 173.013856 293.903291 
L 173.166941 293.97462 
L 173.318657 294.545245 
L 173.469027 294.117276 
L 173.618069 294.259932 
L 173.765805 293.831963 
L 174.057435 294.580909 
L 174.201366 293.867627 
L 174.344066 294.973215 
L 174.485552 294.687902 
L 174.625843 294.15294 
L 174.764955 294.687902 
L 174.902904 293.261338 
L 175.039708 294.687902 
L 175.309941 294.402589 
L 175.443401 294.830558 
L 175.575778 294.402589 
L 175.707084 294.687902 
L 175.837336 294.687902 
L 175.966546 294.402589 
L 176.221898 294.687902 
L 176.348066 293.54665 
L 176.473246 293.689307 
L 176.720692 294.616573 
L 176.964334 293.97462 
L 177.084757 294.973215 
L 177.440575 293.403994 
L 177.5574 293.439658 
L 177.673351 294.723566 
L 177.78844 294.652238 
L 177.902676 294.295597 
L 178.01607 294.473917 
L 178.12863 293.54665 
L 178.240366 294.687902 
L 178.461406 294.366925 
L 178.570727 294.75923 
L 178.67926 294.687902 
L 178.787015 294.830558 
L 178.894 294.616573 
L 179.105691 294.117276 
L 179.210414 293.689307 
L 179.314399 294.438253 
L 179.417654 293.653643 
L 179.723114 294.830558 
L 179.823523 294.866222 
L 179.923238 293.582315 
L 180.022267 294.545245 
L 180.120617 293.118681 
L 180.218293 295.115871 
L 180.315304 294.117276 
L 180.411654 294.259932 
L 180.507351 294.652238 
L 180.69681 294.117276 
L 180.790584 294.545245 
L 181.068157 293.938956 
L 181.159451 294.830558 
L 181.250139 293.97462 
L 181.42972 294.545245 
L 181.518624 293.403994 
L 181.694684 294.973215 
L 181.868449 293.403994 
L 182.039959 294.545245 
L 182.124881 294.545245 
L 182.209253 294.687902 
L 182.376369 293.653643 
L 182.459122 294.081612 
L 182.541344 294.15294 
L 182.62304 294.616573 
L 182.704214 293.403994 
L 182.78487 294.081612 
L 182.865013 292.548056 
L 182.944647 294.545245 
L 183.023777 293.403994 
L 183.180537 294.901886 
L 183.258176 294.545245 
L 183.335326 294.830558 
L 183.411991 294.580909 
L 183.488175 294.830558 
L 183.563883 293.831963 
L 183.639117 294.259932 
L 183.788179 294.687902 
L 183.862014 294.045948 
L 183.935391 294.366925 
L 184.152805 294.93755 
L 184.366214 293.403994 
L 184.575709 294.830558 
L 184.713242 293.261338 
L 184.916408 295.227321 
L 184.983306 293.831963 
L 185.049798 294.687902 
L 185.115887 293.831963 
L 185.181574 294.259932 
L 185.246864 294.259932 
L 185.311759 293.97462 
L 185.440375 294.402589 
L 185.504102 294.402589 
L 185.567446 294.545245 
L 185.630408 294.473917 
L 185.7552 293.796299 
L 185.817036 294.402589 
L 185.878501 292.904697 
L 185.939599 294.349093 
L 186.000332 293.831963 
L 186.060702 294.117276 
L 186.120712 294.973215 
L 186.180364 294.830558 
L 186.357201 294.259932 
L 186.415449 294.687902 
L 186.588128 294.188604 
L 186.701552 294.545245 
L 186.757763 293.831963 
L 186.813643 294.259932 
L 186.924416 294.830558 
L 186.979315 293.510986 
L 187.142086 294.973215 
L 187.249016 293.403994 
L 187.302012 294.830558 
L 187.354699 294.705734 
L 187.562391 294.117276 
L 187.664432 294.687902 
L 187.715008 294.491749 
L 187.765291 293.617979 
L 187.815282 294.777062 
L 187.914397 294.75923 
L 188.06093 293.671475 
L 188.109211 294.973215 
L 188.157213 293.689307 
L 188.204939 293.742803 
L 188.346475 294.830558 
L 188.393112 294.117276 
L 188.485585 294.170772 
L 188.531424 294.67007 
L 188.622316 294.545245 
L 188.667372 294.402589 
L 188.712171 295.115871 
L 188.756714 294.420421 
L 188.801002 294.438253 
L 188.845038 294.687902 
L 188.932359 294.580909 
L 188.975646 294.687902 
L 189.018688 294.117276 
L 189.061485 294.545245 
L 189.104038 295.008879 
L 189.188423 294.830558 
L 189.230257 295.115871 
L 189.313215 293.831963 
L 189.354342 294.67007 
L 189.395237 293.938956 
L 189.435901 294.491749 
L 189.476336 295.008879 
L 189.516542 294.527413 
L 189.556522 294.456085 
L 189.596277 294.830558 
L 189.635808 294.010284 
L 189.675116 294.117276 
L 189.791721 294.830558 
L 189.906375 294.117276 
L 189.981745 295.044543 
L 190.019114 294.973215 
L 190.093226 294.117276 
L 190.166514 294.366925 
L 190.202852 294.402589 
L 190.274922 294.259932 
L 190.346193 294.919718 
L 190.451621 293.653643 
L 190.520936 294.402589 
L 190.657278 294.830558 
L 190.690894 295.098039 
L 190.724325 294.491749 
L 190.757571 294.509581 
L 190.823514 295.115871 
L 190.856214 294.812726 
L 190.921074 294.830558 
L 190.953238 294.687902 
L 191.017035 294.973215 
L 191.111426 295.080207 
L 191.142546 294.099444 
L 191.204275 294.973215 
L 191.234887 294.830558 
L 191.265332 293.831963 
L 191.325724 294.545245 
L 191.355673 294.973215 
L 191.385459 294.402589 
L 191.444546 294.687902 
L 191.531978 294.866222 
L 191.560805 294.830558 
L 191.589477 294.830558 
L 191.646355 293.965704 
L 191.730522 294.224268 
L 191.867796 295.115871 
L 191.921675 294.402589 
L 191.974976 295.026711 
L 192.001411 295.115871 
L 192.053857 294.643322 
L 192.105742 294.687902 
L 192.131476 295.044543 
L 192.182531 294.402589 
L 192.207854 294.830558 
L 192.332453 294.233184 
L 192.405628 295.115871 
L 192.501391 294.946466 
L 192.525014 294.518497 
L 192.595135 294.955382 
L 192.618261 295.053459 
L 192.641265 294.973215 
L 192.664147 294.545245 
L 192.754472 294.777062 
L 192.798922 295.115871 
L 192.864722 294.402589 
L 192.929488 295.115871 
L 192.9721 294.973215 
L 193.014266 294.991047 
L 193.055991 294.545245 
L 193.076689 295.115871 
L 193.158406 294.830558 
L 193.178569 294.402589 
L 193.218579 295.258527 
L 193.238428 295.115871 
L 193.258173 295.115871 
L 193.277815 294.402589 
L 193.374503 294.518497 
L 193.39354 294.259932 
L 193.412478 295.035627 
L 193.45006 294.527413 
L 193.560491 295.115871 
L 193.596544 294.545245 
L 193.667539 294.830558 
L 193.68506 294.973215 
L 193.737082 294.545245 
L 193.771319 294.910802 
L 193.805204 295.115871 
L 193.888408 294.402589 
L 193.969501 295.115871 
L 194.00136 294.580909 
L 194.064109 295.249611 
L 194.125587 294.901886 
L 194.170878 294.910802 
L 194.215483 295.178283 
L 194.20069 294.652238 
L 194.288326 295.115871 
L 194.387248 294.545245 
L 194.401095 295.115871 
L 194.42858 294.830558 
L 194.442219 294.888512 
L 194.509387 294.545245 
L 194.46929 295.115871 
L 194.535783 295.031169 
L 194.548881 295.258527 
L 194.613391 294.687902 
L 194.651325 295.222863 
L 194.663842 294.687902 
L 194.761753 295.071291 
L 194.878748 294.687902 
L 194.785623 295.187199 
L 194.890129 294.973215 
L 194.979159 295.151535 
L 194.912721 294.830558 
L 194.99004 294.973215 
L 195.033026 294.616573 
L 195.04364 295.205031 
L 195.08557 294.687902 
L 195.206479 295.115871 
L 195.225941 295.115871 
L 195.254774 294.830558 
L 195.283183 295.258527 
L 195.338753 295.062375 
L 195.365926 294.830558 
L 195.419083 295.160451 
L 195.436455 295.115871 
L 195.445078 295.115871 
L 195.545305 294.794894 
L 195.487559 295.258527 
L 195.561443 294.973215 
L 195.577423 295.05123 
L 195.655014 295.258527 
L 195.662566 294.973215 
L 195.692407 295.115871 
L 195.736089 295.091352 
L 195.785458 294.973215 
L 195.846503 295.258527 
L 195.859708 294.950924 
L 195.960845 295.115871 
L 195.972942 295.115871 
L 195.978947 294.973215 
L 196.020171 295.258527 
L 196.076683 295.115871 
L 196.119957 294.973215 
L 196.186792 295.258527 
L 196.299641 295.115871 
L 196.380128 294.973215 
L 196.411864 295.258527 
L 196.415745 295.258527 
L 196.520508 295.115871 
L 196.523864 295.258527 
L 196.533838 295.258527 
L 196.566056 294.973215 
L 196.642875 295.258527 
L 196.659271 295.258527 
L 196.752733 295.115871 
L 196.722677 295.349917 
L 196.770308 295.246825 
L 196.787213 295.258527 
L 196.774596 295.115871 
L 196.787213 295.258527 
" clip-path="url(#pe345d8b07d)" style="fill: none; stroke: #1f77b4; stroke-width: 0.7; stroke-linecap: square"/>
   </g>
   <g id="line2d_40">
    <path d="M 36.846884 295.401184 
L 197.206722 295.401184 
" clip-path="url(#pe345d8b07d)" style="fill: none; stroke-dasharray: 2.59,1.12; stroke-dashoffset: 0; stroke: #000000; stroke-width: 0.7"/>
   </g>
   <g id="patch_9">
    <path d="M 33.639688 298.939062 
L 33.639688 221.105729 
" style="fill: none; stroke: #000000; stroke-width: 0.5; stroke-linejoin: miter; stroke-linecap: square"/>
   </g>
   <g id="patch_10">
    <path d="M 33.639688 298.939062 
L 200.413918 298.939062 
" style="fill: none; stroke: #000000; stroke-width: 0.5; stroke-linejoin: miter; stroke-linecap: square"/>
   </g>
   <g id="text_31">
    <!-- max $p(r|x)$ difference -->
    <g transform="translate(85.136803 215.105729) scale(0.06 -0.06)">
     <use xlink:href="#DejaVuSans-6d" transform="translate(0 0.578125)"/>
     <use xlink:href="#DejaVuSans-61" transform="translate(97.412109 0.578125)"/>
     <use xlink:href="#DejaVuSans-78" transform="translate(158.691406 0.578125)"/>
     <use xlink:href="#DejaVuSans-20" transform="translate(217.871094 0.578125)"/>
     <use xlink:href="#DejaVuSans-Oblique-70" transform="translate(249.658203 0.578125)"/>
     <use xlink:href="#DejaVuSans-28" transform="translate(313.134766 0.578125)"/>
     <use xlink:href="#DejaVuSans-Oblique-72" transform="translate(352.148438 0.578125)"/>
     <use xlink:href="#DejaVuSans-7c" transform="translate(393.261719 0.578125)"/>
     <use xlink:href="#DejaVuSans-Oblique-78" transform="translate(426.953125 0.578125)"/>
     <use xlink:href="#DejaVuSans-29" transform="translate(486.132812 0.578125)"/>
     <use xlink:href="#DejaVuSans-20" transform="translate(525.146484 0.578125)"/>
     <use xlink:href="#DejaVuSans-64" transform="translate(556.933594 0.578125)"/>
     <use xlink:href="#DejaVuSans-69" transform="translate(620.410156 0.578125)"/>
     <use xlink:href="#DejaVuSans-66" transform="translate(648.193359 0.578125)"/>
     <use xlink:href="#DejaVuSans-66" transform="translate(683.398438 0.578125)"/>
     <use xlink:href="#DejaVuSans-65" transform="translate(718.603516 0.578125)"/>
     <use xlink:href="#DejaVuSans-72" transform="translate(780.126953 0.578125)"/>
     <use xlink:href="#DejaVuSans-65" transform="translate(821.240234 0.578125)"/>
     <use xlink:href="#DejaVuSans-6e" transform="translate(882.763672 0.578125)"/>
     <use xlink:href="#DejaVuSans-63" transform="translate(946.142578 0.578125)"/>
     <use xlink:href="#DejaVuSans-65" transform="translate(1001.123047 0.578125)"/>
    </g>
   </g>
  </g>
 </g>
 <defs>
  <clipPath id="pa9c4e144ab">
   <rect x="33.639688" y="17.759062" width="166.774231" height="77.833333"/>
  </clipPath>
  <clipPath id="p48f83a9001">
   <rect x="33.639688" y="119.432396" width="166.774231" height="77.833333"/>
  </clipPath>
  <clipPath id="pe345d8b07d">
   <rect x="33.639688" y="221.105729" width="166.774231" height="77.833333"/>
  </clipPath>
 </defs>
</svg>
