<?xml version="1.0" encoding="utf-8" standalone="no"?>
<!DOCTYPE svg PUBLIC "-//W3C//DTD SVG 1.1//EN"
  "http://www.w3.org/Graphics/SVG/1.1/DTD/svg11.dtd">
<svg xmlns:xlink="http://www.w3.org/1999/xlink" width="208.848437pt" height="122.445156pt" viewBox="0 0 208.848437 122.445156" xmlns="http://www.w3.org/2000/svg" version="1.1">
 <metadata>
  <rdf:RDF xmlns:dc="http://purl.org/dc/elements/1.1/" xmlns:cc="http://creativecommons.org/ns#" xmlns:rdf="http://www.w3.org/1999/02/22-rdf-syntax-ns#">
   <cc:Work>
    <dc:type rdf:resource="http://purl.org/dc/dcmitype/StillImage"/>
    <dc:date>2026-04-14T00:24:04.586816</dc:date>
    <dc:format>image/svg+xml</dc:format>
    <dc:creator>
     <cc:Agent>
      <dc:title>Matplotlib v3.8.2, https://matplotlib.org/</dc:title>
     </cc:Agent>
    </dc:creator>
   </cc:Work>
  </rdf:RDF>
 </metadata>
 <defs>
  <style type="text/css">*{stroke-linejoin: round; stroke-linecap: butt}</style>
 </defs>
 <g id="figure_1">
  <g id="patch_1">
   <path d="M -0 122.445156 
L 208.848437 122.445156 
L 208.848437 0 
L -0 0 
z
" style="fill: #ffffff"/>
  </g>
  <g id="axes_1">
   <g id="patch_2">
    <path d="M 30.458438 95.099219 
L 201.648437 95.099219 
L 201.648437 13.999219 
L 30.458438 13.999219 
z
" style="fill: #ffffff"/>
   </g>
   <g id="matplotlib.axis_1">
    <g id="xtick_1">
     <g id="line2d_1">
      <defs>
       <path id="m8b5f2ad8b4" d="M 0 0 
L 0 2 
" style="stroke: #000000; stroke-width: 0.5"/>
      </defs>
      <g>
       <use xlink:href="#m8b5f2ad8b4" x="38.239801" y="95.099219" style="stroke: #000000; stroke-width: 0.5"/>
      </g>
     </g>
     <g id="text_1">
      <!-- 0.0 -->
      <g transform="translate(34.26402 104.398437) scale(0.05 -0.05)">
       <defs>
        <path id="DejaVuSans-30" d="M 2034 4250 
Q 1547 4250 1301 3770 
Q 1056 3291 1056 2328 
Q 1056 1369 1301 889 
Q 1547 409 2034 409 
Q 2525 409 2770 889 
Q 3016 1369 3016 2328 
Q 3016 3291 2770 3770 
Q 2525 4250 2034 4250 
z
M 2034 4750 
Q 2819 4750 3233 4129 
Q 3647 3509 3647 2328 
Q 3647 1150 3233 529 
Q 2819 -91 2034 -91 
Q 1250 -91 836 529 
Q 422 1150 422 2328 
Q 422 3509 836 4129 
Q 1250 4750 2034 4750 
z
" transform="scale(0.015625)"/>
        <path id="DejaVuSans-2e" d="M 684 794 
L 1344 794 
L 1344 0 
L 684 0 
L 684 794 
z
" transform="scale(0.015625)"/>
       </defs>
       <use xlink:href="#DejaVuSans-30"/>
       <use xlink:href="#DejaVuSans-2e" x="63.623047"/>
       <use xlink:href="#DejaVuSans-30" x="95.410156"/>
      </g>
     </g>
    </g>
    <g id="xtick_2">
     <g id="line2d_2">
      <g>
       <use xlink:href="#m8b5f2ad8b4" x="69.365256" y="95.099219" style="stroke: #000000; stroke-width: 0.5"/>
      </g>
     </g>
     <g id="text_2">
      <!-- 0.2 -->
      <g transform="translate(65.389474 104.398437) scale(0.05 -0.05)">
       <defs>
        <path id="DejaVuSans-32" d="M 1228 531 
L 3431 531 
L 3431 0 
L 469 0 
L 469 531 
Q 828 903 1448 1529 
Q 2069 2156 2228 2338 
Q 2531 2678 2651 2914 
Q 2772 3150 2772 3378 
Q 2772 3750 2511 3984 
Q 2250 4219 1831 4219 
Q 1534 4219 1204 4116 
Q 875 4013 500 3803 
L 500 4441 
Q 881 4594 1212 4672 
Q 1544 4750 1819 4750 
Q 2544 4750 2975 4387 
Q 3406 4025 3406 3419 
Q 3406 3131 3298 2873 
Q 3191 2616 2906 2266 
Q 2828 2175 2409 1742 
Q 1991 1309 1228 531 
z
" transform="scale(0.015625)"/>
       </defs>
       <use xlink:href="#DejaVuSans-30"/>
       <use xlink:href="#DejaVuSans-2e" x="63.623047"/>
       <use xlink:href="#DejaVuSans-32" x="95.410156"/>
      </g>
     </g>
    </g>
    <g id="xtick_3">
     <g id="line2d_3">
      <g>
       <use xlink:href="#m8b5f2ad8b4" x="100.49071" y="95.099219" style="stroke: #000000; stroke-width: 0.5"/>
      </g>
     </g>
     <g id="text_3">
      <!-- 0.4 -->
      <g transform="translate(96.514929 104.398437) scale(0.05 -0.05)">
       <defs>
        <path id="DejaVuSans-34" d="M 2419 4116 
L 825 1625 
L 2419 1625 
L 2419 4116 
z
M 2253 4666 
L 3047 4666 
L 3047 1625 
L 3713 1625 
L 3713 1100 
L 3047 1100 
L 3047 0 
L 2419 0 
L 2419 1100 
L 313 1100 
L 313 1709 
L 2253 4666 
z
" transform="scale(0.015625)"/>
       </defs>
       <use xlink:href="#DejaVuSans-30"/>
       <use xlink:href="#DejaVuSans-2e" x="63.623047"/>
       <use xlink:href="#DejaVuSans-34" x="95.410156"/>
      </g>
     </g>
    </g>
    <g id="xtick_4">
     <g id="line2d_4">
      <g>
       <use xlink:href="#m8b5f2ad8b4" x="131.616165" y="95.099219" style="stroke: #000000; stroke-width: 0.5"/>
      </g>
     </g>
     <g id="text_4">
      <!-- 0.6 -->
      <g transform="translate(127.640384 104.398437) scale(0.05 -0.05)">
       <defs>
        <path id="DejaVuSans-36" d="M 2113 2584 
Q 1688 2584 1439 2293 
Q 1191 2003 1191 1497 
Q 1191 994 1439 701 
Q 1688 409 2113 409 
Q 2538 409 2786 701 
Q 3034 994 3034 1497 
Q 3034 2003 2786 2293 
Q 2538 2584 2113 2584 
z
M 3366 4563 
L 3366 3988 
Q 3128 4100 2886 4159 
Q 2644 4219 2406 4219 
Q 1781 4219 1451 3797 
Q 1122 3375 1075 2522 
Q 1259 2794 1537 2939 
Q 1816 3084 2150 3084 
Q 2853 3084 3261 2657 
Q 3669 2231 3669 1497 
Q 3669 778 3244 343 
Q 2819 -91 2113 -91 
Q 1303 -91 875 529 
Q 447 1150 447 2328 
Q 447 3434 972 4092 
Q 1497 4750 2381 4750 
Q 2619 4750 2861 4703 
Q 3103 4656 3366 4563 
z
" transform="scale(0.015625)"/>
       </defs>
       <use xlink:href="#DejaVuSans-30"/>
       <use xlink:href="#DejaVuSans-2e" x="63.623047"/>
       <use xlink:href="#DejaVuSans-36" x="95.410156"/>
      </g>
     </g>
    </g>
    <g id="xtick_5">
     <g id="line2d_5">
      <g>
       <use xlink:href="#m8b5f2ad8b4" x="162.741619" y="95.099219" style="stroke: #000000; stroke-width: 0.5"/>
      </g>
     </g>
     <g id="text_5">
      <!-- 0.8 -->
      <g transform="translate(158.765838 104.398437) scale(0.05 -0.05)">
       <defs>
        <path id="DejaVuSans-38" d="M 2034 2216 
Q 1584 2216 1326 1975 
Q 1069 1734 1069 1313 
Q 1069 891 1326 650 
Q 1584 409 2034 409 
Q 2484 409 2743 651 
Q 3003 894 3003 1313 
Q 3003 1734 2745 1975 
Q 2488 2216 2034 2216 
z
M 1403 2484 
Q 997 2584 770 2862 
Q 544 3141 544 3541 
Q 544 4100 942 4425 
Q 1341 4750 2034 4750 
Q 2731 4750 3128 4425 
Q 3525 4100 3525 3541 
Q 3525 3141 3298 2862 
Q 3072 2584 2669 2484 
Q 3125 2378 3379 2068 
Q 3634 1759 3634 1313 
Q 3634 634 3220 271 
Q 2806 -91 2034 -91 
Q 1263 -91 848 271 
Q 434 634 434 1313 
Q 434 1759 690 2068 
Q 947 2378 1403 2484 
z
M 1172 3481 
Q 1172 3119 1398 2916 
Q 1625 2713 2034 2713 
Q 2441 2713 2670 2916 
Q 2900 3119 2900 3481 
Q 2900 3844 2670 4047 
Q 2441 4250 2034 4250 
Q 1625 4250 1398 4047 
Q 1172 3844 1172 3481 
z
" transform="scale(0.015625)"/>
       </defs>
       <use xlink:href="#DejaVuSans-30"/>
       <use xlink:href="#DejaVuSans-2e" x="63.623047"/>
       <use xlink:href="#DejaVuSans-38" x="95.410156"/>
      </g>
     </g>
    </g>
    <g id="xtick_6">
     <g id="line2d_6">
      <g>
       <use xlink:href="#m8b5f2ad8b4" x="193.867074" y="95.099219" style="stroke: #000000; stroke-width: 0.5"/>
      </g>
     </g>
     <g id="text_6">
      <!-- 1.0 -->
      <g transform="translate(189.891293 104.398437) scale(0.05 -0.05)">
       <defs>
        <path id="DejaVuSans-31" d="M 794 531 
L 1825 531 
L 1825 4091 
L 703 3866 
L 703 4441 
L 1819 4666 
L 2450 4666 
L 2450 531 
L 3481 531 
L 3481 0 
L 794 0 
L 794 531 
z
" transform="scale(0.015625)"/>
       </defs>
       <use xlink:href="#DejaVuSans-31"/>
       <use xlink:href="#DejaVuSans-2e" x="63.623047"/>
       <use xlink:href="#DejaVuSans-30" x="95.410156"/>
      </g>
     </g>
    </g>
    <g id="text_7">
     <!-- I(X;R) -->
     <g transform="translate(107.677344 113.997344) scale(0.06 -0.06)">
      <defs>
       <path id="DejaVuSans-49" d="M 628 4666 
L 1259 4666 
L 1259 0 
L 628 0 
L 628 4666 
z
" transform="scale(0.015625)"/>
       <path id="DejaVuSans-28" d="M 1984 4856 
Q 1566 4138 1362 3434 
Q 1159 2731 1159 2009 
Q 1159 1288 1364 580 
Q 1569 -128 1984 -844 
L 1484 -844 
Q 1016 -109 783 600 
Q 550 1309 550 2009 
Q 550 2706 781 3412 
Q 1013 4119 1484 4856 
L 1984 4856 
z
" transform="scale(0.015625)"/>
       <path id="DejaVuSans-58" d="M 403 4666 
L 1081 4666 
L 2241 2931 
L 3406 4666 
L 4084 4666 
L 2584 2425 
L 4184 0 
L 3506 0 
L 2194 1984 
L 872 0 
L 191 0 
L 1856 2491 
L 403 4666 
z
" transform="scale(0.015625)"/>
       <path id="DejaVuSans-3b" d="M 750 3309 
L 1409 3309 
L 1409 2516 
L 750 2516 
L 750 3309 
z
M 750 794 
L 1409 794 
L 1409 256 
L 897 -744 
L 494 -744 
L 750 256 
L 750 794 
z
" transform="scale(0.015625)"/>
       <path id="DejaVuSans-52" d="M 2841 2188 
Q 3044 2119 3236 1894 
Q 3428 1669 3622 1275 
L 4263 0 
L 3584 0 
L 2988 1197 
Q 2756 1666 2539 1819 
Q 2322 1972 1947 1972 
L 1259 1972 
L 1259 0 
L 628 0 
L 628 4666 
L 2053 4666 
Q 2853 4666 3247 4331 
Q 3641 3997 3641 3322 
Q 3641 2881 3436 2590 
Q 3231 2300 2841 2188 
z
M 1259 4147 
L 1259 2491 
L 2053 2491 
Q 2509 2491 2742 2702 
Q 2975 2913 2975 3322 
Q 2975 3731 2742 3939 
Q 2509 4147 2053 4147 
L 1259 4147 
z
" transform="scale(0.015625)"/>
       <path id="DejaVuSans-29" d="M 513 4856 
L 1013 4856 
Q 1481 4119 1714 3412 
Q 1947 2706 1947 2009 
Q 1947 1309 1714 600 
Q 1481 -109 1013 -844 
L 513 -844 
Q 928 -128 1133 580 
Q 1338 1288 1338 2009 
Q 1338 2731 1133 3434 
Q 928 4138 513 4856 
z
" transform="scale(0.015625)"/>
      </defs>
      <use xlink:href="#DejaVuSans-49"/>
      <use xlink:href="#DejaVuSans-28" x="29.492188"/>
      <use xlink:href="#DejaVuSans-58" x="68.505859"/>
      <use xlink:href="#DejaVuSans-3b" x="137.011719"/>
      <use xlink:href="#DejaVuSans-52" x="170.703125"/>
      <use xlink:href="#DejaVuSans-29" x="240.185547"/>
     </g>
    </g>
   </g>
   <g id="matplotlib.axis_2">
    <g id="ytick_1">
     <g id="line2d_7">
      <defs>
       <path id="mc4b51ffdd4" d="M 0 0 
L -2 0 
" style="stroke: #000000; stroke-width: 0.5"/>
      </defs>
      <g>
       <use xlink:href="#mc4b51ffdd4" x="30.458438" y="91.412855" style="stroke: #000000; stroke-width: 0.5"/>
      </g>
     </g>
     <g id="text_8">
      <!-- 0.0 -->
      <g transform="translate(17.006875 93.312464) scale(0.05 -0.05)">
       <use xlink:href="#DejaVuSans-30"/>
       <use xlink:href="#DejaVuSans-2e" x="63.623047"/>
       <use xlink:href="#DejaVuSans-30" x="95.410156"/>
      </g>
     </g>
    </g>
    <g id="ytick_2">
     <g id="line2d_8">
      <g>
       <use xlink:href="#mc4b51ffdd4" x="30.458438" y="74.385259" style="stroke: #000000; stroke-width: 0.5"/>
      </g>
     </g>
     <g id="text_9">
      <!-- 0.5 -->
      <g transform="translate(17.006875 76.284869) scale(0.05 -0.05)">
       <defs>
        <path id="DejaVuSans-35" d="M 691 4666 
L 3169 4666 
L 3169 4134 
L 1269 4134 
L 1269 2991 
Q 1406 3038 1543 3061 
Q 1681 3084 1819 3084 
Q 2600 3084 3056 2656 
Q 3513 2228 3513 1497 
Q 3513 744 3044 326 
Q 2575 -91 1722 -91 
Q 1428 -91 1123 -41 
Q 819 9 494 109 
L 494 744 
Q 775 591 1075 516 
Q 1375 441 1709 441 
Q 2250 441 2565 725 
Q 2881 1009 2881 1497 
Q 2881 1984 2565 2268 
Q 2250 2553 1709 2553 
Q 1456 2553 1204 2497 
Q 953 2441 691 2322 
L 691 4666 
z
" transform="scale(0.015625)"/>
       </defs>
       <use xlink:href="#DejaVuSans-30"/>
       <use xlink:href="#DejaVuSans-2e" x="63.623047"/>
       <use xlink:href="#DejaVuSans-35" x="95.410156"/>
      </g>
     </g>
    </g>
    <g id="ytick_3">
     <g id="line2d_9">
      <g>
       <use xlink:href="#mc4b51ffdd4" x="30.458438" y="57.357664" style="stroke: #000000; stroke-width: 0.5"/>
      </g>
     </g>
     <g id="text_10">
      <!-- 1.0 -->
      <g transform="translate(17.006875 59.257273) scale(0.05 -0.05)">
       <use xlink:href="#DejaVuSans-31"/>
       <use xlink:href="#DejaVuSans-2e" x="63.623047"/>
       <use xlink:href="#DejaVuSans-30" x="95.410156"/>
      </g>
     </g>
    </g>
    <g id="ytick_4">
     <g id="line2d_10">
      <g>
       <use xlink:href="#mc4b51ffdd4" x="30.458438" y="40.330068" style="stroke: #000000; stroke-width: 0.5"/>
      </g>
     </g>
     <g id="text_11">
      <!-- 1.5 -->
      <g transform="translate(17.006875 42.229677) scale(0.05 -0.05)">
       <use xlink:href="#DejaVuSans-31"/>
       <use xlink:href="#DejaVuSans-2e" x="63.623047"/>
       <use xlink:href="#DejaVuSans-35" x="95.410156"/>
      </g>
     </g>
    </g>
    <g id="ytick_5">
     <g id="line2d_11">
      <g>
       <use xlink:href="#mc4b51ffdd4" x="30.458438" y="23.302472" style="stroke: #000000; stroke-width: 0.5"/>
      </g>
     </g>
     <g id="text_12">
      <!-- 2.0 -->
      <g transform="translate(17.006875 25.202081) scale(0.05 -0.05)">
       <use xlink:href="#DejaVuSans-32"/>
       <use xlink:href="#DejaVuSans-2e" x="63.623047"/>
       <use xlink:href="#DejaVuSans-30" x="95.410156"/>
      </g>
     </g>
    </g>
    <g id="text_13">
     <!-- Max difference -->
     <g transform="translate(11.759063 76.809687) rotate(-90) scale(0.06 -0.06)">
      <defs>
       <path id="DejaVuSans-4d" d="M 628 4666 
L 1569 4666 
L 2759 1491 
L 3956 4666 
L 4897 4666 
L 4897 0 
L 4281 0 
L 4281 4097 
L 3078 897 
L 2444 897 
L 1241 4097 
L 1241 0 
L 628 0 
L 628 4666 
z
" transform="scale(0.015625)"/>
       <path id="DejaVuSans-61" d="M 2194 1759 
Q 1497 1759 1228 1600 
Q 959 1441 959 1056 
Q 959 750 1161 570 
Q 1363 391 1709 391 
Q 2188 391 2477 730 
Q 2766 1069 2766 1631 
L 2766 1759 
L 2194 1759 
z
M 3341 1997 
L 3341 0 
L 2766 0 
L 2766 531 
Q 2569 213 2275 61 
Q 1981 -91 1556 -91 
Q 1019 -91 701 211 
Q 384 513 384 1019 
Q 384 1609 779 1909 
Q 1175 2209 1959 2209 
L 2766 2209 
L 2766 2266 
Q 2766 2663 2505 2880 
Q 2244 3097 1772 3097 
Q 1472 3097 1187 3025 
Q 903 2953 641 2809 
L 641 3341 
Q 956 3463 1253 3523 
Q 1550 3584 1831 3584 
Q 2591 3584 2966 3190 
Q 3341 2797 3341 1997 
z
" transform="scale(0.015625)"/>
       <path id="DejaVuSans-78" d="M 3513 3500 
L 2247 1797 
L 3578 0 
L 2900 0 
L 1881 1375 
L 863 0 
L 184 0 
L 1544 1831 
L 300 3500 
L 978 3500 
L 1906 2253 
L 2834 3500 
L 3513 3500 
z
" transform="scale(0.015625)"/>
       <path id="DejaVuSans-20" transform="scale(0.015625)"/>
       <path id="DejaVuSans-64" d="M 2906 2969 
L 2906 4863 
L 3481 4863 
L 3481 0 
L 2906 0 
L 2906 525 
Q 2725 213 2448 61 
Q 2172 -91 1784 -91 
Q 1150 -91 751 415 
Q 353 922 353 1747 
Q 353 2572 751 3078 
Q 1150 3584 1784 3584 
Q 2172 3584 2448 3432 
Q 2725 3281 2906 2969 
z
M 947 1747 
Q 947 1113 1208 752 
Q 1469 391 1925 391 
Q 2381 391 2643 752 
Q 2906 1113 2906 1747 
Q 2906 2381 2643 2742 
Q 2381 3103 1925 3103 
Q 1469 3103 1208 2742 
Q 947 2381 947 1747 
z
" transform="scale(0.015625)"/>
       <path id="DejaVuSans-69" d="M 603 3500 
L 1178 3500 
L 1178 0 
L 603 0 
L 603 3500 
z
M 603 4863 
L 1178 4863 
L 1178 4134 
L 603 4134 
L 603 4863 
z
" transform="scale(0.015625)"/>
       <path id="DejaVuSans-66" d="M 2375 4863 
L 2375 4384 
L 1825 4384 
Q 1516 4384 1395 4259 
Q 1275 4134 1275 3809 
L 1275 3500 
L 2222 3500 
L 2222 3053 
L 1275 3053 
L 1275 0 
L 697 0 
L 697 3053 
L 147 3053 
L 147 3500 
L 697 3500 
L 697 3744 
Q 697 4328 969 4595 
Q 1241 4863 1831 4863 
L 2375 4863 
z
" transform="scale(0.015625)"/>
       <path id="DejaVuSans-65" d="M 3597 1894 
L 3597 1613 
L 953 1613 
Q 991 1019 1311 708 
Q 1631 397 2203 397 
Q 2534 397 2845 478 
Q 3156 559 3463 722 
L 3463 178 
Q 3153 47 2828 -22 
Q 2503 -91 2169 -91 
Q 1331 -91 842 396 
Q 353 884 353 1716 
Q 353 2575 817 3079 
Q 1281 3584 2069 3584 
Q 2775 3584 3186 3129 
Q 3597 2675 3597 1894 
z
M 3022 2063 
Q 3016 2534 2758 2815 
Q 2500 3097 2075 3097 
Q 1594 3097 1305 2825 
Q 1016 2553 972 2059 
L 3022 2063 
z
" transform="scale(0.015625)"/>
       <path id="DejaVuSans-72" d="M 2631 2963 
Q 2534 3019 2420 3045 
Q 2306 3072 2169 3072 
Q 1681 3072 1420 2755 
Q 1159 2438 1159 1844 
L 1159 0 
L 581 0 
L 581 3500 
L 1159 3500 
L 1159 2956 
Q 1341 3275 1631 3429 
Q 1922 3584 2338 3584 
Q 2397 3584 2469 3576 
Q 2541 3569 2628 3553 
L 2631 2963 
z
" transform="scale(0.015625)"/>
       <path id="DejaVuSans-6e" d="M 3513 2113 
L 3513 0 
L 2938 0 
L 2938 2094 
Q 2938 2591 2744 2837 
Q 2550 3084 2163 3084 
Q 1697 3084 1428 2787 
Q 1159 2491 1159 1978 
L 1159 0 
L 581 0 
L 581 3500 
L 1159 3500 
L 1159 2956 
Q 1366 3272 1645 3428 
Q 1925 3584 2291 3584 
Q 2894 3584 3203 3211 
Q 3513 2838 3513 2113 
z
" transform="scale(0.015625)"/>
       <path id="DejaVuSans-63" d="M 3122 3366 
L 3122 2828 
Q 2878 2963 2633 3030 
Q 2388 3097 2138 3097 
Q 1578 3097 1268 2742 
Q 959 2388 959 1747 
Q 959 1106 1268 751 
Q 1578 397 2138 397 
Q 2388 397 2633 464 
Q 2878 531 3122 666 
L 3122 134 
Q 2881 22 2623 -34 
Q 2366 -91 2075 -91 
Q 1284 -91 818 406 
Q 353 903 353 1747 
Q 353 2603 823 3093 
Q 1294 3584 2113 3584 
Q 2378 3584 2631 3529 
Q 2884 3475 3122 3366 
z
" transform="scale(0.015625)"/>
      </defs>
      <use xlink:href="#DejaVuSans-4d"/>
      <use xlink:href="#DejaVuSans-61" x="86.279297"/>
      <use xlink:href="#DejaVuSans-78" x="147.558594"/>
      <use xlink:href="#DejaVuSans-20" x="206.738281"/>
      <use xlink:href="#DejaVuSans-64" x="238.525391"/>
      <use xlink:href="#DejaVuSans-69" x="302.001953"/>
      <use xlink:href="#DejaVuSans-66" x="329.785156"/>
      <use xlink:href="#DejaVuSans-66" x="364.990234"/>
      <use xlink:href="#DejaVuSans-65" x="400.195312"/>
      <use xlink:href="#DejaVuSans-72" x="461.71875"/>
      <use xlink:href="#DejaVuSans-65" x="500.582031"/>
      <use xlink:href="#DejaVuSans-6e" x="562.105469"/>
      <use xlink:href="#DejaVuSans-63" x="625.484375"/>
      <use xlink:href="#DejaVuSans-65" x="680.464844"/>
     </g>
    </g>
    <g id="text_14">
     <!-- 1e−14 -->
     <g transform="translate(30.458438 10.999219) scale(0.05 -0.05)">
      <defs>
       <path id="DejaVuSans-2212" d="M 678 2272 
L 4684 2272 
L 4684 1741 
L 678 1741 
L 678 2272 
z
" transform="scale(0.015625)"/>
      </defs>
      <use xlink:href="#DejaVuSans-31"/>
      <use xlink:href="#DejaVuSans-65" x="63.623047"/>
      <use xlink:href="#DejaVuSans-2212" x="125.146484"/>
      <use xlink:href="#DejaVuSans-31" x="208.935547"/>
      <use xlink:href="#DejaVuSans-34" x="272.558594"/>
     </g>
    </g>
   </g>
   <g id="line2d_12">
    <path d="M 38.270451 80.826375 
L 38.362326 55.49444 
L 39.002268 88.010058 
L 39.335273 22.222645 
L 39.726889 17.685582 
L 40.17617 55.49444 
L 40.682038 74.776958 
L 41.243293 49.066934 
L 41.858619 87.631969 
L 42.526587 85.363438 
L 43.245672 50.579289 
L 44.014251 55.872529 
L 44.830621 73.264603 
L 45.693001 53.603997 
L 46.599543 51.335466 
L 47.548346 83.094906 
L 48.537457 78.557843 
L 49.564885 79.314021 
L 50.628609 86.119615 
L 51.726587 79.314021 
L 52.856763 79.314021 
L 54.017075 74.776958 
L 55.205466 83.094906 
L 56.419886 75.533135 
L 57.658304 72.130338 
L 58.91871 86.497704 
L 60.199124 79.692109 
L 61.4976 78.935932 
L 62.812233 89.144324 
L 64.14116 89.900501 
L 65.482565 72.508426 
L 66.834685 87.253881 
L 68.195811 83.472995 
L 69.56429 73.642692 
L 70.938528 89.522412 
L 72.316994 79.692109 
L 73.698214 80.448286 
L 75.080783 78.557843 
L 76.463354 84.985349 
L 77.844648 80.070198 
L 79.223448 84.607261 
L 80.598599 88.388146 
L 81.969012 74.398869 
L 83.333658 77.045489 
L 86.041842 86.497704 
L 87.383624 88.766235 
L 88.716126 89.522412 
L 90.038613 89.522412 
L 91.350404 84.607261 
L 92.650869 88.388146 
L 93.939432 90.278589 
L 95.215564 91.034767 
L 96.478781 91.034767 
L 97.728647 85.741526 
L 98.964768 91.034767 
L 100.186792 91.034767 
L 101.394404 88.388146 
L 102.58733 89.900501 
L 103.765329 90.278589 
L 104.928194 88.766235 
L 106.075752 89.144324 
L 107.207858 89.144324 
L 108.324396 89.522412 
L 109.425279 88.010058 
L 110.510443 84.607261 
L 111.579848 90.656678 
L 112.633477 89.522412 
L 113.671335 91.034767 
L 114.693443 91.034767 
L 115.699843 91.412855 
L 116.690593 86.119615 
L 117.665766 86.119615 
L 118.62545 89.522412 
L 119.569747 91.034767 
L 120.49877 89.522412 
L 121.412643 90.656678 
L 122.311501 89.144324 
L 123.195489 91.412855 
L 124.064759 91.034767 
L 124.919472 90.278589 
L 125.759794 87.631969 
L 127.397966 90.656678 
L 128.196179 91.034767 
L 128.980725 91.034767 
L 129.751797 90.278589 
L 130.509587 88.010058 
L 131.254295 89.522412 
L 131.986119 91.412855 
L 132.70526 91.412855 
L 133.41192 90.278589 
L 134.106303 89.900501 
L 134.788613 89.900501 
L 135.459054 90.278589 
L 136.117829 90.278589 
L 136.765142 91.412855 
L 138.026195 89.900501 
L 138.640337 87.631969 
L 139.243823 90.656678 
L 140.419621 91.412855 
L 140.992323 90.656678 
L 141.555153 90.656678 
L 142.1083 88.388146 
L 142.651955 90.278589 
L 143.186303 90.656678 
L 143.711528 88.766235 
L 144.227813 89.522412 
L 144.735336 88.388146 
L 145.234274 89.144324 
L 145.724802 86.875792 
L 146.20709 89.900501 
L 146.681308 90.656678 
L 147.147621 87.631969 
L 147.606193 89.900501 
L 148.057184 89.522412 
L 148.500752 91.034767 
L 148.937051 90.656678 
L 149.366234 88.388146 
L 149.78845 91.034767 
L 150.203846 89.900501 
L 150.612565 90.278589 
L 151.014749 89.144324 
L 151.410536 90.656678 
L 151.80006 89.522412 
L 152.183456 89.900501 
L 152.560853 91.034767 
L 152.932379 90.656678 
L 153.298159 88.766235 
L 153.658314 90.656678 
L 154.012966 91.034767 
L 154.36223 90.278589 
L 155.045052 91.034767 
L 155.378833 88.766235 
L 155.70767 90.656678 
L 156.031669 89.522412 
L 156.350933 91.412855 
L 156.665562 87.253881 
L 156.975654 89.522412 
L 157.582608 91.412855 
L 157.879657 89.144324 
L 158.172539 91.034767 
L 158.461342 89.144324 
L 158.746153 91.034767 
L 159.027055 90.656678 
L 159.304128 89.522412 
L 159.577453 90.278589 
L 159.847109 90.656678 
L 160.113169 89.144324 
L 160.37571 91.034767 
L 160.634803 89.144324 
L 160.890519 91.034767 
L 161.142927 91.412855 
L 161.392095 89.522412 
L 161.638089 89.900501 
L 161.880972 91.412855 
L 162.120808 90.656678 
L 162.357658 91.034767 
L 162.591582 89.144324 
L 162.822638 89.522412 
L 163.050882 91.034767 
L 163.276372 90.656678 
L 163.49916 91.412855 
L 163.7193 89.900501 
L 163.936843 91.412855 
L 164.151841 91.034767 
L 164.364341 90.278589 
L 164.987338 91.412855 
L 165.19032 91.412855 
L 165.391035 88.766235 
L 165.589525 91.034767 
L 165.785831 89.144324 
L 165.979994 91.412855 
L 166.172053 91.412855 
L 166.362047 90.656678 
L 166.550013 91.034767 
L 166.735989 90.278589 
L 166.920011 91.034767 
L 167.102112 90.278589 
L 167.282328 88.766235 
L 167.460692 89.900501 
L 167.637236 89.900501 
L 167.811993 91.412855 
L 168.325842 88.766235 
L 168.493751 89.522412 
L 168.66002 91.412855 
L 168.824677 91.412855 
L 169.149261 90.278589 
L 169.30924 90.278589 
L 169.467711 91.412855 
L 169.624698 90.278589 
L 169.780225 91.412855 
L 170.086992 90.656678 
L 170.238277 91.034767 
L 170.388192 89.144324 
L 170.536759 91.034767 
L 170.683998 89.522412 
L 170.82993 90.656678 
L 170.974574 89.144324 
L 171.11795 89.522412 
L 171.260076 91.412855 
L 171.540656 90.656678 
L 171.679144 90.656678 
L 171.816455 89.900501 
L 171.952606 91.034767 
L 172.087612 91.034767 
L 172.22149 89.522412 
L 172.354257 91.034767 
L 172.485926 91.034767 
L 172.616514 91.412855 
L 172.746036 91.034767 
L 172.874506 89.900501 
L 173.001937 90.656678 
L 173.128345 90.278589 
L 173.253742 91.412855 
L 173.378142 91.034767 
L 173.624002 89.900501 
L 173.745488 89.522412 
L 173.985631 91.034767 
L 174.104313 89.900501 
L 174.222083 90.278589 
L 174.338952 91.034767 
L 174.454933 91.034767 
L 174.570035 90.656678 
L 174.684269 91.034767 
L 174.910176 90.656678 
L 175.021868 90.656678 
L 175.132733 89.900501 
L 175.242779 91.034767 
L 175.352018 89.522412 
L 175.568106 90.656678 
L 175.781068 91.412855 
L 175.886398 90.656678 
L 175.990973 91.034767 
L 176.0948 89.522412 
L 176.197888 91.034767 
L 176.300244 90.278589 
L 176.502793 91.034767 
L 176.603 90.278589 
L 176.702507 91.034767 
L 176.801319 89.900501 
L 176.996891 90.656678 
L 177.18977 90.656678 
L 177.285217 89.522412 
L 177.380011 90.656678 
L 177.474158 89.900501 
L 177.752783 91.034767 
L 177.844406 90.278589 
L 177.935412 91.412855 
L 178.025809 90.278589 
L 178.115601 91.412855 
L 178.381405 89.522412 
L 178.468834 91.034767 
L 178.555686 90.656678 
L 178.727679 90.656678 
L 178.81283 91.034767 
L 178.897425 90.656678 
L 178.981467 89.522412 
L 179.064962 91.412855 
L 179.147915 91.034767 
L 179.312213 90.656678 
L 179.474397 90.656678 
L 179.554708 89.900501 
L 179.634503 91.412855 
L 179.713788 91.034767 
L 179.94862 88.766235 
L 180.025904 90.278589 
L 180.102698 89.900501 
L 180.179006 90.278589 
L 180.254832 89.900501 
L 180.33018 91.412855 
L 180.405053 91.034767 
L 180.479456 91.034767 
L 180.553392 90.656678 
L 180.699878 91.412855 
L 180.916198 90.278589 
L 180.987409 90.278589 
L 181.058179 91.034767 
L 181.12851 90.656678 
L 181.198406 91.034767 
L 181.267871 89.522412 
L 181.336906 90.656678 
L 181.405517 89.900501 
L 181.60883 91.034767 
L 181.675772 89.522412 
L 181.742304 91.034767 
L 181.80843 89.522412 
L 181.939474 91.034767 
L 182.004398 89.900501 
L 182.133066 91.412855 
L 182.196815 90.656678 
L 182.260178 91.412855 
L 182.385756 90.278589 
L 182.509824 91.034767 
L 182.571298 91.034767 
L 182.632402 90.656678 
L 182.753512 91.412855 
L 182.813523 90.278589 
L 182.873174 90.656678 
L 182.991409 91.412855 
L 183.049997 89.900501 
L 183.108236 91.034767 
L 183.223675 91.412855 
L 183.337746 91.412855 
L 183.394275 90.278589 
L 183.450468 90.656678 
L 183.506328 90.656678 
L 183.561858 91.034767 
L 183.726487 90.278589 
L 183.780717 89.900501 
L 183.888222 91.034767 
L 183.9415 90.278589 
L 183.994466 91.034767 
L 184.047121 91.034767 
L 184.254674 89.900501 
L 184.356639 91.412855 
L 184.407176 91.034767 
L 184.457419 91.034767 
L 184.507368 90.656678 
L 184.557028 91.412855 
L 184.606398 91.034767 
L 184.655482 91.034767 
L 184.70428 88.010058 
L 184.752796 91.412855 
L 184.896664 89.900501 
L 184.944066 91.412855 
L 184.991194 89.522412 
L 185.03805 90.656678 
L 185.084636 89.900501 
L 185.130954 89.522412 
L 185.268312 91.034767 
L 185.313573 91.412855 
L 185.358574 89.900501 
L 185.403317 90.656678 
L 185.536013 91.412855 
L 185.579739 89.900501 
L 185.623216 91.034767 
L 185.666444 91.034767 
L 185.794655 90.278589 
L 185.836905 90.656678 
L 185.878915 89.900501 
L 185.920687 90.656678 
L 185.96222 91.034767 
L 186.003518 90.656678 
L 186.044582 90.278589 
L 186.166381 91.412855 
L 186.206522 90.278589 
L 186.286123 90.656678 
L 186.325587 91.412855 
L 186.403849 91.034767 
L 186.48123 91.034767 
L 186.557742 90.656678 
L 186.595676 91.034767 
L 186.633397 88.766235 
L 186.708205 90.656678 
L 186.818852 91.412855 
L 186.927651 89.900501 
L 186.963513 90.278589 
L 186.999175 91.412855 
L 187.034638 89.522412 
L 187.069904 91.034767 
L 187.104973 91.034767 
L 187.174527 90.278589 
L 187.209014 90.656678 
L 187.24331 91.034767 
L 187.277415 89.522412 
L 187.345059 90.656678 
L 187.3786 90.278589 
L 187.478114 91.412855 
L 187.445126 89.900501 
L 187.510919 91.034767 
L 187.543543 90.278589 
L 187.575986 91.412855 
L 187.608251 91.412855 
L 187.640338 90.278589 
L 187.703983 91.412855 
L 187.829186 89.900501 
L 187.860059 90.656678 
L 187.890762 90.656678 
L 187.951664 89.900501 
L 187.981865 90.278589 
L 188.011901 91.412855 
L 188.041773 89.900501 
L 188.071481 91.034767 
L 188.101027 89.522412 
L 188.159637 90.278589 
L 188.274953 91.034767 
L 188.331674 91.412855 
L 188.387781 90.656678 
L 188.443281 91.034767 
L 188.579422 89.900501 
L 188.763934 91.412855 
L 188.840901 90.278589 
L 188.916635 90.656678 
L 188.96645 91.412855 
L 188.991158 90.278589 
L 189.064491 89.144324 
L 189.088675 89.900501 
L 189.184125 91.034767 
L 189.207671 90.656678 
L 189.231091 89.900501 
L 189.277559 91.034767 
L 189.300607 91.412855 
L 189.346338 91.034767 
L 189.391585 90.278589 
L 189.436354 91.034767 
L 189.48065 91.034767 
L 189.567846 89.900501 
L 189.54622 91.412855 
L 189.589358 90.656678 
L 189.69523 91.034767 
L 189.798347 90.656678 
L 189.83884 89.900501 
L 189.87891 91.034767 
L 189.9578 89.522412 
L 189.99663 90.656678 
L 190.035055 89.900501 
L 190.091946 91.034767 
L 190.110712 90.278589 
L 190.184807 90.656678 
L 190.203091 91.412855 
L 190.22128 89.900501 
L 190.293098 90.656678 
L 190.380799 91.412855 
L 190.415249 91.034767 
L 190.483089 89.900501 
L 190.499831 91.412855 
L 190.516487 91.412855 
L 190.549543 90.278589 
L 190.614641 91.034767 
L 190.630707 91.412855 
L 190.646691 90.278589 
L 190.678413 90.278589 
L 190.694153 90.278589 
L 190.817206 91.034767 
L 190.862068 89.522412 
L 190.920825 90.278589 
L 191.006745 91.412855 
L 190.992606 89.900501 
L 191.020811 91.034767 
L 191.117302 91.412855 
L 191.130809 89.144324 
L 191.236438 91.034767 
L 191.249343 89.900501 
L 191.325425 91.412855 
L 191.374882 90.656678 
L 191.387092 90.656678 
L 191.411328 90.278589 
L 191.505874 91.412855 
L 191.618849 90.278589 
L 191.736774 91.412855 
L 191.808523 89.144324 
L 191.858265 91.034767 
L 191.877818 89.900501 
L 191.963451 91.412855 
L 192.018458 89.900501 
L 192.080605 90.656678 
L 192.165747 91.412855 
L 192.115166 90.278589 
L 192.182278 90.656678 
L 192.190483 89.522412 
L 192.206772 91.034767 
L 192.285859 91.034767 
L 192.293556 91.034767 
L 192.346394 91.412855 
L 192.323971 89.900501 
L 192.390263 91.034767 
L 192.48101 90.278589 
L 192.418802 91.412855 
L 192.507792 90.656678 
L 192.520988 90.278589 
L 192.622052 91.412855 
L 192.692846 89.900501 
L 192.743296 90.656678 
L 192.754211 90.656678 
L 192.847816 89.144324 
L 192.86753 91.412855 
L 192.942673 89.144324 
L 192.98245 90.656678 
L 193.04501 91.412855 
L 192.991056 89.522412 
L 193.091889 90.656678 
L 193.164216 89.522412 
L 193.136123 91.412855 
L 193.197838 91.034767 
L 193.286623 91.412855 
L 193.257405 89.900501 
L 193.300711 91.034767 
L 193.383219 89.144324 
L 193.317171 91.412855 
L 193.411006 90.278589 
L 193.43081 91.412855 
L 193.443539 89.900501 
L 193.459946 90.656678 
" clip-path="url(#p68e6912018)" style="fill: none; stroke: #1f77b4; stroke-width: 0.7; stroke-linecap: square"/>
   </g>
   <g id="line2d_13">
    <path d="M 38.270451 80.070198 
L 38.362326 55.683484 
L 39.002268 87.442925 
L 39.335273 22.033601 
L 39.726889 18.063671 
L 40.17617 54.927307 
L 40.682038 74.587913 
L 41.243293 50.012156 
L 41.858619 87.253881 
L 42.526587 85.930571 
L 43.245672 50.2012 
L 44.014251 56.628706 
L 44.830621 73.264603 
L 45.693001 53.793042 
L 46.599543 51.902599 
L 47.548346 84.040128 
L 48.537457 79.692109 
L 49.564885 79.881153 
L 50.628609 87.442925 
L 51.726587 80.448286 
L 52.856763 79.124976 
L 54.017075 74.587913 
L 55.205466 83.472995 
L 56.419886 75.722179 
L 57.658304 71.563205 
L 58.91871 87.442925 
L 60.199124 81.393508 
L 61.4976 79.503065 
L 62.812233 89.522412 
L 64.14116 89.144324 
L 65.482565 73.453648 
L 66.834685 88.388146 
L 68.195811 83.851084 
L 69.56429 73.453648 
L 70.938528 90.467634 
L 72.316994 79.503065 
L 73.698214 80.448286 
L 75.080783 78.935932 
L 76.463354 85.174394 
L 77.844648 81.393508 
L 79.223448 85.552482 
L 80.598599 87.253881 
L 81.969012 75.344091 
L 83.333658 76.667401 
L 86.041842 86.875792 
L 87.383624 87.821014 
L 88.716126 89.900501 
L 90.038613 90.278589 
L 91.350404 84.796305 
L 92.650869 87.821014 
L 93.939432 91.412855 
L 96.478781 91.412855 
L 97.728647 85.741526 
L 98.964768 91.034767 
L 100.186792 90.845722 
L 101.394404 87.821014 
L 102.58733 91.034767 
L 103.765329 91.223811 
L 104.928194 88.766235 
L 107.207858 89.522412 
L 108.324396 90.089545 
L 109.425279 88.577191 
L 110.510443 85.552482 
L 111.579848 90.656678 
L 112.633477 89.711457 
L 113.671335 91.223811 
L 114.693443 90.467634 
L 115.699843 91.223811 
L 116.690593 86.308659 
L 117.665766 86.497704 
L 118.62545 89.900501 
L 119.569747 91.318333 
L 120.49877 89.995023 
L 121.412643 90.656678 
L 122.311501 89.522412 
L 123.195489 91.129289 
L 124.064759 91.223811 
L 124.919472 90.562156 
L 125.759794 89.144324 
L 126.585899 89.616934 
L 127.397966 90.940244 
L 128.196179 91.129289 
L 128.980725 90.656678 
L 129.751797 89.805979 
L 130.509587 87.726491 
L 131.254295 89.995023 
L 131.986119 91.318333 
L 132.70526 91.223811 
L 133.41192 90.845722 
L 134.106303 90.278589 
L 134.788613 90.656678 
L 135.459054 90.656678 
L 136.117829 90.467634 
L 136.765142 91.318333 
L 137.401197 90.184067 
L 138.026195 90.278589 
L 138.640337 89.144324 
L 139.243823 91.223811 
L 139.836853 90.845722 
L 140.419621 91.034767 
L 140.992323 91.034767 
L 142.1083 89.805979 
L 142.651955 91.129289 
L 143.186303 90.467634 
L 143.711528 88.577191 
L 144.227813 89.900501 
L 144.735336 89.049802 
L 145.724802 88.388146 
L 146.20709 91.129289 
L 146.681308 91.034767 
L 147.147621 89.144324 
L 147.606193 89.711457 
L 148.057184 89.333368 
L 148.500752 90.656678 
L 148.937051 90.278589 
L 149.366234 88.10458 
L 149.78845 91.129289 
L 150.203846 90.089545 
L 150.612565 91.223811 
L 151.014749 89.805979 
L 151.410536 91.412855 
L 151.80006 90.278589 
L 152.183456 89.900501 
L 152.560853 90.845722 
L 152.932379 91.412855 
L 153.298159 90.656678 
L 154.012966 91.223811 
L 154.36223 90.467634 
L 154.706221 91.318333 
L 155.045052 90.089545 
L 155.70767 91.034767 
L 156.031669 89.995023 
L 156.350933 91.129289 
L 156.665562 88.199102 
L 157.281305 91.318333 
L 157.582608 91.129289 
L 157.879657 89.805979 
L 158.172539 90.940244 
L 158.746153 90.7512 
L 159.027055 90.845722 
L 159.304128 88.860757 
L 159.577453 91.129289 
L 159.847109 90.845722 
L 160.113169 89.42789 
L 160.37571 90.7512 
L 160.634803 90.089545 
L 161.142927 90.940244 
L 161.392095 90.373112 
L 161.638089 91.223811 
L 161.880972 90.656678 
L 162.120808 91.412855 
L 162.357658 91.223811 
L 162.822638 90.467634 
L 163.050882 91.034767 
L 163.276372 90.940244 
L 163.49916 91.318333 
L 163.7193 90.845722 
L 164.151841 91.034767 
L 164.364341 90.562156 
L 164.987338 91.034767 
L 165.19032 90.467634 
L 165.391035 89.42789 
L 165.589525 91.129289 
L 165.785831 89.616934 
L 166.172053 91.223811 
L 166.362047 89.711457 
L 166.735989 91.318333 
L 166.920011 90.7512 
L 167.102112 91.318333 
L 167.282328 89.805979 
L 167.460692 90.562156 
L 167.637236 90.656678 
L 167.811993 91.318333 
L 168.156266 90.089545 
L 168.325842 89.522412 
L 168.66002 91.129289 
L 168.824677 91.223811 
L 169.149261 90.656678 
L 169.467711 91.034767 
L 169.624698 90.373112 
L 169.934315 91.223811 
L 170.086992 91.412855 
L 170.388192 90.184067 
L 170.683998 91.318333 
L 170.82993 90.278589 
L 170.974574 90.656678 
L 171.11795 90.278589 
L 171.260076 91.223811 
L 171.540656 90.373112 
L 171.679144 91.129289 
L 171.816455 90.845722 
L 172.087612 91.034767 
L 172.22149 89.995023 
L 172.354257 91.412855 
L 172.485926 90.940244 
L 172.616514 91.034767 
L 172.746036 91.318333 
L 172.874506 91.223811 
L 173.128345 91.412855 
L 173.253742 90.562156 
L 173.501558 91.223811 
L 173.624002 90.845722 
L 173.745488 90.089545 
L 173.985631 91.318333 
L 174.222083 90.656678 
L 174.338952 91.412855 
L 174.454933 91.412855 
L 174.570035 91.034767 
L 174.684269 89.805979 
L 174.797646 89.900501 
L 175.021868 91.223811 
L 175.242779 90.7512 
L 175.352018 90.656678 
L 175.460457 91.034767 
L 175.568106 90.940244 
L 175.674973 90.562156 
L 175.781068 91.223811 
L 175.886398 90.940244 
L 176.0948 91.412855 
L 176.197888 91.129289 
L 176.300244 90.278589 
L 176.502793 91.129289 
L 176.603 90.373112 
L 176.702507 91.223811 
L 176.899445 91.034767 
L 176.996891 91.034767 
L 177.093664 90.7512 
L 177.18977 91.034767 
L 177.285217 90.373112 
L 177.380011 91.412855 
L 177.567665 90.7512 
L 177.660538 91.129289 
L 177.752783 90.7512 
L 177.935412 91.412855 
L 178.025809 90.562156 
L 178.115601 91.129289 
L 178.204794 90.089545 
L 178.293393 91.223811 
L 178.381405 90.467634 
L 178.555686 91.318333 
L 178.641966 89.900501 
L 178.81283 91.318333 
L 178.981467 90.562156 
L 179.230331 91.412855 
L 179.312213 91.223811 
L 179.393567 91.412855 
L 179.474397 90.373112 
L 179.554708 90.656678 
L 179.713788 91.129289 
L 179.94862 89.522412 
L 180.025904 91.034767 
L 180.102698 90.184067 
L 180.179006 91.129289 
L 180.254832 91.034767 
L 180.405053 91.412855 
L 180.479456 90.845722 
L 180.553392 91.318333 
L 180.626865 91.223811 
L 180.699878 91.129289 
L 180.772436 91.412855 
L 180.844541 91.318333 
L 180.916198 90.373112 
L 180.987409 90.845722 
L 181.058179 91.412855 
L 181.12851 91.223811 
L 181.198406 91.318333 
L 181.473706 90.562156 
L 181.541476 91.129289 
L 181.60883 91.034767 
L 181.742304 90.184067 
L 181.939474 91.318333 
L 182.004398 90.7512 
L 182.068928 91.318333 
L 182.133066 90.7512 
L 182.196815 91.129289 
L 182.447978 90.940244 
L 182.509824 91.129289 
L 182.571298 90.940244 
L 182.632402 91.223811 
L 182.753512 90.940244 
L 182.813523 91.223811 
L 182.873174 90.278589 
L 182.932468 90.845722 
L 182.991409 90.7512 
L 183.049997 90.845722 
L 183.108236 91.412855 
L 183.166128 91.318333 
L 183.280881 90.940244 
L 183.337746 90.656678 
L 183.394275 91.223811 
L 183.561858 90.562156 
L 183.671935 90.940244 
L 183.726487 90.467634 
L 183.780717 90.940244 
L 183.888222 91.412855 
L 183.9415 90.562156 
L 183.994466 91.318333 
L 184.047121 90.940244 
L 184.099467 91.129289 
L 184.151507 91.129289 
L 184.203242 90.656678 
L 184.254674 91.129289 
L 184.305806 91.318333 
L 184.457419 90.940244 
L 184.507368 90.940244 
L 184.557028 91.412855 
L 184.606398 91.318333 
L 184.70428 90.373112 
L 184.752796 91.318333 
L 184.848986 91.129289 
L 184.896664 90.845722 
L 184.944066 91.318333 
L 184.991194 90.467634 
L 185.084636 90.656678 
L 185.130954 90.656678 
L 185.177004 90.845722 
L 185.22279 90.373112 
L 185.268312 91.223811 
L 185.358574 91.034767 
L 185.403317 91.034767 
L 185.447803 91.412855 
L 185.492035 91.129289 
L 185.536013 90.940244 
L 185.579739 91.129289 
L 185.623216 91.318333 
L 185.666444 90.845722 
L 185.709426 91.412855 
L 185.752162 90.940244 
L 185.794655 91.318333 
L 185.836905 91.223811 
L 185.920687 90.7512 
L 186.003518 91.412855 
L 186.044582 91.034767 
L 186.085412 91.318333 
L 186.166381 91.129289 
L 186.286123 90.656678 
L 186.364829 91.412855 
L 186.403849 91.129289 
L 186.442648 91.129289 
L 186.48123 91.318333 
L 186.519594 91.129289 
L 186.633397 90.940244 
L 186.670906 91.412855 
L 186.708205 91.129289 
L 186.782176 90.656678 
L 186.927651 91.318333 
L 186.999175 90.467634 
L 187.034638 90.940244 
L 187.174527 91.318333 
L 187.209014 91.318333 
L 187.311331 90.278589 
L 187.345059 91.129289 
L 187.3786 91.223811 
L 187.411955 91.129289 
L 187.445126 90.940244 
L 187.478114 91.129289 
L 187.510919 91.223811 
L 187.543543 91.129289 
L 187.575986 91.034767 
L 187.608251 91.129289 
L 187.735543 91.223811 
L 187.76693 91.034767 
L 187.798144 91.318333 
L 187.829186 91.129289 
L 187.890762 90.845722 
L 187.951664 91.318333 
L 187.981865 90.7512 
L 188.041773 91.318333 
L 188.071481 91.412855 
L 188.101027 90.845722 
L 188.159637 91.129289 
L 188.188703 91.412855 
L 188.21761 90.845722 
L 188.246359 91.034767 
L 188.303391 91.223811 
L 188.331674 91.129289 
L 188.387781 90.940244 
L 188.443281 91.129289 
L 188.470805 91.129289 
L 188.498181 91.412855 
L 188.525408 90.940244 
L 188.552488 90.7512 
L 188.579422 91.129289 
L 188.606211 90.845722 
L 188.711927 91.412855 
L 188.738001 90.845722 
L 188.815384 91.223811 
L 188.840901 91.223811 
L 188.866282 90.940244 
L 188.891526 91.318333 
L 188.916635 91.129289 
L 188.94161 91.412855 
L 188.96645 90.940244 
L 189.015734 91.223811 
L 189.112729 91.129289 
L 189.136655 90.656678 
L 189.184125 91.318333 
L 189.207671 91.318333 
L 189.323534 91.034767 
L 189.502622 91.412855 
L 189.632042 91.034767 
L 189.757425 91.318333 
L 189.818647 90.845722 
L 189.858928 91.318333 
L 189.898788 90.940244 
L 189.977266 91.223811 
L 190.015893 91.129289 
L 190.035055 91.318333 
L 190.073081 91.412855 
L 190.147952 90.940244 
L 190.275283 91.412855 
L 190.36344 90.940244 
L 190.380799 91.223811 
L 190.449344 91.318333 
L 190.432341 91.034767 
L 190.46626 91.129289 
L 190.483089 90.7512 
L 190.516487 91.318333 
L 190.565943 91.223811 
L 190.630707 91.318333 
L 190.598492 90.940244 
L 190.646691 91.129289 
L 190.662593 90.940244 
L 190.678413 91.412855 
L 190.725391 91.223811 
L 190.74089 91.412855 
L 190.75631 91.129289 
L 190.832237 91.318333 
L 190.84719 91.318333 
L 190.862068 91.034767 
L 190.935328 91.412855 
L 190.949757 91.223811 
L 191.034807 91.412855 
L 190.992606 91.129289 
L 191.048731 91.129289 
L 191.103727 91.129289 
L 191.130809 91.412855 
L 191.184158 91.129289 
L 191.197327 90.7512 
L 191.287672 91.318333 
L 191.387092 91.412855 
L 191.399241 90.940244 
L 191.459075 91.412855 
L 191.517427 91.318333 
L 191.563068 91.412855 
L 191.551743 91.034767 
L 191.585548 91.223811 
L 191.607804 90.845722 
L 191.629839 91.412855 
L 191.694639 91.034767 
L 191.788277 91.412855 
L 191.726319 90.7512 
L 191.798425 91.129289 
L 191.808523 90.7512 
L 191.81857 91.412855 
L 191.906788 91.129289 
L 191.981968 91.412855 
L 192.018458 91.318333 
L 192.106589 91.412855 
L 192.140643 90.940244 
L 192.230907 91.412855 
L 192.182278 90.845722 
L 192.270351 91.318333 
L 192.331482 90.940244 
L 192.293556 91.412855 
L 192.375783 91.223811 
L 192.41172 91.129289 
L 192.487755 91.412855 
L 192.59752 91.034767 
L 192.692846 91.412855 
L 192.709909 91.318333 
L 192.737799 90.940244 
L 192.743296 91.412855 
L 192.822629 91.129289 
L 192.933596 91.412855 
L 192.832777 91.034767 
L 192.938145 91.318333 
L 193.032859 91.034767 
L 192.947179 91.412855 
L 193.04501 91.129289 
L 193.132534 91.412855 
L 193.136123 91.034767 
L 193.153809 91.318333 
L 193.174474 90.940244 
L 193.181231 91.412855 
L 193.263362 91.318333 
L 193.272191 91.318333 
L 193.378429 90.845722 
L 193.283765 91.412855 
L 193.38083 91.318333 
L 193.45793 91.412855 
L 193.387964 90.845722 
L 193.459946 91.318333 
" clip-path="url(#p68e6912018)" style="fill: none; stroke: #ff7f0e; stroke-width: 0.7; stroke-linecap: square"/>
   </g>
   <g id="line2d_14">
    <path d="M 38.239801 91.412855 
L 193.867074 91.412855 
" clip-path="url(#p68e6912018)" style="fill: none; stroke-dasharray: 2.59,1.12; stroke-dashoffset: 0; stroke: #000000; stroke-width: 0.7"/>
   </g>
   <g id="patch_3">
    <path d="M 30.458438 95.099219 
L 30.458438 13.999219 
" style="fill: none; stroke: #000000; stroke-width: 0.5; stroke-linejoin: miter; stroke-linecap: square"/>
   </g>
   <g id="patch_4">
    <path d="M 30.458438 95.099219 
L 201.648437 95.099219 
" style="fill: none; stroke: #000000; stroke-width: 0.5; stroke-linejoin: miter; stroke-linecap: square"/>
   </g>
   <g id="legend_1">
    <g id="line2d_15">
     <path d="M 120.898437 20.599219 
L 125.898437 20.599219 
L 130.898437 20.599219 
" style="fill: none; stroke: #1f77b4; stroke-width: 0.7; stroke-linecap: square"/>
    </g>
    <g id="text_15">
     <!-- max $p(r=y|y)$ difference -->
     <g transform="translate(134.898437 22.349219) scale(0.05 -0.05)">
      <defs>
       <path id="DejaVuSans-6d" d="M 3328 2828 
Q 3544 3216 3844 3400 
Q 4144 3584 4550 3584 
Q 5097 3584 5394 3201 
Q 5691 2819 5691 2113 
L 5691 0 
L 5113 0 
L 5113 2094 
Q 5113 2597 4934 2840 
Q 4756 3084 4391 3084 
Q 3944 3084 3684 2787 
Q 3425 2491 3425 1978 
L 3425 0 
L 2847 0 
L 2847 2094 
Q 2847 2600 2669 2842 
Q 2491 3084 2119 3084 
Q 1678 3084 1418 2786 
Q 1159 2488 1159 1978 
L 1159 0 
L 581 0 
L 581 3500 
L 1159 3500 
L 1159 2956 
Q 1356 3278 1631 3431 
Q 1906 3584 2284 3584 
Q 2666 3584 2933 3390 
Q 3200 3197 3328 2828 
z
" transform="scale(0.015625)"/>
       <path id="DejaVuSans-Oblique-70" d="M 3175 2156 
Q 3175 2616 2975 2859 
Q 2775 3103 2400 3103 
Q 2144 3103 1911 2972 
Q 1678 2841 1497 2591 
Q 1319 2344 1212 1994 
Q 1106 1644 1106 1300 
Q 1106 863 1306 627 
Q 1506 391 1875 391 
Q 2147 391 2380 519 
Q 2613 647 2778 891 
Q 2956 1147 3065 1494 
Q 3175 1841 3175 2156 
z
M 1394 2969 
Q 1625 3272 1939 3428 
Q 2253 3584 2638 3584 
Q 3175 3584 3472 3232 
Q 3769 2881 3769 2247 
Q 3769 1728 3584 1258 
Q 3400 788 3053 416 
Q 2822 169 2531 39 
Q 2241 -91 1919 -91 
Q 1547 -91 1294 64 
Q 1041 219 916 525 
L 556 -1331 
L -19 -1331 
L 922 3500 
L 1497 3500 
L 1394 2969 
z
" transform="scale(0.015625)"/>
       <path id="DejaVuSans-Oblique-72" d="M 2853 2969 
Q 2766 3016 2653 3041 
Q 2541 3066 2413 3066 
Q 1953 3066 1609 2717 
Q 1266 2369 1153 1784 
L 800 0 
L 225 0 
L 909 3500 
L 1484 3500 
L 1375 2956 
Q 1603 3259 1920 3421 
Q 2238 3584 2597 3584 
Q 2691 3584 2781 3573 
Q 2872 3563 2963 3538 
L 2853 2969 
z
" transform="scale(0.015625)"/>
       <path id="DejaVuSans-3d" d="M 678 2906 
L 4684 2906 
L 4684 2381 
L 678 2381 
L 678 2906 
z
M 678 1631 
L 4684 1631 
L 4684 1100 
L 678 1100 
L 678 1631 
z
" transform="scale(0.015625)"/>
       <path id="DejaVuSans-Oblique-79" d="M 1588 -325 
Q 1188 -997 936 -1164 
Q 684 -1331 294 -1331 
L -159 -1331 
L -63 -850 
L 269 -850 
Q 509 -850 678 -719 
Q 847 -588 1056 -206 
L 1234 128 
L 459 3500 
L 1069 3500 
L 1650 819 
L 3256 3500 
L 3859 3500 
L 1588 -325 
z
" transform="scale(0.015625)"/>
       <path id="DejaVuSans-7c" d="M 1344 4891 
L 1344 -1509 
L 813 -1509 
L 813 4891 
L 1344 4891 
z
" transform="scale(0.015625)"/>
      </defs>
      <use xlink:href="#DejaVuSans-6d" transform="translate(0 0.578125)"/>
      <use xlink:href="#DejaVuSans-61" transform="translate(97.412109 0.578125)"/>
      <use xlink:href="#DejaVuSans-78" transform="translate(158.691406 0.578125)"/>
      <use xlink:href="#DejaVuSans-20" transform="translate(217.871094 0.578125)"/>
      <use xlink:href="#DejaVuSans-Oblique-70" transform="translate(249.658203 0.578125)"/>
      <use xlink:href="#DejaVuSans-28" transform="translate(313.134766 0.578125)"/>
      <use xlink:href="#DejaVuSans-Oblique-72" transform="translate(352.148438 0.578125)"/>
      <use xlink:href="#DejaVuSans-3d" transform="translate(412.744141 0.578125)"/>
      <use xlink:href="#DejaVuSans-Oblique-79" transform="translate(516.015625 0.578125)"/>
      <use xlink:href="#DejaVuSans-7c" transform="translate(575.195312 0.578125)"/>
      <use xlink:href="#DejaVuSans-Oblique-79" transform="translate(608.886719 0.578125)"/>
      <use xlink:href="#DejaVuSans-29" transform="translate(668.066406 0.578125)"/>
      <use xlink:href="#DejaVuSans-20" transform="translate(707.080078 0.578125)"/>
      <use xlink:href="#DejaVuSans-64" transform="translate(738.867188 0.578125)"/>
      <use xlink:href="#DejaVuSans-69" transform="translate(802.34375 0.578125)"/>
      <use xlink:href="#DejaVuSans-66" transform="translate(830.126953 0.578125)"/>
      <use xlink:href="#DejaVuSans-66" transform="translate(865.332031 0.578125)"/>
      <use xlink:href="#DejaVuSans-65" transform="translate(900.537109 0.578125)"/>
      <use xlink:href="#DejaVuSans-72" transform="translate(962.060547 0.578125)"/>
      <use xlink:href="#DejaVuSans-65" transform="translate(1003.173828 0.578125)"/>
      <use xlink:href="#DejaVuSans-6e" transform="translate(1064.697266 0.578125)"/>
      <use xlink:href="#DejaVuSans-63" transform="translate(1128.076172 0.578125)"/>
      <use xlink:href="#DejaVuSans-65" transform="translate(1183.056641 0.578125)"/>
     </g>
    </g>
    <g id="line2d_16">
     <path d="M 120.898437 28.149219 
L 125.898437 28.149219 
L 130.898437 28.149219 
" style="fill: none; stroke: #ff7f0e; stroke-width: 0.7; stroke-linecap: square"/>
    </g>
    <g id="text_16">
     <!-- max $p(r\neq y|y)$ difference -->
     <g transform="translate(134.898437 29.899219) scale(0.05 -0.05)">
      <defs>
       <path id="DejaVuSans-2260" d="M 678 2906 
L 3091 2906 
L 3891 3891 
L 4281 3572 
L 3738 2906 
L 4684 2906 
L 4684 2381 
L 3309 2381 
L 2700 1631 
L 4684 1631 
L 4684 1100 
L 2266 1100 
L 1459 122 
L 1069 441 
L 1613 1100 
L 678 1100 
L 678 1631 
L 2047 1631 
L 2656 2381 
L 678 2381 
L 678 2906 
z
" transform="scale(0.015625)"/>
      </defs>
      <use xlink:href="#DejaVuSans-6d" transform="translate(0 0.578125)"/>
      <use xlink:href="#DejaVuSans-61" transform="translate(97.412109 0.578125)"/>
      <use xlink:href="#DejaVuSans-78" transform="translate(158.691406 0.578125)"/>
      <use xlink:href="#DejaVuSans-20" transform="translate(217.871094 0.578125)"/>
      <use xlink:href="#DejaVuSans-Oblique-70" transform="translate(249.658203 0.578125)"/>
      <use xlink:href="#DejaVuSans-28" transform="translate(313.134766 0.578125)"/>
      <use xlink:href="#DejaVuSans-Oblique-72" transform="translate(352.148438 0.578125)"/>
      <use xlink:href="#DejaVuSans-2260" transform="translate(412.744141 0.578125)"/>
      <use xlink:href="#DejaVuSans-Oblique-79" transform="translate(516.015625 0.578125)"/>
      <use xlink:href="#DejaVuSans-7c" transform="translate(575.195312 0.578125)"/>
      <use xlink:href="#DejaVuSans-Oblique-79" transform="translate(608.886719 0.578125)"/>
      <use xlink:href="#DejaVuSans-29" transform="translate(668.066406 0.578125)"/>
      <use xlink:href="#DejaVuSans-20" transform="translate(707.080078 0.578125)"/>
      <use xlink:href="#DejaVuSans-64" transform="translate(738.867188 0.578125)"/>
      <use xlink:href="#DejaVuSans-69" transform="translate(802.34375 0.578125)"/>
      <use xlink:href="#DejaVuSans-66" transform="translate(830.126953 0.578125)"/>
      <use xlink:href="#DejaVuSans-66" transform="translate(865.332031 0.578125)"/>
      <use xlink:href="#DejaVuSans-65" transform="translate(900.537109 0.578125)"/>
      <use xlink:href="#DejaVuSans-72" transform="translate(962.060547 0.578125)"/>
      <use xlink:href="#DejaVuSans-65" transform="translate(1003.173828 0.578125)"/>
      <use xlink:href="#DejaVuSans-6e" transform="translate(1064.697266 0.578125)"/>
      <use xlink:href="#DejaVuSans-63" transform="translate(1128.076172 0.578125)"/>
      <use xlink:href="#DejaVuSans-65" transform="translate(1183.056641 0.578125)"/>
     </g>
    </g>
   </g>
  </g>
 </g>
 <defs>
  <clipPath id="p68e6912018">
   <rect x="30.458438" y="13.999219" width="171.19" height="81.1"/>
  </clipPath>
 </defs>
</svg>
