<?xml version="1.0" encoding="utf-8" standalone="no"?>
<!DOCTYPE svg PUBLIC "-//W3C//DTD SVG 1.1//EN"
  "http://www.w3.org/Graphics/SVG/1.1/DTD/svg11.dtd">
<svg xmlns:xlink="http://www.w3.org/1999/xlink" width="208.390712pt" height="316.478125pt" viewBox="0 0 208.390712 316.478125" xmlns="http://www.w3.org/2000/svg" version="1.1">
 <metadata>
  <rdf:RDF xmlns:dc="http://purl.org/dc/elements/1.1/" xmlns:cc="http://creativecommons.org/ns#" xmlns:rdf="http://www.w3.org/1999/02/22-rdf-syntax-ns#">
   <cc:Work>
    <dc:type rdf:resource="http://purl.org/dc/dcmitype/StillImage"/>
    <dc:date>2026-04-22T14:54:00.793474</dc:date>
    <dc:format>image/svg+xml</dc:format>
    <dc:creator>
     <cc:Agent>
      <dc:title>Matplotlib v3.6.2, https://matplotlib.org/</dc:title>
     </cc:Agent>
    </dc:creator>
   </cc:Work>
  </rdf:RDF>
 </metadata>
 <defs>
  <style type="text/css">*{stroke-linejoin: round; stroke-linecap: butt}</style>
 </defs>
 <g id="figure_1">
  <g id="patch_1">
   <path d="M 0 316.478125 
L 208.390712 316.478125 
L 208.390712 0 
L 0 0 
z
" style="fill: #ffffff"/>
  </g>
  <g id="axes_1">
   <g id="patch_2">
    <path d="M 34.648281 95.592396 
L 200.402512 95.592396 
L 200.402512 17.759062 
L 34.648281 17.759062 
z
" style="fill: #ffffff"/>
   </g>
   <g id="matplotlib.axis_1">
    <g id="xtick_1">
     <g id="line2d_1">
      <defs>
       <path id="ma2dfab1a8b" d="M 0 0 
L 0 2 
" style="stroke: #000000; stroke-width: 0.5"/>
      </defs>
      <g>
       <use xlink:href="#ma2dfab1a8b" x="37.835863" y="95.592396" style="stroke: #000000; stroke-width: 0.5"/>
      </g>
     </g>
    </g>
    <g id="xtick_2">
     <g id="line2d_2">
      <g>
       <use xlink:href="#ma2dfab1a8b" x="69.711676" y="95.592396" style="stroke: #000000; stroke-width: 0.5"/>
      </g>
     </g>
    </g>
    <g id="xtick_3">
     <g id="line2d_3">
      <g>
       <use xlink:href="#ma2dfab1a8b" x="101.58749" y="95.592396" style="stroke: #000000; stroke-width: 0.5"/>
      </g>
     </g>
    </g>
    <g id="xtick_4">
     <g id="line2d_4">
      <g>
       <use xlink:href="#ma2dfab1a8b" x="133.463303" y="95.592396" style="stroke: #000000; stroke-width: 0.5"/>
      </g>
     </g>
    </g>
    <g id="xtick_5">
     <g id="line2d_5">
      <g>
       <use xlink:href="#ma2dfab1a8b" x="165.339117" y="95.592396" style="stroke: #000000; stroke-width: 0.5"/>
      </g>
     </g>
    </g>
    <g id="xtick_6">
     <g id="line2d_6">
      <g>
       <use xlink:href="#ma2dfab1a8b" x="197.214931" y="95.592396" style="stroke: #000000; stroke-width: 0.5"/>
      </g>
     </g>
    </g>
   </g>
   <g id="matplotlib.axis_2">
    <g id="ytick_1">
     <g id="line2d_7">
      <defs>
       <path id="mcaa12597b2" d="M 0 0 
L -2 0 
" style="stroke: #000000; stroke-width: 0.5"/>
      </defs>
      <g>
       <use xlink:href="#mcaa12597b2" x="34.648281" y="86.033504" style="stroke: #000000; stroke-width: 0.5"/>
      </g>
     </g>
     <g id="text_1">
      <!-- −1.5 -->
      <g transform="translate(17.006875 87.933114) scale(0.05 -0.05)">
       <defs>
        <path id="DejaVuSans-2212" d="M 678 2272 
L 4684 2272 
L 4684 1741 
L 678 1741 
L 678 2272 
z
" transform="scale(0.015625)"/>
        <path id="DejaVuSans-31" d="M 794 531 
L 1825 531 
L 1825 4091 
L 703 3866 
L 703 4441 
L 1819 4666 
L 2450 4666 
L 2450 531 
L 3481 531 
L 3481 0 
L 794 0 
L 794 531 
z
" transform="scale(0.015625)"/>
        <path id="DejaVuSans-2e" d="M 684 794 
L 1344 794 
L 1344 0 
L 684 0 
L 684 794 
z
" transform="scale(0.015625)"/>
        <path id="DejaVuSans-35" d="M 691 4666 
L 3169 4666 
L 3169 4134 
L 1269 4134 
L 1269 2991 
Q 1406 3038 1543 3061 
Q 1681 3084 1819 3084 
Q 2600 3084 3056 2656 
Q 3513 2228 3513 1497 
Q 3513 744 3044 326 
Q 2575 -91 1722 -91 
Q 1428 -91 1123 -41 
Q 819 9 494 109 
L 494 744 
Q 775 591 1075 516 
Q 1375 441 1709 441 
Q 2250 441 2565 725 
Q 2881 1009 2881 1497 
Q 2881 1984 2565 2268 
Q 2250 2553 1709 2553 
Q 1456 2553 1204 2497 
Q 953 2441 691 2322 
L 691 4666 
z
" transform="scale(0.015625)"/>
       </defs>
       <use xlink:href="#DejaVuSans-2212"/>
       <use xlink:href="#DejaVuSans-31" x="83.789062"/>
       <use xlink:href="#DejaVuSans-2e" x="147.412109"/>
       <use xlink:href="#DejaVuSans-35" x="179.199219"/>
      </g>
     </g>
    </g>
    <g id="ytick_2">
     <g id="line2d_8">
      <g>
       <use xlink:href="#mcaa12597b2" x="34.648281" y="64.923389" style="stroke: #000000; stroke-width: 0.5"/>
      </g>
     </g>
     <g id="text_2">
      <!-- −1.0 -->
      <g transform="translate(17.006875 66.822998) scale(0.05 -0.05)">
       <defs>
        <path id="DejaVuSans-30" d="M 2034 4250 
Q 1547 4250 1301 3770 
Q 1056 3291 1056 2328 
Q 1056 1369 1301 889 
Q 1547 409 2034 409 
Q 2525 409 2770 889 
Q 3016 1369 3016 2328 
Q 3016 3291 2770 3770 
Q 2525 4250 2034 4250 
z
M 2034 4750 
Q 2819 4750 3233 4129 
Q 3647 3509 3647 2328 
Q 3647 1150 3233 529 
Q 2819 -91 2034 -91 
Q 1250 -91 836 529 
Q 422 1150 422 2328 
Q 422 3509 836 4129 
Q 1250 4750 2034 4750 
z
" transform="scale(0.015625)"/>
       </defs>
       <use xlink:href="#DejaVuSans-2212"/>
       <use xlink:href="#DejaVuSans-31" x="83.789062"/>
       <use xlink:href="#DejaVuSans-2e" x="147.412109"/>
       <use xlink:href="#DejaVuSans-30" x="179.199219"/>
      </g>
     </g>
    </g>
    <g id="ytick_3">
     <g id="line2d_9">
      <g>
       <use xlink:href="#mcaa12597b2" x="34.648281" y="43.813273" style="stroke: #000000; stroke-width: 0.5"/>
      </g>
     </g>
     <g id="text_3">
      <!-- −0.5 -->
      <g transform="translate(17.006875 45.712882) scale(0.05 -0.05)">
       <use xlink:href="#DejaVuSans-2212"/>
       <use xlink:href="#DejaVuSans-30" x="83.789062"/>
       <use xlink:href="#DejaVuSans-2e" x="147.412109"/>
       <use xlink:href="#DejaVuSans-35" x="179.199219"/>
      </g>
     </g>
    </g>
    <g id="ytick_4">
     <g id="line2d_10">
      <g>
       <use xlink:href="#mcaa12597b2" x="34.648281" y="22.703157" style="stroke: #000000; stroke-width: 0.5"/>
      </g>
     </g>
     <g id="text_4">
      <!-- 0.0 -->
      <g transform="translate(21.196719 24.602767) scale(0.05 -0.05)">
       <use xlink:href="#DejaVuSans-30"/>
       <use xlink:href="#DejaVuSans-2e" x="63.623047"/>
       <use xlink:href="#DejaVuSans-30" x="95.410156"/>
      </g>
     </g>
    </g>
    <g id="text_5">
     <!-- $\Delta I(X;R)$ (softmax-IB bound) -->
     <g transform="translate(11.759062 97.595729) rotate(-90) scale(0.06 -0.06)">
      <defs>
       <path id="DejaVuSans-394" d="M 2188 4044 
L 906 525 
L 3472 525 
L 2188 4044 
z
M 50 0 
L 1831 4666 
L 2547 4666 
L 4325 0 
L 50 0 
z
" transform="scale(0.015625)"/>
       <path id="DejaVuSans-Oblique-49" d="M 1081 4666 
L 1716 4666 
L 806 0 
L 172 0 
L 1081 4666 
z
" transform="scale(0.015625)"/>
       <path id="DejaVuSans-28" d="M 1984 4856 
Q 1566 4138 1362 3434 
Q 1159 2731 1159 2009 
Q 1159 1288 1364 580 
Q 1569 -128 1984 -844 
L 1484 -844 
Q 1016 -109 783 600 
Q 550 1309 550 2009 
Q 550 2706 781 3412 
Q 1013 4119 1484 4856 
L 1984 4856 
z
" transform="scale(0.015625)"/>
       <path id="DejaVuSans-Oblique-58" d="M 878 4666 
L 1516 4666 
L 2316 2981 
L 3763 4666 
L 4500 4666 
L 2578 2438 
L 3738 0 
L 3103 0 
L 2163 1966 
L 459 0 
L -275 0 
L 1906 2509 
L 878 4666 
z
" transform="scale(0.015625)"/>
       <path id="DejaVuSans-3b" d="M 750 3309 
L 1409 3309 
L 1409 2516 
L 750 2516 
L 750 3309 
z
M 750 794 
L 1409 794 
L 1409 256 
L 897 -744 
L 494 -744 
L 750 256 
L 750 794 
z
" transform="scale(0.015625)"/>
       <path id="DejaVuSans-Oblique-52" d="M 1613 4147 
L 1294 2491 
L 2106 2491 
Q 2584 2491 2879 2755 
Q 3175 3019 3175 3444 
Q 3175 3784 2976 3965 
Q 2778 4147 2406 4147 
L 1613 4147 
z
M 2772 2241 
Q 2972 2194 3105 2009 
Q 3238 1825 3413 1275 
L 3809 0 
L 3144 0 
L 2778 1197 
Q 2638 1659 2453 1815 
Q 2269 1972 1888 1972 
L 1191 1972 
L 806 0 
L 172 0 
L 1081 4666 
L 2503 4666 
Q 3150 4666 3495 4373 
Q 3841 4081 3841 3531 
Q 3841 3044 3547 2687 
Q 3253 2331 2772 2241 
z
" transform="scale(0.015625)"/>
       <path id="DejaVuSans-29" d="M 513 4856 
L 1013 4856 
Q 1481 4119 1714 3412 
Q 1947 2706 1947 2009 
Q 1947 1309 1714 600 
Q 1481 -109 1013 -844 
L 513 -844 
Q 928 -128 1133 580 
Q 1338 1288 1338 2009 
Q 1338 2731 1133 3434 
Q 928 4138 513 4856 
z
" transform="scale(0.015625)"/>
       <path id="DejaVuSans-20" transform="scale(0.015625)"/>
       <path id="DejaVuSans-73" d="M 2834 3397 
L 2834 2853 
Q 2591 2978 2328 3040 
Q 2066 3103 1784 3103 
Q 1356 3103 1142 2972 
Q 928 2841 928 2578 
Q 928 2378 1081 2264 
Q 1234 2150 1697 2047 
L 1894 2003 
Q 2506 1872 2764 1633 
Q 3022 1394 3022 966 
Q 3022 478 2636 193 
Q 2250 -91 1575 -91 
Q 1294 -91 989 -36 
Q 684 19 347 128 
L 347 722 
Q 666 556 975 473 
Q 1284 391 1588 391 
Q 1994 391 2212 530 
Q 2431 669 2431 922 
Q 2431 1156 2273 1281 
Q 2116 1406 1581 1522 
L 1381 1569 
Q 847 1681 609 1914 
Q 372 2147 372 2553 
Q 372 3047 722 3315 
Q 1072 3584 1716 3584 
Q 2034 3584 2315 3537 
Q 2597 3491 2834 3397 
z
" transform="scale(0.015625)"/>
       <path id="DejaVuSans-6f" d="M 1959 3097 
Q 1497 3097 1228 2736 
Q 959 2375 959 1747 
Q 959 1119 1226 758 
Q 1494 397 1959 397 
Q 2419 397 2687 759 
Q 2956 1122 2956 1747 
Q 2956 2369 2687 2733 
Q 2419 3097 1959 3097 
z
M 1959 3584 
Q 2709 3584 3137 3096 
Q 3566 2609 3566 1747 
Q 3566 888 3137 398 
Q 2709 -91 1959 -91 
Q 1206 -91 779 398 
Q 353 888 353 1747 
Q 353 2609 779 3096 
Q 1206 3584 1959 3584 
z
" transform="scale(0.015625)"/>
       <path id="DejaVuSans-66" d="M 2375 4863 
L 2375 4384 
L 1825 4384 
Q 1516 4384 1395 4259 
Q 1275 4134 1275 3809 
L 1275 3500 
L 2222 3500 
L 2222 3053 
L 1275 3053 
L 1275 0 
L 697 0 
L 697 3053 
L 147 3053 
L 147 3500 
L 697 3500 
L 697 3744 
Q 697 4328 969 4595 
Q 1241 4863 1831 4863 
L 2375 4863 
z
" transform="scale(0.015625)"/>
       <path id="DejaVuSans-74" d="M 1172 4494 
L 1172 3500 
L 2356 3500 
L 2356 3053 
L 1172 3053 
L 1172 1153 
Q 1172 725 1289 603 
Q 1406 481 1766 481 
L 2356 481 
L 2356 0 
L 1766 0 
Q 1100 0 847 248 
Q 594 497 594 1153 
L 594 3053 
L 172 3053 
L 172 3500 
L 594 3500 
L 594 4494 
L 1172 4494 
z
" transform="scale(0.015625)"/>
       <path id="DejaVuSans-6d" d="M 3328 2828 
Q 3544 3216 3844 3400 
Q 4144 3584 4550 3584 
Q 5097 3584 5394 3201 
Q 5691 2819 5691 2113 
L 5691 0 
L 5113 0 
L 5113 2094 
Q 5113 2597 4934 2840 
Q 4756 3084 4391 3084 
Q 3944 3084 3684 2787 
Q 3425 2491 3425 1978 
L 3425 0 
L 2847 0 
L 2847 2094 
Q 2847 2600 2669 2842 
Q 2491 3084 2119 3084 
Q 1678 3084 1418 2786 
Q 1159 2488 1159 1978 
L 1159 0 
L 581 0 
L 581 3500 
L 1159 3500 
L 1159 2956 
Q 1356 3278 1631 3431 
Q 1906 3584 2284 3584 
Q 2666 3584 2933 3390 
Q 3200 3197 3328 2828 
z
" transform="scale(0.015625)"/>
       <path id="DejaVuSans-61" d="M 2194 1759 
Q 1497 1759 1228 1600 
Q 959 1441 959 1056 
Q 959 750 1161 570 
Q 1363 391 1709 391 
Q 2188 391 2477 730 
Q 2766 1069 2766 1631 
L 2766 1759 
L 2194 1759 
z
M 3341 1997 
L 3341 0 
L 2766 0 
L 2766 531 
Q 2569 213 2275 61 
Q 1981 -91 1556 -91 
Q 1019 -91 701 211 
Q 384 513 384 1019 
Q 384 1609 779 1909 
Q 1175 2209 1959 2209 
L 2766 2209 
L 2766 2266 
Q 2766 2663 2505 2880 
Q 2244 3097 1772 3097 
Q 1472 3097 1187 3025 
Q 903 2953 641 2809 
L 641 3341 
Q 956 3463 1253 3523 
Q 1550 3584 1831 3584 
Q 2591 3584 2966 3190 
Q 3341 2797 3341 1997 
z
" transform="scale(0.015625)"/>
       <path id="DejaVuSans-78" d="M 3513 3500 
L 2247 1797 
L 3578 0 
L 2900 0 
L 1881 1375 
L 863 0 
L 184 0 
L 1544 1831 
L 300 3500 
L 978 3500 
L 1906 2253 
L 2834 3500 
L 3513 3500 
z
" transform="scale(0.015625)"/>
       <path id="DejaVuSans-2d" d="M 313 2009 
L 1997 2009 
L 1997 1497 
L 313 1497 
L 313 2009 
z
" transform="scale(0.015625)"/>
       <path id="DejaVuSans-49" d="M 628 4666 
L 1259 4666 
L 1259 0 
L 628 0 
L 628 4666 
z
" transform="scale(0.015625)"/>
       <path id="DejaVuSans-42" d="M 1259 2228 
L 1259 519 
L 2272 519 
Q 2781 519 3026 730 
Q 3272 941 3272 1375 
Q 3272 1813 3026 2020 
Q 2781 2228 2272 2228 
L 1259 2228 
z
M 1259 4147 
L 1259 2741 
L 2194 2741 
Q 2656 2741 2882 2914 
Q 3109 3088 3109 3444 
Q 3109 3797 2882 3972 
Q 2656 4147 2194 4147 
L 1259 4147 
z
M 628 4666 
L 2241 4666 
Q 2963 4666 3353 4366 
Q 3744 4066 3744 3513 
Q 3744 3084 3544 2831 
Q 3344 2578 2956 2516 
Q 3422 2416 3680 2098 
Q 3938 1781 3938 1306 
Q 3938 681 3513 340 
Q 3088 0 2303 0 
L 628 0 
L 628 4666 
z
" transform="scale(0.015625)"/>
       <path id="DejaVuSans-62" d="M 3116 1747 
Q 3116 2381 2855 2742 
Q 2594 3103 2138 3103 
Q 1681 3103 1420 2742 
Q 1159 2381 1159 1747 
Q 1159 1113 1420 752 
Q 1681 391 2138 391 
Q 2594 391 2855 752 
Q 3116 1113 3116 1747 
z
M 1159 2969 
Q 1341 3281 1617 3432 
Q 1894 3584 2278 3584 
Q 2916 3584 3314 3078 
Q 3713 2572 3713 1747 
Q 3713 922 3314 415 
Q 2916 -91 2278 -91 
Q 1894 -91 1617 61 
Q 1341 213 1159 525 
L 1159 0 
L 581 0 
L 581 4863 
L 1159 4863 
L 1159 2969 
z
" transform="scale(0.015625)"/>
       <path id="DejaVuSans-75" d="M 544 1381 
L 544 3500 
L 1119 3500 
L 1119 1403 
Q 1119 906 1312 657 
Q 1506 409 1894 409 
Q 2359 409 2629 706 
Q 2900 1003 2900 1516 
L 2900 3500 
L 3475 3500 
L 3475 0 
L 2900 0 
L 2900 538 
Q 2691 219 2414 64 
Q 2138 -91 1772 -91 
Q 1169 -91 856 284 
Q 544 659 544 1381 
z
M 1991 3584 
L 1991 3584 
z
" transform="scale(0.015625)"/>
       <path id="DejaVuSans-6e" d="M 3513 2113 
L 3513 0 
L 2938 0 
L 2938 2094 
Q 2938 2591 2744 2837 
Q 2550 3084 2163 3084 
Q 1697 3084 1428 2787 
Q 1159 2491 1159 1978 
L 1159 0 
L 581 0 
L 581 3500 
L 1159 3500 
L 1159 2956 
Q 1366 3272 1645 3428 
Q 1925 3584 2291 3584 
Q 2894 3584 3203 3211 
Q 3513 2838 3513 2113 
z
" transform="scale(0.015625)"/>
       <path id="DejaVuSans-64" d="M 2906 2969 
L 2906 4863 
L 3481 4863 
L 3481 0 
L 2906 0 
L 2906 525 
Q 2725 213 2448 61 
Q 2172 -91 1784 -91 
Q 1150 -91 751 415 
Q 353 922 353 1747 
Q 353 2572 751 3078 
Q 1150 3584 1784 3584 
Q 2172 3584 2448 3432 
Q 2725 3281 2906 2969 
z
M 947 1747 
Q 947 1113 1208 752 
Q 1469 391 1925 391 
Q 2381 391 2643 752 
Q 2906 1113 2906 1747 
Q 2906 2381 2643 2742 
Q 2381 3103 1925 3103 
Q 1469 3103 1208 2742 
Q 947 2381 947 1747 
z
" transform="scale(0.015625)"/>
      </defs>
      <use xlink:href="#DejaVuSans-394" transform="translate(0 0.015625)"/>
      <use xlink:href="#DejaVuSans-Oblique-49" transform="translate(68.408203 0.015625)"/>
      <use xlink:href="#DejaVuSans-28" transform="translate(97.900391 0.015625)"/>
      <use xlink:href="#DejaVuSans-Oblique-58" transform="translate(136.914062 0.015625)"/>
      <use xlink:href="#DejaVuSans-3b" transform="translate(205.419922 0.015625)"/>
      <use xlink:href="#DejaVuSans-Oblique-52" transform="translate(258.59375 0.015625)"/>
      <use xlink:href="#DejaVuSans-29" transform="translate(328.076172 0.015625)"/>
      <use xlink:href="#DejaVuSans-20" transform="translate(367.089844 0.015625)"/>
      <use xlink:href="#DejaVuSans-28" transform="translate(398.876953 0.015625)"/>
      <use xlink:href="#DejaVuSans-73" transform="translate(437.890625 0.015625)"/>
      <use xlink:href="#DejaVuSans-6f" transform="translate(489.990234 0.015625)"/>
      <use xlink:href="#DejaVuSans-66" transform="translate(551.171875 0.015625)"/>
      <use xlink:href="#DejaVuSans-74" transform="translate(586.376953 0.015625)"/>
      <use xlink:href="#DejaVuSans-6d" transform="translate(625.585938 0.015625)"/>
      <use xlink:href="#DejaVuSans-61" transform="translate(722.998047 0.015625)"/>
      <use xlink:href="#DejaVuSans-78" transform="translate(784.277344 0.015625)"/>
      <use xlink:href="#DejaVuSans-2d" transform="translate(843.457031 0.015625)"/>
      <use xlink:href="#DejaVuSans-49" transform="translate(879.541016 0.015625)"/>
      <use xlink:href="#DejaVuSans-42" transform="translate(909.033203 0.015625)"/>
      <use xlink:href="#DejaVuSans-20" transform="translate(977.636719 0.015625)"/>
      <use xlink:href="#DejaVuSans-62" transform="translate(1009.423828 0.015625)"/>
      <use xlink:href="#DejaVuSans-6f" transform="translate(1072.900391 0.015625)"/>
      <use xlink:href="#DejaVuSans-75" transform="translate(1134.082031 0.015625)"/>
      <use xlink:href="#DejaVuSans-6e" transform="translate(1197.460938 0.015625)"/>
      <use xlink:href="#DejaVuSans-64" transform="translate(1260.839844 0.015625)"/>
      <use xlink:href="#DejaVuSans-29" transform="translate(1324.316406 0.015625)"/>
     </g>
    </g>
    <g id="text_6">
     <!-- 1e−14 -->
     <g transform="translate(34.648281 14.759062) scale(0.05 -0.05)">
      <defs>
       <path id="DejaVuSans-65" d="M 3597 1894 
L 3597 1613 
L 953 1613 
Q 991 1019 1311 708 
Q 1631 397 2203 397 
Q 2534 397 2845 478 
Q 3156 559 3463 722 
L 3463 178 
Q 3153 47 2828 -22 
Q 2503 -91 2169 -91 
Q 1331 -91 842 396 
Q 353 884 353 1716 
Q 353 2575 817 3079 
Q 1281 3584 2069 3584 
Q 2775 3584 3186 3129 
Q 3597 2675 3597 1894 
z
M 3022 2063 
Q 3016 2534 2758 2815 
Q 2500 3097 2075 3097 
Q 1594 3097 1305 2825 
Q 1016 2553 972 2059 
L 3022 2063 
z
" transform="scale(0.015625)"/>
       <path id="DejaVuSans-34" d="M 2419 4116 
L 825 1625 
L 2419 1625 
L 2419 4116 
z
M 2253 4666 
L 3047 4666 
L 3047 1625 
L 3713 1625 
L 3713 1100 
L 3047 1100 
L 3047 0 
L 2419 0 
L 2419 1100 
L 313 1100 
L 313 1709 
L 2253 4666 
z
" transform="scale(0.015625)"/>
      </defs>
      <use xlink:href="#DejaVuSans-31"/>
      <use xlink:href="#DejaVuSans-65" x="63.623047"/>
      <use xlink:href="#DejaVuSans-2212" x="125.146484"/>
      <use xlink:href="#DejaVuSans-31" x="208.935547"/>
      <use xlink:href="#DejaVuSans-34" x="272.558594"/>
     </g>
    </g>
   </g>
   <g id="line2d_11">
    <path d="M 37.867252 29.738358 
L 37.961341 51.283861 
L 38.117897 61.392413 
L 38.336533 64.63147 
L 38.616711 63.377228 
L 38.957744 49.871694 
L 39.358801 74.147233 
L 39.818912 92.054517 
L 40.336976 71.3348 
L 40.911762 81.192962 
L 41.541921 79.991819 
L 42.225993 82.818899 
L 42.962413 67.848556 
L 43.749521 54.518799 
L 44.585571 52.878213 
L 45.468741 56.833196 
L 46.397138 58.239412 
L 47.368814 76.373742 
L 48.38177 62.252988 
L 49.433967 59.089001 
L 50.523335 58.268708 
L 51.647782 53.991468 
L 52.805204 56.569531 
L 53.993488 51.823551 
L 55.210528 44.147954 
L 56.454225 53.581321 
L 57.722498 44.968247 
L 59.013289 46.374463 
L 60.324571 49.655634 
L 61.654351 43.210477 
L 63.000676 56.921085 
L 64.36164 52.233697 
L 65.735383 30.671716 
L 67.1201 41.218337 
L 68.514039 50.124373 
L 69.915509 54.343022 
L 72.734573 45.78854 
L 74.149092 38.640274 
L 75.564991 43.093292 
L 76.980893 31.960747 
L 78.395486 39.812121 
L 79.807525 30.437346 
L 81.215828 46.843202 
L 82.619279 41.452707 
L 84.016823 34.421626 
L 85.407472 42.624553 
L 86.790295 37.937166 
L 88.164424 39.343382 
L 89.529049 38.640274 
L 90.883418 36.296581 
L 92.226833 29.968608 
L 93.558649 37.937166 
L 94.878277 38.405905 
L 96.185172 35.593472 
L 97.478843 34.655995 
L 98.75884 40.04649 
L 100.024761 33.484148 
L 101.276245 34.187256 
L 102.51297 36.296581 
L 103.734654 34.187256 
L 104.941051 36.765319 
L 106.131951 28.562392 
L 107.307173 33.484148 
L 108.466571 33.484148 
L 109.610027 33.718518 
L 110.737449 32.077932 
L 111.848774 37.468427 
L 112.94396 32.312301 
L 114.02299 35.593472 
L 115.085867 28.796761 
L 116.132616 30.906085 
L 117.163278 34.655995 
L 118.177912 31.140455 
L 119.176594 33.952887 
L 121.126476 34.890364 
L 122.077895 33.484148 
L 123.013799 33.484148 
L 123.934327 30.202977 
L 124.839626 29.734238 
L 125.729852 28.328022 
L 126.605169 34.421626 
L 127.46575 27.390545 
L 128.31177 28.796761 
L 129.143415 33.015409 
L 129.96087 31.609193 
L 130.76433 29.2655 
L 131.55399 31.140455 
L 132.330049 30.202977 
L 133.09271 27.859283 
L 133.842176 27.859283 
L 134.578654 29.2655 
L 135.30235 30.202977 
L 136.013473 29.734238 
L 136.712232 28.328022 
L 137.398835 31.609193 
L 138.73641 26.921806 
L 140.027863 32.077932 
L 141.274846 30.202977 
L 141.882172 25.984329 
L 142.478989 28.328022 
L 143.065498 27.390545 
L 143.641896 30.202977 
L 144.208379 27.390545 
L 144.76514 26.453067 
L 145.312369 28.328022 
L 145.850257 25.51559 
L 146.378988 25.984329 
L 146.898746 29.2655 
L 147.409713 26.453067 
L 147.912066 30.202977 
L 148.405981 26.921806 
L 149.369186 26.921806 
L 149.838812 26.453067 
L 150.300676 28.328022 
L 150.754937 27.390545 
L 151.201754 28.328022 
L 151.641284 28.796761 
L 152.073678 27.390545 
L 152.499088 26.453067 
L 152.917661 28.328022 
L 153.32954 25.51559 
L 154.133784 26.453067 
L 154.526422 25.51559 
L 154.912918 27.390545 
L 155.2934 26.453067 
L 155.667998 25.984329 
L 156.036836 25.046851 
L 156.400037 27.390545 
L 156.757721 25.51559 
L 157.110005 26.453067 
L 157.457004 25.984329 
L 157.798832 29.2655 
L 158.135597 25.046851 
L 158.467407 27.390545 
L 159.116581 26.453067 
L 159.434148 27.390545 
L 160.055735 26.453067 
L 160.359944 26.453067 
L 160.659887 25.046851 
L 160.955653 26.921806 
L 161.24733 26.921806 
L 161.818756 25.046851 
L 162.098671 27.390545 
L 162.374827 26.921806 
L 162.647301 25.51559 
L 162.916171 25.51559 
L 163.18151 25.984329 
L 163.443391 24.578112 
L 163.701884 26.453067 
L 163.957059 26.453067 
L 164.208983 26.921806 
L 164.457722 26.453067 
L 164.70334 26.921806 
L 164.9459 25.046851 
L 165.185463 26.453067 
L 165.422088 25.984329 
L 165.655836 26.921806 
L 165.886761 25.984329 
L 166.11492 26.453067 
L 166.340367 25.984329 
L 166.563155 26.453067 
L 166.783335 25.046851 
L 167.000959 25.984329 
L 167.216075 24.578112 
L 167.638974 25.984329 
L 167.84685 25.51559 
L 168.052404 25.51559 
L 168.255679 25.046851 
L 168.456717 25.046851 
L 168.85225 27.859283 
L 169.046824 25.046851 
L 169.239322 25.046851 
L 169.429782 27.390545 
L 169.618239 25.51559 
L 169.804731 27.390545 
L 169.989291 24.578112 
L 170.171955 24.109374 
L 170.352755 25.984329 
L 170.531725 24.109374 
L 170.708895 25.51559 
L 170.884298 25.984329 
L 171.057962 25.984329 
L 171.400196 24.109374 
L 171.568822 25.046851 
L 171.735825 24.578112 
L 171.901231 25.984329 
L 172.065067 24.578112 
L 172.38813 25.51559 
L 172.547406 25.51559 
L 172.705211 27.390545 
L 172.861568 25.51559 
L 173.016501 25.046851 
L 173.17003 25.046851 
L 173.322178 25.984329 
L 173.472967 24.578112 
L 173.622417 24.578112 
L 173.770548 25.046851 
L 173.91738 23.640635 
L 174.062934 25.046851 
L 174.207226 25.046851 
L 174.350277 23.640635 
L 174.492104 26.921806 
L 174.772158 24.109374 
L 174.910419 25.046851 
L 175.047525 24.109374 
L 175.183492 26.453067 
L 175.452072 23.640635 
L 175.716283 25.046851 
L 175.846786 25.51559 
L 175.976241 23.640635 
L 176.104661 25.51559 
L 176.23206 25.51559 
L 176.358452 24.578112 
L 176.483848 24.578112 
L 176.731707 25.984329 
L 176.975737 24.578112 
L 177.096346 24.578112 
L 177.216034 25.51559 
L 177.33481 25.046851 
L 177.452687 25.046851 
L 177.569675 24.578112 
L 177.685785 23.640635 
L 177.801028 24.109374 
L 177.915413 25.046851 
L 178.02895 24.578112 
L 178.14165 25.51559 
L 178.253522 23.640635 
L 178.584262 26.453067 
L 178.800784 24.578112 
L 178.90788 24.578112 
L 179.01421 25.51559 
L 179.224607 23.640635 
L 179.32869 23.171896 
L 179.534662 26.453067 
L 179.737762 23.640635 
L 179.838253 23.640635 
L 180.037154 25.51559 
L 180.135578 24.109374 
L 180.233326 24.578112 
L 180.330405 24.109374 
L 180.426822 24.578112 
L 180.617695 25.984329 
L 180.712163 25.51559 
L 180.805995 23.640635 
L 180.899195 25.51559 
L 181.175071 24.578112 
L 181.265806 25.51559 
L 181.35594 23.640635 
L 181.622782 25.046851 
L 181.710562 24.578112 
L 181.797766 25.046851 
L 181.970468 24.109374 
L 182.055976 25.046851 
L 182.140929 24.578112 
L 182.225331 25.046851 
L 182.309188 23.640635 
L 182.392503 24.109374 
L 182.475282 24.109374 
L 182.557528 24.578112 
L 182.639247 23.171896 
L 182.720444 25.51559 
L 182.881284 24.578112 
L 182.960937 24.578112 
L 183.118729 25.984329 
L 183.274531 24.109374 
L 183.351695 25.046851 
L 183.428373 23.640635 
L 183.50457 24.578112 
L 183.580288 22.234419 
L 183.655532 24.578112 
L 183.730306 23.640635 
L 183.804613 24.578112 
L 183.878456 23.640635 
L 184.024769 25.51559 
L 184.097244 25.046851 
L 184.169271 24.109374 
L 184.311991 25.51559 
L 184.522789 23.640635 
L 184.66117 24.578112 
L 184.797862 23.640635 
L 184.999785 25.51559 
L 185.198044 23.171896 
L 185.32822 25.984329 
L 185.520548 23.171896 
L 185.583885 25.046851 
L 185.646841 24.109374 
L 185.709418 24.109374 
L 185.77162 25.046851 
L 185.833448 24.109374 
L 185.894905 24.578112 
L 185.955994 25.51559 
L 186.016718 22.703157 
L 186.07708 24.109374 
L 186.13708 23.171896 
L 186.314946 25.046851 
L 186.431767 24.578112 
L 186.489658 25.046851 
L 186.547205 24.109374 
L 186.604412 25.046851 
L 186.661281 24.109374 
L 186.717813 24.578112 
L 186.940627 23.640635 
L 186.995513 25.984329 
L 187.050076 24.109374 
L 187.104318 24.578112 
L 187.158243 23.640635 
L 187.211851 24.109374 
L 187.265145 25.046851 
L 187.318127 23.640635 
L 187.370799 25.51559 
L 187.423164 23.640635 
L 187.475223 24.578112 
L 187.526978 24.109374 
L 187.629585 23.171896 
L 187.680442 24.578112 
L 187.731002 24.109374 
L 187.930327 22.703157 
L 188.07681 23.640635 
L 188.125075 23.171896 
L 188.268204 25.046851 
L 188.315365 23.640635 
L 188.408874 24.109374 
L 188.455226 23.171896 
L 188.501312 25.046851 
L 188.547133 24.109374 
L 188.592692 24.109374 
L 188.683028 22.703157 
L 188.727809 24.109374 
L 188.772333 23.640635 
L 188.816604 23.171896 
L 188.991174 25.51559 
L 189.11951 23.171896 
L 189.28725 24.578112 
L 189.369701 23.640635 
L 189.410577 24.578112 
L 189.451222 23.640635 
L 189.571785 23.640635 
L 189.690321 24.578112 
L 189.729389 22.703157 
L 189.768237 25.51559 
L 189.806868 23.640635 
L 189.845281 23.640635 
L 189.921462 24.578112 
L 189.959233 24.109374 
L 190.034142 23.171896 
L 190.071282 24.578112 
L 190.144942 24.109374 
L 190.253898 23.171896 
L 190.289812 24.578112 
L 190.361043 24.109374 
L 190.396361 24.109374 
L 190.431484 22.234419 
L 190.501145 23.171896 
L 190.638165 24.109374 
L 190.738954 24.109374 
L 190.838084 22.703157 
L 190.870763 25.046851 
L 190.935584 24.109374 
L 190.999693 22.234419 
L 191.031484 25.046851 
L 191.125815 23.640635 
L 191.187844 23.171896 
L 191.249195 24.578112 
L 191.369901 23.171896 
L 191.458714 23.640635 
L 191.517121 22.703157 
L 191.632041 25.046851 
L 191.660383 23.171896 
L 191.74449 23.640635 
L 191.827241 22.703157 
L 191.854527 23.640635 
L 191.881666 24.109374 
L 191.908658 23.171896 
L 191.935505 23.171896 
L 191.962208 23.171896 
L 192.041457 23.640635 
L 192.067589 22.703157 
L 192.093582 24.578112 
L 192.145149 23.640635 
L 192.170726 23.171896 
L 192.196165 24.109374 
L 192.221468 24.109374 
L 192.246636 24.109374 
L 192.27167 22.703157 
L 192.34597 24.109374 
L 192.370473 24.578112 
L 192.394845 23.640635 
L 192.419088 23.640635 
L 192.443201 23.640635 
L 192.561857 24.109374 
L 192.677397 22.234419 
L 192.631549 24.578112 
L 192.700139 23.171896 
L 192.767646 22.703157 
L 192.812059 24.109374 
L 192.856004 23.171896 
L 192.877803 23.640635 
L 192.921057 25.51559 
L 192.985089 23.640635 
L 193.027218 24.578112 
L 193.048117 22.703157 
L 193.089586 24.109374 
L 193.150979 25.046851 
L 193.211414 23.171896 
L 193.231349 23.171896 
L 193.270907 22.703157 
L 193.329474 24.109374 
L 193.462618 22.703157 
L 193.591 24.109374 
L 193.608963 22.234419 
L 193.64461 24.578112 
L 193.697394 24.109374 
L 193.749366 22.703157 
L 193.800539 23.640635 
L 193.850927 25.046851 
L 193.834217 22.703157 
L 193.867551 22.703157 
L 193.884089 22.234419 
L 193.916912 24.109374 
L 193.933197 23.640635 
L 193.949399 23.640635 
L 193.981555 22.234419 
L 194.060515 24.578112 
L 194.076066 21.76568 
L 194.167722 23.640635 
L 194.212507 22.234419 
L 194.197655 24.578112 
L 194.271167 24.109374 
L 194.384966 22.703157 
L 194.480823 24.578112 
L 194.494241 23.171896 
L 194.507592 22.703157 
L 194.547243 24.578112 
L 194.599186 23.171896 
L 194.675163 24.109374 
L 194.7123 23.640635 
L 194.736748 24.109374 
L 194.832127 22.703157 
L 194.912506 24.109374 
L 194.957191 23.640635 
L 195.043929 22.234419 
L 195.065079 23.640635 
L 195.157694 22.234419 
L 195.167731 23.171896 
L 195.236617 24.109374 
L 195.187658 22.703157 
L 195.274922 23.640635 
L 195.312476 21.76568 
L 195.385394 22.703157 
L 195.472589 22.234419 
L 195.506282 24.109374 
L 195.61913 22.703157 
L 195.709878 24.109374 
L 195.657591 21.76568 
L 195.724491 23.171896 
L 195.746145 22.234419 
L 195.781536 24.109374 
L 195.82288 23.171896 
L 195.902024 22.234419 
L 195.914771 24.109374 
L 195.952274 22.234419 
L 196.006514 25.046851 
L 196.029869 22.703157 
L 196.058432 24.109374 
L 196.102713 22.234419 
L 196.140073 22.703157 
L 196.145307 22.703157 
L 196.150516 22.234419 
L 196.1557 23.640635 
L 196.244834 23.640635 
L 196.254267 23.640635 
L 196.352208 21.76568 
L 196.286569 24.109374 
L 196.364773 23.171896 
L 196.417163 24.578112 
L 196.428792 22.234419 
L 196.466358 23.171896 
L 196.526193 22.234419 
L 196.473656 23.640635 
L 196.575051 22.703157 
L 196.681431 24.109374 
L 196.590564 21.296941 
L 196.68405 23.640635 
L 196.763719 24.109374 
L 196.795923 21.296941 
L 196.797987 22.703157 
L 196.797987 22.703157 
" clip-path="url(#p9a8390e3bb)" style="fill: none; stroke: #1f77b4; stroke-width: 0.7; stroke-linecap: square"/>
   </g>
   <g id="line2d_12">
    <path d="M 37.835863 22.703157 
L 197.214931 22.703157 
" clip-path="url(#p9a8390e3bb)" style="fill: none; stroke-dasharray: 2.59,1.12; stroke-dashoffset: 0; stroke: #000000; stroke-width: 0.7"/>
   </g>
   <g id="patch_3">
    <path d="M 34.648281 95.592396 
L 34.648281 17.759062 
" style="fill: none; stroke: #000000; stroke-width: 0.5; stroke-linejoin: miter; stroke-linecap: square"/>
   </g>
   <g id="patch_4">
    <path d="M 34.648281 95.592396 
L 200.402512 95.592396 
" style="fill: none; stroke: #000000; stroke-width: 0.5; stroke-linejoin: miter; stroke-linecap: square"/>
   </g>
   <g id="text_7">
    <!-- $I(X;R)$ difference -->
    <g transform="translate(92.415397 11.759062) scale(0.06 -0.06)">
     <defs>
      <path id="DejaVuSans-69" d="M 603 3500 
L 1178 3500 
L 1178 0 
L 603 0 
L 603 3500 
z
M 603 4863 
L 1178 4863 
L 1178 4134 
L 603 4134 
L 603 4863 
z
" transform="scale(0.015625)"/>
      <path id="DejaVuSans-72" d="M 2631 2963 
Q 2534 3019 2420 3045 
Q 2306 3072 2169 3072 
Q 1681 3072 1420 2755 
Q 1159 2438 1159 1844 
L 1159 0 
L 581 0 
L 581 3500 
L 1159 3500 
L 1159 2956 
Q 1341 3275 1631 3429 
Q 1922 3584 2338 3584 
Q 2397 3584 2469 3576 
Q 2541 3569 2628 3553 
L 2631 2963 
z
" transform="scale(0.015625)"/>
      <path id="DejaVuSans-63" d="M 3122 3366 
L 3122 2828 
Q 2878 2963 2633 3030 
Q 2388 3097 2138 3097 
Q 1578 3097 1268 2742 
Q 959 2388 959 1747 
Q 959 1106 1268 751 
Q 1578 397 2138 397 
Q 2388 397 2633 464 
Q 2878 531 3122 666 
L 3122 134 
Q 2881 22 2623 -34 
Q 2366 -91 2075 -91 
Q 1284 -91 818 406 
Q 353 903 353 1747 
Q 353 2603 823 3093 
Q 1294 3584 2113 3584 
Q 2378 3584 2631 3529 
Q 2884 3475 3122 3366 
z
" transform="scale(0.015625)"/>
     </defs>
     <use xlink:href="#DejaVuSans-Oblique-49" transform="translate(0 0.015625)"/>
     <use xlink:href="#DejaVuSans-28" transform="translate(29.492188 0.015625)"/>
     <use xlink:href="#DejaVuSans-Oblique-58" transform="translate(68.505859 0.015625)"/>
     <use xlink:href="#DejaVuSans-3b" transform="translate(137.011719 0.015625)"/>
     <use xlink:href="#DejaVuSans-Oblique-52" transform="translate(190.185547 0.015625)"/>
     <use xlink:href="#DejaVuSans-29" transform="translate(259.667969 0.015625)"/>
     <use xlink:href="#DejaVuSans-20" transform="translate(298.681641 0.015625)"/>
     <use xlink:href="#DejaVuSans-64" transform="translate(330.46875 0.015625)"/>
     <use xlink:href="#DejaVuSans-69" transform="translate(393.945312 0.015625)"/>
     <use xlink:href="#DejaVuSans-66" transform="translate(421.728516 0.015625)"/>
     <use xlink:href="#DejaVuSans-66" transform="translate(456.933594 0.015625)"/>
     <use xlink:href="#DejaVuSans-65" transform="translate(492.138672 0.015625)"/>
     <use xlink:href="#DejaVuSans-72" transform="translate(553.662109 0.015625)"/>
     <use xlink:href="#DejaVuSans-65" transform="translate(594.775391 0.015625)"/>
     <use xlink:href="#DejaVuSans-6e" transform="translate(656.298828 0.015625)"/>
     <use xlink:href="#DejaVuSans-63" transform="translate(719.677734 0.015625)"/>
     <use xlink:href="#DejaVuSans-65" transform="translate(774.658203 0.015625)"/>
    </g>
   </g>
  </g>
  <g id="axes_2">
   <g id="patch_5">
    <path d="M 34.648281 197.265729 
L 200.402512 197.265729 
L 200.402512 119.432396 
L 34.648281 119.432396 
z
" style="fill: #ffffff"/>
   </g>
   <g id="matplotlib.axis_3">
    <g id="xtick_7">
     <g id="line2d_13">
      <g>
       <use xlink:href="#ma2dfab1a8b" x="37.835863" y="197.265729" style="stroke: #000000; stroke-width: 0.5"/>
      </g>
     </g>
    </g>
    <g id="xtick_8">
     <g id="line2d_14">
      <g>
       <use xlink:href="#ma2dfab1a8b" x="69.711676" y="197.265729" style="stroke: #000000; stroke-width: 0.5"/>
      </g>
     </g>
    </g>
    <g id="xtick_9">
     <g id="line2d_15">
      <g>
       <use xlink:href="#ma2dfab1a8b" x="101.58749" y="197.265729" style="stroke: #000000; stroke-width: 0.5"/>
      </g>
     </g>
    </g>
    <g id="xtick_10">
     <g id="line2d_16">
      <g>
       <use xlink:href="#ma2dfab1a8b" x="133.463303" y="197.265729" style="stroke: #000000; stroke-width: 0.5"/>
      </g>
     </g>
    </g>
    <g id="xtick_11">
     <g id="line2d_17">
      <g>
       <use xlink:href="#ma2dfab1a8b" x="165.339117" y="197.265729" style="stroke: #000000; stroke-width: 0.5"/>
      </g>
     </g>
    </g>
    <g id="xtick_12">
     <g id="line2d_18">
      <g>
       <use xlink:href="#ma2dfab1a8b" x="197.214931" y="197.265729" style="stroke: #000000; stroke-width: 0.5"/>
      </g>
     </g>
    </g>
   </g>
   <g id="matplotlib.axis_4">
    <g id="ytick_5">
     <g id="line2d_19">
      <g>
       <use xlink:href="#mcaa12597b2" x="34.648281" y="180.854985" style="stroke: #000000; stroke-width: 0.5"/>
      </g>
     </g>
     <g id="text_8">
      <!-- −6 -->
      <g transform="translate(21.777188 182.754594) scale(0.05 -0.05)">
       <defs>
        <path id="DejaVuSans-36" d="M 2113 2584 
Q 1688 2584 1439 2293 
Q 1191 2003 1191 1497 
Q 1191 994 1439 701 
Q 1688 409 2113 409 
Q 2538 409 2786 701 
Q 3034 994 3034 1497 
Q 3034 2003 2786 2293 
Q 2538 2584 2113 2584 
z
M 3366 4563 
L 3366 3988 
Q 3128 4100 2886 4159 
Q 2644 4219 2406 4219 
Q 1781 4219 1451 3797 
Q 1122 3375 1075 2522 
Q 1259 2794 1537 2939 
Q 1816 3084 2150 3084 
Q 2853 3084 3261 2657 
Q 3669 2231 3669 1497 
Q 3669 778 3244 343 
Q 2819 -91 2113 -91 
Q 1303 -91 875 529 
Q 447 1150 447 2328 
Q 447 3434 972 4092 
Q 1497 4750 2381 4750 
Q 2619 4750 2861 4703 
Q 3103 4656 3366 4563 
z
" transform="scale(0.015625)"/>
       </defs>
       <use xlink:href="#DejaVuSans-2212"/>
       <use xlink:href="#DejaVuSans-36" x="83.789062"/>
      </g>
     </g>
    </g>
    <g id="ytick_6">
     <g id="line2d_20">
      <g>
       <use xlink:href="#mcaa12597b2" x="34.648281" y="163.04321" style="stroke: #000000; stroke-width: 0.5"/>
      </g>
     </g>
     <g id="text_9">
      <!-- −4 -->
      <g transform="translate(21.777188 164.942819) scale(0.05 -0.05)">
       <use xlink:href="#DejaVuSans-2212"/>
       <use xlink:href="#DejaVuSans-34" x="83.789062"/>
      </g>
     </g>
    </g>
    <g id="ytick_7">
     <g id="line2d_21">
      <g>
       <use xlink:href="#mcaa12597b2" x="34.648281" y="145.231435" style="stroke: #000000; stroke-width: 0.5"/>
      </g>
     </g>
     <g id="text_10">
      <!-- −2 -->
      <g transform="translate(21.777188 147.131044) scale(0.05 -0.05)">
       <defs>
        <path id="DejaVuSans-32" d="M 1228 531 
L 3431 531 
L 3431 0 
L 469 0 
L 469 531 
Q 828 903 1448 1529 
Q 2069 2156 2228 2338 
Q 2531 2678 2651 2914 
Q 2772 3150 2772 3378 
Q 2772 3750 2511 3984 
Q 2250 4219 1831 4219 
Q 1534 4219 1204 4116 
Q 875 4013 500 3803 
L 500 4441 
Q 881 4594 1212 4672 
Q 1544 4750 1819 4750 
Q 2544 4750 2975 4387 
Q 3406 4025 3406 3419 
Q 3406 3131 3298 2873 
Q 3191 2616 2906 2266 
Q 2828 2175 2409 1742 
Q 1991 1309 1228 531 
z
" transform="scale(0.015625)"/>
       </defs>
       <use xlink:href="#DejaVuSans-2212"/>
       <use xlink:href="#DejaVuSans-32" x="83.789062"/>
      </g>
     </g>
    </g>
    <g id="ytick_8">
     <g id="line2d_22">
      <g>
       <use xlink:href="#mcaa12597b2" x="34.648281" y="127.419659" style="stroke: #000000; stroke-width: 0.5"/>
      </g>
     </g>
     <g id="text_11">
      <!-- 0 -->
      <g transform="translate(25.967031 129.319269) scale(0.05 -0.05)">
       <use xlink:href="#DejaVuSans-30"/>
      </g>
     </g>
    </g>
    <g id="text_12">
     <!-- $\Delta I(R;Y)$ (softmax-IB bound) -->
     <g transform="translate(16.529375 199.029062) rotate(-90) scale(0.06 -0.06)">
      <defs>
       <path id="DejaVuSans-Oblique-59" d="M 403 4666 
L 1081 4666 
L 1953 2747 
L 3616 4666 
L 4325 4666 
L 2209 2222 
L 1778 0 
L 1147 0 
L 1575 2222 
L 403 4666 
z
" transform="scale(0.015625)"/>
      </defs>
      <use xlink:href="#DejaVuSans-394" transform="translate(0 0.015625)"/>
      <use xlink:href="#DejaVuSans-Oblique-49" transform="translate(68.408203 0.015625)"/>
      <use xlink:href="#DejaVuSans-28" transform="translate(97.900391 0.015625)"/>
      <use xlink:href="#DejaVuSans-Oblique-52" transform="translate(136.914062 0.015625)"/>
      <use xlink:href="#DejaVuSans-3b" transform="translate(206.396484 0.015625)"/>
      <use xlink:href="#DejaVuSans-Oblique-59" transform="translate(259.570312 0.015625)"/>
      <use xlink:href="#DejaVuSans-29" transform="translate(320.654297 0.015625)"/>
      <use xlink:href="#DejaVuSans-20" transform="translate(359.667969 0.015625)"/>
      <use xlink:href="#DejaVuSans-28" transform="translate(391.455078 0.015625)"/>
      <use xlink:href="#DejaVuSans-73" transform="translate(430.46875 0.015625)"/>
      <use xlink:href="#DejaVuSans-6f" transform="translate(482.568359 0.015625)"/>
      <use xlink:href="#DejaVuSans-66" transform="translate(543.75 0.015625)"/>
      <use xlink:href="#DejaVuSans-74" transform="translate(578.955078 0.015625)"/>
      <use xlink:href="#DejaVuSans-6d" transform="translate(618.164062 0.015625)"/>
      <use xlink:href="#DejaVuSans-61" transform="translate(715.576172 0.015625)"/>
      <use xlink:href="#DejaVuSans-78" transform="translate(776.855469 0.015625)"/>
      <use xlink:href="#DejaVuSans-2d" transform="translate(836.035156 0.015625)"/>
      <use xlink:href="#DejaVuSans-49" transform="translate(872.119141 0.015625)"/>
      <use xlink:href="#DejaVuSans-42" transform="translate(901.611328 0.015625)"/>
      <use xlink:href="#DejaVuSans-20" transform="translate(970.214844 0.015625)"/>
      <use xlink:href="#DejaVuSans-62" transform="translate(1002.001953 0.015625)"/>
      <use xlink:href="#DejaVuSans-6f" transform="translate(1065.478516 0.015625)"/>
      <use xlink:href="#DejaVuSans-75" transform="translate(1126.660156 0.015625)"/>
      <use xlink:href="#DejaVuSans-6e" transform="translate(1190.039062 0.015625)"/>
      <use xlink:href="#DejaVuSans-64" transform="translate(1253.417969 0.015625)"/>
      <use xlink:href="#DejaVuSans-29" transform="translate(1316.894531 0.015625)"/>
     </g>
    </g>
    <g id="text_13">
     <!-- 1e−15 -->
     <g transform="translate(34.648281 116.432396) scale(0.05 -0.05)">
      <use xlink:href="#DejaVuSans-31"/>
      <use xlink:href="#DejaVuSans-65" x="63.623047"/>
      <use xlink:href="#DejaVuSans-2212" x="125.146484"/>
      <use xlink:href="#DejaVuSans-31" x="208.935547"/>
      <use xlink:href="#DejaVuSans-35" x="272.558594"/>
     </g>
    </g>
   </g>
   <g id="line2d_23">
    <path d="M 37.867252 132.340246 
L 37.961341 153.598417 
L 38.117897 160.342016 
L 38.336533 163.37007 
L 38.616711 162.33497 
L 38.957744 150.068263 
L 39.358801 175.405037 
L 39.818912 193.72785 
L 40.336976 172.0371 
L 40.911762 181.492043 
L 41.541921 181.677434 
L 42.225993 181.244854 
L 43.749521 158.503555 
L 44.585571 156.773239 
L 45.468741 157.885585 
L 46.397138 158.750743 
L 47.368814 180.194305 
L 48.38177 166.228181 
L 49.433967 162.149579 
L 50.523335 160.542856 
L 51.647782 154.486749 
L 52.805204 160.04848 
L 53.993488 152.756433 
L 55.210528 142.374536 
L 56.454225 157.205818 
L 57.722498 146.20595 
L 59.013289 147.318296 
L 60.324571 150.531741 
L 61.654351 146.20595 
L 63.000676 160.04848 
L 64.36164 150.902523 
L 65.735383 130.385916 
L 67.1201 141.138595 
L 68.514039 154.115967 
L 69.915509 158.19457 
L 71.322877 157.947382 
L 72.734573 151.644087 
L 74.149092 140.026249 
L 75.564991 144.97001 
L 76.980893 131.74545 
L 78.395486 138.419527 
L 79.807525 130.015134 
L 81.215828 153.250809 
L 82.619279 143.610476 
L 84.016823 134.8353 
L 85.407472 144.35204 
L 86.790295 135.947647 
L 88.164424 140.767813 
L 89.529049 141.015001 
L 92.226833 127.914035 
L 93.558649 138.790309 
L 94.878277 142.49813 
L 96.185172 136.071241 
L 97.478843 137.307181 
L 98.75884 142.250942 
L 100.024761 135.576865 
L 101.276245 136.071241 
L 102.51297 139.779061 
L 103.734654 136.318429 
L 104.941051 136.071241 
L 106.131951 130.880292 
L 107.307173 134.093736 
L 108.466571 130.880292 
L 109.610027 138.790309 
L 110.737449 133.59936 
L 111.848774 143.73407 
L 112.94396 134.093736 
L 114.02299 139.779061 
L 115.085867 128.655599 
L 116.132616 132.36342 
L 117.163278 139.531873 
L 118.177912 134.588112 
L 119.176594 132.857796 
L 120.159414 137.801557 
L 121.126476 138.048745 
L 122.077895 136.071241 
L 123.013799 132.116232 
L 123.934327 133.59936 
L 125.729852 127.419659 
L 126.605169 139.779061 
L 127.46575 130.385916 
L 128.31177 129.644352 
L 129.143415 136.071241 
L 129.96087 135.329677 
L 130.76433 133.352172 
L 131.55399 133.104984 
L 132.330049 135.576865 
L 133.09271 126.678095 
L 133.842176 129.644352 
L 134.578654 135.082488 
L 135.30235 130.633104 
L 136.013473 131.621856 
L 136.712232 130.633104 
L 137.398835 135.824053 
L 138.073492 133.352172 
L 138.73641 128.161223 
L 139.387798 133.104984 
L 140.027863 137.059993 
L 140.656811 133.846548 
L 141.274846 132.116232 
L 141.882172 125.442155 
L 142.478989 128.902788 
L 143.065498 128.161223 
L 143.641896 137.307181 
L 144.208379 129.644352 
L 144.76514 131.374668 
L 145.850257 125.936531 
L 146.378988 128.408411 
L 146.898746 131.374668 
L 147.409713 130.633104 
L 147.912066 132.610608 
L 148.405981 127.419659 
L 148.891631 131.869044 
L 149.369186 126.430907 
L 149.838812 128.161223 
L 150.300676 128.902788 
L 150.754937 129.149976 
L 151.201754 128.161223 
L 151.641284 132.116232 
L 152.073678 126.430907 
L 152.917661 134.8353 
L 153.32954 126.678095 
L 153.734868 125.442155 
L 154.133784 128.902788 
L 154.526422 128.902788 
L 154.912918 130.880292 
L 155.2934 127.666847 
L 155.667998 126.430907 
L 156.036836 126.430907 
L 156.400037 131.869044 
L 156.757721 125.194967 
L 157.110005 129.397164 
L 157.457004 126.925283 
L 157.798832 133.104984 
L 158.135597 126.925283 
L 158.467407 130.385916 
L 158.794367 129.644352 
L 159.434148 131.374668 
L 159.747167 129.89154 
L 160.055735 130.385916 
L 160.359944 132.36342 
L 160.659887 130.385916 
L 160.955653 130.385916 
L 161.24733 127.914035 
L 161.535003 127.914035 
L 161.818756 126.430907 
L 162.098671 130.385916 
L 162.374827 130.385916 
L 162.647301 125.936531 
L 162.916171 130.385916 
L 163.18151 125.442155 
L 163.443391 128.408411 
L 163.957059 131.869044 
L 164.208983 128.902788 
L 164.457722 129.89154 
L 164.70334 128.408411 
L 165.185463 130.385916 
L 165.422088 127.419659 
L 165.655836 130.385916 
L 165.886761 130.880292 
L 166.11492 132.857796 
L 166.340367 128.902788 
L 166.563155 129.89154 
L 166.783335 128.408411 
L 167.000959 130.385916 
L 167.216075 126.925283 
L 167.428731 126.430907 
L 167.84685 129.89154 
L 168.052404 129.89154 
L 168.255679 125.442155 
L 168.456717 128.408411 
L 168.655561 126.430907 
L 168.85225 131.869044 
L 169.046824 129.397164 
L 169.239322 130.385916 
L 169.429782 133.352172 
L 169.618239 126.430907 
L 169.804731 128.408411 
L 169.989291 127.419659 
L 170.171955 124.453403 
L 170.352755 130.385916 
L 170.531725 127.419659 
L 170.708895 127.419659 
L 170.884298 131.374668 
L 171.400196 125.442155 
L 171.568822 130.385916 
L 171.735825 125.442155 
L 171.901231 128.902788 
L 172.065067 126.925283 
L 172.227358 130.385916 
L 172.38813 128.408411 
L 172.547406 128.408411 
L 172.705211 133.352172 
L 173.016501 127.419659 
L 173.322178 129.397164 
L 173.622417 125.936531 
L 173.770548 128.408411 
L 173.91738 123.959027 
L 174.062934 127.914035 
L 174.207226 127.914035 
L 174.350277 125.936531 
L 174.492104 129.397164 
L 174.632725 126.430907 
L 174.910419 128.902788 
L 175.047525 127.914035 
L 175.183492 132.36342 
L 175.318336 124.453403 
L 175.452072 127.419659 
L 175.584716 126.925283 
L 175.716283 127.419659 
L 175.846786 131.374668 
L 175.976241 127.419659 
L 176.104661 128.408411 
L 176.23206 130.385916 
L 176.358452 127.419659 
L 176.483848 128.408411 
L 176.608262 126.925283 
L 176.731707 131.374668 
L 176.854195 130.880292 
L 176.975737 126.430907 
L 177.096346 126.925283 
L 177.216034 129.397164 
L 177.33481 125.442155 
L 177.569675 130.880292 
L 177.801028 125.936531 
L 177.915413 129.397164 
L 178.02895 128.902788 
L 178.14165 130.385916 
L 178.364575 124.453403 
L 178.474819 130.385916 
L 178.800784 126.430907 
L 179.119783 128.902788 
L 179.32869 124.453403 
L 179.534662 130.385916 
L 179.838253 126.430907 
L 180.037154 131.374668 
L 180.330405 124.453403 
L 180.522583 129.89154 
L 180.617695 127.419659 
L 180.805995 128.408411 
L 180.991771 126.430907 
L 181.083728 128.902788 
L 181.175071 127.914035 
L 181.265806 129.397164 
L 181.445477 125.442155 
L 181.534422 126.430907 
L 181.622782 125.936531 
L 181.710562 129.397164 
L 181.884399 124.947779 
L 181.970468 130.385916 
L 182.140929 124.453403 
L 182.225331 129.89154 
L 182.309188 127.419659 
L 182.392503 127.914035 
L 182.557528 129.89154 
L 182.639247 124.453403 
L 182.720444 127.914035 
L 182.801121 125.442155 
L 182.881284 127.914035 
L 182.960937 125.936531 
L 183.118729 130.880292 
L 183.274531 125.936531 
L 183.351695 130.880292 
L 183.428373 124.453403 
L 183.50457 128.902788 
L 183.580288 122.970275 
L 183.655532 130.385916 
L 183.730306 127.419659 
L 183.804613 127.419659 
L 183.878456 123.464651 
L 183.95184 127.914035 
L 184.024769 126.925283 
L 184.097244 127.419659 
L 184.169271 124.453403 
L 184.311991 129.397164 
L 184.592192 126.925283 
L 184.66117 128.408411 
L 184.865582 125.442155 
L 185.066275 128.408411 
L 185.13236 126.925283 
L 185.198044 127.419659 
L 185.392718 131.374668 
L 185.520548 125.442155 
L 185.646841 128.408411 
L 185.709418 127.419659 
L 185.894905 128.902788 
L 185.955994 128.408411 
L 186.13708 124.453403 
L 186.314946 129.89154 
L 186.37353 125.442155 
L 186.431767 127.419659 
L 186.489658 129.89154 
L 186.604412 126.925283 
L 186.661281 127.419659 
L 186.717813 129.89154 
L 186.774012 125.442155 
L 186.829879 127.419659 
L 186.885416 127.419659 
L 186.940627 125.442155 
L 186.995513 129.397164 
L 187.050076 125.442155 
L 187.265145 130.385916 
L 187.318127 127.914035 
L 187.370799 130.880292 
L 187.423164 123.464651 
L 187.475223 130.385916 
L 187.629585 125.442155 
L 187.781269 128.408411 
L 187.930327 123.959027 
L 188.07681 127.914035 
L 188.125075 125.442155 
L 188.173061 128.408411 
L 188.22077 127.419659 
L 188.268204 129.397164 
L 188.315365 124.947779 
L 188.362254 127.914035 
L 188.408874 129.397164 
L 188.455226 125.442155 
L 188.501312 129.397164 
L 188.592692 129.397164 
L 188.637989 129.89154 
L 188.683028 125.442155 
L 188.772333 126.430907 
L 188.816604 125.442155 
L 188.947905 127.914035 
L 189.076975 125.442155 
L 189.11951 129.89154 
L 189.161804 125.442155 
L 189.203857 123.959027 
L 189.28725 131.374668 
L 189.328593 126.430907 
L 189.410577 129.397164 
L 189.491637 126.430907 
L 189.531825 126.925283 
L 189.61152 126.430907 
L 189.690321 129.89154 
L 189.845281 125.936531 
L 189.959233 128.408411 
L 189.996793 124.453403 
L 190.071282 125.936531 
L 190.108215 128.902788 
L 190.144942 126.925283 
L 190.181464 124.947779 
L 190.217782 127.914035 
L 190.289812 128.902788 
L 190.431484 125.936531 
L 190.501145 125.442155 
L 190.535686 128.408411 
L 190.570035 126.430907 
L 190.604195 129.397164 
L 190.638165 127.419659 
L 190.671948 127.419659 
L 190.705544 123.959027 
L 190.77218 126.430907 
L 190.870763 127.914035 
L 190.838084 125.936531 
L 190.903263 127.419659 
L 190.999693 125.442155 
L 191.031484 129.397164 
L 191.125815 127.914035 
L 191.156914 127.914035 
L 191.187844 131.869044 
L 191.218604 125.442155 
L 191.249195 127.419659 
L 191.27962 128.408411 
L 191.309879 124.947779 
L 191.369901 128.902788 
L 191.458714 124.947779 
L 191.517121 127.419659 
L 191.546086 127.419659 
L 191.574894 126.430907 
L 191.603545 128.408411 
L 191.632041 129.397164 
L 191.660383 125.442155 
L 191.74449 127.914035 
L 191.827241 128.408411 
L 191.908658 126.430907 
L 191.988767 130.385916 
L 192.041457 127.419659 
L 192.119435 128.408411 
L 192.170726 126.430907 
L 192.221468 130.385916 
L 192.246636 124.947779 
L 192.321336 127.914035 
L 192.394845 129.397164 
L 192.419088 128.902788 
L 192.443201 126.430907 
L 192.514773 127.914035 
L 192.561857 127.419659 
L 192.608442 128.408411 
L 192.677397 125.442155 
L 192.722761 127.419659 
L 192.745263 127.914035 
L 192.767646 124.947779 
L 192.812059 128.408411 
L 192.856004 125.936531 
L 192.942513 130.385916 
L 192.985089 127.419659 
L 193.027218 127.419659 
L 193.048117 125.936531 
L 193.068906 126.925283 
L 193.089586 131.374668 
L 193.110158 125.442155 
L 193.17123 128.902788 
L 193.231349 125.936531 
L 193.290531 126.925283 
L 193.329474 128.902788 
L 193.348793 125.936531 
L 193.368012 127.419659 
L 193.40615 125.442155 
L 193.443893 126.925283 
L 193.499776 128.902788 
L 193.481245 123.959027 
L 193.53655 128.408411 
L 193.554795 124.947779 
L 193.626833 129.397164 
L 193.64461 129.397164 
L 193.697394 125.442155 
L 193.766512 127.419659 
L 193.834217 126.430907 
L 193.850927 130.385916 
L 193.867551 126.430907 
L 193.949399 129.397164 
L 193.965518 129.89154 
L 194.076066 125.442155 
L 194.091538 126.430907 
L 194.137482 125.936531 
L 194.197655 131.374668 
L 194.212507 125.442155 
L 194.314384 128.408411 
L 194.384966 124.947779 
L 194.342832 130.385916 
L 194.398869 125.442155 
L 194.412701 130.385916 
L 194.507592 129.89154 
L 194.637461 124.453403 
L 194.724555 130.385916 
L 194.748881 125.442155 
L 194.784916 129.89154 
L 194.855381 127.419659 
L 194.923761 125.442155 
L 194.889827 129.89154 
L 194.93496 126.430907 
L 194.957191 130.385916 
L 195.043929 127.419659 
L 195.096412 129.397164 
L 195.075575 125.936531 
L 195.137469 127.419659 
L 195.207387 124.947779 
L 195.197547 129.397164 
L 195.246265 125.936531 
L 195.274922 128.902788 
L 195.293791 123.464651 
L 195.358386 126.430907 
L 195.394308 129.89154 
L 195.412005 125.442155 
L 195.464061 128.408411 
L 195.531121 125.936531 
L 195.571715 127.914035 
L 195.579714 127.914035 
L 195.611324 124.453403 
L 195.61913 128.408411 
L 195.680219 127.419659 
L 195.709878 130.385916 
L 195.702518 125.442155 
L 195.795452 128.408411 
L 195.85642 125.442155 
L 195.829654 129.397164 
L 195.902024 126.925283 
L 196.006514 132.36342 
L 196.000604 125.442155 
L 196.012395 127.419659 
L 196.018248 127.419659 
L 196.04709 126.430907 
L 196.124217 130.385916 
L 196.196277 125.936531 
L 196.23531 127.419659 
L 196.240084 127.419659 
L 196.282021 129.397164 
L 196.277451 125.442155 
L 196.343729 126.925283 
L 196.347979 124.453403 
L 196.385314 128.408411 
L 196.451549 127.419659 
L 196.455278 127.419659 
L 196.470016 124.453403 
L 196.568739 128.902788 
L 196.590564 124.947779 
L 196.6788 128.902788 
L 196.681431 128.902788 
L 196.712035 124.947779 
L 196.785448 129.397164 
L 196.791763 126.925283 
L 196.793848 128.408411 
L 196.797987 127.419659 
" clip-path="url(#p8980d33ce3)" style="fill: none; stroke: #1f77b4; stroke-width: 0.7; stroke-linecap: square"/>
   </g>
   <g id="line2d_24">
    <path d="M 37.835863 127.419659 
L 197.214931 127.419659 
" clip-path="url(#p8980d33ce3)" style="fill: none; stroke-dasharray: 2.59,1.12; stroke-dashoffset: 0; stroke: #000000; stroke-width: 0.7"/>
   </g>
   <g id="patch_6">
    <path d="M 34.648281 197.265729 
L 34.648281 119.432396 
" style="fill: none; stroke: #000000; stroke-width: 0.5; stroke-linejoin: miter; stroke-linecap: square"/>
   </g>
   <g id="patch_7">
    <path d="M 34.648281 197.265729 
L 200.402512 197.265729 
" style="fill: none; stroke: #000000; stroke-width: 0.5; stroke-linejoin: miter; stroke-linecap: square"/>
   </g>
   <g id="text_14">
    <!-- $I(R;Y)$ difference -->
    <g transform="translate(92.655397 113.432396) scale(0.06 -0.06)">
     <use xlink:href="#DejaVuSans-Oblique-49" transform="translate(0 0.015625)"/>
     <use xlink:href="#DejaVuSans-28" transform="translate(29.492188 0.015625)"/>
     <use xlink:href="#DejaVuSans-Oblique-52" transform="translate(68.505859 0.015625)"/>
     <use xlink:href="#DejaVuSans-3b" transform="translate(137.988281 0.015625)"/>
     <use xlink:href="#DejaVuSans-Oblique-59" transform="translate(191.162109 0.015625)"/>
     <use xlink:href="#DejaVuSans-29" transform="translate(252.246094 0.015625)"/>
     <use xlink:href="#DejaVuSans-20" transform="translate(291.259766 0.015625)"/>
     <use xlink:href="#DejaVuSans-64" transform="translate(323.046875 0.015625)"/>
     <use xlink:href="#DejaVuSans-69" transform="translate(386.523438 0.015625)"/>
     <use xlink:href="#DejaVuSans-66" transform="translate(414.306641 0.015625)"/>
     <use xlink:href="#DejaVuSans-66" transform="translate(449.511719 0.015625)"/>
     <use xlink:href="#DejaVuSans-65" transform="translate(484.716797 0.015625)"/>
     <use xlink:href="#DejaVuSans-72" transform="translate(546.240234 0.015625)"/>
     <use xlink:href="#DejaVuSans-65" transform="translate(587.353516 0.015625)"/>
     <use xlink:href="#DejaVuSans-6e" transform="translate(648.876953 0.015625)"/>
     <use xlink:href="#DejaVuSans-63" transform="translate(712.255859 0.015625)"/>
     <use xlink:href="#DejaVuSans-65" transform="translate(767.236328 0.015625)"/>
    </g>
   </g>
  </g>
  <g id="axes_3">
   <g id="patch_8">
    <path d="M 34.648281 298.939062 
L 200.402512 298.939062 
L 200.402512 221.105729 
L 34.648281 221.105729 
z
" style="fill: #ffffff"/>
   </g>
   <g id="matplotlib.axis_5">
    <g id="xtick_13">
     <g id="line2d_25">
      <g>
       <use xlink:href="#ma2dfab1a8b" x="37.835863" y="298.939062" style="stroke: #000000; stroke-width: 0.5"/>
      </g>
     </g>
     <g id="text_15">
      <!-- 0.0 -->
      <g transform="translate(33.860081 308.238281) scale(0.05 -0.05)">
       <use xlink:href="#DejaVuSans-30"/>
       <use xlink:href="#DejaVuSans-2e" x="63.623047"/>
       <use xlink:href="#DejaVuSans-30" x="95.410156"/>
      </g>
     </g>
    </g>
    <g id="xtick_14">
     <g id="line2d_26">
      <g>
       <use xlink:href="#ma2dfab1a8b" x="69.711676" y="298.939062" style="stroke: #000000; stroke-width: 0.5"/>
      </g>
     </g>
     <g id="text_16">
      <!-- 0.2 -->
      <g transform="translate(65.735895 308.238281) scale(0.05 -0.05)">
       <use xlink:href="#DejaVuSans-30"/>
       <use xlink:href="#DejaVuSans-2e" x="63.623047"/>
       <use xlink:href="#DejaVuSans-32" x="95.410156"/>
      </g>
     </g>
    </g>
    <g id="xtick_15">
     <g id="line2d_27">
      <g>
       <use xlink:href="#ma2dfab1a8b" x="101.58749" y="298.939062" style="stroke: #000000; stroke-width: 0.5"/>
      </g>
     </g>
     <g id="text_17">
      <!-- 0.4 -->
      <g transform="translate(97.611709 308.238281) scale(0.05 -0.05)">
       <use xlink:href="#DejaVuSans-30"/>
       <use xlink:href="#DejaVuSans-2e" x="63.623047"/>
       <use xlink:href="#DejaVuSans-34" x="95.410156"/>
      </g>
     </g>
    </g>
    <g id="xtick_16">
     <g id="line2d_28">
      <g>
       <use xlink:href="#ma2dfab1a8b" x="133.463303" y="298.939062" style="stroke: #000000; stroke-width: 0.5"/>
      </g>
     </g>
     <g id="text_18">
      <!-- 0.6 -->
      <g transform="translate(129.487522 308.238281) scale(0.05 -0.05)">
       <use xlink:href="#DejaVuSans-30"/>
       <use xlink:href="#DejaVuSans-2e" x="63.623047"/>
       <use xlink:href="#DejaVuSans-36" x="95.410156"/>
      </g>
     </g>
    </g>
    <g id="xtick_17">
     <g id="line2d_29">
      <g>
       <use xlink:href="#ma2dfab1a8b" x="165.339117" y="298.939062" style="stroke: #000000; stroke-width: 0.5"/>
      </g>
     </g>
     <g id="text_19">
      <!-- 0.8 -->
      <g transform="translate(161.363336 308.238281) scale(0.05 -0.05)">
       <defs>
        <path id="DejaVuSans-38" d="M 2034 2216 
Q 1584 2216 1326 1975 
Q 1069 1734 1069 1313 
Q 1069 891 1326 650 
Q 1584 409 2034 409 
Q 2484 409 2743 651 
Q 3003 894 3003 1313 
Q 3003 1734 2745 1975 
Q 2488 2216 2034 2216 
z
M 1403 2484 
Q 997 2584 770 2862 
Q 544 3141 544 3541 
Q 544 4100 942 4425 
Q 1341 4750 2034 4750 
Q 2731 4750 3128 4425 
Q 3525 4100 3525 3541 
Q 3525 3141 3298 2862 
Q 3072 2584 2669 2484 
Q 3125 2378 3379 2068 
Q 3634 1759 3634 1313 
Q 3634 634 3220 271 
Q 2806 -91 2034 -91 
Q 1263 -91 848 271 
Q 434 634 434 1313 
Q 434 1759 690 2068 
Q 947 2378 1403 2484 
z
M 1172 3481 
Q 1172 3119 1398 2916 
Q 1625 2713 2034 2713 
Q 2441 2713 2670 2916 
Q 2900 3119 2900 3481 
Q 2900 3844 2670 4047 
Q 2441 4250 2034 4250 
Q 1625 4250 1398 4047 
Q 1172 3844 1172 3481 
z
" transform="scale(0.015625)"/>
       </defs>
       <use xlink:href="#DejaVuSans-30"/>
       <use xlink:href="#DejaVuSans-2e" x="63.623047"/>
       <use xlink:href="#DejaVuSans-38" x="95.410156"/>
      </g>
     </g>
    </g>
    <g id="xtick_18">
     <g id="line2d_30">
      <g>
       <use xlink:href="#ma2dfab1a8b" x="197.214931" y="298.939062" style="stroke: #000000; stroke-width: 0.5"/>
      </g>
     </g>
     <g id="text_20">
      <!-- 1.0 -->
      <g transform="translate(193.239149 308.238281) scale(0.05 -0.05)">
       <use xlink:href="#DejaVuSans-31"/>
       <use xlink:href="#DejaVuSans-2e" x="63.623047"/>
       <use xlink:href="#DejaVuSans-30" x="95.410156"/>
      </g>
     </g>
    </g>
   </g>
   <g id="matplotlib.axis_6">
    <g id="ytick_9">
     <g id="line2d_31">
      <g>
       <use xlink:href="#mcaa12597b2" x="34.648281" y="295.401184" style="stroke: #000000; stroke-width: 0.5"/>
      </g>
     </g>
     <g id="text_21">
      <!-- 0.0 -->
      <g transform="translate(21.196719 297.300793) scale(0.05 -0.05)">
       <use xlink:href="#DejaVuSans-30"/>
       <use xlink:href="#DejaVuSans-2e" x="63.623047"/>
       <use xlink:href="#DejaVuSans-30" x="95.410156"/>
      </g>
     </g>
    </g>
    <g id="ytick_10">
     <g id="line2d_32">
      <g>
       <use xlink:href="#mcaa12597b2" x="34.648281" y="282.861536" style="stroke: #000000; stroke-width: 0.5"/>
      </g>
     </g>
     <g id="text_22">
      <!-- 0.2 -->
      <g transform="translate(21.196719 284.761146) scale(0.05 -0.05)">
       <use xlink:href="#DejaVuSans-30"/>
       <use xlink:href="#DejaVuSans-2e" x="63.623047"/>
       <use xlink:href="#DejaVuSans-32" x="95.410156"/>
      </g>
     </g>
    </g>
    <g id="ytick_11">
     <g id="line2d_33">
      <g>
       <use xlink:href="#mcaa12597b2" x="34.648281" y="270.321889" style="stroke: #000000; stroke-width: 0.5"/>
      </g>
     </g>
     <g id="text_23">
      <!-- 0.4 -->
      <g transform="translate(21.196719 272.221498) scale(0.05 -0.05)">
       <use xlink:href="#DejaVuSans-30"/>
       <use xlink:href="#DejaVuSans-2e" x="63.623047"/>
       <use xlink:href="#DejaVuSans-34" x="95.410156"/>
      </g>
     </g>
    </g>
    <g id="ytick_12">
     <g id="line2d_34">
      <g>
       <use xlink:href="#mcaa12597b2" x="34.648281" y="257.782241" style="stroke: #000000; stroke-width: 0.5"/>
      </g>
     </g>
     <g id="text_24">
      <!-- 0.6 -->
      <g transform="translate(21.196719 259.681851) scale(0.05 -0.05)">
       <use xlink:href="#DejaVuSans-30"/>
       <use xlink:href="#DejaVuSans-2e" x="63.623047"/>
       <use xlink:href="#DejaVuSans-36" x="95.410156"/>
      </g>
     </g>
    </g>
    <g id="ytick_13">
     <g id="line2d_35">
      <g>
       <use xlink:href="#mcaa12597b2" x="34.648281" y="245.242594" style="stroke: #000000; stroke-width: 0.5"/>
      </g>
     </g>
     <g id="text_25">
      <!-- 0.8 -->
      <g transform="translate(21.196719 247.142203) scale(0.05 -0.05)">
       <use xlink:href="#DejaVuSans-30"/>
       <use xlink:href="#DejaVuSans-2e" x="63.623047"/>
       <use xlink:href="#DejaVuSans-38" x="95.410156"/>
      </g>
     </g>
    </g>
    <g id="ytick_14">
     <g id="line2d_36">
      <g>
       <use xlink:href="#mcaa12597b2" x="34.648281" y="232.702946" style="stroke: #000000; stroke-width: 0.5"/>
      </g>
     </g>
     <g id="text_26">
      <!-- 1.0 -->
      <g transform="translate(21.196719 234.602556) scale(0.05 -0.05)">
       <use xlink:href="#DejaVuSans-31"/>
       <use xlink:href="#DejaVuSans-2e" x="63.623047"/>
       <use xlink:href="#DejaVuSans-30" x="95.410156"/>
      </g>
     </g>
    </g>
    <g id="text_27">
     <!-- max $\Delta p(r|x)$ (softmax-IB bound) -->
     <g transform="translate(15.756719 307.722396) rotate(-90) scale(0.06 -0.06)">
      <defs>
       <path id="DejaVuSans-Oblique-70" d="M 3175 2156 
Q 3175 2616 2975 2859 
Q 2775 3103 2400 3103 
Q 2144 3103 1911 2972 
Q 1678 2841 1497 2591 
Q 1319 2344 1212 1994 
Q 1106 1644 1106 1300 
Q 1106 863 1306 627 
Q 1506 391 1875 391 
Q 2147 391 2380 519 
Q 2613 647 2778 891 
Q 2956 1147 3065 1494 
Q 3175 1841 3175 2156 
z
M 1394 2969 
Q 1625 3272 1939 3428 
Q 2253 3584 2638 3584 
Q 3175 3584 3472 3232 
Q 3769 2881 3769 2247 
Q 3769 1728 3584 1258 
Q 3400 788 3053 416 
Q 2822 169 2531 39 
Q 2241 -91 1919 -91 
Q 1547 -91 1294 64 
Q 1041 219 916 525 
L 556 -1331 
L -19 -1331 
L 922 3500 
L 1497 3500 
L 1394 2969 
z
" transform="scale(0.015625)"/>
       <path id="DejaVuSans-Oblique-72" d="M 2853 2969 
Q 2766 3016 2653 3041 
Q 2541 3066 2413 3066 
Q 1953 3066 1609 2717 
Q 1266 2369 1153 1784 
L 800 0 
L 225 0 
L 909 3500 
L 1484 3500 
L 1375 2956 
Q 1603 3259 1920 3421 
Q 2238 3584 2597 3584 
Q 2691 3584 2781 3573 
Q 2872 3563 2963 3538 
L 2853 2969 
z
" transform="scale(0.015625)"/>
       <path id="DejaVuSans-7c" d="M 1344 4891 
L 1344 -1509 
L 813 -1509 
L 813 4891 
L 1344 4891 
z
" transform="scale(0.015625)"/>
       <path id="DejaVuSans-Oblique-78" d="M 3841 3500 
L 2234 1784 
L 3219 0 
L 2559 0 
L 1819 1388 
L 531 0 
L -166 0 
L 1556 1844 
L 641 3500 
L 1300 3500 
L 1972 2234 
L 3144 3500 
L 3841 3500 
z
" transform="scale(0.015625)"/>
      </defs>
      <use xlink:href="#DejaVuSans-6d" transform="translate(0 0.578125)"/>
      <use xlink:href="#DejaVuSans-61" transform="translate(97.412109 0.578125)"/>
      <use xlink:href="#DejaVuSans-78" transform="translate(158.691406 0.578125)"/>
      <use xlink:href="#DejaVuSans-20" transform="translate(217.871094 0.578125)"/>
      <use xlink:href="#DejaVuSans-394" transform="translate(249.658203 0.578125)"/>
      <use xlink:href="#DejaVuSans-Oblique-70" transform="translate(318.066406 0.578125)"/>
      <use xlink:href="#DejaVuSans-28" transform="translate(381.542969 0.578125)"/>
      <use xlink:href="#DejaVuSans-Oblique-72" transform="translate(420.556641 0.578125)"/>
      <use xlink:href="#DejaVuSans-7c" transform="translate(461.669922 0.578125)"/>
      <use xlink:href="#DejaVuSans-Oblique-78" transform="translate(495.361328 0.578125)"/>
      <use xlink:href="#DejaVuSans-29" transform="translate(554.541016 0.578125)"/>
      <use xlink:href="#DejaVuSans-20" transform="translate(593.554688 0.578125)"/>
      <use xlink:href="#DejaVuSans-28" transform="translate(625.341797 0.578125)"/>
      <use xlink:href="#DejaVuSans-73" transform="translate(664.355469 0.578125)"/>
      <use xlink:href="#DejaVuSans-6f" transform="translate(716.455078 0.578125)"/>
      <use xlink:href="#DejaVuSans-66" transform="translate(777.636719 0.578125)"/>
      <use xlink:href="#DejaVuSans-74" transform="translate(812.841797 0.578125)"/>
      <use xlink:href="#DejaVuSans-6d" transform="translate(852.050781 0.578125)"/>
      <use xlink:href="#DejaVuSans-61" transform="translate(949.462891 0.578125)"/>
      <use xlink:href="#DejaVuSans-78" transform="translate(1010.742188 0.578125)"/>
      <use xlink:href="#DejaVuSans-2d" transform="translate(1069.921875 0.578125)"/>
      <use xlink:href="#DejaVuSans-49" transform="translate(1106.005859 0.578125)"/>
      <use xlink:href="#DejaVuSans-42" transform="translate(1135.498047 0.578125)"/>
      <use xlink:href="#DejaVuSans-20" transform="translate(1204.101562 0.578125)"/>
      <use xlink:href="#DejaVuSans-62" transform="translate(1235.888672 0.578125)"/>
      <use xlink:href="#DejaVuSans-6f" transform="translate(1299.365234 0.578125)"/>
      <use xlink:href="#DejaVuSans-75" transform="translate(1360.546875 0.578125)"/>
      <use xlink:href="#DejaVuSans-6e" transform="translate(1423.925781 0.578125)"/>
      <use xlink:href="#DejaVuSans-64" transform="translate(1487.304688 0.578125)"/>
      <use xlink:href="#DejaVuSans-29" transform="translate(1550.78125 0.578125)"/>
     </g>
    </g>
    <g id="text_28">
     <!-- 1e−13 -->
     <g transform="translate(34.648281 218.105729) scale(0.05 -0.05)">
      <defs>
       <path id="DejaVuSans-33" d="M 2597 2516 
Q 3050 2419 3304 2112 
Q 3559 1806 3559 1356 
Q 3559 666 3084 287 
Q 2609 -91 1734 -91 
Q 1441 -91 1130 -33 
Q 819 25 488 141 
L 488 750 
Q 750 597 1062 519 
Q 1375 441 1716 441 
Q 2309 441 2620 675 
Q 2931 909 2931 1356 
Q 2931 1769 2642 2001 
Q 2353 2234 1838 2234 
L 1294 2234 
L 1294 2753 
L 1863 2753 
Q 2328 2753 2575 2939 
Q 2822 3125 2822 3475 
Q 2822 3834 2567 4026 
Q 2313 4219 1838 4219 
Q 1578 4219 1281 4162 
Q 984 4106 628 3988 
L 628 4550 
Q 988 4650 1302 4700 
Q 1616 4750 1894 4750 
Q 2613 4750 3031 4423 
Q 3450 4097 3450 3541 
Q 3450 3153 3228 2886 
Q 3006 2619 2597 2516 
z
" transform="scale(0.015625)"/>
      </defs>
      <use xlink:href="#DejaVuSans-31"/>
      <use xlink:href="#DejaVuSans-65" x="63.623047"/>
      <use xlink:href="#DejaVuSans-2212" x="125.146484"/>
      <use xlink:href="#DejaVuSans-31" x="208.935547"/>
      <use xlink:href="#DejaVuSans-33" x="272.558594"/>
     </g>
    </g>
   </g>
   <g id="line2d_37">
    <path d="M 37.867252 259.448121 
L 37.961341 224.643608 
L 38.957744 270.411543 
L 39.358801 258.82164 
L 39.818912 256.246106 
L 40.336976 270.481152 
L 40.911762 267.105114 
L 41.541921 269.680648 
L 42.225993 270.30713 
L 42.962413 278.695017 
L 43.749521 280.365634 
L 44.585571 285.725529 
L 45.468741 285.447093 
L 46.397138 285.969161 
L 47.368814 281.966642 
L 48.38177 284.751003 
L 49.433967 286.212792 
L 50.523335 287.465755 
L 51.647782 287.604973 
L 52.805204 288.997153 
L 53.993488 288.092236 
L 55.210528 290.458943 
L 56.454225 289.97168 
L 57.722498 290.998413 
L 59.013289 290.110898 
L 60.324571 290.876597 
L 61.654351 291.085424 
L 63.000676 289.832462 
L 64.36164 290.319725 
L 65.735383 294.009003 
L 67.1201 292.947466 
L 69.915509 291.642296 
L 71.322877 292.82565 
L 72.734573 293.034477 
L 74.149092 292.477605 
L 75.564991 293.243304 
L 76.980893 294.357048 
L 78.395486 292.964868 
L 79.807525 293.939394 
L 81.215828 292.477605 
L 82.619279 290.737379 
L 84.016823 293.452131 
L 85.407472 292.82565 
L 86.790295 294.009003 
L 88.164424 293.034477 
L 89.529049 293.626154 
L 90.883418 293.991601 
L 92.226833 294.687691 
L 93.558649 293.591349 
L 94.878277 294.148221 
L 96.185172 294.339646 
L 97.478843 294.148221 
L 98.75884 293.67836 
L 100.024761 294.287439 
L 101.276245 294.009003 
L 102.51297 294.357048 
L 103.734654 294.426657 
L 104.941051 293.730567 
L 106.131951 294.426657 
L 107.307173 294.496266 
L 108.466571 294.357048 
L 109.610027 294.635484 
L 110.737449 294.339646 
L 112.94396 294.148221 
L 114.02299 294.565875 
L 115.085867 294.148221 
L 116.132616 294.705093 
L 117.163278 294.339646 
L 119.176594 294.635484 
L 120.159414 294.357048 
L 121.126476 294.565875 
L 122.077895 294.496266 
L 123.013799 294.565875 
L 123.934327 294.357048 
L 124.839626 294.705093 
L 125.729852 294.774702 
L 126.605169 294.496266 
L 129.143415 294.426657 
L 129.96087 294.652887 
L 130.76433 294.496266 
L 131.55399 294.635484 
L 132.330049 294.287439 
L 133.842176 294.966127 
L 134.578654 294.913921 
L 135.30235 294.391853 
L 136.013473 294.426657 
L 136.712232 294.635484 
L 137.398835 294.60068 
L 138.073492 294.21783 
L 138.73641 294.826909 
L 139.387798 293.939394 
L 140.027863 294.583278 
L 140.656811 294.357048 
L 141.274846 294.426657 
L 141.882172 294.739898 
L 142.478989 294.618082 
L 143.065498 294.705093 
L 143.641896 294.565875 
L 144.208379 294.21783 
L 144.76514 294.774702 
L 145.312369 294.426657 
L 145.850257 294.98353 
L 146.378988 294.774702 
L 146.898746 294.879116 
L 148.405981 294.461462 
L 149.369186 293.90459 
L 149.838812 294.896518 
L 150.300676 294.844311 
L 150.754937 294.252635 
L 151.201754 294.7573 
L 151.641284 294.409255 
L 152.073678 294.774702 
L 152.499088 294.774702 
L 152.917661 294.21783 
L 153.32954 294.774702 
L 153.734868 294.931323 
L 154.133784 294.496266 
L 154.526422 294.252635 
L 154.912918 294.565875 
L 155.2934 294.635484 
L 156.036836 294.60068 
L 156.400037 294.705093 
L 156.757721 294.670289 
L 157.110005 294.948725 
L 157.798832 294.774702 
L 158.135597 294.287439 
L 158.467407 294.078612 
L 158.794367 294.078612 
L 159.116581 294.844311 
L 159.434148 294.635484 
L 159.747167 294.078612 
L 160.055735 293.765372 
L 160.359944 294.583278 
L 160.659887 294.844311 
L 160.955653 294.426657 
L 161.24733 294.774702 
L 161.535003 294.879116 
L 161.818756 294.043808 
L 162.098671 294.60068 
L 162.374827 294.461462 
L 162.916171 294.98353 
L 163.18151 294.687691 
L 163.443391 294.913921 
L 163.701884 294.635484 
L 164.457722 294.635484 
L 164.70334 294.287439 
L 164.9459 294.913921 
L 165.185463 294.60068 
L 165.422088 294.809507 
L 165.655836 293.869785 
L 165.886761 294.966127 
L 166.11492 293.173695 
L 166.340367 293.52174 
L 166.783335 294.705093 
L 167.216075 294.948725 
L 167.428731 294.322244 
L 167.638974 294.844311 
L 167.84685 294.496266 
L 168.052404 294.565875 
L 168.255679 294.948725 
L 168.456717 294.357048 
L 168.655561 294.774702 
L 168.85225 294.774702 
L 169.046824 294.21783 
L 169.429782 294.705093 
L 169.618239 294.009003 
L 169.804731 294.844311 
L 169.989291 294.078612 
L 170.171955 294.913921 
L 170.531725 294.913921 
L 170.708895 294.009003 
L 170.884298 294.078612 
L 171.057962 294.374451 
L 171.229919 294.357048 
L 171.400196 294.844311 
L 171.568822 294.635484 
L 171.735825 294.705093 
L 171.901231 294.931323 
L 172.065067 294.774702 
L 172.38813 294.078612 
L 172.547406 294.844311 
L 172.705211 294.496266 
L 172.861568 294.635484 
L 173.17003 293.991601 
L 173.322178 294.705093 
L 173.622417 294.98353 
L 173.770548 294.113417 
L 173.91738 293.921992 
L 174.207226 294.844311 
L 174.772158 294.357048 
L 174.910419 294.774702 
L 175.047525 294.426657 
L 175.183492 294.913921 
L 175.318336 294.426657 
L 175.584716 294.565875 
L 175.716283 294.21783 
L 175.846786 294.809507 
L 175.976241 294.618082 
L 176.104661 294.896518 
L 176.23206 294.826909 
L 176.483848 294.913921 
L 176.608262 294.009003 
L 176.854195 294.357048 
L 176.975737 294.98353 
L 177.216034 294.826909 
L 177.33481 294.426657 
L 177.569675 294.705093 
L 177.801028 294.374451 
L 177.915413 294.948725 
L 178.02895 294.635484 
L 178.14165 294.705093 
L 178.253522 294.426657 
L 178.364575 294.844311 
L 178.474819 293.730567 
L 178.692915 294.98353 
L 178.800784 294.21783 
L 178.90788 294.496266 
L 179.01421 294.270037 
L 179.119783 294.774702 
L 179.224607 294.635484 
L 179.432039 294.98353 
L 179.636568 293.660958 
L 179.737762 294.722496 
L 179.838253 294.565875 
L 179.938048 294.687691 
L 180.037154 294.148221 
L 180.135578 294.792105 
L 180.233326 294.774702 
L 180.330405 294.287439 
L 180.426822 294.809507 
L 180.522583 294.565875 
L 180.617695 294.739898 
L 180.712163 294.60068 
L 180.805995 294.722496 
L 180.899195 294.635484 
L 180.991771 294.913921 
L 181.175071 294.426657 
L 181.265806 294.409255 
L 181.445477 294.7573 
L 181.534422 294.7573 
L 181.710562 293.800176 
L 181.884399 294.931323 
L 181.970468 294.478864 
L 182.055976 294.496266 
L 182.140929 294.913921 
L 182.392503 294.357048 
L 182.475282 294.913921 
L 182.557528 294.183026 
L 182.639247 294.7573 
L 182.801121 294.357048 
L 183.040084 294.896518 
L 183.118729 294.357048 
L 183.274531 294.774702 
L 183.428373 294.078612 
L 183.50457 294.7573 
L 183.580288 294.496266 
L 183.655532 294.548473 
L 183.730306 294.98353 
L 183.804613 294.426657 
L 183.878456 294.844311 
L 183.95184 294.705093 
L 184.097244 294.98353 
L 184.169271 293.869785 
L 184.240852 294.426657 
L 184.311991 294.948725 
L 184.382691 294.635484 
L 184.452956 294.774702 
L 184.522789 294.896518 
L 184.66117 294.652887 
L 184.729726 294.826909 
L 184.797862 294.774702 
L 184.865582 294.565875 
L 184.932889 294.705093 
L 185.066275 294.357048 
L 185.198044 294.948725 
L 185.26333 294.879116 
L 185.32822 294.357048 
L 185.392718 294.635484 
L 185.520548 294.357048 
L 185.646841 294.826909 
L 185.77162 294.426657 
L 185.833448 294.844311 
L 185.894905 294.774702 
L 186.07708 294.98353 
L 186.196723 294.287439 
L 186.256011 294.478864 
L 186.314946 294.618082 
L 186.37353 294.426657 
L 186.547205 295.079242 
L 186.717813 294.635484 
L 186.774012 294.809507 
L 186.829879 294.783404 
L 186.885416 294.531071 
L 186.940627 294.913921 
L 186.995513 294.426657 
L 187.050076 294.948725 
L 187.104318 294.635484 
L 187.211851 294.940024 
L 187.265145 294.774702 
L 187.370799 294.626783 
L 187.526978 294.913921 
L 187.629585 294.357048 
L 187.680442 294.774702 
L 187.731002 294.21783 
L 187.781269 294.565875 
L 187.831244 294.531071 
L 187.979438 294.913921 
L 188.028266 294.635484 
L 188.07681 294.98353 
L 188.268204 294.774702 
L 188.362254 294.774702 
L 188.408874 294.913921 
L 188.455226 294.565875 
L 188.501312 294.913921 
L 188.547133 294.774702 
L 188.592692 294.809507 
L 188.637989 295.009633 
L 188.683028 294.357048 
L 188.727809 294.818208 
L 188.772333 294.774702 
L 188.860621 294.913921 
L 188.991174 294.426657 
L 189.076975 294.83561 
L 189.11951 294.722496 
L 189.161804 294.748599 
L 189.203857 294.565875 
L 189.245672 294.844311 
L 189.410577 294.565875 
L 189.491637 294.913921 
L 189.531825 294.696392 
L 189.651032 294.870415 
L 189.768237 294.426657 
L 189.806868 294.705093 
L 189.845281 295.053139 
L 189.921462 294.800806 
L 190.034142 295.053139 
L 190.108215 295.070541 
L 190.144942 294.565875 
L 190.289812 294.98353 
L 190.361043 294.635484 
L 190.396361 294.913921 
L 190.431484 295.000932 
L 190.570035 294.783404 
L 190.671948 294.948725 
L 190.705544 294.913921 
L 190.738954 294.844311 
L 190.77218 295.261966 
L 190.838084 294.774702 
L 190.903263 294.774702 
L 190.935584 295.053139 
L 190.999693 294.913921 
L 191.031484 294.896518 
L 191.125815 294.687691 
L 191.218604 295.053139 
L 191.27962 294.565875 
L 191.339972 294.853013 
L 191.399668 295.122748 
L 191.458714 295.053139 
L 191.517121 294.565875 
L 191.546086 294.931323 
L 191.688571 295.261966 
L 191.772223 294.774702 
L 191.827241 295.053139 
L 191.908658 294.21783 
L 191.935505 294.844311 
L 192.041457 295.096644 
L 192.067589 294.98353 
L 192.093582 294.75295 
L 192.119435 295.035736 
L 192.170726 294.913921 
L 192.27167 295.092294 
L 192.246636 294.844311 
L 192.296569 294.98353 
L 192.370473 294.635484 
L 192.394845 294.844311 
L 192.419088 295.053139 
L 192.514773 294.913921 
L 192.561857 295.122748 
L 192.608442 294.974828 
L 192.631549 294.844311 
L 192.677397 295.183656 
L 192.700139 295.053139 
L 192.789911 294.774702 
L 192.812059 294.887817 
L 192.877803 295.096644 
L 192.921057 295.000932 
L 193.068906 295.053139 
L 193.110158 295.157552 
L 193.150979 294.839961 
L 193.270907 295.192357 
L 193.310053 294.861714 
L 193.387131 295.135799 
L 193.481245 294.774702 
L 193.53655 294.896518 
L 193.662296 295.161903 
L 193.714808 294.879116 
L 193.783569 295.009633 
L 193.817422 294.896518 
L 193.850927 295.053139 
L 193.933197 295.174954 
L 193.884089 294.98353 
L 193.965518 295.100995 
L 194.029174 294.844311 
L 194.044885 295.040087 
L 194.076066 295.183656 
L 194.15264 295.122748 
L 194.182726 294.98353 
L 194.241986 295.192357 
L 194.256614 295.192357 
L 194.314384 294.913921 
L 194.398869 295.053139 
L 194.412701 295.050963 
L 194.453781 294.972653 
L 194.534093 295.192357 
L 194.573345 294.774702 
L 194.650091 295.116222 
L 194.748881 294.857363 
L 194.724555 295.192357 
L 194.760953 295.105345 
L 194.80864 295.079242 
L 194.878402 295.261966 
L 195.000992 294.913921 
L 195.075575 295.192357 
L 195.117042 295.122748 
L 195.236617 295.261966 
L 195.321749 295.053139 
L 195.303157 295.279368 
L 195.349295 295.192357 
L 195.429528 295.122748 
L 195.403178 295.301121 
L 195.455492 295.192357 
L 195.481074 295.122748 
L 195.555597 295.261966 
L 195.634627 295.122748 
L 195.665171 295.192357 
L 195.970618 295.122748 
L 195.9827 295.053139 
L 196.080787 295.331575 
L 196.145307 295.122748 
L 196.191291 295.261966 
L 196.201239 295.192357 
L 196.206178 295.260878 
L 196.211092 295.122748 
L 196.291095 295.331575 
L 196.313398 295.261966 
L 196.335168 295.122748 
L 196.424934 295.331575 
L 196.522807 295.192357 
L 196.532914 295.261966 
L 196.634914 295.331575 
L 196.646206 295.329943 
L 196.657282 295.331575 
L 196.759245 295.261966 
L 196.797987 295.261966 
L 196.797987 295.261966 
" clip-path="url(#p85e36d9a62)" style="fill: none; stroke: #1f77b4; stroke-width: 0.7; stroke-linecap: square"/>
   </g>
   <g id="line2d_38">
    <path d="M 37.835863 295.401184 
L 197.214931 295.401184 
" clip-path="url(#p85e36d9a62)" style="fill: none; stroke-dasharray: 2.59,1.12; stroke-dashoffset: 0; stroke: #000000; stroke-width: 0.7"/>
   </g>
   <g id="patch_9">
    <path d="M 34.648281 298.939062 
L 34.648281 221.105729 
" style="fill: none; stroke: #000000; stroke-width: 0.5; stroke-linejoin: miter; stroke-linecap: square"/>
   </g>
   <g id="patch_10">
    <path d="M 34.648281 298.939062 
L 200.402512 298.939062 
" style="fill: none; stroke: #000000; stroke-width: 0.5; stroke-linejoin: miter; stroke-linecap: square"/>
   </g>
   <g id="text_29">
    <!-- max $p(r|x)$ difference -->
    <g transform="translate(85.635397 215.105729) scale(0.06 -0.06)">
     <use xlink:href="#DejaVuSans-6d" transform="translate(0 0.578125)"/>
     <use xlink:href="#DejaVuSans-61" transform="translate(97.412109 0.578125)"/>
     <use xlink:href="#DejaVuSans-78" transform="translate(158.691406 0.578125)"/>
     <use xlink:href="#DejaVuSans-20" transform="translate(217.871094 0.578125)"/>
     <use xlink:href="#DejaVuSans-Oblique-70" transform="translate(249.658203 0.578125)"/>
     <use xlink:href="#DejaVuSans-28" transform="translate(313.134766 0.578125)"/>
     <use xlink:href="#DejaVuSans-Oblique-72" transform="translate(352.148438 0.578125)"/>
     <use xlink:href="#DejaVuSans-7c" transform="translate(393.261719 0.578125)"/>
     <use xlink:href="#DejaVuSans-Oblique-78" transform="translate(426.953125 0.578125)"/>
     <use xlink:href="#DejaVuSans-29" transform="translate(486.132812 0.578125)"/>
     <use xlink:href="#DejaVuSans-20" transform="translate(525.146484 0.578125)"/>
     <use xlink:href="#DejaVuSans-64" transform="translate(556.933594 0.578125)"/>
     <use xlink:href="#DejaVuSans-69" transform="translate(620.410156 0.578125)"/>
     <use xlink:href="#DejaVuSans-66" transform="translate(648.193359 0.578125)"/>
     <use xlink:href="#DejaVuSans-66" transform="translate(683.398438 0.578125)"/>
     <use xlink:href="#DejaVuSans-65" transform="translate(718.603516 0.578125)"/>
     <use xlink:href="#DejaVuSans-72" transform="translate(780.126953 0.578125)"/>
     <use xlink:href="#DejaVuSans-65" transform="translate(821.240234 0.578125)"/>
     <use xlink:href="#DejaVuSans-6e" transform="translate(882.763672 0.578125)"/>
     <use xlink:href="#DejaVuSans-63" transform="translate(946.142578 0.578125)"/>
     <use xlink:href="#DejaVuSans-65" transform="translate(1001.123047 0.578125)"/>
    </g>
   </g>
  </g>
 </g>
 <defs>
  <clipPath id="p9a8390e3bb">
   <rect x="34.648281" y="17.759062" width="165.754231" height="77.833333"/>
  </clipPath>
  <clipPath id="p8980d33ce3">
   <rect x="34.648281" y="119.432396" width="165.754231" height="77.833333"/>
  </clipPath>
  <clipPath id="p85e36d9a62">
   <rect x="34.648281" y="221.105729" width="165.754231" height="77.833333"/>
  </clipPath>
 </defs>
</svg>
