<?xml version="1.0" encoding="utf-8" standalone="no"?>
<!DOCTYPE svg PUBLIC "-//W3C//DTD SVG 1.1//EN"
  "http://www.w3.org/Graphics/SVG/1.1/DTD/svg11.dtd">
<svg xmlns:xlink="http://www.w3.org/1999/xlink" width="148.199219pt" height="109.798672pt" viewBox="0 0 148.199219 109.798672" xmlns="http://www.w3.org/2000/svg" version="1.1">
 <metadata>
  <rdf:RDF xmlns:dc="http://purl.org/dc/elements/1.1/" xmlns:cc="http://creativecommons.org/ns#" xmlns:rdf="http://www.w3.org/1999/02/22-rdf-syntax-ns#">
   <cc:Work>
    <dc:type rdf:resource="http://purl.org/dc/dcmitype/StillImage"/>
    <dc:date>2026-04-19T16:16:09.965279</dc:date>
    <dc:format>image/svg+xml</dc:format>
    <dc:creator>
     <cc:Agent>
      <dc:title>Matplotlib v3.8.2, https://matplotlib.org/</dc:title>
     </cc:Agent>
    </dc:creator>
   </cc:Work>
  </rdf:RDF>
 </metadata>
 <defs>
  <style type="text/css">*{stroke-linejoin: round; stroke-linecap: butt}</style>
 </defs>
 <g id="figure_1">
  <g id="patch_1">
   <path d="M 0 109.798672 
L 148.199219 109.798672 
L 148.199219 -0 
L 0 -0 
z
" style="fill: #ffffff"/>
  </g>
  <g id="axes_1">
   <g id="patch_2">
    <path d="M 23.832812 92.259609 
L 135.432812 92.259609 
L 135.432812 9.099609 
L 23.832812 9.099609 
z
" style="fill: #ffffff"/>
   </g>
   <g id="matplotlib.axis_1">
    <g id="xtick_1">
     <g id="line2d_1">
      <defs>
       <path id="md2b85c46ab" d="M 0 0 
L 0 2 
" style="stroke: #000000; stroke-width: 0.5"/>
      </defs>
      <g>
       <use xlink:href="#md2b85c46ab" x="23.832813" y="92.259609" style="stroke: #000000; stroke-width: 0.5"/>
      </g>
     </g>
     <g id="text_1">
      <!-- 0.30 -->
      <g transform="translate(18.266406 101.558828) scale(0.05 -0.05)">
       <defs>
        <path id="DejaVuSans-30" d="M 2034 4250 
Q 1547 4250 1301 3770 
Q 1056 3291 1056 2328 
Q 1056 1369 1301 889 
Q 1547 409 2034 409 
Q 2525 409 2770 889 
Q 3016 1369 3016 2328 
Q 3016 3291 2770 3770 
Q 2525 4250 2034 4250 
z
M 2034 4750 
Q 2819 4750 3233 4129 
Q 3647 3509 3647 2328 
Q 3647 1150 3233 529 
Q 2819 -91 2034 -91 
Q 1250 -91 836 529 
Q 422 1150 422 2328 
Q 422 3509 836 4129 
Q 1250 4750 2034 4750 
z
" transform="scale(0.015625)"/>
        <path id="DejaVuSans-2e" d="M 684 794 
L 1344 794 
L 1344 0 
L 684 0 
L 684 794 
z
" transform="scale(0.015625)"/>
        <path id="DejaVuSans-33" d="M 2597 2516 
Q 3050 2419 3304 2112 
Q 3559 1806 3559 1356 
Q 3559 666 3084 287 
Q 2609 -91 1734 -91 
Q 1441 -91 1130 -33 
Q 819 25 488 141 
L 488 750 
Q 750 597 1062 519 
Q 1375 441 1716 441 
Q 2309 441 2620 675 
Q 2931 909 2931 1356 
Q 2931 1769 2642 2001 
Q 2353 2234 1838 2234 
L 1294 2234 
L 1294 2753 
L 1863 2753 
Q 2328 2753 2575 2939 
Q 2822 3125 2822 3475 
Q 2822 3834 2567 4026 
Q 2313 4219 1838 4219 
Q 1578 4219 1281 4162 
Q 984 4106 628 3988 
L 628 4550 
Q 988 4650 1302 4700 
Q 1616 4750 1894 4750 
Q 2613 4750 3031 4423 
Q 3450 4097 3450 3541 
Q 3450 3153 3228 2886 
Q 3006 2619 2597 2516 
z
" transform="scale(0.015625)"/>
       </defs>
       <use xlink:href="#DejaVuSans-30"/>
       <use xlink:href="#DejaVuSans-2e" x="63.623047"/>
       <use xlink:href="#DejaVuSans-33" x="95.410156"/>
       <use xlink:href="#DejaVuSans-30" x="159.033203"/>
      </g>
     </g>
    </g>
    <g id="xtick_2">
     <g id="line2d_2">
      <g>
       <use xlink:href="#md2b85c46ab" x="46.152812" y="92.259609" style="stroke: #000000; stroke-width: 0.5"/>
      </g>
     </g>
     <g id="text_2">
      <!-- 0.32 -->
      <g transform="translate(40.586406 101.558828) scale(0.05 -0.05)">
       <defs>
        <path id="DejaVuSans-32" d="M 1228 531 
L 3431 531 
L 3431 0 
L 469 0 
L 469 531 
Q 828 903 1448 1529 
Q 2069 2156 2228 2338 
Q 2531 2678 2651 2914 
Q 2772 3150 2772 3378 
Q 2772 3750 2511 3984 
Q 2250 4219 1831 4219 
Q 1534 4219 1204 4116 
Q 875 4013 500 3803 
L 500 4441 
Q 881 4594 1212 4672 
Q 1544 4750 1819 4750 
Q 2544 4750 2975 4387 
Q 3406 4025 3406 3419 
Q 3406 3131 3298 2873 
Q 3191 2616 2906 2266 
Q 2828 2175 2409 1742 
Q 1991 1309 1228 531 
z
" transform="scale(0.015625)"/>
       </defs>
       <use xlink:href="#DejaVuSans-30"/>
       <use xlink:href="#DejaVuSans-2e" x="63.623047"/>
       <use xlink:href="#DejaVuSans-33" x="95.410156"/>
       <use xlink:href="#DejaVuSans-32" x="159.033203"/>
      </g>
     </g>
    </g>
    <g id="xtick_3">
     <g id="line2d_3">
      <g>
       <use xlink:href="#md2b85c46ab" x="68.472812" y="92.259609" style="stroke: #000000; stroke-width: 0.5"/>
      </g>
     </g>
     <g id="text_3">
      <!-- 0.34 -->
      <g transform="translate(62.906406 101.558828) scale(0.05 -0.05)">
       <defs>
        <path id="DejaVuSans-34" d="M 2419 4116 
L 825 1625 
L 2419 1625 
L 2419 4116 
z
M 2253 4666 
L 3047 4666 
L 3047 1625 
L 3713 1625 
L 3713 1100 
L 3047 1100 
L 3047 0 
L 2419 0 
L 2419 1100 
L 313 1100 
L 313 1709 
L 2253 4666 
z
" transform="scale(0.015625)"/>
       </defs>
       <use xlink:href="#DejaVuSans-30"/>
       <use xlink:href="#DejaVuSans-2e" x="63.623047"/>
       <use xlink:href="#DejaVuSans-33" x="95.410156"/>
       <use xlink:href="#DejaVuSans-34" x="159.033203"/>
      </g>
     </g>
    </g>
    <g id="xtick_4">
     <g id="line2d_4">
      <g>
       <use xlink:href="#md2b85c46ab" x="90.792813" y="92.259609" style="stroke: #000000; stroke-width: 0.5"/>
      </g>
     </g>
     <g id="text_4">
      <!-- 0.36 -->
      <g transform="translate(85.226406 101.558828) scale(0.05 -0.05)">
       <defs>
        <path id="DejaVuSans-36" d="M 2113 2584 
Q 1688 2584 1439 2293 
Q 1191 2003 1191 1497 
Q 1191 994 1439 701 
Q 1688 409 2113 409 
Q 2538 409 2786 701 
Q 3034 994 3034 1497 
Q 3034 2003 2786 2293 
Q 2538 2584 2113 2584 
z
M 3366 4563 
L 3366 3988 
Q 3128 4100 2886 4159 
Q 2644 4219 2406 4219 
Q 1781 4219 1451 3797 
Q 1122 3375 1075 2522 
Q 1259 2794 1537 2939 
Q 1816 3084 2150 3084 
Q 2853 3084 3261 2657 
Q 3669 2231 3669 1497 
Q 3669 778 3244 343 
Q 2819 -91 2113 -91 
Q 1303 -91 875 529 
Q 447 1150 447 2328 
Q 447 3434 972 4092 
Q 1497 4750 2381 4750 
Q 2619 4750 2861 4703 
Q 3103 4656 3366 4563 
z
" transform="scale(0.015625)"/>
       </defs>
       <use xlink:href="#DejaVuSans-30"/>
       <use xlink:href="#DejaVuSans-2e" x="63.623047"/>
       <use xlink:href="#DejaVuSans-33" x="95.410156"/>
       <use xlink:href="#DejaVuSans-36" x="159.033203"/>
      </g>
     </g>
    </g>
    <g id="xtick_5">
     <g id="line2d_5">
      <g>
       <use xlink:href="#md2b85c46ab" x="113.112812" y="92.259609" style="stroke: #000000; stroke-width: 0.5"/>
      </g>
     </g>
     <g id="text_5">
      <!-- 0.38 -->
      <g transform="translate(107.546406 101.558828) scale(0.05 -0.05)">
       <defs>
        <path id="DejaVuSans-38" d="M 2034 2216 
Q 1584 2216 1326 1975 
Q 1069 1734 1069 1313 
Q 1069 891 1326 650 
Q 1584 409 2034 409 
Q 2484 409 2743 651 
Q 3003 894 3003 1313 
Q 3003 1734 2745 1975 
Q 2488 2216 2034 2216 
z
M 1403 2484 
Q 997 2584 770 2862 
Q 544 3141 544 3541 
Q 544 4100 942 4425 
Q 1341 4750 2034 4750 
Q 2731 4750 3128 4425 
Q 3525 4100 3525 3541 
Q 3525 3141 3298 2862 
Q 3072 2584 2669 2484 
Q 3125 2378 3379 2068 
Q 3634 1759 3634 1313 
Q 3634 634 3220 271 
Q 2806 -91 2034 -91 
Q 1263 -91 848 271 
Q 434 634 434 1313 
Q 434 1759 690 2068 
Q 947 2378 1403 2484 
z
M 1172 3481 
Q 1172 3119 1398 2916 
Q 1625 2713 2034 2713 
Q 2441 2713 2670 2916 
Q 2900 3119 2900 3481 
Q 2900 3844 2670 4047 
Q 2441 4250 2034 4250 
Q 1625 4250 1398 4047 
Q 1172 3844 1172 3481 
z
" transform="scale(0.015625)"/>
       </defs>
       <use xlink:href="#DejaVuSans-30"/>
       <use xlink:href="#DejaVuSans-2e" x="63.623047"/>
       <use xlink:href="#DejaVuSans-33" x="95.410156"/>
       <use xlink:href="#DejaVuSans-38" x="159.033203"/>
      </g>
     </g>
    </g>
    <g id="xtick_6">
     <g id="line2d_6">
      <g>
       <use xlink:href="#md2b85c46ab" x="135.432812" y="92.259609" style="stroke: #000000; stroke-width: 0.5"/>
      </g>
     </g>
     <g id="text_6">
      <!-- 0.40 -->
      <g transform="translate(129.866406 101.558828) scale(0.05 -0.05)">
       <use xlink:href="#DejaVuSans-30"/>
       <use xlink:href="#DejaVuSans-2e" x="63.623047"/>
       <use xlink:href="#DejaVuSans-34" x="95.410156"/>
       <use xlink:href="#DejaVuSans-30" x="159.033203"/>
      </g>
     </g>
    </g>
   </g>
   <g id="matplotlib.axis_2">
    <g id="ytick_1">
     <g id="line2d_7">
      <defs>
       <path id="m5a1e709c2a" d="M 0 0 
L -2 0 
" style="stroke: #000000; stroke-width: 0.5"/>
      </defs>
      <g>
       <use xlink:href="#m5a1e709c2a" x="23.832812" y="92.259609" style="stroke: #000000; stroke-width: 0.5"/>
      </g>
     </g>
     <g id="text_7">
      <!-- 0.11 -->
      <g transform="translate(7.2 94.159219) scale(0.05 -0.05)">
       <defs>
        <path id="DejaVuSans-31" d="M 794 531 
L 1825 531 
L 1825 4091 
L 703 3866 
L 703 4441 
L 1819 4666 
L 2450 4666 
L 2450 531 
L 3481 531 
L 3481 0 
L 794 0 
L 794 531 
z
" transform="scale(0.015625)"/>
       </defs>
       <use xlink:href="#DejaVuSans-30"/>
       <use xlink:href="#DejaVuSans-2e" x="63.623047"/>
       <use xlink:href="#DejaVuSans-31" x="95.410156"/>
       <use xlink:href="#DejaVuSans-31" x="159.033203"/>
      </g>
     </g>
    </g>
    <g id="ytick_2">
     <g id="line2d_8">
      <g>
       <use xlink:href="#m5a1e709c2a" x="23.832812" y="75.627609" style="stroke: #000000; stroke-width: 0.5"/>
      </g>
     </g>
     <g id="text_8">
      <!-- 0.12 -->
      <g transform="translate(7.2 77.527219) scale(0.05 -0.05)">
       <use xlink:href="#DejaVuSans-30"/>
       <use xlink:href="#DejaVuSans-2e" x="63.623047"/>
       <use xlink:href="#DejaVuSans-31" x="95.410156"/>
       <use xlink:href="#DejaVuSans-32" x="159.033203"/>
      </g>
     </g>
    </g>
    <g id="ytick_3">
     <g id="line2d_9">
      <g>
       <use xlink:href="#m5a1e709c2a" x="23.832812" y="58.995609" style="stroke: #000000; stroke-width: 0.5"/>
      </g>
     </g>
     <g id="text_9">
      <!-- 0.13 -->
      <g transform="translate(7.2 60.895219) scale(0.05 -0.05)">
       <use xlink:href="#DejaVuSans-30"/>
       <use xlink:href="#DejaVuSans-2e" x="63.623047"/>
       <use xlink:href="#DejaVuSans-31" x="95.410156"/>
       <use xlink:href="#DejaVuSans-33" x="159.033203"/>
      </g>
     </g>
    </g>
    <g id="ytick_4">
     <g id="line2d_10">
      <g>
       <use xlink:href="#m5a1e709c2a" x="23.832812" y="42.363609" style="stroke: #000000; stroke-width: 0.5"/>
      </g>
     </g>
     <g id="text_10">
      <!-- 0.14 -->
      <g transform="translate(7.2 44.263219) scale(0.05 -0.05)">
       <use xlink:href="#DejaVuSans-30"/>
       <use xlink:href="#DejaVuSans-2e" x="63.623047"/>
       <use xlink:href="#DejaVuSans-31" x="95.410156"/>
       <use xlink:href="#DejaVuSans-34" x="159.033203"/>
      </g>
     </g>
    </g>
    <g id="ytick_5">
     <g id="line2d_11">
      <g>
       <use xlink:href="#m5a1e709c2a" x="23.832812" y="25.731609" style="stroke: #000000; stroke-width: 0.5"/>
      </g>
     </g>
     <g id="text_11">
      <!-- 0.15 -->
      <g transform="translate(7.2 27.631219) scale(0.05 -0.05)">
       <defs>
        <path id="DejaVuSans-35" d="M 691 4666 
L 3169 4666 
L 3169 4134 
L 1269 4134 
L 1269 2991 
Q 1406 3038 1543 3061 
Q 1681 3084 1819 3084 
Q 2600 3084 3056 2656 
Q 3513 2228 3513 1497 
Q 3513 744 3044 326 
Q 2575 -91 1722 -91 
Q 1428 -91 1123 -41 
Q 819 9 494 109 
L 494 744 
Q 775 591 1075 516 
Q 1375 441 1709 441 
Q 2250 441 2565 725 
Q 2881 1009 2881 1497 
Q 2881 1984 2565 2268 
Q 2250 2553 1709 2553 
Q 1456 2553 1204 2497 
Q 953 2441 691 2322 
L 691 4666 
z
" transform="scale(0.015625)"/>
       </defs>
       <use xlink:href="#DejaVuSans-30"/>
       <use xlink:href="#DejaVuSans-2e" x="63.623047"/>
       <use xlink:href="#DejaVuSans-31" x="95.410156"/>
       <use xlink:href="#DejaVuSans-35" x="159.033203"/>
      </g>
     </g>
    </g>
    <g id="ytick_6">
     <g id="line2d_12">
      <g>
       <use xlink:href="#m5a1e709c2a" x="23.832812" y="9.099609" style="stroke: #000000; stroke-width: 0.5"/>
      </g>
     </g>
     <g id="text_12">
      <!-- 0.16 -->
      <g transform="translate(7.2 10.999219) scale(0.05 -0.05)">
       <use xlink:href="#DejaVuSans-30"/>
       <use xlink:href="#DejaVuSans-2e" x="63.623047"/>
       <use xlink:href="#DejaVuSans-31" x="95.410156"/>
       <use xlink:href="#DejaVuSans-36" x="159.033203"/>
      </g>
     </g>
    </g>
   </g>
   <g id="line2d_13">
    <path d="M 79.632812 47.353209 
L 90.792812 47.353209 
L 90.792812 39.037209 
L 79.632812 39.037209 
L 79.632812 47.353209 
" clip-path="url(#pe4f7b98306)" style="fill: none; stroke-dasharray: 1.48,0.64; stroke-dashoffset: 0; stroke: #000000; stroke-width: 0.4"/>
   </g>
   <g id="line2d_14">
    <path d="M 22.137506 75.963012 
L 24.078644 74.915471 
L 26.017538 73.870586 
L 27.954141 72.828381 
L 29.888402 71.78888 
L 31.820274 70.752106 
L 33.74971 69.718082 
L 35.676663 68.686829 
L 37.601087 67.658369 
L 39.522937 66.632724 
L 41.442167 65.609913 
L 43.358734 64.589957 
L 45.272595 63.572876 
L 47.183706 62.558689 
L 49.092026 61.547414 
L 50.997512 60.539071 
L 52.900124 59.533675 
L 54.799823 58.531246 
L 56.696567 57.531799 
L 58.590318 56.535352 
L 60.481038 55.54192 
L 62.368688 54.551519 
L 64.253232 53.564164 
L 66.134632 52.579869 
L 68.012854 51.598649 
L 69.887861 50.620518 
L 71.759618 49.645489 
L 73.628091 48.673575 
L 75.493247 47.704789 
L 77.355052 46.739144 
L 79.213474 45.776649 
L 81.06848 44.817319 
L 82.92004 43.861162 
L 84.768122 42.90819 
L 86.612696 41.958414 
L 88.453733 41.011842 
L 90.291202 40.068486 
L 92.125076 39.128352 
L 93.955326 38.191452 
L 95.781924 37.257792 
L 97.604843 36.327381 
L 99.424058 35.400227 
L 101.239541 34.476337 
L 103.051267 33.555718 
L 104.859211 32.638376 
L 106.663348 31.724319 
L 108.463655 30.813552 
L 110.260108 29.906081 
L 112.052684 29.00191 
L 113.841359 28.101046 
L 115.626113 27.203493 
L 117.406924 26.309255 
L 119.183769 25.418337 
L 120.956629 24.530742 
L 122.725484 23.646474 
L 124.490313 22.765536 
L 126.251098 21.887931 
L 128.007819 21.013662 
L 129.760458 20.142731 
L 131.508997 19.275139 
L 133.253419 18.41089 
L 134.993706 17.549984 
L 136.729843 16.692423 
" clip-path="url(#pe4f7b98306)" style="fill: none; stroke: #1f77b4; stroke-width: 0.5; stroke-linecap: square"/>
   </g>
   <g id="line2d_15">
    <path d="M 22.760443 75.683476 
L 23.872626 75.083939 
L 24.984566 74.485012 
L 26.096251 73.886701 
L 27.207671 73.289011 
L 28.318817 72.69195 
L 29.429677 72.095521 
L 30.540241 71.499731 
L 31.6505 70.904586 
L 32.760441 70.310091 
L 33.870057 69.716252 
L 34.979335 69.123074 
L 36.088267 68.530563 
L 37.196842 67.938724 
L 38.30505 67.347562 
L 39.412881 66.757083 
L 40.520325 66.167293 
L 41.627372 65.578196 
L 42.734012 64.989797 
L 43.840235 64.402103 
L 44.946033 63.815118 
L 46.051393 63.228846 
L 47.156308 62.643295 
L 48.260768 62.058467 
L 49.364762 61.474369 
L 50.468281 60.891005 
L 51.571315 60.308381 
L 52.673856 59.7265 
L 53.775894 59.145369 
L 54.877418 58.564991 
L 55.97842 57.985372 
L 57.078891 57.406516 
L 58.178821 56.828428 
L 59.278201 56.251113 
L 60.377021 55.674575 
L 61.475273 55.098819 
L 62.572947 54.523849 
L 63.670035 53.94967 
L 64.766526 53.376287 
L 65.862413 52.803703 
L 66.957686 52.231923 
L 68.052337 51.660952 
L 69.146356 51.090793 
L 70.239734 50.521452 
L 71.332464 49.952932 
L 72.424535 49.385237 
L 73.51594 48.818372 
L 74.60667 48.252341 
L 75.696715 47.687147 
L 76.786068 47.122796 
L 77.874721 46.55929 
L 78.962664 45.996634 
L 80.049888 45.434832 
L 81.136387 44.873887 
L 82.222151 44.313804 
L 83.307172 43.754586 
L 84.391442 43.196237 
L 85.474952 42.63876 
L 86.557695 42.082161 
L 87.639662 41.526441 
L 88.720845 40.971605 
L 89.801237 40.417657 
L 90.880828 39.864599 
L 91.959612 39.312436 
L 93.03758 38.76117 
L 94.114724 38.210806 
L 95.191037 37.661346 
L 96.26651 37.112795 
L 97.341137 36.565155 
L 98.414909 36.018429 
L 99.487819 35.472622 
L 100.559859 34.927735 
L 101.631021 34.383773 
L 102.701298 33.840738 
L 103.770684 33.298634 
L 104.839169 32.757463 
L 105.906747 32.217229 
L 106.97341 31.677934 
L 108.039152 31.139582 
L 109.103964 30.602176 
L 110.16784 30.065717 
L 111.230773 29.53021 
L 112.292755 28.995657 
L 113.35378 28.462061 
L 114.41384 27.929425 
L 115.472928 27.39775 
L 116.531037 26.867041 
L 117.588161 26.337299 
L 118.644293 25.808527 
L 119.699426 25.280728 
L 120.753553 24.753904 
L 121.806667 24.228058 
L 122.858762 23.703193 
L 123.909831 23.179309 
L 124.959867 22.656411 
L 126.008865 22.1345 
L 127.056817 21.613579 
L 128.103717 21.09365 
L 129.149559 20.574715 
L 130.194336 20.056777 
L 131.238042 19.539837 
L 132.28067 19.023898 
L 133.322215 18.508962 
L 134.362671 17.995031 
L 135.40203 17.482107 
L 136.440288 16.970192 
" clip-path="url(#pe4f7b98306)" style="fill: none; stroke: #ff7f0e; stroke-width: 0.5; stroke-linecap: square"/>
   </g>
   <g id="line2d_16">
    <path d="M 21.583351 81.333499 
L 31.166379 76.168205 
L 40.628218 71.096577 
L 49.965861 66.119583 
L 59.176825 61.237868 
L 68.259104 56.451778 
L 77.211129 51.761397 
L 86.03173 47.166566 
L 94.720097 42.666918 
L 103.275751 38.261891 
L 111.698509 33.950756 
L 119.988456 29.732637 
L 128.14592 25.606526 
L 136.171446 21.571299 
" clip-path="url(#pe4f7b98306)" style="fill: none; stroke: #2ca02c; stroke-width: 0.5; stroke-linecap: square"/>
   </g>
   <g id="line2d_17">
    <path d="M 22.334822 82.938513 
L 27.840152 80.003621 
L 33.312036 77.095097 
L 38.749505 74.213354 
L 44.151656 71.358764 
L 49.517648 68.53166 
L 54.846702 65.732339 
L 60.1381 62.961061 
L 65.391179 60.218053 
L 70.605333 57.503508 
L 75.78001 54.817591 
L 80.914708 52.160433 
L 86.008976 49.53214 
L 91.062409 46.93279 
L 96.07465 44.362434 
L 101.045383 41.821099 
L 105.974336 39.308792 
L 110.861276 36.825493 
L 115.70601 34.371165 
L 120.508379 31.94575 
L 125.268261 29.549172 
L 129.985566 27.181336 
L 134.660236 24.842133 
L 139.292245 22.531437 
" clip-path="url(#pe4f7b98306)" style="fill: none; stroke: #d62728; stroke-width: 0.5; stroke-linecap: square"/>
   </g>
   <g id="patch_3">
    <path d="M 23.832812 92.259609 
L 23.832812 9.099609 
" style="fill: none; stroke: #000000; stroke-width: 0.5; stroke-linejoin: miter; stroke-linecap: square"/>
   </g>
   <g id="patch_4">
    <path d="M 23.832812 92.259609 
L 135.432812 92.259609 
" style="fill: none; stroke: #000000; stroke-width: 0.5; stroke-linejoin: miter; stroke-linecap: square"/>
   </g>
  </g>
 </g>
 <defs>
  <clipPath id="pe4f7b98306">
   <rect x="23.832812" y="9.099609" width="111.6" height="83.16"/>
  </clipPath>
 </defs>
</svg>
